G04 #@! TF.GenerationSoftware,KiCad,Pcbnew,(5.0.2)-1*
G04 #@! TF.CreationDate,2020-01-11T13:29:28-06:00*
G04 #@! TF.ProjectId,TM4C129 Breakout Tester,544d3443-3132-4392-9042-7265616b6f75,rev?*
G04 #@! TF.SameCoordinates,Original*
G04 #@! TF.FileFunction,Copper,L2,Bot*
G04 #@! TF.FilePolarity,Positive*
%FSLAX46Y46*%
G04 Gerber Fmt 4.6, Leading zero omitted, Abs format (unit mm)*
G04 Created by KiCad (PCBNEW (5.0.2)-1) date 1/11/2020 1:29:28 PM*
%MOMM*%
%LPD*%
G01*
G04 APERTURE LIST*
G04 #@! TA.AperFunction,ComponentPad*
%ADD10C,1.524000*%
G04 #@! TD*
G04 #@! TA.AperFunction,ComponentPad*
%ADD11C,5.080000*%
G04 #@! TD*
G04 #@! TA.AperFunction,ComponentPad*
%ADD12C,1.700000*%
G04 #@! TD*
G04 #@! TA.AperFunction,ComponentPad*
%ADD13O,4.000000X3.000000*%
G04 #@! TD*
G04 #@! TA.AperFunction,ComponentPad*
%ADD14C,3.000000*%
G04 #@! TD*
G04 #@! TA.AperFunction,ViaPad*
%ADD15C,0.800000*%
G04 #@! TD*
G04 #@! TA.AperFunction,Conductor*
%ADD16C,0.762000*%
G04 #@! TD*
G04 #@! TA.AperFunction,Conductor*
%ADD17C,0.381000*%
G04 #@! TD*
G04 #@! TA.AperFunction,Conductor*
%ADD18C,0.254000*%
G04 #@! TD*
G04 APERTURE END LIST*
D10*
G04 #@! TO.P,U2,PB2*
G04 #@! TO.N,SCL0*
X109728000Y-77724000D03*
G04 #@! TO.P,U2,GND*
G04 #@! TO.N,GND*
X109728000Y-75184000D03*
X127508000Y-77724000D03*
X127508000Y-75184000D03*
G04 #@! TO.P,U2,PB3*
G04 #@! TO.N,SDA0*
X107188000Y-77724000D03*
G04 #@! TO.P,U2,+3V3*
G04 #@! TO.N,+3V3*
X107188000Y-75184000D03*
X124968000Y-77724000D03*
G04 #@! TO.P,U2,PM7*
G04 #@! TO.N,T5B*
X142748000Y-92964000D03*
G04 #@! TO.P,U2,PM6*
G04 #@! TO.N,T5A*
X142748000Y-90424000D03*
G04 #@! TO.P,U2,PM5*
G04 #@! TO.N,T4B*
X142748000Y-87884000D03*
G04 #@! TO.P,U2,PM4*
G04 #@! TO.N,T4A*
X142748000Y-85344000D03*
G04 #@! TO.P,U2,PM3*
G04 #@! TO.N,T3B*
X142748000Y-82804000D03*
G04 #@! TO.P,U2,PM2*
G04 #@! TO.N,T3A*
X142748000Y-80264000D03*
G04 #@! TO.P,U2,PM1*
G04 #@! TO.N,T2B*
X142748000Y-77724000D03*
G04 #@! TO.P,U2,PM0*
G04 #@! TO.N,T2A*
X142748000Y-75184000D03*
G04 #@! TO.P,U2,PK5*
G04 #@! TO.N,PWM7*
X140208000Y-92964000D03*
G04 #@! TO.P,U2,PK4*
G04 #@! TO.N,PWM6*
X140208000Y-90424000D03*
G04 #@! TO.P,U2,PG1*
G04 #@! TO.N,PWM5*
X140208000Y-87884000D03*
G04 #@! TO.P,U2,PG0*
G04 #@! TO.N,PWM4*
X140208000Y-85344000D03*
G04 #@! TO.P,U2,PF3*
G04 #@! TO.N,PWM3*
X140208000Y-82804000D03*
G04 #@! TO.P,U2,PF2*
G04 #@! TO.N,PWM2*
X140208000Y-80264000D03*
G04 #@! TO.P,U2,PF1*
G04 #@! TO.N,PWM1*
X140208000Y-77724000D03*
G04 #@! TO.P,U2,+3V3*
G04 #@! TO.N,+3V3*
X124968000Y-75184000D03*
G04 #@! TO.P,U2,NC*
G04 #@! TO.N,Net-(U2-PadNC)*
X140208000Y-75184000D03*
G04 #@! TO.P,U2,PC5*
G04 #@! TO.N,Tx7*
X86868000Y-115824000D03*
G04 #@! TO.P,U2,PP1*
G04 #@! TO.N,Tx6*
X86868000Y-113284000D03*
G04 #@! TO.P,U2,PC7*
G04 #@! TO.N,Tx5*
X86868000Y-110744000D03*
G04 #@! TO.P,U2,PK1*
G04 #@! TO.N,Tx4*
X86868000Y-108204000D03*
G04 #@! TO.P,U2,PA5*
G04 #@! TO.N,Tx3*
X86868000Y-105664000D03*
G04 #@! TO.P,U2,PA7*
G04 #@! TO.N,Tx2*
X86868000Y-103124000D03*
G04 #@! TO.P,U2,PB1*
G04 #@! TO.N,Tx1*
X86868000Y-100584000D03*
G04 #@! TO.P,U2,PA1*
G04 #@! TO.N,Tx0*
X86868000Y-98044000D03*
G04 #@! TO.P,U2,PC4*
G04 #@! TO.N,Rx7*
X84328000Y-115824000D03*
G04 #@! TO.P,U2,PP0*
G04 #@! TO.N,Rx6*
X84328000Y-113284000D03*
G04 #@! TO.P,U2,PC6*
G04 #@! TO.N,Rx5*
X84328000Y-110744000D03*
G04 #@! TO.P,U2,PK0*
G04 #@! TO.N,Rx4*
X84328000Y-108204000D03*
G04 #@! TO.P,U2,PA4*
G04 #@! TO.N,Rx3*
X84328000Y-105664000D03*
G04 #@! TO.P,U2,PA6*
G04 #@! TO.N,Rx2*
X84328000Y-103124000D03*
G04 #@! TO.P,U2,PB0*
G04 #@! TO.N,Rx1*
X84328000Y-100584000D03*
G04 #@! TO.P,U2,PA0*
G04 #@! TO.N,Rx0*
X84328000Y-98044000D03*
G04 #@! TO.P,U2,PD0*
G04 #@! TO.N,A15*
X86868000Y-92964000D03*
G04 #@! TO.P,U2,PD1*
G04 #@! TO.N,A14*
X86868000Y-90424000D03*
G04 #@! TO.P,U2,PD2*
G04 #@! TO.N,A13*
X86868000Y-87884000D03*
G04 #@! TO.P,U2,PD3*
G04 #@! TO.N,A12*
X86868000Y-85344000D03*
G04 #@! TO.P,U2,PB5*
G04 #@! TO.N,A11*
X86868000Y-82804000D03*
G04 #@! TO.P,U2,PB4*
G04 #@! TO.N,A10*
X86868000Y-80264000D03*
G04 #@! TO.P,U2,PE4*
G04 #@! TO.N,A9*
X86868000Y-77724000D03*
G04 #@! TO.P,U2,PE5*
G04 #@! TO.N,A8*
X86868000Y-75184000D03*
G04 #@! TO.P,U2,PD4*
G04 #@! TO.N,A7*
X84328000Y-92964000D03*
G04 #@! TO.P,U2,PD5*
G04 #@! TO.N,A6*
X84328000Y-90424000D03*
G04 #@! TO.P,U2,PD6*
G04 #@! TO.N,A5*
X84328000Y-87884000D03*
G04 #@! TO.P,U2,PD7*
G04 #@! TO.N,A4*
X84328000Y-85344000D03*
G04 #@! TO.P,U2,PE0*
G04 #@! TO.N,A3*
X84328000Y-82804000D03*
G04 #@! TO.P,U2,PE1*
G04 #@! TO.N,A2*
X84328000Y-80264000D03*
G04 #@! TO.P,U2,PE2*
G04 #@! TO.N,A1*
X84328000Y-77724000D03*
G04 #@! TO.P,U2,PE3*
G04 #@! TO.N,A0*
X84328000Y-75184000D03*
G04 #@! TD*
D11*
G04 #@! TO.P,Conn1,2*
G04 #@! TO.N,Net-(C1-Pad1)*
X163830000Y-56134000D03*
G04 #@! TO.P,Conn1,1*
G04 #@! TO.N,GND*
X163830000Y-64008000D03*
G04 #@! TD*
D12*
G04 #@! TO.P,RV1,1*
G04 #@! TO.N,+3V3*
X88392000Y-67932000D03*
G04 #@! TO.P,RV1,2*
G04 #@! TO.N,Net-(RV1-Pad2)*
X88392000Y-65532000D03*
G04 #@! TO.P,RV1,3*
G04 #@! TO.N,GND*
X88392000Y-63032000D03*
G04 #@! TO.P,RV1,*
G04 #@! TO.N,*
X88392000Y-60632000D03*
D13*
X77392000Y-58482000D03*
X77392000Y-70082000D03*
G04 #@! TD*
D10*
G04 #@! TO.P,U1,1*
G04 #@! TO.N,Net-(C1-Pad1)*
X152436999Y-57479001D03*
G04 #@! TO.P,U1,2*
G04 #@! TO.N,GND*
X152436999Y-60019001D03*
G04 #@! TO.P,U1,3*
G04 #@! TO.N,+3V3*
X152436999Y-62559001D03*
G04 #@! TD*
D14*
G04 #@! TO.P,TP1,1*
G04 #@! TO.N,Net-(RV1-Pad2)*
X93472000Y-58420000D03*
G04 #@! TD*
G04 #@! TO.P,TP2,1*
G04 #@! TO.N,GND*
X158496000Y-64516000D03*
G04 #@! TD*
D15*
G04 #@! TO.N,+3V3*
X168656000Y-108458000D03*
X168656000Y-114046000D03*
X168656000Y-119634000D03*
X168656000Y-125222000D03*
X168656000Y-130810000D03*
X168656000Y-136398000D03*
X168656000Y-141986000D03*
X168656000Y-147574000D03*
X168656000Y-103124000D03*
X168656000Y-80772000D03*
X168656000Y-97536000D03*
X168656000Y-75184000D03*
X168656000Y-91948000D03*
X168656000Y-86360000D03*
X168656000Y-69596000D03*
X155448000Y-140970000D03*
X133096000Y-140970000D03*
X149860000Y-140970000D03*
X127508000Y-140970000D03*
X144272000Y-140970000D03*
X138684000Y-140970000D03*
X116332000Y-140970000D03*
X121920000Y-140970000D03*
X82804000Y-140970000D03*
X99568000Y-140970000D03*
X105156000Y-140970000D03*
X71628000Y-140970000D03*
X88392000Y-140970000D03*
X77216000Y-140970000D03*
X110744000Y-140970000D03*
X93980000Y-140970000D03*
X59944000Y-125222000D03*
X59944000Y-119634000D03*
X59944000Y-141986000D03*
X59944000Y-130810000D03*
X59944000Y-114046000D03*
X59944000Y-147574000D03*
X59944000Y-108458000D03*
X59944000Y-136398000D03*
X59944000Y-96012000D03*
X59944000Y-79248000D03*
X59944000Y-73660000D03*
X59944000Y-84836000D03*
X59944000Y-68072000D03*
X59944000Y-101600000D03*
X59944000Y-90424000D03*
X59944000Y-62484000D03*
X104140000Y-57912000D03*
X109982000Y-57912000D03*
G04 #@! TO.N,A0*
X70866000Y-75184000D03*
G04 #@! TO.N,Rx0*
X115824000Y-135636000D03*
X95250000Y-130302000D03*
G04 #@! TO.N,A1*
X70866000Y-77724000D03*
G04 #@! TO.N,Rx1*
X118364000Y-134874000D03*
X94234000Y-129286000D03*
G04 #@! TO.N,PWM1*
X163068000Y-72644000D03*
G04 #@! TO.N,A2*
X70866000Y-80264000D03*
G04 #@! TO.N,Rx2*
X120904000Y-134112000D03*
X93218000Y-128270000D03*
G04 #@! TO.N,PWM2*
X163068000Y-78232000D03*
G04 #@! TO.N,A3*
X70866000Y-82804000D03*
G04 #@! TO.N,Rx3*
X123444000Y-133350000D03*
X92202000Y-127254000D03*
G04 #@! TO.N,PWM3*
X163278000Y-83796000D03*
G04 #@! TO.N,A4*
X70866000Y-85344000D03*
G04 #@! TO.N,Rx4*
X125984000Y-132588000D03*
X91186000Y-126238000D03*
G04 #@! TO.N,PWM4*
X163278000Y-89384000D03*
G04 #@! TO.N,A5*
X70866000Y-87884000D03*
G04 #@! TO.N,Rx5*
X128524000Y-131826000D03*
X90170000Y-125222000D03*
G04 #@! TO.N,PWM5*
X163278000Y-94972000D03*
G04 #@! TO.N,A6*
X70866000Y-90424000D03*
G04 #@! TO.N,Rx6*
X89154000Y-124206000D03*
X131064000Y-131064000D03*
G04 #@! TO.N,PWM6*
X163278000Y-100560000D03*
G04 #@! TO.N,A7*
X70866000Y-92964000D03*
G04 #@! TO.N,Rx7*
X88138000Y-123190000D03*
X132334000Y-130556000D03*
G04 #@! TO.N,PWM7*
X163278000Y-106148000D03*
G04 #@! TO.N,Tx0*
X115316000Y-98044000D03*
G04 #@! TO.N,Tx1*
X117856000Y-100584000D03*
G04 #@! TO.N,Tx2*
X120396000Y-103124000D03*
G04 #@! TO.N,Tx3*
X122936000Y-105664000D03*
G04 #@! TO.N,Tx4*
X125476000Y-108204000D03*
G04 #@! TO.N,Tx5*
X128016000Y-110744000D03*
G04 #@! TO.N,Tx6*
X130556000Y-113284000D03*
G04 #@! TO.N,Tx7*
X133096000Y-115824000D03*
G04 #@! TO.N,Net-(RV1-Pad2)*
X77978000Y-93980000D03*
X77978000Y-107950000D03*
G04 #@! TD*
D16*
G04 #@! TO.N,+3V3*
X155448000Y-140970000D02*
X116332000Y-140970000D01*
X110744000Y-140970000D02*
X71628000Y-140970000D01*
X59944000Y-101600000D02*
X59944000Y-62484000D01*
X59944000Y-102870000D02*
X59944000Y-108458000D01*
X168656000Y-69596000D02*
X168656000Y-103124000D01*
X116332000Y-140970000D02*
X110744000Y-140970000D01*
X59944000Y-102870000D02*
X59944000Y-101600000D01*
X60198000Y-140970000D02*
X59944000Y-140716000D01*
X71628000Y-140970000D02*
X60198000Y-140970000D01*
X59944000Y-147574000D02*
X59944000Y-140716000D01*
X59944000Y-140716000D02*
X59944000Y-108458000D01*
X168656000Y-103124000D02*
X168656000Y-109220000D01*
X168656000Y-109220000D02*
X168656000Y-108458000D01*
X155448000Y-140970000D02*
X168656000Y-140970000D01*
X168656000Y-147574000D02*
X168656000Y-140970000D01*
X168656000Y-140970000D02*
X168656000Y-109220000D01*
X60084000Y-67932000D02*
X59944000Y-68072000D01*
X88392000Y-67932000D02*
X60084000Y-67932000D01*
X104140000Y-57912000D02*
X109982000Y-57912000D01*
X109982000Y-57912000D02*
X113792000Y-57912000D01*
X104140000Y-72136000D02*
X107188000Y-75184000D01*
X104000000Y-67932000D02*
X88392000Y-67932000D01*
X104140000Y-68072000D02*
X104000000Y-67932000D01*
X104140000Y-68072000D02*
X104140000Y-72136000D01*
X104140000Y-57912000D02*
X104140000Y-68072000D01*
X124968000Y-77724000D02*
X124968000Y-75184000D01*
X124968000Y-75184000D02*
X124968000Y-62559001D01*
X121336999Y-62559001D02*
X124968000Y-62559001D01*
X118439001Y-62559001D02*
X117856000Y-61976000D01*
X125476000Y-62559001D02*
X118439001Y-62559001D01*
X113792000Y-57912000D02*
X117856000Y-61976000D01*
X125476000Y-62559001D02*
X152436999Y-62559001D01*
X124968000Y-62559001D02*
X125476000Y-62559001D01*
D17*
G04 #@! TO.N,A0*
X84328000Y-75184000D02*
X71374000Y-75184000D01*
X70866000Y-75184000D02*
X71374000Y-75184000D01*
G04 #@! TO.N,Rx0*
X115570000Y-135382000D02*
X115824000Y-135636000D01*
X105918000Y-135382000D02*
X115570000Y-135382000D01*
X95250000Y-130302000D02*
X100838000Y-130302000D01*
X100838000Y-130302000D02*
X105918000Y-135382000D01*
G04 #@! TO.N,A1*
X71374000Y-77724000D02*
X84328000Y-77724000D01*
X70866000Y-77724000D02*
X71374000Y-77724000D01*
G04 #@! TO.N,Rx1*
X118110000Y-134620000D02*
X118364000Y-134874000D01*
X106172000Y-134620000D02*
X118110000Y-134620000D01*
X100838000Y-129286000D02*
X101346000Y-129794000D01*
X98298000Y-129286000D02*
X100838000Y-129286000D01*
X101346000Y-129794000D02*
X106172000Y-134620000D01*
X101092000Y-129540000D02*
X101346000Y-129794000D01*
X94234000Y-129286000D02*
X98298000Y-129286000D01*
G04 #@! TO.N,PWM1*
X141478000Y-76454000D02*
X140208000Y-77724000D01*
X161798000Y-76454000D02*
X141478000Y-76454000D01*
X162306000Y-75946000D02*
X161798000Y-76454000D01*
X163068000Y-72644000D02*
X162306000Y-73406000D01*
X162306000Y-73406000D02*
X162306000Y-75946000D01*
G04 #@! TO.N,A2*
X71374000Y-80264000D02*
X70866000Y-80264000D01*
X84328000Y-80264000D02*
X71374000Y-80264000D01*
G04 #@! TO.N,Rx2*
X120904000Y-134112000D02*
X120650000Y-133858000D01*
X120650000Y-133858000D02*
X119888000Y-133858000D01*
X114808000Y-133858000D02*
X114554000Y-133858000D01*
X119888000Y-133858000D02*
X114808000Y-133858000D01*
X106426000Y-133858000D02*
X114808000Y-133858000D01*
X100838000Y-128270000D02*
X101346000Y-128778000D01*
X93218000Y-128270000D02*
X100838000Y-128270000D01*
X101092000Y-128524000D02*
X101346000Y-128778000D01*
X101346000Y-128778000D02*
X106426000Y-133858000D01*
G04 #@! TO.N,PWM2*
X141478000Y-78994000D02*
X140208000Y-80264000D01*
X163068000Y-78232000D02*
X162306000Y-78994000D01*
X162306000Y-78994000D02*
X141478000Y-78994000D01*
G04 #@! TO.N,A3*
X71374000Y-82804000D02*
X84328000Y-82804000D01*
X71374000Y-82804000D02*
X70866000Y-82804000D01*
G04 #@! TO.N,Rx3*
X123444000Y-133350000D02*
X123190000Y-133096000D01*
X123190000Y-133096000D02*
X106680000Y-133096000D01*
X95250000Y-127254000D02*
X92202000Y-127254000D01*
X100838000Y-127254000D02*
X101346000Y-127762000D01*
X95504000Y-127254000D02*
X100838000Y-127254000D01*
X101346000Y-127762000D02*
X101092000Y-127508000D01*
X106680000Y-133096000D02*
X101346000Y-127762000D01*
X95504000Y-127254000D02*
X95250000Y-127254000D01*
X95758000Y-127254000D02*
X95504000Y-127254000D01*
G04 #@! TO.N,PWM3*
X162306000Y-82824000D02*
X163278000Y-83796000D01*
X162306000Y-82042000D02*
X162306000Y-82824000D01*
X161798000Y-81534000D02*
X162306000Y-82042000D01*
X140208000Y-82804000D02*
X141478000Y-81534000D01*
X141478000Y-81534000D02*
X161798000Y-81534000D01*
G04 #@! TO.N,A4*
X84328000Y-85344000D02*
X71374000Y-85344000D01*
X71374000Y-85344000D02*
X70866000Y-85344000D01*
G04 #@! TO.N,Rx4*
X122428000Y-132334000D02*
X123444000Y-132334000D01*
X125730000Y-132334000D02*
X125984000Y-132588000D01*
X122428000Y-132334000D02*
X125730000Y-132334000D01*
X106934000Y-132334000D02*
X122428000Y-132334000D01*
X100838000Y-126238000D02*
X101346000Y-126746000D01*
X91186000Y-126238000D02*
X100838000Y-126238000D01*
X101092000Y-126492000D02*
X101346000Y-126746000D01*
X101346000Y-126746000D02*
X106934000Y-132334000D01*
G04 #@! TO.N,PWM4*
X162306000Y-88412000D02*
X163278000Y-89384000D01*
X162306000Y-84582000D02*
X162306000Y-88412000D01*
X161798000Y-84074000D02*
X162306000Y-84582000D01*
X140208000Y-85344000D02*
X141478000Y-84074000D01*
X141478000Y-84074000D02*
X144526000Y-84074000D01*
X144018000Y-84074000D02*
X144526000Y-84074000D01*
X144526000Y-84074000D02*
X161798000Y-84074000D01*
G04 #@! TO.N,A5*
X71374000Y-87884000D02*
X84328000Y-87884000D01*
X71374000Y-87884000D02*
X70866000Y-87884000D01*
G04 #@! TO.N,Rx5*
X128524000Y-131826000D02*
X128270000Y-131572000D01*
X128270000Y-131572000D02*
X124968000Y-131572000D01*
X115570000Y-131572000D02*
X114554000Y-131572000D01*
X124968000Y-131572000D02*
X115570000Y-131572000D01*
X115570000Y-131572000D02*
X107188000Y-131572000D01*
X100838000Y-125222000D02*
X101346000Y-125730000D01*
X90170000Y-125222000D02*
X100838000Y-125222000D01*
X107188000Y-131572000D02*
X101346000Y-125730000D01*
X101346000Y-125730000D02*
X101092000Y-125476000D01*
G04 #@! TO.N,PWM5*
X163278000Y-94972000D02*
X161544000Y-93238000D01*
X141478000Y-86614000D02*
X140208000Y-87884000D01*
X161036000Y-86614000D02*
X141478000Y-86614000D01*
X161544000Y-87122000D02*
X161036000Y-86614000D01*
X161544000Y-93238000D02*
X161544000Y-87122000D01*
G04 #@! TO.N,A6*
X71374000Y-90424000D02*
X84328000Y-90424000D01*
X71374000Y-90424000D02*
X70866000Y-90424000D01*
G04 #@! TO.N,Rx6*
X131064000Y-131064000D02*
X130810000Y-130810000D01*
X130810000Y-130810000D02*
X127254000Y-130810000D01*
X115316000Y-130810000D02*
X114554000Y-130810000D01*
X127254000Y-130810000D02*
X115316000Y-130810000D01*
X107442000Y-130810000D02*
X115316000Y-130810000D01*
X89154000Y-124206000D02*
X100838000Y-124206000D01*
X100838000Y-124206000D02*
X107442000Y-130810000D01*
G04 #@! TO.N,PWM6*
X160782000Y-98064000D02*
X163278000Y-100560000D01*
X160782000Y-89662000D02*
X160782000Y-98064000D01*
X160274000Y-89154000D02*
X160782000Y-89662000D01*
X140208000Y-90424000D02*
X141478000Y-89154000D01*
X141478000Y-89154000D02*
X144272000Y-89154000D01*
X144018000Y-89154000D02*
X144272000Y-89154000D01*
X144272000Y-89154000D02*
X160274000Y-89154000D01*
G04 #@! TO.N,A7*
X71374000Y-92964000D02*
X84328000Y-92964000D01*
X71374000Y-92964000D02*
X70866000Y-92964000D01*
G04 #@! TO.N,Rx7*
X132334000Y-130556000D02*
X131826000Y-130048000D01*
X110490000Y-130048000D02*
X107696000Y-130048000D01*
X110490000Y-130048000D02*
X110236000Y-130048000D01*
X131826000Y-130048000D02*
X110490000Y-130048000D01*
X100838000Y-123190000D02*
X101346000Y-123698000D01*
X88138000Y-123190000D02*
X100838000Y-123190000D01*
X107696000Y-130048000D02*
X101346000Y-123698000D01*
X101346000Y-123698000D02*
X101092000Y-123444000D01*
G04 #@! TO.N,PWM7*
X141478000Y-91694000D02*
X140208000Y-92964000D01*
X159512000Y-91694000D02*
X141478000Y-91694000D01*
X160020000Y-92202000D02*
X159512000Y-91694000D01*
X163278000Y-106148000D02*
X160020000Y-102890000D01*
X160020000Y-102890000D02*
X160020000Y-92202000D01*
G04 #@! TO.N,Tx0*
X86868000Y-98044000D02*
X93980000Y-98044000D01*
X115316000Y-98044000D02*
X93980000Y-98044000D01*
X93980000Y-98044000D02*
X92202000Y-98044000D01*
G04 #@! TO.N,Tx1*
X117856000Y-100584000D02*
X92202000Y-100584000D01*
X86868000Y-100584000D02*
X93218000Y-100584000D01*
G04 #@! TO.N,Tx2*
X120396000Y-103124000D02*
X119830315Y-103124000D01*
X86868000Y-103124000D02*
X92710000Y-103124000D01*
X119830315Y-103124000D02*
X92710000Y-103124000D01*
X92710000Y-103124000D02*
X92202000Y-103124000D01*
G04 #@! TO.N,Tx3*
X86868000Y-105664000D02*
X87945630Y-105664000D01*
X86868000Y-105664000D02*
X92964000Y-105664000D01*
X122936000Y-105664000D02*
X92964000Y-105664000D01*
X92964000Y-105664000D02*
X92202000Y-105664000D01*
G04 #@! TO.N,Tx4*
X125476000Y-108204000D02*
X124910315Y-108204000D01*
X86868000Y-108204000D02*
X92456000Y-108204000D01*
X124910315Y-108204000D02*
X92456000Y-108204000D01*
X92456000Y-108204000D02*
X92202000Y-108204000D01*
G04 #@! TO.N,Tx5*
X86868000Y-110744000D02*
X92964000Y-110744000D01*
X128016000Y-110744000D02*
X92964000Y-110744000D01*
X92964000Y-110744000D02*
X92202000Y-110744000D01*
G04 #@! TO.N,Tx6*
X86868000Y-113284000D02*
X94742000Y-113284000D01*
X130556000Y-113284000D02*
X94742000Y-113284000D01*
X94742000Y-113284000D02*
X92202000Y-113284000D01*
G04 #@! TO.N,Tx7*
X133096000Y-115824000D02*
X132530315Y-115824000D01*
X87945630Y-115824000D02*
X93726000Y-115824000D01*
X86868000Y-115824000D02*
X87945630Y-115824000D01*
X132530315Y-115824000D02*
X93726000Y-115824000D01*
X93726000Y-115824000D02*
X92202000Y-115824000D01*
G04 #@! TO.N,Net-(RV1-Pad2)*
X77978000Y-93980000D02*
X77978000Y-94742000D01*
X77978000Y-94742000D02*
X77978000Y-107950000D01*
G04 #@! TD*
D18*
G04 #@! TO.N,GND*
G36*
X179523698Y-52842958D02*
X179948893Y-53011305D01*
X180318858Y-53280101D01*
X180610356Y-53632462D01*
X180805067Y-54046244D01*
X180897093Y-54528662D01*
X180900000Y-54621164D01*
X180900001Y-151085326D01*
X180837042Y-151583699D01*
X180668697Y-152008889D01*
X180399899Y-152378859D01*
X180047541Y-152670355D01*
X179633756Y-152865067D01*
X179151339Y-152957093D01*
X179058836Y-152960000D01*
X49574667Y-152960000D01*
X49076301Y-152897042D01*
X48651111Y-152728697D01*
X48281141Y-152459899D01*
X47989645Y-152107541D01*
X47794933Y-151693756D01*
X47702907Y-151211339D01*
X47700000Y-151118836D01*
X47700000Y-68072000D01*
X58908096Y-68072000D01*
X58909000Y-68076545D01*
X58909000Y-68277874D01*
X58928001Y-68323746D01*
X58928001Y-73408254D01*
X58909000Y-73454126D01*
X58909000Y-73865874D01*
X58928001Y-73911746D01*
X58928001Y-78996254D01*
X58909000Y-79042126D01*
X58909000Y-79453874D01*
X58928001Y-79499746D01*
X58928000Y-84584255D01*
X58909000Y-84630126D01*
X58909000Y-85041874D01*
X58928000Y-85087745D01*
X58928000Y-90172255D01*
X58909000Y-90218126D01*
X58909000Y-90629874D01*
X58928000Y-90675745D01*
X58928000Y-95760255D01*
X58909000Y-95806126D01*
X58909000Y-96217874D01*
X58928000Y-96263744D01*
X58928000Y-101348256D01*
X58909000Y-101394126D01*
X58909000Y-101805874D01*
X58928001Y-101851746D01*
X58928000Y-102769935D01*
X58928000Y-102769936D01*
X58928001Y-108206254D01*
X58909000Y-108252126D01*
X58909000Y-108663874D01*
X58928001Y-108709747D01*
X58928001Y-113794254D01*
X58909000Y-113840126D01*
X58909000Y-114251874D01*
X58928001Y-114297746D01*
X58928001Y-119382254D01*
X58909000Y-119428126D01*
X58909000Y-119839874D01*
X58928001Y-119885746D01*
X58928000Y-124970255D01*
X58909000Y-125016126D01*
X58909000Y-125427874D01*
X58928000Y-125473745D01*
X58928000Y-130558255D01*
X58909000Y-130604126D01*
X58909000Y-131015874D01*
X58928000Y-131061745D01*
X58928000Y-136146256D01*
X58909000Y-136192126D01*
X58909000Y-136603874D01*
X58928000Y-136649744D01*
X58928000Y-140615935D01*
X58908096Y-140716000D01*
X58928000Y-140816063D01*
X58928000Y-140816064D01*
X58928001Y-140816069D01*
X58928001Y-141734254D01*
X58909000Y-141780126D01*
X58909000Y-142191874D01*
X58928001Y-142237746D01*
X58928000Y-147322256D01*
X58909000Y-147368126D01*
X58909000Y-147779874D01*
X58986045Y-147965878D01*
X58986949Y-147970422D01*
X58989523Y-147974275D01*
X59066569Y-148160280D01*
X59208930Y-148302641D01*
X59211505Y-148306495D01*
X59215359Y-148309070D01*
X59357720Y-148451431D01*
X59543723Y-148528476D01*
X59547577Y-148531051D01*
X59552123Y-148531955D01*
X59738126Y-148609000D01*
X59939455Y-148609000D01*
X59944000Y-148609904D01*
X59948545Y-148609000D01*
X60149874Y-148609000D01*
X60335878Y-148531955D01*
X60340422Y-148531051D01*
X60344275Y-148528477D01*
X60530280Y-148451431D01*
X60672641Y-148309070D01*
X60676495Y-148306495D01*
X60679070Y-148302641D01*
X60821431Y-148160280D01*
X60898476Y-147974277D01*
X60901051Y-147970423D01*
X60901955Y-147965877D01*
X60979000Y-147779874D01*
X60979000Y-147368126D01*
X60960000Y-147322256D01*
X60960000Y-142237744D01*
X60979000Y-142191874D01*
X60979000Y-141986000D01*
X71376256Y-141986000D01*
X71422126Y-142005000D01*
X71833874Y-142005000D01*
X71879744Y-141986000D01*
X76964256Y-141986000D01*
X77010126Y-142005000D01*
X77421874Y-142005000D01*
X77467744Y-141986000D01*
X82552256Y-141986000D01*
X82598126Y-142005000D01*
X83009874Y-142005000D01*
X83055744Y-141986000D01*
X88140256Y-141986000D01*
X88186126Y-142005000D01*
X88597874Y-142005000D01*
X88643744Y-141986000D01*
X93728256Y-141986000D01*
X93774126Y-142005000D01*
X94185874Y-142005000D01*
X94231744Y-141986000D01*
X99316256Y-141986000D01*
X99362126Y-142005000D01*
X99773874Y-142005000D01*
X99819744Y-141986000D01*
X104904256Y-141986000D01*
X104950126Y-142005000D01*
X105361874Y-142005000D01*
X105407744Y-141986000D01*
X110492256Y-141986000D01*
X110538126Y-142005000D01*
X110949874Y-142005000D01*
X110995744Y-141986000D01*
X116080256Y-141986000D01*
X116126126Y-142005000D01*
X116537874Y-142005000D01*
X116583744Y-141986000D01*
X121668256Y-141986000D01*
X121714126Y-142005000D01*
X122125874Y-142005000D01*
X122171744Y-141986000D01*
X127256256Y-141986000D01*
X127302126Y-142005000D01*
X127713874Y-142005000D01*
X127759744Y-141986000D01*
X132844256Y-141986000D01*
X132890126Y-142005000D01*
X133301874Y-142005000D01*
X133347744Y-141986000D01*
X138432256Y-141986000D01*
X138478126Y-142005000D01*
X138889874Y-142005000D01*
X138935744Y-141986000D01*
X144020256Y-141986000D01*
X144066126Y-142005000D01*
X144477874Y-142005000D01*
X144523744Y-141986000D01*
X149608256Y-141986000D01*
X149654126Y-142005000D01*
X150065874Y-142005000D01*
X150111744Y-141986000D01*
X155196256Y-141986000D01*
X155242126Y-142005000D01*
X155653874Y-142005000D01*
X155699744Y-141986000D01*
X167621000Y-141986000D01*
X167621000Y-142191874D01*
X167640001Y-142237746D01*
X167640000Y-147322256D01*
X167621000Y-147368126D01*
X167621000Y-147779874D01*
X167698045Y-147965878D01*
X167698949Y-147970422D01*
X167701523Y-147974275D01*
X167778569Y-148160280D01*
X167920930Y-148302641D01*
X167923505Y-148306495D01*
X167927359Y-148309070D01*
X168069720Y-148451431D01*
X168255723Y-148528476D01*
X168259577Y-148531051D01*
X168264123Y-148531955D01*
X168450126Y-148609000D01*
X168651455Y-148609000D01*
X168656000Y-148609904D01*
X168660545Y-148609000D01*
X168861874Y-148609000D01*
X169047878Y-148531955D01*
X169052422Y-148531051D01*
X169056275Y-148528477D01*
X169242280Y-148451431D01*
X169384641Y-148309070D01*
X169388495Y-148306495D01*
X169391070Y-148302641D01*
X169533431Y-148160280D01*
X169610476Y-147974277D01*
X169613051Y-147970423D01*
X169613955Y-147965877D01*
X169691000Y-147779874D01*
X169691000Y-147368126D01*
X169672000Y-147322256D01*
X169672000Y-142237744D01*
X169691000Y-142191874D01*
X169691000Y-141780126D01*
X169672000Y-141734256D01*
X169672000Y-141070064D01*
X169691904Y-140970000D01*
X169672000Y-140869935D01*
X169672000Y-136649744D01*
X169691000Y-136603874D01*
X169691000Y-136192126D01*
X169672000Y-136146256D01*
X169672000Y-131061744D01*
X169691000Y-131015874D01*
X169691000Y-130604126D01*
X169672000Y-130558256D01*
X169672000Y-125473744D01*
X169691000Y-125427874D01*
X169691000Y-125016126D01*
X169672000Y-124970256D01*
X169672000Y-119885744D01*
X169691000Y-119839874D01*
X169691000Y-119428126D01*
X169672000Y-119382256D01*
X169672000Y-114297744D01*
X169691000Y-114251874D01*
X169691000Y-113840126D01*
X169672000Y-113794256D01*
X169672000Y-108709744D01*
X169691000Y-108663874D01*
X169691000Y-108252126D01*
X169672000Y-108206256D01*
X169672000Y-103375744D01*
X169691000Y-103329874D01*
X169691000Y-102918126D01*
X169672000Y-102872256D01*
X169672000Y-97787744D01*
X169691000Y-97741874D01*
X169691000Y-97330126D01*
X169672000Y-97284256D01*
X169672000Y-92199744D01*
X169691000Y-92153874D01*
X169691000Y-91742126D01*
X169672000Y-91696256D01*
X169672000Y-86611744D01*
X169691000Y-86565874D01*
X169691000Y-86154126D01*
X169672000Y-86108256D01*
X169672000Y-81023744D01*
X169691000Y-80977874D01*
X169691000Y-80566126D01*
X169672000Y-80520256D01*
X169672000Y-75435744D01*
X169691000Y-75389874D01*
X169691000Y-74978126D01*
X169672000Y-74932256D01*
X169672000Y-69847744D01*
X169691000Y-69801874D01*
X169691000Y-69390126D01*
X169613955Y-69204123D01*
X169613051Y-69199577D01*
X169610476Y-69195723D01*
X169533431Y-69009720D01*
X169391070Y-68867359D01*
X169388495Y-68863505D01*
X169384641Y-68860930D01*
X169242280Y-68718569D01*
X169056275Y-68641523D01*
X169052422Y-68638949D01*
X169047878Y-68638045D01*
X168861874Y-68561000D01*
X168660545Y-68561000D01*
X168656000Y-68560096D01*
X168651455Y-68561000D01*
X168450126Y-68561000D01*
X168264123Y-68638045D01*
X168259577Y-68638949D01*
X168255723Y-68641524D01*
X168069720Y-68718569D01*
X167927359Y-68860930D01*
X167923505Y-68863505D01*
X167920930Y-68867359D01*
X167778569Y-69009720D01*
X167701523Y-69195725D01*
X167698949Y-69199578D01*
X167698045Y-69204122D01*
X167621000Y-69390126D01*
X167621000Y-69801874D01*
X167640000Y-69847744D01*
X167640000Y-74932255D01*
X167621000Y-74978126D01*
X167621000Y-75389874D01*
X167640000Y-75435745D01*
X167640000Y-80520255D01*
X167621000Y-80566126D01*
X167621000Y-80977874D01*
X167640000Y-81023745D01*
X167640000Y-86108255D01*
X167621000Y-86154126D01*
X167621000Y-86565874D01*
X167640001Y-86611745D01*
X167640001Y-91696254D01*
X167621000Y-91742126D01*
X167621000Y-92153874D01*
X167640001Y-92199746D01*
X167640001Y-97284254D01*
X167621000Y-97330126D01*
X167621000Y-97741874D01*
X167640001Y-97787746D01*
X167640001Y-102872253D01*
X167621000Y-102918126D01*
X167621000Y-103329874D01*
X167640000Y-103375744D01*
X167640001Y-108206254D01*
X167621000Y-108252126D01*
X167621000Y-108663874D01*
X167640000Y-108709744D01*
X167640000Y-109320064D01*
X167640001Y-109320069D01*
X167640001Y-113794254D01*
X167621000Y-113840126D01*
X167621000Y-114251874D01*
X167640001Y-114297746D01*
X167640001Y-119382254D01*
X167621000Y-119428126D01*
X167621000Y-119839874D01*
X167640001Y-119885746D01*
X167640001Y-124970255D01*
X167621000Y-125016126D01*
X167621000Y-125427874D01*
X167640000Y-125473745D01*
X167640000Y-130558255D01*
X167621000Y-130604126D01*
X167621000Y-131015874D01*
X167640000Y-131061745D01*
X167640000Y-136146255D01*
X167621000Y-136192126D01*
X167621000Y-136603874D01*
X167640000Y-136649744D01*
X167640000Y-139954000D01*
X155699744Y-139954000D01*
X155653874Y-139935000D01*
X155242126Y-139935000D01*
X155196256Y-139954000D01*
X150111744Y-139954000D01*
X150065874Y-139935000D01*
X149654126Y-139935000D01*
X149608256Y-139954000D01*
X144523744Y-139954000D01*
X144477874Y-139935000D01*
X144066126Y-139935000D01*
X144020256Y-139954000D01*
X138935744Y-139954000D01*
X138889874Y-139935000D01*
X138478126Y-139935000D01*
X138432256Y-139954000D01*
X133347744Y-139954000D01*
X133301874Y-139935000D01*
X132890126Y-139935000D01*
X132844256Y-139954000D01*
X127759744Y-139954000D01*
X127713874Y-139935000D01*
X127302126Y-139935000D01*
X127256256Y-139954000D01*
X122171744Y-139954000D01*
X122125874Y-139935000D01*
X121714126Y-139935000D01*
X121668256Y-139954000D01*
X116583744Y-139954000D01*
X116537874Y-139935000D01*
X116126126Y-139935000D01*
X116080256Y-139954000D01*
X110995744Y-139954000D01*
X110949874Y-139935000D01*
X110538126Y-139935000D01*
X110492256Y-139954000D01*
X105407744Y-139954000D01*
X105361874Y-139935000D01*
X104950126Y-139935000D01*
X104904256Y-139954000D01*
X99819744Y-139954000D01*
X99773874Y-139935000D01*
X99362126Y-139935000D01*
X99316256Y-139954000D01*
X94231744Y-139954000D01*
X94185874Y-139935000D01*
X93774126Y-139935000D01*
X93728256Y-139954000D01*
X88643744Y-139954000D01*
X88597874Y-139935000D01*
X88186126Y-139935000D01*
X88140256Y-139954000D01*
X83055744Y-139954000D01*
X83009874Y-139935000D01*
X82598126Y-139935000D01*
X82552256Y-139954000D01*
X77467744Y-139954000D01*
X77421874Y-139935000D01*
X77010126Y-139935000D01*
X76964256Y-139954000D01*
X71879744Y-139954000D01*
X71833874Y-139935000D01*
X71422126Y-139935000D01*
X71376256Y-139954000D01*
X60960000Y-139954000D01*
X60960000Y-136649744D01*
X60979000Y-136603874D01*
X60979000Y-136192126D01*
X60960000Y-136146256D01*
X60960000Y-131061744D01*
X60979000Y-131015874D01*
X60979000Y-130604126D01*
X60960000Y-130558256D01*
X60960000Y-125473744D01*
X60979000Y-125427874D01*
X60979000Y-125016126D01*
X60960000Y-124970256D01*
X60960000Y-122984126D01*
X87103000Y-122984126D01*
X87103000Y-123395874D01*
X87260569Y-123776280D01*
X87551720Y-124067431D01*
X87932126Y-124225000D01*
X88119000Y-124225000D01*
X88119000Y-124411874D01*
X88276569Y-124792280D01*
X88567720Y-125083431D01*
X88948126Y-125241000D01*
X89135000Y-125241000D01*
X89135000Y-125427874D01*
X89292569Y-125808280D01*
X89583720Y-126099431D01*
X89964126Y-126257000D01*
X90151000Y-126257000D01*
X90151000Y-126443874D01*
X90308569Y-126824280D01*
X90599720Y-127115431D01*
X90980126Y-127273000D01*
X91167000Y-127273000D01*
X91167000Y-127459874D01*
X91324569Y-127840280D01*
X91615720Y-128131431D01*
X91996126Y-128289000D01*
X92183000Y-128289000D01*
X92183000Y-128475874D01*
X92340569Y-128856280D01*
X92631720Y-129147431D01*
X93012126Y-129305000D01*
X93199000Y-129305000D01*
X93199000Y-129491874D01*
X93356569Y-129872280D01*
X93647720Y-130163431D01*
X94028126Y-130321000D01*
X94215000Y-130321000D01*
X94215000Y-130507874D01*
X94372569Y-130888280D01*
X94663720Y-131179431D01*
X95044126Y-131337000D01*
X95455874Y-131337000D01*
X95836280Y-131179431D01*
X95888211Y-131127500D01*
X100496068Y-131127500D01*
X105276793Y-135908226D01*
X105322848Y-135977152D01*
X105595906Y-136159604D01*
X105836697Y-136207500D01*
X105836698Y-136207500D01*
X105918000Y-136223672D01*
X105999301Y-136207500D01*
X114940447Y-136207500D01*
X114946569Y-136222280D01*
X115237720Y-136513431D01*
X115618126Y-136671000D01*
X116029874Y-136671000D01*
X116410280Y-136513431D01*
X116701431Y-136222280D01*
X116859000Y-135841874D01*
X116859000Y-135445500D01*
X117480447Y-135445500D01*
X117486569Y-135460280D01*
X117777720Y-135751431D01*
X118158126Y-135909000D01*
X118569874Y-135909000D01*
X118950280Y-135751431D01*
X119241431Y-135460280D01*
X119399000Y-135079874D01*
X119399000Y-134683500D01*
X120020447Y-134683500D01*
X120026569Y-134698280D01*
X120317720Y-134989431D01*
X120698126Y-135147000D01*
X121109874Y-135147000D01*
X121490280Y-134989431D01*
X121781431Y-134698280D01*
X121939000Y-134317874D01*
X121939000Y-133921500D01*
X122560447Y-133921500D01*
X122566569Y-133936280D01*
X122857720Y-134227431D01*
X123238126Y-134385000D01*
X123649874Y-134385000D01*
X124030280Y-134227431D01*
X124321431Y-133936280D01*
X124479000Y-133555874D01*
X124479000Y-133159500D01*
X125100447Y-133159500D01*
X125106569Y-133174280D01*
X125397720Y-133465431D01*
X125778126Y-133623000D01*
X126189874Y-133623000D01*
X126570280Y-133465431D01*
X126861431Y-133174280D01*
X127019000Y-132793874D01*
X127019000Y-132397500D01*
X127640447Y-132397500D01*
X127646569Y-132412280D01*
X127937720Y-132703431D01*
X128318126Y-132861000D01*
X128729874Y-132861000D01*
X129110280Y-132703431D01*
X129401431Y-132412280D01*
X129559000Y-132031874D01*
X129559000Y-131635500D01*
X130180447Y-131635500D01*
X130186569Y-131650280D01*
X130477720Y-131941431D01*
X130858126Y-132099000D01*
X131269874Y-132099000D01*
X131650280Y-131941431D01*
X131941431Y-131650280D01*
X131989730Y-131533675D01*
X132128126Y-131591000D01*
X132539874Y-131591000D01*
X132920280Y-131433431D01*
X133211431Y-131142280D01*
X133369000Y-130761874D01*
X133369000Y-130350126D01*
X133211431Y-129969720D01*
X132920280Y-129678569D01*
X132539874Y-129521000D01*
X132466690Y-129521000D01*
X132421152Y-129452848D01*
X132148094Y-129270396D01*
X131907303Y-129222500D01*
X131907301Y-129222500D01*
X131826000Y-129206328D01*
X131744699Y-129222500D01*
X108037933Y-129222500D01*
X101987208Y-123171776D01*
X101987206Y-123171773D01*
X101479209Y-122663776D01*
X101433152Y-122594848D01*
X101160094Y-122412396D01*
X100919303Y-122364500D01*
X100919301Y-122364500D01*
X100838000Y-122348328D01*
X100756699Y-122364500D01*
X88776211Y-122364500D01*
X88724280Y-122312569D01*
X88343874Y-122155000D01*
X87932126Y-122155000D01*
X87551720Y-122312569D01*
X87260569Y-122603720D01*
X87103000Y-122984126D01*
X60960000Y-122984126D01*
X60960000Y-119885744D01*
X60979000Y-119839874D01*
X60979000Y-119428126D01*
X60960000Y-119382256D01*
X60960000Y-114297744D01*
X60979000Y-114251874D01*
X60979000Y-113840126D01*
X60960000Y-113794256D01*
X60960000Y-108709744D01*
X60979000Y-108663874D01*
X60979000Y-108252126D01*
X60960000Y-108206256D01*
X60960000Y-101851744D01*
X60979000Y-101805874D01*
X60979000Y-101394126D01*
X60960000Y-101348256D01*
X60960000Y-96263744D01*
X60979000Y-96217874D01*
X60979000Y-95806126D01*
X60960000Y-95760256D01*
X60960000Y-90675744D01*
X60979000Y-90629874D01*
X60979000Y-90218126D01*
X60960000Y-90172256D01*
X60960000Y-85087744D01*
X60979000Y-85041874D01*
X60979000Y-84630126D01*
X60960000Y-84584256D01*
X60960000Y-79499744D01*
X60979000Y-79453874D01*
X60979000Y-79042126D01*
X60960000Y-78996256D01*
X60960000Y-74978126D01*
X69831000Y-74978126D01*
X69831000Y-75389874D01*
X69988569Y-75770280D01*
X70279720Y-76061431D01*
X70660126Y-76219000D01*
X71071874Y-76219000D01*
X71452280Y-76061431D01*
X71504211Y-76009500D01*
X83177843Y-76009500D01*
X83536663Y-76368320D01*
X83743513Y-76454000D01*
X83536663Y-76539680D01*
X83177843Y-76898500D01*
X71504211Y-76898500D01*
X71452280Y-76846569D01*
X71071874Y-76689000D01*
X70660126Y-76689000D01*
X70279720Y-76846569D01*
X69988569Y-77137720D01*
X69831000Y-77518126D01*
X69831000Y-77929874D01*
X69988569Y-78310280D01*
X70279720Y-78601431D01*
X70660126Y-78759000D01*
X71071874Y-78759000D01*
X71452280Y-78601431D01*
X71504211Y-78549500D01*
X83177843Y-78549500D01*
X83536663Y-78908320D01*
X83743513Y-78994000D01*
X83536663Y-79079680D01*
X83177843Y-79438500D01*
X71504211Y-79438500D01*
X71452280Y-79386569D01*
X71071874Y-79229000D01*
X70660126Y-79229000D01*
X70279720Y-79386569D01*
X69988569Y-79677720D01*
X69831000Y-80058126D01*
X69831000Y-80469874D01*
X69988569Y-80850280D01*
X70279720Y-81141431D01*
X70660126Y-81299000D01*
X71071874Y-81299000D01*
X71452280Y-81141431D01*
X71504211Y-81089500D01*
X83177843Y-81089500D01*
X83536663Y-81448320D01*
X83743513Y-81534000D01*
X83536663Y-81619680D01*
X83177843Y-81978500D01*
X71504211Y-81978500D01*
X71452280Y-81926569D01*
X71071874Y-81769000D01*
X70660126Y-81769000D01*
X70279720Y-81926569D01*
X69988569Y-82217720D01*
X69831000Y-82598126D01*
X69831000Y-83009874D01*
X69988569Y-83390280D01*
X70279720Y-83681431D01*
X70660126Y-83839000D01*
X71071874Y-83839000D01*
X71452280Y-83681431D01*
X71504211Y-83629500D01*
X83177843Y-83629500D01*
X83536663Y-83988320D01*
X83743513Y-84074000D01*
X83536663Y-84159680D01*
X83177843Y-84518500D01*
X71504211Y-84518500D01*
X71452280Y-84466569D01*
X71071874Y-84309000D01*
X70660126Y-84309000D01*
X70279720Y-84466569D01*
X69988569Y-84757720D01*
X69831000Y-85138126D01*
X69831000Y-85549874D01*
X69988569Y-85930280D01*
X70279720Y-86221431D01*
X70660126Y-86379000D01*
X71071874Y-86379000D01*
X71452280Y-86221431D01*
X71504211Y-86169500D01*
X83177843Y-86169500D01*
X83536663Y-86528320D01*
X83743513Y-86614000D01*
X83536663Y-86699680D01*
X83177843Y-87058500D01*
X71504211Y-87058500D01*
X71452280Y-87006569D01*
X71071874Y-86849000D01*
X70660126Y-86849000D01*
X70279720Y-87006569D01*
X69988569Y-87297720D01*
X69831000Y-87678126D01*
X69831000Y-88089874D01*
X69988569Y-88470280D01*
X70279720Y-88761431D01*
X70660126Y-88919000D01*
X71071874Y-88919000D01*
X71452280Y-88761431D01*
X71504211Y-88709500D01*
X83177843Y-88709500D01*
X83536663Y-89068320D01*
X83743513Y-89154000D01*
X83536663Y-89239680D01*
X83177843Y-89598500D01*
X71504211Y-89598500D01*
X71452280Y-89546569D01*
X71071874Y-89389000D01*
X70660126Y-89389000D01*
X70279720Y-89546569D01*
X69988569Y-89837720D01*
X69831000Y-90218126D01*
X69831000Y-90629874D01*
X69988569Y-91010280D01*
X70279720Y-91301431D01*
X70660126Y-91459000D01*
X71071874Y-91459000D01*
X71452280Y-91301431D01*
X71504211Y-91249500D01*
X83177843Y-91249500D01*
X83536663Y-91608320D01*
X83743513Y-91694000D01*
X83536663Y-91779680D01*
X83177843Y-92138500D01*
X71504211Y-92138500D01*
X71452280Y-92086569D01*
X71071874Y-91929000D01*
X70660126Y-91929000D01*
X70279720Y-92086569D01*
X69988569Y-92377720D01*
X69831000Y-92758126D01*
X69831000Y-93169874D01*
X69988569Y-93550280D01*
X70279720Y-93841431D01*
X70660126Y-93999000D01*
X71071874Y-93999000D01*
X71452280Y-93841431D01*
X71504211Y-93789500D01*
X76943000Y-93789500D01*
X76943000Y-94185874D01*
X77100569Y-94566280D01*
X77152500Y-94618211D01*
X77152500Y-94660698D01*
X77152501Y-107311788D01*
X77100569Y-107363720D01*
X76943000Y-107744126D01*
X76943000Y-108155874D01*
X77100569Y-108536280D01*
X77391720Y-108827431D01*
X77772126Y-108985000D01*
X78183874Y-108985000D01*
X78564280Y-108827431D01*
X78855431Y-108536280D01*
X79013000Y-108155874D01*
X79013000Y-107744126D01*
X78855431Y-107363720D01*
X78803500Y-107311789D01*
X78803500Y-97766119D01*
X82931000Y-97766119D01*
X82931000Y-98321881D01*
X83143680Y-98835337D01*
X83536663Y-99228320D01*
X83743513Y-99314000D01*
X83536663Y-99399680D01*
X83143680Y-99792663D01*
X82931000Y-100306119D01*
X82931000Y-100861881D01*
X83143680Y-101375337D01*
X83536663Y-101768320D01*
X83743513Y-101854000D01*
X83536663Y-101939680D01*
X83143680Y-102332663D01*
X82931000Y-102846119D01*
X82931000Y-103401881D01*
X83143680Y-103915337D01*
X83536663Y-104308320D01*
X83743513Y-104394000D01*
X83536663Y-104479680D01*
X83143680Y-104872663D01*
X82931000Y-105386119D01*
X82931000Y-105941881D01*
X83143680Y-106455337D01*
X83536663Y-106848320D01*
X83743513Y-106934000D01*
X83536663Y-107019680D01*
X83143680Y-107412663D01*
X82931000Y-107926119D01*
X82931000Y-108481881D01*
X83143680Y-108995337D01*
X83536663Y-109388320D01*
X83743513Y-109474000D01*
X83536663Y-109559680D01*
X83143680Y-109952663D01*
X82931000Y-110466119D01*
X82931000Y-111021881D01*
X83143680Y-111535337D01*
X83536663Y-111928320D01*
X83743513Y-112014000D01*
X83536663Y-112099680D01*
X83143680Y-112492663D01*
X82931000Y-113006119D01*
X82931000Y-113561881D01*
X83143680Y-114075337D01*
X83536663Y-114468320D01*
X83743513Y-114554000D01*
X83536663Y-114639680D01*
X83143680Y-115032663D01*
X82931000Y-115546119D01*
X82931000Y-116101881D01*
X83143680Y-116615337D01*
X83536663Y-117008320D01*
X84050119Y-117221000D01*
X84605881Y-117221000D01*
X85119337Y-117008320D01*
X85512320Y-116615337D01*
X85598000Y-116408487D01*
X85683680Y-116615337D01*
X86076663Y-117008320D01*
X86590119Y-117221000D01*
X87145881Y-117221000D01*
X87659337Y-117008320D01*
X88018157Y-116649500D01*
X132457789Y-116649500D01*
X132509720Y-116701431D01*
X132890126Y-116859000D01*
X133301874Y-116859000D01*
X133682280Y-116701431D01*
X133973431Y-116410280D01*
X134131000Y-116029874D01*
X134131000Y-115618126D01*
X133973431Y-115237720D01*
X133682280Y-114946569D01*
X133301874Y-114789000D01*
X132890126Y-114789000D01*
X132509720Y-114946569D01*
X132457789Y-114998500D01*
X88018157Y-114998500D01*
X87659337Y-114639680D01*
X87452487Y-114554000D01*
X87659337Y-114468320D01*
X88018157Y-114109500D01*
X129917789Y-114109500D01*
X129969720Y-114161431D01*
X130350126Y-114319000D01*
X130761874Y-114319000D01*
X131142280Y-114161431D01*
X131433431Y-113870280D01*
X131591000Y-113489874D01*
X131591000Y-113078126D01*
X131433431Y-112697720D01*
X131142280Y-112406569D01*
X130761874Y-112249000D01*
X130350126Y-112249000D01*
X129969720Y-112406569D01*
X129917789Y-112458500D01*
X88018157Y-112458500D01*
X87659337Y-112099680D01*
X87452487Y-112014000D01*
X87659337Y-111928320D01*
X88018157Y-111569500D01*
X127377789Y-111569500D01*
X127429720Y-111621431D01*
X127810126Y-111779000D01*
X128221874Y-111779000D01*
X128602280Y-111621431D01*
X128893431Y-111330280D01*
X129051000Y-110949874D01*
X129051000Y-110538126D01*
X128893431Y-110157720D01*
X128602280Y-109866569D01*
X128221874Y-109709000D01*
X127810126Y-109709000D01*
X127429720Y-109866569D01*
X127377789Y-109918500D01*
X88018157Y-109918500D01*
X87659337Y-109559680D01*
X87452487Y-109474000D01*
X87659337Y-109388320D01*
X88018157Y-109029500D01*
X124837789Y-109029500D01*
X124889720Y-109081431D01*
X125270126Y-109239000D01*
X125681874Y-109239000D01*
X126062280Y-109081431D01*
X126353431Y-108790280D01*
X126511000Y-108409874D01*
X126511000Y-107998126D01*
X126353431Y-107617720D01*
X126062280Y-107326569D01*
X125681874Y-107169000D01*
X125270126Y-107169000D01*
X124889720Y-107326569D01*
X124837789Y-107378500D01*
X88018157Y-107378500D01*
X87659337Y-107019680D01*
X87452487Y-106934000D01*
X87659337Y-106848320D01*
X88018157Y-106489500D01*
X122297789Y-106489500D01*
X122349720Y-106541431D01*
X122730126Y-106699000D01*
X123141874Y-106699000D01*
X123522280Y-106541431D01*
X123813431Y-106250280D01*
X123971000Y-105869874D01*
X123971000Y-105458126D01*
X123813431Y-105077720D01*
X123522280Y-104786569D01*
X123141874Y-104629000D01*
X122730126Y-104629000D01*
X122349720Y-104786569D01*
X122297789Y-104838500D01*
X88018157Y-104838500D01*
X87659337Y-104479680D01*
X87452487Y-104394000D01*
X87659337Y-104308320D01*
X88018157Y-103949500D01*
X119757789Y-103949500D01*
X119809720Y-104001431D01*
X120190126Y-104159000D01*
X120601874Y-104159000D01*
X120982280Y-104001431D01*
X121273431Y-103710280D01*
X121431000Y-103329874D01*
X121431000Y-102918126D01*
X121273431Y-102537720D01*
X120982280Y-102246569D01*
X120601874Y-102089000D01*
X120190126Y-102089000D01*
X119809720Y-102246569D01*
X119757789Y-102298500D01*
X88018157Y-102298500D01*
X87659337Y-101939680D01*
X87452487Y-101854000D01*
X87659337Y-101768320D01*
X88018157Y-101409500D01*
X117217789Y-101409500D01*
X117269720Y-101461431D01*
X117650126Y-101619000D01*
X118061874Y-101619000D01*
X118442280Y-101461431D01*
X118733431Y-101170280D01*
X118891000Y-100789874D01*
X118891000Y-100378126D01*
X118733431Y-99997720D01*
X118442280Y-99706569D01*
X118061874Y-99549000D01*
X117650126Y-99549000D01*
X117269720Y-99706569D01*
X117217789Y-99758500D01*
X88018157Y-99758500D01*
X87659337Y-99399680D01*
X87452487Y-99314000D01*
X87659337Y-99228320D01*
X88018157Y-98869500D01*
X114677789Y-98869500D01*
X114729720Y-98921431D01*
X115110126Y-99079000D01*
X115521874Y-99079000D01*
X115902280Y-98921431D01*
X116193431Y-98630280D01*
X116351000Y-98249874D01*
X116351000Y-97838126D01*
X116193431Y-97457720D01*
X115902280Y-97166569D01*
X115521874Y-97009000D01*
X115110126Y-97009000D01*
X114729720Y-97166569D01*
X114677789Y-97218500D01*
X88018157Y-97218500D01*
X87659337Y-96859680D01*
X87145881Y-96647000D01*
X86590119Y-96647000D01*
X86076663Y-96859680D01*
X85683680Y-97252663D01*
X85598000Y-97459513D01*
X85512320Y-97252663D01*
X85119337Y-96859680D01*
X84605881Y-96647000D01*
X84050119Y-96647000D01*
X83536663Y-96859680D01*
X83143680Y-97252663D01*
X82931000Y-97766119D01*
X78803500Y-97766119D01*
X78803500Y-94618211D01*
X78855431Y-94566280D01*
X79013000Y-94185874D01*
X79013000Y-93789500D01*
X83177843Y-93789500D01*
X83536663Y-94148320D01*
X84050119Y-94361000D01*
X84605881Y-94361000D01*
X85119337Y-94148320D01*
X85512320Y-93755337D01*
X85598000Y-93548487D01*
X85683680Y-93755337D01*
X86076663Y-94148320D01*
X86590119Y-94361000D01*
X87145881Y-94361000D01*
X87659337Y-94148320D01*
X88052320Y-93755337D01*
X88265000Y-93241881D01*
X88265000Y-92686119D01*
X88052320Y-92172663D01*
X87659337Y-91779680D01*
X87452487Y-91694000D01*
X87659337Y-91608320D01*
X88052320Y-91215337D01*
X88265000Y-90701881D01*
X88265000Y-90146119D01*
X88052320Y-89632663D01*
X87659337Y-89239680D01*
X87452487Y-89154000D01*
X87659337Y-89068320D01*
X88052320Y-88675337D01*
X88265000Y-88161881D01*
X88265000Y-87606119D01*
X88052320Y-87092663D01*
X87659337Y-86699680D01*
X87452487Y-86614000D01*
X87659337Y-86528320D01*
X88052320Y-86135337D01*
X88265000Y-85621881D01*
X88265000Y-85066119D01*
X88052320Y-84552663D01*
X87659337Y-84159680D01*
X87452487Y-84074000D01*
X87659337Y-83988320D01*
X88052320Y-83595337D01*
X88265000Y-83081881D01*
X88265000Y-82526119D01*
X88052320Y-82012663D01*
X87659337Y-81619680D01*
X87452487Y-81534000D01*
X87659337Y-81448320D01*
X88052320Y-81055337D01*
X88265000Y-80541881D01*
X88265000Y-79986119D01*
X88052320Y-79472663D01*
X87659337Y-79079680D01*
X87452487Y-78994000D01*
X87659337Y-78908320D01*
X88052320Y-78515337D01*
X88265000Y-78001881D01*
X88265000Y-77446119D01*
X88052320Y-76932663D01*
X87659337Y-76539680D01*
X87452487Y-76454000D01*
X87659337Y-76368320D01*
X88052320Y-75975337D01*
X88265000Y-75461881D01*
X88265000Y-74906119D01*
X88052320Y-74392663D01*
X87659337Y-73999680D01*
X87145881Y-73787000D01*
X86590119Y-73787000D01*
X86076663Y-73999680D01*
X85683680Y-74392663D01*
X85598000Y-74599513D01*
X85512320Y-74392663D01*
X85119337Y-73999680D01*
X84605881Y-73787000D01*
X84050119Y-73787000D01*
X83536663Y-73999680D01*
X83177843Y-74358500D01*
X71504211Y-74358500D01*
X71452280Y-74306569D01*
X71071874Y-74149000D01*
X70660126Y-74149000D01*
X70279720Y-74306569D01*
X69988569Y-74597720D01*
X69831000Y-74978126D01*
X60960000Y-74978126D01*
X60960000Y-73911744D01*
X60979000Y-73865874D01*
X60979000Y-73454126D01*
X60960000Y-73408256D01*
X60960000Y-68948000D01*
X75081972Y-68948000D01*
X74880874Y-69248964D01*
X74715173Y-70082000D01*
X74880874Y-70915036D01*
X75352751Y-71621249D01*
X76058964Y-72093126D01*
X76681721Y-72217000D01*
X78102279Y-72217000D01*
X78725036Y-72093126D01*
X79431249Y-71621249D01*
X79903126Y-70915036D01*
X80068827Y-70082000D01*
X79903126Y-69248964D01*
X79702028Y-68948000D01*
X87307893Y-68948000D01*
X87550815Y-69190922D01*
X88096615Y-69417000D01*
X88687385Y-69417000D01*
X89233185Y-69190922D01*
X89476107Y-68948000D01*
X103124000Y-68948000D01*
X103124001Y-72035932D01*
X103104096Y-72136000D01*
X103164193Y-72438126D01*
X103182950Y-72532423D01*
X103407506Y-72868495D01*
X103492338Y-72925178D01*
X105791000Y-75223841D01*
X105791000Y-75461881D01*
X106003680Y-75975337D01*
X106396663Y-76368320D01*
X106603513Y-76454000D01*
X106396663Y-76539680D01*
X106003680Y-76932663D01*
X105791000Y-77446119D01*
X105791000Y-78001881D01*
X106003680Y-78515337D01*
X106396663Y-78908320D01*
X106910119Y-79121000D01*
X107465881Y-79121000D01*
X107979337Y-78908320D01*
X108372320Y-78515337D01*
X108458000Y-78308487D01*
X108543680Y-78515337D01*
X108936663Y-78908320D01*
X109450119Y-79121000D01*
X110005881Y-79121000D01*
X110519337Y-78908320D01*
X110912320Y-78515337D01*
X111125000Y-78001881D01*
X111125000Y-77446119D01*
X110912320Y-76932663D01*
X110519337Y-76539680D01*
X110005881Y-76327000D01*
X109450119Y-76327000D01*
X108936663Y-76539680D01*
X108543680Y-76932663D01*
X108458000Y-77139513D01*
X108372320Y-76932663D01*
X107979337Y-76539680D01*
X107772487Y-76454000D01*
X107979337Y-76368320D01*
X108372320Y-75975337D01*
X108585000Y-75461881D01*
X108585000Y-74906119D01*
X108372320Y-74392663D01*
X107979337Y-73999680D01*
X107465881Y-73787000D01*
X107227841Y-73787000D01*
X105156000Y-71715160D01*
X105156000Y-68172063D01*
X105175904Y-68072000D01*
X105156000Y-67971935D01*
X105156000Y-58928000D01*
X109730256Y-58928000D01*
X109776126Y-58947000D01*
X110187874Y-58947000D01*
X110233744Y-58928000D01*
X113371160Y-58928000D01*
X117208336Y-62765177D01*
X117208339Y-62765179D01*
X117649821Y-63206661D01*
X117706506Y-63291496D01*
X118042578Y-63516052D01*
X118338936Y-63575001D01*
X118338937Y-63575001D01*
X118439001Y-63594905D01*
X118539064Y-63575001D01*
X123952001Y-63575001D01*
X123952000Y-74224343D01*
X123783680Y-74392663D01*
X123571000Y-74906119D01*
X123571000Y-75461881D01*
X123783680Y-75975337D01*
X123952001Y-76143658D01*
X123952000Y-76764343D01*
X123783680Y-76932663D01*
X123571000Y-77446119D01*
X123571000Y-78001881D01*
X123783680Y-78515337D01*
X124176663Y-78908320D01*
X124690119Y-79121000D01*
X125245881Y-79121000D01*
X125759337Y-78908320D01*
X126152320Y-78515337D01*
X126365000Y-78001881D01*
X126365000Y-77446119D01*
X126152320Y-76932663D01*
X125984000Y-76764343D01*
X125984000Y-76143657D01*
X126152320Y-75975337D01*
X126365000Y-75461881D01*
X126365000Y-74906119D01*
X138811000Y-74906119D01*
X138811000Y-75461881D01*
X139023680Y-75975337D01*
X139416663Y-76368320D01*
X139623513Y-76454000D01*
X139416663Y-76539680D01*
X139023680Y-76932663D01*
X138811000Y-77446119D01*
X138811000Y-78001881D01*
X139023680Y-78515337D01*
X139416663Y-78908320D01*
X139623513Y-78994000D01*
X139416663Y-79079680D01*
X139023680Y-79472663D01*
X138811000Y-79986119D01*
X138811000Y-80541881D01*
X139023680Y-81055337D01*
X139416663Y-81448320D01*
X139623513Y-81534000D01*
X139416663Y-81619680D01*
X139023680Y-82012663D01*
X138811000Y-82526119D01*
X138811000Y-83081881D01*
X139023680Y-83595337D01*
X139416663Y-83988320D01*
X139623513Y-84074000D01*
X139416663Y-84159680D01*
X139023680Y-84552663D01*
X138811000Y-85066119D01*
X138811000Y-85621881D01*
X139023680Y-86135337D01*
X139416663Y-86528320D01*
X139623513Y-86614000D01*
X139416663Y-86699680D01*
X139023680Y-87092663D01*
X138811000Y-87606119D01*
X138811000Y-88161881D01*
X139023680Y-88675337D01*
X139416663Y-89068320D01*
X139623513Y-89154000D01*
X139416663Y-89239680D01*
X139023680Y-89632663D01*
X138811000Y-90146119D01*
X138811000Y-90701881D01*
X139023680Y-91215337D01*
X139416663Y-91608320D01*
X139623513Y-91694000D01*
X139416663Y-91779680D01*
X139023680Y-92172663D01*
X138811000Y-92686119D01*
X138811000Y-93241881D01*
X139023680Y-93755337D01*
X139416663Y-94148320D01*
X139930119Y-94361000D01*
X140485881Y-94361000D01*
X140999337Y-94148320D01*
X141392320Y-93755337D01*
X141478000Y-93548487D01*
X141563680Y-93755337D01*
X141956663Y-94148320D01*
X142470119Y-94361000D01*
X143025881Y-94361000D01*
X143539337Y-94148320D01*
X143932320Y-93755337D01*
X144145000Y-93241881D01*
X144145000Y-92686119D01*
X144075984Y-92519500D01*
X159170068Y-92519500D01*
X159194501Y-92543933D01*
X159194500Y-102808698D01*
X159178328Y-102890000D01*
X159194500Y-102971301D01*
X159194500Y-102971302D01*
X159242396Y-103212093D01*
X159424848Y-103485152D01*
X159493777Y-103531209D01*
X162243000Y-106280433D01*
X162243000Y-106353874D01*
X162400569Y-106734280D01*
X162691720Y-107025431D01*
X163072126Y-107183000D01*
X163483874Y-107183000D01*
X163864280Y-107025431D01*
X164155431Y-106734280D01*
X164313000Y-106353874D01*
X164313000Y-105942126D01*
X164155431Y-105561720D01*
X163864280Y-105270569D01*
X163483874Y-105113000D01*
X163410433Y-105113000D01*
X160845500Y-102548068D01*
X160845500Y-99294932D01*
X162243000Y-100692433D01*
X162243000Y-100765874D01*
X162400569Y-101146280D01*
X162691720Y-101437431D01*
X163072126Y-101595000D01*
X163483874Y-101595000D01*
X163864280Y-101437431D01*
X164155431Y-101146280D01*
X164313000Y-100765874D01*
X164313000Y-100354126D01*
X164155431Y-99973720D01*
X163864280Y-99682569D01*
X163483874Y-99525000D01*
X163410433Y-99525000D01*
X161607500Y-97722068D01*
X161607500Y-94468932D01*
X162243000Y-95104433D01*
X162243000Y-95177874D01*
X162400569Y-95558280D01*
X162691720Y-95849431D01*
X163072126Y-96007000D01*
X163483874Y-96007000D01*
X163864280Y-95849431D01*
X164155431Y-95558280D01*
X164313000Y-95177874D01*
X164313000Y-94766126D01*
X164155431Y-94385720D01*
X163864280Y-94094569D01*
X163483874Y-93937000D01*
X163410433Y-93937000D01*
X162369500Y-92896068D01*
X162369500Y-89895273D01*
X162400569Y-89970280D01*
X162691720Y-90261431D01*
X163072126Y-90419000D01*
X163483874Y-90419000D01*
X163864280Y-90261431D01*
X164155431Y-89970280D01*
X164313000Y-89589874D01*
X164313000Y-89178126D01*
X164155431Y-88797720D01*
X163864280Y-88506569D01*
X163483874Y-88349000D01*
X163410433Y-88349000D01*
X163131500Y-88070068D01*
X163131500Y-84831000D01*
X163483874Y-84831000D01*
X163864280Y-84673431D01*
X164155431Y-84382280D01*
X164313000Y-84001874D01*
X164313000Y-83590126D01*
X164155431Y-83209720D01*
X163864280Y-82918569D01*
X163483874Y-82761000D01*
X163410433Y-82761000D01*
X163131500Y-82482068D01*
X163131500Y-82123297D01*
X163147671Y-82041999D01*
X163131500Y-81960701D01*
X163131500Y-81960697D01*
X163083604Y-81719906D01*
X162901152Y-81446848D01*
X162832226Y-81400793D01*
X162439209Y-81007776D01*
X162393152Y-80938848D01*
X162120094Y-80756396D01*
X161879303Y-80708500D01*
X161879301Y-80708500D01*
X161798000Y-80692328D01*
X161716699Y-80708500D01*
X144075984Y-80708500D01*
X144145000Y-80541881D01*
X144145000Y-79986119D01*
X144075984Y-79819500D01*
X162224699Y-79819500D01*
X162306000Y-79835672D01*
X162387301Y-79819500D01*
X162387303Y-79819500D01*
X162628094Y-79771604D01*
X162901152Y-79589152D01*
X162947209Y-79520223D01*
X163200432Y-79267000D01*
X163273874Y-79267000D01*
X163654280Y-79109431D01*
X163945431Y-78818280D01*
X164103000Y-78437874D01*
X164103000Y-78026126D01*
X163945431Y-77645720D01*
X163654280Y-77354569D01*
X163273874Y-77197000D01*
X162862126Y-77197000D01*
X162481720Y-77354569D01*
X162190569Y-77645720D01*
X162033000Y-78026126D01*
X162033000Y-78099568D01*
X161964068Y-78168500D01*
X144075984Y-78168500D01*
X144145000Y-78001881D01*
X144145000Y-77446119D01*
X144075984Y-77279500D01*
X161716699Y-77279500D01*
X161798000Y-77295672D01*
X161879301Y-77279500D01*
X161879303Y-77279500D01*
X162120094Y-77231604D01*
X162393152Y-77049152D01*
X162439209Y-76980224D01*
X162832225Y-76587207D01*
X162901152Y-76541152D01*
X163083604Y-76268094D01*
X163131500Y-76027303D01*
X163131500Y-76027299D01*
X163147671Y-75946001D01*
X163131500Y-75864703D01*
X163131500Y-73747932D01*
X163200432Y-73679000D01*
X163273874Y-73679000D01*
X163654280Y-73521431D01*
X163945431Y-73230280D01*
X164103000Y-72849874D01*
X164103000Y-72438126D01*
X163945431Y-72057720D01*
X163654280Y-71766569D01*
X163273874Y-71609000D01*
X162862126Y-71609000D01*
X162481720Y-71766569D01*
X162190569Y-72057720D01*
X162033000Y-72438126D01*
X162033000Y-72511568D01*
X161779777Y-72764791D01*
X161710848Y-72810848D01*
X161528396Y-73083907D01*
X161499281Y-73230280D01*
X161464328Y-73406000D01*
X161480500Y-73487302D01*
X161480501Y-75604067D01*
X161456068Y-75628500D01*
X144075984Y-75628500D01*
X144145000Y-75461881D01*
X144145000Y-74906119D01*
X143932320Y-74392663D01*
X143539337Y-73999680D01*
X143025881Y-73787000D01*
X142470119Y-73787000D01*
X141956663Y-73999680D01*
X141563680Y-74392663D01*
X141478000Y-74599513D01*
X141392320Y-74392663D01*
X140999337Y-73999680D01*
X140485881Y-73787000D01*
X139930119Y-73787000D01*
X139416663Y-73999680D01*
X139023680Y-74392663D01*
X138811000Y-74906119D01*
X126365000Y-74906119D01*
X126152320Y-74392663D01*
X125984000Y-74224343D01*
X125984000Y-63575001D01*
X151477342Y-63575001D01*
X151645662Y-63743321D01*
X152159118Y-63956001D01*
X152714880Y-63956001D01*
X153228336Y-63743321D01*
X153621319Y-63350338D01*
X153833999Y-62836882D01*
X153833999Y-62281120D01*
X153621319Y-61767664D01*
X153228336Y-61374681D01*
X152714880Y-61162001D01*
X152159118Y-61162001D01*
X151645662Y-61374681D01*
X151477342Y-61543001D01*
X125068065Y-61543001D01*
X124968000Y-61523097D01*
X124867936Y-61543001D01*
X118859841Y-61543001D01*
X118645179Y-61328339D01*
X118645177Y-61328336D01*
X114581180Y-57264340D01*
X114538938Y-57201120D01*
X151039999Y-57201120D01*
X151039999Y-57756882D01*
X151252679Y-58270338D01*
X151645662Y-58663321D01*
X152159118Y-58876001D01*
X152714880Y-58876001D01*
X153228336Y-58663321D01*
X153621319Y-58270338D01*
X153833999Y-57756882D01*
X153833999Y-57201120D01*
X153621319Y-56687664D01*
X153228336Y-56294681D01*
X152714880Y-56082001D01*
X152159118Y-56082001D01*
X151645662Y-56294681D01*
X151252679Y-56687664D01*
X151039999Y-57201120D01*
X114538938Y-57201120D01*
X114524495Y-57179505D01*
X114188423Y-56954949D01*
X113892065Y-56896000D01*
X113892063Y-56896000D01*
X113792000Y-56876096D01*
X113691937Y-56896000D01*
X110233744Y-56896000D01*
X110187874Y-56877000D01*
X109776126Y-56877000D01*
X109730256Y-56896000D01*
X104391744Y-56896000D01*
X104345874Y-56877000D01*
X104144545Y-56877000D01*
X104140000Y-56876096D01*
X104135455Y-56877000D01*
X103934126Y-56877000D01*
X103748123Y-56954045D01*
X103743577Y-56954949D01*
X103739723Y-56957524D01*
X103553720Y-57034569D01*
X103411359Y-57176930D01*
X103407505Y-57179505D01*
X103404930Y-57183359D01*
X103262569Y-57325720D01*
X103185524Y-57511723D01*
X103182949Y-57515577D01*
X103182045Y-57520123D01*
X103105000Y-57706126D01*
X103105000Y-57907455D01*
X103104096Y-57912000D01*
X103105000Y-57916545D01*
X103105000Y-58117874D01*
X103124000Y-58163744D01*
X103124001Y-66916000D01*
X89476107Y-66916000D01*
X89292107Y-66732000D01*
X89650922Y-66373185D01*
X89877000Y-65827385D01*
X89877000Y-65236615D01*
X89650922Y-64690815D01*
X89233185Y-64273078D01*
X88687385Y-64047000D01*
X88096615Y-64047000D01*
X87550815Y-64273078D01*
X87133078Y-64690815D01*
X86907000Y-65236615D01*
X86907000Y-65827385D01*
X87133078Y-66373185D01*
X87491893Y-66732000D01*
X87307893Y-66916000D01*
X60960000Y-66916000D01*
X60960000Y-62735744D01*
X60979000Y-62689874D01*
X60979000Y-62278126D01*
X60901955Y-62092123D01*
X60901051Y-62087577D01*
X60898476Y-62083723D01*
X60821431Y-61897720D01*
X60679070Y-61755359D01*
X60676495Y-61751505D01*
X60672641Y-61748930D01*
X60530280Y-61606569D01*
X60344277Y-61529524D01*
X60340423Y-61526949D01*
X60335877Y-61526045D01*
X60149874Y-61449000D01*
X59948545Y-61449000D01*
X59944000Y-61448096D01*
X59939455Y-61449000D01*
X59738126Y-61449000D01*
X59552122Y-61526045D01*
X59547578Y-61526949D01*
X59543725Y-61529523D01*
X59357720Y-61606569D01*
X59215357Y-61748932D01*
X59211506Y-61751505D01*
X59208933Y-61755356D01*
X59066569Y-61897720D01*
X58989523Y-62083727D01*
X58986950Y-62087577D01*
X58986047Y-62092119D01*
X58909000Y-62278126D01*
X58909000Y-62689874D01*
X58928001Y-62735747D01*
X58928001Y-67820254D01*
X58909000Y-67866126D01*
X58909000Y-68067455D01*
X58908096Y-68072000D01*
X47700000Y-68072000D01*
X47700000Y-58482000D01*
X74715173Y-58482000D01*
X74880874Y-59315036D01*
X75352751Y-60021249D01*
X76058964Y-60493126D01*
X76681721Y-60617000D01*
X78102279Y-60617000D01*
X78725036Y-60493126D01*
X78959270Y-60336615D01*
X86907000Y-60336615D01*
X86907000Y-60927385D01*
X87133078Y-61473185D01*
X87550815Y-61890922D01*
X88096615Y-62117000D01*
X88687385Y-62117000D01*
X89233185Y-61890922D01*
X89650922Y-61473185D01*
X89877000Y-60927385D01*
X89877000Y-60336615D01*
X89650922Y-59790815D01*
X89233185Y-59373078D01*
X88687385Y-59147000D01*
X88096615Y-59147000D01*
X87550815Y-59373078D01*
X87133078Y-59790815D01*
X86907000Y-60336615D01*
X78959270Y-60336615D01*
X79431249Y-60021249D01*
X79903126Y-59315036D01*
X80068827Y-58482000D01*
X79972021Y-57995322D01*
X91337000Y-57995322D01*
X91337000Y-58844678D01*
X91662034Y-59629380D01*
X92262620Y-60229966D01*
X93047322Y-60555000D01*
X93896678Y-60555000D01*
X94681380Y-60229966D01*
X95281966Y-59629380D01*
X95607000Y-58844678D01*
X95607000Y-57995322D01*
X95281966Y-57210620D01*
X94681380Y-56610034D01*
X93896678Y-56285000D01*
X93047322Y-56285000D01*
X92262620Y-56610034D01*
X91662034Y-57210620D01*
X91337000Y-57995322D01*
X79972021Y-57995322D01*
X79903126Y-57648964D01*
X79431249Y-56942751D01*
X78725036Y-56470874D01*
X78102279Y-56347000D01*
X76681721Y-56347000D01*
X76058964Y-56470874D01*
X75352751Y-56942751D01*
X74880874Y-57648964D01*
X74715173Y-58482000D01*
X47700000Y-58482000D01*
X47700000Y-55502453D01*
X160655000Y-55502453D01*
X160655000Y-56765547D01*
X161138365Y-57932493D01*
X162031507Y-58825635D01*
X163198453Y-59309000D01*
X164461547Y-59309000D01*
X165628493Y-58825635D01*
X166521635Y-57932493D01*
X167005000Y-56765547D01*
X167005000Y-55502453D01*
X166521635Y-54335507D01*
X165628493Y-53442365D01*
X164461547Y-52959000D01*
X163198453Y-52959000D01*
X162031507Y-53442365D01*
X161138365Y-54335507D01*
X160655000Y-55502453D01*
X47700000Y-55502453D01*
X47700000Y-54654666D01*
X47762958Y-54156302D01*
X47931305Y-53731107D01*
X48200101Y-53361142D01*
X48552462Y-53069644D01*
X48966244Y-52874933D01*
X49448662Y-52782907D01*
X49541164Y-52780000D01*
X179025334Y-52780000D01*
X179523698Y-52842958D01*
X179523698Y-52842958D01*
G37*
X179523698Y-52842958D02*
X179948893Y-53011305D01*
X180318858Y-53280101D01*
X180610356Y-53632462D01*
X180805067Y-54046244D01*
X180897093Y-54528662D01*
X180900000Y-54621164D01*
X180900001Y-151085326D01*
X180837042Y-151583699D01*
X180668697Y-152008889D01*
X180399899Y-152378859D01*
X180047541Y-152670355D01*
X179633756Y-152865067D01*
X179151339Y-152957093D01*
X179058836Y-152960000D01*
X49574667Y-152960000D01*
X49076301Y-152897042D01*
X48651111Y-152728697D01*
X48281141Y-152459899D01*
X47989645Y-152107541D01*
X47794933Y-151693756D01*
X47702907Y-151211339D01*
X47700000Y-151118836D01*
X47700000Y-68072000D01*
X58908096Y-68072000D01*
X58909000Y-68076545D01*
X58909000Y-68277874D01*
X58928001Y-68323746D01*
X58928001Y-73408254D01*
X58909000Y-73454126D01*
X58909000Y-73865874D01*
X58928001Y-73911746D01*
X58928001Y-78996254D01*
X58909000Y-79042126D01*
X58909000Y-79453874D01*
X58928001Y-79499746D01*
X58928000Y-84584255D01*
X58909000Y-84630126D01*
X58909000Y-85041874D01*
X58928000Y-85087745D01*
X58928000Y-90172255D01*
X58909000Y-90218126D01*
X58909000Y-90629874D01*
X58928000Y-90675745D01*
X58928000Y-95760255D01*
X58909000Y-95806126D01*
X58909000Y-96217874D01*
X58928000Y-96263744D01*
X58928000Y-101348256D01*
X58909000Y-101394126D01*
X58909000Y-101805874D01*
X58928001Y-101851746D01*
X58928000Y-102769935D01*
X58928000Y-102769936D01*
X58928001Y-108206254D01*
X58909000Y-108252126D01*
X58909000Y-108663874D01*
X58928001Y-108709747D01*
X58928001Y-113794254D01*
X58909000Y-113840126D01*
X58909000Y-114251874D01*
X58928001Y-114297746D01*
X58928001Y-119382254D01*
X58909000Y-119428126D01*
X58909000Y-119839874D01*
X58928001Y-119885746D01*
X58928000Y-124970255D01*
X58909000Y-125016126D01*
X58909000Y-125427874D01*
X58928000Y-125473745D01*
X58928000Y-130558255D01*
X58909000Y-130604126D01*
X58909000Y-131015874D01*
X58928000Y-131061745D01*
X58928000Y-136146256D01*
X58909000Y-136192126D01*
X58909000Y-136603874D01*
X58928000Y-136649744D01*
X58928000Y-140615935D01*
X58908096Y-140716000D01*
X58928000Y-140816063D01*
X58928000Y-140816064D01*
X58928001Y-140816069D01*
X58928001Y-141734254D01*
X58909000Y-141780126D01*
X58909000Y-142191874D01*
X58928001Y-142237746D01*
X58928000Y-147322256D01*
X58909000Y-147368126D01*
X58909000Y-147779874D01*
X58986045Y-147965878D01*
X58986949Y-147970422D01*
X58989523Y-147974275D01*
X59066569Y-148160280D01*
X59208930Y-148302641D01*
X59211505Y-148306495D01*
X59215359Y-148309070D01*
X59357720Y-148451431D01*
X59543723Y-148528476D01*
X59547577Y-148531051D01*
X59552123Y-148531955D01*
X59738126Y-148609000D01*
X59939455Y-148609000D01*
X59944000Y-148609904D01*
X59948545Y-148609000D01*
X60149874Y-148609000D01*
X60335878Y-148531955D01*
X60340422Y-148531051D01*
X60344275Y-148528477D01*
X60530280Y-148451431D01*
X60672641Y-148309070D01*
X60676495Y-148306495D01*
X60679070Y-148302641D01*
X60821431Y-148160280D01*
X60898476Y-147974277D01*
X60901051Y-147970423D01*
X60901955Y-147965877D01*
X60979000Y-147779874D01*
X60979000Y-147368126D01*
X60960000Y-147322256D01*
X60960000Y-142237744D01*
X60979000Y-142191874D01*
X60979000Y-141986000D01*
X71376256Y-141986000D01*
X71422126Y-142005000D01*
X71833874Y-142005000D01*
X71879744Y-141986000D01*
X76964256Y-141986000D01*
X77010126Y-142005000D01*
X77421874Y-142005000D01*
X77467744Y-141986000D01*
X82552256Y-141986000D01*
X82598126Y-142005000D01*
X83009874Y-142005000D01*
X83055744Y-141986000D01*
X88140256Y-141986000D01*
X88186126Y-142005000D01*
X88597874Y-142005000D01*
X88643744Y-141986000D01*
X93728256Y-141986000D01*
X93774126Y-142005000D01*
X94185874Y-142005000D01*
X94231744Y-141986000D01*
X99316256Y-141986000D01*
X99362126Y-142005000D01*
X99773874Y-142005000D01*
X99819744Y-141986000D01*
X104904256Y-141986000D01*
X104950126Y-142005000D01*
X105361874Y-142005000D01*
X105407744Y-141986000D01*
X110492256Y-141986000D01*
X110538126Y-142005000D01*
X110949874Y-142005000D01*
X110995744Y-141986000D01*
X116080256Y-141986000D01*
X116126126Y-142005000D01*
X116537874Y-142005000D01*
X116583744Y-141986000D01*
X121668256Y-141986000D01*
X121714126Y-142005000D01*
X122125874Y-142005000D01*
X122171744Y-141986000D01*
X127256256Y-141986000D01*
X127302126Y-142005000D01*
X127713874Y-142005000D01*
X127759744Y-141986000D01*
X132844256Y-141986000D01*
X132890126Y-142005000D01*
X133301874Y-142005000D01*
X133347744Y-141986000D01*
X138432256Y-141986000D01*
X138478126Y-142005000D01*
X138889874Y-142005000D01*
X138935744Y-141986000D01*
X144020256Y-141986000D01*
X144066126Y-142005000D01*
X144477874Y-142005000D01*
X144523744Y-141986000D01*
X149608256Y-141986000D01*
X149654126Y-142005000D01*
X150065874Y-142005000D01*
X150111744Y-141986000D01*
X155196256Y-141986000D01*
X155242126Y-142005000D01*
X155653874Y-142005000D01*
X155699744Y-141986000D01*
X167621000Y-141986000D01*
X167621000Y-142191874D01*
X167640001Y-142237746D01*
X167640000Y-147322256D01*
X167621000Y-147368126D01*
X167621000Y-147779874D01*
X167698045Y-147965878D01*
X167698949Y-147970422D01*
X167701523Y-147974275D01*
X167778569Y-148160280D01*
X167920930Y-148302641D01*
X167923505Y-148306495D01*
X167927359Y-148309070D01*
X168069720Y-148451431D01*
X168255723Y-148528476D01*
X168259577Y-148531051D01*
X168264123Y-148531955D01*
X168450126Y-148609000D01*
X168651455Y-148609000D01*
X168656000Y-148609904D01*
X168660545Y-148609000D01*
X168861874Y-148609000D01*
X169047878Y-148531955D01*
X169052422Y-148531051D01*
X169056275Y-148528477D01*
X169242280Y-148451431D01*
X169384641Y-148309070D01*
X169388495Y-148306495D01*
X169391070Y-148302641D01*
X169533431Y-148160280D01*
X169610476Y-147974277D01*
X169613051Y-147970423D01*
X169613955Y-147965877D01*
X169691000Y-147779874D01*
X169691000Y-147368126D01*
X169672000Y-147322256D01*
X169672000Y-142237744D01*
X169691000Y-142191874D01*
X169691000Y-141780126D01*
X169672000Y-141734256D01*
X169672000Y-141070064D01*
X169691904Y-140970000D01*
X169672000Y-140869935D01*
X169672000Y-136649744D01*
X169691000Y-136603874D01*
X169691000Y-136192126D01*
X169672000Y-136146256D01*
X169672000Y-131061744D01*
X169691000Y-131015874D01*
X169691000Y-130604126D01*
X169672000Y-130558256D01*
X169672000Y-125473744D01*
X169691000Y-125427874D01*
X169691000Y-125016126D01*
X169672000Y-124970256D01*
X169672000Y-119885744D01*
X169691000Y-119839874D01*
X169691000Y-119428126D01*
X169672000Y-119382256D01*
X169672000Y-114297744D01*
X169691000Y-114251874D01*
X169691000Y-113840126D01*
X169672000Y-113794256D01*
X169672000Y-108709744D01*
X169691000Y-108663874D01*
X169691000Y-108252126D01*
X169672000Y-108206256D01*
X169672000Y-103375744D01*
X169691000Y-103329874D01*
X169691000Y-102918126D01*
X169672000Y-102872256D01*
X169672000Y-97787744D01*
X169691000Y-97741874D01*
X169691000Y-97330126D01*
X169672000Y-97284256D01*
X169672000Y-92199744D01*
X169691000Y-92153874D01*
X169691000Y-91742126D01*
X169672000Y-91696256D01*
X169672000Y-86611744D01*
X169691000Y-86565874D01*
X169691000Y-86154126D01*
X169672000Y-86108256D01*
X169672000Y-81023744D01*
X169691000Y-80977874D01*
X169691000Y-80566126D01*
X169672000Y-80520256D01*
X169672000Y-75435744D01*
X169691000Y-75389874D01*
X169691000Y-74978126D01*
X169672000Y-74932256D01*
X169672000Y-69847744D01*
X169691000Y-69801874D01*
X169691000Y-69390126D01*
X169613955Y-69204123D01*
X169613051Y-69199577D01*
X169610476Y-69195723D01*
X169533431Y-69009720D01*
X169391070Y-68867359D01*
X169388495Y-68863505D01*
X169384641Y-68860930D01*
X169242280Y-68718569D01*
X169056275Y-68641523D01*
X169052422Y-68638949D01*
X169047878Y-68638045D01*
X168861874Y-68561000D01*
X168660545Y-68561000D01*
X168656000Y-68560096D01*
X168651455Y-68561000D01*
X168450126Y-68561000D01*
X168264123Y-68638045D01*
X168259577Y-68638949D01*
X168255723Y-68641524D01*
X168069720Y-68718569D01*
X167927359Y-68860930D01*
X167923505Y-68863505D01*
X167920930Y-68867359D01*
X167778569Y-69009720D01*
X167701523Y-69195725D01*
X167698949Y-69199578D01*
X167698045Y-69204122D01*
X167621000Y-69390126D01*
X167621000Y-69801874D01*
X167640000Y-69847744D01*
X167640000Y-74932255D01*
X167621000Y-74978126D01*
X167621000Y-75389874D01*
X167640000Y-75435745D01*
X167640000Y-80520255D01*
X167621000Y-80566126D01*
X167621000Y-80977874D01*
X167640000Y-81023745D01*
X167640000Y-86108255D01*
X167621000Y-86154126D01*
X167621000Y-86565874D01*
X167640001Y-86611745D01*
X167640001Y-91696254D01*
X167621000Y-91742126D01*
X167621000Y-92153874D01*
X167640001Y-92199746D01*
X167640001Y-97284254D01*
X167621000Y-97330126D01*
X167621000Y-97741874D01*
X167640001Y-97787746D01*
X167640001Y-102872253D01*
X167621000Y-102918126D01*
X167621000Y-103329874D01*
X167640000Y-103375744D01*
X167640001Y-108206254D01*
X167621000Y-108252126D01*
X167621000Y-108663874D01*
X167640000Y-108709744D01*
X167640000Y-109320064D01*
X167640001Y-109320069D01*
X167640001Y-113794254D01*
X167621000Y-113840126D01*
X167621000Y-114251874D01*
X167640001Y-114297746D01*
X167640001Y-119382254D01*
X167621000Y-119428126D01*
X167621000Y-119839874D01*
X167640001Y-119885746D01*
X167640001Y-124970255D01*
X167621000Y-125016126D01*
X167621000Y-125427874D01*
X167640000Y-125473745D01*
X167640000Y-130558255D01*
X167621000Y-130604126D01*
X167621000Y-131015874D01*
X167640000Y-131061745D01*
X167640000Y-136146255D01*
X167621000Y-136192126D01*
X167621000Y-136603874D01*
X167640000Y-136649744D01*
X167640000Y-139954000D01*
X155699744Y-139954000D01*
X155653874Y-139935000D01*
X155242126Y-139935000D01*
X155196256Y-139954000D01*
X150111744Y-139954000D01*
X150065874Y-139935000D01*
X149654126Y-139935000D01*
X149608256Y-139954000D01*
X144523744Y-139954000D01*
X144477874Y-139935000D01*
X144066126Y-139935000D01*
X144020256Y-139954000D01*
X138935744Y-139954000D01*
X138889874Y-139935000D01*
X138478126Y-139935000D01*
X138432256Y-139954000D01*
X133347744Y-139954000D01*
X133301874Y-139935000D01*
X132890126Y-139935000D01*
X132844256Y-139954000D01*
X127759744Y-139954000D01*
X127713874Y-139935000D01*
X127302126Y-139935000D01*
X127256256Y-139954000D01*
X122171744Y-139954000D01*
X122125874Y-139935000D01*
X121714126Y-139935000D01*
X121668256Y-139954000D01*
X116583744Y-139954000D01*
X116537874Y-139935000D01*
X116126126Y-139935000D01*
X116080256Y-139954000D01*
X110995744Y-139954000D01*
X110949874Y-139935000D01*
X110538126Y-139935000D01*
X110492256Y-139954000D01*
X105407744Y-139954000D01*
X105361874Y-139935000D01*
X104950126Y-139935000D01*
X104904256Y-139954000D01*
X99819744Y-139954000D01*
X99773874Y-139935000D01*
X99362126Y-139935000D01*
X99316256Y-139954000D01*
X94231744Y-139954000D01*
X94185874Y-139935000D01*
X93774126Y-139935000D01*
X93728256Y-139954000D01*
X88643744Y-139954000D01*
X88597874Y-139935000D01*
X88186126Y-139935000D01*
X88140256Y-139954000D01*
X83055744Y-139954000D01*
X83009874Y-139935000D01*
X82598126Y-139935000D01*
X82552256Y-139954000D01*
X77467744Y-139954000D01*
X77421874Y-139935000D01*
X77010126Y-139935000D01*
X76964256Y-139954000D01*
X71879744Y-139954000D01*
X71833874Y-139935000D01*
X71422126Y-139935000D01*
X71376256Y-139954000D01*
X60960000Y-139954000D01*
X60960000Y-136649744D01*
X60979000Y-136603874D01*
X60979000Y-136192126D01*
X60960000Y-136146256D01*
X60960000Y-131061744D01*
X60979000Y-131015874D01*
X60979000Y-130604126D01*
X60960000Y-130558256D01*
X60960000Y-125473744D01*
X60979000Y-125427874D01*
X60979000Y-125016126D01*
X60960000Y-124970256D01*
X60960000Y-122984126D01*
X87103000Y-122984126D01*
X87103000Y-123395874D01*
X87260569Y-123776280D01*
X87551720Y-124067431D01*
X87932126Y-124225000D01*
X88119000Y-124225000D01*
X88119000Y-124411874D01*
X88276569Y-124792280D01*
X88567720Y-125083431D01*
X88948126Y-125241000D01*
X89135000Y-125241000D01*
X89135000Y-125427874D01*
X89292569Y-125808280D01*
X89583720Y-126099431D01*
X89964126Y-126257000D01*
X90151000Y-126257000D01*
X90151000Y-126443874D01*
X90308569Y-126824280D01*
X90599720Y-127115431D01*
X90980126Y-127273000D01*
X91167000Y-127273000D01*
X91167000Y-127459874D01*
X91324569Y-127840280D01*
X91615720Y-128131431D01*
X91996126Y-128289000D01*
X92183000Y-128289000D01*
X92183000Y-128475874D01*
X92340569Y-128856280D01*
X92631720Y-129147431D01*
X93012126Y-129305000D01*
X93199000Y-129305000D01*
X93199000Y-129491874D01*
X93356569Y-129872280D01*
X93647720Y-130163431D01*
X94028126Y-130321000D01*
X94215000Y-130321000D01*
X94215000Y-130507874D01*
X94372569Y-130888280D01*
X94663720Y-131179431D01*
X95044126Y-131337000D01*
X95455874Y-131337000D01*
X95836280Y-131179431D01*
X95888211Y-131127500D01*
X100496068Y-131127500D01*
X105276793Y-135908226D01*
X105322848Y-135977152D01*
X105595906Y-136159604D01*
X105836697Y-136207500D01*
X105836698Y-136207500D01*
X105918000Y-136223672D01*
X105999301Y-136207500D01*
X114940447Y-136207500D01*
X114946569Y-136222280D01*
X115237720Y-136513431D01*
X115618126Y-136671000D01*
X116029874Y-136671000D01*
X116410280Y-136513431D01*
X116701431Y-136222280D01*
X116859000Y-135841874D01*
X116859000Y-135445500D01*
X117480447Y-135445500D01*
X117486569Y-135460280D01*
X117777720Y-135751431D01*
X118158126Y-135909000D01*
X118569874Y-135909000D01*
X118950280Y-135751431D01*
X119241431Y-135460280D01*
X119399000Y-135079874D01*
X119399000Y-134683500D01*
X120020447Y-134683500D01*
X120026569Y-134698280D01*
X120317720Y-134989431D01*
X120698126Y-135147000D01*
X121109874Y-135147000D01*
X121490280Y-134989431D01*
X121781431Y-134698280D01*
X121939000Y-134317874D01*
X121939000Y-133921500D01*
X122560447Y-133921500D01*
X122566569Y-133936280D01*
X122857720Y-134227431D01*
X123238126Y-134385000D01*
X123649874Y-134385000D01*
X124030280Y-134227431D01*
X124321431Y-133936280D01*
X124479000Y-133555874D01*
X124479000Y-133159500D01*
X125100447Y-133159500D01*
X125106569Y-133174280D01*
X125397720Y-133465431D01*
X125778126Y-133623000D01*
X126189874Y-133623000D01*
X126570280Y-133465431D01*
X126861431Y-133174280D01*
X127019000Y-132793874D01*
X127019000Y-132397500D01*
X127640447Y-132397500D01*
X127646569Y-132412280D01*
X127937720Y-132703431D01*
X128318126Y-132861000D01*
X128729874Y-132861000D01*
X129110280Y-132703431D01*
X129401431Y-132412280D01*
X129559000Y-132031874D01*
X129559000Y-131635500D01*
X130180447Y-131635500D01*
X130186569Y-131650280D01*
X130477720Y-131941431D01*
X130858126Y-132099000D01*
X131269874Y-132099000D01*
X131650280Y-131941431D01*
X131941431Y-131650280D01*
X131989730Y-131533675D01*
X132128126Y-131591000D01*
X132539874Y-131591000D01*
X132920280Y-131433431D01*
X133211431Y-131142280D01*
X133369000Y-130761874D01*
X133369000Y-130350126D01*
X133211431Y-129969720D01*
X132920280Y-129678569D01*
X132539874Y-129521000D01*
X132466690Y-129521000D01*
X132421152Y-129452848D01*
X132148094Y-129270396D01*
X131907303Y-129222500D01*
X131907301Y-129222500D01*
X131826000Y-129206328D01*
X131744699Y-129222500D01*
X108037933Y-129222500D01*
X101987208Y-123171776D01*
X101987206Y-123171773D01*
X101479209Y-122663776D01*
X101433152Y-122594848D01*
X101160094Y-122412396D01*
X100919303Y-122364500D01*
X100919301Y-122364500D01*
X100838000Y-122348328D01*
X100756699Y-122364500D01*
X88776211Y-122364500D01*
X88724280Y-122312569D01*
X88343874Y-122155000D01*
X87932126Y-122155000D01*
X87551720Y-122312569D01*
X87260569Y-122603720D01*
X87103000Y-122984126D01*
X60960000Y-122984126D01*
X60960000Y-119885744D01*
X60979000Y-119839874D01*
X60979000Y-119428126D01*
X60960000Y-119382256D01*
X60960000Y-114297744D01*
X60979000Y-114251874D01*
X60979000Y-113840126D01*
X60960000Y-113794256D01*
X60960000Y-108709744D01*
X60979000Y-108663874D01*
X60979000Y-108252126D01*
X60960000Y-108206256D01*
X60960000Y-101851744D01*
X60979000Y-101805874D01*
X60979000Y-101394126D01*
X60960000Y-101348256D01*
X60960000Y-96263744D01*
X60979000Y-96217874D01*
X60979000Y-95806126D01*
X60960000Y-95760256D01*
X60960000Y-90675744D01*
X60979000Y-90629874D01*
X60979000Y-90218126D01*
X60960000Y-90172256D01*
X60960000Y-85087744D01*
X60979000Y-85041874D01*
X60979000Y-84630126D01*
X60960000Y-84584256D01*
X60960000Y-79499744D01*
X60979000Y-79453874D01*
X60979000Y-79042126D01*
X60960000Y-78996256D01*
X60960000Y-74978126D01*
X69831000Y-74978126D01*
X69831000Y-75389874D01*
X69988569Y-75770280D01*
X70279720Y-76061431D01*
X70660126Y-76219000D01*
X71071874Y-76219000D01*
X71452280Y-76061431D01*
X71504211Y-76009500D01*
X83177843Y-76009500D01*
X83536663Y-76368320D01*
X83743513Y-76454000D01*
X83536663Y-76539680D01*
X83177843Y-76898500D01*
X71504211Y-76898500D01*
X71452280Y-76846569D01*
X71071874Y-76689000D01*
X70660126Y-76689000D01*
X70279720Y-76846569D01*
X69988569Y-77137720D01*
X69831000Y-77518126D01*
X69831000Y-77929874D01*
X69988569Y-78310280D01*
X70279720Y-78601431D01*
X70660126Y-78759000D01*
X71071874Y-78759000D01*
X71452280Y-78601431D01*
X71504211Y-78549500D01*
X83177843Y-78549500D01*
X83536663Y-78908320D01*
X83743513Y-78994000D01*
X83536663Y-79079680D01*
X83177843Y-79438500D01*
X71504211Y-79438500D01*
X71452280Y-79386569D01*
X71071874Y-79229000D01*
X70660126Y-79229000D01*
X70279720Y-79386569D01*
X69988569Y-79677720D01*
X69831000Y-80058126D01*
X69831000Y-80469874D01*
X69988569Y-80850280D01*
X70279720Y-81141431D01*
X70660126Y-81299000D01*
X71071874Y-81299000D01*
X71452280Y-81141431D01*
X71504211Y-81089500D01*
X83177843Y-81089500D01*
X83536663Y-81448320D01*
X83743513Y-81534000D01*
X83536663Y-81619680D01*
X83177843Y-81978500D01*
X71504211Y-81978500D01*
X71452280Y-81926569D01*
X71071874Y-81769000D01*
X70660126Y-81769000D01*
X70279720Y-81926569D01*
X69988569Y-82217720D01*
X69831000Y-82598126D01*
X69831000Y-83009874D01*
X69988569Y-83390280D01*
X70279720Y-83681431D01*
X70660126Y-83839000D01*
X71071874Y-83839000D01*
X71452280Y-83681431D01*
X71504211Y-83629500D01*
X83177843Y-83629500D01*
X83536663Y-83988320D01*
X83743513Y-84074000D01*
X83536663Y-84159680D01*
X83177843Y-84518500D01*
X71504211Y-84518500D01*
X71452280Y-84466569D01*
X71071874Y-84309000D01*
X70660126Y-84309000D01*
X70279720Y-84466569D01*
X69988569Y-84757720D01*
X69831000Y-85138126D01*
X69831000Y-85549874D01*
X69988569Y-85930280D01*
X70279720Y-86221431D01*
X70660126Y-86379000D01*
X71071874Y-86379000D01*
X71452280Y-86221431D01*
X71504211Y-86169500D01*
X83177843Y-86169500D01*
X83536663Y-86528320D01*
X83743513Y-86614000D01*
X83536663Y-86699680D01*
X83177843Y-87058500D01*
X71504211Y-87058500D01*
X71452280Y-87006569D01*
X71071874Y-86849000D01*
X70660126Y-86849000D01*
X70279720Y-87006569D01*
X69988569Y-87297720D01*
X69831000Y-87678126D01*
X69831000Y-88089874D01*
X69988569Y-88470280D01*
X70279720Y-88761431D01*
X70660126Y-88919000D01*
X71071874Y-88919000D01*
X71452280Y-88761431D01*
X71504211Y-88709500D01*
X83177843Y-88709500D01*
X83536663Y-89068320D01*
X83743513Y-89154000D01*
X83536663Y-89239680D01*
X83177843Y-89598500D01*
X71504211Y-89598500D01*
X71452280Y-89546569D01*
X71071874Y-89389000D01*
X70660126Y-89389000D01*
X70279720Y-89546569D01*
X69988569Y-89837720D01*
X69831000Y-90218126D01*
X69831000Y-90629874D01*
X69988569Y-91010280D01*
X70279720Y-91301431D01*
X70660126Y-91459000D01*
X71071874Y-91459000D01*
X71452280Y-91301431D01*
X71504211Y-91249500D01*
X83177843Y-91249500D01*
X83536663Y-91608320D01*
X83743513Y-91694000D01*
X83536663Y-91779680D01*
X83177843Y-92138500D01*
X71504211Y-92138500D01*
X71452280Y-92086569D01*
X71071874Y-91929000D01*
X70660126Y-91929000D01*
X70279720Y-92086569D01*
X69988569Y-92377720D01*
X69831000Y-92758126D01*
X69831000Y-93169874D01*
X69988569Y-93550280D01*
X70279720Y-93841431D01*
X70660126Y-93999000D01*
X71071874Y-93999000D01*
X71452280Y-93841431D01*
X71504211Y-93789500D01*
X76943000Y-93789500D01*
X76943000Y-94185874D01*
X77100569Y-94566280D01*
X77152500Y-94618211D01*
X77152500Y-94660698D01*
X77152501Y-107311788D01*
X77100569Y-107363720D01*
X76943000Y-107744126D01*
X76943000Y-108155874D01*
X77100569Y-108536280D01*
X77391720Y-108827431D01*
X77772126Y-108985000D01*
X78183874Y-108985000D01*
X78564280Y-108827431D01*
X78855431Y-108536280D01*
X79013000Y-108155874D01*
X79013000Y-107744126D01*
X78855431Y-107363720D01*
X78803500Y-107311789D01*
X78803500Y-97766119D01*
X82931000Y-97766119D01*
X82931000Y-98321881D01*
X83143680Y-98835337D01*
X83536663Y-99228320D01*
X83743513Y-99314000D01*
X83536663Y-99399680D01*
X83143680Y-99792663D01*
X82931000Y-100306119D01*
X82931000Y-100861881D01*
X83143680Y-101375337D01*
X83536663Y-101768320D01*
X83743513Y-101854000D01*
X83536663Y-101939680D01*
X83143680Y-102332663D01*
X82931000Y-102846119D01*
X82931000Y-103401881D01*
X83143680Y-103915337D01*
X83536663Y-104308320D01*
X83743513Y-104394000D01*
X83536663Y-104479680D01*
X83143680Y-104872663D01*
X82931000Y-105386119D01*
X82931000Y-105941881D01*
X83143680Y-106455337D01*
X83536663Y-106848320D01*
X83743513Y-106934000D01*
X83536663Y-107019680D01*
X83143680Y-107412663D01*
X82931000Y-107926119D01*
X82931000Y-108481881D01*
X83143680Y-108995337D01*
X83536663Y-109388320D01*
X83743513Y-109474000D01*
X83536663Y-109559680D01*
X83143680Y-109952663D01*
X82931000Y-110466119D01*
X82931000Y-111021881D01*
X83143680Y-111535337D01*
X83536663Y-111928320D01*
X83743513Y-112014000D01*
X83536663Y-112099680D01*
X83143680Y-112492663D01*
X82931000Y-113006119D01*
X82931000Y-113561881D01*
X83143680Y-114075337D01*
X83536663Y-114468320D01*
X83743513Y-114554000D01*
X83536663Y-114639680D01*
X83143680Y-115032663D01*
X82931000Y-115546119D01*
X82931000Y-116101881D01*
X83143680Y-116615337D01*
X83536663Y-117008320D01*
X84050119Y-117221000D01*
X84605881Y-117221000D01*
X85119337Y-117008320D01*
X85512320Y-116615337D01*
X85598000Y-116408487D01*
X85683680Y-116615337D01*
X86076663Y-117008320D01*
X86590119Y-117221000D01*
X87145881Y-117221000D01*
X87659337Y-117008320D01*
X88018157Y-116649500D01*
X132457789Y-116649500D01*
X132509720Y-116701431D01*
X132890126Y-116859000D01*
X133301874Y-116859000D01*
X133682280Y-116701431D01*
X133973431Y-116410280D01*
X134131000Y-116029874D01*
X134131000Y-115618126D01*
X133973431Y-115237720D01*
X133682280Y-114946569D01*
X133301874Y-114789000D01*
X132890126Y-114789000D01*
X132509720Y-114946569D01*
X132457789Y-114998500D01*
X88018157Y-114998500D01*
X87659337Y-114639680D01*
X87452487Y-114554000D01*
X87659337Y-114468320D01*
X88018157Y-114109500D01*
X129917789Y-114109500D01*
X129969720Y-114161431D01*
X130350126Y-114319000D01*
X130761874Y-114319000D01*
X131142280Y-114161431D01*
X131433431Y-113870280D01*
X131591000Y-113489874D01*
X131591000Y-113078126D01*
X131433431Y-112697720D01*
X131142280Y-112406569D01*
X130761874Y-112249000D01*
X130350126Y-112249000D01*
X129969720Y-112406569D01*
X129917789Y-112458500D01*
X88018157Y-112458500D01*
X87659337Y-112099680D01*
X87452487Y-112014000D01*
X87659337Y-111928320D01*
X88018157Y-111569500D01*
X127377789Y-111569500D01*
X127429720Y-111621431D01*
X127810126Y-111779000D01*
X128221874Y-111779000D01*
X128602280Y-111621431D01*
X128893431Y-111330280D01*
X129051000Y-110949874D01*
X129051000Y-110538126D01*
X128893431Y-110157720D01*
X128602280Y-109866569D01*
X128221874Y-109709000D01*
X127810126Y-109709000D01*
X127429720Y-109866569D01*
X127377789Y-109918500D01*
X88018157Y-109918500D01*
X87659337Y-109559680D01*
X87452487Y-109474000D01*
X87659337Y-109388320D01*
X88018157Y-109029500D01*
X124837789Y-109029500D01*
X124889720Y-109081431D01*
X125270126Y-109239000D01*
X125681874Y-109239000D01*
X126062280Y-109081431D01*
X126353431Y-108790280D01*
X126511000Y-108409874D01*
X126511000Y-107998126D01*
X126353431Y-107617720D01*
X126062280Y-107326569D01*
X125681874Y-107169000D01*
X125270126Y-107169000D01*
X124889720Y-107326569D01*
X124837789Y-107378500D01*
X88018157Y-107378500D01*
X87659337Y-107019680D01*
X87452487Y-106934000D01*
X87659337Y-106848320D01*
X88018157Y-106489500D01*
X122297789Y-106489500D01*
X122349720Y-106541431D01*
X122730126Y-106699000D01*
X123141874Y-106699000D01*
X123522280Y-106541431D01*
X123813431Y-106250280D01*
X123971000Y-105869874D01*
X123971000Y-105458126D01*
X123813431Y-105077720D01*
X123522280Y-104786569D01*
X123141874Y-104629000D01*
X122730126Y-104629000D01*
X122349720Y-104786569D01*
X122297789Y-104838500D01*
X88018157Y-104838500D01*
X87659337Y-104479680D01*
X87452487Y-104394000D01*
X87659337Y-104308320D01*
X88018157Y-103949500D01*
X119757789Y-103949500D01*
X119809720Y-104001431D01*
X120190126Y-104159000D01*
X120601874Y-104159000D01*
X120982280Y-104001431D01*
X121273431Y-103710280D01*
X121431000Y-103329874D01*
X121431000Y-102918126D01*
X121273431Y-102537720D01*
X120982280Y-102246569D01*
X120601874Y-102089000D01*
X120190126Y-102089000D01*
X119809720Y-102246569D01*
X119757789Y-102298500D01*
X88018157Y-102298500D01*
X87659337Y-101939680D01*
X87452487Y-101854000D01*
X87659337Y-101768320D01*
X88018157Y-101409500D01*
X117217789Y-101409500D01*
X117269720Y-101461431D01*
X117650126Y-101619000D01*
X118061874Y-101619000D01*
X118442280Y-101461431D01*
X118733431Y-101170280D01*
X118891000Y-100789874D01*
X118891000Y-100378126D01*
X118733431Y-99997720D01*
X118442280Y-99706569D01*
X118061874Y-99549000D01*
X117650126Y-99549000D01*
X117269720Y-99706569D01*
X117217789Y-99758500D01*
X88018157Y-99758500D01*
X87659337Y-99399680D01*
X87452487Y-99314000D01*
X87659337Y-99228320D01*
X88018157Y-98869500D01*
X114677789Y-98869500D01*
X114729720Y-98921431D01*
X115110126Y-99079000D01*
X115521874Y-99079000D01*
X115902280Y-98921431D01*
X116193431Y-98630280D01*
X116351000Y-98249874D01*
X116351000Y-97838126D01*
X116193431Y-97457720D01*
X115902280Y-97166569D01*
X115521874Y-97009000D01*
X115110126Y-97009000D01*
X114729720Y-97166569D01*
X114677789Y-97218500D01*
X88018157Y-97218500D01*
X87659337Y-96859680D01*
X87145881Y-96647000D01*
X86590119Y-96647000D01*
X86076663Y-96859680D01*
X85683680Y-97252663D01*
X85598000Y-97459513D01*
X85512320Y-97252663D01*
X85119337Y-96859680D01*
X84605881Y-96647000D01*
X84050119Y-96647000D01*
X83536663Y-96859680D01*
X83143680Y-97252663D01*
X82931000Y-97766119D01*
X78803500Y-97766119D01*
X78803500Y-94618211D01*
X78855431Y-94566280D01*
X79013000Y-94185874D01*
X79013000Y-93789500D01*
X83177843Y-93789500D01*
X83536663Y-94148320D01*
X84050119Y-94361000D01*
X84605881Y-94361000D01*
X85119337Y-94148320D01*
X85512320Y-93755337D01*
X85598000Y-93548487D01*
X85683680Y-93755337D01*
X86076663Y-94148320D01*
X86590119Y-94361000D01*
X87145881Y-94361000D01*
X87659337Y-94148320D01*
X88052320Y-93755337D01*
X88265000Y-93241881D01*
X88265000Y-92686119D01*
X88052320Y-92172663D01*
X87659337Y-91779680D01*
X87452487Y-91694000D01*
X87659337Y-91608320D01*
X88052320Y-91215337D01*
X88265000Y-90701881D01*
X88265000Y-90146119D01*
X88052320Y-89632663D01*
X87659337Y-89239680D01*
X87452487Y-89154000D01*
X87659337Y-89068320D01*
X88052320Y-88675337D01*
X88265000Y-88161881D01*
X88265000Y-87606119D01*
X88052320Y-87092663D01*
X87659337Y-86699680D01*
X87452487Y-86614000D01*
X87659337Y-86528320D01*
X88052320Y-86135337D01*
X88265000Y-85621881D01*
X88265000Y-85066119D01*
X88052320Y-84552663D01*
X87659337Y-84159680D01*
X87452487Y-84074000D01*
X87659337Y-83988320D01*
X88052320Y-83595337D01*
X88265000Y-83081881D01*
X88265000Y-82526119D01*
X88052320Y-82012663D01*
X87659337Y-81619680D01*
X87452487Y-81534000D01*
X87659337Y-81448320D01*
X88052320Y-81055337D01*
X88265000Y-80541881D01*
X88265000Y-79986119D01*
X88052320Y-79472663D01*
X87659337Y-79079680D01*
X87452487Y-78994000D01*
X87659337Y-78908320D01*
X88052320Y-78515337D01*
X88265000Y-78001881D01*
X88265000Y-77446119D01*
X88052320Y-76932663D01*
X87659337Y-76539680D01*
X87452487Y-76454000D01*
X87659337Y-76368320D01*
X88052320Y-75975337D01*
X88265000Y-75461881D01*
X88265000Y-74906119D01*
X88052320Y-74392663D01*
X87659337Y-73999680D01*
X87145881Y-73787000D01*
X86590119Y-73787000D01*
X86076663Y-73999680D01*
X85683680Y-74392663D01*
X85598000Y-74599513D01*
X85512320Y-74392663D01*
X85119337Y-73999680D01*
X84605881Y-73787000D01*
X84050119Y-73787000D01*
X83536663Y-73999680D01*
X83177843Y-74358500D01*
X71504211Y-74358500D01*
X71452280Y-74306569D01*
X71071874Y-74149000D01*
X70660126Y-74149000D01*
X70279720Y-74306569D01*
X69988569Y-74597720D01*
X69831000Y-74978126D01*
X60960000Y-74978126D01*
X60960000Y-73911744D01*
X60979000Y-73865874D01*
X60979000Y-73454126D01*
X60960000Y-73408256D01*
X60960000Y-68948000D01*
X75081972Y-68948000D01*
X74880874Y-69248964D01*
X74715173Y-70082000D01*
X74880874Y-70915036D01*
X75352751Y-71621249D01*
X76058964Y-72093126D01*
X76681721Y-72217000D01*
X78102279Y-72217000D01*
X78725036Y-72093126D01*
X79431249Y-71621249D01*
X79903126Y-70915036D01*
X80068827Y-70082000D01*
X79903126Y-69248964D01*
X79702028Y-68948000D01*
X87307893Y-68948000D01*
X87550815Y-69190922D01*
X88096615Y-69417000D01*
X88687385Y-69417000D01*
X89233185Y-69190922D01*
X89476107Y-68948000D01*
X103124000Y-68948000D01*
X103124001Y-72035932D01*
X103104096Y-72136000D01*
X103164193Y-72438126D01*
X103182950Y-72532423D01*
X103407506Y-72868495D01*
X103492338Y-72925178D01*
X105791000Y-75223841D01*
X105791000Y-75461881D01*
X106003680Y-75975337D01*
X106396663Y-76368320D01*
X106603513Y-76454000D01*
X106396663Y-76539680D01*
X106003680Y-76932663D01*
X105791000Y-77446119D01*
X105791000Y-78001881D01*
X106003680Y-78515337D01*
X106396663Y-78908320D01*
X106910119Y-79121000D01*
X107465881Y-79121000D01*
X107979337Y-78908320D01*
X108372320Y-78515337D01*
X108458000Y-78308487D01*
X108543680Y-78515337D01*
X108936663Y-78908320D01*
X109450119Y-79121000D01*
X110005881Y-79121000D01*
X110519337Y-78908320D01*
X110912320Y-78515337D01*
X111125000Y-78001881D01*
X111125000Y-77446119D01*
X110912320Y-76932663D01*
X110519337Y-76539680D01*
X110005881Y-76327000D01*
X109450119Y-76327000D01*
X108936663Y-76539680D01*
X108543680Y-76932663D01*
X108458000Y-77139513D01*
X108372320Y-76932663D01*
X107979337Y-76539680D01*
X107772487Y-76454000D01*
X107979337Y-76368320D01*
X108372320Y-75975337D01*
X108585000Y-75461881D01*
X108585000Y-74906119D01*
X108372320Y-74392663D01*
X107979337Y-73999680D01*
X107465881Y-73787000D01*
X107227841Y-73787000D01*
X105156000Y-71715160D01*
X105156000Y-68172063D01*
X105175904Y-68072000D01*
X105156000Y-67971935D01*
X105156000Y-58928000D01*
X109730256Y-58928000D01*
X109776126Y-58947000D01*
X110187874Y-58947000D01*
X110233744Y-58928000D01*
X113371160Y-58928000D01*
X117208336Y-62765177D01*
X117208339Y-62765179D01*
X117649821Y-63206661D01*
X117706506Y-63291496D01*
X118042578Y-63516052D01*
X118338936Y-63575001D01*
X118338937Y-63575001D01*
X118439001Y-63594905D01*
X118539064Y-63575001D01*
X123952001Y-63575001D01*
X123952000Y-74224343D01*
X123783680Y-74392663D01*
X123571000Y-74906119D01*
X123571000Y-75461881D01*
X123783680Y-75975337D01*
X123952001Y-76143658D01*
X123952000Y-76764343D01*
X123783680Y-76932663D01*
X123571000Y-77446119D01*
X123571000Y-78001881D01*
X123783680Y-78515337D01*
X124176663Y-78908320D01*
X124690119Y-79121000D01*
X125245881Y-79121000D01*
X125759337Y-78908320D01*
X126152320Y-78515337D01*
X126365000Y-78001881D01*
X126365000Y-77446119D01*
X126152320Y-76932663D01*
X125984000Y-76764343D01*
X125984000Y-76143657D01*
X126152320Y-75975337D01*
X126365000Y-75461881D01*
X126365000Y-74906119D01*
X138811000Y-74906119D01*
X138811000Y-75461881D01*
X139023680Y-75975337D01*
X139416663Y-76368320D01*
X139623513Y-76454000D01*
X139416663Y-76539680D01*
X139023680Y-76932663D01*
X138811000Y-77446119D01*
X138811000Y-78001881D01*
X139023680Y-78515337D01*
X139416663Y-78908320D01*
X139623513Y-78994000D01*
X139416663Y-79079680D01*
X139023680Y-79472663D01*
X138811000Y-79986119D01*
X138811000Y-80541881D01*
X139023680Y-81055337D01*
X139416663Y-81448320D01*
X139623513Y-81534000D01*
X139416663Y-81619680D01*
X139023680Y-82012663D01*
X138811000Y-82526119D01*
X138811000Y-83081881D01*
X139023680Y-83595337D01*
X139416663Y-83988320D01*
X139623513Y-84074000D01*
X139416663Y-84159680D01*
X139023680Y-84552663D01*
X138811000Y-85066119D01*
X138811000Y-85621881D01*
X139023680Y-86135337D01*
X139416663Y-86528320D01*
X139623513Y-86614000D01*
X139416663Y-86699680D01*
X139023680Y-87092663D01*
X138811000Y-87606119D01*
X138811000Y-88161881D01*
X139023680Y-88675337D01*
X139416663Y-89068320D01*
X139623513Y-89154000D01*
X139416663Y-89239680D01*
X139023680Y-89632663D01*
X138811000Y-90146119D01*
X138811000Y-90701881D01*
X139023680Y-91215337D01*
X139416663Y-91608320D01*
X139623513Y-91694000D01*
X139416663Y-91779680D01*
X139023680Y-92172663D01*
X138811000Y-92686119D01*
X138811000Y-93241881D01*
X139023680Y-93755337D01*
X139416663Y-94148320D01*
X139930119Y-94361000D01*
X140485881Y-94361000D01*
X140999337Y-94148320D01*
X141392320Y-93755337D01*
X141478000Y-93548487D01*
X141563680Y-93755337D01*
X141956663Y-94148320D01*
X142470119Y-94361000D01*
X143025881Y-94361000D01*
X143539337Y-94148320D01*
X143932320Y-93755337D01*
X144145000Y-93241881D01*
X144145000Y-92686119D01*
X144075984Y-92519500D01*
X159170068Y-92519500D01*
X159194501Y-92543933D01*
X159194500Y-102808698D01*
X159178328Y-102890000D01*
X159194500Y-102971301D01*
X159194500Y-102971302D01*
X159242396Y-103212093D01*
X159424848Y-103485152D01*
X159493777Y-103531209D01*
X162243000Y-106280433D01*
X162243000Y-106353874D01*
X162400569Y-106734280D01*
X162691720Y-107025431D01*
X163072126Y-107183000D01*
X163483874Y-107183000D01*
X163864280Y-107025431D01*
X164155431Y-106734280D01*
X164313000Y-106353874D01*
X164313000Y-105942126D01*
X164155431Y-105561720D01*
X163864280Y-105270569D01*
X163483874Y-105113000D01*
X163410433Y-105113000D01*
X160845500Y-102548068D01*
X160845500Y-99294932D01*
X162243000Y-100692433D01*
X162243000Y-100765874D01*
X162400569Y-101146280D01*
X162691720Y-101437431D01*
X163072126Y-101595000D01*
X163483874Y-101595000D01*
X163864280Y-101437431D01*
X164155431Y-101146280D01*
X164313000Y-100765874D01*
X164313000Y-100354126D01*
X164155431Y-99973720D01*
X163864280Y-99682569D01*
X163483874Y-99525000D01*
X163410433Y-99525000D01*
X161607500Y-97722068D01*
X161607500Y-94468932D01*
X162243000Y-95104433D01*
X162243000Y-95177874D01*
X162400569Y-95558280D01*
X162691720Y-95849431D01*
X163072126Y-96007000D01*
X163483874Y-96007000D01*
X163864280Y-95849431D01*
X164155431Y-95558280D01*
X164313000Y-95177874D01*
X164313000Y-94766126D01*
X164155431Y-94385720D01*
X163864280Y-94094569D01*
X163483874Y-93937000D01*
X163410433Y-93937000D01*
X162369500Y-92896068D01*
X162369500Y-89895273D01*
X162400569Y-89970280D01*
X162691720Y-90261431D01*
X163072126Y-90419000D01*
X163483874Y-90419000D01*
X163864280Y-90261431D01*
X164155431Y-89970280D01*
X164313000Y-89589874D01*
X164313000Y-89178126D01*
X164155431Y-88797720D01*
X163864280Y-88506569D01*
X163483874Y-88349000D01*
X163410433Y-88349000D01*
X163131500Y-88070068D01*
X163131500Y-84831000D01*
X163483874Y-84831000D01*
X163864280Y-84673431D01*
X164155431Y-84382280D01*
X164313000Y-84001874D01*
X164313000Y-83590126D01*
X164155431Y-83209720D01*
X163864280Y-82918569D01*
X163483874Y-82761000D01*
X163410433Y-82761000D01*
X163131500Y-82482068D01*
X163131500Y-82123297D01*
X163147671Y-82041999D01*
X163131500Y-81960701D01*
X163131500Y-81960697D01*
X163083604Y-81719906D01*
X162901152Y-81446848D01*
X162832226Y-81400793D01*
X162439209Y-81007776D01*
X162393152Y-80938848D01*
X162120094Y-80756396D01*
X161879303Y-80708500D01*
X161879301Y-80708500D01*
X161798000Y-80692328D01*
X161716699Y-80708500D01*
X144075984Y-80708500D01*
X144145000Y-80541881D01*
X144145000Y-79986119D01*
X144075984Y-79819500D01*
X162224699Y-79819500D01*
X162306000Y-79835672D01*
X162387301Y-79819500D01*
X162387303Y-79819500D01*
X162628094Y-79771604D01*
X162901152Y-79589152D01*
X162947209Y-79520223D01*
X163200432Y-79267000D01*
X163273874Y-79267000D01*
X163654280Y-79109431D01*
X163945431Y-78818280D01*
X164103000Y-78437874D01*
X164103000Y-78026126D01*
X163945431Y-77645720D01*
X163654280Y-77354569D01*
X163273874Y-77197000D01*
X162862126Y-77197000D01*
X162481720Y-77354569D01*
X162190569Y-77645720D01*
X162033000Y-78026126D01*
X162033000Y-78099568D01*
X161964068Y-78168500D01*
X144075984Y-78168500D01*
X144145000Y-78001881D01*
X144145000Y-77446119D01*
X144075984Y-77279500D01*
X161716699Y-77279500D01*
X161798000Y-77295672D01*
X161879301Y-77279500D01*
X161879303Y-77279500D01*
X162120094Y-77231604D01*
X162393152Y-77049152D01*
X162439209Y-76980224D01*
X162832225Y-76587207D01*
X162901152Y-76541152D01*
X163083604Y-76268094D01*
X163131500Y-76027303D01*
X163131500Y-76027299D01*
X163147671Y-75946001D01*
X163131500Y-75864703D01*
X163131500Y-73747932D01*
X163200432Y-73679000D01*
X163273874Y-73679000D01*
X163654280Y-73521431D01*
X163945431Y-73230280D01*
X164103000Y-72849874D01*
X164103000Y-72438126D01*
X163945431Y-72057720D01*
X163654280Y-71766569D01*
X163273874Y-71609000D01*
X162862126Y-71609000D01*
X162481720Y-71766569D01*
X162190569Y-72057720D01*
X162033000Y-72438126D01*
X162033000Y-72511568D01*
X161779777Y-72764791D01*
X161710848Y-72810848D01*
X161528396Y-73083907D01*
X161499281Y-73230280D01*
X161464328Y-73406000D01*
X161480500Y-73487302D01*
X161480501Y-75604067D01*
X161456068Y-75628500D01*
X144075984Y-75628500D01*
X144145000Y-75461881D01*
X144145000Y-74906119D01*
X143932320Y-74392663D01*
X143539337Y-73999680D01*
X143025881Y-73787000D01*
X142470119Y-73787000D01*
X141956663Y-73999680D01*
X141563680Y-74392663D01*
X141478000Y-74599513D01*
X141392320Y-74392663D01*
X140999337Y-73999680D01*
X140485881Y-73787000D01*
X139930119Y-73787000D01*
X139416663Y-73999680D01*
X139023680Y-74392663D01*
X138811000Y-74906119D01*
X126365000Y-74906119D01*
X126152320Y-74392663D01*
X125984000Y-74224343D01*
X125984000Y-63575001D01*
X151477342Y-63575001D01*
X151645662Y-63743321D01*
X152159118Y-63956001D01*
X152714880Y-63956001D01*
X153228336Y-63743321D01*
X153621319Y-63350338D01*
X153833999Y-62836882D01*
X153833999Y-62281120D01*
X153621319Y-61767664D01*
X153228336Y-61374681D01*
X152714880Y-61162001D01*
X152159118Y-61162001D01*
X151645662Y-61374681D01*
X151477342Y-61543001D01*
X125068065Y-61543001D01*
X124968000Y-61523097D01*
X124867936Y-61543001D01*
X118859841Y-61543001D01*
X118645179Y-61328339D01*
X118645177Y-61328336D01*
X114581180Y-57264340D01*
X114538938Y-57201120D01*
X151039999Y-57201120D01*
X151039999Y-57756882D01*
X151252679Y-58270338D01*
X151645662Y-58663321D01*
X152159118Y-58876001D01*
X152714880Y-58876001D01*
X153228336Y-58663321D01*
X153621319Y-58270338D01*
X153833999Y-57756882D01*
X153833999Y-57201120D01*
X153621319Y-56687664D01*
X153228336Y-56294681D01*
X152714880Y-56082001D01*
X152159118Y-56082001D01*
X151645662Y-56294681D01*
X151252679Y-56687664D01*
X151039999Y-57201120D01*
X114538938Y-57201120D01*
X114524495Y-57179505D01*
X114188423Y-56954949D01*
X113892065Y-56896000D01*
X113892063Y-56896000D01*
X113792000Y-56876096D01*
X113691937Y-56896000D01*
X110233744Y-56896000D01*
X110187874Y-56877000D01*
X109776126Y-56877000D01*
X109730256Y-56896000D01*
X104391744Y-56896000D01*
X104345874Y-56877000D01*
X104144545Y-56877000D01*
X104140000Y-56876096D01*
X104135455Y-56877000D01*
X103934126Y-56877000D01*
X103748123Y-56954045D01*
X103743577Y-56954949D01*
X103739723Y-56957524D01*
X103553720Y-57034569D01*
X103411359Y-57176930D01*
X103407505Y-57179505D01*
X103404930Y-57183359D01*
X103262569Y-57325720D01*
X103185524Y-57511723D01*
X103182949Y-57515577D01*
X103182045Y-57520123D01*
X103105000Y-57706126D01*
X103105000Y-57907455D01*
X103104096Y-57912000D01*
X103105000Y-57916545D01*
X103105000Y-58117874D01*
X103124000Y-58163744D01*
X103124001Y-66916000D01*
X89476107Y-66916000D01*
X89292107Y-66732000D01*
X89650922Y-66373185D01*
X89877000Y-65827385D01*
X89877000Y-65236615D01*
X89650922Y-64690815D01*
X89233185Y-64273078D01*
X88687385Y-64047000D01*
X88096615Y-64047000D01*
X87550815Y-64273078D01*
X87133078Y-64690815D01*
X86907000Y-65236615D01*
X86907000Y-65827385D01*
X87133078Y-66373185D01*
X87491893Y-66732000D01*
X87307893Y-66916000D01*
X60960000Y-66916000D01*
X60960000Y-62735744D01*
X60979000Y-62689874D01*
X60979000Y-62278126D01*
X60901955Y-62092123D01*
X60901051Y-62087577D01*
X60898476Y-62083723D01*
X60821431Y-61897720D01*
X60679070Y-61755359D01*
X60676495Y-61751505D01*
X60672641Y-61748930D01*
X60530280Y-61606569D01*
X60344277Y-61529524D01*
X60340423Y-61526949D01*
X60335877Y-61526045D01*
X60149874Y-61449000D01*
X59948545Y-61449000D01*
X59944000Y-61448096D01*
X59939455Y-61449000D01*
X59738126Y-61449000D01*
X59552122Y-61526045D01*
X59547578Y-61526949D01*
X59543725Y-61529523D01*
X59357720Y-61606569D01*
X59215357Y-61748932D01*
X59211506Y-61751505D01*
X59208933Y-61755356D01*
X59066569Y-61897720D01*
X58989523Y-62083727D01*
X58986950Y-62087577D01*
X58986047Y-62092119D01*
X58909000Y-62278126D01*
X58909000Y-62689874D01*
X58928001Y-62735747D01*
X58928001Y-67820254D01*
X58909000Y-67866126D01*
X58909000Y-68067455D01*
X58908096Y-68072000D01*
X47700000Y-68072000D01*
X47700000Y-58482000D01*
X74715173Y-58482000D01*
X74880874Y-59315036D01*
X75352751Y-60021249D01*
X76058964Y-60493126D01*
X76681721Y-60617000D01*
X78102279Y-60617000D01*
X78725036Y-60493126D01*
X78959270Y-60336615D01*
X86907000Y-60336615D01*
X86907000Y-60927385D01*
X87133078Y-61473185D01*
X87550815Y-61890922D01*
X88096615Y-62117000D01*
X88687385Y-62117000D01*
X89233185Y-61890922D01*
X89650922Y-61473185D01*
X89877000Y-60927385D01*
X89877000Y-60336615D01*
X89650922Y-59790815D01*
X89233185Y-59373078D01*
X88687385Y-59147000D01*
X88096615Y-59147000D01*
X87550815Y-59373078D01*
X87133078Y-59790815D01*
X86907000Y-60336615D01*
X78959270Y-60336615D01*
X79431249Y-60021249D01*
X79903126Y-59315036D01*
X80068827Y-58482000D01*
X79972021Y-57995322D01*
X91337000Y-57995322D01*
X91337000Y-58844678D01*
X91662034Y-59629380D01*
X92262620Y-60229966D01*
X93047322Y-60555000D01*
X93896678Y-60555000D01*
X94681380Y-60229966D01*
X95281966Y-59629380D01*
X95607000Y-58844678D01*
X95607000Y-57995322D01*
X95281966Y-57210620D01*
X94681380Y-56610034D01*
X93896678Y-56285000D01*
X93047322Y-56285000D01*
X92262620Y-56610034D01*
X91662034Y-57210620D01*
X91337000Y-57995322D01*
X79972021Y-57995322D01*
X79903126Y-57648964D01*
X79431249Y-56942751D01*
X78725036Y-56470874D01*
X78102279Y-56347000D01*
X76681721Y-56347000D01*
X76058964Y-56470874D01*
X75352751Y-56942751D01*
X74880874Y-57648964D01*
X74715173Y-58482000D01*
X47700000Y-58482000D01*
X47700000Y-55502453D01*
X160655000Y-55502453D01*
X160655000Y-56765547D01*
X161138365Y-57932493D01*
X162031507Y-58825635D01*
X163198453Y-59309000D01*
X164461547Y-59309000D01*
X165628493Y-58825635D01*
X166521635Y-57932493D01*
X167005000Y-56765547D01*
X167005000Y-55502453D01*
X166521635Y-54335507D01*
X165628493Y-53442365D01*
X164461547Y-52959000D01*
X163198453Y-52959000D01*
X162031507Y-53442365D01*
X161138365Y-54335507D01*
X160655000Y-55502453D01*
X47700000Y-55502453D01*
X47700000Y-54654666D01*
X47762958Y-54156302D01*
X47931305Y-53731107D01*
X48200101Y-53361142D01*
X48552462Y-53069644D01*
X48966244Y-52874933D01*
X49448662Y-52782907D01*
X49541164Y-52780000D01*
X179025334Y-52780000D01*
X179523698Y-52842958D01*
G04 #@! TD*
M02*
