M48
;DRILL file {KiCad (5.0.2)-1} date 1/11/2020 1:29:30 PM
;FORMAT={-:-/ absolute / inch / decimal}
FMAT,2
INCH,TZ
T1C0.0157
T2C0.0300
T3C0.0350
T4C0.0394
T5C0.0787
T6C0.1598
%
G90
G05
T1
X2.36Y-2.46
X2.36Y-2.68
X2.36Y-2.9
X2.36Y-3.12
X2.36Y-3.34
X2.36Y-3.56
X2.36Y-3.78
X2.36Y-4.
X2.36Y-4.27
X2.36Y-4.49
X2.36Y-4.71
X2.36Y-4.93
X2.36Y-5.15
X2.36Y-5.37
X2.36Y-5.59
X2.36Y-5.81
X2.79Y-2.96
X2.79Y-3.06
X2.79Y-3.16
X2.79Y-3.26
X2.79Y-3.36
X2.79Y-3.46
X2.79Y-3.56
X2.79Y-3.66
X2.82Y-5.55
X3.04Y-5.55
X3.07Y-3.7
X3.07Y-4.25
X3.26Y-5.55
X3.47Y-4.85
X3.48Y-5.55
X3.51Y-4.89
X3.55Y-4.93
X3.59Y-4.97
X3.63Y-5.01
X3.67Y-5.05
X3.7Y-5.55
X3.71Y-5.09
X3.75Y-5.13
X3.92Y-5.55
X4.1Y-2.28
X4.14Y-5.55
X4.33Y-2.28
X4.36Y-5.55
X4.54Y-3.86
X4.56Y-5.34
X4.58Y-5.55
X4.64Y-3.96
X4.66Y-5.31
X4.74Y-4.06
X4.76Y-5.28
X4.8Y-5.55
X4.84Y-4.16
X4.86Y-5.25
X4.94Y-4.26
X4.96Y-5.22
X5.02Y-5.55
X5.04Y-4.36
X5.06Y-5.19
X5.14Y-4.46
X5.16Y-5.16
X5.21Y-5.14
X5.24Y-4.56
X5.24Y-5.55
X5.46Y-5.55
X5.68Y-5.55
X5.9Y-5.55
X6.12Y-5.55
X6.42Y-2.86
X6.42Y-3.08
X6.4283Y-3.2991
X6.4283Y-3.5191
X6.4283Y-3.7391
X6.4283Y-3.9591
X6.4283Y-4.1791
X6.64Y-2.74
X6.64Y-2.96
X6.64Y-3.18
X6.64Y-3.4
X6.64Y-3.62
X6.64Y-3.84
X6.64Y-4.06
X6.64Y-4.27
X6.64Y-4.49
X6.64Y-4.71
X6.64Y-4.93
X6.64Y-5.15
X6.64Y-5.37
X6.64Y-5.59
X6.64Y-5.81
T2
X3.32Y-2.96
X3.32Y-3.06
X3.32Y-3.16
X3.32Y-3.26
X3.32Y-3.36
X3.32Y-3.46
X3.32Y-3.56
X3.32Y-3.66
X3.32Y-3.86
X3.32Y-3.96
X3.32Y-4.06
X3.32Y-4.16
X3.32Y-4.26
X3.32Y-4.36
X3.32Y-4.46
X3.32Y-4.56
X3.42Y-2.96
X3.42Y-3.06
X3.42Y-3.16
X3.42Y-3.26
X3.42Y-3.36
X3.42Y-3.46
X3.42Y-3.56
X3.42Y-3.66
X3.42Y-3.86
X3.42Y-3.96
X3.42Y-4.06
X3.42Y-4.16
X3.42Y-4.26
X3.42Y-4.36
X3.42Y-4.46
X3.42Y-4.56
X4.22Y-2.96
X4.22Y-3.06
X4.32Y-2.96
X4.32Y-3.06
X4.92Y-2.96
X4.92Y-3.06
X5.02Y-2.96
X5.02Y-3.06
X5.52Y-2.96
X5.52Y-3.06
X5.52Y-3.16
X5.52Y-3.26
X5.52Y-3.36
X5.52Y-3.46
X5.52Y-3.56
X5.52Y-3.66
X5.62Y-2.96
X5.62Y-3.06
X5.62Y-3.16
X5.62Y-3.26
X5.62Y-3.36
X5.62Y-3.46
X5.62Y-3.56
X5.62Y-3.66
T3
X6.0015Y-2.263
X6.0015Y-2.363
X6.0015Y-2.463
T4
X3.48Y-2.3871
X3.48Y-2.4816
X3.48Y-2.58
X3.48Y-2.6745
T5
X6.24Y-2.54
X3.68Y-2.3
T6
X6.45Y-2.21
X6.45Y-2.52
T5
X3.0272Y-2.3024G85X3.0666Y-2.3024
G05
X3.0272Y-2.7591G85X3.0666Y-2.7591
G05
T0
M30
