G04 #@! TF.GenerationSoftware,KiCad,Pcbnew,(5.0.2)-1*
G04 #@! TF.CreationDate,2020-01-11T13:29:28-06:00*
G04 #@! TF.ProjectId,TM4C129 Breakout Tester,544d3443-3132-4392-9042-7265616b6f75,rev?*
G04 #@! TF.SameCoordinates,Original*
G04 #@! TF.FileFunction,Legend,Bot*
G04 #@! TF.FilePolarity,Positive*
%FSLAX46Y46*%
G04 Gerber Fmt 4.6, Leading zero omitted, Abs format (unit mm)*
G04 Created by KiCad (PCBNEW (5.0.2)-1) date 1/11/2020 1:29:28 PM*
%MOMM*%
%LPD*%
G01*
G04 APERTURE LIST*
%ADD10C,0.300000*%
%ADD11C,0.010000*%
G04 APERTURE END LIST*
D10*
X150030142Y-54789571D02*
X149173000Y-54789571D01*
X149601571Y-56289571D02*
X149601571Y-54789571D01*
X148673000Y-56289571D02*
X148673000Y-54789571D01*
X148173000Y-55861000D01*
X147673000Y-54789571D01*
X147673000Y-56289571D01*
X146315857Y-55289571D02*
X146315857Y-56289571D01*
X146673000Y-54718142D02*
X147030142Y-55789571D01*
X146101571Y-55789571D01*
X144673000Y-56146714D02*
X144744428Y-56218142D01*
X144958714Y-56289571D01*
X145101571Y-56289571D01*
X145315857Y-56218142D01*
X145458714Y-56075285D01*
X145530142Y-55932428D01*
X145601571Y-55646714D01*
X145601571Y-55432428D01*
X145530142Y-55146714D01*
X145458714Y-55003857D01*
X145315857Y-54861000D01*
X145101571Y-54789571D01*
X144958714Y-54789571D01*
X144744428Y-54861000D01*
X144673000Y-54932428D01*
X143244428Y-56289571D02*
X144101571Y-56289571D01*
X143673000Y-56289571D02*
X143673000Y-54789571D01*
X143815857Y-55003857D01*
X143958714Y-55146714D01*
X144101571Y-55218142D01*
X142673000Y-54932428D02*
X142601571Y-54861000D01*
X142458714Y-54789571D01*
X142101571Y-54789571D01*
X141958714Y-54861000D01*
X141887285Y-54932428D01*
X141815857Y-55075285D01*
X141815857Y-55218142D01*
X141887285Y-55432428D01*
X142744428Y-56289571D01*
X141815857Y-56289571D01*
X141101571Y-56289571D02*
X140815857Y-56289571D01*
X140673000Y-56218142D01*
X140601571Y-56146714D01*
X140458714Y-55932428D01*
X140387285Y-55646714D01*
X140387285Y-55075285D01*
X140458714Y-54932428D01*
X140530142Y-54861000D01*
X140673000Y-54789571D01*
X140958714Y-54789571D01*
X141101571Y-54861000D01*
X141173000Y-54932428D01*
X141244428Y-55075285D01*
X141244428Y-55432428D01*
X141173000Y-55575285D01*
X141101571Y-55646714D01*
X140958714Y-55718142D01*
X140673000Y-55718142D01*
X140530142Y-55646714D01*
X140458714Y-55575285D01*
X140387285Y-55432428D01*
X138101571Y-55503857D02*
X137887285Y-55575285D01*
X137815857Y-55646714D01*
X137744428Y-55789571D01*
X137744428Y-56003857D01*
X137815857Y-56146714D01*
X137887285Y-56218142D01*
X138030142Y-56289571D01*
X138601571Y-56289571D01*
X138601571Y-54789571D01*
X138101571Y-54789571D01*
X137958714Y-54861000D01*
X137887285Y-54932428D01*
X137815857Y-55075285D01*
X137815857Y-55218142D01*
X137887285Y-55361000D01*
X137958714Y-55432428D01*
X138101571Y-55503857D01*
X138601571Y-55503857D01*
X137101571Y-56289571D02*
X137101571Y-55289571D01*
X137101571Y-55575285D02*
X137030142Y-55432428D01*
X136958714Y-55361000D01*
X136815857Y-55289571D01*
X136673000Y-55289571D01*
X135601571Y-56218142D02*
X135744428Y-56289571D01*
X136030142Y-56289571D01*
X136173000Y-56218142D01*
X136244428Y-56075285D01*
X136244428Y-55503857D01*
X136173000Y-55361000D01*
X136030142Y-55289571D01*
X135744428Y-55289571D01*
X135601571Y-55361000D01*
X135530142Y-55503857D01*
X135530142Y-55646714D01*
X136244428Y-55789571D01*
X134244428Y-56289571D02*
X134244428Y-55503857D01*
X134315857Y-55361000D01*
X134458714Y-55289571D01*
X134744428Y-55289571D01*
X134887285Y-55361000D01*
X134244428Y-56218142D02*
X134387285Y-56289571D01*
X134744428Y-56289571D01*
X134887285Y-56218142D01*
X134958714Y-56075285D01*
X134958714Y-55932428D01*
X134887285Y-55789571D01*
X134744428Y-55718142D01*
X134387285Y-55718142D01*
X134244428Y-55646714D01*
X133530142Y-56289571D02*
X133530142Y-54789571D01*
X133387285Y-55718142D02*
X132958714Y-56289571D01*
X132958714Y-55289571D02*
X133530142Y-55861000D01*
X132101571Y-56289571D02*
X132244428Y-56218142D01*
X132315857Y-56146714D01*
X132387285Y-56003857D01*
X132387285Y-55575285D01*
X132315857Y-55432428D01*
X132244428Y-55361000D01*
X132101571Y-55289571D01*
X131887285Y-55289571D01*
X131744428Y-55361000D01*
X131673000Y-55432428D01*
X131601571Y-55575285D01*
X131601571Y-56003857D01*
X131673000Y-56146714D01*
X131744428Y-56218142D01*
X131887285Y-56289571D01*
X132101571Y-56289571D01*
X130315857Y-55289571D02*
X130315857Y-56289571D01*
X130958714Y-55289571D02*
X130958714Y-56075285D01*
X130887285Y-56218142D01*
X130744428Y-56289571D01*
X130530142Y-56289571D01*
X130387285Y-56218142D01*
X130315857Y-56146714D01*
X129815857Y-55289571D02*
X129244428Y-55289571D01*
X129601571Y-54789571D02*
X129601571Y-56075285D01*
X129530142Y-56218142D01*
X129387285Y-56289571D01*
X129244428Y-56289571D01*
X127815857Y-54789571D02*
X126958714Y-54789571D01*
X127387285Y-56289571D02*
X127387285Y-54789571D01*
X125887285Y-56218142D02*
X126030142Y-56289571D01*
X126315857Y-56289571D01*
X126458714Y-56218142D01*
X126530142Y-56075285D01*
X126530142Y-55503857D01*
X126458714Y-55361000D01*
X126315857Y-55289571D01*
X126030142Y-55289571D01*
X125887285Y-55361000D01*
X125815857Y-55503857D01*
X125815857Y-55646714D01*
X126530142Y-55789571D01*
X125244428Y-56218142D02*
X125101571Y-56289571D01*
X124815857Y-56289571D01*
X124673000Y-56218142D01*
X124601571Y-56075285D01*
X124601571Y-56003857D01*
X124673000Y-55861000D01*
X124815857Y-55789571D01*
X125030142Y-55789571D01*
X125173000Y-55718142D01*
X125244428Y-55575285D01*
X125244428Y-55503857D01*
X125173000Y-55361000D01*
X125030142Y-55289571D01*
X124815857Y-55289571D01*
X124673000Y-55361000D01*
X124173000Y-55289571D02*
X123601571Y-55289571D01*
X123958714Y-54789571D02*
X123958714Y-56075285D01*
X123887285Y-56218142D01*
X123744428Y-56289571D01*
X123601571Y-56289571D01*
X122530142Y-56218142D02*
X122673000Y-56289571D01*
X122958714Y-56289571D01*
X123101571Y-56218142D01*
X123173000Y-56075285D01*
X123173000Y-55503857D01*
X123101571Y-55361000D01*
X122958714Y-55289571D01*
X122673000Y-55289571D01*
X122530142Y-55361000D01*
X122458714Y-55503857D01*
X122458714Y-55646714D01*
X123173000Y-55789571D01*
X121815857Y-56289571D02*
X121815857Y-55289571D01*
X121815857Y-55575285D02*
X121744428Y-55432428D01*
X121673000Y-55361000D01*
X121530142Y-55289571D01*
X121387285Y-55289571D01*
X120815857Y-56218142D02*
X120815857Y-56289571D01*
X120887285Y-56432428D01*
X120958714Y-56503857D01*
X118173000Y-56289571D02*
X118673000Y-55575285D01*
X119030142Y-56289571D02*
X119030142Y-54789571D01*
X118458714Y-54789571D01*
X118315857Y-54861000D01*
X118244428Y-54932428D01*
X118173000Y-55075285D01*
X118173000Y-55289571D01*
X118244428Y-55432428D01*
X118315857Y-55503857D01*
X118458714Y-55575285D01*
X119030142Y-55575285D01*
X116958714Y-56218142D02*
X117101571Y-56289571D01*
X117387285Y-56289571D01*
X117530142Y-56218142D01*
X117601571Y-56075285D01*
X117601571Y-55503857D01*
X117530142Y-55361000D01*
X117387285Y-55289571D01*
X117101571Y-55289571D01*
X116958714Y-55361000D01*
X116887285Y-55503857D01*
X116887285Y-55646714D01*
X117601571Y-55789571D01*
X116387285Y-55289571D02*
X116030142Y-56289571D01*
X115673000Y-55289571D01*
X113173000Y-56289571D02*
X114030142Y-56289571D01*
X113601571Y-56289571D02*
X113601571Y-54789571D01*
X113744428Y-55003857D01*
X113887285Y-55146714D01*
X114030142Y-55218142D01*
X149815857Y-58839571D02*
X149815857Y-57339571D01*
X149315857Y-58411000D01*
X148815857Y-57339571D01*
X148815857Y-58839571D01*
X147458714Y-58839571D02*
X147458714Y-58053857D01*
X147530142Y-57911000D01*
X147673000Y-57839571D01*
X147958714Y-57839571D01*
X148101571Y-57911000D01*
X147458714Y-58768142D02*
X147601571Y-58839571D01*
X147958714Y-58839571D01*
X148101571Y-58768142D01*
X148173000Y-58625285D01*
X148173000Y-58482428D01*
X148101571Y-58339571D01*
X147958714Y-58268142D01*
X147601571Y-58268142D01*
X147458714Y-58196714D01*
X146744428Y-58839571D02*
X146744428Y-57839571D01*
X146744428Y-58125285D02*
X146673000Y-57982428D01*
X146601571Y-57911000D01*
X146458714Y-57839571D01*
X146315857Y-57839571D01*
X145887285Y-58768142D02*
X145744428Y-58839571D01*
X145458714Y-58839571D01*
X145315857Y-58768142D01*
X145244428Y-58625285D01*
X145244428Y-58553857D01*
X145315857Y-58411000D01*
X145458714Y-58339571D01*
X145673000Y-58339571D01*
X145815857Y-58268142D01*
X145887285Y-58125285D01*
X145887285Y-58053857D01*
X145815857Y-57911000D01*
X145673000Y-57839571D01*
X145458714Y-57839571D01*
X145315857Y-57911000D01*
X142601571Y-58839571D02*
X143101571Y-58125285D01*
X143458714Y-58839571D02*
X143458714Y-57339571D01*
X142887285Y-57339571D01*
X142744428Y-57411000D01*
X142673000Y-57482428D01*
X142601571Y-57625285D01*
X142601571Y-57839571D01*
X142673000Y-57982428D01*
X142744428Y-58053857D01*
X142887285Y-58125285D01*
X143458714Y-58125285D01*
X141744428Y-58839571D02*
X141887285Y-58768142D01*
X141958714Y-58696714D01*
X142030142Y-58553857D01*
X142030142Y-58125285D01*
X141958714Y-57982428D01*
X141887285Y-57911000D01*
X141744428Y-57839571D01*
X141530142Y-57839571D01*
X141387285Y-57911000D01*
X141315857Y-57982428D01*
X141244428Y-58125285D01*
X141244428Y-58553857D01*
X141315857Y-58696714D01*
X141387285Y-58768142D01*
X141530142Y-58839571D01*
X141744428Y-58839571D01*
X140744428Y-57839571D02*
X140387285Y-58839571D01*
X140030142Y-57839571D01*
X138887285Y-58768142D02*
X139030142Y-58839571D01*
X139315857Y-58839571D01*
X139458714Y-58768142D01*
X139530142Y-58625285D01*
X139530142Y-58053857D01*
X139458714Y-57911000D01*
X139315857Y-57839571D01*
X139030142Y-57839571D01*
X138887285Y-57911000D01*
X138815857Y-58053857D01*
X138815857Y-58196714D01*
X139530142Y-58339571D01*
X138173000Y-58839571D02*
X138173000Y-57839571D01*
X138173000Y-58125285D02*
X138101571Y-57982428D01*
X138030142Y-57911000D01*
X137887285Y-57839571D01*
X137744428Y-57839571D01*
X136101571Y-58839571D02*
X136101571Y-57339571D01*
X135744428Y-57339571D01*
X135530142Y-57411000D01*
X135387285Y-57553857D01*
X135315857Y-57696714D01*
X135244428Y-57982428D01*
X135244428Y-58196714D01*
X135315857Y-58482428D01*
X135387285Y-58625285D01*
X135530142Y-58768142D01*
X135744428Y-58839571D01*
X136101571Y-58839571D01*
X134030142Y-58768142D02*
X134173000Y-58839571D01*
X134458714Y-58839571D01*
X134601571Y-58768142D01*
X134673000Y-58625285D01*
X134673000Y-58053857D01*
X134601571Y-57911000D01*
X134458714Y-57839571D01*
X134173000Y-57839571D01*
X134030142Y-57911000D01*
X133958714Y-58053857D01*
X133958714Y-58196714D01*
X134673000Y-58339571D01*
X133387285Y-58768142D02*
X133244428Y-58839571D01*
X132958714Y-58839571D01*
X132815857Y-58768142D01*
X132744428Y-58625285D01*
X132744428Y-58553857D01*
X132815857Y-58411000D01*
X132958714Y-58339571D01*
X133173000Y-58339571D01*
X133315857Y-58268142D01*
X133387285Y-58125285D01*
X133387285Y-58053857D01*
X133315857Y-57911000D01*
X133173000Y-57839571D01*
X132958714Y-57839571D01*
X132815857Y-57911000D01*
X132101571Y-58839571D02*
X132101571Y-57839571D01*
X132101571Y-57339571D02*
X132173000Y-57411000D01*
X132101571Y-57482428D01*
X132030142Y-57411000D01*
X132101571Y-57339571D01*
X132101571Y-57482428D01*
X130744428Y-57839571D02*
X130744428Y-59053857D01*
X130815857Y-59196714D01*
X130887285Y-59268142D01*
X131030142Y-59339571D01*
X131244428Y-59339571D01*
X131387285Y-59268142D01*
X130744428Y-58768142D02*
X130887285Y-58839571D01*
X131173000Y-58839571D01*
X131315857Y-58768142D01*
X131387285Y-58696714D01*
X131458714Y-58553857D01*
X131458714Y-58125285D01*
X131387285Y-57982428D01*
X131315857Y-57911000D01*
X131173000Y-57839571D01*
X130887285Y-57839571D01*
X130744428Y-57911000D01*
X130030142Y-57839571D02*
X130030142Y-58839571D01*
X130030142Y-57982428D02*
X129958714Y-57911000D01*
X129815857Y-57839571D01*
X129601571Y-57839571D01*
X129458714Y-57911000D01*
X129387285Y-58053857D01*
X129387285Y-58839571D01*
X127744428Y-57339571D02*
X126887285Y-57339571D01*
X127315857Y-58839571D02*
X127315857Y-57339571D01*
X125815857Y-58768142D02*
X125958714Y-58839571D01*
X126244428Y-58839571D01*
X126387285Y-58768142D01*
X126458714Y-58625285D01*
X126458714Y-58053857D01*
X126387285Y-57911000D01*
X126244428Y-57839571D01*
X125958714Y-57839571D01*
X125815857Y-57911000D01*
X125744428Y-58053857D01*
X125744428Y-58196714D01*
X126458714Y-58339571D01*
X124458714Y-58839571D02*
X124458714Y-58053857D01*
X124530142Y-57911000D01*
X124673000Y-57839571D01*
X124958714Y-57839571D01*
X125101571Y-57911000D01*
X124458714Y-58768142D02*
X124601571Y-58839571D01*
X124958714Y-58839571D01*
X125101571Y-58768142D01*
X125173000Y-58625285D01*
X125173000Y-58482428D01*
X125101571Y-58339571D01*
X124958714Y-58268142D01*
X124601571Y-58268142D01*
X124458714Y-58196714D01*
X123744428Y-58839571D02*
X123744428Y-57839571D01*
X123744428Y-57982428D02*
X123673000Y-57911000D01*
X123530142Y-57839571D01*
X123315857Y-57839571D01*
X123173000Y-57911000D01*
X123101571Y-58053857D01*
X123101571Y-58839571D01*
X123101571Y-58053857D02*
X123030142Y-57911000D01*
X122887285Y-57839571D01*
X122673000Y-57839571D01*
X122530142Y-57911000D01*
X122458714Y-58053857D01*
X122458714Y-58839571D01*
X149815857Y-61389571D02*
X149815857Y-59889571D01*
X149315857Y-60961000D01*
X148815857Y-59889571D01*
X148815857Y-61389571D01*
X148101571Y-61389571D02*
X148101571Y-60389571D01*
X148101571Y-59889571D02*
X148173000Y-59961000D01*
X148101571Y-60032428D01*
X148030142Y-59961000D01*
X148101571Y-59889571D01*
X148101571Y-60032428D01*
X147458714Y-61318142D02*
X147315857Y-61389571D01*
X147030142Y-61389571D01*
X146887285Y-61318142D01*
X146815857Y-61175285D01*
X146815857Y-61103857D01*
X146887285Y-60961000D01*
X147030142Y-60889571D01*
X147244428Y-60889571D01*
X147387285Y-60818142D01*
X147458714Y-60675285D01*
X147458714Y-60603857D01*
X147387285Y-60461000D01*
X147244428Y-60389571D01*
X147030142Y-60389571D01*
X146887285Y-60461000D01*
X146244428Y-61318142D02*
X146101571Y-61389571D01*
X145815857Y-61389571D01*
X145673000Y-61318142D01*
X145601571Y-61175285D01*
X145601571Y-61103857D01*
X145673000Y-60961000D01*
X145815857Y-60889571D01*
X146030142Y-60889571D01*
X146173000Y-60818142D01*
X146244428Y-60675285D01*
X146244428Y-60603857D01*
X146173000Y-60461000D01*
X146030142Y-60389571D01*
X145815857Y-60389571D01*
X145673000Y-60461000D01*
X144744428Y-61389571D02*
X144887285Y-61318142D01*
X144958714Y-61246714D01*
X145030142Y-61103857D01*
X145030142Y-60675285D01*
X144958714Y-60532428D01*
X144887285Y-60461000D01*
X144744428Y-60389571D01*
X144530142Y-60389571D01*
X144387285Y-60461000D01*
X144315857Y-60532428D01*
X144244428Y-60675285D01*
X144244428Y-61103857D01*
X144315857Y-61246714D01*
X144387285Y-61318142D01*
X144530142Y-61389571D01*
X144744428Y-61389571D01*
X142958714Y-60389571D02*
X142958714Y-61389571D01*
X143601571Y-60389571D02*
X143601571Y-61175285D01*
X143530142Y-61318142D01*
X143387285Y-61389571D01*
X143173000Y-61389571D01*
X143030142Y-61318142D01*
X142958714Y-61246714D01*
X142244428Y-61389571D02*
X142244428Y-60389571D01*
X142244428Y-60675285D02*
X142173000Y-60532428D01*
X142101571Y-60461000D01*
X141958714Y-60389571D01*
X141815857Y-60389571D01*
X141315857Y-61389571D02*
X141315857Y-60389571D01*
X141315857Y-59889571D02*
X141387285Y-59961000D01*
X141315857Y-60032428D01*
X141244428Y-59961000D01*
X141315857Y-59889571D01*
X141315857Y-60032428D01*
X139530142Y-61318142D02*
X139315857Y-61389571D01*
X138958714Y-61389571D01*
X138815857Y-61318142D01*
X138744428Y-61246714D01*
X138673000Y-61103857D01*
X138673000Y-60961000D01*
X138744428Y-60818142D01*
X138815857Y-60746714D01*
X138958714Y-60675285D01*
X139244428Y-60603857D01*
X139387285Y-60532428D01*
X139458714Y-60461000D01*
X139530142Y-60318142D01*
X139530142Y-60175285D01*
X139458714Y-60032428D01*
X139387285Y-59961000D01*
X139244428Y-59889571D01*
X138887285Y-59889571D01*
X138673000Y-59961000D01*
X136815857Y-61389571D02*
X136887285Y-61389571D01*
X137030142Y-61318142D01*
X137244428Y-61103857D01*
X137601571Y-60675285D01*
X137744428Y-60461000D01*
X137815857Y-60246714D01*
X137815857Y-60103857D01*
X137744428Y-59961000D01*
X137601571Y-59889571D01*
X137530142Y-59889571D01*
X137387285Y-59961000D01*
X137315857Y-60103857D01*
X137315857Y-60175285D01*
X137387285Y-60318142D01*
X137458714Y-60389571D01*
X137887285Y-60675285D01*
X137958714Y-60746714D01*
X138030142Y-60889571D01*
X138030142Y-61103857D01*
X137958714Y-61246714D01*
X137887285Y-61318142D01*
X137744428Y-61389571D01*
X137530142Y-61389571D01*
X137387285Y-61318142D01*
X137315857Y-61246714D01*
X137101571Y-60961000D01*
X137030142Y-60746714D01*
X137030142Y-60603857D01*
X136387285Y-59889571D02*
X135530142Y-59889571D01*
X135958714Y-61389571D02*
X135958714Y-59889571D01*
X134958714Y-61318142D02*
X134958714Y-61389571D01*
X135030142Y-61532428D01*
X135101571Y-61603857D01*
X133244428Y-60032428D02*
X133173000Y-59961000D01*
X133030142Y-59889571D01*
X132673000Y-59889571D01*
X132530142Y-59961000D01*
X132458714Y-60032428D01*
X132387285Y-60175285D01*
X132387285Y-60318142D01*
X132458714Y-60532428D01*
X133315857Y-61389571D01*
X132387285Y-61389571D01*
X131458714Y-59889571D02*
X131315857Y-59889571D01*
X131173000Y-59961000D01*
X131101571Y-60032428D01*
X131030142Y-60175285D01*
X130958714Y-60461000D01*
X130958714Y-60818142D01*
X131030142Y-61103857D01*
X131101571Y-61246714D01*
X131173000Y-61318142D01*
X131315857Y-61389571D01*
X131458714Y-61389571D01*
X131601571Y-61318142D01*
X131673000Y-61246714D01*
X131744428Y-61103857D01*
X131815857Y-60818142D01*
X131815857Y-60461000D01*
X131744428Y-60175285D01*
X131673000Y-60032428D01*
X131601571Y-59961000D01*
X131458714Y-59889571D01*
X130387285Y-60032428D02*
X130315857Y-59961000D01*
X130173000Y-59889571D01*
X129815857Y-59889571D01*
X129673000Y-59961000D01*
X129601571Y-60032428D01*
X129530142Y-60175285D01*
X129530142Y-60318142D01*
X129601571Y-60532428D01*
X130458714Y-61389571D01*
X129530142Y-61389571D01*
X128601571Y-59889571D02*
X128458714Y-59889571D01*
X128315857Y-59961000D01*
X128244428Y-60032428D01*
X128173000Y-60175285D01*
X128101571Y-60461000D01*
X128101571Y-60818142D01*
X128173000Y-61103857D01*
X128244428Y-61246714D01*
X128315857Y-61318142D01*
X128458714Y-61389571D01*
X128601571Y-61389571D01*
X128744428Y-61318142D01*
X128815857Y-61246714D01*
X128887285Y-61103857D01*
X128958714Y-60818142D01*
X128958714Y-60461000D01*
X128887285Y-60175285D01*
X128815857Y-60032428D01*
X128744428Y-59961000D01*
X128601571Y-59889571D01*
X149887285Y-63511000D02*
X149173000Y-63511000D01*
X150030142Y-63939571D02*
X149530142Y-62439571D01*
X149030142Y-63939571D01*
X148530142Y-62939571D02*
X148530142Y-63939571D01*
X148530142Y-63082428D02*
X148458714Y-63011000D01*
X148315857Y-62939571D01*
X148101571Y-62939571D01*
X147958714Y-63011000D01*
X147887285Y-63153857D01*
X147887285Y-63939571D01*
X146530142Y-63939571D02*
X146530142Y-62439571D01*
X146530142Y-63868142D02*
X146673000Y-63939571D01*
X146958714Y-63939571D01*
X147101571Y-63868142D01*
X147173000Y-63796714D01*
X147244428Y-63653857D01*
X147244428Y-63225285D01*
X147173000Y-63082428D01*
X147101571Y-63011000D01*
X146958714Y-62939571D01*
X146673000Y-62939571D01*
X146530142Y-63011000D01*
X145815857Y-63939571D02*
X145815857Y-62939571D01*
X145815857Y-63225285D02*
X145744428Y-63082428D01*
X145673000Y-63011000D01*
X145530142Y-62939571D01*
X145387285Y-62939571D01*
X144315857Y-63868142D02*
X144458714Y-63939571D01*
X144744428Y-63939571D01*
X144887285Y-63868142D01*
X144958714Y-63725285D01*
X144958714Y-63153857D01*
X144887285Y-63011000D01*
X144744428Y-62939571D01*
X144458714Y-62939571D01*
X144315857Y-63011000D01*
X144244428Y-63153857D01*
X144244428Y-63296714D01*
X144958714Y-63439571D01*
X143744428Y-62939571D02*
X143458714Y-63939571D01*
X143173000Y-63225285D01*
X142887285Y-63939571D01*
X142601571Y-62939571D01*
X141101571Y-62439571D02*
X140601571Y-63939571D01*
X140101571Y-62439571D01*
X138958714Y-63939571D02*
X138958714Y-63153857D01*
X139030142Y-63011000D01*
X139173000Y-62939571D01*
X139458714Y-62939571D01*
X139601571Y-63011000D01*
X138958714Y-63868142D02*
X139101571Y-63939571D01*
X139458714Y-63939571D01*
X139601571Y-63868142D01*
X139673000Y-63725285D01*
X139673000Y-63582428D01*
X139601571Y-63439571D01*
X139458714Y-63368142D01*
X139101571Y-63368142D01*
X138958714Y-63296714D01*
X138244428Y-62939571D02*
X138244428Y-63939571D01*
X138244428Y-63082428D02*
X138173000Y-63011000D01*
X138030142Y-62939571D01*
X137815857Y-62939571D01*
X137673000Y-63011000D01*
X137601571Y-63153857D01*
X137601571Y-63939571D01*
X135744428Y-63939571D02*
X135744428Y-62439571D01*
X135744428Y-63153857D02*
X134887285Y-63153857D01*
X134887285Y-63939571D02*
X134887285Y-62439571D01*
X133958714Y-63939571D02*
X134101571Y-63868142D01*
X134173000Y-63796714D01*
X134244428Y-63653857D01*
X134244428Y-63225285D01*
X134173000Y-63082428D01*
X134101571Y-63011000D01*
X133958714Y-62939571D01*
X133744428Y-62939571D01*
X133601571Y-63011000D01*
X133530142Y-63082428D01*
X133458714Y-63225285D01*
X133458714Y-63653857D01*
X133530142Y-63796714D01*
X133601571Y-63868142D01*
X133744428Y-63939571D01*
X133958714Y-63939571D01*
X132815857Y-63939571D02*
X132815857Y-62939571D01*
X132815857Y-63225285D02*
X132744428Y-63082428D01*
X132673000Y-63011000D01*
X132530142Y-62939571D01*
X132387285Y-62939571D01*
X131887285Y-62939571D02*
X131887285Y-63939571D01*
X131887285Y-63082428D02*
X131815857Y-63011000D01*
X131673000Y-62939571D01*
X131458714Y-62939571D01*
X131315857Y-63011000D01*
X131244428Y-63153857D01*
X131244428Y-63939571D01*
D11*
G04 #@! TO.C,G\002A\002A\002A*
G36*
X141091691Y-65004561D02*
X141058920Y-65025512D01*
X141011993Y-65062470D01*
X140973058Y-65095615D01*
X140956576Y-65122645D01*
X140958260Y-65151198D01*
X140970593Y-65182693D01*
X140995560Y-65230259D01*
X141030202Y-65289098D01*
X141071563Y-65354413D01*
X141116684Y-65421403D01*
X141162607Y-65485272D01*
X141171394Y-65496941D01*
X141207247Y-65546794D01*
X141244104Y-65602484D01*
X141278922Y-65658857D01*
X141308659Y-65710759D01*
X141330272Y-65753036D01*
X141340719Y-65780533D01*
X141341230Y-65784671D01*
X141351142Y-65802302D01*
X141367282Y-65815541D01*
X141387752Y-65834838D01*
X141393333Y-65848802D01*
X141402114Y-65867764D01*
X141424084Y-65894671D01*
X141433421Y-65904050D01*
X141460084Y-65935723D01*
X141490506Y-65981028D01*
X141516404Y-66026974D01*
X141557186Y-66106566D01*
X141589304Y-66166757D01*
X141615238Y-66211697D01*
X141637465Y-66245535D01*
X141658463Y-66272420D01*
X141672020Y-66287487D01*
X141699557Y-66319399D01*
X141731528Y-66360421D01*
X141763898Y-66404821D01*
X141792630Y-66446862D01*
X141813687Y-66480809D01*
X141823034Y-66500928D01*
X141823179Y-66502263D01*
X141831435Y-66518680D01*
X141851708Y-66543699D01*
X141855714Y-66547970D01*
X141880522Y-66577118D01*
X141911840Y-66618255D01*
X141937125Y-66654097D01*
X141982764Y-66719334D01*
X142034598Y-66789958D01*
X142088059Y-66860044D01*
X142138581Y-66923669D01*
X142181597Y-66974908D01*
X142200461Y-66995724D01*
X142234485Y-67032389D01*
X142265364Y-67066916D01*
X142278291Y-67082051D01*
X142300831Y-67109040D01*
X142332915Y-67147082D01*
X142363766Y-67183435D01*
X142401873Y-67234496D01*
X142420778Y-67274953D01*
X142422596Y-67287640D01*
X142433566Y-67334133D01*
X142466303Y-67387912D01*
X142521408Y-67449667D01*
X142599482Y-67520087D01*
X142684075Y-67587061D01*
X142732344Y-67620057D01*
X142772688Y-67636726D01*
X142815093Y-67639655D01*
X142861529Y-67633019D01*
X142890433Y-67618317D01*
X142921184Y-67589949D01*
X142945823Y-67556818D01*
X142956392Y-67527825D01*
X142956410Y-67526883D01*
X142951909Y-67504934D01*
X142939950Y-67466150D01*
X142922845Y-67417845D01*
X142917333Y-67403309D01*
X142899135Y-67353159D01*
X142885455Y-67309948D01*
X142878624Y-67281227D01*
X142878256Y-67276853D01*
X142872889Y-67252790D01*
X142858837Y-67214001D01*
X142839752Y-67170221D01*
X142815709Y-67116341D01*
X142788632Y-67051309D01*
X142764101Y-66988558D01*
X142762535Y-66984359D01*
X142668624Y-66757022D01*
X142618044Y-66652205D01*
X142592737Y-66597943D01*
X142567027Y-66536057D01*
X142553655Y-66500185D01*
X142533993Y-66451745D01*
X142505615Y-66391507D01*
X142473506Y-66329832D01*
X142460953Y-66307461D01*
X142433550Y-66258798D01*
X142411908Y-66218385D01*
X142398852Y-66191612D01*
X142396307Y-66184148D01*
X142389503Y-66168201D01*
X142371891Y-66138232D01*
X142353383Y-66109846D01*
X142325383Y-66064573D01*
X142294070Y-66008018D01*
X142267633Y-65955333D01*
X142243813Y-65907523D01*
X142220845Y-65866277D01*
X142203314Y-65839775D01*
X142201907Y-65838103D01*
X142184278Y-65813120D01*
X142162189Y-65774982D01*
X142138440Y-65729532D01*
X142115829Y-65682611D01*
X142097156Y-65640064D01*
X142085220Y-65607731D01*
X142082821Y-65591456D01*
X142083414Y-65590787D01*
X142103582Y-65591150D01*
X142137910Y-65603367D01*
X142179277Y-65624263D01*
X142220565Y-65650662D01*
X142225072Y-65653971D01*
X142261986Y-65678554D01*
X142309468Y-65706385D01*
X142339463Y-65722345D01*
X142379927Y-65746261D01*
X142428302Y-65779899D01*
X142478654Y-65818506D01*
X142525051Y-65857330D01*
X142561561Y-65891618D01*
X142582252Y-65916619D01*
X142582478Y-65917017D01*
X142584203Y-65931009D01*
X142564909Y-65935705D01*
X142559128Y-65935795D01*
X142513030Y-65943727D01*
X142474833Y-65964369D01*
X142447633Y-65992984D01*
X142434524Y-66024840D01*
X142438602Y-66055201D01*
X142462961Y-66079332D01*
X142464692Y-66080252D01*
X142494225Y-66100205D01*
X142525796Y-66127931D01*
X142527400Y-66129556D01*
X142562525Y-66159851D01*
X142599943Y-66184581D01*
X142631656Y-66211012D01*
X142660937Y-66251156D01*
X142667096Y-66262735D01*
X142715216Y-66340212D01*
X142772357Y-66395220D01*
X142795202Y-66409354D01*
X142819186Y-66426057D01*
X142856599Y-66456616D01*
X142902276Y-66496646D01*
X142949897Y-66540666D01*
X142997528Y-66584333D01*
X143040957Y-66621345D01*
X143075439Y-66647836D01*
X143096225Y-66659941D01*
X143096435Y-66660001D01*
X143119201Y-66670248D01*
X143125743Y-66678782D01*
X143135706Y-66691384D01*
X143161969Y-66714350D01*
X143199096Y-66743689D01*
X143241647Y-66775407D01*
X143284186Y-66805512D01*
X143321276Y-66830013D01*
X143347477Y-66844915D01*
X143355659Y-66847590D01*
X143369775Y-66836694D01*
X143373230Y-66820770D01*
X143377919Y-66802521D01*
X143385356Y-66801444D01*
X143400908Y-66799419D01*
X143413293Y-66774319D01*
X143421890Y-66728995D01*
X143426076Y-66666300D01*
X143426071Y-66614503D01*
X143415437Y-66571715D01*
X143386439Y-66515531D01*
X143341009Y-66448888D01*
X143281078Y-66374724D01*
X143234500Y-66323063D01*
X143198318Y-66283285D01*
X143170172Y-66250045D01*
X143154074Y-66228195D01*
X143151794Y-66222993D01*
X143141080Y-66209841D01*
X143126770Y-66203146D01*
X143109875Y-66191785D01*
X143078003Y-66164987D01*
X143034534Y-66125799D01*
X142998648Y-66092103D01*
X142769667Y-66092103D01*
X142758583Y-66083606D01*
X142741487Y-66066051D01*
X142728200Y-66047346D01*
X142729822Y-66040000D01*
X142745262Y-66049828D01*
X142758002Y-66066051D01*
X142768790Y-66085954D01*
X142769667Y-66092103D01*
X142998648Y-66092103D01*
X142982848Y-66077268D01*
X142927063Y-66023166D01*
X142827734Y-65926101D01*
X142743136Y-65845346D01*
X142670145Y-65778242D01*
X142605637Y-65722128D01*
X142546487Y-65674347D01*
X142489571Y-65632238D01*
X142431763Y-65593143D01*
X142392633Y-65568338D01*
X142326159Y-65528597D01*
X142251231Y-65486128D01*
X142180393Y-65447971D01*
X142155333Y-65435152D01*
X142101161Y-65408512D01*
X142063387Y-65392151D01*
X142035270Y-65384369D01*
X142010072Y-65383470D01*
X141981056Y-65387753D01*
X141973282Y-65389263D01*
X141921514Y-65403218D01*
X141890006Y-65423746D01*
X141872976Y-65456637D01*
X141865752Y-65496974D01*
X141865148Y-65545421D01*
X141871485Y-65601522D01*
X141882973Y-65655804D01*
X141897818Y-65698796D01*
X141906891Y-65714359D01*
X141922017Y-65738027D01*
X141941334Y-65773531D01*
X141947568Y-65786000D01*
X141970740Y-65828187D01*
X141996014Y-65866819D01*
X142001161Y-65873591D01*
X142022247Y-65904804D01*
X142047601Y-65948794D01*
X142065916Y-65984309D01*
X142090553Y-66032326D01*
X142115933Y-66077651D01*
X142131225Y-66102304D01*
X142152728Y-66140932D01*
X142167282Y-66178801D01*
X142168227Y-66182685D01*
X142182937Y-66218139D01*
X142207619Y-66253819D01*
X142210017Y-66256478D01*
X142233339Y-66287216D01*
X142263681Y-66334849D01*
X142297266Y-66392566D01*
X142330318Y-66453552D01*
X142359059Y-66510995D01*
X142379714Y-66558083D01*
X142384394Y-66571038D01*
X142398516Y-66607655D01*
X142420057Y-66656627D01*
X142443939Y-66706509D01*
X142464962Y-66749453D01*
X142480413Y-66782940D01*
X142487360Y-66800574D01*
X142487487Y-66801445D01*
X142492606Y-66815863D01*
X142506484Y-66848762D01*
X142526899Y-66894998D01*
X142547598Y-66940652D01*
X142574896Y-67004098D01*
X142599175Y-67067699D01*
X142618890Y-67126517D01*
X142632495Y-67175614D01*
X142638447Y-67210051D01*
X142636285Y-67224159D01*
X142624824Y-67218499D01*
X142600575Y-67196077D01*
X142566875Y-67160590D01*
X142527062Y-67115737D01*
X142484474Y-67065214D01*
X142442450Y-67012720D01*
X142425693Y-66990872D01*
X142391898Y-66946694D01*
X142362956Y-66909846D01*
X142343157Y-66885742D01*
X142338017Y-66880154D01*
X142323380Y-66863042D01*
X142299592Y-66832003D01*
X142277730Y-66802000D01*
X142247502Y-66760645D01*
X142218747Y-66722986D01*
X142203646Y-66704308D01*
X142148736Y-66638868D01*
X142103857Y-66583185D01*
X142062837Y-66529157D01*
X142019506Y-66468677D01*
X141972974Y-66401362D01*
X141931033Y-66339972D01*
X141890463Y-66280380D01*
X141855481Y-66228793D01*
X141830303Y-66191418D01*
X141827283Y-66186898D01*
X141794666Y-66139288D01*
X141759426Y-66089767D01*
X141744750Y-66069826D01*
X141721487Y-66034619D01*
X141691696Y-65983690D01*
X141659863Y-65924923D01*
X141639893Y-65885628D01*
X141607217Y-65823529D01*
X141571294Y-65761845D01*
X141537502Y-65709553D01*
X141520529Y-65686469D01*
X141487932Y-65642416D01*
X141459304Y-65598400D01*
X141443428Y-65569187D01*
X141422956Y-65534979D01*
X141386700Y-65485966D01*
X141337467Y-65425591D01*
X141278065Y-65357297D01*
X141211406Y-65284640D01*
X141183728Y-65249131D01*
X141152843Y-65200357D01*
X141126369Y-65150724D01*
X141084115Y-65062271D01*
X141109413Y-65030110D01*
X141125303Y-65007938D01*
X141124678Y-64999270D01*
X141112690Y-64997949D01*
X141091691Y-65004561D01*
X141091691Y-65004561D01*
G37*
X141091691Y-65004561D02*
X141058920Y-65025512D01*
X141011993Y-65062470D01*
X140973058Y-65095615D01*
X140956576Y-65122645D01*
X140958260Y-65151198D01*
X140970593Y-65182693D01*
X140995560Y-65230259D01*
X141030202Y-65289098D01*
X141071563Y-65354413D01*
X141116684Y-65421403D01*
X141162607Y-65485272D01*
X141171394Y-65496941D01*
X141207247Y-65546794D01*
X141244104Y-65602484D01*
X141278922Y-65658857D01*
X141308659Y-65710759D01*
X141330272Y-65753036D01*
X141340719Y-65780533D01*
X141341230Y-65784671D01*
X141351142Y-65802302D01*
X141367282Y-65815541D01*
X141387752Y-65834838D01*
X141393333Y-65848802D01*
X141402114Y-65867764D01*
X141424084Y-65894671D01*
X141433421Y-65904050D01*
X141460084Y-65935723D01*
X141490506Y-65981028D01*
X141516404Y-66026974D01*
X141557186Y-66106566D01*
X141589304Y-66166757D01*
X141615238Y-66211697D01*
X141637465Y-66245535D01*
X141658463Y-66272420D01*
X141672020Y-66287487D01*
X141699557Y-66319399D01*
X141731528Y-66360421D01*
X141763898Y-66404821D01*
X141792630Y-66446862D01*
X141813687Y-66480809D01*
X141823034Y-66500928D01*
X141823179Y-66502263D01*
X141831435Y-66518680D01*
X141851708Y-66543699D01*
X141855714Y-66547970D01*
X141880522Y-66577118D01*
X141911840Y-66618255D01*
X141937125Y-66654097D01*
X141982764Y-66719334D01*
X142034598Y-66789958D01*
X142088059Y-66860044D01*
X142138581Y-66923669D01*
X142181597Y-66974908D01*
X142200461Y-66995724D01*
X142234485Y-67032389D01*
X142265364Y-67066916D01*
X142278291Y-67082051D01*
X142300831Y-67109040D01*
X142332915Y-67147082D01*
X142363766Y-67183435D01*
X142401873Y-67234496D01*
X142420778Y-67274953D01*
X142422596Y-67287640D01*
X142433566Y-67334133D01*
X142466303Y-67387912D01*
X142521408Y-67449667D01*
X142599482Y-67520087D01*
X142684075Y-67587061D01*
X142732344Y-67620057D01*
X142772688Y-67636726D01*
X142815093Y-67639655D01*
X142861529Y-67633019D01*
X142890433Y-67618317D01*
X142921184Y-67589949D01*
X142945823Y-67556818D01*
X142956392Y-67527825D01*
X142956410Y-67526883D01*
X142951909Y-67504934D01*
X142939950Y-67466150D01*
X142922845Y-67417845D01*
X142917333Y-67403309D01*
X142899135Y-67353159D01*
X142885455Y-67309948D01*
X142878624Y-67281227D01*
X142878256Y-67276853D01*
X142872889Y-67252790D01*
X142858837Y-67214001D01*
X142839752Y-67170221D01*
X142815709Y-67116341D01*
X142788632Y-67051309D01*
X142764101Y-66988558D01*
X142762535Y-66984359D01*
X142668624Y-66757022D01*
X142618044Y-66652205D01*
X142592737Y-66597943D01*
X142567027Y-66536057D01*
X142553655Y-66500185D01*
X142533993Y-66451745D01*
X142505615Y-66391507D01*
X142473506Y-66329832D01*
X142460953Y-66307461D01*
X142433550Y-66258798D01*
X142411908Y-66218385D01*
X142398852Y-66191612D01*
X142396307Y-66184148D01*
X142389503Y-66168201D01*
X142371891Y-66138232D01*
X142353383Y-66109846D01*
X142325383Y-66064573D01*
X142294070Y-66008018D01*
X142267633Y-65955333D01*
X142243813Y-65907523D01*
X142220845Y-65866277D01*
X142203314Y-65839775D01*
X142201907Y-65838103D01*
X142184278Y-65813120D01*
X142162189Y-65774982D01*
X142138440Y-65729532D01*
X142115829Y-65682611D01*
X142097156Y-65640064D01*
X142085220Y-65607731D01*
X142082821Y-65591456D01*
X142083414Y-65590787D01*
X142103582Y-65591150D01*
X142137910Y-65603367D01*
X142179277Y-65624263D01*
X142220565Y-65650662D01*
X142225072Y-65653971D01*
X142261986Y-65678554D01*
X142309468Y-65706385D01*
X142339463Y-65722345D01*
X142379927Y-65746261D01*
X142428302Y-65779899D01*
X142478654Y-65818506D01*
X142525051Y-65857330D01*
X142561561Y-65891618D01*
X142582252Y-65916619D01*
X142582478Y-65917017D01*
X142584203Y-65931009D01*
X142564909Y-65935705D01*
X142559128Y-65935795D01*
X142513030Y-65943727D01*
X142474833Y-65964369D01*
X142447633Y-65992984D01*
X142434524Y-66024840D01*
X142438602Y-66055201D01*
X142462961Y-66079332D01*
X142464692Y-66080252D01*
X142494225Y-66100205D01*
X142525796Y-66127931D01*
X142527400Y-66129556D01*
X142562525Y-66159851D01*
X142599943Y-66184581D01*
X142631656Y-66211012D01*
X142660937Y-66251156D01*
X142667096Y-66262735D01*
X142715216Y-66340212D01*
X142772357Y-66395220D01*
X142795202Y-66409354D01*
X142819186Y-66426057D01*
X142856599Y-66456616D01*
X142902276Y-66496646D01*
X142949897Y-66540666D01*
X142997528Y-66584333D01*
X143040957Y-66621345D01*
X143075439Y-66647836D01*
X143096225Y-66659941D01*
X143096435Y-66660001D01*
X143119201Y-66670248D01*
X143125743Y-66678782D01*
X143135706Y-66691384D01*
X143161969Y-66714350D01*
X143199096Y-66743689D01*
X143241647Y-66775407D01*
X143284186Y-66805512D01*
X143321276Y-66830013D01*
X143347477Y-66844915D01*
X143355659Y-66847590D01*
X143369775Y-66836694D01*
X143373230Y-66820770D01*
X143377919Y-66802521D01*
X143385356Y-66801444D01*
X143400908Y-66799419D01*
X143413293Y-66774319D01*
X143421890Y-66728995D01*
X143426076Y-66666300D01*
X143426071Y-66614503D01*
X143415437Y-66571715D01*
X143386439Y-66515531D01*
X143341009Y-66448888D01*
X143281078Y-66374724D01*
X143234500Y-66323063D01*
X143198318Y-66283285D01*
X143170172Y-66250045D01*
X143154074Y-66228195D01*
X143151794Y-66222993D01*
X143141080Y-66209841D01*
X143126770Y-66203146D01*
X143109875Y-66191785D01*
X143078003Y-66164987D01*
X143034534Y-66125799D01*
X142998648Y-66092103D01*
X142769667Y-66092103D01*
X142758583Y-66083606D01*
X142741487Y-66066051D01*
X142728200Y-66047346D01*
X142729822Y-66040000D01*
X142745262Y-66049828D01*
X142758002Y-66066051D01*
X142768790Y-66085954D01*
X142769667Y-66092103D01*
X142998648Y-66092103D01*
X142982848Y-66077268D01*
X142927063Y-66023166D01*
X142827734Y-65926101D01*
X142743136Y-65845346D01*
X142670145Y-65778242D01*
X142605637Y-65722128D01*
X142546487Y-65674347D01*
X142489571Y-65632238D01*
X142431763Y-65593143D01*
X142392633Y-65568338D01*
X142326159Y-65528597D01*
X142251231Y-65486128D01*
X142180393Y-65447971D01*
X142155333Y-65435152D01*
X142101161Y-65408512D01*
X142063387Y-65392151D01*
X142035270Y-65384369D01*
X142010072Y-65383470D01*
X141981056Y-65387753D01*
X141973282Y-65389263D01*
X141921514Y-65403218D01*
X141890006Y-65423746D01*
X141872976Y-65456637D01*
X141865752Y-65496974D01*
X141865148Y-65545421D01*
X141871485Y-65601522D01*
X141882973Y-65655804D01*
X141897818Y-65698796D01*
X141906891Y-65714359D01*
X141922017Y-65738027D01*
X141941334Y-65773531D01*
X141947568Y-65786000D01*
X141970740Y-65828187D01*
X141996014Y-65866819D01*
X142001161Y-65873591D01*
X142022247Y-65904804D01*
X142047601Y-65948794D01*
X142065916Y-65984309D01*
X142090553Y-66032326D01*
X142115933Y-66077651D01*
X142131225Y-66102304D01*
X142152728Y-66140932D01*
X142167282Y-66178801D01*
X142168227Y-66182685D01*
X142182937Y-66218139D01*
X142207619Y-66253819D01*
X142210017Y-66256478D01*
X142233339Y-66287216D01*
X142263681Y-66334849D01*
X142297266Y-66392566D01*
X142330318Y-66453552D01*
X142359059Y-66510995D01*
X142379714Y-66558083D01*
X142384394Y-66571038D01*
X142398516Y-66607655D01*
X142420057Y-66656627D01*
X142443939Y-66706509D01*
X142464962Y-66749453D01*
X142480413Y-66782940D01*
X142487360Y-66800574D01*
X142487487Y-66801445D01*
X142492606Y-66815863D01*
X142506484Y-66848762D01*
X142526899Y-66894998D01*
X142547598Y-66940652D01*
X142574896Y-67004098D01*
X142599175Y-67067699D01*
X142618890Y-67126517D01*
X142632495Y-67175614D01*
X142638447Y-67210051D01*
X142636285Y-67224159D01*
X142624824Y-67218499D01*
X142600575Y-67196077D01*
X142566875Y-67160590D01*
X142527062Y-67115737D01*
X142484474Y-67065214D01*
X142442450Y-67012720D01*
X142425693Y-66990872D01*
X142391898Y-66946694D01*
X142362956Y-66909846D01*
X142343157Y-66885742D01*
X142338017Y-66880154D01*
X142323380Y-66863042D01*
X142299592Y-66832003D01*
X142277730Y-66802000D01*
X142247502Y-66760645D01*
X142218747Y-66722986D01*
X142203646Y-66704308D01*
X142148736Y-66638868D01*
X142103857Y-66583185D01*
X142062837Y-66529157D01*
X142019506Y-66468677D01*
X141972974Y-66401362D01*
X141931033Y-66339972D01*
X141890463Y-66280380D01*
X141855481Y-66228793D01*
X141830303Y-66191418D01*
X141827283Y-66186898D01*
X141794666Y-66139288D01*
X141759426Y-66089767D01*
X141744750Y-66069826D01*
X141721487Y-66034619D01*
X141691696Y-65983690D01*
X141659863Y-65924923D01*
X141639893Y-65885628D01*
X141607217Y-65823529D01*
X141571294Y-65761845D01*
X141537502Y-65709553D01*
X141520529Y-65686469D01*
X141487932Y-65642416D01*
X141459304Y-65598400D01*
X141443428Y-65569187D01*
X141422956Y-65534979D01*
X141386700Y-65485966D01*
X141337467Y-65425591D01*
X141278065Y-65357297D01*
X141211406Y-65284640D01*
X141183728Y-65249131D01*
X141152843Y-65200357D01*
X141126369Y-65150724D01*
X141084115Y-65062271D01*
X141109413Y-65030110D01*
X141125303Y-65007938D01*
X141124678Y-64999270D01*
X141112690Y-64997949D01*
X141091691Y-65004561D01*
G36*
X140151494Y-66545382D02*
X140142871Y-66559431D01*
X140134519Y-66573806D01*
X140113443Y-66598808D01*
X140101820Y-66611094D01*
X140060768Y-66653083D01*
X140076648Y-66727541D01*
X140088041Y-66771542D01*
X140106109Y-66830851D01*
X140128029Y-66896515D01*
X140143750Y-66940377D01*
X140164172Y-66996257D01*
X140180728Y-67042913D01*
X140191586Y-67075091D01*
X140194974Y-67087286D01*
X140200229Y-67102181D01*
X140214242Y-67134532D01*
X140234389Y-67178363D01*
X140242920Y-67196396D01*
X140269749Y-67255300D01*
X140295901Y-67317079D01*
X140316154Y-67369348D01*
X140317818Y-67374042D01*
X140344769Y-67451110D01*
X140434353Y-67481208D01*
X140523936Y-67511306D01*
X140517724Y-67456192D01*
X140515942Y-67415080D01*
X140519215Y-67381234D01*
X140520940Y-67375078D01*
X140522637Y-67342905D01*
X140516184Y-67323026D01*
X140504570Y-67299860D01*
X140501012Y-67290462D01*
X140493744Y-67263107D01*
X140479025Y-67219755D01*
X140459864Y-67168269D01*
X140439272Y-67116509D01*
X140420259Y-67072338D01*
X140407791Y-67046995D01*
X140391342Y-67010359D01*
X140388905Y-66988680D01*
X140398686Y-66984888D01*
X140418893Y-67001916D01*
X140428251Y-67013543D01*
X140450666Y-67042921D01*
X140467870Y-67064619D01*
X140468371Y-67065219D01*
X140480269Y-67086593D01*
X140481538Y-67093442D01*
X140489837Y-67109478D01*
X140491307Y-67110273D01*
X140508731Y-67126753D01*
X140531356Y-67158920D01*
X140554277Y-67198451D01*
X140572587Y-67237022D01*
X140580691Y-67261942D01*
X140595693Y-67300836D01*
X140620795Y-67338422D01*
X140623285Y-67341194D01*
X140661953Y-67387729D01*
X140703314Y-67444952D01*
X140739455Y-67501520D01*
X140755498Y-67530740D01*
X140777610Y-67565634D01*
X140807671Y-67602555D01*
X140813692Y-67608894D01*
X140842940Y-67643376D01*
X140865659Y-67678151D01*
X140868772Y-67684487D01*
X140887448Y-67713073D01*
X140905363Y-67718164D01*
X140919142Y-67699175D01*
X140920828Y-67693520D01*
X140933847Y-67674023D01*
X140947129Y-67674136D01*
X140972593Y-67672492D01*
X141004983Y-67657245D01*
X141034888Y-67634637D01*
X141052898Y-67610913D01*
X141054666Y-67602783D01*
X141060898Y-67578292D01*
X141067692Y-67570513D01*
X141079938Y-67553082D01*
X141068682Y-67528769D01*
X141058374Y-67517466D01*
X141041233Y-67491795D01*
X141021850Y-67450873D01*
X141004201Y-67404751D01*
X140992257Y-67363476D01*
X140989419Y-67343064D01*
X140983861Y-67320716D01*
X140969708Y-67284760D01*
X140957262Y-67257897D01*
X140933710Y-67200974D01*
X140925248Y-67157952D01*
X140932341Y-67131742D01*
X140936625Y-67128142D01*
X140951455Y-67132373D01*
X140970964Y-67152869D01*
X140972446Y-67154979D01*
X141000215Y-67190831D01*
X141025359Y-67218613D01*
X141045785Y-67241706D01*
X141054655Y-67257103D01*
X141054666Y-67257380D01*
X141061548Y-67273587D01*
X141078258Y-67300018D01*
X141079686Y-67302039D01*
X141099408Y-67333039D01*
X141124022Y-67376345D01*
X141150375Y-67425779D01*
X141175319Y-67475161D01*
X141195700Y-67518313D01*
X141208368Y-67549055D01*
X141210974Y-67559479D01*
X141220898Y-67578478D01*
X141241383Y-67596350D01*
X141271131Y-67623258D01*
X141288198Y-67646930D01*
X141308786Y-67671865D01*
X141342478Y-67700455D01*
X141361550Y-67713580D01*
X141399321Y-67741095D01*
X141430070Y-67769758D01*
X141439349Y-67781403D01*
X141457663Y-67802450D01*
X141473643Y-67801713D01*
X141477526Y-67798854D01*
X141488603Y-67775849D01*
X141487705Y-67757162D01*
X141486586Y-67737295D01*
X141498819Y-67736474D01*
X141513330Y-67750480D01*
X141513820Y-67757756D01*
X141518210Y-67771049D01*
X141537918Y-67768580D01*
X141568392Y-67751435D01*
X141581458Y-67741612D01*
X141602504Y-67723531D01*
X141612617Y-67707083D01*
X141613711Y-67683787D01*
X141607699Y-67645160D01*
X141605696Y-67634215D01*
X141597881Y-67583352D01*
X141597869Y-67556460D01*
X141605997Y-67552551D01*
X141622603Y-67570639D01*
X141625858Y-67575206D01*
X141651043Y-67607965D01*
X141676641Y-67637670D01*
X141696654Y-67661184D01*
X141705878Y-67675680D01*
X141705948Y-67676230D01*
X141713709Y-67688951D01*
X141733977Y-67715457D01*
X141760090Y-67747278D01*
X141800420Y-67787528D01*
X141836821Y-67809685D01*
X141865822Y-67812226D01*
X141880715Y-67800208D01*
X141897352Y-67793657D01*
X141918462Y-67794813D01*
X141946144Y-67792134D01*
X141974423Y-67770199D01*
X141983901Y-67759503D01*
X142005797Y-67730072D01*
X142017880Y-67707211D01*
X142018700Y-67703026D01*
X142019276Y-67683786D01*
X142020697Y-67645423D01*
X142022703Y-67594840D01*
X142023654Y-67571709D01*
X142024921Y-67507930D01*
X142021856Y-67461964D01*
X142013539Y-67425796D01*
X142004265Y-67402376D01*
X141988794Y-67358792D01*
X141980307Y-67316435D01*
X141979773Y-67307092D01*
X141974090Y-67268654D01*
X141960227Y-67223363D01*
X141954452Y-67209400D01*
X141954172Y-67208769D01*
X141694916Y-67208769D01*
X141687053Y-67212308D01*
X141673909Y-67205795D01*
X141289128Y-67205795D01*
X141282615Y-67212308D01*
X141276102Y-67205795D01*
X141282615Y-67199282D01*
X141289128Y-67205795D01*
X141673909Y-67205795D01*
X141666170Y-67201961D01*
X141653846Y-67186256D01*
X141645802Y-67166142D01*
X141647333Y-67160205D01*
X141647962Y-67150662D01*
X141640820Y-67134154D01*
X141630655Y-67112145D01*
X141633395Y-67109661D01*
X141646935Y-67124934D01*
X141669170Y-67156196D01*
X141671838Y-67160205D01*
X141691264Y-67192650D01*
X141694916Y-67208769D01*
X141954172Y-67208769D01*
X141933851Y-67163120D01*
X141913759Y-67117327D01*
X141909422Y-67107312D01*
X141890850Y-67076033D01*
X141859466Y-67034536D01*
X141821279Y-66990615D01*
X141811512Y-66980312D01*
X141771102Y-66940015D01*
X141741726Y-66915701D01*
X141717479Y-66903559D01*
X141692457Y-66899780D01*
X141686580Y-66899692D01*
X141643793Y-66905658D01*
X141597330Y-66920421D01*
X141587976Y-66924616D01*
X141536391Y-66949539D01*
X141504570Y-66895240D01*
X141476699Y-66855336D01*
X141439028Y-66810730D01*
X141413109Y-66784101D01*
X141378155Y-66752669D01*
X141353143Y-66736867D01*
X141330486Y-66733051D01*
X141312000Y-66735554D01*
X141273324Y-66750696D01*
X141237172Y-66775820D01*
X141236205Y-66776734D01*
X141215852Y-66799622D01*
X141206880Y-66823425D01*
X141206371Y-66858506D01*
X141207833Y-66877451D01*
X141214447Y-66925189D01*
X141226036Y-66984874D01*
X141239937Y-67042974D01*
X141253453Y-67093502D01*
X141265027Y-67136827D01*
X141272418Y-67164556D01*
X141272991Y-67166718D01*
X141273008Y-67178605D01*
X141262613Y-67170954D01*
X141244195Y-67146915D01*
X141220143Y-67109639D01*
X141192843Y-67062276D01*
X141190328Y-67057662D01*
X141162298Y-67013790D01*
X141123118Y-66962153D01*
X141080561Y-66912892D01*
X141074205Y-66906166D01*
X141029774Y-66862332D01*
X140993272Y-66833739D01*
X140956724Y-66814994D01*
X140922405Y-66803555D01*
X140867392Y-66789194D01*
X140828972Y-66784848D01*
X140799146Y-66791936D01*
X140769914Y-66811873D01*
X140744675Y-66835048D01*
X140712243Y-66869159D01*
X140695719Y-66896994D01*
X140690195Y-66927942D01*
X140689948Y-66939711D01*
X140688651Y-66972241D01*
X140682590Y-66984014D01*
X140668507Y-66980278D01*
X140665696Y-66978809D01*
X140647826Y-66961949D01*
X140622025Y-66928776D01*
X140593149Y-66885674D01*
X140585823Y-66873774D01*
X140530641Y-66796530D01*
X140460563Y-66719410D01*
X140382829Y-66649301D01*
X140304681Y-66593089D01*
X140270311Y-66573654D01*
X140219441Y-66551936D01*
X140178410Y-66542353D01*
X140151494Y-66545382D01*
X140151494Y-66545382D01*
G37*
X140151494Y-66545382D02*
X140142871Y-66559431D01*
X140134519Y-66573806D01*
X140113443Y-66598808D01*
X140101820Y-66611094D01*
X140060768Y-66653083D01*
X140076648Y-66727541D01*
X140088041Y-66771542D01*
X140106109Y-66830851D01*
X140128029Y-66896515D01*
X140143750Y-66940377D01*
X140164172Y-66996257D01*
X140180728Y-67042913D01*
X140191586Y-67075091D01*
X140194974Y-67087286D01*
X140200229Y-67102181D01*
X140214242Y-67134532D01*
X140234389Y-67178363D01*
X140242920Y-67196396D01*
X140269749Y-67255300D01*
X140295901Y-67317079D01*
X140316154Y-67369348D01*
X140317818Y-67374042D01*
X140344769Y-67451110D01*
X140434353Y-67481208D01*
X140523936Y-67511306D01*
X140517724Y-67456192D01*
X140515942Y-67415080D01*
X140519215Y-67381234D01*
X140520940Y-67375078D01*
X140522637Y-67342905D01*
X140516184Y-67323026D01*
X140504570Y-67299860D01*
X140501012Y-67290462D01*
X140493744Y-67263107D01*
X140479025Y-67219755D01*
X140459864Y-67168269D01*
X140439272Y-67116509D01*
X140420259Y-67072338D01*
X140407791Y-67046995D01*
X140391342Y-67010359D01*
X140388905Y-66988680D01*
X140398686Y-66984888D01*
X140418893Y-67001916D01*
X140428251Y-67013543D01*
X140450666Y-67042921D01*
X140467870Y-67064619D01*
X140468371Y-67065219D01*
X140480269Y-67086593D01*
X140481538Y-67093442D01*
X140489837Y-67109478D01*
X140491307Y-67110273D01*
X140508731Y-67126753D01*
X140531356Y-67158920D01*
X140554277Y-67198451D01*
X140572587Y-67237022D01*
X140580691Y-67261942D01*
X140595693Y-67300836D01*
X140620795Y-67338422D01*
X140623285Y-67341194D01*
X140661953Y-67387729D01*
X140703314Y-67444952D01*
X140739455Y-67501520D01*
X140755498Y-67530740D01*
X140777610Y-67565634D01*
X140807671Y-67602555D01*
X140813692Y-67608894D01*
X140842940Y-67643376D01*
X140865659Y-67678151D01*
X140868772Y-67684487D01*
X140887448Y-67713073D01*
X140905363Y-67718164D01*
X140919142Y-67699175D01*
X140920828Y-67693520D01*
X140933847Y-67674023D01*
X140947129Y-67674136D01*
X140972593Y-67672492D01*
X141004983Y-67657245D01*
X141034888Y-67634637D01*
X141052898Y-67610913D01*
X141054666Y-67602783D01*
X141060898Y-67578292D01*
X141067692Y-67570513D01*
X141079938Y-67553082D01*
X141068682Y-67528769D01*
X141058374Y-67517466D01*
X141041233Y-67491795D01*
X141021850Y-67450873D01*
X141004201Y-67404751D01*
X140992257Y-67363476D01*
X140989419Y-67343064D01*
X140983861Y-67320716D01*
X140969708Y-67284760D01*
X140957262Y-67257897D01*
X140933710Y-67200974D01*
X140925248Y-67157952D01*
X140932341Y-67131742D01*
X140936625Y-67128142D01*
X140951455Y-67132373D01*
X140970964Y-67152869D01*
X140972446Y-67154979D01*
X141000215Y-67190831D01*
X141025359Y-67218613D01*
X141045785Y-67241706D01*
X141054655Y-67257103D01*
X141054666Y-67257380D01*
X141061548Y-67273587D01*
X141078258Y-67300018D01*
X141079686Y-67302039D01*
X141099408Y-67333039D01*
X141124022Y-67376345D01*
X141150375Y-67425779D01*
X141175319Y-67475161D01*
X141195700Y-67518313D01*
X141208368Y-67549055D01*
X141210974Y-67559479D01*
X141220898Y-67578478D01*
X141241383Y-67596350D01*
X141271131Y-67623258D01*
X141288198Y-67646930D01*
X141308786Y-67671865D01*
X141342478Y-67700455D01*
X141361550Y-67713580D01*
X141399321Y-67741095D01*
X141430070Y-67769758D01*
X141439349Y-67781403D01*
X141457663Y-67802450D01*
X141473643Y-67801713D01*
X141477526Y-67798854D01*
X141488603Y-67775849D01*
X141487705Y-67757162D01*
X141486586Y-67737295D01*
X141498819Y-67736474D01*
X141513330Y-67750480D01*
X141513820Y-67757756D01*
X141518210Y-67771049D01*
X141537918Y-67768580D01*
X141568392Y-67751435D01*
X141581458Y-67741612D01*
X141602504Y-67723531D01*
X141612617Y-67707083D01*
X141613711Y-67683787D01*
X141607699Y-67645160D01*
X141605696Y-67634215D01*
X141597881Y-67583352D01*
X141597869Y-67556460D01*
X141605997Y-67552551D01*
X141622603Y-67570639D01*
X141625858Y-67575206D01*
X141651043Y-67607965D01*
X141676641Y-67637670D01*
X141696654Y-67661184D01*
X141705878Y-67675680D01*
X141705948Y-67676230D01*
X141713709Y-67688951D01*
X141733977Y-67715457D01*
X141760090Y-67747278D01*
X141800420Y-67787528D01*
X141836821Y-67809685D01*
X141865822Y-67812226D01*
X141880715Y-67800208D01*
X141897352Y-67793657D01*
X141918462Y-67794813D01*
X141946144Y-67792134D01*
X141974423Y-67770199D01*
X141983901Y-67759503D01*
X142005797Y-67730072D01*
X142017880Y-67707211D01*
X142018700Y-67703026D01*
X142019276Y-67683786D01*
X142020697Y-67645423D01*
X142022703Y-67594840D01*
X142023654Y-67571709D01*
X142024921Y-67507930D01*
X142021856Y-67461964D01*
X142013539Y-67425796D01*
X142004265Y-67402376D01*
X141988794Y-67358792D01*
X141980307Y-67316435D01*
X141979773Y-67307092D01*
X141974090Y-67268654D01*
X141960227Y-67223363D01*
X141954452Y-67209400D01*
X141954172Y-67208769D01*
X141694916Y-67208769D01*
X141687053Y-67212308D01*
X141673909Y-67205795D01*
X141289128Y-67205795D01*
X141282615Y-67212308D01*
X141276102Y-67205795D01*
X141282615Y-67199282D01*
X141289128Y-67205795D01*
X141673909Y-67205795D01*
X141666170Y-67201961D01*
X141653846Y-67186256D01*
X141645802Y-67166142D01*
X141647333Y-67160205D01*
X141647962Y-67150662D01*
X141640820Y-67134154D01*
X141630655Y-67112145D01*
X141633395Y-67109661D01*
X141646935Y-67124934D01*
X141669170Y-67156196D01*
X141671838Y-67160205D01*
X141691264Y-67192650D01*
X141694916Y-67208769D01*
X141954172Y-67208769D01*
X141933851Y-67163120D01*
X141913759Y-67117327D01*
X141909422Y-67107312D01*
X141890850Y-67076033D01*
X141859466Y-67034536D01*
X141821279Y-66990615D01*
X141811512Y-66980312D01*
X141771102Y-66940015D01*
X141741726Y-66915701D01*
X141717479Y-66903559D01*
X141692457Y-66899780D01*
X141686580Y-66899692D01*
X141643793Y-66905658D01*
X141597330Y-66920421D01*
X141587976Y-66924616D01*
X141536391Y-66949539D01*
X141504570Y-66895240D01*
X141476699Y-66855336D01*
X141439028Y-66810730D01*
X141413109Y-66784101D01*
X141378155Y-66752669D01*
X141353143Y-66736867D01*
X141330486Y-66733051D01*
X141312000Y-66735554D01*
X141273324Y-66750696D01*
X141237172Y-66775820D01*
X141236205Y-66776734D01*
X141215852Y-66799622D01*
X141206880Y-66823425D01*
X141206371Y-66858506D01*
X141207833Y-66877451D01*
X141214447Y-66925189D01*
X141226036Y-66984874D01*
X141239937Y-67042974D01*
X141253453Y-67093502D01*
X141265027Y-67136827D01*
X141272418Y-67164556D01*
X141272991Y-67166718D01*
X141273008Y-67178605D01*
X141262613Y-67170954D01*
X141244195Y-67146915D01*
X141220143Y-67109639D01*
X141192843Y-67062276D01*
X141190328Y-67057662D01*
X141162298Y-67013790D01*
X141123118Y-66962153D01*
X141080561Y-66912892D01*
X141074205Y-66906166D01*
X141029774Y-66862332D01*
X140993272Y-66833739D01*
X140956724Y-66814994D01*
X140922405Y-66803555D01*
X140867392Y-66789194D01*
X140828972Y-66784848D01*
X140799146Y-66791936D01*
X140769914Y-66811873D01*
X140744675Y-66835048D01*
X140712243Y-66869159D01*
X140695719Y-66896994D01*
X140690195Y-66927942D01*
X140689948Y-66939711D01*
X140688651Y-66972241D01*
X140682590Y-66984014D01*
X140668507Y-66980278D01*
X140665696Y-66978809D01*
X140647826Y-66961949D01*
X140622025Y-66928776D01*
X140593149Y-66885674D01*
X140585823Y-66873774D01*
X140530641Y-66796530D01*
X140460563Y-66719410D01*
X140382829Y-66649301D01*
X140304681Y-66593089D01*
X140270311Y-66573654D01*
X140219441Y-66551936D01*
X140178410Y-66542353D01*
X140151494Y-66545382D01*
G36*
X138287052Y-65076583D02*
X138268772Y-65104037D01*
X138267179Y-65115918D01*
X138259035Y-65136629D01*
X138248099Y-65141231D01*
X138229678Y-65150221D01*
X138213526Y-65170059D01*
X138207072Y-65190040D01*
X138209666Y-65196606D01*
X138213984Y-65211800D01*
X138219656Y-65246446D01*
X138225675Y-65294051D01*
X138227647Y-65312293D01*
X138240264Y-65393706D01*
X138261895Y-65464552D01*
X138282953Y-65512462D01*
X138321023Y-65585970D01*
X138361466Y-65655002D01*
X138399836Y-65712296D01*
X138423487Y-65741986D01*
X138459230Y-65782621D01*
X138495165Y-65825182D01*
X138537529Y-65877130D01*
X138563701Y-65909744D01*
X138602395Y-65956568D01*
X138641791Y-66001703D01*
X138674079Y-66036234D01*
X138677239Y-66039373D01*
X138704017Y-66068847D01*
X138720527Y-66093197D01*
X138723076Y-66101245D01*
X138731044Y-66116819D01*
X138736102Y-66118154D01*
X138746721Y-66129052D01*
X138749128Y-66143940D01*
X138736134Y-66169576D01*
X138697238Y-66196183D01*
X138694585Y-66197552D01*
X138657631Y-66218242D01*
X138628859Y-66237545D01*
X138622014Y-66243407D01*
X138602600Y-66258478D01*
X138594396Y-66261436D01*
X138581195Y-66273068D01*
X138566305Y-66303082D01*
X138552272Y-66344157D01*
X138541643Y-66388969D01*
X138537102Y-66426191D01*
X138533035Y-66462246D01*
X138525873Y-66484151D01*
X138521179Y-66487399D01*
X138507593Y-66475607D01*
X138488902Y-66448332D01*
X138481581Y-66435296D01*
X138444489Y-66366025D01*
X138416216Y-66315200D01*
X138393860Y-66278001D01*
X138374518Y-66249609D01*
X138355287Y-66225204D01*
X138354417Y-66224169D01*
X138324908Y-66183687D01*
X138296528Y-66136406D01*
X138289763Y-66123220D01*
X138270851Y-66089953D01*
X138253840Y-66069339D01*
X138247367Y-66066051D01*
X138234341Y-66055129D01*
X138216325Y-66027013D01*
X138203389Y-66001095D01*
X138180630Y-65959042D01*
X138155171Y-65923890D01*
X138142452Y-65911297D01*
X138120141Y-65890159D01*
X138110871Y-65874249D01*
X138100610Y-65859817D01*
X138078901Y-65844933D01*
X138057760Y-65826936D01*
X138028423Y-65793997D01*
X137996444Y-65753305D01*
X137967374Y-65712046D01*
X137946765Y-65677409D01*
X137942813Y-65668769D01*
X137930628Y-65650582D01*
X137910249Y-65627139D01*
X137867857Y-65582036D01*
X137838792Y-65548914D01*
X137817796Y-65521494D01*
X137803269Y-65499436D01*
X137756226Y-65433002D01*
X137710403Y-65385386D01*
X137667936Y-65358091D01*
X137630959Y-65352622D01*
X137609215Y-65362807D01*
X137592786Y-65384398D01*
X137589846Y-65395739D01*
X137580229Y-65414800D01*
X137557488Y-65436478D01*
X137525130Y-65460359D01*
X137563088Y-65539673D01*
X137587589Y-65584048D01*
X137613709Y-65620852D01*
X137633408Y-65640192D01*
X137655544Y-65660710D01*
X137685930Y-65696614D01*
X137719012Y-65741193D01*
X137728756Y-65755440D01*
X137771842Y-65818549D01*
X137806123Y-65865340D01*
X137836320Y-65901764D01*
X137867153Y-65933770D01*
X137879666Y-65945683D01*
X137903199Y-65972183D01*
X137915123Y-65994408D01*
X137915487Y-65997332D01*
X137921302Y-66009837D01*
X137926270Y-66008822D01*
X137938919Y-66014577D01*
X137961320Y-66034726D01*
X137987645Y-66062784D01*
X138012066Y-66092265D01*
X138028756Y-66116684D01*
X138032717Y-66127271D01*
X138042502Y-66141728D01*
X138058530Y-66154058D01*
X138078983Y-66174606D01*
X138103075Y-66209536D01*
X138116541Y-66233720D01*
X138137767Y-66270536D01*
X138157645Y-66296738D01*
X138167212Y-66304350D01*
X138183651Y-66319520D01*
X138204280Y-66349906D01*
X138214048Y-66367848D01*
X138233322Y-66405542D01*
X138249241Y-66435588D01*
X138253837Y-66443795D01*
X138264035Y-66463898D01*
X138281725Y-66501285D01*
X138303844Y-66549425D01*
X138314962Y-66574051D01*
X138340449Y-66627280D01*
X138366011Y-66674741D01*
X138387455Y-66708849D01*
X138394073Y-66717200D01*
X138414689Y-66740935D01*
X138423336Y-66756631D01*
X138417103Y-66765804D01*
X138393077Y-66769965D01*
X138348346Y-66770628D01*
X138293230Y-66769603D01*
X138232198Y-66764731D01*
X138185265Y-66750298D01*
X138141341Y-66721784D01*
X138111086Y-66695358D01*
X138080601Y-66671774D01*
X138052686Y-66657210D01*
X138052256Y-66657077D01*
X138021770Y-66642342D01*
X138000153Y-66626942D01*
X137972070Y-66608678D01*
X137927844Y-66585826D01*
X137875976Y-66562242D01*
X137824970Y-66541780D01*
X137783325Y-66528297D01*
X137781807Y-66527916D01*
X137715460Y-66523537D01*
X137648612Y-66539513D01*
X137591672Y-66573178D01*
X137586331Y-66577968D01*
X137557466Y-66608386D01*
X137537140Y-66635860D01*
X137533158Y-66643903D01*
X137522741Y-66660248D01*
X137506439Y-66653233D01*
X137504932Y-66652000D01*
X137479407Y-66640903D01*
X137442253Y-66634809D01*
X137436386Y-66634549D01*
X137398448Y-66638404D01*
X137367313Y-66656088D01*
X137347146Y-66675298D01*
X137319131Y-66699498D01*
X137288303Y-66713116D01*
X137249790Y-66716309D01*
X137198722Y-66709229D01*
X137130227Y-66692034D01*
X137099585Y-66683165D01*
X137009630Y-66657719D01*
X136928694Y-66637103D01*
X136861326Y-66622366D01*
X136812076Y-66614556D01*
X136797452Y-66613586D01*
X136770637Y-66622676D01*
X136737664Y-66645835D01*
X136706226Y-66675944D01*
X136684020Y-66705880D01*
X136678051Y-66724083D01*
X136670532Y-66741258D01*
X136664256Y-66743385D01*
X136656193Y-66751229D01*
X136657933Y-66755472D01*
X136654067Y-66768616D01*
X136642379Y-66774868D01*
X136626063Y-66790525D01*
X136608526Y-66822030D01*
X136594078Y-66859775D01*
X136587025Y-66894151D01*
X136586871Y-66898674D01*
X136597379Y-66911337D01*
X136624401Y-66930659D01*
X136648743Y-66945011D01*
X136701831Y-66983107D01*
X136747417Y-67032175D01*
X136778467Y-67084011D01*
X136785451Y-67104504D01*
X136788785Y-67123744D01*
X136780759Y-67125821D01*
X136758152Y-67114187D01*
X136701357Y-67077602D01*
X136650117Y-67036048D01*
X136622156Y-67007154D01*
X136600578Y-66985940D01*
X136584862Y-66977846D01*
X136568180Y-66970147D01*
X136539233Y-66950339D01*
X136516081Y-66932256D01*
X136483728Y-66907074D01*
X136459349Y-66890517D01*
X136450771Y-66886667D01*
X136434397Y-66879802D01*
X136407988Y-66863179D01*
X136406523Y-66862146D01*
X136365882Y-66842139D01*
X136310630Y-66825740D01*
X136251747Y-66815243D01*
X136200207Y-66812941D01*
X136182034Y-66815254D01*
X136145070Y-66834016D01*
X136129924Y-66858565D01*
X136115704Y-66894796D01*
X136104923Y-66919231D01*
X136090993Y-66951350D01*
X136079060Y-66982161D01*
X136065088Y-67003994D01*
X136048507Y-67012863D01*
X136037148Y-67007031D01*
X136036861Y-66991532D01*
X136033034Y-66981770D01*
X136028142Y-66983510D01*
X136010330Y-66981657D01*
X135996185Y-66971453D01*
X135977058Y-66955560D01*
X135968701Y-66951795D01*
X135954770Y-66944087D01*
X135924320Y-66922802D01*
X135881126Y-66890700D01*
X135828961Y-66850540D01*
X135811846Y-66837112D01*
X135765228Y-66810262D01*
X135701376Y-66786410D01*
X135628792Y-66767475D01*
X135555978Y-66755376D01*
X135491436Y-66752033D01*
X135453974Y-66756331D01*
X135426978Y-66772406D01*
X135395237Y-66804988D01*
X135363725Y-66846879D01*
X135337416Y-66890881D01*
X135321282Y-66929795D01*
X135318927Y-66951795D01*
X135328460Y-66991343D01*
X135343360Y-67036446D01*
X135360216Y-67078193D01*
X135375617Y-67107669D01*
X135381232Y-67114615D01*
X135399582Y-67133901D01*
X135425993Y-67165009D01*
X135455758Y-67201940D01*
X135484168Y-67238696D01*
X135506517Y-67269278D01*
X135518097Y-67287687D01*
X135518769Y-67289875D01*
X135525904Y-67304045D01*
X135544635Y-67333350D01*
X135570955Y-67372069D01*
X135600855Y-67414478D01*
X135630326Y-67454853D01*
X135655359Y-67487471D01*
X135666674Y-67501043D01*
X135678886Y-67520989D01*
X135678333Y-67530350D01*
X135680700Y-67537368D01*
X135685931Y-67537949D01*
X135698694Y-67548708D01*
X135701128Y-67561395D01*
X135711947Y-67594172D01*
X135744005Y-67612324D01*
X135778992Y-67616103D01*
X135822691Y-67608862D01*
X135849321Y-67585368D01*
X135860878Y-67542964D01*
X135861365Y-67506393D01*
X135857868Y-67464365D01*
X135852286Y-67431176D01*
X135849322Y-67421726D01*
X135840683Y-67398814D01*
X135839022Y-67391833D01*
X135830509Y-67375632D01*
X135817524Y-67358692D01*
X135797464Y-67330162D01*
X135788625Y-67312680D01*
X135775778Y-67293840D01*
X135768187Y-67290462D01*
X135757348Y-67280287D01*
X135737964Y-67254301D01*
X135714415Y-67219312D01*
X135691081Y-67182128D01*
X135672343Y-67149555D01*
X135662580Y-67128403D01*
X135662051Y-67125506D01*
X135654704Y-67109490D01*
X135637860Y-67088151D01*
X135619316Y-67070039D01*
X135606864Y-67063703D01*
X135606125Y-67064165D01*
X135596633Y-67059001D01*
X135582357Y-67038418D01*
X135568191Y-67011183D01*
X135559031Y-66986063D01*
X135557846Y-66977690D01*
X135568491Y-66969051D01*
X135595236Y-66969312D01*
X135630292Y-66976979D01*
X135665871Y-66990555D01*
X135686321Y-67002352D01*
X135719438Y-67022411D01*
X135747155Y-67034736D01*
X135769468Y-67047832D01*
X135802380Y-67074233D01*
X135838335Y-67107802D01*
X135871783Y-67140005D01*
X135898522Y-67163311D01*
X135913021Y-67172913D01*
X135913344Y-67172947D01*
X135931648Y-67180532D01*
X135939395Y-67186060D01*
X135959234Y-67202100D01*
X135989053Y-67226075D01*
X135997717Y-67233023D01*
X136023556Y-67258967D01*
X136036474Y-67282406D01*
X136036794Y-67288057D01*
X136045458Y-67308550D01*
X136072359Y-67326438D01*
X136113522Y-67345503D01*
X136136158Y-67358322D01*
X136145854Y-67368501D01*
X136147828Y-67375128D01*
X136159023Y-67392468D01*
X136185905Y-67420152D01*
X136222856Y-67453527D01*
X136264259Y-67487942D01*
X136304499Y-67518744D01*
X136337959Y-67541281D01*
X136359021Y-67550901D01*
X136360124Y-67550974D01*
X136381362Y-67540490D01*
X136386427Y-67532346D01*
X136403049Y-67514875D01*
X136430326Y-67500906D01*
X136462475Y-67479229D01*
X136475874Y-67448043D01*
X136485576Y-67417671D01*
X136496619Y-67400607D01*
X136496694Y-67400560D01*
X136508992Y-67379120D01*
X136507853Y-67343955D01*
X136495454Y-67302193D01*
X136473972Y-67260962D01*
X136445584Y-67227392D01*
X136443179Y-67225333D01*
X136432090Y-67211747D01*
X136411595Y-67183437D01*
X136393166Y-67156815D01*
X136369510Y-67115387D01*
X136364724Y-67090980D01*
X136376969Y-67084812D01*
X136404404Y-67098101D01*
X136439138Y-67126385D01*
X136500050Y-67180440D01*
X136554433Y-67222856D01*
X136612923Y-67261594D01*
X136647578Y-67282390D01*
X136688403Y-67308465D01*
X136719731Y-67332465D01*
X136734944Y-67349306D01*
X136735076Y-67349629D01*
X136750044Y-67364517D01*
X136782652Y-67385538D01*
X136826536Y-67408703D01*
X136837914Y-67414081D01*
X136886407Y-67438418D01*
X136927950Y-67462720D01*
X136954703Y-67482334D01*
X136957265Y-67484921D01*
X136976837Y-67504097D01*
X136994083Y-67509633D01*
X137016890Y-67500990D01*
X137051960Y-67478424D01*
X137091919Y-67446473D01*
X137116408Y-67411808D01*
X137128579Y-67367174D01*
X137131584Y-67305315D01*
X137131462Y-67295428D01*
X137128905Y-67242895D01*
X137121688Y-67206686D01*
X137107223Y-67177158D01*
X137095189Y-67160205D01*
X137068518Y-67120350D01*
X137046703Y-67079716D01*
X137043513Y-67072282D01*
X137029293Y-67044060D01*
X137016571Y-67030231D01*
X137015137Y-67029949D01*
X137004833Y-67019445D01*
X137003692Y-67011390D01*
X136994819Y-66992871D01*
X136971889Y-66964313D01*
X136948680Y-66940487D01*
X136920593Y-66911261D01*
X136903958Y-66888946D01*
X136901913Y-66879899D01*
X136917131Y-66880438D01*
X136949239Y-66889706D01*
X136991381Y-66905711D01*
X136992745Y-66906282D01*
X137062527Y-66929691D01*
X137136186Y-66944594D01*
X137206463Y-66950302D01*
X137266103Y-66946126D01*
X137300600Y-66935546D01*
X137330477Y-66924437D01*
X137350636Y-66923619D01*
X137351590Y-66924151D01*
X137363642Y-66938635D01*
X137384535Y-66969438D01*
X137410071Y-67010325D01*
X137414031Y-67016923D01*
X137441914Y-67061243D01*
X137467999Y-67098651D01*
X137486994Y-67121596D01*
X137488133Y-67122656D01*
X137506674Y-67147134D01*
X137511692Y-67164248D01*
X137519712Y-67183119D01*
X137541065Y-67215431D01*
X137571691Y-67255230D01*
X137583188Y-67269049D01*
X137634361Y-67323757D01*
X137679733Y-67359162D01*
X137712607Y-67375445D01*
X137748341Y-67392061D01*
X137772475Y-67408796D01*
X137777314Y-67415243D01*
X137792898Y-67431244D01*
X137823156Y-67448970D01*
X137832465Y-67453130D01*
X137868970Y-67473150D01*
X137896695Y-67496478D01*
X137899886Y-67500541D01*
X137932227Y-67529735D01*
X137980974Y-67554851D01*
X138036483Y-67571802D01*
X138079691Y-67576740D01*
X138119825Y-67572237D01*
X138158083Y-67555445D01*
X138194352Y-67530315D01*
X138264827Y-67472991D01*
X138314569Y-67422357D01*
X138346081Y-67373321D01*
X138361867Y-67320794D01*
X138362595Y-67303415D01*
X138162181Y-67303415D01*
X138156680Y-67328789D01*
X138137977Y-67352454D01*
X138110605Y-67366794D01*
X138099809Y-67368201D01*
X138080533Y-67362021D01*
X138046438Y-67345378D01*
X138004687Y-67321789D01*
X138002117Y-67320243D01*
X137953329Y-67287046D01*
X137898122Y-67243415D01*
X137840059Y-67192891D01*
X137782704Y-67139014D01*
X137729621Y-67085324D01*
X137684375Y-67035360D01*
X137650528Y-66992664D01*
X137631645Y-66960775D01*
X137628923Y-66949556D01*
X137621875Y-66926015D01*
X137608087Y-66901793D01*
X137594738Y-66877423D01*
X137598683Y-66859203D01*
X137605568Y-66850049D01*
X137624203Y-66821765D01*
X137639970Y-66790432D01*
X137650052Y-66769823D01*
X137662562Y-66759383D01*
X137684827Y-66756844D01*
X137724171Y-66759940D01*
X137734881Y-66761051D01*
X137783592Y-66769096D01*
X137833102Y-66782051D01*
X137877298Y-66797657D01*
X137910066Y-66813652D01*
X137925291Y-66827778D01*
X137925469Y-66831504D01*
X137931794Y-66846629D01*
X137951790Y-66871973D01*
X137964333Y-66885247D01*
X137989845Y-66914498D01*
X138004923Y-66938814D01*
X138006666Y-66945637D01*
X138016551Y-66967909D01*
X138023700Y-66973942D01*
X138040347Y-66993599D01*
X138061416Y-67031525D01*
X138084140Y-67080951D01*
X138105753Y-67135106D01*
X138123490Y-67187221D01*
X138134583Y-67230523D01*
X138136923Y-67251071D01*
X138143009Y-67275817D01*
X138149948Y-67283949D01*
X138162181Y-67303415D01*
X138362595Y-67303415D01*
X138364430Y-67259685D01*
X138358106Y-67197361D01*
X138349339Y-67141742D01*
X138339535Y-67088963D01*
X138331056Y-67051429D01*
X138323651Y-67018662D01*
X138321740Y-66998536D01*
X138322471Y-66996366D01*
X138337632Y-66991706D01*
X138370358Y-66985718D01*
X138412402Y-66979498D01*
X138455519Y-66974144D01*
X138491462Y-66970752D01*
X138511986Y-66970419D01*
X138513715Y-66970925D01*
X138523909Y-66985527D01*
X138542015Y-67019128D01*
X138565551Y-67066842D01*
X138592030Y-67123780D01*
X138596703Y-67134154D01*
X138611857Y-67170935D01*
X138630684Y-67220665D01*
X138646257Y-67264410D01*
X138663028Y-67310047D01*
X138678611Y-67347163D01*
X138689260Y-67367124D01*
X138702004Y-67390735D01*
X138704086Y-67399688D01*
X138709388Y-67424440D01*
X138712564Y-67433744D01*
X138720293Y-67457819D01*
X138730873Y-67495416D01*
X138735216Y-67511897D01*
X138747108Y-67553583D01*
X138758903Y-67588192D01*
X138762399Y-67596564D01*
X138771240Y-67621182D01*
X138783835Y-67663035D01*
X138797781Y-67714042D01*
X138800928Y-67726223D01*
X138814611Y-67775806D01*
X138827508Y-67815704D01*
X138837339Y-67839042D01*
X138839226Y-67841668D01*
X138858023Y-67847544D01*
X138873906Y-67833719D01*
X138879384Y-67810718D01*
X138883544Y-67789287D01*
X138897836Y-67789434D01*
X138920828Y-67807117D01*
X138938710Y-67820247D01*
X138954146Y-67817788D01*
X138977213Y-67798333D01*
X139000734Y-67768878D01*
X139007666Y-67736120D01*
X138998277Y-67693556D01*
X138983054Y-67656456D01*
X138967740Y-67612501D01*
X138964374Y-67578024D01*
X138965619Y-67572086D01*
X138975360Y-67513099D01*
X138973180Y-67444913D01*
X138960462Y-67377914D01*
X138938592Y-67322489D01*
X138930690Y-67310000D01*
X138923631Y-67292227D01*
X138912544Y-67255527D01*
X138899311Y-67206345D01*
X138892638Y-67179744D01*
X138876147Y-67115737D01*
X138857971Y-67050341D01*
X138841435Y-66995411D01*
X138837832Y-66984359D01*
X138816582Y-66919361D01*
X138803635Y-66873973D01*
X138798620Y-66843240D01*
X138801168Y-66822207D01*
X138810910Y-66805918D01*
X138823561Y-66793041D01*
X138853520Y-66758478D01*
X138875649Y-66723846D01*
X138897899Y-66689919D01*
X138929287Y-66652810D01*
X138939540Y-66642464D01*
X138965912Y-66613216D01*
X138981646Y-66588197D01*
X138983589Y-66580593D01*
X138989009Y-66562405D01*
X139001979Y-66564445D01*
X139017566Y-66584075D01*
X139026179Y-66603359D01*
X139035727Y-66634416D01*
X139038862Y-66653983D01*
X139038682Y-66654996D01*
X139043317Y-66670419D01*
X139058398Y-66703848D01*
X139081477Y-66750650D01*
X139110106Y-66806197D01*
X139141837Y-66865855D01*
X139174220Y-66924995D01*
X139204807Y-66978986D01*
X139231150Y-67023196D01*
X139243816Y-67042974D01*
X139264102Y-67078444D01*
X139283062Y-67119226D01*
X139283603Y-67120569D01*
X139301216Y-67156532D01*
X139320100Y-67184011D01*
X139321798Y-67185799D01*
X139334606Y-67204631D01*
X139356645Y-67243610D01*
X139386148Y-67299263D01*
X139421347Y-67368120D01*
X139460475Y-67446712D01*
X139501765Y-67531568D01*
X139543451Y-67619217D01*
X139554191Y-67642154D01*
X139588850Y-67723003D01*
X139620262Y-67808536D01*
X139646418Y-67892177D01*
X139665304Y-67967348D01*
X139674909Y-68027475D01*
X139675618Y-68039161D01*
X139677689Y-68079400D01*
X139684494Y-68101330D01*
X139701895Y-68109025D01*
X139735754Y-68106565D01*
X139765948Y-68101982D01*
X139800246Y-68087786D01*
X139823682Y-68056153D01*
X139837114Y-68004846D01*
X139841403Y-67931629D01*
X139841075Y-67906599D01*
X139828460Y-67790761D01*
X139798145Y-67670212D01*
X139753156Y-67556026D01*
X139736328Y-67522959D01*
X139650623Y-67363528D01*
X139565529Y-67202448D01*
X139543446Y-67160226D01*
X139512405Y-67102806D01*
X139482530Y-67051106D01*
X139457471Y-67011243D01*
X139442376Y-66990892D01*
X139426213Y-66968074D01*
X139401383Y-66926840D01*
X139370711Y-66872152D01*
X139337022Y-66808974D01*
X139320028Y-66775949D01*
X139280576Y-66696235D01*
X139252913Y-66634974D01*
X139235495Y-66588240D01*
X139226774Y-66552107D01*
X139225111Y-66534974D01*
X139221063Y-66502269D01*
X139209735Y-66467994D01*
X139188448Y-66426111D01*
X139154527Y-66370581D01*
X139147168Y-66359128D01*
X139115404Y-66310514D01*
X139088521Y-66270447D01*
X139069812Y-66243767D01*
X139063036Y-66235385D01*
X139052472Y-66222316D01*
X139031242Y-66192768D01*
X139003066Y-66151980D01*
X138987959Y-66129639D01*
X138954581Y-66076456D01*
X138935104Y-66037500D01*
X138930838Y-66015461D01*
X138931534Y-66013872D01*
X138943760Y-66006305D01*
X138963679Y-66018029D01*
X138970943Y-66024532D01*
X139004120Y-66049739D01*
X139042169Y-66071674D01*
X139076124Y-66091404D01*
X139101113Y-66112031D01*
X139102030Y-66113098D01*
X139128979Y-66134293D01*
X139174435Y-66158522D01*
X139232686Y-66183840D01*
X139298017Y-66208301D01*
X139364718Y-66229960D01*
X139427076Y-66246870D01*
X139479379Y-66257087D01*
X139515914Y-66258665D01*
X139523946Y-66256805D01*
X139538854Y-66238646D01*
X139543692Y-66209742D01*
X139549199Y-66178829D01*
X139563650Y-66170256D01*
X139583977Y-66158680D01*
X139597508Y-66129193D01*
X139601241Y-66089660D01*
X139599794Y-66075646D01*
X139578759Y-66005697D01*
X139559630Y-65974024D01*
X138902242Y-65974024D01*
X138900460Y-65974872D01*
X138888573Y-65965702D01*
X138885897Y-65961846D01*
X138882578Y-65949669D01*
X138884360Y-65948820D01*
X138896247Y-65957990D01*
X138898923Y-65961846D01*
X138902242Y-65974024D01*
X139559630Y-65974024D01*
X139536583Y-65935867D01*
X139531684Y-65930409D01*
X139257128Y-65930409D01*
X139253433Y-65935132D01*
X139239369Y-65930514D01*
X139210466Y-65914648D01*
X139186018Y-65900069D01*
X139147334Y-65874126D01*
X139128120Y-65855361D01*
X139129976Y-65845595D01*
X139137331Y-65844615D01*
X139152321Y-65851566D01*
X139179243Y-65868768D01*
X139210452Y-65890749D01*
X139238307Y-65912034D01*
X139255164Y-65927150D01*
X139257128Y-65930409D01*
X139531684Y-65930409D01*
X139471428Y-65863289D01*
X139451590Y-65844615D01*
X139400177Y-65797215D01*
X139083292Y-65797215D01*
X139078544Y-65800177D01*
X139055471Y-65788575D01*
X139052855Y-65787153D01*
X139027691Y-65769754D01*
X138989909Y-65739224D01*
X138945571Y-65700589D01*
X138918461Y-65675719D01*
X138863598Y-65626411D01*
X138821622Y-65595459D01*
X138787987Y-65581860D01*
X138758145Y-65584613D01*
X138727548Y-65602716D01*
X138699551Y-65627502D01*
X138656486Y-65668769D01*
X138599758Y-65603641D01*
X138548187Y-65537264D01*
X138507524Y-65470563D01*
X138479536Y-65407797D01*
X138465988Y-65353225D01*
X138468644Y-65311108D01*
X138473869Y-65299876D01*
X138491689Y-65294439D01*
X138525664Y-65302825D01*
X138571632Y-65322556D01*
X138625430Y-65351150D01*
X138682895Y-65386128D01*
X138739864Y-65425009D01*
X138792174Y-65465312D01*
X138835663Y-65504558D01*
X138857178Y-65528264D01*
X138877293Y-65551335D01*
X138909363Y-65586250D01*
X138947134Y-65626225D01*
X138954871Y-65634279D01*
X138998719Y-65680175D01*
X139028471Y-65712674D01*
X139048362Y-65736884D01*
X139062629Y-65757918D01*
X139073888Y-65777841D01*
X139083292Y-65797215D01*
X139400177Y-65797215D01*
X139380485Y-65779061D01*
X139323983Y-65725654D01*
X139277085Y-65679386D01*
X139234790Y-65635249D01*
X139192097Y-65588235D01*
X139165948Y-65558553D01*
X139096481Y-65481836D01*
X139023872Y-65406492D01*
X138952447Y-65336682D01*
X138886535Y-65276565D01*
X138830463Y-65230300D01*
X138806356Y-65212913D01*
X138727147Y-65165506D01*
X138644240Y-65125688D01*
X138564175Y-65096026D01*
X138493489Y-65079089D01*
X138458045Y-65076103D01*
X138411186Y-65073917D01*
X138370455Y-65068331D01*
X138354274Y-65064000D01*
X138318574Y-65061437D01*
X138287052Y-65076583D01*
X138287052Y-65076583D01*
G37*
X138287052Y-65076583D02*
X138268772Y-65104037D01*
X138267179Y-65115918D01*
X138259035Y-65136629D01*
X138248099Y-65141231D01*
X138229678Y-65150221D01*
X138213526Y-65170059D01*
X138207072Y-65190040D01*
X138209666Y-65196606D01*
X138213984Y-65211800D01*
X138219656Y-65246446D01*
X138225675Y-65294051D01*
X138227647Y-65312293D01*
X138240264Y-65393706D01*
X138261895Y-65464552D01*
X138282953Y-65512462D01*
X138321023Y-65585970D01*
X138361466Y-65655002D01*
X138399836Y-65712296D01*
X138423487Y-65741986D01*
X138459230Y-65782621D01*
X138495165Y-65825182D01*
X138537529Y-65877130D01*
X138563701Y-65909744D01*
X138602395Y-65956568D01*
X138641791Y-66001703D01*
X138674079Y-66036234D01*
X138677239Y-66039373D01*
X138704017Y-66068847D01*
X138720527Y-66093197D01*
X138723076Y-66101245D01*
X138731044Y-66116819D01*
X138736102Y-66118154D01*
X138746721Y-66129052D01*
X138749128Y-66143940D01*
X138736134Y-66169576D01*
X138697238Y-66196183D01*
X138694585Y-66197552D01*
X138657631Y-66218242D01*
X138628859Y-66237545D01*
X138622014Y-66243407D01*
X138602600Y-66258478D01*
X138594396Y-66261436D01*
X138581195Y-66273068D01*
X138566305Y-66303082D01*
X138552272Y-66344157D01*
X138541643Y-66388969D01*
X138537102Y-66426191D01*
X138533035Y-66462246D01*
X138525873Y-66484151D01*
X138521179Y-66487399D01*
X138507593Y-66475607D01*
X138488902Y-66448332D01*
X138481581Y-66435296D01*
X138444489Y-66366025D01*
X138416216Y-66315200D01*
X138393860Y-66278001D01*
X138374518Y-66249609D01*
X138355287Y-66225204D01*
X138354417Y-66224169D01*
X138324908Y-66183687D01*
X138296528Y-66136406D01*
X138289763Y-66123220D01*
X138270851Y-66089953D01*
X138253840Y-66069339D01*
X138247367Y-66066051D01*
X138234341Y-66055129D01*
X138216325Y-66027013D01*
X138203389Y-66001095D01*
X138180630Y-65959042D01*
X138155171Y-65923890D01*
X138142452Y-65911297D01*
X138120141Y-65890159D01*
X138110871Y-65874249D01*
X138100610Y-65859817D01*
X138078901Y-65844933D01*
X138057760Y-65826936D01*
X138028423Y-65793997D01*
X137996444Y-65753305D01*
X137967374Y-65712046D01*
X137946765Y-65677409D01*
X137942813Y-65668769D01*
X137930628Y-65650582D01*
X137910249Y-65627139D01*
X137867857Y-65582036D01*
X137838792Y-65548914D01*
X137817796Y-65521494D01*
X137803269Y-65499436D01*
X137756226Y-65433002D01*
X137710403Y-65385386D01*
X137667936Y-65358091D01*
X137630959Y-65352622D01*
X137609215Y-65362807D01*
X137592786Y-65384398D01*
X137589846Y-65395739D01*
X137580229Y-65414800D01*
X137557488Y-65436478D01*
X137525130Y-65460359D01*
X137563088Y-65539673D01*
X137587589Y-65584048D01*
X137613709Y-65620852D01*
X137633408Y-65640192D01*
X137655544Y-65660710D01*
X137685930Y-65696614D01*
X137719012Y-65741193D01*
X137728756Y-65755440D01*
X137771842Y-65818549D01*
X137806123Y-65865340D01*
X137836320Y-65901764D01*
X137867153Y-65933770D01*
X137879666Y-65945683D01*
X137903199Y-65972183D01*
X137915123Y-65994408D01*
X137915487Y-65997332D01*
X137921302Y-66009837D01*
X137926270Y-66008822D01*
X137938919Y-66014577D01*
X137961320Y-66034726D01*
X137987645Y-66062784D01*
X138012066Y-66092265D01*
X138028756Y-66116684D01*
X138032717Y-66127271D01*
X138042502Y-66141728D01*
X138058530Y-66154058D01*
X138078983Y-66174606D01*
X138103075Y-66209536D01*
X138116541Y-66233720D01*
X138137767Y-66270536D01*
X138157645Y-66296738D01*
X138167212Y-66304350D01*
X138183651Y-66319520D01*
X138204280Y-66349906D01*
X138214048Y-66367848D01*
X138233322Y-66405542D01*
X138249241Y-66435588D01*
X138253837Y-66443795D01*
X138264035Y-66463898D01*
X138281725Y-66501285D01*
X138303844Y-66549425D01*
X138314962Y-66574051D01*
X138340449Y-66627280D01*
X138366011Y-66674741D01*
X138387455Y-66708849D01*
X138394073Y-66717200D01*
X138414689Y-66740935D01*
X138423336Y-66756631D01*
X138417103Y-66765804D01*
X138393077Y-66769965D01*
X138348346Y-66770628D01*
X138293230Y-66769603D01*
X138232198Y-66764731D01*
X138185265Y-66750298D01*
X138141341Y-66721784D01*
X138111086Y-66695358D01*
X138080601Y-66671774D01*
X138052686Y-66657210D01*
X138052256Y-66657077D01*
X138021770Y-66642342D01*
X138000153Y-66626942D01*
X137972070Y-66608678D01*
X137927844Y-66585826D01*
X137875976Y-66562242D01*
X137824970Y-66541780D01*
X137783325Y-66528297D01*
X137781807Y-66527916D01*
X137715460Y-66523537D01*
X137648612Y-66539513D01*
X137591672Y-66573178D01*
X137586331Y-66577968D01*
X137557466Y-66608386D01*
X137537140Y-66635860D01*
X137533158Y-66643903D01*
X137522741Y-66660248D01*
X137506439Y-66653233D01*
X137504932Y-66652000D01*
X137479407Y-66640903D01*
X137442253Y-66634809D01*
X137436386Y-66634549D01*
X137398448Y-66638404D01*
X137367313Y-66656088D01*
X137347146Y-66675298D01*
X137319131Y-66699498D01*
X137288303Y-66713116D01*
X137249790Y-66716309D01*
X137198722Y-66709229D01*
X137130227Y-66692034D01*
X137099585Y-66683165D01*
X137009630Y-66657719D01*
X136928694Y-66637103D01*
X136861326Y-66622366D01*
X136812076Y-66614556D01*
X136797452Y-66613586D01*
X136770637Y-66622676D01*
X136737664Y-66645835D01*
X136706226Y-66675944D01*
X136684020Y-66705880D01*
X136678051Y-66724083D01*
X136670532Y-66741258D01*
X136664256Y-66743385D01*
X136656193Y-66751229D01*
X136657933Y-66755472D01*
X136654067Y-66768616D01*
X136642379Y-66774868D01*
X136626063Y-66790525D01*
X136608526Y-66822030D01*
X136594078Y-66859775D01*
X136587025Y-66894151D01*
X136586871Y-66898674D01*
X136597379Y-66911337D01*
X136624401Y-66930659D01*
X136648743Y-66945011D01*
X136701831Y-66983107D01*
X136747417Y-67032175D01*
X136778467Y-67084011D01*
X136785451Y-67104504D01*
X136788785Y-67123744D01*
X136780759Y-67125821D01*
X136758152Y-67114187D01*
X136701357Y-67077602D01*
X136650117Y-67036048D01*
X136622156Y-67007154D01*
X136600578Y-66985940D01*
X136584862Y-66977846D01*
X136568180Y-66970147D01*
X136539233Y-66950339D01*
X136516081Y-66932256D01*
X136483728Y-66907074D01*
X136459349Y-66890517D01*
X136450771Y-66886667D01*
X136434397Y-66879802D01*
X136407988Y-66863179D01*
X136406523Y-66862146D01*
X136365882Y-66842139D01*
X136310630Y-66825740D01*
X136251747Y-66815243D01*
X136200207Y-66812941D01*
X136182034Y-66815254D01*
X136145070Y-66834016D01*
X136129924Y-66858565D01*
X136115704Y-66894796D01*
X136104923Y-66919231D01*
X136090993Y-66951350D01*
X136079060Y-66982161D01*
X136065088Y-67003994D01*
X136048507Y-67012863D01*
X136037148Y-67007031D01*
X136036861Y-66991532D01*
X136033034Y-66981770D01*
X136028142Y-66983510D01*
X136010330Y-66981657D01*
X135996185Y-66971453D01*
X135977058Y-66955560D01*
X135968701Y-66951795D01*
X135954770Y-66944087D01*
X135924320Y-66922802D01*
X135881126Y-66890700D01*
X135828961Y-66850540D01*
X135811846Y-66837112D01*
X135765228Y-66810262D01*
X135701376Y-66786410D01*
X135628792Y-66767475D01*
X135555978Y-66755376D01*
X135491436Y-66752033D01*
X135453974Y-66756331D01*
X135426978Y-66772406D01*
X135395237Y-66804988D01*
X135363725Y-66846879D01*
X135337416Y-66890881D01*
X135321282Y-66929795D01*
X135318927Y-66951795D01*
X135328460Y-66991343D01*
X135343360Y-67036446D01*
X135360216Y-67078193D01*
X135375617Y-67107669D01*
X135381232Y-67114615D01*
X135399582Y-67133901D01*
X135425993Y-67165009D01*
X135455758Y-67201940D01*
X135484168Y-67238696D01*
X135506517Y-67269278D01*
X135518097Y-67287687D01*
X135518769Y-67289875D01*
X135525904Y-67304045D01*
X135544635Y-67333350D01*
X135570955Y-67372069D01*
X135600855Y-67414478D01*
X135630326Y-67454853D01*
X135655359Y-67487471D01*
X135666674Y-67501043D01*
X135678886Y-67520989D01*
X135678333Y-67530350D01*
X135680700Y-67537368D01*
X135685931Y-67537949D01*
X135698694Y-67548708D01*
X135701128Y-67561395D01*
X135711947Y-67594172D01*
X135744005Y-67612324D01*
X135778992Y-67616103D01*
X135822691Y-67608862D01*
X135849321Y-67585368D01*
X135860878Y-67542964D01*
X135861365Y-67506393D01*
X135857868Y-67464365D01*
X135852286Y-67431176D01*
X135849322Y-67421726D01*
X135840683Y-67398814D01*
X135839022Y-67391833D01*
X135830509Y-67375632D01*
X135817524Y-67358692D01*
X135797464Y-67330162D01*
X135788625Y-67312680D01*
X135775778Y-67293840D01*
X135768187Y-67290462D01*
X135757348Y-67280287D01*
X135737964Y-67254301D01*
X135714415Y-67219312D01*
X135691081Y-67182128D01*
X135672343Y-67149555D01*
X135662580Y-67128403D01*
X135662051Y-67125506D01*
X135654704Y-67109490D01*
X135637860Y-67088151D01*
X135619316Y-67070039D01*
X135606864Y-67063703D01*
X135606125Y-67064165D01*
X135596633Y-67059001D01*
X135582357Y-67038418D01*
X135568191Y-67011183D01*
X135559031Y-66986063D01*
X135557846Y-66977690D01*
X135568491Y-66969051D01*
X135595236Y-66969312D01*
X135630292Y-66976979D01*
X135665871Y-66990555D01*
X135686321Y-67002352D01*
X135719438Y-67022411D01*
X135747155Y-67034736D01*
X135769468Y-67047832D01*
X135802380Y-67074233D01*
X135838335Y-67107802D01*
X135871783Y-67140005D01*
X135898522Y-67163311D01*
X135913021Y-67172913D01*
X135913344Y-67172947D01*
X135931648Y-67180532D01*
X135939395Y-67186060D01*
X135959234Y-67202100D01*
X135989053Y-67226075D01*
X135997717Y-67233023D01*
X136023556Y-67258967D01*
X136036474Y-67282406D01*
X136036794Y-67288057D01*
X136045458Y-67308550D01*
X136072359Y-67326438D01*
X136113522Y-67345503D01*
X136136158Y-67358322D01*
X136145854Y-67368501D01*
X136147828Y-67375128D01*
X136159023Y-67392468D01*
X136185905Y-67420152D01*
X136222856Y-67453527D01*
X136264259Y-67487942D01*
X136304499Y-67518744D01*
X136337959Y-67541281D01*
X136359021Y-67550901D01*
X136360124Y-67550974D01*
X136381362Y-67540490D01*
X136386427Y-67532346D01*
X136403049Y-67514875D01*
X136430326Y-67500906D01*
X136462475Y-67479229D01*
X136475874Y-67448043D01*
X136485576Y-67417671D01*
X136496619Y-67400607D01*
X136496694Y-67400560D01*
X136508992Y-67379120D01*
X136507853Y-67343955D01*
X136495454Y-67302193D01*
X136473972Y-67260962D01*
X136445584Y-67227392D01*
X136443179Y-67225333D01*
X136432090Y-67211747D01*
X136411595Y-67183437D01*
X136393166Y-67156815D01*
X136369510Y-67115387D01*
X136364724Y-67090980D01*
X136376969Y-67084812D01*
X136404404Y-67098101D01*
X136439138Y-67126385D01*
X136500050Y-67180440D01*
X136554433Y-67222856D01*
X136612923Y-67261594D01*
X136647578Y-67282390D01*
X136688403Y-67308465D01*
X136719731Y-67332465D01*
X136734944Y-67349306D01*
X136735076Y-67349629D01*
X136750044Y-67364517D01*
X136782652Y-67385538D01*
X136826536Y-67408703D01*
X136837914Y-67414081D01*
X136886407Y-67438418D01*
X136927950Y-67462720D01*
X136954703Y-67482334D01*
X136957265Y-67484921D01*
X136976837Y-67504097D01*
X136994083Y-67509633D01*
X137016890Y-67500990D01*
X137051960Y-67478424D01*
X137091919Y-67446473D01*
X137116408Y-67411808D01*
X137128579Y-67367174D01*
X137131584Y-67305315D01*
X137131462Y-67295428D01*
X137128905Y-67242895D01*
X137121688Y-67206686D01*
X137107223Y-67177158D01*
X137095189Y-67160205D01*
X137068518Y-67120350D01*
X137046703Y-67079716D01*
X137043513Y-67072282D01*
X137029293Y-67044060D01*
X137016571Y-67030231D01*
X137015137Y-67029949D01*
X137004833Y-67019445D01*
X137003692Y-67011390D01*
X136994819Y-66992871D01*
X136971889Y-66964313D01*
X136948680Y-66940487D01*
X136920593Y-66911261D01*
X136903958Y-66888946D01*
X136901913Y-66879899D01*
X136917131Y-66880438D01*
X136949239Y-66889706D01*
X136991381Y-66905711D01*
X136992745Y-66906282D01*
X137062527Y-66929691D01*
X137136186Y-66944594D01*
X137206463Y-66950302D01*
X137266103Y-66946126D01*
X137300600Y-66935546D01*
X137330477Y-66924437D01*
X137350636Y-66923619D01*
X137351590Y-66924151D01*
X137363642Y-66938635D01*
X137384535Y-66969438D01*
X137410071Y-67010325D01*
X137414031Y-67016923D01*
X137441914Y-67061243D01*
X137467999Y-67098651D01*
X137486994Y-67121596D01*
X137488133Y-67122656D01*
X137506674Y-67147134D01*
X137511692Y-67164248D01*
X137519712Y-67183119D01*
X137541065Y-67215431D01*
X137571691Y-67255230D01*
X137583188Y-67269049D01*
X137634361Y-67323757D01*
X137679733Y-67359162D01*
X137712607Y-67375445D01*
X137748341Y-67392061D01*
X137772475Y-67408796D01*
X137777314Y-67415243D01*
X137792898Y-67431244D01*
X137823156Y-67448970D01*
X137832465Y-67453130D01*
X137868970Y-67473150D01*
X137896695Y-67496478D01*
X137899886Y-67500541D01*
X137932227Y-67529735D01*
X137980974Y-67554851D01*
X138036483Y-67571802D01*
X138079691Y-67576740D01*
X138119825Y-67572237D01*
X138158083Y-67555445D01*
X138194352Y-67530315D01*
X138264827Y-67472991D01*
X138314569Y-67422357D01*
X138346081Y-67373321D01*
X138361867Y-67320794D01*
X138362595Y-67303415D01*
X138162181Y-67303415D01*
X138156680Y-67328789D01*
X138137977Y-67352454D01*
X138110605Y-67366794D01*
X138099809Y-67368201D01*
X138080533Y-67362021D01*
X138046438Y-67345378D01*
X138004687Y-67321789D01*
X138002117Y-67320243D01*
X137953329Y-67287046D01*
X137898122Y-67243415D01*
X137840059Y-67192891D01*
X137782704Y-67139014D01*
X137729621Y-67085324D01*
X137684375Y-67035360D01*
X137650528Y-66992664D01*
X137631645Y-66960775D01*
X137628923Y-66949556D01*
X137621875Y-66926015D01*
X137608087Y-66901793D01*
X137594738Y-66877423D01*
X137598683Y-66859203D01*
X137605568Y-66850049D01*
X137624203Y-66821765D01*
X137639970Y-66790432D01*
X137650052Y-66769823D01*
X137662562Y-66759383D01*
X137684827Y-66756844D01*
X137724171Y-66759940D01*
X137734881Y-66761051D01*
X137783592Y-66769096D01*
X137833102Y-66782051D01*
X137877298Y-66797657D01*
X137910066Y-66813652D01*
X137925291Y-66827778D01*
X137925469Y-66831504D01*
X137931794Y-66846629D01*
X137951790Y-66871973D01*
X137964333Y-66885247D01*
X137989845Y-66914498D01*
X138004923Y-66938814D01*
X138006666Y-66945637D01*
X138016551Y-66967909D01*
X138023700Y-66973942D01*
X138040347Y-66993599D01*
X138061416Y-67031525D01*
X138084140Y-67080951D01*
X138105753Y-67135106D01*
X138123490Y-67187221D01*
X138134583Y-67230523D01*
X138136923Y-67251071D01*
X138143009Y-67275817D01*
X138149948Y-67283949D01*
X138162181Y-67303415D01*
X138362595Y-67303415D01*
X138364430Y-67259685D01*
X138358106Y-67197361D01*
X138349339Y-67141742D01*
X138339535Y-67088963D01*
X138331056Y-67051429D01*
X138323651Y-67018662D01*
X138321740Y-66998536D01*
X138322471Y-66996366D01*
X138337632Y-66991706D01*
X138370358Y-66985718D01*
X138412402Y-66979498D01*
X138455519Y-66974144D01*
X138491462Y-66970752D01*
X138511986Y-66970419D01*
X138513715Y-66970925D01*
X138523909Y-66985527D01*
X138542015Y-67019128D01*
X138565551Y-67066842D01*
X138592030Y-67123780D01*
X138596703Y-67134154D01*
X138611857Y-67170935D01*
X138630684Y-67220665D01*
X138646257Y-67264410D01*
X138663028Y-67310047D01*
X138678611Y-67347163D01*
X138689260Y-67367124D01*
X138702004Y-67390735D01*
X138704086Y-67399688D01*
X138709388Y-67424440D01*
X138712564Y-67433744D01*
X138720293Y-67457819D01*
X138730873Y-67495416D01*
X138735216Y-67511897D01*
X138747108Y-67553583D01*
X138758903Y-67588192D01*
X138762399Y-67596564D01*
X138771240Y-67621182D01*
X138783835Y-67663035D01*
X138797781Y-67714042D01*
X138800928Y-67726223D01*
X138814611Y-67775806D01*
X138827508Y-67815704D01*
X138837339Y-67839042D01*
X138839226Y-67841668D01*
X138858023Y-67847544D01*
X138873906Y-67833719D01*
X138879384Y-67810718D01*
X138883544Y-67789287D01*
X138897836Y-67789434D01*
X138920828Y-67807117D01*
X138938710Y-67820247D01*
X138954146Y-67817788D01*
X138977213Y-67798333D01*
X139000734Y-67768878D01*
X139007666Y-67736120D01*
X138998277Y-67693556D01*
X138983054Y-67656456D01*
X138967740Y-67612501D01*
X138964374Y-67578024D01*
X138965619Y-67572086D01*
X138975360Y-67513099D01*
X138973180Y-67444913D01*
X138960462Y-67377914D01*
X138938592Y-67322489D01*
X138930690Y-67310000D01*
X138923631Y-67292227D01*
X138912544Y-67255527D01*
X138899311Y-67206345D01*
X138892638Y-67179744D01*
X138876147Y-67115737D01*
X138857971Y-67050341D01*
X138841435Y-66995411D01*
X138837832Y-66984359D01*
X138816582Y-66919361D01*
X138803635Y-66873973D01*
X138798620Y-66843240D01*
X138801168Y-66822207D01*
X138810910Y-66805918D01*
X138823561Y-66793041D01*
X138853520Y-66758478D01*
X138875649Y-66723846D01*
X138897899Y-66689919D01*
X138929287Y-66652810D01*
X138939540Y-66642464D01*
X138965912Y-66613216D01*
X138981646Y-66588197D01*
X138983589Y-66580593D01*
X138989009Y-66562405D01*
X139001979Y-66564445D01*
X139017566Y-66584075D01*
X139026179Y-66603359D01*
X139035727Y-66634416D01*
X139038862Y-66653983D01*
X139038682Y-66654996D01*
X139043317Y-66670419D01*
X139058398Y-66703848D01*
X139081477Y-66750650D01*
X139110106Y-66806197D01*
X139141837Y-66865855D01*
X139174220Y-66924995D01*
X139204807Y-66978986D01*
X139231150Y-67023196D01*
X139243816Y-67042974D01*
X139264102Y-67078444D01*
X139283062Y-67119226D01*
X139283603Y-67120569D01*
X139301216Y-67156532D01*
X139320100Y-67184011D01*
X139321798Y-67185799D01*
X139334606Y-67204631D01*
X139356645Y-67243610D01*
X139386148Y-67299263D01*
X139421347Y-67368120D01*
X139460475Y-67446712D01*
X139501765Y-67531568D01*
X139543451Y-67619217D01*
X139554191Y-67642154D01*
X139588850Y-67723003D01*
X139620262Y-67808536D01*
X139646418Y-67892177D01*
X139665304Y-67967348D01*
X139674909Y-68027475D01*
X139675618Y-68039161D01*
X139677689Y-68079400D01*
X139684494Y-68101330D01*
X139701895Y-68109025D01*
X139735754Y-68106565D01*
X139765948Y-68101982D01*
X139800246Y-68087786D01*
X139823682Y-68056153D01*
X139837114Y-68004846D01*
X139841403Y-67931629D01*
X139841075Y-67906599D01*
X139828460Y-67790761D01*
X139798145Y-67670212D01*
X139753156Y-67556026D01*
X139736328Y-67522959D01*
X139650623Y-67363528D01*
X139565529Y-67202448D01*
X139543446Y-67160226D01*
X139512405Y-67102806D01*
X139482530Y-67051106D01*
X139457471Y-67011243D01*
X139442376Y-66990892D01*
X139426213Y-66968074D01*
X139401383Y-66926840D01*
X139370711Y-66872152D01*
X139337022Y-66808974D01*
X139320028Y-66775949D01*
X139280576Y-66696235D01*
X139252913Y-66634974D01*
X139235495Y-66588240D01*
X139226774Y-66552107D01*
X139225111Y-66534974D01*
X139221063Y-66502269D01*
X139209735Y-66467994D01*
X139188448Y-66426111D01*
X139154527Y-66370581D01*
X139147168Y-66359128D01*
X139115404Y-66310514D01*
X139088521Y-66270447D01*
X139069812Y-66243767D01*
X139063036Y-66235385D01*
X139052472Y-66222316D01*
X139031242Y-66192768D01*
X139003066Y-66151980D01*
X138987959Y-66129639D01*
X138954581Y-66076456D01*
X138935104Y-66037500D01*
X138930838Y-66015461D01*
X138931534Y-66013872D01*
X138943760Y-66006305D01*
X138963679Y-66018029D01*
X138970943Y-66024532D01*
X139004120Y-66049739D01*
X139042169Y-66071674D01*
X139076124Y-66091404D01*
X139101113Y-66112031D01*
X139102030Y-66113098D01*
X139128979Y-66134293D01*
X139174435Y-66158522D01*
X139232686Y-66183840D01*
X139298017Y-66208301D01*
X139364718Y-66229960D01*
X139427076Y-66246870D01*
X139479379Y-66257087D01*
X139515914Y-66258665D01*
X139523946Y-66256805D01*
X139538854Y-66238646D01*
X139543692Y-66209742D01*
X139549199Y-66178829D01*
X139563650Y-66170256D01*
X139583977Y-66158680D01*
X139597508Y-66129193D01*
X139601241Y-66089660D01*
X139599794Y-66075646D01*
X139578759Y-66005697D01*
X139559630Y-65974024D01*
X138902242Y-65974024D01*
X138900460Y-65974872D01*
X138888573Y-65965702D01*
X138885897Y-65961846D01*
X138882578Y-65949669D01*
X138884360Y-65948820D01*
X138896247Y-65957990D01*
X138898923Y-65961846D01*
X138902242Y-65974024D01*
X139559630Y-65974024D01*
X139536583Y-65935867D01*
X139531684Y-65930409D01*
X139257128Y-65930409D01*
X139253433Y-65935132D01*
X139239369Y-65930514D01*
X139210466Y-65914648D01*
X139186018Y-65900069D01*
X139147334Y-65874126D01*
X139128120Y-65855361D01*
X139129976Y-65845595D01*
X139137331Y-65844615D01*
X139152321Y-65851566D01*
X139179243Y-65868768D01*
X139210452Y-65890749D01*
X139238307Y-65912034D01*
X139255164Y-65927150D01*
X139257128Y-65930409D01*
X139531684Y-65930409D01*
X139471428Y-65863289D01*
X139451590Y-65844615D01*
X139400177Y-65797215D01*
X139083292Y-65797215D01*
X139078544Y-65800177D01*
X139055471Y-65788575D01*
X139052855Y-65787153D01*
X139027691Y-65769754D01*
X138989909Y-65739224D01*
X138945571Y-65700589D01*
X138918461Y-65675719D01*
X138863598Y-65626411D01*
X138821622Y-65595459D01*
X138787987Y-65581860D01*
X138758145Y-65584613D01*
X138727548Y-65602716D01*
X138699551Y-65627502D01*
X138656486Y-65668769D01*
X138599758Y-65603641D01*
X138548187Y-65537264D01*
X138507524Y-65470563D01*
X138479536Y-65407797D01*
X138465988Y-65353225D01*
X138468644Y-65311108D01*
X138473869Y-65299876D01*
X138491689Y-65294439D01*
X138525664Y-65302825D01*
X138571632Y-65322556D01*
X138625430Y-65351150D01*
X138682895Y-65386128D01*
X138739864Y-65425009D01*
X138792174Y-65465312D01*
X138835663Y-65504558D01*
X138857178Y-65528264D01*
X138877293Y-65551335D01*
X138909363Y-65586250D01*
X138947134Y-65626225D01*
X138954871Y-65634279D01*
X138998719Y-65680175D01*
X139028471Y-65712674D01*
X139048362Y-65736884D01*
X139062629Y-65757918D01*
X139073888Y-65777841D01*
X139083292Y-65797215D01*
X139400177Y-65797215D01*
X139380485Y-65779061D01*
X139323983Y-65725654D01*
X139277085Y-65679386D01*
X139234790Y-65635249D01*
X139192097Y-65588235D01*
X139165948Y-65558553D01*
X139096481Y-65481836D01*
X139023872Y-65406492D01*
X138952447Y-65336682D01*
X138886535Y-65276565D01*
X138830463Y-65230300D01*
X138806356Y-65212913D01*
X138727147Y-65165506D01*
X138644240Y-65125688D01*
X138564175Y-65096026D01*
X138493489Y-65079089D01*
X138458045Y-65076103D01*
X138411186Y-65073917D01*
X138370455Y-65068331D01*
X138354274Y-65064000D01*
X138318574Y-65061437D01*
X138287052Y-65076583D01*
G36*
X148900213Y-65670291D02*
X148792741Y-65681168D01*
X148707846Y-65702606D01*
X148643850Y-65735655D01*
X148599076Y-65781368D01*
X148571846Y-65840795D01*
X148563508Y-65881390D01*
X148553353Y-65942562D01*
X148542700Y-65978204D01*
X148531116Y-65988838D01*
X148518164Y-65974986D01*
X148507285Y-65948820D01*
X148491018Y-65919568D01*
X148465791Y-65909902D01*
X148460421Y-65909744D01*
X148434396Y-65915727D01*
X148427179Y-65935026D01*
X148419484Y-65962808D01*
X148399458Y-65969093D01*
X148374176Y-65954518D01*
X148352589Y-65938998D01*
X148342263Y-65942925D01*
X148342799Y-65967774D01*
X148353797Y-66015019D01*
X148355816Y-66022319D01*
X148379906Y-66108966D01*
X148398492Y-66177505D01*
X148413362Y-66234835D01*
X148426306Y-66287859D01*
X148439110Y-66343477D01*
X148439701Y-66346103D01*
X148469729Y-66469725D01*
X148503691Y-66588307D01*
X148543831Y-66710820D01*
X148564913Y-66777627D01*
X148585722Y-66852539D01*
X148601729Y-66919231D01*
X148616739Y-66978525D01*
X148635560Y-67036914D01*
X148654320Y-67082492D01*
X148655746Y-67085314D01*
X148673907Y-67124059D01*
X148685479Y-67155606D01*
X148687692Y-67167183D01*
X148694241Y-67193264D01*
X148705485Y-67216022D01*
X148713319Y-67234632D01*
X148723185Y-67269089D01*
X148735438Y-67321072D01*
X148750435Y-67392260D01*
X148768531Y-67484331D01*
X148790080Y-67598964D01*
X148812269Y-67720308D01*
X148823126Y-67775688D01*
X148834262Y-67825024D01*
X148843696Y-67859728D01*
X148845825Y-67865816D01*
X148854203Y-67899999D01*
X148854188Y-67924431D01*
X148845916Y-67932215D01*
X148830702Y-67918222D01*
X148810250Y-67885248D01*
X148786265Y-67836091D01*
X148760453Y-67773548D01*
X148757548Y-67765897D01*
X148737538Y-67717310D01*
X148717348Y-67675654D01*
X148701171Y-67649534D01*
X148700435Y-67648667D01*
X148678525Y-67615079D01*
X148668044Y-67590051D01*
X148657570Y-67561127D01*
X148640013Y-67518691D01*
X148622528Y-67479333D01*
X148596649Y-67422826D01*
X148568807Y-67361787D01*
X148553230Y-67327506D01*
X148534017Y-67287719D01*
X148517672Y-67258405D01*
X148508997Y-67247136D01*
X148499148Y-67232640D01*
X148482893Y-67200333D01*
X148463411Y-67156629D01*
X148459415Y-67147104D01*
X148432372Y-67089269D01*
X148403857Y-67047116D01*
X148366929Y-67010855D01*
X148357093Y-67002781D01*
X148320674Y-66975895D01*
X148290115Y-66957420D01*
X148274395Y-66951795D01*
X148249541Y-66957285D01*
X148209920Y-66971631D01*
X148163864Y-66991644D01*
X148140615Y-67002988D01*
X148126964Y-67022220D01*
X148115358Y-67061891D01*
X148110626Y-67089827D01*
X148102377Y-67140613D01*
X148092485Y-67187996D01*
X148086496Y-67210411D01*
X148080451Y-67248350D01*
X148078538Y-67307689D01*
X148080867Y-67384090D01*
X148081743Y-67399283D01*
X148085336Y-67461699D01*
X148086683Y-67501618D01*
X148085445Y-67522523D01*
X148081278Y-67527901D01*
X148073842Y-67521234D01*
X148070251Y-67516492D01*
X148049888Y-67482958D01*
X148025232Y-67434501D01*
X148000247Y-67379905D01*
X147978897Y-67327954D01*
X147965144Y-67287433D01*
X147963152Y-67279123D01*
X147949016Y-67241073D01*
X147930757Y-67213754D01*
X147912546Y-67190041D01*
X147906153Y-67174698D01*
X147896172Y-67161059D01*
X147870405Y-67139076D01*
X147844976Y-67120762D01*
X147786400Y-67091339D01*
X147731776Y-67086547D01*
X147677008Y-67106239D01*
X147663801Y-67114320D01*
X147651457Y-67123294D01*
X147642561Y-67134112D01*
X147636889Y-67150421D01*
X147634214Y-67175869D01*
X147634310Y-67214104D01*
X147636950Y-67268774D01*
X147641910Y-67343526D01*
X147646023Y-67401179D01*
X147653302Y-67502498D01*
X147658796Y-67580795D01*
X147662555Y-67639036D01*
X147664632Y-67680185D01*
X147665076Y-67707208D01*
X147663941Y-67723069D01*
X147661277Y-67730734D01*
X147657135Y-67733167D01*
X147651776Y-67733333D01*
X147633990Y-67722543D01*
X147626528Y-67708625D01*
X147613128Y-67684591D01*
X147588345Y-67652460D01*
X147575382Y-67638001D01*
X147542441Y-67598312D01*
X147508694Y-67550473D01*
X147495546Y-67529196D01*
X147469612Y-67488454D01*
X147443564Y-67453584D01*
X147431315Y-67440153D01*
X147414323Y-67419377D01*
X147387643Y-67381252D01*
X147365533Y-67347447D01*
X147134466Y-67347447D01*
X147117172Y-67374198D01*
X147083364Y-67394477D01*
X147050345Y-67389740D01*
X147021450Y-67360896D01*
X147013187Y-67345820D01*
X146993973Y-67291800D01*
X146984734Y-67236216D01*
X146986126Y-67187409D01*
X146998165Y-67154544D01*
X147010184Y-67141216D01*
X147019853Y-67142880D01*
X147031880Y-67162953D01*
X147043019Y-67187108D01*
X147066430Y-67229573D01*
X147094059Y-67266899D01*
X147103307Y-67276450D01*
X147131805Y-67313189D01*
X147134466Y-67347447D01*
X147365533Y-67347447D01*
X147354724Y-67330922D01*
X147319018Y-67273534D01*
X147313437Y-67264307D01*
X147262993Y-67183627D01*
X147220137Y-67122727D01*
X147181551Y-67077724D01*
X147143922Y-67044738D01*
X147105313Y-67020610D01*
X147062465Y-67005562D01*
X147018957Y-67002012D01*
X146984832Y-67010313D01*
X146976943Y-67016103D01*
X146950869Y-67030593D01*
X146928188Y-67019873D01*
X146910164Y-66984696D01*
X146907175Y-66974590D01*
X146880279Y-66885905D01*
X146848566Y-66798605D01*
X146815593Y-66722009D01*
X146796519Y-66684769D01*
X146773645Y-66642145D01*
X146742328Y-66581388D01*
X146705252Y-66507923D01*
X146665101Y-66427172D01*
X146624558Y-66344559D01*
X146586308Y-66265507D01*
X146553035Y-66195439D01*
X146533838Y-66153974D01*
X146510963Y-66108094D01*
X146489774Y-66073115D01*
X146473789Y-66054594D01*
X146469929Y-66053026D01*
X146447908Y-66060966D01*
X146416743Y-66080790D01*
X146383947Y-66106503D01*
X146357032Y-66132110D01*
X146343512Y-66151616D01*
X146343076Y-66154250D01*
X146346384Y-66180512D01*
X146354685Y-66221341D01*
X146365551Y-66266335D01*
X146376551Y-66305091D01*
X146381807Y-66320051D01*
X146391671Y-66348569D01*
X146403886Y-66389038D01*
X146408201Y-66404490D01*
X146423895Y-66452221D01*
X146445267Y-66505622D01*
X146455225Y-66527415D01*
X146472747Y-66567206D01*
X146484130Y-66599699D01*
X146486555Y-66612310D01*
X146491067Y-66638537D01*
X146501791Y-66675120D01*
X146515011Y-66711122D01*
X146527012Y-66735608D01*
X146529534Y-66738799D01*
X146536651Y-66757711D01*
X146538461Y-66777351D01*
X146543601Y-66804065D01*
X146551487Y-66815026D01*
X146560382Y-66832390D01*
X146564481Y-66863795D01*
X146564512Y-66866841D01*
X146570292Y-66910258D01*
X146582868Y-66947483D01*
X146596170Y-66978558D01*
X146613394Y-67024571D01*
X146630805Y-67075538D01*
X146651040Y-67131183D01*
X146678373Y-67197578D01*
X146707692Y-67262459D01*
X146714945Y-67277436D01*
X146743997Y-67336873D01*
X146764203Y-67380258D01*
X146778429Y-67414807D01*
X146789541Y-67447738D01*
X146800404Y-67486269D01*
X146805459Y-67505385D01*
X146813625Y-67543316D01*
X146822336Y-67594837D01*
X146830918Y-67654254D01*
X146838696Y-67715876D01*
X146844997Y-67774012D01*
X146849148Y-67822968D01*
X146850473Y-67857055D01*
X146848668Y-67870340D01*
X146830170Y-67871323D01*
X146799638Y-67849986D01*
X146757560Y-67806852D01*
X146704423Y-67742445D01*
X146640717Y-67657290D01*
X146610102Y-67614292D01*
X146573295Y-67563218D01*
X146530594Y-67505811D01*
X146498180Y-67463462D01*
X146464031Y-67415087D01*
X146433490Y-67363950D01*
X146414362Y-67323908D01*
X146391473Y-67278697D01*
X146360766Y-67249023D01*
X146317752Y-67232970D01*
X146257938Y-67228620D01*
X146198901Y-67231925D01*
X146127172Y-67234678D01*
X146076148Y-67227583D01*
X146042067Y-67209747D01*
X146026557Y-67190867D01*
X145995394Y-67161099D01*
X145950177Y-67144309D01*
X145901075Y-67143892D01*
X145892023Y-67145978D01*
X145842331Y-67169436D01*
X145814989Y-67204316D01*
X145810654Y-67247619D01*
X145829982Y-67296343D01*
X145852596Y-67326244D01*
X145893572Y-67390537D01*
X145915696Y-67466406D01*
X145916675Y-67542828D01*
X145910001Y-67593298D01*
X145846245Y-67585746D01*
X145794468Y-67573676D01*
X145740583Y-67551545D01*
X145691215Y-67523236D01*
X145652987Y-67492635D01*
X145632521Y-67463623D01*
X145631425Y-67459795D01*
X145605928Y-67361851D01*
X145573738Y-67264477D01*
X145537177Y-67173161D01*
X145498562Y-67093390D01*
X145460215Y-67030652D01*
X145438701Y-67003897D01*
X145412517Y-66971791D01*
X145393338Y-66942026D01*
X145376388Y-66920135D01*
X145352851Y-66914475D01*
X145317311Y-66924888D01*
X145287671Y-66938937D01*
X145243938Y-66965602D01*
X145216431Y-66995833D01*
X145202366Y-67035754D01*
X145198959Y-67091490D01*
X145200584Y-67130524D01*
X145207459Y-67196760D01*
X145220935Y-67250692D01*
X145244568Y-67305888D01*
X145248713Y-67314142D01*
X145268283Y-67355650D01*
X145280533Y-67387717D01*
X145283021Y-67403871D01*
X145282721Y-67404287D01*
X145272025Y-67404464D01*
X145252731Y-67390406D01*
X145223556Y-67360703D01*
X145183218Y-67313944D01*
X145130436Y-67248720D01*
X145063927Y-67163620D01*
X145063694Y-67163319D01*
X145004527Y-67088215D01*
X144957745Y-67032788D01*
X144921088Y-66995172D01*
X144892296Y-66973497D01*
X144869108Y-66965896D01*
X144849265Y-66970502D01*
X144838950Y-66977568D01*
X144818754Y-67003421D01*
X144812190Y-67018099D01*
X144797576Y-67038588D01*
X144785635Y-67042974D01*
X144771329Y-67045996D01*
X144769731Y-67057773D01*
X144781933Y-67082374D01*
X144806288Y-67119832D01*
X144828321Y-67155465D01*
X144842396Y-67184215D01*
X144845128Y-67194693D01*
X144850825Y-67212911D01*
X144866243Y-67248577D01*
X144888869Y-67296140D01*
X144910114Y-67338329D01*
X144936015Y-67389669D01*
X144956194Y-67431763D01*
X144968381Y-67459731D01*
X144970802Y-67468719D01*
X144959226Y-67463456D01*
X144932255Y-67445669D01*
X144895056Y-67418828D01*
X144883021Y-67409792D01*
X144795198Y-67333600D01*
X144715128Y-67245842D01*
X144651017Y-67155610D01*
X144646020Y-67147179D01*
X144620824Y-67110235D01*
X144583796Y-67063531D01*
X144541740Y-67015509D01*
X144528888Y-67001824D01*
X144489099Y-66961010D01*
X144461629Y-66936108D01*
X144441145Y-66923872D01*
X144422315Y-66921054D01*
X144401257Y-66924113D01*
X144364422Y-66938831D01*
X144337133Y-66969964D01*
X144330820Y-66980969D01*
X144304974Y-67028798D01*
X144342694Y-67100895D01*
X144367765Y-67142843D01*
X144393769Y-67177083D01*
X144410415Y-67192650D01*
X144438727Y-67217415D01*
X144454359Y-67238359D01*
X144461978Y-67259209D01*
X144455068Y-67263860D01*
X144436946Y-67255091D01*
X144410930Y-67235679D01*
X144380335Y-67208406D01*
X144348480Y-67176048D01*
X144318681Y-67141386D01*
X144294255Y-67107198D01*
X144290601Y-67101166D01*
X144253910Y-67052456D01*
X144213044Y-67027848D01*
X144163845Y-67025394D01*
X144139819Y-67030467D01*
X144111353Y-67036635D01*
X144087023Y-67035988D01*
X144058908Y-67026592D01*
X144019086Y-67006517D01*
X144000871Y-66996585D01*
X143951207Y-66967376D01*
X143904594Y-66936730D01*
X143871094Y-66911264D01*
X143871008Y-66911189D01*
X143826991Y-66881321D01*
X143790801Y-66873933D01*
X143764962Y-66888379D01*
X143752001Y-66924017D01*
X143750974Y-66941816D01*
X143760263Y-66972376D01*
X143784287Y-67011654D01*
X143817281Y-67052294D01*
X143853480Y-67086939D01*
X143877974Y-67103869D01*
X143905553Y-67121118D01*
X143919781Y-67134210D01*
X143920307Y-67135887D01*
X143931187Y-67145454D01*
X143959451Y-67162065D01*
X143998535Y-67182511D01*
X144041874Y-67203581D01*
X144082904Y-67222066D01*
X144115061Y-67234756D01*
X144130318Y-67238587D01*
X144148161Y-67247083D01*
X144178286Y-67269233D01*
X144214429Y-67300394D01*
X144217338Y-67303086D01*
X144265099Y-67346283D01*
X144317785Y-67392097D01*
X144354107Y-67422476D01*
X144399256Y-67461295D01*
X144450533Y-67508413D01*
X144493251Y-67550059D01*
X144529033Y-67583912D01*
X144559395Y-67608254D01*
X144578801Y-67618750D01*
X144581026Y-67618776D01*
X144604664Y-67621512D01*
X144624418Y-67629517D01*
X144659196Y-67636280D01*
X144688989Y-67621142D01*
X144709039Y-67588251D01*
X144714871Y-67550674D01*
X144716287Y-67522523D01*
X144721811Y-67504579D01*
X144733361Y-67497962D01*
X144752853Y-67503790D01*
X144782206Y-67523183D01*
X144823335Y-67557257D01*
X144878157Y-67607133D01*
X144948590Y-67673928D01*
X144983313Y-67707321D01*
X145013001Y-67731602D01*
X145038437Y-67745263D01*
X145044416Y-67746359D01*
X145067379Y-67753625D01*
X145073076Y-67759385D01*
X145092787Y-67770205D01*
X145124213Y-67771524D01*
X145155102Y-67764056D01*
X145170048Y-67753740D01*
X145178437Y-67730206D01*
X145179692Y-67686572D01*
X145176473Y-67643022D01*
X145173066Y-67588716D01*
X145176397Y-67558534D01*
X145187060Y-67551281D01*
X145205648Y-67565767D01*
X145211507Y-67572531D01*
X145236013Y-67593411D01*
X145268461Y-67612388D01*
X145326161Y-67641446D01*
X145362578Y-67665032D01*
X145381289Y-67685464D01*
X145381342Y-67685559D01*
X145399854Y-67698466D01*
X145435116Y-67709699D01*
X145458266Y-67713923D01*
X145500284Y-67717896D01*
X145527108Y-67713875D01*
X145548908Y-67699822D01*
X145554669Y-67694591D01*
X145577492Y-67676156D01*
X145596806Y-67674294D01*
X145623602Y-67686159D01*
X145656133Y-67705607D01*
X145697474Y-67733712D01*
X145722737Y-67752309D01*
X145758807Y-67777436D01*
X145788909Y-67794198D01*
X145802625Y-67798462D01*
X145819895Y-67804978D01*
X145822051Y-67810452D01*
X145833507Y-67824187D01*
X145863198Y-67831101D01*
X145904114Y-67830791D01*
X145949239Y-67822852D01*
X145963484Y-67818614D01*
X146028260Y-67786524D01*
X146074561Y-67738806D01*
X146102830Y-67674389D01*
X146113510Y-67592206D01*
X146107046Y-67491185D01*
X146105068Y-67477271D01*
X146095009Y-67410080D01*
X146146426Y-67401393D01*
X146192103Y-67399754D01*
X146228681Y-67409474D01*
X146249472Y-67428182D01*
X146251897Y-67438783D01*
X146260092Y-67458678D01*
X146280487Y-67487010D01*
X146287717Y-67495314D01*
X146311712Y-67525330D01*
X146342967Y-67569326D01*
X146375522Y-67618836D01*
X146382153Y-67629444D01*
X146421508Y-67688001D01*
X146468644Y-67750926D01*
X146513445Y-67804721D01*
X146513992Y-67805328D01*
X146551534Y-67848566D01*
X146584774Y-67889737D01*
X146607582Y-67921185D01*
X146610461Y-67925817D01*
X146635951Y-67956904D01*
X146672850Y-67988978D01*
X146688699Y-67999930D01*
X146730621Y-68029680D01*
X146769724Y-68062545D01*
X146780282Y-68072883D01*
X146801924Y-68097063D01*
X146806002Y-68108211D01*
X146794007Y-68111065D01*
X146792293Y-68111077D01*
X146776196Y-68114470D01*
X146782791Y-68126156D01*
X146801138Y-68134474D01*
X146816096Y-68126108D01*
X146842287Y-68117332D01*
X146873459Y-68118810D01*
X146926756Y-68117370D01*
X146973818Y-68091202D01*
X147013434Y-68041141D01*
X147027879Y-68012470D01*
X147045465Y-67974872D01*
X147059295Y-67949221D01*
X147065377Y-67941744D01*
X147075500Y-67951769D01*
X147086595Y-67969770D01*
X147095201Y-67989522D01*
X147088090Y-67992283D01*
X147080541Y-67989717D01*
X147064133Y-67985148D01*
X147061205Y-67992775D01*
X147070909Y-68017631D01*
X147074499Y-68025570D01*
X147086622Y-68047285D01*
X147096840Y-68047088D01*
X147104689Y-68037763D01*
X147116218Y-68027261D01*
X147129437Y-68032340D01*
X147150376Y-68055796D01*
X147154329Y-68060785D01*
X147181184Y-68094281D01*
X147204610Y-68122505D01*
X147208806Y-68127359D01*
X147224956Y-68155088D01*
X147228820Y-68172862D01*
X147221919Y-68178249D01*
X147201007Y-68162482D01*
X147170409Y-68130529D01*
X147141365Y-68099981D01*
X147120385Y-68081333D01*
X147111818Y-68078427D01*
X147111794Y-68078745D01*
X147120277Y-68103179D01*
X147141998Y-68136637D01*
X147170563Y-68171017D01*
X147199581Y-68198218D01*
X147212912Y-68206928D01*
X147254365Y-68218553D01*
X147308759Y-68221940D01*
X147365201Y-68217564D01*
X147412802Y-68205902D01*
X147429964Y-68197435D01*
X147470112Y-68156934D01*
X147499160Y-68098641D01*
X147514063Y-68029536D01*
X147515384Y-68001647D01*
X147517242Y-67960976D01*
X147522022Y-67932096D01*
X147526417Y-67923437D01*
X147541308Y-67927704D01*
X147565490Y-67946552D01*
X147575263Y-67956200D01*
X147598150Y-67981831D01*
X147604251Y-67996798D01*
X147595538Y-68008509D01*
X147590282Y-68012532D01*
X147570431Y-68031150D01*
X147574195Y-68041800D01*
X147602453Y-68045821D01*
X147612229Y-68045949D01*
X147652936Y-68049325D01*
X147687126Y-68057312D01*
X147722724Y-68062108D01*
X147745907Y-68057984D01*
X147772812Y-68037464D01*
X147797504Y-68002528D01*
X147812930Y-67964355D01*
X147814974Y-67948485D01*
X147820144Y-67923873D01*
X147829348Y-67898568D01*
X147304654Y-67898568D01*
X147299614Y-67925358D01*
X147286265Y-67928038D01*
X147265154Y-67907925D01*
X147247753Y-67888106D01*
X147218679Y-67856618D01*
X147186275Y-67822426D01*
X147149594Y-67780174D01*
X147113356Y-67731680D01*
X147081528Y-67683092D01*
X147058079Y-67640555D01*
X147046975Y-67610216D01*
X147046583Y-67606011D01*
X147057272Y-67589193D01*
X147076503Y-67577985D01*
X147106014Y-67562135D01*
X147140987Y-67537389D01*
X147148336Y-67531397D01*
X147178175Y-67510928D01*
X147202247Y-67502275D01*
X147207374Y-67502850D01*
X147226028Y-67520625D01*
X147247034Y-67556279D01*
X147267255Y-67602223D01*
X147283556Y-67650870D01*
X147292802Y-67694631D01*
X147293806Y-67712002D01*
X147294657Y-67755497D01*
X147298113Y-67810289D01*
X147301603Y-67847308D01*
X147304654Y-67898568D01*
X147829348Y-67898568D01*
X147832967Y-67888621D01*
X147836976Y-67879453D01*
X147851287Y-67845717D01*
X147859710Y-67821611D01*
X147860458Y-67818000D01*
X147865322Y-67798165D01*
X147875590Y-67764953D01*
X147879011Y-67754709D01*
X147888198Y-67718387D01*
X147888752Y-67681378D01*
X147880738Y-67632178D01*
X147879720Y-67627327D01*
X147869305Y-67585284D01*
X147858909Y-67554561D01*
X147852190Y-67543311D01*
X147843182Y-67526163D01*
X147841025Y-67508234D01*
X147842121Y-67488929D01*
X147849538Y-67489979D01*
X147864843Y-67505746D01*
X147881432Y-67530336D01*
X147902699Y-67570896D01*
X147924241Y-67618981D01*
X147925729Y-67622615D01*
X147950003Y-67678664D01*
X147980926Y-67745034D01*
X148012628Y-67809203D01*
X148019142Y-67821815D01*
X148043769Y-67870383D01*
X148062936Y-67910757D01*
X148073916Y-67937068D01*
X148075487Y-67943211D01*
X148083855Y-67968285D01*
X148104813Y-68001215D01*
X148132136Y-68034482D01*
X148159602Y-68060566D01*
X148180988Y-68071948D01*
X148182063Y-68072000D01*
X148216047Y-68067946D01*
X148257080Y-68057804D01*
X148295452Y-68044607D01*
X148321453Y-68031386D01*
X148326031Y-68027044D01*
X148332013Y-68004032D01*
X148334611Y-67960736D01*
X148333982Y-67902683D01*
X148330282Y-67835399D01*
X148323668Y-67764410D01*
X148317145Y-67713795D01*
X148309378Y-67657841D01*
X148306100Y-67621800D01*
X148307589Y-67599874D01*
X148314123Y-67586266D01*
X148323712Y-67577026D01*
X148335594Y-67564318D01*
X148341273Y-67546867D01*
X148341388Y-67518108D01*
X148336578Y-67471474D01*
X148335128Y-67459795D01*
X148327359Y-67402703D01*
X148318876Y-67347500D01*
X148311630Y-67306744D01*
X148306352Y-67269756D01*
X148310382Y-67253226D01*
X148315887Y-67251385D01*
X148329397Y-67262236D01*
X148350854Y-67291114D01*
X148377048Y-67332502D01*
X148404771Y-67380883D01*
X148430816Y-67430741D01*
X148451973Y-67476560D01*
X148461855Y-67502365D01*
X148475361Y-67537308D01*
X148497166Y-67587842D01*
X148523878Y-67646280D01*
X148543666Y-67687744D01*
X148570454Y-67743972D01*
X148593514Y-67794527D01*
X148610002Y-67833047D01*
X148616448Y-67850564D01*
X148627503Y-67877593D01*
X148647887Y-67918538D01*
X148673414Y-67965044D01*
X148676314Y-67970067D01*
X148700323Y-68012584D01*
X148718135Y-68046311D01*
X148726511Y-68065061D01*
X148726769Y-68066461D01*
X148732092Y-68082400D01*
X148745891Y-68114035D01*
X148760861Y-68145599D01*
X148787712Y-68191774D01*
X148810948Y-68213577D01*
X148818391Y-68215282D01*
X148840622Y-68222047D01*
X148846541Y-68229420D01*
X148860616Y-68232975D01*
X148894190Y-68223596D01*
X148923387Y-68211656D01*
X148966579Y-68190173D01*
X148975796Y-68182718D01*
X148830974Y-68182718D01*
X148824461Y-68189231D01*
X148817948Y-68182718D01*
X148824461Y-68176205D01*
X148830974Y-68182718D01*
X148975796Y-68182718D01*
X148991602Y-68169934D01*
X149005289Y-68144873D01*
X149007878Y-68136668D01*
X149020150Y-68106186D01*
X149033615Y-68089262D01*
X149034915Y-68088686D01*
X149050776Y-68094621D01*
X149079745Y-68114740D01*
X149116253Y-68145060D01*
X149125899Y-68153762D01*
X149209555Y-68220680D01*
X149289888Y-68263716D01*
X149370340Y-68284147D01*
X149454352Y-68283249D01*
X149469230Y-68281068D01*
X149570316Y-68251793D01*
X149665904Y-68199816D01*
X149750570Y-68128487D01*
X149789916Y-68083002D01*
X149818486Y-68041616D01*
X149846072Y-67994475D01*
X149869882Y-67947428D01*
X149887122Y-67906325D01*
X149894998Y-67877016D01*
X149893298Y-67866495D01*
X149895039Y-67852643D01*
X149905283Y-67822990D01*
X149914610Y-67800522D01*
X149933961Y-67745851D01*
X149953870Y-67670376D01*
X149954327Y-67668205D01*
X149771706Y-67668205D01*
X149766302Y-67730972D01*
X149748769Y-67801073D01*
X149722195Y-67870892D01*
X149689669Y-67932813D01*
X149654278Y-67979218D01*
X149640778Y-67991156D01*
X149602749Y-68022217D01*
X149566786Y-68055471D01*
X149538309Y-68085464D01*
X149522738Y-68106738D01*
X149521333Y-68111382D01*
X149510562Y-68123212D01*
X149484568Y-68138657D01*
X149452831Y-68153058D01*
X149424831Y-68161756D01*
X149417128Y-68162597D01*
X149393754Y-68157459D01*
X149358464Y-68144556D01*
X149344691Y-68138581D01*
X149302680Y-68113742D01*
X149260962Y-68079724D01*
X149225416Y-68042497D01*
X149201925Y-68008034D01*
X149195750Y-67987333D01*
X149189935Y-67961343D01*
X149175215Y-67923003D01*
X149163073Y-67897203D01*
X149144938Y-67858708D01*
X149133137Y-67828384D01*
X149130564Y-67817067D01*
X149125178Y-67800208D01*
X149110344Y-67764457D01*
X149088042Y-67714329D01*
X149060257Y-67654342D01*
X149045401Y-67623050D01*
X149014125Y-67555284D01*
X148986295Y-67490503D01*
X148964359Y-67434739D01*
X148950766Y-67394019D01*
X148948357Y-67384058D01*
X148936921Y-67338856D01*
X148919237Y-67283201D01*
X148902699Y-67238359D01*
X148888276Y-67201064D01*
X148874374Y-67162191D01*
X148859835Y-67117920D01*
X148843498Y-67064432D01*
X148824203Y-66997910D01*
X148800791Y-66914533D01*
X148772101Y-66810483D01*
X148766208Y-66788974D01*
X148732960Y-66667772D01*
X148705685Y-66568916D01*
X148683584Y-66489596D01*
X148665857Y-66427002D01*
X148651705Y-66378326D01*
X148640328Y-66340758D01*
X148630926Y-66311488D01*
X148627209Y-66300513D01*
X148611683Y-66252088D01*
X148595244Y-66195847D01*
X148588314Y-66170256D01*
X148576695Y-66126408D01*
X148566844Y-66090381D01*
X148562647Y-66075820D01*
X148564393Y-66056626D01*
X148576355Y-66053026D01*
X148600732Y-66045949D01*
X148634843Y-66028419D01*
X148669850Y-66005987D01*
X148696914Y-65984204D01*
X148706880Y-65971059D01*
X148711527Y-65949199D01*
X148717407Y-65912789D01*
X148719664Y-65896718D01*
X148728490Y-65847794D01*
X148742249Y-65819361D01*
X148766428Y-65805866D01*
X148806512Y-65801753D01*
X148813598Y-65801611D01*
X148852835Y-65803908D01*
X148891252Y-65813907D01*
X148937230Y-65834348D01*
X148974756Y-65854322D01*
X149014601Y-65879258D01*
X149061981Y-65913359D01*
X149112500Y-65952884D01*
X149161761Y-65994091D01*
X149205370Y-66033240D01*
X149238930Y-66066589D01*
X149258047Y-66090399D01*
X149260820Y-66097786D01*
X149268498Y-66113403D01*
X149287533Y-66139463D01*
X149293384Y-66146581D01*
X149314512Y-66175646D01*
X149325505Y-66198494D01*
X149325948Y-66201727D01*
X149334927Y-66219577D01*
X149357719Y-66246228D01*
X149372519Y-66260551D01*
X149392659Y-66280339D01*
X149410285Y-66302159D01*
X149427216Y-66329761D01*
X149445269Y-66366894D01*
X149466261Y-66417307D01*
X149492010Y-66484751D01*
X149524334Y-66572975D01*
X149525445Y-66576038D01*
X149551611Y-66647009D01*
X149578837Y-66718821D01*
X149603817Y-66782863D01*
X149622436Y-66828622D01*
X149672670Y-66957928D01*
X149711989Y-67081074D01*
X149739703Y-67194781D01*
X149755120Y-67295770D01*
X149757550Y-67380760D01*
X149750007Y-67433744D01*
X149747871Y-67462928D01*
X149750248Y-67507833D01*
X149756446Y-67557487D01*
X149763873Y-67605777D01*
X149769345Y-67645419D01*
X149771699Y-67667977D01*
X149771706Y-67668205D01*
X149954327Y-67668205D01*
X149973082Y-67579282D01*
X149986071Y-67505121D01*
X149984253Y-67467357D01*
X149965280Y-67441230D01*
X149945999Y-67413758D01*
X149938464Y-67372773D01*
X149938077Y-67356827D01*
X149934903Y-67296824D01*
X149926474Y-67223703D01*
X149914233Y-67145999D01*
X149899620Y-67072248D01*
X149884079Y-67010986D01*
X149875138Y-66984359D01*
X149859733Y-66938639D01*
X149843052Y-66879527D01*
X149828527Y-66819252D01*
X149827621Y-66815026D01*
X149807586Y-66724082D01*
X149790602Y-66655662D01*
X149775559Y-66606571D01*
X149761347Y-66573614D01*
X149746859Y-66553598D01*
X149733646Y-66544441D01*
X149706086Y-66518293D01*
X149688982Y-66477470D01*
X149676561Y-66432522D01*
X149664668Y-66390589D01*
X149662960Y-66384708D01*
X149649048Y-66353681D01*
X149624276Y-66312130D01*
X149597618Y-66273990D01*
X149565169Y-66229572D01*
X149525585Y-66173248D01*
X149485850Y-66115005D01*
X149473468Y-66096421D01*
X149437775Y-66045981D01*
X149397653Y-65994872D01*
X149357006Y-65947440D01*
X149319738Y-65908034D01*
X149289754Y-65880998D01*
X149270959Y-65870680D01*
X149270680Y-65870674D01*
X149257692Y-65862531D01*
X149229474Y-65840365D01*
X149190177Y-65807555D01*
X149143956Y-65767485D01*
X149143780Y-65767329D01*
X149026558Y-65663992D01*
X148900213Y-65670291D01*
X148900213Y-65670291D01*
G37*
X148900213Y-65670291D02*
X148792741Y-65681168D01*
X148707846Y-65702606D01*
X148643850Y-65735655D01*
X148599076Y-65781368D01*
X148571846Y-65840795D01*
X148563508Y-65881390D01*
X148553353Y-65942562D01*
X148542700Y-65978204D01*
X148531116Y-65988838D01*
X148518164Y-65974986D01*
X148507285Y-65948820D01*
X148491018Y-65919568D01*
X148465791Y-65909902D01*
X148460421Y-65909744D01*
X148434396Y-65915727D01*
X148427179Y-65935026D01*
X148419484Y-65962808D01*
X148399458Y-65969093D01*
X148374176Y-65954518D01*
X148352589Y-65938998D01*
X148342263Y-65942925D01*
X148342799Y-65967774D01*
X148353797Y-66015019D01*
X148355816Y-66022319D01*
X148379906Y-66108966D01*
X148398492Y-66177505D01*
X148413362Y-66234835D01*
X148426306Y-66287859D01*
X148439110Y-66343477D01*
X148439701Y-66346103D01*
X148469729Y-66469725D01*
X148503691Y-66588307D01*
X148543831Y-66710820D01*
X148564913Y-66777627D01*
X148585722Y-66852539D01*
X148601729Y-66919231D01*
X148616739Y-66978525D01*
X148635560Y-67036914D01*
X148654320Y-67082492D01*
X148655746Y-67085314D01*
X148673907Y-67124059D01*
X148685479Y-67155606D01*
X148687692Y-67167183D01*
X148694241Y-67193264D01*
X148705485Y-67216022D01*
X148713319Y-67234632D01*
X148723185Y-67269089D01*
X148735438Y-67321072D01*
X148750435Y-67392260D01*
X148768531Y-67484331D01*
X148790080Y-67598964D01*
X148812269Y-67720308D01*
X148823126Y-67775688D01*
X148834262Y-67825024D01*
X148843696Y-67859728D01*
X148845825Y-67865816D01*
X148854203Y-67899999D01*
X148854188Y-67924431D01*
X148845916Y-67932215D01*
X148830702Y-67918222D01*
X148810250Y-67885248D01*
X148786265Y-67836091D01*
X148760453Y-67773548D01*
X148757548Y-67765897D01*
X148737538Y-67717310D01*
X148717348Y-67675654D01*
X148701171Y-67649534D01*
X148700435Y-67648667D01*
X148678525Y-67615079D01*
X148668044Y-67590051D01*
X148657570Y-67561127D01*
X148640013Y-67518691D01*
X148622528Y-67479333D01*
X148596649Y-67422826D01*
X148568807Y-67361787D01*
X148553230Y-67327506D01*
X148534017Y-67287719D01*
X148517672Y-67258405D01*
X148508997Y-67247136D01*
X148499148Y-67232640D01*
X148482893Y-67200333D01*
X148463411Y-67156629D01*
X148459415Y-67147104D01*
X148432372Y-67089269D01*
X148403857Y-67047116D01*
X148366929Y-67010855D01*
X148357093Y-67002781D01*
X148320674Y-66975895D01*
X148290115Y-66957420D01*
X148274395Y-66951795D01*
X148249541Y-66957285D01*
X148209920Y-66971631D01*
X148163864Y-66991644D01*
X148140615Y-67002988D01*
X148126964Y-67022220D01*
X148115358Y-67061891D01*
X148110626Y-67089827D01*
X148102377Y-67140613D01*
X148092485Y-67187996D01*
X148086496Y-67210411D01*
X148080451Y-67248350D01*
X148078538Y-67307689D01*
X148080867Y-67384090D01*
X148081743Y-67399283D01*
X148085336Y-67461699D01*
X148086683Y-67501618D01*
X148085445Y-67522523D01*
X148081278Y-67527901D01*
X148073842Y-67521234D01*
X148070251Y-67516492D01*
X148049888Y-67482958D01*
X148025232Y-67434501D01*
X148000247Y-67379905D01*
X147978897Y-67327954D01*
X147965144Y-67287433D01*
X147963152Y-67279123D01*
X147949016Y-67241073D01*
X147930757Y-67213754D01*
X147912546Y-67190041D01*
X147906153Y-67174698D01*
X147896172Y-67161059D01*
X147870405Y-67139076D01*
X147844976Y-67120762D01*
X147786400Y-67091339D01*
X147731776Y-67086547D01*
X147677008Y-67106239D01*
X147663801Y-67114320D01*
X147651457Y-67123294D01*
X147642561Y-67134112D01*
X147636889Y-67150421D01*
X147634214Y-67175869D01*
X147634310Y-67214104D01*
X147636950Y-67268774D01*
X147641910Y-67343526D01*
X147646023Y-67401179D01*
X147653302Y-67502498D01*
X147658796Y-67580795D01*
X147662555Y-67639036D01*
X147664632Y-67680185D01*
X147665076Y-67707208D01*
X147663941Y-67723069D01*
X147661277Y-67730734D01*
X147657135Y-67733167D01*
X147651776Y-67733333D01*
X147633990Y-67722543D01*
X147626528Y-67708625D01*
X147613128Y-67684591D01*
X147588345Y-67652460D01*
X147575382Y-67638001D01*
X147542441Y-67598312D01*
X147508694Y-67550473D01*
X147495546Y-67529196D01*
X147469612Y-67488454D01*
X147443564Y-67453584D01*
X147431315Y-67440153D01*
X147414323Y-67419377D01*
X147387643Y-67381252D01*
X147365533Y-67347447D01*
X147134466Y-67347447D01*
X147117172Y-67374198D01*
X147083364Y-67394477D01*
X147050345Y-67389740D01*
X147021450Y-67360896D01*
X147013187Y-67345820D01*
X146993973Y-67291800D01*
X146984734Y-67236216D01*
X146986126Y-67187409D01*
X146998165Y-67154544D01*
X147010184Y-67141216D01*
X147019853Y-67142880D01*
X147031880Y-67162953D01*
X147043019Y-67187108D01*
X147066430Y-67229573D01*
X147094059Y-67266899D01*
X147103307Y-67276450D01*
X147131805Y-67313189D01*
X147134466Y-67347447D01*
X147365533Y-67347447D01*
X147354724Y-67330922D01*
X147319018Y-67273534D01*
X147313437Y-67264307D01*
X147262993Y-67183627D01*
X147220137Y-67122727D01*
X147181551Y-67077724D01*
X147143922Y-67044738D01*
X147105313Y-67020610D01*
X147062465Y-67005562D01*
X147018957Y-67002012D01*
X146984832Y-67010313D01*
X146976943Y-67016103D01*
X146950869Y-67030593D01*
X146928188Y-67019873D01*
X146910164Y-66984696D01*
X146907175Y-66974590D01*
X146880279Y-66885905D01*
X146848566Y-66798605D01*
X146815593Y-66722009D01*
X146796519Y-66684769D01*
X146773645Y-66642145D01*
X146742328Y-66581388D01*
X146705252Y-66507923D01*
X146665101Y-66427172D01*
X146624558Y-66344559D01*
X146586308Y-66265507D01*
X146553035Y-66195439D01*
X146533838Y-66153974D01*
X146510963Y-66108094D01*
X146489774Y-66073115D01*
X146473789Y-66054594D01*
X146469929Y-66053026D01*
X146447908Y-66060966D01*
X146416743Y-66080790D01*
X146383947Y-66106503D01*
X146357032Y-66132110D01*
X146343512Y-66151616D01*
X146343076Y-66154250D01*
X146346384Y-66180512D01*
X146354685Y-66221341D01*
X146365551Y-66266335D01*
X146376551Y-66305091D01*
X146381807Y-66320051D01*
X146391671Y-66348569D01*
X146403886Y-66389038D01*
X146408201Y-66404490D01*
X146423895Y-66452221D01*
X146445267Y-66505622D01*
X146455225Y-66527415D01*
X146472747Y-66567206D01*
X146484130Y-66599699D01*
X146486555Y-66612310D01*
X146491067Y-66638537D01*
X146501791Y-66675120D01*
X146515011Y-66711122D01*
X146527012Y-66735608D01*
X146529534Y-66738799D01*
X146536651Y-66757711D01*
X146538461Y-66777351D01*
X146543601Y-66804065D01*
X146551487Y-66815026D01*
X146560382Y-66832390D01*
X146564481Y-66863795D01*
X146564512Y-66866841D01*
X146570292Y-66910258D01*
X146582868Y-66947483D01*
X146596170Y-66978558D01*
X146613394Y-67024571D01*
X146630805Y-67075538D01*
X146651040Y-67131183D01*
X146678373Y-67197578D01*
X146707692Y-67262459D01*
X146714945Y-67277436D01*
X146743997Y-67336873D01*
X146764203Y-67380258D01*
X146778429Y-67414807D01*
X146789541Y-67447738D01*
X146800404Y-67486269D01*
X146805459Y-67505385D01*
X146813625Y-67543316D01*
X146822336Y-67594837D01*
X146830918Y-67654254D01*
X146838696Y-67715876D01*
X146844997Y-67774012D01*
X146849148Y-67822968D01*
X146850473Y-67857055D01*
X146848668Y-67870340D01*
X146830170Y-67871323D01*
X146799638Y-67849986D01*
X146757560Y-67806852D01*
X146704423Y-67742445D01*
X146640717Y-67657290D01*
X146610102Y-67614292D01*
X146573295Y-67563218D01*
X146530594Y-67505811D01*
X146498180Y-67463462D01*
X146464031Y-67415087D01*
X146433490Y-67363950D01*
X146414362Y-67323908D01*
X146391473Y-67278697D01*
X146360766Y-67249023D01*
X146317752Y-67232970D01*
X146257938Y-67228620D01*
X146198901Y-67231925D01*
X146127172Y-67234678D01*
X146076148Y-67227583D01*
X146042067Y-67209747D01*
X146026557Y-67190867D01*
X145995394Y-67161099D01*
X145950177Y-67144309D01*
X145901075Y-67143892D01*
X145892023Y-67145978D01*
X145842331Y-67169436D01*
X145814989Y-67204316D01*
X145810654Y-67247619D01*
X145829982Y-67296343D01*
X145852596Y-67326244D01*
X145893572Y-67390537D01*
X145915696Y-67466406D01*
X145916675Y-67542828D01*
X145910001Y-67593298D01*
X145846245Y-67585746D01*
X145794468Y-67573676D01*
X145740583Y-67551545D01*
X145691215Y-67523236D01*
X145652987Y-67492635D01*
X145632521Y-67463623D01*
X145631425Y-67459795D01*
X145605928Y-67361851D01*
X145573738Y-67264477D01*
X145537177Y-67173161D01*
X145498562Y-67093390D01*
X145460215Y-67030652D01*
X145438701Y-67003897D01*
X145412517Y-66971791D01*
X145393338Y-66942026D01*
X145376388Y-66920135D01*
X145352851Y-66914475D01*
X145317311Y-66924888D01*
X145287671Y-66938937D01*
X145243938Y-66965602D01*
X145216431Y-66995833D01*
X145202366Y-67035754D01*
X145198959Y-67091490D01*
X145200584Y-67130524D01*
X145207459Y-67196760D01*
X145220935Y-67250692D01*
X145244568Y-67305888D01*
X145248713Y-67314142D01*
X145268283Y-67355650D01*
X145280533Y-67387717D01*
X145283021Y-67403871D01*
X145282721Y-67404287D01*
X145272025Y-67404464D01*
X145252731Y-67390406D01*
X145223556Y-67360703D01*
X145183218Y-67313944D01*
X145130436Y-67248720D01*
X145063927Y-67163620D01*
X145063694Y-67163319D01*
X145004527Y-67088215D01*
X144957745Y-67032788D01*
X144921088Y-66995172D01*
X144892296Y-66973497D01*
X144869108Y-66965896D01*
X144849265Y-66970502D01*
X144838950Y-66977568D01*
X144818754Y-67003421D01*
X144812190Y-67018099D01*
X144797576Y-67038588D01*
X144785635Y-67042974D01*
X144771329Y-67045996D01*
X144769731Y-67057773D01*
X144781933Y-67082374D01*
X144806288Y-67119832D01*
X144828321Y-67155465D01*
X144842396Y-67184215D01*
X144845128Y-67194693D01*
X144850825Y-67212911D01*
X144866243Y-67248577D01*
X144888869Y-67296140D01*
X144910114Y-67338329D01*
X144936015Y-67389669D01*
X144956194Y-67431763D01*
X144968381Y-67459731D01*
X144970802Y-67468719D01*
X144959226Y-67463456D01*
X144932255Y-67445669D01*
X144895056Y-67418828D01*
X144883021Y-67409792D01*
X144795198Y-67333600D01*
X144715128Y-67245842D01*
X144651017Y-67155610D01*
X144646020Y-67147179D01*
X144620824Y-67110235D01*
X144583796Y-67063531D01*
X144541740Y-67015509D01*
X144528888Y-67001824D01*
X144489099Y-66961010D01*
X144461629Y-66936108D01*
X144441145Y-66923872D01*
X144422315Y-66921054D01*
X144401257Y-66924113D01*
X144364422Y-66938831D01*
X144337133Y-66969964D01*
X144330820Y-66980969D01*
X144304974Y-67028798D01*
X144342694Y-67100895D01*
X144367765Y-67142843D01*
X144393769Y-67177083D01*
X144410415Y-67192650D01*
X144438727Y-67217415D01*
X144454359Y-67238359D01*
X144461978Y-67259209D01*
X144455068Y-67263860D01*
X144436946Y-67255091D01*
X144410930Y-67235679D01*
X144380335Y-67208406D01*
X144348480Y-67176048D01*
X144318681Y-67141386D01*
X144294255Y-67107198D01*
X144290601Y-67101166D01*
X144253910Y-67052456D01*
X144213044Y-67027848D01*
X144163845Y-67025394D01*
X144139819Y-67030467D01*
X144111353Y-67036635D01*
X144087023Y-67035988D01*
X144058908Y-67026592D01*
X144019086Y-67006517D01*
X144000871Y-66996585D01*
X143951207Y-66967376D01*
X143904594Y-66936730D01*
X143871094Y-66911264D01*
X143871008Y-66911189D01*
X143826991Y-66881321D01*
X143790801Y-66873933D01*
X143764962Y-66888379D01*
X143752001Y-66924017D01*
X143750974Y-66941816D01*
X143760263Y-66972376D01*
X143784287Y-67011654D01*
X143817281Y-67052294D01*
X143853480Y-67086939D01*
X143877974Y-67103869D01*
X143905553Y-67121118D01*
X143919781Y-67134210D01*
X143920307Y-67135887D01*
X143931187Y-67145454D01*
X143959451Y-67162065D01*
X143998535Y-67182511D01*
X144041874Y-67203581D01*
X144082904Y-67222066D01*
X144115061Y-67234756D01*
X144130318Y-67238587D01*
X144148161Y-67247083D01*
X144178286Y-67269233D01*
X144214429Y-67300394D01*
X144217338Y-67303086D01*
X144265099Y-67346283D01*
X144317785Y-67392097D01*
X144354107Y-67422476D01*
X144399256Y-67461295D01*
X144450533Y-67508413D01*
X144493251Y-67550059D01*
X144529033Y-67583912D01*
X144559395Y-67608254D01*
X144578801Y-67618750D01*
X144581026Y-67618776D01*
X144604664Y-67621512D01*
X144624418Y-67629517D01*
X144659196Y-67636280D01*
X144688989Y-67621142D01*
X144709039Y-67588251D01*
X144714871Y-67550674D01*
X144716287Y-67522523D01*
X144721811Y-67504579D01*
X144733361Y-67497962D01*
X144752853Y-67503790D01*
X144782206Y-67523183D01*
X144823335Y-67557257D01*
X144878157Y-67607133D01*
X144948590Y-67673928D01*
X144983313Y-67707321D01*
X145013001Y-67731602D01*
X145038437Y-67745263D01*
X145044416Y-67746359D01*
X145067379Y-67753625D01*
X145073076Y-67759385D01*
X145092787Y-67770205D01*
X145124213Y-67771524D01*
X145155102Y-67764056D01*
X145170048Y-67753740D01*
X145178437Y-67730206D01*
X145179692Y-67686572D01*
X145176473Y-67643022D01*
X145173066Y-67588716D01*
X145176397Y-67558534D01*
X145187060Y-67551281D01*
X145205648Y-67565767D01*
X145211507Y-67572531D01*
X145236013Y-67593411D01*
X145268461Y-67612388D01*
X145326161Y-67641446D01*
X145362578Y-67665032D01*
X145381289Y-67685464D01*
X145381342Y-67685559D01*
X145399854Y-67698466D01*
X145435116Y-67709699D01*
X145458266Y-67713923D01*
X145500284Y-67717896D01*
X145527108Y-67713875D01*
X145548908Y-67699822D01*
X145554669Y-67694591D01*
X145577492Y-67676156D01*
X145596806Y-67674294D01*
X145623602Y-67686159D01*
X145656133Y-67705607D01*
X145697474Y-67733712D01*
X145722737Y-67752309D01*
X145758807Y-67777436D01*
X145788909Y-67794198D01*
X145802625Y-67798462D01*
X145819895Y-67804978D01*
X145822051Y-67810452D01*
X145833507Y-67824187D01*
X145863198Y-67831101D01*
X145904114Y-67830791D01*
X145949239Y-67822852D01*
X145963484Y-67818614D01*
X146028260Y-67786524D01*
X146074561Y-67738806D01*
X146102830Y-67674389D01*
X146113510Y-67592206D01*
X146107046Y-67491185D01*
X146105068Y-67477271D01*
X146095009Y-67410080D01*
X146146426Y-67401393D01*
X146192103Y-67399754D01*
X146228681Y-67409474D01*
X146249472Y-67428182D01*
X146251897Y-67438783D01*
X146260092Y-67458678D01*
X146280487Y-67487010D01*
X146287717Y-67495314D01*
X146311712Y-67525330D01*
X146342967Y-67569326D01*
X146375522Y-67618836D01*
X146382153Y-67629444D01*
X146421508Y-67688001D01*
X146468644Y-67750926D01*
X146513445Y-67804721D01*
X146513992Y-67805328D01*
X146551534Y-67848566D01*
X146584774Y-67889737D01*
X146607582Y-67921185D01*
X146610461Y-67925817D01*
X146635951Y-67956904D01*
X146672850Y-67988978D01*
X146688699Y-67999930D01*
X146730621Y-68029680D01*
X146769724Y-68062545D01*
X146780282Y-68072883D01*
X146801924Y-68097063D01*
X146806002Y-68108211D01*
X146794007Y-68111065D01*
X146792293Y-68111077D01*
X146776196Y-68114470D01*
X146782791Y-68126156D01*
X146801138Y-68134474D01*
X146816096Y-68126108D01*
X146842287Y-68117332D01*
X146873459Y-68118810D01*
X146926756Y-68117370D01*
X146973818Y-68091202D01*
X147013434Y-68041141D01*
X147027879Y-68012470D01*
X147045465Y-67974872D01*
X147059295Y-67949221D01*
X147065377Y-67941744D01*
X147075500Y-67951769D01*
X147086595Y-67969770D01*
X147095201Y-67989522D01*
X147088090Y-67992283D01*
X147080541Y-67989717D01*
X147064133Y-67985148D01*
X147061205Y-67992775D01*
X147070909Y-68017631D01*
X147074499Y-68025570D01*
X147086622Y-68047285D01*
X147096840Y-68047088D01*
X147104689Y-68037763D01*
X147116218Y-68027261D01*
X147129437Y-68032340D01*
X147150376Y-68055796D01*
X147154329Y-68060785D01*
X147181184Y-68094281D01*
X147204610Y-68122505D01*
X147208806Y-68127359D01*
X147224956Y-68155088D01*
X147228820Y-68172862D01*
X147221919Y-68178249D01*
X147201007Y-68162482D01*
X147170409Y-68130529D01*
X147141365Y-68099981D01*
X147120385Y-68081333D01*
X147111818Y-68078427D01*
X147111794Y-68078745D01*
X147120277Y-68103179D01*
X147141998Y-68136637D01*
X147170563Y-68171017D01*
X147199581Y-68198218D01*
X147212912Y-68206928D01*
X147254365Y-68218553D01*
X147308759Y-68221940D01*
X147365201Y-68217564D01*
X147412802Y-68205902D01*
X147429964Y-68197435D01*
X147470112Y-68156934D01*
X147499160Y-68098641D01*
X147514063Y-68029536D01*
X147515384Y-68001647D01*
X147517242Y-67960976D01*
X147522022Y-67932096D01*
X147526417Y-67923437D01*
X147541308Y-67927704D01*
X147565490Y-67946552D01*
X147575263Y-67956200D01*
X147598150Y-67981831D01*
X147604251Y-67996798D01*
X147595538Y-68008509D01*
X147590282Y-68012532D01*
X147570431Y-68031150D01*
X147574195Y-68041800D01*
X147602453Y-68045821D01*
X147612229Y-68045949D01*
X147652936Y-68049325D01*
X147687126Y-68057312D01*
X147722724Y-68062108D01*
X147745907Y-68057984D01*
X147772812Y-68037464D01*
X147797504Y-68002528D01*
X147812930Y-67964355D01*
X147814974Y-67948485D01*
X147820144Y-67923873D01*
X147829348Y-67898568D01*
X147304654Y-67898568D01*
X147299614Y-67925358D01*
X147286265Y-67928038D01*
X147265154Y-67907925D01*
X147247753Y-67888106D01*
X147218679Y-67856618D01*
X147186275Y-67822426D01*
X147149594Y-67780174D01*
X147113356Y-67731680D01*
X147081528Y-67683092D01*
X147058079Y-67640555D01*
X147046975Y-67610216D01*
X147046583Y-67606011D01*
X147057272Y-67589193D01*
X147076503Y-67577985D01*
X147106014Y-67562135D01*
X147140987Y-67537389D01*
X147148336Y-67531397D01*
X147178175Y-67510928D01*
X147202247Y-67502275D01*
X147207374Y-67502850D01*
X147226028Y-67520625D01*
X147247034Y-67556279D01*
X147267255Y-67602223D01*
X147283556Y-67650870D01*
X147292802Y-67694631D01*
X147293806Y-67712002D01*
X147294657Y-67755497D01*
X147298113Y-67810289D01*
X147301603Y-67847308D01*
X147304654Y-67898568D01*
X147829348Y-67898568D01*
X147832967Y-67888621D01*
X147836976Y-67879453D01*
X147851287Y-67845717D01*
X147859710Y-67821611D01*
X147860458Y-67818000D01*
X147865322Y-67798165D01*
X147875590Y-67764953D01*
X147879011Y-67754709D01*
X147888198Y-67718387D01*
X147888752Y-67681378D01*
X147880738Y-67632178D01*
X147879720Y-67627327D01*
X147869305Y-67585284D01*
X147858909Y-67554561D01*
X147852190Y-67543311D01*
X147843182Y-67526163D01*
X147841025Y-67508234D01*
X147842121Y-67488929D01*
X147849538Y-67489979D01*
X147864843Y-67505746D01*
X147881432Y-67530336D01*
X147902699Y-67570896D01*
X147924241Y-67618981D01*
X147925729Y-67622615D01*
X147950003Y-67678664D01*
X147980926Y-67745034D01*
X148012628Y-67809203D01*
X148019142Y-67821815D01*
X148043769Y-67870383D01*
X148062936Y-67910757D01*
X148073916Y-67937068D01*
X148075487Y-67943211D01*
X148083855Y-67968285D01*
X148104813Y-68001215D01*
X148132136Y-68034482D01*
X148159602Y-68060566D01*
X148180988Y-68071948D01*
X148182063Y-68072000D01*
X148216047Y-68067946D01*
X148257080Y-68057804D01*
X148295452Y-68044607D01*
X148321453Y-68031386D01*
X148326031Y-68027044D01*
X148332013Y-68004032D01*
X148334611Y-67960736D01*
X148333982Y-67902683D01*
X148330282Y-67835399D01*
X148323668Y-67764410D01*
X148317145Y-67713795D01*
X148309378Y-67657841D01*
X148306100Y-67621800D01*
X148307589Y-67599874D01*
X148314123Y-67586266D01*
X148323712Y-67577026D01*
X148335594Y-67564318D01*
X148341273Y-67546867D01*
X148341388Y-67518108D01*
X148336578Y-67471474D01*
X148335128Y-67459795D01*
X148327359Y-67402703D01*
X148318876Y-67347500D01*
X148311630Y-67306744D01*
X148306352Y-67269756D01*
X148310382Y-67253226D01*
X148315887Y-67251385D01*
X148329397Y-67262236D01*
X148350854Y-67291114D01*
X148377048Y-67332502D01*
X148404771Y-67380883D01*
X148430816Y-67430741D01*
X148451973Y-67476560D01*
X148461855Y-67502365D01*
X148475361Y-67537308D01*
X148497166Y-67587842D01*
X148523878Y-67646280D01*
X148543666Y-67687744D01*
X148570454Y-67743972D01*
X148593514Y-67794527D01*
X148610002Y-67833047D01*
X148616448Y-67850564D01*
X148627503Y-67877593D01*
X148647887Y-67918538D01*
X148673414Y-67965044D01*
X148676314Y-67970067D01*
X148700323Y-68012584D01*
X148718135Y-68046311D01*
X148726511Y-68065061D01*
X148726769Y-68066461D01*
X148732092Y-68082400D01*
X148745891Y-68114035D01*
X148760861Y-68145599D01*
X148787712Y-68191774D01*
X148810948Y-68213577D01*
X148818391Y-68215282D01*
X148840622Y-68222047D01*
X148846541Y-68229420D01*
X148860616Y-68232975D01*
X148894190Y-68223596D01*
X148923387Y-68211656D01*
X148966579Y-68190173D01*
X148975796Y-68182718D01*
X148830974Y-68182718D01*
X148824461Y-68189231D01*
X148817948Y-68182718D01*
X148824461Y-68176205D01*
X148830974Y-68182718D01*
X148975796Y-68182718D01*
X148991602Y-68169934D01*
X149005289Y-68144873D01*
X149007878Y-68136668D01*
X149020150Y-68106186D01*
X149033615Y-68089262D01*
X149034915Y-68088686D01*
X149050776Y-68094621D01*
X149079745Y-68114740D01*
X149116253Y-68145060D01*
X149125899Y-68153762D01*
X149209555Y-68220680D01*
X149289888Y-68263716D01*
X149370340Y-68284147D01*
X149454352Y-68283249D01*
X149469230Y-68281068D01*
X149570316Y-68251793D01*
X149665904Y-68199816D01*
X149750570Y-68128487D01*
X149789916Y-68083002D01*
X149818486Y-68041616D01*
X149846072Y-67994475D01*
X149869882Y-67947428D01*
X149887122Y-67906325D01*
X149894998Y-67877016D01*
X149893298Y-67866495D01*
X149895039Y-67852643D01*
X149905283Y-67822990D01*
X149914610Y-67800522D01*
X149933961Y-67745851D01*
X149953870Y-67670376D01*
X149954327Y-67668205D01*
X149771706Y-67668205D01*
X149766302Y-67730972D01*
X149748769Y-67801073D01*
X149722195Y-67870892D01*
X149689669Y-67932813D01*
X149654278Y-67979218D01*
X149640778Y-67991156D01*
X149602749Y-68022217D01*
X149566786Y-68055471D01*
X149538309Y-68085464D01*
X149522738Y-68106738D01*
X149521333Y-68111382D01*
X149510562Y-68123212D01*
X149484568Y-68138657D01*
X149452831Y-68153058D01*
X149424831Y-68161756D01*
X149417128Y-68162597D01*
X149393754Y-68157459D01*
X149358464Y-68144556D01*
X149344691Y-68138581D01*
X149302680Y-68113742D01*
X149260962Y-68079724D01*
X149225416Y-68042497D01*
X149201925Y-68008034D01*
X149195750Y-67987333D01*
X149189935Y-67961343D01*
X149175215Y-67923003D01*
X149163073Y-67897203D01*
X149144938Y-67858708D01*
X149133137Y-67828384D01*
X149130564Y-67817067D01*
X149125178Y-67800208D01*
X149110344Y-67764457D01*
X149088042Y-67714329D01*
X149060257Y-67654342D01*
X149045401Y-67623050D01*
X149014125Y-67555284D01*
X148986295Y-67490503D01*
X148964359Y-67434739D01*
X148950766Y-67394019D01*
X148948357Y-67384058D01*
X148936921Y-67338856D01*
X148919237Y-67283201D01*
X148902699Y-67238359D01*
X148888276Y-67201064D01*
X148874374Y-67162191D01*
X148859835Y-67117920D01*
X148843498Y-67064432D01*
X148824203Y-66997910D01*
X148800791Y-66914533D01*
X148772101Y-66810483D01*
X148766208Y-66788974D01*
X148732960Y-66667772D01*
X148705685Y-66568916D01*
X148683584Y-66489596D01*
X148665857Y-66427002D01*
X148651705Y-66378326D01*
X148640328Y-66340758D01*
X148630926Y-66311488D01*
X148627209Y-66300513D01*
X148611683Y-66252088D01*
X148595244Y-66195847D01*
X148588314Y-66170256D01*
X148576695Y-66126408D01*
X148566844Y-66090381D01*
X148562647Y-66075820D01*
X148564393Y-66056626D01*
X148576355Y-66053026D01*
X148600732Y-66045949D01*
X148634843Y-66028419D01*
X148669850Y-66005987D01*
X148696914Y-65984204D01*
X148706880Y-65971059D01*
X148711527Y-65949199D01*
X148717407Y-65912789D01*
X148719664Y-65896718D01*
X148728490Y-65847794D01*
X148742249Y-65819361D01*
X148766428Y-65805866D01*
X148806512Y-65801753D01*
X148813598Y-65801611D01*
X148852835Y-65803908D01*
X148891252Y-65813907D01*
X148937230Y-65834348D01*
X148974756Y-65854322D01*
X149014601Y-65879258D01*
X149061981Y-65913359D01*
X149112500Y-65952884D01*
X149161761Y-65994091D01*
X149205370Y-66033240D01*
X149238930Y-66066589D01*
X149258047Y-66090399D01*
X149260820Y-66097786D01*
X149268498Y-66113403D01*
X149287533Y-66139463D01*
X149293384Y-66146581D01*
X149314512Y-66175646D01*
X149325505Y-66198494D01*
X149325948Y-66201727D01*
X149334927Y-66219577D01*
X149357719Y-66246228D01*
X149372519Y-66260551D01*
X149392659Y-66280339D01*
X149410285Y-66302159D01*
X149427216Y-66329761D01*
X149445269Y-66366894D01*
X149466261Y-66417307D01*
X149492010Y-66484751D01*
X149524334Y-66572975D01*
X149525445Y-66576038D01*
X149551611Y-66647009D01*
X149578837Y-66718821D01*
X149603817Y-66782863D01*
X149622436Y-66828622D01*
X149672670Y-66957928D01*
X149711989Y-67081074D01*
X149739703Y-67194781D01*
X149755120Y-67295770D01*
X149757550Y-67380760D01*
X149750007Y-67433744D01*
X149747871Y-67462928D01*
X149750248Y-67507833D01*
X149756446Y-67557487D01*
X149763873Y-67605777D01*
X149769345Y-67645419D01*
X149771699Y-67667977D01*
X149771706Y-67668205D01*
X149954327Y-67668205D01*
X149973082Y-67579282D01*
X149986071Y-67505121D01*
X149984253Y-67467357D01*
X149965280Y-67441230D01*
X149945999Y-67413758D01*
X149938464Y-67372773D01*
X149938077Y-67356827D01*
X149934903Y-67296824D01*
X149926474Y-67223703D01*
X149914233Y-67145999D01*
X149899620Y-67072248D01*
X149884079Y-67010986D01*
X149875138Y-66984359D01*
X149859733Y-66938639D01*
X149843052Y-66879527D01*
X149828527Y-66819252D01*
X149827621Y-66815026D01*
X149807586Y-66724082D01*
X149790602Y-66655662D01*
X149775559Y-66606571D01*
X149761347Y-66573614D01*
X149746859Y-66553598D01*
X149733646Y-66544441D01*
X149706086Y-66518293D01*
X149688982Y-66477470D01*
X149676561Y-66432522D01*
X149664668Y-66390589D01*
X149662960Y-66384708D01*
X149649048Y-66353681D01*
X149624276Y-66312130D01*
X149597618Y-66273990D01*
X149565169Y-66229572D01*
X149525585Y-66173248D01*
X149485850Y-66115005D01*
X149473468Y-66096421D01*
X149437775Y-66045981D01*
X149397653Y-65994872D01*
X149357006Y-65947440D01*
X149319738Y-65908034D01*
X149289754Y-65880998D01*
X149270959Y-65870680D01*
X149270680Y-65870674D01*
X149257692Y-65862531D01*
X149229474Y-65840365D01*
X149190177Y-65807555D01*
X149143956Y-65767485D01*
X149143780Y-65767329D01*
X149026558Y-65663992D01*
X148900213Y-65670291D01*
G04 #@! TD*
M02*
