G04 #@! TF.GenerationSoftware,KiCad,Pcbnew,(5.0.2)-1*
G04 #@! TF.CreationDate,2019-12-13T18:48:53-06:00*
G04 #@! TF.ProjectId,TM4C129-Breakout_Hardware,544d3443-3132-4392-9d42-7265616b6f75,rev?*
G04 #@! TF.SameCoordinates,Original*
G04 #@! TF.FileFunction,Soldermask,Top*
G04 #@! TF.FilePolarity,Negative*
%FSLAX46Y46*%
G04 Gerber Fmt 4.6, Leading zero omitted, Abs format (unit mm)*
G04 Created by KiCad (PCBNEW (5.0.2)-1) date 12/13/2019 6:48:53 PM*
%MOMM*%
%LPD*%
G01*
G04 APERTURE LIST*
%ADD10C,0.100000*%
G04 APERTURE END LIST*
D10*
G36*
X144894500Y-73076000D02*
X143141500Y-73076000D01*
X143141500Y-72212000D01*
X144894500Y-72212000D01*
X144894500Y-73076000D01*
X144894500Y-73076000D01*
G37*
G36*
X136385500Y-73076000D02*
X134632500Y-73076000D01*
X134632500Y-72212000D01*
X136385500Y-72212000D01*
X136385500Y-73076000D01*
X136385500Y-73076000D01*
G37*
G36*
X133002499Y-71614445D02*
X133039993Y-71625819D01*
X133074557Y-71644294D01*
X133104847Y-71669153D01*
X133129706Y-71699443D01*
X133148181Y-71734007D01*
X133159555Y-71771501D01*
X133164000Y-71816638D01*
X133164000Y-72455362D01*
X133159555Y-72500499D01*
X133148181Y-72537993D01*
X133129706Y-72572557D01*
X133104847Y-72602847D01*
X133074557Y-72627706D01*
X133039993Y-72646181D01*
X133002499Y-72657555D01*
X132957362Y-72662000D01*
X132218638Y-72662000D01*
X132173501Y-72657555D01*
X132136007Y-72646181D01*
X132101443Y-72627706D01*
X132071153Y-72602847D01*
X132046294Y-72572557D01*
X132027819Y-72537993D01*
X132016445Y-72500499D01*
X132012000Y-72455362D01*
X132012000Y-71816638D01*
X132016445Y-71771501D01*
X132027819Y-71734007D01*
X132046294Y-71699443D01*
X132071153Y-71669153D01*
X132101443Y-71644294D01*
X132136007Y-71625819D01*
X132173501Y-71614445D01*
X132218638Y-71610000D01*
X132957362Y-71610000D01*
X133002499Y-71614445D01*
X133002499Y-71614445D01*
G37*
G36*
X127442499Y-71614445D02*
X127479993Y-71625819D01*
X127514557Y-71644294D01*
X127544847Y-71669153D01*
X127569706Y-71699443D01*
X127588181Y-71734007D01*
X127599555Y-71771501D01*
X127604000Y-71816638D01*
X127604000Y-72455362D01*
X127599555Y-72500499D01*
X127588181Y-72537993D01*
X127569706Y-72572557D01*
X127544847Y-72602847D01*
X127514557Y-72627706D01*
X127479993Y-72646181D01*
X127442499Y-72657555D01*
X127397362Y-72662000D01*
X126658638Y-72662000D01*
X126613501Y-72657555D01*
X126576007Y-72646181D01*
X126541443Y-72627706D01*
X126511153Y-72602847D01*
X126486294Y-72572557D01*
X126467819Y-72537993D01*
X126456445Y-72500499D01*
X126452000Y-72455362D01*
X126452000Y-71816638D01*
X126456445Y-71771501D01*
X126467819Y-71734007D01*
X126486294Y-71699443D01*
X126511153Y-71669153D01*
X126541443Y-71644294D01*
X126576007Y-71625819D01*
X126613501Y-71614445D01*
X126658638Y-71610000D01*
X127397362Y-71610000D01*
X127442499Y-71614445D01*
X127442499Y-71614445D01*
G37*
G36*
X123632499Y-71614445D02*
X123669993Y-71625819D01*
X123704557Y-71644294D01*
X123734847Y-71669153D01*
X123759706Y-71699443D01*
X123778181Y-71734007D01*
X123789555Y-71771501D01*
X123794000Y-71816638D01*
X123794000Y-72455362D01*
X123789555Y-72500499D01*
X123778181Y-72537993D01*
X123759706Y-72572557D01*
X123734847Y-72602847D01*
X123704557Y-72627706D01*
X123669993Y-72646181D01*
X123632499Y-72657555D01*
X123587362Y-72662000D01*
X122848638Y-72662000D01*
X122803501Y-72657555D01*
X122766007Y-72646181D01*
X122731443Y-72627706D01*
X122701153Y-72602847D01*
X122676294Y-72572557D01*
X122657819Y-72537993D01*
X122646445Y-72500499D01*
X122642000Y-72455362D01*
X122642000Y-71816638D01*
X122646445Y-71771501D01*
X122657819Y-71734007D01*
X122676294Y-71699443D01*
X122701153Y-71669153D01*
X122731443Y-71644294D01*
X122766007Y-71625819D01*
X122803501Y-71614445D01*
X122848638Y-71610000D01*
X123587362Y-71610000D01*
X123632499Y-71614445D01*
X123632499Y-71614445D01*
G37*
G36*
X125382499Y-71614445D02*
X125419993Y-71625819D01*
X125454557Y-71644294D01*
X125484847Y-71669153D01*
X125509706Y-71699443D01*
X125528181Y-71734007D01*
X125539555Y-71771501D01*
X125544000Y-71816638D01*
X125544000Y-72455362D01*
X125539555Y-72500499D01*
X125528181Y-72537993D01*
X125509706Y-72572557D01*
X125484847Y-72602847D01*
X125454557Y-72627706D01*
X125419993Y-72646181D01*
X125382499Y-72657555D01*
X125337362Y-72662000D01*
X124598638Y-72662000D01*
X124553501Y-72657555D01*
X124516007Y-72646181D01*
X124481443Y-72627706D01*
X124451153Y-72602847D01*
X124426294Y-72572557D01*
X124407819Y-72537993D01*
X124396445Y-72500499D01*
X124392000Y-72455362D01*
X124392000Y-71816638D01*
X124396445Y-71771501D01*
X124407819Y-71734007D01*
X124426294Y-71699443D01*
X124451153Y-71669153D01*
X124481443Y-71644294D01*
X124516007Y-71625819D01*
X124553501Y-71614445D01*
X124598638Y-71610000D01*
X125337362Y-71610000D01*
X125382499Y-71614445D01*
X125382499Y-71614445D01*
G37*
G36*
X121572499Y-71614445D02*
X121609993Y-71625819D01*
X121644557Y-71644294D01*
X121674847Y-71669153D01*
X121699706Y-71699443D01*
X121718181Y-71734007D01*
X121729555Y-71771501D01*
X121734000Y-71816638D01*
X121734000Y-72455362D01*
X121729555Y-72500499D01*
X121718181Y-72537993D01*
X121699706Y-72572557D01*
X121674847Y-72602847D01*
X121644557Y-72627706D01*
X121609993Y-72646181D01*
X121572499Y-72657555D01*
X121527362Y-72662000D01*
X120788638Y-72662000D01*
X120743501Y-72657555D01*
X120706007Y-72646181D01*
X120671443Y-72627706D01*
X120641153Y-72602847D01*
X120616294Y-72572557D01*
X120597819Y-72537993D01*
X120586445Y-72500499D01*
X120582000Y-72455362D01*
X120582000Y-71816638D01*
X120586445Y-71771501D01*
X120597819Y-71734007D01*
X120616294Y-71699443D01*
X120641153Y-71669153D01*
X120671443Y-71644294D01*
X120706007Y-71625819D01*
X120743501Y-71614445D01*
X120788638Y-71610000D01*
X121527362Y-71610000D01*
X121572499Y-71614445D01*
X121572499Y-71614445D01*
G37*
G36*
X129192499Y-71614445D02*
X129229993Y-71625819D01*
X129264557Y-71644294D01*
X129294847Y-71669153D01*
X129319706Y-71699443D01*
X129338181Y-71734007D01*
X129349555Y-71771501D01*
X129354000Y-71816638D01*
X129354000Y-72455362D01*
X129349555Y-72500499D01*
X129338181Y-72537993D01*
X129319706Y-72572557D01*
X129294847Y-72602847D01*
X129264557Y-72627706D01*
X129229993Y-72646181D01*
X129192499Y-72657555D01*
X129147362Y-72662000D01*
X128408638Y-72662000D01*
X128363501Y-72657555D01*
X128326007Y-72646181D01*
X128291443Y-72627706D01*
X128261153Y-72602847D01*
X128236294Y-72572557D01*
X128217819Y-72537993D01*
X128206445Y-72500499D01*
X128202000Y-72455362D01*
X128202000Y-71816638D01*
X128206445Y-71771501D01*
X128217819Y-71734007D01*
X128236294Y-71699443D01*
X128261153Y-71669153D01*
X128291443Y-71644294D01*
X128326007Y-71625819D01*
X128363501Y-71614445D01*
X128408638Y-71610000D01*
X129147362Y-71610000D01*
X129192499Y-71614445D01*
X129192499Y-71614445D01*
G37*
G36*
X119822499Y-71614445D02*
X119859993Y-71625819D01*
X119894557Y-71644294D01*
X119924847Y-71669153D01*
X119949706Y-71699443D01*
X119968181Y-71734007D01*
X119979555Y-71771501D01*
X119984000Y-71816638D01*
X119984000Y-72455362D01*
X119979555Y-72500499D01*
X119968181Y-72537993D01*
X119949706Y-72572557D01*
X119924847Y-72602847D01*
X119894557Y-72627706D01*
X119859993Y-72646181D01*
X119822499Y-72657555D01*
X119777362Y-72662000D01*
X119038638Y-72662000D01*
X118993501Y-72657555D01*
X118956007Y-72646181D01*
X118921443Y-72627706D01*
X118891153Y-72602847D01*
X118866294Y-72572557D01*
X118847819Y-72537993D01*
X118836445Y-72500499D01*
X118832000Y-72455362D01*
X118832000Y-71816638D01*
X118836445Y-71771501D01*
X118847819Y-71734007D01*
X118866294Y-71699443D01*
X118891153Y-71669153D01*
X118921443Y-71644294D01*
X118956007Y-71625819D01*
X118993501Y-71614445D01*
X119038638Y-71610000D01*
X119777362Y-71610000D01*
X119822499Y-71614445D01*
X119822499Y-71614445D01*
G37*
G36*
X131252499Y-71614445D02*
X131289993Y-71625819D01*
X131324557Y-71644294D01*
X131354847Y-71669153D01*
X131379706Y-71699443D01*
X131398181Y-71734007D01*
X131409555Y-71771501D01*
X131414000Y-71816638D01*
X131414000Y-72455362D01*
X131409555Y-72500499D01*
X131398181Y-72537993D01*
X131379706Y-72572557D01*
X131354847Y-72602847D01*
X131324557Y-72627706D01*
X131289993Y-72646181D01*
X131252499Y-72657555D01*
X131207362Y-72662000D01*
X130468638Y-72662000D01*
X130423501Y-72657555D01*
X130386007Y-72646181D01*
X130351443Y-72627706D01*
X130321153Y-72602847D01*
X130296294Y-72572557D01*
X130277819Y-72537993D01*
X130266445Y-72500499D01*
X130262000Y-72455362D01*
X130262000Y-71816638D01*
X130266445Y-71771501D01*
X130277819Y-71734007D01*
X130296294Y-71699443D01*
X130321153Y-71669153D01*
X130351443Y-71644294D01*
X130386007Y-71625819D01*
X130423501Y-71614445D01*
X130468638Y-71610000D01*
X131207362Y-71610000D01*
X131252499Y-71614445D01*
X131252499Y-71614445D01*
G37*
G36*
X164113461Y-69622323D02*
X164274593Y-69654374D01*
X164551979Y-69769271D01*
X164774567Y-69918000D01*
X164801624Y-69936079D01*
X165013921Y-70148376D01*
X165013923Y-70148379D01*
X165180729Y-70398021D01*
X165295626Y-70675407D01*
X165354200Y-70969879D01*
X165354200Y-71270121D01*
X165295626Y-71564593D01*
X165180729Y-71841979D01*
X165015047Y-72089938D01*
X165013921Y-72091624D01*
X164801624Y-72303921D01*
X164801621Y-72303923D01*
X164551979Y-72470729D01*
X164274593Y-72585626D01*
X164188017Y-72602847D01*
X163980122Y-72644200D01*
X163679878Y-72644200D01*
X163471983Y-72602847D01*
X163385407Y-72585626D01*
X163108021Y-72470729D01*
X162858379Y-72303923D01*
X162858376Y-72303921D01*
X162646079Y-72091624D01*
X162644953Y-72089938D01*
X162479271Y-71841979D01*
X162364374Y-71564593D01*
X162305800Y-71270121D01*
X162305800Y-70969879D01*
X162364374Y-70675407D01*
X162479271Y-70398021D01*
X162646077Y-70148379D01*
X162646079Y-70148376D01*
X162858376Y-69936079D01*
X162885433Y-69918000D01*
X163108021Y-69769271D01*
X163385407Y-69654374D01*
X163546539Y-69622323D01*
X163679878Y-69595800D01*
X163980122Y-69595800D01*
X164113461Y-69622323D01*
X164113461Y-69622323D01*
G37*
G36*
X106790442Y-70225518D02*
X106856627Y-70232037D01*
X106969853Y-70266384D01*
X107026467Y-70283557D01*
X107165087Y-70357652D01*
X107182991Y-70367222D01*
X107218729Y-70396552D01*
X107320186Y-70479814D01*
X107403448Y-70581271D01*
X107432778Y-70617009D01*
X107432779Y-70617011D01*
X107516443Y-70773533D01*
X107516443Y-70773534D01*
X107567963Y-70943373D01*
X107585359Y-71120000D01*
X107567963Y-71296627D01*
X107535088Y-71405000D01*
X107516443Y-71466467D01*
X107495501Y-71505646D01*
X107432778Y-71622991D01*
X107430457Y-71625819D01*
X107320186Y-71760186D01*
X107220521Y-71841978D01*
X107182991Y-71872778D01*
X107182989Y-71872779D01*
X107026467Y-71956443D01*
X106969853Y-71973616D01*
X106856627Y-72007963D01*
X106790443Y-72014481D01*
X106724260Y-72021000D01*
X106635740Y-72021000D01*
X106569557Y-72014481D01*
X106503373Y-72007963D01*
X106390147Y-71973616D01*
X106333533Y-71956443D01*
X106177011Y-71872779D01*
X106177009Y-71872778D01*
X106139479Y-71841978D01*
X106039814Y-71760186D01*
X105929543Y-71625819D01*
X105927222Y-71622991D01*
X105864499Y-71505646D01*
X105843557Y-71466467D01*
X105824912Y-71405000D01*
X105792037Y-71296627D01*
X105774641Y-71120000D01*
X105792037Y-70943373D01*
X105843557Y-70773534D01*
X105843557Y-70773533D01*
X105927221Y-70617011D01*
X105927222Y-70617009D01*
X105956552Y-70581271D01*
X106039814Y-70479814D01*
X106141271Y-70396552D01*
X106177009Y-70367222D01*
X106194913Y-70357652D01*
X106333533Y-70283557D01*
X106390147Y-70266384D01*
X106503373Y-70232037D01*
X106569558Y-70225518D01*
X106635740Y-70219000D01*
X106724260Y-70219000D01*
X106790442Y-70225518D01*
X106790442Y-70225518D01*
G37*
G36*
X109330442Y-70225518D02*
X109396627Y-70232037D01*
X109509853Y-70266384D01*
X109566467Y-70283557D01*
X109705087Y-70357652D01*
X109722991Y-70367222D01*
X109758729Y-70396552D01*
X109860186Y-70479814D01*
X109943448Y-70581271D01*
X109972778Y-70617009D01*
X109972779Y-70617011D01*
X110056443Y-70773533D01*
X110056443Y-70773534D01*
X110107963Y-70943373D01*
X110125359Y-71120000D01*
X110107963Y-71296627D01*
X110075088Y-71405000D01*
X110056443Y-71466467D01*
X110035501Y-71505646D01*
X109972778Y-71622991D01*
X109970457Y-71625819D01*
X109860186Y-71760186D01*
X109760521Y-71841978D01*
X109722991Y-71872778D01*
X109722989Y-71872779D01*
X109566467Y-71956443D01*
X109509853Y-71973616D01*
X109396627Y-72007963D01*
X109330443Y-72014481D01*
X109264260Y-72021000D01*
X109175740Y-72021000D01*
X109109557Y-72014481D01*
X109043373Y-72007963D01*
X108930147Y-71973616D01*
X108873533Y-71956443D01*
X108717011Y-71872779D01*
X108717009Y-71872778D01*
X108679479Y-71841978D01*
X108579814Y-71760186D01*
X108469543Y-71625819D01*
X108467222Y-71622991D01*
X108404499Y-71505646D01*
X108383557Y-71466467D01*
X108364912Y-71405000D01*
X108332037Y-71296627D01*
X108314641Y-71120000D01*
X108332037Y-70943373D01*
X108383557Y-70773534D01*
X108383557Y-70773533D01*
X108467221Y-70617011D01*
X108467222Y-70617009D01*
X108496552Y-70581271D01*
X108579814Y-70479814D01*
X108681271Y-70396552D01*
X108717009Y-70367222D01*
X108734913Y-70357652D01*
X108873533Y-70283557D01*
X108930147Y-70266384D01*
X109043373Y-70232037D01*
X109109558Y-70225518D01*
X109175740Y-70219000D01*
X109264260Y-70219000D01*
X109330442Y-70225518D01*
X109330442Y-70225518D01*
G37*
G36*
X136385500Y-71806000D02*
X134632500Y-71806000D01*
X134632500Y-70942000D01*
X136385500Y-70942000D01*
X136385500Y-71806000D01*
X136385500Y-71806000D01*
G37*
G36*
X144894500Y-71806000D02*
X143141500Y-71806000D01*
X143141500Y-70942000D01*
X144894500Y-70942000D01*
X144894500Y-71806000D01*
X144894500Y-71806000D01*
G37*
G36*
X152256499Y-70520445D02*
X152293993Y-70531819D01*
X152328557Y-70550294D01*
X152358847Y-70575153D01*
X152383706Y-70605443D01*
X152402181Y-70640007D01*
X152413555Y-70677501D01*
X152418000Y-70722638D01*
X152418000Y-71461362D01*
X152413555Y-71506499D01*
X152402181Y-71543993D01*
X152383706Y-71578557D01*
X152358847Y-71608847D01*
X152328557Y-71633706D01*
X152293993Y-71652181D01*
X152256499Y-71663555D01*
X152211362Y-71668000D01*
X151572638Y-71668000D01*
X151527501Y-71663555D01*
X151490007Y-71652181D01*
X151455443Y-71633706D01*
X151425153Y-71608847D01*
X151400294Y-71578557D01*
X151381819Y-71543993D01*
X151370445Y-71506499D01*
X151366000Y-71461362D01*
X151366000Y-70722638D01*
X151370445Y-70677501D01*
X151381819Y-70640007D01*
X151400294Y-70605443D01*
X151425153Y-70575153D01*
X151455443Y-70550294D01*
X151490007Y-70531819D01*
X151527501Y-70520445D01*
X151572638Y-70516000D01*
X152211362Y-70516000D01*
X152256499Y-70520445D01*
X152256499Y-70520445D01*
G37*
G36*
X150478499Y-70520445D02*
X150515993Y-70531819D01*
X150550557Y-70550294D01*
X150580847Y-70575153D01*
X150605706Y-70605443D01*
X150624181Y-70640007D01*
X150635555Y-70677501D01*
X150640000Y-70722638D01*
X150640000Y-71461362D01*
X150635555Y-71506499D01*
X150624181Y-71543993D01*
X150605706Y-71578557D01*
X150580847Y-71608847D01*
X150550557Y-71633706D01*
X150515993Y-71652181D01*
X150478499Y-71663555D01*
X150433362Y-71668000D01*
X149794638Y-71668000D01*
X149749501Y-71663555D01*
X149712007Y-71652181D01*
X149677443Y-71633706D01*
X149647153Y-71608847D01*
X149622294Y-71578557D01*
X149603819Y-71543993D01*
X149592445Y-71506499D01*
X149588000Y-71461362D01*
X149588000Y-70722638D01*
X149592445Y-70677501D01*
X149603819Y-70640007D01*
X149622294Y-70605443D01*
X149647153Y-70575153D01*
X149677443Y-70550294D01*
X149712007Y-70531819D01*
X149749501Y-70520445D01*
X149794638Y-70516000D01*
X150433362Y-70516000D01*
X150478499Y-70520445D01*
X150478499Y-70520445D01*
G37*
G36*
X154034499Y-70520445D02*
X154071993Y-70531819D01*
X154106557Y-70550294D01*
X154136847Y-70575153D01*
X154161706Y-70605443D01*
X154180181Y-70640007D01*
X154191555Y-70677501D01*
X154196000Y-70722638D01*
X154196000Y-71461362D01*
X154191555Y-71506499D01*
X154180181Y-71543993D01*
X154161706Y-71578557D01*
X154136847Y-71608847D01*
X154106557Y-71633706D01*
X154071993Y-71652181D01*
X154034499Y-71663555D01*
X153989362Y-71668000D01*
X153350638Y-71668000D01*
X153305501Y-71663555D01*
X153268007Y-71652181D01*
X153233443Y-71633706D01*
X153203153Y-71608847D01*
X153178294Y-71578557D01*
X153159819Y-71543993D01*
X153148445Y-71506499D01*
X153144000Y-71461362D01*
X153144000Y-70722638D01*
X153148445Y-70677501D01*
X153159819Y-70640007D01*
X153178294Y-70605443D01*
X153203153Y-70575153D01*
X153233443Y-70550294D01*
X153268007Y-70531819D01*
X153305501Y-70520445D01*
X153350638Y-70516000D01*
X153989362Y-70516000D01*
X154034499Y-70520445D01*
X154034499Y-70520445D01*
G37*
G36*
X119822499Y-69582445D02*
X119859993Y-69593819D01*
X119894557Y-69612294D01*
X119924847Y-69637153D01*
X119949706Y-69667443D01*
X119968181Y-69702007D01*
X119979555Y-69739501D01*
X119984000Y-69784638D01*
X119984000Y-70423362D01*
X119979555Y-70468499D01*
X119968181Y-70505993D01*
X119949706Y-70540557D01*
X119924847Y-70570847D01*
X119894557Y-70595706D01*
X119859993Y-70614181D01*
X119822499Y-70625555D01*
X119777362Y-70630000D01*
X119038638Y-70630000D01*
X118993501Y-70625555D01*
X118956007Y-70614181D01*
X118921443Y-70595706D01*
X118891153Y-70570847D01*
X118866294Y-70540557D01*
X118847819Y-70505993D01*
X118836445Y-70468499D01*
X118832000Y-70423362D01*
X118832000Y-69784638D01*
X118836445Y-69739501D01*
X118847819Y-69702007D01*
X118866294Y-69667443D01*
X118891153Y-69637153D01*
X118921443Y-69612294D01*
X118956007Y-69593819D01*
X118993501Y-69582445D01*
X119038638Y-69578000D01*
X119777362Y-69578000D01*
X119822499Y-69582445D01*
X119822499Y-69582445D01*
G37*
G36*
X121572499Y-69582445D02*
X121609993Y-69593819D01*
X121644557Y-69612294D01*
X121674847Y-69637153D01*
X121699706Y-69667443D01*
X121718181Y-69702007D01*
X121729555Y-69739501D01*
X121734000Y-69784638D01*
X121734000Y-70423362D01*
X121729555Y-70468499D01*
X121718181Y-70505993D01*
X121699706Y-70540557D01*
X121674847Y-70570847D01*
X121644557Y-70595706D01*
X121609993Y-70614181D01*
X121572499Y-70625555D01*
X121527362Y-70630000D01*
X120788638Y-70630000D01*
X120743501Y-70625555D01*
X120706007Y-70614181D01*
X120671443Y-70595706D01*
X120641153Y-70570847D01*
X120616294Y-70540557D01*
X120597819Y-70505993D01*
X120586445Y-70468499D01*
X120582000Y-70423362D01*
X120582000Y-69784638D01*
X120586445Y-69739501D01*
X120597819Y-69702007D01*
X120616294Y-69667443D01*
X120641153Y-69637153D01*
X120671443Y-69612294D01*
X120706007Y-69593819D01*
X120743501Y-69582445D01*
X120788638Y-69578000D01*
X121527362Y-69578000D01*
X121572499Y-69582445D01*
X121572499Y-69582445D01*
G37*
G36*
X125382499Y-69582445D02*
X125419993Y-69593819D01*
X125454557Y-69612294D01*
X125484847Y-69637153D01*
X125509706Y-69667443D01*
X125528181Y-69702007D01*
X125539555Y-69739501D01*
X125544000Y-69784638D01*
X125544000Y-70423362D01*
X125539555Y-70468499D01*
X125528181Y-70505993D01*
X125509706Y-70540557D01*
X125484847Y-70570847D01*
X125454557Y-70595706D01*
X125419993Y-70614181D01*
X125382499Y-70625555D01*
X125337362Y-70630000D01*
X124598638Y-70630000D01*
X124553501Y-70625555D01*
X124516007Y-70614181D01*
X124481443Y-70595706D01*
X124451153Y-70570847D01*
X124426294Y-70540557D01*
X124407819Y-70505993D01*
X124396445Y-70468499D01*
X124392000Y-70423362D01*
X124392000Y-69784638D01*
X124396445Y-69739501D01*
X124407819Y-69702007D01*
X124426294Y-69667443D01*
X124451153Y-69637153D01*
X124481443Y-69612294D01*
X124516007Y-69593819D01*
X124553501Y-69582445D01*
X124598638Y-69578000D01*
X125337362Y-69578000D01*
X125382499Y-69582445D01*
X125382499Y-69582445D01*
G37*
G36*
X127442499Y-69582445D02*
X127479993Y-69593819D01*
X127514557Y-69612294D01*
X127544847Y-69637153D01*
X127569706Y-69667443D01*
X127588181Y-69702007D01*
X127599555Y-69739501D01*
X127604000Y-69784638D01*
X127604000Y-70423362D01*
X127599555Y-70468499D01*
X127588181Y-70505993D01*
X127569706Y-70540557D01*
X127544847Y-70570847D01*
X127514557Y-70595706D01*
X127479993Y-70614181D01*
X127442499Y-70625555D01*
X127397362Y-70630000D01*
X126658638Y-70630000D01*
X126613501Y-70625555D01*
X126576007Y-70614181D01*
X126541443Y-70595706D01*
X126511153Y-70570847D01*
X126486294Y-70540557D01*
X126467819Y-70505993D01*
X126456445Y-70468499D01*
X126452000Y-70423362D01*
X126452000Y-69784638D01*
X126456445Y-69739501D01*
X126467819Y-69702007D01*
X126486294Y-69667443D01*
X126511153Y-69637153D01*
X126541443Y-69612294D01*
X126576007Y-69593819D01*
X126613501Y-69582445D01*
X126658638Y-69578000D01*
X127397362Y-69578000D01*
X127442499Y-69582445D01*
X127442499Y-69582445D01*
G37*
G36*
X129192499Y-69582445D02*
X129229993Y-69593819D01*
X129264557Y-69612294D01*
X129294847Y-69637153D01*
X129319706Y-69667443D01*
X129338181Y-69702007D01*
X129349555Y-69739501D01*
X129354000Y-69784638D01*
X129354000Y-70423362D01*
X129349555Y-70468499D01*
X129338181Y-70505993D01*
X129319706Y-70540557D01*
X129294847Y-70570847D01*
X129264557Y-70595706D01*
X129229993Y-70614181D01*
X129192499Y-70625555D01*
X129147362Y-70630000D01*
X128408638Y-70630000D01*
X128363501Y-70625555D01*
X128326007Y-70614181D01*
X128291443Y-70595706D01*
X128261153Y-70570847D01*
X128236294Y-70540557D01*
X128217819Y-70505993D01*
X128206445Y-70468499D01*
X128202000Y-70423362D01*
X128202000Y-69784638D01*
X128206445Y-69739501D01*
X128217819Y-69702007D01*
X128236294Y-69667443D01*
X128261153Y-69637153D01*
X128291443Y-69612294D01*
X128326007Y-69593819D01*
X128363501Y-69582445D01*
X128408638Y-69578000D01*
X129147362Y-69578000D01*
X129192499Y-69582445D01*
X129192499Y-69582445D01*
G37*
G36*
X133002499Y-69582445D02*
X133039993Y-69593819D01*
X133074557Y-69612294D01*
X133104847Y-69637153D01*
X133129706Y-69667443D01*
X133148181Y-69702007D01*
X133159555Y-69739501D01*
X133164000Y-69784638D01*
X133164000Y-70423362D01*
X133159555Y-70468499D01*
X133148181Y-70505993D01*
X133129706Y-70540557D01*
X133104847Y-70570847D01*
X133074557Y-70595706D01*
X133039993Y-70614181D01*
X133002499Y-70625555D01*
X132957362Y-70630000D01*
X132218638Y-70630000D01*
X132173501Y-70625555D01*
X132136007Y-70614181D01*
X132101443Y-70595706D01*
X132071153Y-70570847D01*
X132046294Y-70540557D01*
X132027819Y-70505993D01*
X132016445Y-70468499D01*
X132012000Y-70423362D01*
X132012000Y-69784638D01*
X132016445Y-69739501D01*
X132027819Y-69702007D01*
X132046294Y-69667443D01*
X132071153Y-69637153D01*
X132101443Y-69612294D01*
X132136007Y-69593819D01*
X132173501Y-69582445D01*
X132218638Y-69578000D01*
X132957362Y-69578000D01*
X133002499Y-69582445D01*
X133002499Y-69582445D01*
G37*
G36*
X131252499Y-69582445D02*
X131289993Y-69593819D01*
X131324557Y-69612294D01*
X131354847Y-69637153D01*
X131379706Y-69667443D01*
X131398181Y-69702007D01*
X131409555Y-69739501D01*
X131414000Y-69784638D01*
X131414000Y-70423362D01*
X131409555Y-70468499D01*
X131398181Y-70505993D01*
X131379706Y-70540557D01*
X131354847Y-70570847D01*
X131324557Y-70595706D01*
X131289993Y-70614181D01*
X131252499Y-70625555D01*
X131207362Y-70630000D01*
X130468638Y-70630000D01*
X130423501Y-70625555D01*
X130386007Y-70614181D01*
X130351443Y-70595706D01*
X130321153Y-70570847D01*
X130296294Y-70540557D01*
X130277819Y-70505993D01*
X130266445Y-70468499D01*
X130262000Y-70423362D01*
X130262000Y-69784638D01*
X130266445Y-69739501D01*
X130277819Y-69702007D01*
X130296294Y-69667443D01*
X130321153Y-69637153D01*
X130351443Y-69612294D01*
X130386007Y-69593819D01*
X130423501Y-69582445D01*
X130468638Y-69578000D01*
X131207362Y-69578000D01*
X131252499Y-69582445D01*
X131252499Y-69582445D01*
G37*
G36*
X123632499Y-69582445D02*
X123669993Y-69593819D01*
X123704557Y-69612294D01*
X123734847Y-69637153D01*
X123759706Y-69667443D01*
X123778181Y-69702007D01*
X123789555Y-69739501D01*
X123794000Y-69784638D01*
X123794000Y-70423362D01*
X123789555Y-70468499D01*
X123778181Y-70505993D01*
X123759706Y-70540557D01*
X123734847Y-70570847D01*
X123704557Y-70595706D01*
X123669993Y-70614181D01*
X123632499Y-70625555D01*
X123587362Y-70630000D01*
X122848638Y-70630000D01*
X122803501Y-70625555D01*
X122766007Y-70614181D01*
X122731443Y-70595706D01*
X122701153Y-70570847D01*
X122676294Y-70540557D01*
X122657819Y-70505993D01*
X122646445Y-70468499D01*
X122642000Y-70423362D01*
X122642000Y-69784638D01*
X122646445Y-69739501D01*
X122657819Y-69702007D01*
X122676294Y-69667443D01*
X122701153Y-69637153D01*
X122731443Y-69612294D01*
X122766007Y-69593819D01*
X122803501Y-69582445D01*
X122848638Y-69578000D01*
X123587362Y-69578000D01*
X123632499Y-69582445D01*
X123632499Y-69582445D01*
G37*
G36*
X136385500Y-70536000D02*
X134632500Y-70536000D01*
X134632500Y-69672000D01*
X136385500Y-69672000D01*
X136385500Y-70536000D01*
X136385500Y-70536000D01*
G37*
G36*
X144894500Y-70536000D02*
X143141500Y-70536000D01*
X143141500Y-69672000D01*
X144894500Y-69672000D01*
X144894500Y-70536000D01*
X144894500Y-70536000D01*
G37*
G36*
X150478499Y-68770445D02*
X150515993Y-68781819D01*
X150550557Y-68800294D01*
X150580847Y-68825153D01*
X150605706Y-68855443D01*
X150624181Y-68890007D01*
X150635555Y-68927501D01*
X150640000Y-68972638D01*
X150640000Y-69711362D01*
X150635555Y-69756499D01*
X150624181Y-69793993D01*
X150605706Y-69828557D01*
X150580847Y-69858847D01*
X150550557Y-69883706D01*
X150515993Y-69902181D01*
X150478499Y-69913555D01*
X150433362Y-69918000D01*
X149794638Y-69918000D01*
X149749501Y-69913555D01*
X149712007Y-69902181D01*
X149677443Y-69883706D01*
X149647153Y-69858847D01*
X149622294Y-69828557D01*
X149603819Y-69793993D01*
X149592445Y-69756499D01*
X149588000Y-69711362D01*
X149588000Y-68972638D01*
X149592445Y-68927501D01*
X149603819Y-68890007D01*
X149622294Y-68855443D01*
X149647153Y-68825153D01*
X149677443Y-68800294D01*
X149712007Y-68781819D01*
X149749501Y-68770445D01*
X149794638Y-68766000D01*
X150433362Y-68766000D01*
X150478499Y-68770445D01*
X150478499Y-68770445D01*
G37*
G36*
X152256499Y-68770445D02*
X152293993Y-68781819D01*
X152328557Y-68800294D01*
X152358847Y-68825153D01*
X152383706Y-68855443D01*
X152402181Y-68890007D01*
X152413555Y-68927501D01*
X152418000Y-68972638D01*
X152418000Y-69711362D01*
X152413555Y-69756499D01*
X152402181Y-69793993D01*
X152383706Y-69828557D01*
X152358847Y-69858847D01*
X152328557Y-69883706D01*
X152293993Y-69902181D01*
X152256499Y-69913555D01*
X152211362Y-69918000D01*
X151572638Y-69918000D01*
X151527501Y-69913555D01*
X151490007Y-69902181D01*
X151455443Y-69883706D01*
X151425153Y-69858847D01*
X151400294Y-69828557D01*
X151381819Y-69793993D01*
X151370445Y-69756499D01*
X151366000Y-69711362D01*
X151366000Y-68972638D01*
X151370445Y-68927501D01*
X151381819Y-68890007D01*
X151400294Y-68855443D01*
X151425153Y-68825153D01*
X151455443Y-68800294D01*
X151490007Y-68781819D01*
X151527501Y-68770445D01*
X151572638Y-68766000D01*
X152211362Y-68766000D01*
X152256499Y-68770445D01*
X152256499Y-68770445D01*
G37*
G36*
X154034499Y-68770445D02*
X154071993Y-68781819D01*
X154106557Y-68800294D01*
X154136847Y-68825153D01*
X154161706Y-68855443D01*
X154180181Y-68890007D01*
X154191555Y-68927501D01*
X154196000Y-68972638D01*
X154196000Y-69711362D01*
X154191555Y-69756499D01*
X154180181Y-69793993D01*
X154161706Y-69828557D01*
X154136847Y-69858847D01*
X154106557Y-69883706D01*
X154071993Y-69902181D01*
X154034499Y-69913555D01*
X153989362Y-69918000D01*
X153350638Y-69918000D01*
X153305501Y-69913555D01*
X153268007Y-69902181D01*
X153233443Y-69883706D01*
X153203153Y-69858847D01*
X153178294Y-69828557D01*
X153159819Y-69793993D01*
X153148445Y-69756499D01*
X153144000Y-69711362D01*
X153144000Y-68972638D01*
X153148445Y-68927501D01*
X153159819Y-68890007D01*
X153178294Y-68855443D01*
X153203153Y-68825153D01*
X153233443Y-68800294D01*
X153268007Y-68781819D01*
X153305501Y-68770445D01*
X153350638Y-68766000D01*
X153989362Y-68766000D01*
X154034499Y-68770445D01*
X154034499Y-68770445D01*
G37*
G36*
X106790443Y-67685519D02*
X106856627Y-67692037D01*
X106969853Y-67726384D01*
X107026467Y-67743557D01*
X107159396Y-67814610D01*
X107182991Y-67827222D01*
X107216838Y-67855000D01*
X107320186Y-67939814D01*
X107403448Y-68041271D01*
X107432778Y-68077009D01*
X107432779Y-68077011D01*
X107516443Y-68233533D01*
X107516443Y-68233534D01*
X107567963Y-68403373D01*
X107585359Y-68580000D01*
X107567963Y-68756627D01*
X107533616Y-68869853D01*
X107516443Y-68926467D01*
X107461637Y-69029000D01*
X107432778Y-69082991D01*
X107403448Y-69118729D01*
X107320186Y-69220186D01*
X107218729Y-69303448D01*
X107182991Y-69332778D01*
X107182989Y-69332779D01*
X107026467Y-69416443D01*
X106969853Y-69433616D01*
X106856627Y-69467963D01*
X106790442Y-69474482D01*
X106724260Y-69481000D01*
X106635740Y-69481000D01*
X106569558Y-69474482D01*
X106503373Y-69467963D01*
X106390147Y-69433616D01*
X106333533Y-69416443D01*
X106177011Y-69332779D01*
X106177009Y-69332778D01*
X106141271Y-69303448D01*
X106039814Y-69220186D01*
X105956552Y-69118729D01*
X105927222Y-69082991D01*
X105898363Y-69029000D01*
X105843557Y-68926467D01*
X105826384Y-68869853D01*
X105792037Y-68756627D01*
X105774641Y-68580000D01*
X105792037Y-68403373D01*
X105843557Y-68233534D01*
X105843557Y-68233533D01*
X105927221Y-68077011D01*
X105927222Y-68077009D01*
X105956552Y-68041271D01*
X106039814Y-67939814D01*
X106143162Y-67855000D01*
X106177009Y-67827222D01*
X106200604Y-67814610D01*
X106333533Y-67743557D01*
X106390147Y-67726384D01*
X106503373Y-67692037D01*
X106569557Y-67685519D01*
X106635740Y-67679000D01*
X106724260Y-67679000D01*
X106790443Y-67685519D01*
X106790443Y-67685519D01*
G37*
G36*
X109330443Y-67685519D02*
X109396627Y-67692037D01*
X109509853Y-67726384D01*
X109566467Y-67743557D01*
X109699396Y-67814610D01*
X109722991Y-67827222D01*
X109756838Y-67855000D01*
X109860186Y-67939814D01*
X109943448Y-68041271D01*
X109972778Y-68077009D01*
X109972779Y-68077011D01*
X110056443Y-68233533D01*
X110056443Y-68233534D01*
X110107963Y-68403373D01*
X110125359Y-68580000D01*
X110107963Y-68756627D01*
X110073616Y-68869853D01*
X110056443Y-68926467D01*
X110001637Y-69029000D01*
X109972778Y-69082991D01*
X109943448Y-69118729D01*
X109860186Y-69220186D01*
X109758729Y-69303448D01*
X109722991Y-69332778D01*
X109722989Y-69332779D01*
X109566467Y-69416443D01*
X109509853Y-69433616D01*
X109396627Y-69467963D01*
X109330442Y-69474482D01*
X109264260Y-69481000D01*
X109175740Y-69481000D01*
X109109558Y-69474482D01*
X109043373Y-69467963D01*
X108930147Y-69433616D01*
X108873533Y-69416443D01*
X108717011Y-69332779D01*
X108717009Y-69332778D01*
X108681271Y-69303448D01*
X108579814Y-69220186D01*
X108496552Y-69118729D01*
X108467222Y-69082991D01*
X108438363Y-69029000D01*
X108383557Y-68926467D01*
X108366384Y-68869853D01*
X108332037Y-68756627D01*
X108314641Y-68580000D01*
X108332037Y-68403373D01*
X108383557Y-68233534D01*
X108383557Y-68233533D01*
X108467221Y-68077011D01*
X108467222Y-68077009D01*
X108496552Y-68041271D01*
X108579814Y-67939814D01*
X108683162Y-67855000D01*
X108717009Y-67827222D01*
X108740604Y-67814610D01*
X108873533Y-67743557D01*
X108930147Y-67726384D01*
X109043373Y-67692037D01*
X109109557Y-67685519D01*
X109175740Y-67679000D01*
X109264260Y-67679000D01*
X109330443Y-67685519D01*
X109330443Y-67685519D01*
G37*
G36*
X136385500Y-69266000D02*
X134632500Y-69266000D01*
X134632500Y-68402000D01*
X136385500Y-68402000D01*
X136385500Y-69266000D01*
X136385500Y-69266000D01*
G37*
G36*
X144894500Y-69266000D02*
X143141500Y-69266000D01*
X143141500Y-68402000D01*
X144894500Y-68402000D01*
X144894500Y-69266000D01*
X144894500Y-69266000D01*
G37*
G36*
X144894500Y-67996000D02*
X143141500Y-67996000D01*
X143141500Y-67132000D01*
X144894500Y-67132000D01*
X144894500Y-67996000D01*
X144894500Y-67996000D01*
G37*
G36*
X136385500Y-67996000D02*
X134632500Y-67996000D01*
X134632500Y-67132000D01*
X136385500Y-67132000D01*
X136385500Y-67996000D01*
X136385500Y-67996000D01*
G37*
G36*
X159184565Y-65793389D02*
X159375834Y-65872615D01*
X159547976Y-65987637D01*
X159694363Y-66134024D01*
X159809385Y-66306166D01*
X159888611Y-66497435D01*
X159929000Y-66700484D01*
X159929000Y-66907516D01*
X159888611Y-67110565D01*
X159809385Y-67301834D01*
X159694363Y-67473976D01*
X159547976Y-67620363D01*
X159375834Y-67735385D01*
X159184565Y-67814611D01*
X158981516Y-67855000D01*
X158774484Y-67855000D01*
X158571435Y-67814611D01*
X158380166Y-67735385D01*
X158208024Y-67620363D01*
X158061637Y-67473976D01*
X157946615Y-67301834D01*
X157867389Y-67110565D01*
X157827000Y-66907516D01*
X157827000Y-66700484D01*
X157867389Y-66497435D01*
X157946615Y-66306166D01*
X158061637Y-66134024D01*
X158208024Y-65987637D01*
X158380166Y-65872615D01*
X158571435Y-65793389D01*
X158774484Y-65753000D01*
X158981516Y-65753000D01*
X159184565Y-65793389D01*
X159184565Y-65793389D01*
G37*
G36*
X109328468Y-65145324D02*
X109396627Y-65152037D01*
X109472896Y-65175173D01*
X109566467Y-65203557D01*
X109705087Y-65277652D01*
X109722991Y-65287222D01*
X109758729Y-65316552D01*
X109860186Y-65399814D01*
X109943448Y-65501271D01*
X109972778Y-65537009D01*
X109972779Y-65537011D01*
X110056443Y-65693533D01*
X110056443Y-65693534D01*
X110107963Y-65863373D01*
X110125359Y-66040000D01*
X110107963Y-66216627D01*
X110081392Y-66304219D01*
X110056443Y-66386467D01*
X109997128Y-66497435D01*
X109972778Y-66542991D01*
X109943448Y-66578729D01*
X109860186Y-66680186D01*
X109758729Y-66763448D01*
X109722991Y-66792778D01*
X109722989Y-66792779D01*
X109566467Y-66876443D01*
X109509853Y-66893616D01*
X109396627Y-66927963D01*
X109330442Y-66934482D01*
X109264260Y-66941000D01*
X109175740Y-66941000D01*
X109109558Y-66934482D01*
X109043373Y-66927963D01*
X108930147Y-66893616D01*
X108873533Y-66876443D01*
X108717011Y-66792779D01*
X108717009Y-66792778D01*
X108681271Y-66763448D01*
X108579814Y-66680186D01*
X108496552Y-66578729D01*
X108467222Y-66542991D01*
X108442872Y-66497435D01*
X108383557Y-66386467D01*
X108358608Y-66304219D01*
X108332037Y-66216627D01*
X108314641Y-66040000D01*
X108332037Y-65863373D01*
X108383557Y-65693534D01*
X108383557Y-65693533D01*
X108467221Y-65537011D01*
X108467222Y-65537009D01*
X108496552Y-65501271D01*
X108579814Y-65399814D01*
X108681271Y-65316552D01*
X108717009Y-65287222D01*
X108734913Y-65277652D01*
X108873533Y-65203557D01*
X108967104Y-65175173D01*
X109043373Y-65152037D01*
X109111532Y-65145324D01*
X109175740Y-65139000D01*
X109264260Y-65139000D01*
X109328468Y-65145324D01*
X109328468Y-65145324D01*
G37*
G36*
X106788468Y-65145324D02*
X106856627Y-65152037D01*
X106932896Y-65175173D01*
X107026467Y-65203557D01*
X107165087Y-65277652D01*
X107182991Y-65287222D01*
X107218729Y-65316552D01*
X107320186Y-65399814D01*
X107403448Y-65501271D01*
X107432778Y-65537009D01*
X107432779Y-65537011D01*
X107516443Y-65693533D01*
X107516443Y-65693534D01*
X107567963Y-65863373D01*
X107585359Y-66040000D01*
X107567963Y-66216627D01*
X107541392Y-66304219D01*
X107516443Y-66386467D01*
X107457128Y-66497435D01*
X107432778Y-66542991D01*
X107403448Y-66578729D01*
X107320186Y-66680186D01*
X107218729Y-66763448D01*
X107182991Y-66792778D01*
X107182989Y-66792779D01*
X107026467Y-66876443D01*
X106969853Y-66893616D01*
X106856627Y-66927963D01*
X106790442Y-66934482D01*
X106724260Y-66941000D01*
X106635740Y-66941000D01*
X106569558Y-66934482D01*
X106503373Y-66927963D01*
X106390147Y-66893616D01*
X106333533Y-66876443D01*
X106177011Y-66792779D01*
X106177009Y-66792778D01*
X106141271Y-66763448D01*
X106039814Y-66680186D01*
X105956552Y-66578729D01*
X105927222Y-66542991D01*
X105902872Y-66497435D01*
X105843557Y-66386467D01*
X105818608Y-66304219D01*
X105792037Y-66216627D01*
X105774641Y-66040000D01*
X105792037Y-65863373D01*
X105843557Y-65693534D01*
X105843557Y-65693533D01*
X105927221Y-65537011D01*
X105927222Y-65537009D01*
X105956552Y-65501271D01*
X106039814Y-65399814D01*
X106141271Y-65316552D01*
X106177009Y-65287222D01*
X106194913Y-65277652D01*
X106333533Y-65203557D01*
X106427104Y-65175173D01*
X106503373Y-65152037D01*
X106571532Y-65145324D01*
X106635740Y-65139000D01*
X106724260Y-65139000D01*
X106788468Y-65145324D01*
X106788468Y-65145324D01*
G37*
G36*
X144894500Y-66726000D02*
X143141500Y-66726000D01*
X143141500Y-65862000D01*
X144894500Y-65862000D01*
X144894500Y-66726000D01*
X144894500Y-66726000D01*
G37*
G36*
X136385500Y-66726000D02*
X134632500Y-66726000D01*
X134632500Y-65862000D01*
X136385500Y-65862000D01*
X136385500Y-66726000D01*
X136385500Y-66726000D01*
G37*
G36*
X162796871Y-63412408D02*
X163101883Y-63538748D01*
X163228597Y-63623416D01*
X163376390Y-63722168D01*
X163609832Y-63955610D01*
X163609834Y-63955613D01*
X163793252Y-64230117D01*
X163919592Y-64535129D01*
X163984000Y-64858928D01*
X163984000Y-65189072D01*
X163919592Y-65512871D01*
X163793252Y-65817883D01*
X163679827Y-65987635D01*
X163609832Y-66092390D01*
X163376390Y-66325832D01*
X163376387Y-66325834D01*
X163101883Y-66509252D01*
X162796871Y-66635592D01*
X162473072Y-66700000D01*
X162142928Y-66700000D01*
X161819129Y-66635592D01*
X161514117Y-66509252D01*
X161239613Y-66325834D01*
X161239610Y-66325832D01*
X161006168Y-66092390D01*
X160936173Y-65987635D01*
X160822748Y-65817883D01*
X160696408Y-65512871D01*
X160632000Y-65189072D01*
X160632000Y-64858928D01*
X160696408Y-64535129D01*
X160822748Y-64230117D01*
X161006166Y-63955613D01*
X161006168Y-63955610D01*
X161239610Y-63722168D01*
X161387403Y-63623416D01*
X161514117Y-63538748D01*
X161819129Y-63412408D01*
X162142928Y-63348000D01*
X162473072Y-63348000D01*
X162796871Y-63412408D01*
X162796871Y-63412408D01*
G37*
G36*
X153401643Y-64763781D02*
X153547415Y-64824162D01*
X153678611Y-64911824D01*
X153790176Y-65023389D01*
X153877838Y-65154585D01*
X153938219Y-65300357D01*
X153969000Y-65455107D01*
X153969000Y-65612893D01*
X153938219Y-65767643D01*
X153877838Y-65913415D01*
X153790176Y-66044611D01*
X153678611Y-66156176D01*
X153547415Y-66243838D01*
X153401643Y-66304219D01*
X153246893Y-66335000D01*
X153089107Y-66335000D01*
X152934357Y-66304219D01*
X152788585Y-66243838D01*
X152657389Y-66156176D01*
X152545824Y-66044611D01*
X152458162Y-65913415D01*
X152397781Y-65767643D01*
X152367000Y-65612893D01*
X152367000Y-65455107D01*
X152397781Y-65300357D01*
X152458162Y-65154585D01*
X152545824Y-65023389D01*
X152657389Y-64911824D01*
X152788585Y-64824162D01*
X152934357Y-64763781D01*
X153089107Y-64733000D01*
X153246893Y-64733000D01*
X153401643Y-64763781D01*
X153401643Y-64763781D01*
G37*
G36*
X136385500Y-65456000D02*
X134632500Y-65456000D01*
X134632500Y-64592000D01*
X136385500Y-64592000D01*
X136385500Y-65456000D01*
X136385500Y-65456000D01*
G37*
G36*
X144894500Y-65456000D02*
X143141500Y-65456000D01*
X143141500Y-64592000D01*
X144894500Y-64592000D01*
X144894500Y-65456000D01*
X144894500Y-65456000D01*
G37*
G36*
X123415080Y-63791699D02*
X123452574Y-63803073D01*
X123487138Y-63821548D01*
X123522199Y-63850322D01*
X124044550Y-64372673D01*
X124073324Y-64407734D01*
X124091799Y-64442298D01*
X124103173Y-64479792D01*
X124107013Y-64518791D01*
X124103173Y-64557790D01*
X124091799Y-64595284D01*
X124073324Y-64629848D01*
X124044550Y-64664909D01*
X123592909Y-65116550D01*
X123557848Y-65145324D01*
X123523284Y-65163799D01*
X123485790Y-65175173D01*
X123446791Y-65179013D01*
X123407792Y-65175173D01*
X123370298Y-65163799D01*
X123335734Y-65145324D01*
X123300673Y-65116550D01*
X122778322Y-64594199D01*
X122749548Y-64559138D01*
X122731073Y-64524574D01*
X122719699Y-64487080D01*
X122715859Y-64448081D01*
X122719699Y-64409082D01*
X122731073Y-64371588D01*
X122749548Y-64337024D01*
X122778322Y-64301963D01*
X123229963Y-63850322D01*
X123265024Y-63821548D01*
X123299588Y-63803073D01*
X123337082Y-63791699D01*
X123376081Y-63787859D01*
X123415080Y-63791699D01*
X123415080Y-63791699D01*
G37*
G36*
X106790442Y-62605518D02*
X106856627Y-62612037D01*
X106969853Y-62646384D01*
X107026467Y-62663557D01*
X107157117Y-62733392D01*
X107182991Y-62747222D01*
X107204179Y-62764611D01*
X107320186Y-62859814D01*
X107403448Y-62961271D01*
X107432778Y-62997009D01*
X107432779Y-62997011D01*
X107516443Y-63153533D01*
X107532013Y-63204862D01*
X107567963Y-63323373D01*
X107585359Y-63500000D01*
X107567963Y-63676627D01*
X107554149Y-63722166D01*
X107516443Y-63846467D01*
X107493081Y-63890173D01*
X107432778Y-64002991D01*
X107423564Y-64014218D01*
X107320186Y-64140186D01*
X107218729Y-64223448D01*
X107182991Y-64252778D01*
X107182989Y-64252779D01*
X107026467Y-64336443D01*
X106969853Y-64353616D01*
X106856627Y-64387963D01*
X106790442Y-64394482D01*
X106724260Y-64401000D01*
X106635740Y-64401000D01*
X106569558Y-64394482D01*
X106503373Y-64387963D01*
X106390147Y-64353616D01*
X106333533Y-64336443D01*
X106177011Y-64252779D01*
X106177009Y-64252778D01*
X106141271Y-64223448D01*
X106039814Y-64140186D01*
X105936436Y-64014218D01*
X105927222Y-64002991D01*
X105866919Y-63890173D01*
X105843557Y-63846467D01*
X105805851Y-63722166D01*
X105792037Y-63676627D01*
X105774641Y-63500000D01*
X105792037Y-63323373D01*
X105827987Y-63204862D01*
X105843557Y-63153533D01*
X105927221Y-62997011D01*
X105927222Y-62997009D01*
X105956552Y-62961271D01*
X106039814Y-62859814D01*
X106155821Y-62764611D01*
X106177009Y-62747222D01*
X106202883Y-62733392D01*
X106333533Y-62663557D01*
X106390147Y-62646384D01*
X106503373Y-62612037D01*
X106569558Y-62605518D01*
X106635740Y-62599000D01*
X106724260Y-62599000D01*
X106790442Y-62605518D01*
X106790442Y-62605518D01*
G37*
G36*
X109330442Y-62605518D02*
X109396627Y-62612037D01*
X109509853Y-62646384D01*
X109566467Y-62663557D01*
X109697117Y-62733392D01*
X109722991Y-62747222D01*
X109744179Y-62764611D01*
X109860186Y-62859814D01*
X109943448Y-62961271D01*
X109972778Y-62997009D01*
X109972779Y-62997011D01*
X110056443Y-63153533D01*
X110072013Y-63204862D01*
X110107963Y-63323373D01*
X110125359Y-63500000D01*
X110107963Y-63676627D01*
X110094149Y-63722166D01*
X110056443Y-63846467D01*
X110033081Y-63890173D01*
X109972778Y-64002991D01*
X109963564Y-64014218D01*
X109860186Y-64140186D01*
X109758729Y-64223448D01*
X109722991Y-64252778D01*
X109722989Y-64252779D01*
X109566467Y-64336443D01*
X109509853Y-64353616D01*
X109396627Y-64387963D01*
X109330442Y-64394482D01*
X109264260Y-64401000D01*
X109175740Y-64401000D01*
X109109558Y-64394482D01*
X109043373Y-64387963D01*
X108930147Y-64353616D01*
X108873533Y-64336443D01*
X108717011Y-64252779D01*
X108717009Y-64252778D01*
X108681271Y-64223448D01*
X108579814Y-64140186D01*
X108476436Y-64014218D01*
X108467222Y-64002991D01*
X108406919Y-63890173D01*
X108383557Y-63846467D01*
X108345851Y-63722166D01*
X108332037Y-63676627D01*
X108314641Y-63500000D01*
X108332037Y-63323373D01*
X108367987Y-63204862D01*
X108383557Y-63153533D01*
X108467221Y-62997011D01*
X108467222Y-62997009D01*
X108496552Y-62961271D01*
X108579814Y-62859814D01*
X108695821Y-62764611D01*
X108717009Y-62747222D01*
X108742883Y-62733392D01*
X108873533Y-62663557D01*
X108930147Y-62646384D01*
X109043373Y-62612037D01*
X109109558Y-62605518D01*
X109175740Y-62599000D01*
X109264260Y-62599000D01*
X109330442Y-62605518D01*
X109330442Y-62605518D01*
G37*
G36*
X136385500Y-64186000D02*
X134632500Y-64186000D01*
X134632500Y-63322000D01*
X136385500Y-63322000D01*
X136385500Y-64186000D01*
X136385500Y-64186000D01*
G37*
G36*
X144894500Y-64186000D02*
X143141500Y-64186000D01*
X143141500Y-63322000D01*
X144894500Y-63322000D01*
X144894500Y-64186000D01*
X144894500Y-64186000D01*
G37*
G36*
X153401643Y-62473781D02*
X153547415Y-62534162D01*
X153678611Y-62621824D01*
X153790176Y-62733389D01*
X153877838Y-62864585D01*
X153938219Y-63010357D01*
X153969000Y-63165107D01*
X153969000Y-63322893D01*
X153938219Y-63477643D01*
X153877838Y-63623415D01*
X153790176Y-63754611D01*
X153678611Y-63866176D01*
X153547415Y-63953838D01*
X153401643Y-64014219D01*
X153246893Y-64045000D01*
X153089107Y-64045000D01*
X152934357Y-64014219D01*
X152788585Y-63953838D01*
X152657389Y-63866176D01*
X152545824Y-63754611D01*
X152458162Y-63623415D01*
X152397781Y-63477643D01*
X152367000Y-63322893D01*
X152367000Y-63165107D01*
X152397781Y-63010357D01*
X152458162Y-62864585D01*
X152545824Y-62733389D01*
X152657389Y-62621824D01*
X152788585Y-62534162D01*
X152934357Y-62473781D01*
X153089107Y-62443000D01*
X153246893Y-62443000D01*
X153401643Y-62473781D01*
X153401643Y-62473781D01*
G37*
G36*
X122177644Y-62554263D02*
X122215138Y-62565637D01*
X122249702Y-62584112D01*
X122284763Y-62612886D01*
X122807114Y-63135237D01*
X122835888Y-63170298D01*
X122854363Y-63204862D01*
X122865737Y-63242356D01*
X122869577Y-63281355D01*
X122865737Y-63320354D01*
X122854363Y-63357848D01*
X122835888Y-63392412D01*
X122807114Y-63427473D01*
X122355473Y-63879114D01*
X122320412Y-63907888D01*
X122285848Y-63926363D01*
X122248354Y-63937737D01*
X122209355Y-63941577D01*
X122170356Y-63937737D01*
X122132862Y-63926363D01*
X122098298Y-63907888D01*
X122063237Y-63879114D01*
X121540886Y-63356763D01*
X121512112Y-63321702D01*
X121493637Y-63287138D01*
X121482263Y-63249644D01*
X121478423Y-63210645D01*
X121482263Y-63171646D01*
X121493637Y-63134152D01*
X121512112Y-63099588D01*
X121540886Y-63064527D01*
X121992527Y-62612886D01*
X122027588Y-62584112D01*
X122062152Y-62565637D01*
X122099646Y-62554263D01*
X122138645Y-62550423D01*
X122177644Y-62554263D01*
X122177644Y-62554263D01*
G37*
G36*
X158221643Y-61483781D02*
X158367415Y-61544162D01*
X158498611Y-61631824D01*
X158610176Y-61743389D01*
X158697838Y-61874585D01*
X158758219Y-62020357D01*
X158789000Y-62175107D01*
X158789000Y-62332893D01*
X158758219Y-62487643D01*
X158697838Y-62633415D01*
X158610176Y-62764611D01*
X158498611Y-62876176D01*
X158367415Y-62963838D01*
X158221643Y-63024219D01*
X158066893Y-63055000D01*
X157909107Y-63055000D01*
X157754357Y-63024219D01*
X157608585Y-62963838D01*
X157477389Y-62876176D01*
X157365824Y-62764611D01*
X157278162Y-62633415D01*
X157217781Y-62487643D01*
X157187000Y-62332893D01*
X157187000Y-62175107D01*
X157217781Y-62020357D01*
X157278162Y-61874585D01*
X157365824Y-61743389D01*
X157477389Y-61631824D01*
X157608585Y-61544162D01*
X157754357Y-61483781D01*
X157909107Y-61453000D01*
X158066893Y-61453000D01*
X158221643Y-61483781D01*
X158221643Y-61483781D01*
G37*
G36*
X136065780Y-53910896D02*
X135831020Y-54145656D01*
X135782938Y-54193739D01*
X135265335Y-54711342D01*
X135217252Y-54759424D01*
X134699649Y-55277027D01*
X134651567Y-55325110D01*
X134416807Y-55559870D01*
X134368724Y-55607952D01*
X133851121Y-56125555D01*
X133803039Y-56173638D01*
X133285436Y-56691241D01*
X133237353Y-56739323D01*
X132719750Y-57256926D01*
X132671668Y-57305009D01*
X132436908Y-57539769D01*
X132388825Y-57587851D01*
X131871222Y-58105454D01*
X131823140Y-58153537D01*
X131305537Y-58671140D01*
X131257454Y-58719222D01*
X130739851Y-59236825D01*
X130691769Y-59284908D01*
X130457009Y-59519668D01*
X130408926Y-59567750D01*
X129891323Y-60085353D01*
X129843241Y-60133436D01*
X129325638Y-60651039D01*
X129277555Y-60699121D01*
X128759952Y-61216724D01*
X128711870Y-61264807D01*
X128477110Y-61499567D01*
X128429027Y-61547649D01*
X127911424Y-62065252D01*
X127863342Y-62113335D01*
X127345739Y-62630938D01*
X127297656Y-62679020D01*
X127062896Y-62913780D01*
X126283664Y-62134548D01*
X126606797Y-61811415D01*
X126606803Y-61811410D01*
X126801267Y-61616946D01*
X126801268Y-61616947D01*
X126849351Y-61568864D01*
X126849350Y-61568863D01*
X127043815Y-61374398D01*
X127043820Y-61374392D01*
X127738173Y-60680039D01*
X127738179Y-60680034D01*
X127892338Y-60525875D01*
X127892342Y-60525870D01*
X128586696Y-59831516D01*
X128586702Y-59831511D01*
X128781166Y-59637047D01*
X128781167Y-59637048D01*
X128829250Y-59588965D01*
X128829249Y-59588964D01*
X129023714Y-59394499D01*
X129023719Y-59394493D01*
X129718072Y-58700140D01*
X129718077Y-58700136D01*
X129872237Y-58545976D01*
X129872241Y-58545971D01*
X130566595Y-57851617D01*
X130566601Y-57851612D01*
X130761065Y-57657148D01*
X130761066Y-57657149D01*
X130809149Y-57609066D01*
X130809148Y-57609065D01*
X131003613Y-57414600D01*
X131003618Y-57414594D01*
X131697971Y-56720241D01*
X131697977Y-56720236D01*
X131852136Y-56566077D01*
X131852140Y-56566072D01*
X132546494Y-55871718D01*
X132546500Y-55871713D01*
X132740964Y-55677249D01*
X132740965Y-55677250D01*
X132789048Y-55629167D01*
X132789047Y-55629166D01*
X132983512Y-55434701D01*
X132983517Y-55434695D01*
X133677870Y-54740342D01*
X133677876Y-54740337D01*
X133832035Y-54586178D01*
X133832039Y-54586173D01*
X134526393Y-53891819D01*
X134526399Y-53891814D01*
X134720863Y-53697350D01*
X134720864Y-53697351D01*
X134768947Y-53649268D01*
X134768946Y-53649267D01*
X134963411Y-53454802D01*
X134963416Y-53454796D01*
X135286548Y-53131664D01*
X136065780Y-53910896D01*
X136065780Y-53910896D01*
G37*
G36*
X116496595Y-53454807D02*
X116496600Y-53454813D01*
X116933592Y-53891805D01*
X116933598Y-53891810D01*
X117627966Y-54586178D01*
X117627971Y-54586184D01*
X117782120Y-54740333D01*
X117782126Y-54740338D01*
X118476494Y-55434706D01*
X118476499Y-55434712D01*
X118913491Y-55871704D01*
X118913497Y-55871709D01*
X119607865Y-56566077D01*
X119607870Y-56566083D01*
X119762019Y-56720232D01*
X119762025Y-56720237D01*
X120456393Y-57414605D01*
X120456398Y-57414611D01*
X120893390Y-57851603D01*
X120893396Y-57851608D01*
X121587764Y-58545976D01*
X121587769Y-58545982D01*
X121741918Y-58700131D01*
X121741924Y-58700136D01*
X122436292Y-59394504D01*
X122436297Y-59394510D01*
X122873289Y-59831502D01*
X122873295Y-59831507D01*
X123567663Y-60525875D01*
X123567668Y-60525881D01*
X123721817Y-60680030D01*
X123721823Y-60680035D01*
X124416191Y-61374403D01*
X124416196Y-61374409D01*
X124853188Y-61811401D01*
X124853194Y-61811406D01*
X125176336Y-62134548D01*
X124397104Y-62913780D01*
X124202650Y-62719326D01*
X124202644Y-62719321D01*
X123508276Y-62024953D01*
X123508271Y-62024947D01*
X123071279Y-61587955D01*
X123071273Y-61587950D01*
X122659748Y-61176425D01*
X122659743Y-61176419D01*
X122222751Y-60739427D01*
X122222745Y-60739422D01*
X121528377Y-60045054D01*
X121528372Y-60045048D01*
X121091380Y-59608056D01*
X121091374Y-59608051D01*
X120679849Y-59196526D01*
X120679844Y-59196520D01*
X120242852Y-58759528D01*
X120242846Y-58759523D01*
X119548478Y-58065155D01*
X119548473Y-58065149D01*
X119111481Y-57628157D01*
X119111475Y-57628152D01*
X118699950Y-57216627D01*
X118699945Y-57216621D01*
X118262953Y-56779629D01*
X118262947Y-56779624D01*
X117568579Y-56085256D01*
X117568574Y-56085250D01*
X117131582Y-55648258D01*
X117131576Y-55648253D01*
X116720051Y-55236728D01*
X116720046Y-55236722D01*
X116283054Y-54799730D01*
X116283048Y-54799725D01*
X115588680Y-54105357D01*
X115588675Y-54105351D01*
X115394220Y-53910896D01*
X116173452Y-53131664D01*
X116496595Y-53454807D01*
X116496595Y-53454807D01*
G37*
G36*
X150782499Y-61454445D02*
X150819993Y-61465819D01*
X150854557Y-61484294D01*
X150884847Y-61509153D01*
X150909706Y-61539443D01*
X150928181Y-61574007D01*
X150939555Y-61611501D01*
X150944000Y-61656638D01*
X150944000Y-62295362D01*
X150939555Y-62340499D01*
X150928181Y-62377993D01*
X150909706Y-62412557D01*
X150884847Y-62442847D01*
X150854557Y-62467706D01*
X150819993Y-62486181D01*
X150782499Y-62497555D01*
X150737362Y-62502000D01*
X149998638Y-62502000D01*
X149953501Y-62497555D01*
X149916007Y-62486181D01*
X149881443Y-62467706D01*
X149851153Y-62442847D01*
X149826294Y-62412557D01*
X149807819Y-62377993D01*
X149796445Y-62340499D01*
X149792000Y-62295362D01*
X149792000Y-61656638D01*
X149796445Y-61611501D01*
X149807819Y-61574007D01*
X149826294Y-61539443D01*
X149851153Y-61509153D01*
X149881443Y-61484294D01*
X149916007Y-61465819D01*
X149953501Y-61454445D01*
X149998638Y-61450000D01*
X150737362Y-61450000D01*
X150782499Y-61454445D01*
X150782499Y-61454445D01*
G37*
G36*
X149032499Y-61454445D02*
X149069993Y-61465819D01*
X149104557Y-61484294D01*
X149134847Y-61509153D01*
X149159706Y-61539443D01*
X149178181Y-61574007D01*
X149189555Y-61611501D01*
X149194000Y-61656638D01*
X149194000Y-62295362D01*
X149189555Y-62340499D01*
X149178181Y-62377993D01*
X149159706Y-62412557D01*
X149134847Y-62442847D01*
X149104557Y-62467706D01*
X149069993Y-62486181D01*
X149032499Y-62497555D01*
X148987362Y-62502000D01*
X148248638Y-62502000D01*
X148203501Y-62497555D01*
X148166007Y-62486181D01*
X148131443Y-62467706D01*
X148101153Y-62442847D01*
X148076294Y-62412557D01*
X148057819Y-62377993D01*
X148046445Y-62340499D01*
X148042000Y-62295362D01*
X148042000Y-61656638D01*
X148046445Y-61611501D01*
X148057819Y-61574007D01*
X148076294Y-61539443D01*
X148101153Y-61509153D01*
X148131443Y-61484294D01*
X148166007Y-61465819D01*
X148203501Y-61454445D01*
X148248638Y-61450000D01*
X148987362Y-61450000D01*
X149032499Y-61454445D01*
X149032499Y-61454445D01*
G37*
G36*
X160001643Y-60463781D02*
X160147415Y-60524162D01*
X160278611Y-60611824D01*
X160390176Y-60723389D01*
X160477838Y-60854585D01*
X160538219Y-61000357D01*
X160569000Y-61155107D01*
X160569000Y-61312893D01*
X160538219Y-61467643D01*
X160477838Y-61613415D01*
X160390176Y-61744611D01*
X160278611Y-61856176D01*
X160147415Y-61943838D01*
X160001643Y-62004219D01*
X159846893Y-62035000D01*
X159689107Y-62035000D01*
X159534357Y-62004219D01*
X159388585Y-61943838D01*
X159257389Y-61856176D01*
X159145824Y-61744611D01*
X159058162Y-61613415D01*
X158997781Y-61467643D01*
X158967000Y-61312893D01*
X158967000Y-61155107D01*
X158997781Y-61000357D01*
X159058162Y-60854585D01*
X159145824Y-60723389D01*
X159257389Y-60611824D01*
X159388585Y-60524162D01*
X159534357Y-60463781D01*
X159689107Y-60433000D01*
X159846893Y-60433000D01*
X160001643Y-60463781D01*
X160001643Y-60463781D01*
G37*
G36*
X109330442Y-60065518D02*
X109396627Y-60072037D01*
X109509853Y-60106384D01*
X109566467Y-60123557D01*
X109624635Y-60154649D01*
X109722991Y-60207222D01*
X109758729Y-60236552D01*
X109860186Y-60319814D01*
X109934894Y-60410847D01*
X109972778Y-60457009D01*
X109972779Y-60457011D01*
X110056443Y-60613533D01*
X110067820Y-60651039D01*
X110107963Y-60783373D01*
X110125359Y-60960000D01*
X110107963Y-61136627D01*
X110095892Y-61176419D01*
X110056443Y-61306467D01*
X109982348Y-61445087D01*
X109972778Y-61462991D01*
X109970457Y-61465819D01*
X109860186Y-61600186D01*
X109758729Y-61683448D01*
X109722991Y-61712778D01*
X109722989Y-61712779D01*
X109566467Y-61796443D01*
X109517156Y-61811401D01*
X109396627Y-61847963D01*
X109330443Y-61854481D01*
X109264260Y-61861000D01*
X109175740Y-61861000D01*
X109109557Y-61854481D01*
X109043373Y-61847963D01*
X108922844Y-61811401D01*
X108873533Y-61796443D01*
X108717011Y-61712779D01*
X108717009Y-61712778D01*
X108681271Y-61683448D01*
X108579814Y-61600186D01*
X108469543Y-61465819D01*
X108467222Y-61462991D01*
X108457652Y-61445087D01*
X108383557Y-61306467D01*
X108344108Y-61176419D01*
X108332037Y-61136627D01*
X108314641Y-60960000D01*
X108332037Y-60783373D01*
X108372180Y-60651039D01*
X108383557Y-60613533D01*
X108467221Y-60457011D01*
X108467222Y-60457009D01*
X108505106Y-60410847D01*
X108579814Y-60319814D01*
X108681271Y-60236552D01*
X108717009Y-60207222D01*
X108815365Y-60154649D01*
X108873533Y-60123557D01*
X108930147Y-60106384D01*
X109043373Y-60072037D01*
X109109558Y-60065518D01*
X109175740Y-60059000D01*
X109264260Y-60059000D01*
X109330442Y-60065518D01*
X109330442Y-60065518D01*
G37*
G36*
X106790442Y-60065518D02*
X106856627Y-60072037D01*
X106969853Y-60106384D01*
X107026467Y-60123557D01*
X107084635Y-60154649D01*
X107182991Y-60207222D01*
X107218729Y-60236552D01*
X107320186Y-60319814D01*
X107394894Y-60410847D01*
X107432778Y-60457009D01*
X107432779Y-60457011D01*
X107516443Y-60613533D01*
X107527820Y-60651039D01*
X107567963Y-60783373D01*
X107585359Y-60960000D01*
X107567963Y-61136627D01*
X107555892Y-61176419D01*
X107516443Y-61306467D01*
X107442348Y-61445087D01*
X107432778Y-61462991D01*
X107430457Y-61465819D01*
X107320186Y-61600186D01*
X107218729Y-61683448D01*
X107182991Y-61712778D01*
X107182989Y-61712779D01*
X107026467Y-61796443D01*
X106977156Y-61811401D01*
X106856627Y-61847963D01*
X106790443Y-61854481D01*
X106724260Y-61861000D01*
X106635740Y-61861000D01*
X106569557Y-61854481D01*
X106503373Y-61847963D01*
X106382844Y-61811401D01*
X106333533Y-61796443D01*
X106177011Y-61712779D01*
X106177009Y-61712778D01*
X106141271Y-61683448D01*
X106039814Y-61600186D01*
X105929543Y-61465819D01*
X105927222Y-61462991D01*
X105917652Y-61445087D01*
X105843557Y-61306467D01*
X105804108Y-61176419D01*
X105792037Y-61136627D01*
X105774641Y-60960000D01*
X105792037Y-60783373D01*
X105832180Y-60651039D01*
X105843557Y-60613533D01*
X105927221Y-60457011D01*
X105927222Y-60457009D01*
X105965106Y-60410847D01*
X106039814Y-60319814D01*
X106141271Y-60236552D01*
X106177009Y-60207222D01*
X106275365Y-60154649D01*
X106333533Y-60123557D01*
X106390147Y-60106384D01*
X106503373Y-60072037D01*
X106569558Y-60065518D01*
X106635740Y-60059000D01*
X106724260Y-60059000D01*
X106790442Y-60065518D01*
X106790442Y-60065518D01*
G37*
G36*
X158221643Y-59443781D02*
X158367415Y-59504162D01*
X158498611Y-59591824D01*
X158610176Y-59703389D01*
X158697838Y-59834585D01*
X158758219Y-59980357D01*
X158789000Y-60135107D01*
X158789000Y-60292893D01*
X158758219Y-60447643D01*
X158697838Y-60593415D01*
X158610176Y-60724611D01*
X158498611Y-60836176D01*
X158367415Y-60923838D01*
X158221643Y-60984219D01*
X158066893Y-61015000D01*
X157909107Y-61015000D01*
X157754357Y-60984219D01*
X157608585Y-60923838D01*
X157477389Y-60836176D01*
X157365824Y-60724611D01*
X157278162Y-60593415D01*
X157217781Y-60447643D01*
X157187000Y-60292893D01*
X157187000Y-60135107D01*
X157217781Y-59980357D01*
X157278162Y-59834585D01*
X157365824Y-59703389D01*
X157477389Y-59591824D01*
X157608585Y-59504162D01*
X157754357Y-59443781D01*
X157909107Y-59413000D01*
X158066893Y-59413000D01*
X158221643Y-59443781D01*
X158221643Y-59443781D01*
G37*
G36*
X140064499Y-59598445D02*
X140101993Y-59609819D01*
X140136557Y-59628294D01*
X140166847Y-59653153D01*
X140191706Y-59683443D01*
X140210181Y-59718007D01*
X140221555Y-59755501D01*
X140226000Y-59800638D01*
X140226000Y-60539362D01*
X140221555Y-60584499D01*
X140210181Y-60621993D01*
X140191706Y-60656557D01*
X140166847Y-60686847D01*
X140136557Y-60711706D01*
X140101993Y-60730181D01*
X140064499Y-60741555D01*
X140019362Y-60746000D01*
X139380638Y-60746000D01*
X139335501Y-60741555D01*
X139298007Y-60730181D01*
X139263443Y-60711706D01*
X139233153Y-60686847D01*
X139208294Y-60656557D01*
X139189819Y-60621993D01*
X139178445Y-60584499D01*
X139174000Y-60539362D01*
X139174000Y-59800638D01*
X139178445Y-59755501D01*
X139189819Y-59718007D01*
X139208294Y-59683443D01*
X139233153Y-59653153D01*
X139263443Y-59628294D01*
X139298007Y-59609819D01*
X139335501Y-59598445D01*
X139380638Y-59594000D01*
X140019362Y-59594000D01*
X140064499Y-59598445D01*
X140064499Y-59598445D01*
G37*
G36*
X141842499Y-59598445D02*
X141879993Y-59609819D01*
X141914557Y-59628294D01*
X141944847Y-59653153D01*
X141969706Y-59683443D01*
X141988181Y-59718007D01*
X141999555Y-59755501D01*
X142004000Y-59800638D01*
X142004000Y-60539362D01*
X141999555Y-60584499D01*
X141988181Y-60621993D01*
X141969706Y-60656557D01*
X141944847Y-60686847D01*
X141914557Y-60711706D01*
X141879993Y-60730181D01*
X141842499Y-60741555D01*
X141797362Y-60746000D01*
X141158638Y-60746000D01*
X141113501Y-60741555D01*
X141076007Y-60730181D01*
X141041443Y-60711706D01*
X141011153Y-60686847D01*
X140986294Y-60656557D01*
X140967819Y-60621993D01*
X140956445Y-60584499D01*
X140952000Y-60539362D01*
X140952000Y-59800638D01*
X140956445Y-59755501D01*
X140967819Y-59718007D01*
X140986294Y-59683443D01*
X141011153Y-59653153D01*
X141041443Y-59628294D01*
X141076007Y-59609819D01*
X141113501Y-59598445D01*
X141158638Y-59594000D01*
X141797362Y-59594000D01*
X141842499Y-59598445D01*
X141842499Y-59598445D01*
G37*
G36*
X149032499Y-59422445D02*
X149069993Y-59433819D01*
X149104557Y-59452294D01*
X149134847Y-59477153D01*
X149159706Y-59507443D01*
X149178181Y-59542007D01*
X149189555Y-59579501D01*
X149194000Y-59624638D01*
X149194000Y-60263362D01*
X149189555Y-60308499D01*
X149178181Y-60345993D01*
X149159706Y-60380557D01*
X149134847Y-60410847D01*
X149104557Y-60435706D01*
X149069993Y-60454181D01*
X149032499Y-60465555D01*
X148987362Y-60470000D01*
X148248638Y-60470000D01*
X148203501Y-60465555D01*
X148166007Y-60454181D01*
X148131443Y-60435706D01*
X148101153Y-60410847D01*
X148076294Y-60380557D01*
X148057819Y-60345993D01*
X148046445Y-60308499D01*
X148042000Y-60263362D01*
X148042000Y-59624638D01*
X148046445Y-59579501D01*
X148057819Y-59542007D01*
X148076294Y-59507443D01*
X148101153Y-59477153D01*
X148131443Y-59452294D01*
X148166007Y-59433819D01*
X148203501Y-59422445D01*
X148248638Y-59418000D01*
X148987362Y-59418000D01*
X149032499Y-59422445D01*
X149032499Y-59422445D01*
G37*
G36*
X150782499Y-59422445D02*
X150819993Y-59433819D01*
X150854557Y-59452294D01*
X150884847Y-59477153D01*
X150909706Y-59507443D01*
X150928181Y-59542007D01*
X150939555Y-59579501D01*
X150944000Y-59624638D01*
X150944000Y-60263362D01*
X150939555Y-60308499D01*
X150928181Y-60345993D01*
X150909706Y-60380557D01*
X150884847Y-60410847D01*
X150854557Y-60435706D01*
X150819993Y-60454181D01*
X150782499Y-60465555D01*
X150737362Y-60470000D01*
X149998638Y-60470000D01*
X149953501Y-60465555D01*
X149916007Y-60454181D01*
X149881443Y-60435706D01*
X149851153Y-60410847D01*
X149826294Y-60380557D01*
X149807819Y-60345993D01*
X149796445Y-60308499D01*
X149792000Y-60263362D01*
X149792000Y-59624638D01*
X149796445Y-59579501D01*
X149807819Y-59542007D01*
X149826294Y-59507443D01*
X149851153Y-59477153D01*
X149881443Y-59452294D01*
X149916007Y-59433819D01*
X149953501Y-59422445D01*
X149998638Y-59418000D01*
X150737362Y-59418000D01*
X150782499Y-59422445D01*
X150782499Y-59422445D01*
G37*
G36*
X160001643Y-58423781D02*
X160147415Y-58484162D01*
X160278611Y-58571824D01*
X160390176Y-58683389D01*
X160477838Y-58814585D01*
X160538219Y-58960357D01*
X160569000Y-59115107D01*
X160569000Y-59272893D01*
X160538219Y-59427643D01*
X160477838Y-59573415D01*
X160390176Y-59704611D01*
X160278611Y-59816176D01*
X160147415Y-59903838D01*
X160001643Y-59964219D01*
X159846893Y-59995000D01*
X159689107Y-59995000D01*
X159534357Y-59964219D01*
X159388585Y-59903838D01*
X159257389Y-59816176D01*
X159145824Y-59704611D01*
X159058162Y-59573415D01*
X158997781Y-59427643D01*
X158967000Y-59272893D01*
X158967000Y-59115107D01*
X158997781Y-58960357D01*
X159058162Y-58814585D01*
X159145824Y-58683389D01*
X159257389Y-58571824D01*
X159388585Y-58484162D01*
X159534357Y-58423781D01*
X159689107Y-58393000D01*
X159846893Y-58393000D01*
X160001643Y-58423781D01*
X160001643Y-58423781D01*
G37*
G36*
X106790443Y-57525519D02*
X106856627Y-57532037D01*
X106969853Y-57566384D01*
X107026467Y-57583557D01*
X107109906Y-57628157D01*
X107182991Y-57667222D01*
X107218729Y-57696552D01*
X107320186Y-57779814D01*
X107389291Y-57864020D01*
X107432778Y-57917009D01*
X107432779Y-57917011D01*
X107516443Y-58073533D01*
X107526126Y-58105454D01*
X107567963Y-58243373D01*
X107585359Y-58420000D01*
X107567963Y-58596627D01*
X107545360Y-58671140D01*
X107516443Y-58766467D01*
X107460037Y-58871993D01*
X107432778Y-58922991D01*
X107409236Y-58951677D01*
X107320186Y-59060186D01*
X107253262Y-59115108D01*
X107182991Y-59172778D01*
X107182989Y-59172779D01*
X107026467Y-59256443D01*
X106972241Y-59272892D01*
X106856627Y-59307963D01*
X106790442Y-59314482D01*
X106724260Y-59321000D01*
X106635740Y-59321000D01*
X106569558Y-59314482D01*
X106503373Y-59307963D01*
X106387759Y-59272892D01*
X106333533Y-59256443D01*
X106177011Y-59172779D01*
X106177009Y-59172778D01*
X106106738Y-59115108D01*
X106039814Y-59060186D01*
X105950764Y-58951677D01*
X105927222Y-58922991D01*
X105899963Y-58871993D01*
X105843557Y-58766467D01*
X105814640Y-58671140D01*
X105792037Y-58596627D01*
X105774641Y-58420000D01*
X105792037Y-58243373D01*
X105833874Y-58105454D01*
X105843557Y-58073533D01*
X105927221Y-57917011D01*
X105927222Y-57917009D01*
X105970709Y-57864020D01*
X106039814Y-57779814D01*
X106141271Y-57696552D01*
X106177009Y-57667222D01*
X106250094Y-57628157D01*
X106333533Y-57583557D01*
X106390147Y-57566384D01*
X106503373Y-57532037D01*
X106569557Y-57525519D01*
X106635740Y-57519000D01*
X106724260Y-57519000D01*
X106790443Y-57525519D01*
X106790443Y-57525519D01*
G37*
G36*
X109330443Y-57525519D02*
X109396627Y-57532037D01*
X109509853Y-57566384D01*
X109566467Y-57583557D01*
X109649906Y-57628157D01*
X109722991Y-57667222D01*
X109758729Y-57696552D01*
X109860186Y-57779814D01*
X109929291Y-57864020D01*
X109972778Y-57917009D01*
X109972779Y-57917011D01*
X110056443Y-58073533D01*
X110066126Y-58105454D01*
X110107963Y-58243373D01*
X110125359Y-58420000D01*
X110107963Y-58596627D01*
X110085360Y-58671140D01*
X110056443Y-58766467D01*
X110000037Y-58871993D01*
X109972778Y-58922991D01*
X109949236Y-58951677D01*
X109860186Y-59060186D01*
X109793262Y-59115108D01*
X109722991Y-59172778D01*
X109722989Y-59172779D01*
X109566467Y-59256443D01*
X109512241Y-59272892D01*
X109396627Y-59307963D01*
X109330442Y-59314482D01*
X109264260Y-59321000D01*
X109175740Y-59321000D01*
X109109558Y-59314482D01*
X109043373Y-59307963D01*
X108927759Y-59272892D01*
X108873533Y-59256443D01*
X108717011Y-59172779D01*
X108717009Y-59172778D01*
X108646738Y-59115108D01*
X108579814Y-59060186D01*
X108490764Y-58951677D01*
X108467222Y-58922991D01*
X108439963Y-58871993D01*
X108383557Y-58766467D01*
X108354640Y-58671140D01*
X108332037Y-58596627D01*
X108314641Y-58420000D01*
X108332037Y-58243373D01*
X108373874Y-58105454D01*
X108383557Y-58073533D01*
X108467221Y-57917011D01*
X108467222Y-57917009D01*
X108510709Y-57864020D01*
X108579814Y-57779814D01*
X108681271Y-57696552D01*
X108717009Y-57667222D01*
X108790094Y-57628157D01*
X108873533Y-57583557D01*
X108930147Y-57566384D01*
X109043373Y-57532037D01*
X109109557Y-57525519D01*
X109175740Y-57519000D01*
X109264260Y-57519000D01*
X109330443Y-57525519D01*
X109330443Y-57525519D01*
G37*
G36*
X140064499Y-57848445D02*
X140101993Y-57859819D01*
X140136557Y-57878294D01*
X140166847Y-57903153D01*
X140191706Y-57933443D01*
X140210181Y-57968007D01*
X140221555Y-58005501D01*
X140226000Y-58050638D01*
X140226000Y-58789362D01*
X140221555Y-58834499D01*
X140210181Y-58871993D01*
X140191706Y-58906557D01*
X140166847Y-58936847D01*
X140136557Y-58961706D01*
X140101993Y-58980181D01*
X140064499Y-58991555D01*
X140019362Y-58996000D01*
X139380638Y-58996000D01*
X139335501Y-58991555D01*
X139298007Y-58980181D01*
X139263443Y-58961706D01*
X139233153Y-58936847D01*
X139208294Y-58906557D01*
X139189819Y-58871993D01*
X139178445Y-58834499D01*
X139174000Y-58789362D01*
X139174000Y-58050638D01*
X139178445Y-58005501D01*
X139189819Y-57968007D01*
X139208294Y-57933443D01*
X139233153Y-57903153D01*
X139263443Y-57878294D01*
X139298007Y-57859819D01*
X139335501Y-57848445D01*
X139380638Y-57844000D01*
X140019362Y-57844000D01*
X140064499Y-57848445D01*
X140064499Y-57848445D01*
G37*
G36*
X141842499Y-57848445D02*
X141879993Y-57859819D01*
X141914557Y-57878294D01*
X141944847Y-57903153D01*
X141969706Y-57933443D01*
X141988181Y-57968007D01*
X141999555Y-58005501D01*
X142004000Y-58050638D01*
X142004000Y-58789362D01*
X141999555Y-58834499D01*
X141988181Y-58871993D01*
X141969706Y-58906557D01*
X141944847Y-58936847D01*
X141914557Y-58961706D01*
X141879993Y-58980181D01*
X141842499Y-58991555D01*
X141797362Y-58996000D01*
X141158638Y-58996000D01*
X141113501Y-58991555D01*
X141076007Y-58980181D01*
X141041443Y-58961706D01*
X141011153Y-58936847D01*
X140986294Y-58906557D01*
X140967819Y-58871993D01*
X140956445Y-58834499D01*
X140952000Y-58789362D01*
X140952000Y-58050638D01*
X140956445Y-58005501D01*
X140967819Y-57968007D01*
X140986294Y-57933443D01*
X141011153Y-57903153D01*
X141041443Y-57878294D01*
X141076007Y-57859819D01*
X141113501Y-57848445D01*
X141158638Y-57844000D01*
X141797362Y-57844000D01*
X141842499Y-57848445D01*
X141842499Y-57848445D01*
G37*
G36*
X158221643Y-57403781D02*
X158367415Y-57464162D01*
X158498611Y-57551824D01*
X158610176Y-57663389D01*
X158697838Y-57794585D01*
X158758219Y-57940357D01*
X158789000Y-58095107D01*
X158789000Y-58252893D01*
X158758219Y-58407643D01*
X158697838Y-58553415D01*
X158610176Y-58684611D01*
X158498611Y-58796176D01*
X158367415Y-58883838D01*
X158221643Y-58944219D01*
X158066893Y-58975000D01*
X157909107Y-58975000D01*
X157754357Y-58944219D01*
X157608585Y-58883838D01*
X157477389Y-58796176D01*
X157365824Y-58684611D01*
X157278162Y-58553415D01*
X157217781Y-58407643D01*
X157187000Y-58252893D01*
X157187000Y-58095107D01*
X157217781Y-57940357D01*
X157278162Y-57794585D01*
X157365824Y-57663389D01*
X157477389Y-57551824D01*
X157608585Y-57464162D01*
X157754357Y-57403781D01*
X157909107Y-57373000D01*
X158066893Y-57373000D01*
X158221643Y-57403781D01*
X158221643Y-57403781D01*
G37*
G36*
X149032499Y-57390445D02*
X149069993Y-57401819D01*
X149104557Y-57420294D01*
X149134847Y-57445153D01*
X149159706Y-57475443D01*
X149178181Y-57510007D01*
X149189555Y-57547501D01*
X149194000Y-57592638D01*
X149194000Y-58231362D01*
X149189555Y-58276499D01*
X149178181Y-58313993D01*
X149159706Y-58348557D01*
X149134847Y-58378847D01*
X149104557Y-58403706D01*
X149069993Y-58422181D01*
X149032499Y-58433555D01*
X148987362Y-58438000D01*
X148248638Y-58438000D01*
X148203501Y-58433555D01*
X148166007Y-58422181D01*
X148131443Y-58403706D01*
X148101153Y-58378847D01*
X148076294Y-58348557D01*
X148057819Y-58313993D01*
X148046445Y-58276499D01*
X148042000Y-58231362D01*
X148042000Y-57592638D01*
X148046445Y-57547501D01*
X148057819Y-57510007D01*
X148076294Y-57475443D01*
X148101153Y-57445153D01*
X148131443Y-57420294D01*
X148166007Y-57401819D01*
X148203501Y-57390445D01*
X148248638Y-57386000D01*
X148987362Y-57386000D01*
X149032499Y-57390445D01*
X149032499Y-57390445D01*
G37*
G36*
X150782499Y-57390445D02*
X150819993Y-57401819D01*
X150854557Y-57420294D01*
X150884847Y-57445153D01*
X150909706Y-57475443D01*
X150928181Y-57510007D01*
X150939555Y-57547501D01*
X150944000Y-57592638D01*
X150944000Y-58231362D01*
X150939555Y-58276499D01*
X150928181Y-58313993D01*
X150909706Y-58348557D01*
X150884847Y-58378847D01*
X150854557Y-58403706D01*
X150819993Y-58422181D01*
X150782499Y-58433555D01*
X150737362Y-58438000D01*
X149998638Y-58438000D01*
X149953501Y-58433555D01*
X149916007Y-58422181D01*
X149881443Y-58403706D01*
X149851153Y-58378847D01*
X149826294Y-58348557D01*
X149807819Y-58313993D01*
X149796445Y-58276499D01*
X149792000Y-58231362D01*
X149792000Y-57592638D01*
X149796445Y-57547501D01*
X149807819Y-57510007D01*
X149826294Y-57475443D01*
X149851153Y-57445153D01*
X149881443Y-57420294D01*
X149916007Y-57401819D01*
X149953501Y-57390445D01*
X149998638Y-57386000D01*
X150737362Y-57386000D01*
X150782499Y-57390445D01*
X150782499Y-57390445D01*
G37*
G36*
X160001643Y-56383781D02*
X160147415Y-56444162D01*
X160278611Y-56531824D01*
X160390176Y-56643389D01*
X160477838Y-56774585D01*
X160538219Y-56920357D01*
X160569000Y-57075107D01*
X160569000Y-57232893D01*
X160538219Y-57387643D01*
X160477838Y-57533415D01*
X160390176Y-57664611D01*
X160278611Y-57776176D01*
X160147415Y-57863838D01*
X160001643Y-57924219D01*
X159846893Y-57955000D01*
X159689107Y-57955000D01*
X159534357Y-57924219D01*
X159388585Y-57863838D01*
X159257389Y-57776176D01*
X159145824Y-57664611D01*
X159058162Y-57533415D01*
X158997781Y-57387643D01*
X158967000Y-57232893D01*
X158967000Y-57075107D01*
X158997781Y-56920357D01*
X159058162Y-56774585D01*
X159145824Y-56643389D01*
X159257389Y-56531824D01*
X159388585Y-56444162D01*
X159534357Y-56383781D01*
X159689107Y-56353000D01*
X159846893Y-56353000D01*
X160001643Y-56383781D01*
X160001643Y-56383781D01*
G37*
G36*
X160569000Y-55915000D02*
X158913444Y-55915000D01*
X158889058Y-55917402D01*
X158865609Y-55924515D01*
X158843998Y-55936066D01*
X158825056Y-55951612D01*
X158809510Y-55970554D01*
X158797959Y-55992165D01*
X158790846Y-56015614D01*
X158788444Y-56040000D01*
X158789000Y-56045648D01*
X158789000Y-56212893D01*
X158758219Y-56367643D01*
X158697838Y-56513415D01*
X158610176Y-56644611D01*
X158498611Y-56756176D01*
X158367415Y-56843838D01*
X158221643Y-56904219D01*
X158066893Y-56935000D01*
X157909107Y-56935000D01*
X157754357Y-56904219D01*
X157608585Y-56843838D01*
X157477389Y-56756176D01*
X157365824Y-56644611D01*
X157278162Y-56513415D01*
X157217781Y-56367643D01*
X157187000Y-56212893D01*
X157187000Y-56055107D01*
X157217781Y-55900357D01*
X157278162Y-55754585D01*
X157365824Y-55623389D01*
X157477389Y-55511824D01*
X157608585Y-55424162D01*
X157754357Y-55363781D01*
X157909107Y-55333000D01*
X158066893Y-55333000D01*
X158221643Y-55363781D01*
X158367415Y-55424162D01*
X158498611Y-55511824D01*
X158610176Y-55623389D01*
X158697837Y-55754583D01*
X158726515Y-55823818D01*
X158738066Y-55845428D01*
X158753612Y-55864370D01*
X158772554Y-55879916D01*
X158794165Y-55891467D01*
X158817614Y-55898580D01*
X158842000Y-55900982D01*
X158866386Y-55898580D01*
X158889836Y-55891467D01*
X158911446Y-55879916D01*
X158930388Y-55864370D01*
X158945934Y-55845428D01*
X158957485Y-55823817D01*
X158964598Y-55800368D01*
X158967000Y-55775982D01*
X158967000Y-54313000D01*
X160569000Y-54313000D01*
X160569000Y-55915000D01*
X160569000Y-55915000D01*
G37*
G36*
X109330443Y-54985519D02*
X109396627Y-54992037D01*
X109509853Y-55026384D01*
X109566467Y-55043557D01*
X109693695Y-55111563D01*
X109722991Y-55127222D01*
X109758729Y-55156552D01*
X109860186Y-55239814D01*
X109943448Y-55341271D01*
X109972778Y-55377009D01*
X109972779Y-55377011D01*
X110056443Y-55533533D01*
X110056443Y-55533534D01*
X110107963Y-55703373D01*
X110125359Y-55880000D01*
X110107963Y-56056627D01*
X110087054Y-56125555D01*
X110056443Y-56226467D01*
X110026763Y-56281993D01*
X109972778Y-56382991D01*
X109957543Y-56401555D01*
X109860186Y-56520186D01*
X109758729Y-56603448D01*
X109722991Y-56632778D01*
X109722989Y-56632779D01*
X109566467Y-56716443D01*
X109553946Y-56720241D01*
X109396627Y-56767963D01*
X109330443Y-56774481D01*
X109264260Y-56781000D01*
X109175740Y-56781000D01*
X109109557Y-56774481D01*
X109043373Y-56767963D01*
X108886054Y-56720241D01*
X108873533Y-56716443D01*
X108717011Y-56632779D01*
X108717009Y-56632778D01*
X108681271Y-56603448D01*
X108579814Y-56520186D01*
X108482457Y-56401555D01*
X108467222Y-56382991D01*
X108413237Y-56281993D01*
X108383557Y-56226467D01*
X108352946Y-56125555D01*
X108332037Y-56056627D01*
X108314641Y-55880000D01*
X108332037Y-55703373D01*
X108383557Y-55533534D01*
X108383557Y-55533533D01*
X108467221Y-55377011D01*
X108467222Y-55377009D01*
X108496552Y-55341271D01*
X108579814Y-55239814D01*
X108681271Y-55156552D01*
X108717009Y-55127222D01*
X108746305Y-55111563D01*
X108873533Y-55043557D01*
X108930147Y-55026384D01*
X109043373Y-54992037D01*
X109109557Y-54985519D01*
X109175740Y-54979000D01*
X109264260Y-54979000D01*
X109330443Y-54985519D01*
X109330443Y-54985519D01*
G37*
G36*
X106790443Y-54985519D02*
X106856627Y-54992037D01*
X106969853Y-55026384D01*
X107026467Y-55043557D01*
X107153695Y-55111563D01*
X107182991Y-55127222D01*
X107218729Y-55156552D01*
X107320186Y-55239814D01*
X107403448Y-55341271D01*
X107432778Y-55377009D01*
X107432779Y-55377011D01*
X107516443Y-55533533D01*
X107516443Y-55533534D01*
X107567963Y-55703373D01*
X107585359Y-55880000D01*
X107567963Y-56056627D01*
X107547054Y-56125555D01*
X107516443Y-56226467D01*
X107486763Y-56281993D01*
X107432778Y-56382991D01*
X107417543Y-56401555D01*
X107320186Y-56520186D01*
X107218729Y-56603448D01*
X107182991Y-56632778D01*
X107182989Y-56632779D01*
X107026467Y-56716443D01*
X107013946Y-56720241D01*
X106856627Y-56767963D01*
X106790443Y-56774481D01*
X106724260Y-56781000D01*
X106635740Y-56781000D01*
X106569557Y-56774481D01*
X106503373Y-56767963D01*
X106346054Y-56720241D01*
X106333533Y-56716443D01*
X106177011Y-56632779D01*
X106177009Y-56632778D01*
X106141271Y-56603448D01*
X106039814Y-56520186D01*
X105942457Y-56401555D01*
X105927222Y-56382991D01*
X105873237Y-56281993D01*
X105843557Y-56226467D01*
X105812946Y-56125555D01*
X105792037Y-56056627D01*
X105774641Y-55880000D01*
X105792037Y-55703373D01*
X105843557Y-55533534D01*
X105843557Y-55533533D01*
X105927221Y-55377011D01*
X105927222Y-55377009D01*
X105956552Y-55341271D01*
X106039814Y-55239814D01*
X106141271Y-55156552D01*
X106177009Y-55127222D01*
X106206305Y-55111563D01*
X106333533Y-55043557D01*
X106390147Y-55026384D01*
X106503373Y-54992037D01*
X106569557Y-54985519D01*
X106635740Y-54979000D01*
X106724260Y-54979000D01*
X106790443Y-54985519D01*
X106790443Y-54985519D01*
G37*
G36*
X141084500Y-56566000D02*
X139077500Y-56566000D01*
X139077500Y-55194000D01*
X141084500Y-55194000D01*
X141084500Y-56566000D01*
X141084500Y-56566000D01*
G37*
G36*
X144259500Y-56566000D02*
X142252500Y-56566000D01*
X142252500Y-55194000D01*
X144259500Y-55194000D01*
X144259500Y-56566000D01*
X144259500Y-56566000D01*
G37*
G36*
X149032499Y-55358445D02*
X149069993Y-55369819D01*
X149104557Y-55388294D01*
X149134847Y-55413153D01*
X149159706Y-55443443D01*
X149178181Y-55478007D01*
X149189555Y-55515501D01*
X149194000Y-55560638D01*
X149194000Y-56199362D01*
X149189555Y-56244499D01*
X149178181Y-56281993D01*
X149159706Y-56316557D01*
X149134847Y-56346847D01*
X149104557Y-56371706D01*
X149069993Y-56390181D01*
X149032499Y-56401555D01*
X148987362Y-56406000D01*
X148248638Y-56406000D01*
X148203501Y-56401555D01*
X148166007Y-56390181D01*
X148131443Y-56371706D01*
X148101153Y-56346847D01*
X148076294Y-56316557D01*
X148057819Y-56281993D01*
X148046445Y-56244499D01*
X148042000Y-56199362D01*
X148042000Y-55560638D01*
X148046445Y-55515501D01*
X148057819Y-55478007D01*
X148076294Y-55443443D01*
X148101153Y-55413153D01*
X148131443Y-55388294D01*
X148166007Y-55369819D01*
X148203501Y-55358445D01*
X148248638Y-55354000D01*
X148987362Y-55354000D01*
X149032499Y-55358445D01*
X149032499Y-55358445D01*
G37*
G36*
X150782499Y-55358445D02*
X150819993Y-55369819D01*
X150854557Y-55388294D01*
X150884847Y-55413153D01*
X150909706Y-55443443D01*
X150928181Y-55478007D01*
X150939555Y-55515501D01*
X150944000Y-55560638D01*
X150944000Y-56199362D01*
X150939555Y-56244499D01*
X150928181Y-56281993D01*
X150909706Y-56316557D01*
X150884847Y-56346847D01*
X150854557Y-56371706D01*
X150819993Y-56390181D01*
X150782499Y-56401555D01*
X150737362Y-56406000D01*
X149998638Y-56406000D01*
X149953501Y-56401555D01*
X149916007Y-56390181D01*
X149881443Y-56371706D01*
X149851153Y-56346847D01*
X149826294Y-56316557D01*
X149807819Y-56281993D01*
X149796445Y-56244499D01*
X149792000Y-56199362D01*
X149792000Y-55560638D01*
X149796445Y-55515501D01*
X149807819Y-55478007D01*
X149826294Y-55443443D01*
X149851153Y-55413153D01*
X149881443Y-55388294D01*
X149916007Y-55369819D01*
X149953501Y-55358445D01*
X149998638Y-55354000D01*
X150737362Y-55354000D01*
X150782499Y-55358445D01*
X150782499Y-55358445D01*
G37*
G36*
X153401643Y-53333781D02*
X153547415Y-53394162D01*
X153678611Y-53481824D01*
X153790176Y-53593389D01*
X153877838Y-53724585D01*
X153938219Y-53870357D01*
X153969000Y-54025107D01*
X153969000Y-54182893D01*
X153938219Y-54337643D01*
X153877838Y-54483415D01*
X153790176Y-54614611D01*
X153678611Y-54726176D01*
X153547415Y-54813838D01*
X153401643Y-54874219D01*
X153246893Y-54905000D01*
X153089107Y-54905000D01*
X152934357Y-54874219D01*
X152788585Y-54813838D01*
X152657389Y-54726176D01*
X152545824Y-54614611D01*
X152458162Y-54483415D01*
X152397781Y-54337643D01*
X152367000Y-54182893D01*
X152367000Y-54025107D01*
X152397781Y-53870357D01*
X152458162Y-53724585D01*
X152545824Y-53593389D01*
X152657389Y-53481824D01*
X152788585Y-53394162D01*
X152934357Y-53333781D01*
X153089107Y-53303000D01*
X153246893Y-53303000D01*
X153401643Y-53333781D01*
X153401643Y-53333781D01*
G37*
G36*
X150782499Y-53326445D02*
X150819993Y-53337819D01*
X150854557Y-53356294D01*
X150884847Y-53381153D01*
X150909706Y-53411443D01*
X150928181Y-53446007D01*
X150939555Y-53483501D01*
X150944000Y-53528638D01*
X150944000Y-54167362D01*
X150939555Y-54212499D01*
X150928181Y-54249993D01*
X150909706Y-54284557D01*
X150884847Y-54314847D01*
X150854557Y-54339706D01*
X150819993Y-54358181D01*
X150782499Y-54369555D01*
X150737362Y-54374000D01*
X149998638Y-54374000D01*
X149953501Y-54369555D01*
X149916007Y-54358181D01*
X149881443Y-54339706D01*
X149851153Y-54314847D01*
X149826294Y-54284557D01*
X149807819Y-54249993D01*
X149796445Y-54212499D01*
X149792000Y-54167362D01*
X149792000Y-53528638D01*
X149796445Y-53483501D01*
X149807819Y-53446007D01*
X149826294Y-53411443D01*
X149851153Y-53381153D01*
X149881443Y-53356294D01*
X149916007Y-53337819D01*
X149953501Y-53326445D01*
X149998638Y-53322000D01*
X150737362Y-53322000D01*
X150782499Y-53326445D01*
X150782499Y-53326445D01*
G37*
G36*
X149032499Y-53326445D02*
X149069993Y-53337819D01*
X149104557Y-53356294D01*
X149134847Y-53381153D01*
X149159706Y-53411443D01*
X149178181Y-53446007D01*
X149189555Y-53483501D01*
X149194000Y-53528638D01*
X149194000Y-54167362D01*
X149189555Y-54212499D01*
X149178181Y-54249993D01*
X149159706Y-54284557D01*
X149134847Y-54314847D01*
X149104557Y-54339706D01*
X149069993Y-54358181D01*
X149032499Y-54369555D01*
X148987362Y-54374000D01*
X148248638Y-54374000D01*
X148203501Y-54369555D01*
X148166007Y-54358181D01*
X148131443Y-54339706D01*
X148101153Y-54314847D01*
X148076294Y-54284557D01*
X148057819Y-54249993D01*
X148046445Y-54212499D01*
X148042000Y-54167362D01*
X148042000Y-53528638D01*
X148046445Y-53483501D01*
X148057819Y-53446007D01*
X148076294Y-53411443D01*
X148101153Y-53381153D01*
X148131443Y-53356294D01*
X148166007Y-53337819D01*
X148203501Y-53326445D01*
X148248638Y-53322000D01*
X148987362Y-53322000D01*
X149032499Y-53326445D01*
X149032499Y-53326445D01*
G37*
G36*
X110121000Y-54241000D02*
X108319000Y-54241000D01*
X108319000Y-52439000D01*
X110121000Y-52439000D01*
X110121000Y-54241000D01*
X110121000Y-54241000D01*
G37*
G36*
X106790443Y-52445519D02*
X106856627Y-52452037D01*
X106969853Y-52486384D01*
X107026467Y-52503557D01*
X107165087Y-52577652D01*
X107182991Y-52587222D01*
X107216838Y-52615000D01*
X107320186Y-52699814D01*
X107394894Y-52790847D01*
X107432778Y-52837009D01*
X107432779Y-52837011D01*
X107516443Y-52993533D01*
X107516443Y-52993534D01*
X107567963Y-53163373D01*
X107585359Y-53340000D01*
X107567963Y-53516627D01*
X107534836Y-53625832D01*
X107516443Y-53686467D01*
X107496068Y-53724585D01*
X107432778Y-53842991D01*
X107421281Y-53857000D01*
X107320186Y-53980186D01*
X107221899Y-54060847D01*
X107182991Y-54092778D01*
X107182989Y-54092779D01*
X107026467Y-54176443D01*
X106969853Y-54193616D01*
X106856627Y-54227963D01*
X106790442Y-54234482D01*
X106724260Y-54241000D01*
X106635740Y-54241000D01*
X106569558Y-54234482D01*
X106503373Y-54227963D01*
X106390147Y-54193616D01*
X106333533Y-54176443D01*
X106177011Y-54092779D01*
X106177009Y-54092778D01*
X106138101Y-54060847D01*
X106039814Y-53980186D01*
X105938719Y-53857000D01*
X105927222Y-53842991D01*
X105863932Y-53724585D01*
X105843557Y-53686467D01*
X105825164Y-53625832D01*
X105792037Y-53516627D01*
X105774641Y-53340000D01*
X105792037Y-53163373D01*
X105843557Y-52993534D01*
X105843557Y-52993533D01*
X105927221Y-52837011D01*
X105927222Y-52837009D01*
X105965106Y-52790847D01*
X106039814Y-52699814D01*
X106143162Y-52615000D01*
X106177009Y-52587222D01*
X106194913Y-52577652D01*
X106333533Y-52503557D01*
X106390147Y-52486384D01*
X106503373Y-52452037D01*
X106569558Y-52445518D01*
X106635740Y-52439000D01*
X106724260Y-52439000D01*
X106790443Y-52445519D01*
X106790443Y-52445519D01*
G37*
G36*
X145222499Y-53072445D02*
X145259993Y-53083819D01*
X145294557Y-53102294D01*
X145324847Y-53127153D01*
X145349706Y-53157443D01*
X145368181Y-53192007D01*
X145379555Y-53229501D01*
X145384000Y-53274638D01*
X145384000Y-53913362D01*
X145379555Y-53958499D01*
X145368181Y-53995993D01*
X145349706Y-54030557D01*
X145324847Y-54060847D01*
X145294557Y-54085706D01*
X145259993Y-54104181D01*
X145222499Y-54115555D01*
X145177362Y-54120000D01*
X144438638Y-54120000D01*
X144393501Y-54115555D01*
X144356007Y-54104181D01*
X144321443Y-54085706D01*
X144291153Y-54060847D01*
X144266294Y-54030557D01*
X144247819Y-53995993D01*
X144236445Y-53958499D01*
X144232000Y-53913362D01*
X144232000Y-53274638D01*
X144236445Y-53229501D01*
X144247819Y-53192007D01*
X144266294Y-53157443D01*
X144291153Y-53127153D01*
X144321443Y-53102294D01*
X144356007Y-53083819D01*
X144393501Y-53072445D01*
X144438638Y-53068000D01*
X145177362Y-53068000D01*
X145222499Y-53072445D01*
X145222499Y-53072445D01*
G37*
G36*
X146972499Y-53072445D02*
X147009993Y-53083819D01*
X147044557Y-53102294D01*
X147074847Y-53127153D01*
X147099706Y-53157443D01*
X147118181Y-53192007D01*
X147129555Y-53229501D01*
X147134000Y-53274638D01*
X147134000Y-53913362D01*
X147129555Y-53958499D01*
X147118181Y-53995993D01*
X147099706Y-54030557D01*
X147074847Y-54060847D01*
X147044557Y-54085706D01*
X147009993Y-54104181D01*
X146972499Y-54115555D01*
X146927362Y-54120000D01*
X146188638Y-54120000D01*
X146143501Y-54115555D01*
X146106007Y-54104181D01*
X146071443Y-54085706D01*
X146041153Y-54060847D01*
X146016294Y-54030557D01*
X145997819Y-53995993D01*
X145986445Y-53958499D01*
X145982000Y-53913362D01*
X145982000Y-53274638D01*
X145986445Y-53229501D01*
X145997819Y-53192007D01*
X146016294Y-53157443D01*
X146041153Y-53127153D01*
X146071443Y-53102294D01*
X146106007Y-53083819D01*
X146143501Y-53072445D01*
X146188638Y-53068000D01*
X146927362Y-53068000D01*
X146972499Y-53072445D01*
X146972499Y-53072445D01*
G37*
G36*
X162796871Y-50712408D02*
X163101883Y-50838748D01*
X163286733Y-50962261D01*
X163376390Y-51022168D01*
X163609832Y-51255610D01*
X163609834Y-51255613D01*
X163793252Y-51530117D01*
X163919592Y-51835129D01*
X163984000Y-52158928D01*
X163984000Y-52489072D01*
X163919592Y-52812871D01*
X163793252Y-53117883D01*
X163648993Y-53333781D01*
X163609832Y-53392390D01*
X163376390Y-53625832D01*
X163376387Y-53625834D01*
X163101883Y-53809252D01*
X162796871Y-53935592D01*
X162473072Y-54000000D01*
X162142928Y-54000000D01*
X161819129Y-53935592D01*
X161514117Y-53809252D01*
X161239613Y-53625834D01*
X161239610Y-53625832D01*
X161006168Y-53392390D01*
X160967007Y-53333781D01*
X160822748Y-53117883D01*
X160696408Y-52812871D01*
X160632000Y-52489072D01*
X160632000Y-52158928D01*
X160696408Y-51835129D01*
X160822748Y-51530117D01*
X161006166Y-51255613D01*
X161006168Y-51255610D01*
X161239610Y-51022168D01*
X161329267Y-50962261D01*
X161514117Y-50838748D01*
X161819129Y-50712408D01*
X162142928Y-50648000D01*
X162473072Y-50648000D01*
X162796871Y-50712408D01*
X162796871Y-50712408D01*
G37*
G36*
X137320499Y-51802445D02*
X137357993Y-51813819D01*
X137392557Y-51832294D01*
X137422847Y-51857153D01*
X137447706Y-51887443D01*
X137466181Y-51922007D01*
X137477555Y-51959501D01*
X137482000Y-52004638D01*
X137482000Y-52643362D01*
X137477555Y-52688499D01*
X137466181Y-52725993D01*
X137447706Y-52760557D01*
X137422847Y-52790847D01*
X137392557Y-52815706D01*
X137357993Y-52834181D01*
X137320499Y-52845555D01*
X137275362Y-52850000D01*
X136536638Y-52850000D01*
X136491501Y-52845555D01*
X136454007Y-52834181D01*
X136419443Y-52815706D01*
X136389153Y-52790847D01*
X136364294Y-52760557D01*
X136345819Y-52725993D01*
X136334445Y-52688499D01*
X136330000Y-52643362D01*
X136330000Y-52004638D01*
X136334445Y-51959501D01*
X136345819Y-51922007D01*
X136364294Y-51887443D01*
X136389153Y-51857153D01*
X136419443Y-51832294D01*
X136454007Y-51813819D01*
X136491501Y-51802445D01*
X136536638Y-51798000D01*
X137275362Y-51798000D01*
X137320499Y-51802445D01*
X137320499Y-51802445D01*
G37*
G36*
X139070499Y-51802445D02*
X139107993Y-51813819D01*
X139142557Y-51832294D01*
X139172847Y-51857153D01*
X139197706Y-51887443D01*
X139216181Y-51922007D01*
X139227555Y-51959501D01*
X139232000Y-52004638D01*
X139232000Y-52643362D01*
X139227555Y-52688499D01*
X139216181Y-52725993D01*
X139197706Y-52760557D01*
X139172847Y-52790847D01*
X139142557Y-52815706D01*
X139107993Y-52834181D01*
X139070499Y-52845555D01*
X139025362Y-52850000D01*
X138286638Y-52850000D01*
X138241501Y-52845555D01*
X138204007Y-52834181D01*
X138169443Y-52815706D01*
X138139153Y-52790847D01*
X138114294Y-52760557D01*
X138095819Y-52725993D01*
X138084445Y-52688499D01*
X138080000Y-52643362D01*
X138080000Y-52004638D01*
X138084445Y-51959501D01*
X138095819Y-51922007D01*
X138114294Y-51887443D01*
X138139153Y-51857153D01*
X138169443Y-51832294D01*
X138204007Y-51813819D01*
X138241501Y-51802445D01*
X138286638Y-51798000D01*
X139025362Y-51798000D01*
X139070499Y-51802445D01*
X139070499Y-51802445D01*
G37*
G36*
X153401643Y-51043781D02*
X153547415Y-51104162D01*
X153678611Y-51191824D01*
X153790176Y-51303389D01*
X153877838Y-51434585D01*
X153938219Y-51580357D01*
X153969000Y-51735107D01*
X153969000Y-51892893D01*
X153938219Y-52047643D01*
X153877838Y-52193415D01*
X153790176Y-52324611D01*
X153678611Y-52436176D01*
X153547415Y-52523838D01*
X153401643Y-52584219D01*
X153246893Y-52615000D01*
X153089107Y-52615000D01*
X152934357Y-52584219D01*
X152788585Y-52523838D01*
X152657389Y-52436176D01*
X152545824Y-52324611D01*
X152458162Y-52193415D01*
X152397781Y-52047643D01*
X152367000Y-51892893D01*
X152367000Y-51735107D01*
X152397781Y-51580357D01*
X152458162Y-51434585D01*
X152545824Y-51303389D01*
X152657389Y-51191824D01*
X152788585Y-51104162D01*
X152934357Y-51043781D01*
X153089107Y-51013000D01*
X153246893Y-51013000D01*
X153401643Y-51043781D01*
X153401643Y-51043781D01*
G37*
G36*
X145194499Y-51294445D02*
X145231993Y-51305819D01*
X145266557Y-51324294D01*
X145296847Y-51349153D01*
X145321706Y-51379443D01*
X145340181Y-51414007D01*
X145351555Y-51451501D01*
X145356000Y-51496638D01*
X145356000Y-52135362D01*
X145351555Y-52180499D01*
X145340181Y-52217993D01*
X145321706Y-52252557D01*
X145296847Y-52282847D01*
X145266557Y-52307706D01*
X145231993Y-52326181D01*
X145194499Y-52337555D01*
X145149362Y-52342000D01*
X144410638Y-52342000D01*
X144365501Y-52337555D01*
X144328007Y-52326181D01*
X144293443Y-52307706D01*
X144263153Y-52282847D01*
X144238294Y-52252557D01*
X144219819Y-52217993D01*
X144208445Y-52180499D01*
X144204000Y-52135362D01*
X144204000Y-51496638D01*
X144208445Y-51451501D01*
X144219819Y-51414007D01*
X144238294Y-51379443D01*
X144263153Y-51349153D01*
X144293443Y-51324294D01*
X144328007Y-51305819D01*
X144365501Y-51294445D01*
X144410638Y-51290000D01*
X145149362Y-51290000D01*
X145194499Y-51294445D01*
X145194499Y-51294445D01*
G37*
G36*
X149032499Y-51294445D02*
X149069993Y-51305819D01*
X149104557Y-51324294D01*
X149134847Y-51349153D01*
X149159706Y-51379443D01*
X149178181Y-51414007D01*
X149189555Y-51451501D01*
X149194000Y-51496638D01*
X149194000Y-52135362D01*
X149189555Y-52180499D01*
X149178181Y-52217993D01*
X149159706Y-52252557D01*
X149134847Y-52282847D01*
X149104557Y-52307706D01*
X149069993Y-52326181D01*
X149032499Y-52337555D01*
X148987362Y-52342000D01*
X148248638Y-52342000D01*
X148203501Y-52337555D01*
X148166007Y-52326181D01*
X148131443Y-52307706D01*
X148101153Y-52282847D01*
X148076294Y-52252557D01*
X148057819Y-52217993D01*
X148046445Y-52180499D01*
X148042000Y-52135362D01*
X148042000Y-51496638D01*
X148046445Y-51451501D01*
X148057819Y-51414007D01*
X148076294Y-51379443D01*
X148101153Y-51349153D01*
X148131443Y-51324294D01*
X148166007Y-51305819D01*
X148203501Y-51294445D01*
X148248638Y-51290000D01*
X148987362Y-51290000D01*
X149032499Y-51294445D01*
X149032499Y-51294445D01*
G37*
G36*
X150782499Y-51294445D02*
X150819993Y-51305819D01*
X150854557Y-51324294D01*
X150884847Y-51349153D01*
X150909706Y-51379443D01*
X150928181Y-51414007D01*
X150939555Y-51451501D01*
X150944000Y-51496638D01*
X150944000Y-52135362D01*
X150939555Y-52180499D01*
X150928181Y-52217993D01*
X150909706Y-52252557D01*
X150884847Y-52282847D01*
X150854557Y-52307706D01*
X150819993Y-52326181D01*
X150782499Y-52337555D01*
X150737362Y-52342000D01*
X149998638Y-52342000D01*
X149953501Y-52337555D01*
X149916007Y-52326181D01*
X149881443Y-52307706D01*
X149851153Y-52282847D01*
X149826294Y-52252557D01*
X149807819Y-52217993D01*
X149796445Y-52180499D01*
X149792000Y-52135362D01*
X149792000Y-51496638D01*
X149796445Y-51451501D01*
X149807819Y-51414007D01*
X149826294Y-51379443D01*
X149851153Y-51349153D01*
X149881443Y-51324294D01*
X149916007Y-51305819D01*
X149953501Y-51294445D01*
X149998638Y-51290000D01*
X150737362Y-51290000D01*
X150782499Y-51294445D01*
X150782499Y-51294445D01*
G37*
G36*
X146944499Y-51294445D02*
X146981993Y-51305819D01*
X147016557Y-51324294D01*
X147046847Y-51349153D01*
X147071706Y-51379443D01*
X147090181Y-51414007D01*
X147101555Y-51451501D01*
X147106000Y-51496638D01*
X147106000Y-52135362D01*
X147101555Y-52180499D01*
X147090181Y-52217993D01*
X147071706Y-52252557D01*
X147046847Y-52282847D01*
X147016557Y-52307706D01*
X146981993Y-52326181D01*
X146944499Y-52337555D01*
X146899362Y-52342000D01*
X146160638Y-52342000D01*
X146115501Y-52337555D01*
X146078007Y-52326181D01*
X146043443Y-52307706D01*
X146013153Y-52282847D01*
X145988294Y-52252557D01*
X145969819Y-52217993D01*
X145958445Y-52180499D01*
X145954000Y-52135362D01*
X145954000Y-51496638D01*
X145958445Y-51451501D01*
X145969819Y-51414007D01*
X145988294Y-51379443D01*
X146013153Y-51349153D01*
X146043443Y-51324294D01*
X146078007Y-51305819D01*
X146115501Y-51294445D01*
X146160638Y-51290000D01*
X146899362Y-51290000D01*
X146944499Y-51294445D01*
X146944499Y-51294445D01*
G37*
G36*
X125176336Y-43021452D02*
X124853188Y-43344600D01*
X124610650Y-43587137D01*
X124375890Y-43821897D01*
X124327808Y-43869980D01*
X123810205Y-44387583D01*
X123762122Y-44435665D01*
X123527362Y-44670425D01*
X123479280Y-44718508D01*
X122961677Y-45236111D01*
X122913594Y-45284193D01*
X122395991Y-45801796D01*
X122347909Y-45849879D01*
X121830306Y-46367482D01*
X121782223Y-46415564D01*
X121547463Y-46650324D01*
X121499381Y-46698407D01*
X120981778Y-47216010D01*
X120933695Y-47264092D01*
X120416092Y-47781695D01*
X120368010Y-47829778D01*
X119850407Y-48347381D01*
X119802324Y-48395463D01*
X119567564Y-48630223D01*
X119519482Y-48678306D01*
X119001879Y-49195909D01*
X118953796Y-49243991D01*
X118436193Y-49761594D01*
X118388111Y-49809677D01*
X117870508Y-50327280D01*
X117822425Y-50375362D01*
X117587665Y-50610122D01*
X117539583Y-50658205D01*
X117021980Y-51175808D01*
X116973897Y-51223890D01*
X116456294Y-51741493D01*
X116408212Y-51789576D01*
X116173452Y-52024336D01*
X115394220Y-51245104D01*
X115588684Y-51050640D01*
X115588689Y-51050634D01*
X116283038Y-50356285D01*
X116283044Y-50356280D01*
X116477508Y-50161816D01*
X116477509Y-50161817D01*
X116525592Y-50113734D01*
X116525591Y-50113733D01*
X116720056Y-49919268D01*
X116720061Y-49919262D01*
X117131566Y-49507757D01*
X117131572Y-49507752D01*
X117326036Y-49313288D01*
X117326037Y-49313289D01*
X117374120Y-49265206D01*
X117374119Y-49265205D01*
X117568584Y-49070740D01*
X117568589Y-49070734D01*
X118262937Y-48376386D01*
X118262943Y-48376381D01*
X118457407Y-48181917D01*
X118457408Y-48181918D01*
X118505491Y-48133835D01*
X118505490Y-48133834D01*
X118699955Y-47939369D01*
X118699960Y-47939363D01*
X119111465Y-47527858D01*
X119111471Y-47527853D01*
X119305935Y-47333389D01*
X119305936Y-47333390D01*
X119354019Y-47285307D01*
X119354018Y-47285306D01*
X119548483Y-47090841D01*
X119548488Y-47090835D01*
X120242836Y-46396487D01*
X120242842Y-46396482D01*
X120437306Y-46202018D01*
X120437307Y-46202019D01*
X120485390Y-46153936D01*
X120485389Y-46153935D01*
X120679854Y-45959470D01*
X120679859Y-45959464D01*
X121091364Y-45547959D01*
X121091370Y-45547954D01*
X121285834Y-45353490D01*
X121285835Y-45353491D01*
X121333918Y-45305408D01*
X121333917Y-45305407D01*
X121528382Y-45110942D01*
X121528387Y-45110936D01*
X122222735Y-44416588D01*
X122222741Y-44416583D01*
X122417205Y-44222119D01*
X122417206Y-44222120D01*
X122465289Y-44174037D01*
X122465288Y-44174036D01*
X122659753Y-43979571D01*
X122659758Y-43979565D01*
X123071263Y-43568060D01*
X123071269Y-43568055D01*
X123265733Y-43373591D01*
X123265734Y-43373592D01*
X123313817Y-43325509D01*
X123313816Y-43325508D01*
X123508281Y-43131043D01*
X123508286Y-43131037D01*
X124202634Y-42436689D01*
X124202640Y-42436684D01*
X124397104Y-42242220D01*
X125176336Y-43021452D01*
X125176336Y-43021452D01*
G37*
G36*
X127257351Y-42436675D02*
X127257357Y-42436680D01*
X127951725Y-43131048D01*
X127951730Y-43131054D01*
X128388722Y-43568046D01*
X128388728Y-43568051D01*
X128800253Y-43979576D01*
X128800258Y-43979582D01*
X129237250Y-44416574D01*
X129237256Y-44416579D01*
X129931624Y-45110947D01*
X129931629Y-45110953D01*
X130368621Y-45547945D01*
X130368627Y-45547950D01*
X130780152Y-45959475D01*
X130780157Y-45959481D01*
X131217149Y-46396473D01*
X131217155Y-46396478D01*
X131911523Y-47090846D01*
X131911528Y-47090852D01*
X132348520Y-47527844D01*
X132348526Y-47527849D01*
X132760051Y-47939374D01*
X132760056Y-47939380D01*
X133197048Y-48376372D01*
X133197054Y-48376377D01*
X133891422Y-49070745D01*
X133891427Y-49070751D01*
X134328419Y-49507743D01*
X134328425Y-49507748D01*
X134739950Y-49919273D01*
X134739955Y-49919279D01*
X135176947Y-50356271D01*
X135176953Y-50356276D01*
X135871321Y-51050644D01*
X135871326Y-51050650D01*
X136065780Y-51245104D01*
X135286548Y-52024336D01*
X134963406Y-51701194D01*
X134963401Y-51701188D01*
X134526409Y-51264196D01*
X134526403Y-51264191D01*
X133832035Y-50569823D01*
X133832030Y-50569817D01*
X133677881Y-50415668D01*
X133677875Y-50415663D01*
X132983507Y-49721295D01*
X132983502Y-49721289D01*
X132546510Y-49284297D01*
X132546504Y-49284292D01*
X131852136Y-48589924D01*
X131852131Y-48589918D01*
X131697982Y-48435769D01*
X131697976Y-48435764D01*
X131003608Y-47741396D01*
X131003603Y-47741390D01*
X130566611Y-47304398D01*
X130566605Y-47304393D01*
X129872237Y-46610025D01*
X129872232Y-46610019D01*
X129718083Y-46455870D01*
X129718077Y-46455865D01*
X129023709Y-45761497D01*
X129023704Y-45761491D01*
X128586712Y-45324499D01*
X128586706Y-45324494D01*
X127892338Y-44630126D01*
X127892333Y-44630120D01*
X127738184Y-44475971D01*
X127738178Y-44475966D01*
X127043810Y-43781598D01*
X127043805Y-43781592D01*
X126606813Y-43344600D01*
X126606807Y-43344595D01*
X126283664Y-43021452D01*
X127062896Y-42242220D01*
X127257351Y-42436675D01*
X127257351Y-42436675D01*
G37*
G36*
X159184565Y-49533389D02*
X159375834Y-49612615D01*
X159547976Y-49727637D01*
X159694363Y-49874024D01*
X159809385Y-50046166D01*
X159888611Y-50237435D01*
X159929000Y-50440484D01*
X159929000Y-50647516D01*
X159888611Y-50850565D01*
X159809385Y-51041834D01*
X159694363Y-51213976D01*
X159547976Y-51360363D01*
X159375834Y-51475385D01*
X159184565Y-51554611D01*
X158981516Y-51595000D01*
X158774484Y-51595000D01*
X158571435Y-51554611D01*
X158380166Y-51475385D01*
X158208024Y-51360363D01*
X158061637Y-51213976D01*
X157946615Y-51041834D01*
X157867389Y-50850565D01*
X157827000Y-50647516D01*
X157827000Y-50440484D01*
X157867389Y-50237435D01*
X157946615Y-50046166D01*
X158061637Y-49874024D01*
X158208024Y-49727637D01*
X158380166Y-49612615D01*
X158571435Y-49533389D01*
X158774484Y-49493000D01*
X158981516Y-49493000D01*
X159184565Y-49533389D01*
X159184565Y-49533389D01*
G37*
G36*
X144259500Y-50978000D02*
X142252500Y-50978000D01*
X142252500Y-49606000D01*
X144259500Y-49606000D01*
X144259500Y-50978000D01*
X144259500Y-50978000D01*
G37*
G36*
X141084500Y-50978000D02*
X139077500Y-50978000D01*
X139077500Y-49606000D01*
X141084500Y-49606000D01*
X141084500Y-50978000D01*
X141084500Y-50978000D01*
G37*
G36*
X165210443Y-47365519D02*
X165276627Y-47372037D01*
X165375402Y-47402000D01*
X165446467Y-47423557D01*
X165516803Y-47461153D01*
X165602991Y-47507222D01*
X165611608Y-47514294D01*
X165740186Y-47619814D01*
X165795026Y-47686638D01*
X165852778Y-47757009D01*
X165852779Y-47757011D01*
X165936443Y-47913533D01*
X165944283Y-47939380D01*
X165987963Y-48083373D01*
X166005359Y-48260000D01*
X165987963Y-48436627D01*
X165962761Y-48519706D01*
X165936443Y-48606467D01*
X165886705Y-48699519D01*
X165852778Y-48762991D01*
X165823448Y-48798729D01*
X165740186Y-48900186D01*
X165665901Y-48961149D01*
X165602991Y-49012778D01*
X165602989Y-49012779D01*
X165446467Y-49096443D01*
X165389853Y-49113616D01*
X165276627Y-49147963D01*
X165210443Y-49154481D01*
X165144260Y-49161000D01*
X165055740Y-49161000D01*
X164989557Y-49154481D01*
X164923373Y-49147963D01*
X164810147Y-49113616D01*
X164753533Y-49096443D01*
X164597011Y-49012779D01*
X164597009Y-49012778D01*
X164534099Y-48961149D01*
X164459814Y-48900186D01*
X164376552Y-48798729D01*
X164347222Y-48762991D01*
X164313295Y-48699519D01*
X164263557Y-48606467D01*
X164237239Y-48519706D01*
X164212037Y-48436627D01*
X164194641Y-48260000D01*
X164212037Y-48083373D01*
X164255717Y-47939380D01*
X164263557Y-47913533D01*
X164347221Y-47757011D01*
X164347222Y-47757009D01*
X164404974Y-47686638D01*
X164459814Y-47619814D01*
X164588392Y-47514294D01*
X164597009Y-47507222D01*
X164683197Y-47461153D01*
X164753533Y-47423557D01*
X164824598Y-47402000D01*
X164923373Y-47372037D01*
X164989557Y-47365519D01*
X165055740Y-47359000D01*
X165144260Y-47359000D01*
X165210443Y-47365519D01*
X165210443Y-47365519D01*
G37*
G36*
X162670443Y-47365519D02*
X162736627Y-47372037D01*
X162835402Y-47402000D01*
X162906467Y-47423557D01*
X162976803Y-47461153D01*
X163062991Y-47507222D01*
X163071608Y-47514294D01*
X163200186Y-47619814D01*
X163255026Y-47686638D01*
X163312778Y-47757009D01*
X163312779Y-47757011D01*
X163396443Y-47913533D01*
X163404283Y-47939380D01*
X163447963Y-48083373D01*
X163465359Y-48260000D01*
X163447963Y-48436627D01*
X163422761Y-48519706D01*
X163396443Y-48606467D01*
X163346705Y-48699519D01*
X163312778Y-48762991D01*
X163283448Y-48798729D01*
X163200186Y-48900186D01*
X163125901Y-48961149D01*
X163062991Y-49012778D01*
X163062989Y-49012779D01*
X162906467Y-49096443D01*
X162849853Y-49113616D01*
X162736627Y-49147963D01*
X162670443Y-49154481D01*
X162604260Y-49161000D01*
X162515740Y-49161000D01*
X162449557Y-49154481D01*
X162383373Y-49147963D01*
X162270147Y-49113616D01*
X162213533Y-49096443D01*
X162057011Y-49012779D01*
X162057009Y-49012778D01*
X161994099Y-48961149D01*
X161919814Y-48900186D01*
X161836552Y-48798729D01*
X161807222Y-48762991D01*
X161773295Y-48699519D01*
X161723557Y-48606467D01*
X161697239Y-48519706D01*
X161672037Y-48436627D01*
X161654641Y-48260000D01*
X161672037Y-48083373D01*
X161715717Y-47939380D01*
X161723557Y-47913533D01*
X161807221Y-47757011D01*
X161807222Y-47757009D01*
X161864974Y-47686638D01*
X161919814Y-47619814D01*
X162048392Y-47514294D01*
X162057009Y-47507222D01*
X162143197Y-47461153D01*
X162213533Y-47423557D01*
X162284598Y-47402000D01*
X162383373Y-47372037D01*
X162449557Y-47365519D01*
X162515740Y-47359000D01*
X162604260Y-47359000D01*
X162670443Y-47365519D01*
X162670443Y-47365519D01*
G37*
G36*
X109330443Y-47365519D02*
X109396627Y-47372037D01*
X109495402Y-47402000D01*
X109566467Y-47423557D01*
X109636803Y-47461153D01*
X109722991Y-47507222D01*
X109731608Y-47514294D01*
X109860186Y-47619814D01*
X109915026Y-47686638D01*
X109972778Y-47757009D01*
X109972779Y-47757011D01*
X110056443Y-47913533D01*
X110064283Y-47939380D01*
X110107963Y-48083373D01*
X110125359Y-48260000D01*
X110107963Y-48436627D01*
X110082761Y-48519706D01*
X110056443Y-48606467D01*
X110006705Y-48699519D01*
X109972778Y-48762991D01*
X109943448Y-48798729D01*
X109860186Y-48900186D01*
X109785901Y-48961149D01*
X109722991Y-49012778D01*
X109722989Y-49012779D01*
X109566467Y-49096443D01*
X109509853Y-49113616D01*
X109396627Y-49147963D01*
X109330443Y-49154481D01*
X109264260Y-49161000D01*
X109175740Y-49161000D01*
X109109557Y-49154481D01*
X109043373Y-49147963D01*
X108930147Y-49113616D01*
X108873533Y-49096443D01*
X108717011Y-49012779D01*
X108717009Y-49012778D01*
X108654099Y-48961149D01*
X108579814Y-48900186D01*
X108496552Y-48798729D01*
X108467222Y-48762991D01*
X108433295Y-48699519D01*
X108383557Y-48606467D01*
X108357239Y-48519706D01*
X108332037Y-48436627D01*
X108314641Y-48260000D01*
X108332037Y-48083373D01*
X108375717Y-47939380D01*
X108383557Y-47913533D01*
X108467221Y-47757011D01*
X108467222Y-47757009D01*
X108524974Y-47686638D01*
X108579814Y-47619814D01*
X108708392Y-47514294D01*
X108717009Y-47507222D01*
X108803197Y-47461153D01*
X108873533Y-47423557D01*
X108944598Y-47402000D01*
X109043373Y-47372037D01*
X109109557Y-47365519D01*
X109175740Y-47359000D01*
X109264260Y-47359000D01*
X109330443Y-47365519D01*
X109330443Y-47365519D01*
G37*
G36*
X106790443Y-47365519D02*
X106856627Y-47372037D01*
X106955402Y-47402000D01*
X107026467Y-47423557D01*
X107096803Y-47461153D01*
X107182991Y-47507222D01*
X107191608Y-47514294D01*
X107320186Y-47619814D01*
X107375026Y-47686638D01*
X107432778Y-47757009D01*
X107432779Y-47757011D01*
X107516443Y-47913533D01*
X107524283Y-47939380D01*
X107567963Y-48083373D01*
X107585359Y-48260000D01*
X107567963Y-48436627D01*
X107542761Y-48519706D01*
X107516443Y-48606467D01*
X107466705Y-48699519D01*
X107432778Y-48762991D01*
X107403448Y-48798729D01*
X107320186Y-48900186D01*
X107245901Y-48961149D01*
X107182991Y-49012778D01*
X107182989Y-49012779D01*
X107026467Y-49096443D01*
X106969853Y-49113616D01*
X106856627Y-49147963D01*
X106790443Y-49154481D01*
X106724260Y-49161000D01*
X106635740Y-49161000D01*
X106569557Y-49154481D01*
X106503373Y-49147963D01*
X106390147Y-49113616D01*
X106333533Y-49096443D01*
X106177011Y-49012779D01*
X106177009Y-49012778D01*
X106114099Y-48961149D01*
X106039814Y-48900186D01*
X105956552Y-48798729D01*
X105927222Y-48762991D01*
X105893295Y-48699519D01*
X105843557Y-48606467D01*
X105817239Y-48519706D01*
X105792037Y-48436627D01*
X105774641Y-48260000D01*
X105792037Y-48083373D01*
X105835717Y-47939380D01*
X105843557Y-47913533D01*
X105927221Y-47757011D01*
X105927222Y-47757009D01*
X105984974Y-47686638D01*
X106039814Y-47619814D01*
X106168392Y-47514294D01*
X106177009Y-47507222D01*
X106263197Y-47461153D01*
X106333533Y-47423557D01*
X106404598Y-47402000D01*
X106503373Y-47372037D01*
X106569557Y-47365519D01*
X106635740Y-47359000D01*
X106724260Y-47359000D01*
X106790443Y-47365519D01*
X106790443Y-47365519D01*
G37*
G36*
X145144499Y-47406445D02*
X145181993Y-47417819D01*
X145216557Y-47436294D01*
X145246847Y-47461153D01*
X145271706Y-47491443D01*
X145290181Y-47526007D01*
X145301555Y-47563501D01*
X145306000Y-47608638D01*
X145306000Y-48347362D01*
X145301555Y-48392499D01*
X145290181Y-48429993D01*
X145271706Y-48464557D01*
X145246847Y-48494847D01*
X145216557Y-48519706D01*
X145181993Y-48538181D01*
X145144499Y-48549555D01*
X145099362Y-48554000D01*
X144460638Y-48554000D01*
X144415501Y-48549555D01*
X144378007Y-48538181D01*
X144343443Y-48519706D01*
X144313153Y-48494847D01*
X144288294Y-48464557D01*
X144269819Y-48429993D01*
X144258445Y-48392499D01*
X144254000Y-48347362D01*
X144254000Y-47608638D01*
X144258445Y-47563501D01*
X144269819Y-47526007D01*
X144288294Y-47491443D01*
X144313153Y-47461153D01*
X144343443Y-47436294D01*
X144378007Y-47417819D01*
X144415501Y-47406445D01*
X144460638Y-47402000D01*
X145099362Y-47402000D01*
X145144499Y-47406445D01*
X145144499Y-47406445D01*
G37*
G36*
X146922499Y-47406445D02*
X146959993Y-47417819D01*
X146994557Y-47436294D01*
X147024847Y-47461153D01*
X147049706Y-47491443D01*
X147068181Y-47526007D01*
X147079555Y-47563501D01*
X147084000Y-47608638D01*
X147084000Y-48347362D01*
X147079555Y-48392499D01*
X147068181Y-48429993D01*
X147049706Y-48464557D01*
X147024847Y-48494847D01*
X146994557Y-48519706D01*
X146959993Y-48538181D01*
X146922499Y-48549555D01*
X146877362Y-48554000D01*
X146238638Y-48554000D01*
X146193501Y-48549555D01*
X146156007Y-48538181D01*
X146121443Y-48519706D01*
X146091153Y-48494847D01*
X146066294Y-48464557D01*
X146047819Y-48429993D01*
X146036445Y-48392499D01*
X146032000Y-48347362D01*
X146032000Y-47608638D01*
X146036445Y-47563501D01*
X146047819Y-47526007D01*
X146066294Y-47491443D01*
X146091153Y-47461153D01*
X146121443Y-47436294D01*
X146156007Y-47417819D01*
X146193501Y-47406445D01*
X146238638Y-47402000D01*
X146877362Y-47402000D01*
X146922499Y-47406445D01*
X146922499Y-47406445D01*
G37*
G36*
X141610499Y-47484445D02*
X141647993Y-47495819D01*
X141682557Y-47514294D01*
X141712847Y-47539153D01*
X141737706Y-47569443D01*
X141756181Y-47604007D01*
X141767555Y-47641501D01*
X141772000Y-47686638D01*
X141772000Y-48325362D01*
X141767555Y-48370499D01*
X141756181Y-48407993D01*
X141737706Y-48442557D01*
X141712847Y-48472847D01*
X141682557Y-48497706D01*
X141647993Y-48516181D01*
X141610499Y-48527555D01*
X141565362Y-48532000D01*
X140826638Y-48532000D01*
X140781501Y-48527555D01*
X140744007Y-48516181D01*
X140709443Y-48497706D01*
X140679153Y-48472847D01*
X140654294Y-48442557D01*
X140635819Y-48407993D01*
X140624445Y-48370499D01*
X140620000Y-48325362D01*
X140620000Y-47686638D01*
X140624445Y-47641501D01*
X140635819Y-47604007D01*
X140654294Y-47569443D01*
X140679153Y-47539153D01*
X140709443Y-47514294D01*
X140744007Y-47495819D01*
X140781501Y-47484445D01*
X140826638Y-47480000D01*
X141565362Y-47480000D01*
X141610499Y-47484445D01*
X141610499Y-47484445D01*
G37*
G36*
X139860499Y-47484445D02*
X139897993Y-47495819D01*
X139932557Y-47514294D01*
X139962847Y-47539153D01*
X139987706Y-47569443D01*
X140006181Y-47604007D01*
X140017555Y-47641501D01*
X140022000Y-47686638D01*
X140022000Y-48325362D01*
X140017555Y-48370499D01*
X140006181Y-48407993D01*
X139987706Y-48442557D01*
X139962847Y-48472847D01*
X139932557Y-48497706D01*
X139897993Y-48516181D01*
X139860499Y-48527555D01*
X139815362Y-48532000D01*
X139076638Y-48532000D01*
X139031501Y-48527555D01*
X138994007Y-48516181D01*
X138959443Y-48497706D01*
X138929153Y-48472847D01*
X138904294Y-48442557D01*
X138885819Y-48407993D01*
X138874445Y-48370499D01*
X138870000Y-48325362D01*
X138870000Y-47686638D01*
X138874445Y-47641501D01*
X138885819Y-47604007D01*
X138904294Y-47569443D01*
X138929153Y-47539153D01*
X138959443Y-47514294D01*
X138994007Y-47495819D01*
X139031501Y-47484445D01*
X139076638Y-47480000D01*
X139815362Y-47480000D01*
X139860499Y-47484445D01*
X139860499Y-47484445D01*
G37*
G36*
X157657000Y-48201000D02*
X155955000Y-48201000D01*
X155955000Y-46699000D01*
X157657000Y-46699000D01*
X157657000Y-48201000D01*
X157657000Y-48201000D01*
G37*
G36*
X150457000Y-48201000D02*
X148755000Y-48201000D01*
X148755000Y-46699000D01*
X150457000Y-46699000D01*
X150457000Y-48201000D01*
X150457000Y-48201000D01*
G37*
G36*
X145144499Y-45656445D02*
X145181993Y-45667819D01*
X145216557Y-45686294D01*
X145246847Y-45711153D01*
X145271706Y-45741443D01*
X145290181Y-45776007D01*
X145301555Y-45813501D01*
X145306000Y-45858638D01*
X145306000Y-46597362D01*
X145301555Y-46642499D01*
X145290181Y-46679993D01*
X145271706Y-46714557D01*
X145246847Y-46744847D01*
X145216557Y-46769706D01*
X145181993Y-46788181D01*
X145144499Y-46799555D01*
X145099362Y-46804000D01*
X144460638Y-46804000D01*
X144415501Y-46799555D01*
X144378007Y-46788181D01*
X144343443Y-46769706D01*
X144313153Y-46744847D01*
X144288294Y-46714557D01*
X144269819Y-46679993D01*
X144258445Y-46642499D01*
X144254000Y-46597362D01*
X144254000Y-45858638D01*
X144258445Y-45813501D01*
X144269819Y-45776007D01*
X144288294Y-45741443D01*
X144313153Y-45711153D01*
X144343443Y-45686294D01*
X144378007Y-45667819D01*
X144415501Y-45656445D01*
X144460638Y-45652000D01*
X145099362Y-45652000D01*
X145144499Y-45656445D01*
X145144499Y-45656445D01*
G37*
G36*
X146922499Y-45656445D02*
X146959993Y-45667819D01*
X146994557Y-45686294D01*
X147024847Y-45711153D01*
X147049706Y-45741443D01*
X147068181Y-45776007D01*
X147079555Y-45813501D01*
X147084000Y-45858638D01*
X147084000Y-46597362D01*
X147079555Y-46642499D01*
X147068181Y-46679993D01*
X147049706Y-46714557D01*
X147024847Y-46744847D01*
X146994557Y-46769706D01*
X146959993Y-46788181D01*
X146922499Y-46799555D01*
X146877362Y-46804000D01*
X146238638Y-46804000D01*
X146193501Y-46799555D01*
X146156007Y-46788181D01*
X146121443Y-46769706D01*
X146091153Y-46744847D01*
X146066294Y-46714557D01*
X146047819Y-46679993D01*
X146036445Y-46642499D01*
X146032000Y-46597362D01*
X146032000Y-45858638D01*
X146036445Y-45813501D01*
X146047819Y-45776007D01*
X146066294Y-45741443D01*
X146091153Y-45711153D01*
X146121443Y-45686294D01*
X146156007Y-45667819D01*
X146193501Y-45656445D01*
X146238638Y-45652000D01*
X146877362Y-45652000D01*
X146922499Y-45656445D01*
X146922499Y-45656445D01*
G37*
G36*
X141610499Y-45706445D02*
X141647993Y-45717819D01*
X141682557Y-45736294D01*
X141712847Y-45761153D01*
X141737706Y-45791443D01*
X141756181Y-45826007D01*
X141767555Y-45863501D01*
X141772000Y-45908638D01*
X141772000Y-46547362D01*
X141767555Y-46592499D01*
X141756181Y-46629993D01*
X141737706Y-46664557D01*
X141712847Y-46694847D01*
X141682557Y-46719706D01*
X141647993Y-46738181D01*
X141610499Y-46749555D01*
X141565362Y-46754000D01*
X140826638Y-46754000D01*
X140781501Y-46749555D01*
X140744007Y-46738181D01*
X140709443Y-46719706D01*
X140679153Y-46694847D01*
X140654294Y-46664557D01*
X140635819Y-46629993D01*
X140624445Y-46592499D01*
X140620000Y-46547362D01*
X140620000Y-45908638D01*
X140624445Y-45863501D01*
X140635819Y-45826007D01*
X140654294Y-45791443D01*
X140679153Y-45761153D01*
X140709443Y-45736294D01*
X140744007Y-45717819D01*
X140781501Y-45706445D01*
X140826638Y-45702000D01*
X141565362Y-45702000D01*
X141610499Y-45706445D01*
X141610499Y-45706445D01*
G37*
G36*
X139860499Y-45706445D02*
X139897993Y-45717819D01*
X139932557Y-45736294D01*
X139962847Y-45761153D01*
X139987706Y-45791443D01*
X140006181Y-45826007D01*
X140017555Y-45863501D01*
X140022000Y-45908638D01*
X140022000Y-46547362D01*
X140017555Y-46592499D01*
X140006181Y-46629993D01*
X139987706Y-46664557D01*
X139962847Y-46694847D01*
X139932557Y-46719706D01*
X139897993Y-46738181D01*
X139860499Y-46749555D01*
X139815362Y-46754000D01*
X139076638Y-46754000D01*
X139031501Y-46749555D01*
X138994007Y-46738181D01*
X138959443Y-46719706D01*
X138929153Y-46694847D01*
X138904294Y-46664557D01*
X138885819Y-46629993D01*
X138874445Y-46592499D01*
X138870000Y-46547362D01*
X138870000Y-45908638D01*
X138874445Y-45863501D01*
X138885819Y-45826007D01*
X138904294Y-45791443D01*
X138929153Y-45761153D01*
X138959443Y-45736294D01*
X138994007Y-45717819D01*
X139031501Y-45706445D01*
X139076638Y-45702000D01*
X139815362Y-45702000D01*
X139860499Y-45706445D01*
X139860499Y-45706445D01*
G37*
G36*
X109330442Y-44825518D02*
X109396627Y-44832037D01*
X109485891Y-44859115D01*
X109566467Y-44883557D01*
X109696885Y-44953268D01*
X109722991Y-44967222D01*
X109758729Y-44996552D01*
X109860186Y-45079814D01*
X109943448Y-45181271D01*
X109972778Y-45217009D01*
X109972779Y-45217011D01*
X110056443Y-45373533D01*
X110056443Y-45373534D01*
X110107963Y-45543373D01*
X110125359Y-45720000D01*
X110107963Y-45896627D01*
X110088898Y-45959475D01*
X110056443Y-46066467D01*
X109983988Y-46202018D01*
X109972778Y-46222991D01*
X109943448Y-46258729D01*
X109860186Y-46360186D01*
X109766857Y-46436778D01*
X109722991Y-46472778D01*
X109722989Y-46472779D01*
X109566467Y-46556443D01*
X109509853Y-46573616D01*
X109396627Y-46607963D01*
X109330443Y-46614481D01*
X109264260Y-46621000D01*
X109175740Y-46621000D01*
X109109558Y-46614482D01*
X109043373Y-46607963D01*
X108930147Y-46573616D01*
X108873533Y-46556443D01*
X108717011Y-46472779D01*
X108717009Y-46472778D01*
X108673143Y-46436778D01*
X108579814Y-46360186D01*
X108496552Y-46258729D01*
X108467222Y-46222991D01*
X108456012Y-46202018D01*
X108383557Y-46066467D01*
X108351102Y-45959475D01*
X108332037Y-45896627D01*
X108314641Y-45720000D01*
X108332037Y-45543373D01*
X108383557Y-45373534D01*
X108383557Y-45373533D01*
X108467221Y-45217011D01*
X108467222Y-45217009D01*
X108496552Y-45181271D01*
X108579814Y-45079814D01*
X108681271Y-44996552D01*
X108717009Y-44967222D01*
X108743115Y-44953268D01*
X108873533Y-44883557D01*
X108954109Y-44859115D01*
X109043373Y-44832037D01*
X109109558Y-44825518D01*
X109175740Y-44819000D01*
X109264260Y-44819000D01*
X109330442Y-44825518D01*
X109330442Y-44825518D01*
G37*
G36*
X165210442Y-44825518D02*
X165276627Y-44832037D01*
X165365891Y-44859115D01*
X165446467Y-44883557D01*
X165576885Y-44953268D01*
X165602991Y-44967222D01*
X165638729Y-44996552D01*
X165740186Y-45079814D01*
X165823448Y-45181271D01*
X165852778Y-45217009D01*
X165852779Y-45217011D01*
X165936443Y-45373533D01*
X165936443Y-45373534D01*
X165987963Y-45543373D01*
X166005359Y-45720000D01*
X165987963Y-45896627D01*
X165968898Y-45959475D01*
X165936443Y-46066467D01*
X165863988Y-46202018D01*
X165852778Y-46222991D01*
X165823448Y-46258729D01*
X165740186Y-46360186D01*
X165646857Y-46436778D01*
X165602991Y-46472778D01*
X165602989Y-46472779D01*
X165446467Y-46556443D01*
X165389853Y-46573616D01*
X165276627Y-46607963D01*
X165210443Y-46614481D01*
X165144260Y-46621000D01*
X165055740Y-46621000D01*
X164989558Y-46614482D01*
X164923373Y-46607963D01*
X164810147Y-46573616D01*
X164753533Y-46556443D01*
X164597011Y-46472779D01*
X164597009Y-46472778D01*
X164553143Y-46436778D01*
X164459814Y-46360186D01*
X164376552Y-46258729D01*
X164347222Y-46222991D01*
X164336012Y-46202018D01*
X164263557Y-46066467D01*
X164231102Y-45959475D01*
X164212037Y-45896627D01*
X164194641Y-45720000D01*
X164212037Y-45543373D01*
X164263557Y-45373534D01*
X164263557Y-45373533D01*
X164347221Y-45217011D01*
X164347222Y-45217009D01*
X164376552Y-45181271D01*
X164459814Y-45079814D01*
X164561271Y-44996552D01*
X164597009Y-44967222D01*
X164623115Y-44953268D01*
X164753533Y-44883557D01*
X164834109Y-44859115D01*
X164923373Y-44832037D01*
X164989558Y-44825518D01*
X165055740Y-44819000D01*
X165144260Y-44819000D01*
X165210442Y-44825518D01*
X165210442Y-44825518D01*
G37*
G36*
X162670442Y-44825518D02*
X162736627Y-44832037D01*
X162825891Y-44859115D01*
X162906467Y-44883557D01*
X163036885Y-44953268D01*
X163062991Y-44967222D01*
X163098729Y-44996552D01*
X163200186Y-45079814D01*
X163283448Y-45181271D01*
X163312778Y-45217009D01*
X163312779Y-45217011D01*
X163396443Y-45373533D01*
X163396443Y-45373534D01*
X163447963Y-45543373D01*
X163465359Y-45720000D01*
X163447963Y-45896627D01*
X163428898Y-45959475D01*
X163396443Y-46066467D01*
X163323988Y-46202018D01*
X163312778Y-46222991D01*
X163283448Y-46258729D01*
X163200186Y-46360186D01*
X163106857Y-46436778D01*
X163062991Y-46472778D01*
X163062989Y-46472779D01*
X162906467Y-46556443D01*
X162849853Y-46573616D01*
X162736627Y-46607963D01*
X162670443Y-46614481D01*
X162604260Y-46621000D01*
X162515740Y-46621000D01*
X162449558Y-46614482D01*
X162383373Y-46607963D01*
X162270147Y-46573616D01*
X162213533Y-46556443D01*
X162057011Y-46472779D01*
X162057009Y-46472778D01*
X162013143Y-46436778D01*
X161919814Y-46360186D01*
X161836552Y-46258729D01*
X161807222Y-46222991D01*
X161796012Y-46202018D01*
X161723557Y-46066467D01*
X161691102Y-45959475D01*
X161672037Y-45896627D01*
X161654641Y-45720000D01*
X161672037Y-45543373D01*
X161723557Y-45373534D01*
X161723557Y-45373533D01*
X161807221Y-45217011D01*
X161807222Y-45217009D01*
X161836552Y-45181271D01*
X161919814Y-45079814D01*
X162021271Y-44996552D01*
X162057009Y-44967222D01*
X162083115Y-44953268D01*
X162213533Y-44883557D01*
X162294109Y-44859115D01*
X162383373Y-44832037D01*
X162449558Y-44825518D01*
X162515740Y-44819000D01*
X162604260Y-44819000D01*
X162670442Y-44825518D01*
X162670442Y-44825518D01*
G37*
G36*
X106790442Y-44825518D02*
X106856627Y-44832037D01*
X106945891Y-44859115D01*
X107026467Y-44883557D01*
X107156885Y-44953268D01*
X107182991Y-44967222D01*
X107218729Y-44996552D01*
X107320186Y-45079814D01*
X107403448Y-45181271D01*
X107432778Y-45217009D01*
X107432779Y-45217011D01*
X107516443Y-45373533D01*
X107516443Y-45373534D01*
X107567963Y-45543373D01*
X107585359Y-45720000D01*
X107567963Y-45896627D01*
X107548898Y-45959475D01*
X107516443Y-46066467D01*
X107443988Y-46202018D01*
X107432778Y-46222991D01*
X107403448Y-46258729D01*
X107320186Y-46360186D01*
X107226857Y-46436778D01*
X107182991Y-46472778D01*
X107182989Y-46472779D01*
X107026467Y-46556443D01*
X106969853Y-46573616D01*
X106856627Y-46607963D01*
X106790443Y-46614481D01*
X106724260Y-46621000D01*
X106635740Y-46621000D01*
X106569558Y-46614482D01*
X106503373Y-46607963D01*
X106390147Y-46573616D01*
X106333533Y-46556443D01*
X106177011Y-46472779D01*
X106177009Y-46472778D01*
X106133143Y-46436778D01*
X106039814Y-46360186D01*
X105956552Y-46258729D01*
X105927222Y-46222991D01*
X105916012Y-46202018D01*
X105843557Y-46066467D01*
X105811102Y-45959475D01*
X105792037Y-45896627D01*
X105774641Y-45720000D01*
X105792037Y-45543373D01*
X105843557Y-45373534D01*
X105843557Y-45373533D01*
X105927221Y-45217011D01*
X105927222Y-45217009D01*
X105956552Y-45181271D01*
X106039814Y-45079814D01*
X106141271Y-44996552D01*
X106177009Y-44967222D01*
X106203115Y-44953268D01*
X106333533Y-44883557D01*
X106414109Y-44859115D01*
X106503373Y-44832037D01*
X106569558Y-44825518D01*
X106635740Y-44819000D01*
X106724260Y-44819000D01*
X106790442Y-44825518D01*
X106790442Y-44825518D01*
G37*
G36*
X150457000Y-45201000D02*
X148755000Y-45201000D01*
X148755000Y-43699000D01*
X150457000Y-43699000D01*
X150457000Y-45201000D01*
X150457000Y-45201000D01*
G37*
G36*
X157657000Y-45201000D02*
X155955000Y-45201000D01*
X155955000Y-43699000D01*
X157657000Y-43699000D01*
X157657000Y-45201000D01*
X157657000Y-45201000D01*
G37*
G36*
X145194499Y-43928445D02*
X145231993Y-43939819D01*
X145266557Y-43958294D01*
X145296847Y-43983153D01*
X145321706Y-44013443D01*
X145340181Y-44048007D01*
X145351555Y-44085501D01*
X145356000Y-44130638D01*
X145356000Y-44769362D01*
X145351555Y-44814499D01*
X145340181Y-44851993D01*
X145321706Y-44886557D01*
X145296847Y-44916847D01*
X145266557Y-44941706D01*
X145231993Y-44960181D01*
X145194499Y-44971555D01*
X145149362Y-44976000D01*
X144410638Y-44976000D01*
X144365501Y-44971555D01*
X144328007Y-44960181D01*
X144293443Y-44941706D01*
X144263153Y-44916847D01*
X144238294Y-44886557D01*
X144219819Y-44851993D01*
X144208445Y-44814499D01*
X144204000Y-44769362D01*
X144204000Y-44130638D01*
X144208445Y-44085501D01*
X144219819Y-44048007D01*
X144238294Y-44013443D01*
X144263153Y-43983153D01*
X144293443Y-43958294D01*
X144328007Y-43939819D01*
X144365501Y-43928445D01*
X144410638Y-43924000D01*
X145149362Y-43924000D01*
X145194499Y-43928445D01*
X145194499Y-43928445D01*
G37*
G36*
X146944499Y-43928445D02*
X146981993Y-43939819D01*
X147016557Y-43958294D01*
X147046847Y-43983153D01*
X147071706Y-44013443D01*
X147090181Y-44048007D01*
X147101555Y-44085501D01*
X147106000Y-44130638D01*
X147106000Y-44769362D01*
X147101555Y-44814499D01*
X147090181Y-44851993D01*
X147071706Y-44886557D01*
X147046847Y-44916847D01*
X147016557Y-44941706D01*
X146981993Y-44960181D01*
X146944499Y-44971555D01*
X146899362Y-44976000D01*
X146160638Y-44976000D01*
X146115501Y-44971555D01*
X146078007Y-44960181D01*
X146043443Y-44941706D01*
X146013153Y-44916847D01*
X145988294Y-44886557D01*
X145969819Y-44851993D01*
X145958445Y-44814499D01*
X145954000Y-44769362D01*
X145954000Y-44130638D01*
X145958445Y-44085501D01*
X145969819Y-44048007D01*
X145988294Y-44013443D01*
X146013153Y-43983153D01*
X146043443Y-43958294D01*
X146078007Y-43939819D01*
X146115501Y-43928445D01*
X146160638Y-43924000D01*
X146899362Y-43924000D01*
X146944499Y-43928445D01*
X146944499Y-43928445D01*
G37*
G36*
X119454354Y-42996263D02*
X119491848Y-43007637D01*
X119526412Y-43026112D01*
X119561473Y-43054886D01*
X120013114Y-43506527D01*
X120041888Y-43541588D01*
X120060363Y-43576152D01*
X120071737Y-43613646D01*
X120075577Y-43652645D01*
X120071737Y-43691644D01*
X120060363Y-43729138D01*
X120041888Y-43763702D01*
X120013114Y-43798763D01*
X119490763Y-44321114D01*
X119455702Y-44349888D01*
X119421138Y-44368363D01*
X119383644Y-44379737D01*
X119344645Y-44383577D01*
X119305646Y-44379737D01*
X119268152Y-44368363D01*
X119233588Y-44349888D01*
X119198527Y-44321114D01*
X118746886Y-43869473D01*
X118718112Y-43834412D01*
X118699637Y-43799848D01*
X118688263Y-43762354D01*
X118684423Y-43723355D01*
X118688263Y-43684356D01*
X118699637Y-43646862D01*
X118718112Y-43612298D01*
X118746886Y-43577237D01*
X119269237Y-43054886D01*
X119304298Y-43026112D01*
X119338862Y-43007637D01*
X119376356Y-42996263D01*
X119415355Y-42992423D01*
X119454354Y-42996263D01*
X119454354Y-42996263D01*
G37*
G36*
X109330442Y-42285518D02*
X109396627Y-42292037D01*
X109470885Y-42314563D01*
X109566467Y-42343557D01*
X109689697Y-42409426D01*
X109722991Y-42427222D01*
X109734526Y-42436689D01*
X109860186Y-42539814D01*
X109934894Y-42630847D01*
X109972778Y-42677009D01*
X109972779Y-42677011D01*
X110056443Y-42833533D01*
X110056443Y-42833534D01*
X110107963Y-43003373D01*
X110125359Y-43180000D01*
X110107963Y-43356627D01*
X110102817Y-43373591D01*
X110056443Y-43526467D01*
X110009844Y-43613646D01*
X109972778Y-43682991D01*
X109955574Y-43703954D01*
X109860186Y-43820186D01*
X109773662Y-43891193D01*
X109722991Y-43932778D01*
X109722989Y-43932779D01*
X109566467Y-44016443D01*
X109509853Y-44033616D01*
X109396627Y-44067963D01*
X109330443Y-44074481D01*
X109264260Y-44081000D01*
X109175740Y-44081000D01*
X109109557Y-44074481D01*
X109043373Y-44067963D01*
X108930147Y-44033616D01*
X108873533Y-44016443D01*
X108717011Y-43932779D01*
X108717009Y-43932778D01*
X108666338Y-43891193D01*
X108579814Y-43820186D01*
X108484426Y-43703954D01*
X108467222Y-43682991D01*
X108430156Y-43613646D01*
X108383557Y-43526467D01*
X108337183Y-43373591D01*
X108332037Y-43356627D01*
X108314641Y-43180000D01*
X108332037Y-43003373D01*
X108383557Y-42833534D01*
X108383557Y-42833533D01*
X108467221Y-42677011D01*
X108467222Y-42677009D01*
X108505106Y-42630847D01*
X108579814Y-42539814D01*
X108705474Y-42436689D01*
X108717009Y-42427222D01*
X108750303Y-42409426D01*
X108873533Y-42343557D01*
X108969115Y-42314563D01*
X109043373Y-42292037D01*
X109109557Y-42285519D01*
X109175740Y-42279000D01*
X109264260Y-42279000D01*
X109330442Y-42285518D01*
X109330442Y-42285518D01*
G37*
G36*
X165210442Y-42285518D02*
X165276627Y-42292037D01*
X165350885Y-42314563D01*
X165446467Y-42343557D01*
X165569697Y-42409426D01*
X165602991Y-42427222D01*
X165614526Y-42436689D01*
X165740186Y-42539814D01*
X165814894Y-42630847D01*
X165852778Y-42677009D01*
X165852779Y-42677011D01*
X165936443Y-42833533D01*
X165936443Y-42833534D01*
X165987963Y-43003373D01*
X166005359Y-43180000D01*
X165987963Y-43356627D01*
X165982817Y-43373591D01*
X165936443Y-43526467D01*
X165889844Y-43613646D01*
X165852778Y-43682991D01*
X165835574Y-43703954D01*
X165740186Y-43820186D01*
X165653662Y-43891193D01*
X165602991Y-43932778D01*
X165602989Y-43932779D01*
X165446467Y-44016443D01*
X165389853Y-44033616D01*
X165276627Y-44067963D01*
X165210443Y-44074481D01*
X165144260Y-44081000D01*
X165055740Y-44081000D01*
X164989557Y-44074481D01*
X164923373Y-44067963D01*
X164810147Y-44033616D01*
X164753533Y-44016443D01*
X164597011Y-43932779D01*
X164597009Y-43932778D01*
X164546338Y-43891193D01*
X164459814Y-43820186D01*
X164364426Y-43703954D01*
X164347222Y-43682991D01*
X164310156Y-43613646D01*
X164263557Y-43526467D01*
X164217183Y-43373591D01*
X164212037Y-43356627D01*
X164194641Y-43180000D01*
X164212037Y-43003373D01*
X164263557Y-42833534D01*
X164263557Y-42833533D01*
X164347221Y-42677011D01*
X164347222Y-42677009D01*
X164385106Y-42630847D01*
X164459814Y-42539814D01*
X164585474Y-42436689D01*
X164597009Y-42427222D01*
X164630303Y-42409426D01*
X164753533Y-42343557D01*
X164849115Y-42314563D01*
X164923373Y-42292037D01*
X164989557Y-42285519D01*
X165055740Y-42279000D01*
X165144260Y-42279000D01*
X165210442Y-42285518D01*
X165210442Y-42285518D01*
G37*
G36*
X162670442Y-42285518D02*
X162736627Y-42292037D01*
X162810885Y-42314563D01*
X162906467Y-42343557D01*
X163029697Y-42409426D01*
X163062991Y-42427222D01*
X163074526Y-42436689D01*
X163200186Y-42539814D01*
X163274894Y-42630847D01*
X163312778Y-42677009D01*
X163312779Y-42677011D01*
X163396443Y-42833533D01*
X163396443Y-42833534D01*
X163447963Y-43003373D01*
X163465359Y-43180000D01*
X163447963Y-43356627D01*
X163442817Y-43373591D01*
X163396443Y-43526467D01*
X163349844Y-43613646D01*
X163312778Y-43682991D01*
X163295574Y-43703954D01*
X163200186Y-43820186D01*
X163113662Y-43891193D01*
X163062991Y-43932778D01*
X163062989Y-43932779D01*
X162906467Y-44016443D01*
X162849853Y-44033616D01*
X162736627Y-44067963D01*
X162670443Y-44074481D01*
X162604260Y-44081000D01*
X162515740Y-44081000D01*
X162449557Y-44074481D01*
X162383373Y-44067963D01*
X162270147Y-44033616D01*
X162213533Y-44016443D01*
X162057011Y-43932779D01*
X162057009Y-43932778D01*
X162006338Y-43891193D01*
X161919814Y-43820186D01*
X161824426Y-43703954D01*
X161807222Y-43682991D01*
X161770156Y-43613646D01*
X161723557Y-43526467D01*
X161677183Y-43373591D01*
X161672037Y-43356627D01*
X161654641Y-43180000D01*
X161672037Y-43003373D01*
X161723557Y-42833534D01*
X161723557Y-42833533D01*
X161807221Y-42677011D01*
X161807222Y-42677009D01*
X161845106Y-42630847D01*
X161919814Y-42539814D01*
X162045474Y-42436689D01*
X162057009Y-42427222D01*
X162090303Y-42409426D01*
X162213533Y-42343557D01*
X162309115Y-42314563D01*
X162383373Y-42292037D01*
X162449557Y-42285519D01*
X162515740Y-42279000D01*
X162604260Y-42279000D01*
X162670442Y-42285518D01*
X162670442Y-42285518D01*
G37*
G36*
X106790442Y-42285518D02*
X106856627Y-42292037D01*
X106930885Y-42314563D01*
X107026467Y-42343557D01*
X107149697Y-42409426D01*
X107182991Y-42427222D01*
X107194526Y-42436689D01*
X107320186Y-42539814D01*
X107394894Y-42630847D01*
X107432778Y-42677009D01*
X107432779Y-42677011D01*
X107516443Y-42833533D01*
X107516443Y-42833534D01*
X107567963Y-43003373D01*
X107585359Y-43180000D01*
X107567963Y-43356627D01*
X107562817Y-43373591D01*
X107516443Y-43526467D01*
X107469844Y-43613646D01*
X107432778Y-43682991D01*
X107415574Y-43703954D01*
X107320186Y-43820186D01*
X107233662Y-43891193D01*
X107182991Y-43932778D01*
X107182989Y-43932779D01*
X107026467Y-44016443D01*
X106969853Y-44033616D01*
X106856627Y-44067963D01*
X106790443Y-44074481D01*
X106724260Y-44081000D01*
X106635740Y-44081000D01*
X106569557Y-44074481D01*
X106503373Y-44067963D01*
X106390147Y-44033616D01*
X106333533Y-44016443D01*
X106177011Y-43932779D01*
X106177009Y-43932778D01*
X106126338Y-43891193D01*
X106039814Y-43820186D01*
X105944426Y-43703954D01*
X105927222Y-43682991D01*
X105890156Y-43613646D01*
X105843557Y-43526467D01*
X105797183Y-43373591D01*
X105792037Y-43356627D01*
X105774641Y-43180000D01*
X105792037Y-43003373D01*
X105843557Y-42833534D01*
X105843557Y-42833533D01*
X105927221Y-42677011D01*
X105927222Y-42677009D01*
X105965106Y-42630847D01*
X106039814Y-42539814D01*
X106165474Y-42436689D01*
X106177009Y-42427222D01*
X106210303Y-42409426D01*
X106333533Y-42343557D01*
X106429115Y-42314563D01*
X106503373Y-42292037D01*
X106569558Y-42285518D01*
X106635740Y-42279000D01*
X106724260Y-42279000D01*
X106790442Y-42285518D01*
X106790442Y-42285518D01*
G37*
G36*
X120691790Y-41758827D02*
X120729284Y-41770201D01*
X120763848Y-41788676D01*
X120798909Y-41817450D01*
X121250550Y-42269091D01*
X121279324Y-42304152D01*
X121297799Y-42338716D01*
X121309173Y-42376210D01*
X121313013Y-42415209D01*
X121309173Y-42454208D01*
X121297799Y-42491702D01*
X121279324Y-42526266D01*
X121250550Y-42561327D01*
X120728199Y-43083678D01*
X120693138Y-43112452D01*
X120658574Y-43130927D01*
X120621080Y-43142301D01*
X120582081Y-43146141D01*
X120543082Y-43142301D01*
X120505588Y-43130927D01*
X120471024Y-43112452D01*
X120435963Y-43083678D01*
X119984322Y-42632037D01*
X119955548Y-42596976D01*
X119937073Y-42562412D01*
X119925699Y-42524918D01*
X119921859Y-42485919D01*
X119925699Y-42446920D01*
X119937073Y-42409426D01*
X119955548Y-42374862D01*
X119984322Y-42339801D01*
X120506673Y-41817450D01*
X120541734Y-41788676D01*
X120576298Y-41770201D01*
X120613792Y-41758827D01*
X120652791Y-41754987D01*
X120691790Y-41758827D01*
X120691790Y-41758827D01*
G37*
G36*
X118184354Y-41726263D02*
X118221848Y-41737637D01*
X118256412Y-41756112D01*
X118291473Y-41784886D01*
X118743114Y-42236527D01*
X118771888Y-42271588D01*
X118790363Y-42306152D01*
X118801737Y-42343646D01*
X118805577Y-42382645D01*
X118801737Y-42421644D01*
X118790363Y-42459138D01*
X118771888Y-42493702D01*
X118743114Y-42528763D01*
X118220763Y-43051114D01*
X118185702Y-43079888D01*
X118151138Y-43098363D01*
X118113644Y-43109737D01*
X118074645Y-43113577D01*
X118035646Y-43109737D01*
X117998152Y-43098363D01*
X117963588Y-43079888D01*
X117928527Y-43051114D01*
X117476886Y-42599473D01*
X117448112Y-42564412D01*
X117429637Y-42529848D01*
X117418263Y-42492354D01*
X117414423Y-42453355D01*
X117418263Y-42414356D01*
X117429637Y-42376862D01*
X117448112Y-42342298D01*
X117476886Y-42307237D01*
X117999237Y-41784886D01*
X118034298Y-41756112D01*
X118068862Y-41737637D01*
X118106356Y-41726263D01*
X118145355Y-41722423D01*
X118184354Y-41726263D01*
X118184354Y-41726263D01*
G37*
G36*
X132381500Y-41642445D02*
X132418994Y-41653819D01*
X132453558Y-41672294D01*
X132483848Y-41697153D01*
X132508707Y-41727443D01*
X132527182Y-41762007D01*
X132538556Y-41799501D01*
X132543001Y-41844638D01*
X132543001Y-42483362D01*
X132538556Y-42528499D01*
X132527182Y-42565993D01*
X132508707Y-42600557D01*
X132483848Y-42630847D01*
X132453558Y-42655706D01*
X132418994Y-42674181D01*
X132381500Y-42685555D01*
X132336363Y-42690000D01*
X131597639Y-42690000D01*
X131552502Y-42685555D01*
X131515008Y-42674181D01*
X131480444Y-42655706D01*
X131450154Y-42630847D01*
X131425295Y-42600557D01*
X131406820Y-42565993D01*
X131395446Y-42528499D01*
X131391001Y-42483362D01*
X131391001Y-41844638D01*
X131395446Y-41799501D01*
X131406820Y-41762007D01*
X131425295Y-41727443D01*
X131450154Y-41697153D01*
X131480444Y-41672294D01*
X131515008Y-41653819D01*
X131552502Y-41642445D01*
X131597639Y-41638000D01*
X132336363Y-41638000D01*
X132381500Y-41642445D01*
X132381500Y-41642445D01*
G37*
G36*
X134131498Y-41642445D02*
X134168992Y-41653819D01*
X134203556Y-41672294D01*
X134233846Y-41697153D01*
X134258705Y-41727443D01*
X134277180Y-41762007D01*
X134288554Y-41799501D01*
X134292999Y-41844638D01*
X134292999Y-42483362D01*
X134288554Y-42528499D01*
X134277180Y-42565993D01*
X134258705Y-42600557D01*
X134233846Y-42630847D01*
X134203556Y-42655706D01*
X134168992Y-42674181D01*
X134131498Y-42685555D01*
X134086361Y-42690000D01*
X133347637Y-42690000D01*
X133302500Y-42685555D01*
X133265006Y-42674181D01*
X133230442Y-42655706D01*
X133200152Y-42630847D01*
X133175293Y-42600557D01*
X133156818Y-42565993D01*
X133145444Y-42528499D01*
X133140999Y-42483362D01*
X133140999Y-41844638D01*
X133145444Y-41799501D01*
X133156818Y-41762007D01*
X133175293Y-41727443D01*
X133200152Y-41697153D01*
X133230442Y-41672294D01*
X133265006Y-41653819D01*
X133302500Y-41642445D01*
X133347637Y-41638000D01*
X134086361Y-41638000D01*
X134131498Y-41642445D01*
X134131498Y-41642445D01*
G37*
G36*
X119421790Y-40488827D02*
X119459284Y-40500201D01*
X119493848Y-40518676D01*
X119528909Y-40547450D01*
X119980550Y-40999091D01*
X120009324Y-41034152D01*
X120027799Y-41068716D01*
X120039173Y-41106210D01*
X120043013Y-41145209D01*
X120039173Y-41184208D01*
X120027799Y-41221702D01*
X120009324Y-41256266D01*
X119980550Y-41291327D01*
X119458199Y-41813678D01*
X119423138Y-41842452D01*
X119388574Y-41860927D01*
X119351080Y-41872301D01*
X119312081Y-41876141D01*
X119273082Y-41872301D01*
X119235588Y-41860927D01*
X119201024Y-41842452D01*
X119165963Y-41813678D01*
X118714322Y-41362037D01*
X118685548Y-41326976D01*
X118667073Y-41292412D01*
X118655699Y-41254918D01*
X118651859Y-41215919D01*
X118655699Y-41176920D01*
X118667073Y-41139426D01*
X118685548Y-41104862D01*
X118714322Y-41069801D01*
X119236673Y-40547450D01*
X119271734Y-40518676D01*
X119306298Y-40500201D01*
X119343792Y-40488827D01*
X119382791Y-40484987D01*
X119421790Y-40488827D01*
X119421790Y-40488827D01*
G37*
G36*
X116914354Y-40456263D02*
X116951848Y-40467637D01*
X116986412Y-40486112D01*
X117021473Y-40514886D01*
X117473114Y-40966527D01*
X117501888Y-41001588D01*
X117520363Y-41036152D01*
X117531737Y-41073646D01*
X117535577Y-41112645D01*
X117531737Y-41151644D01*
X117520363Y-41189138D01*
X117501888Y-41223702D01*
X117473114Y-41258763D01*
X116950763Y-41781114D01*
X116915702Y-41809888D01*
X116881138Y-41828363D01*
X116843644Y-41839737D01*
X116804645Y-41843577D01*
X116765646Y-41839737D01*
X116728152Y-41828363D01*
X116693588Y-41809888D01*
X116658527Y-41781114D01*
X116206886Y-41329473D01*
X116178112Y-41294412D01*
X116159637Y-41259848D01*
X116148263Y-41222354D01*
X116144423Y-41183355D01*
X116148263Y-41144356D01*
X116159637Y-41106862D01*
X116178112Y-41072298D01*
X116206886Y-41037237D01*
X116729237Y-40514886D01*
X116764298Y-40486112D01*
X116798862Y-40467637D01*
X116836356Y-40456263D01*
X116875355Y-40452423D01*
X116914354Y-40456263D01*
X116914354Y-40456263D01*
G37*
G36*
X109330442Y-39745518D02*
X109396627Y-39752037D01*
X109470885Y-39774563D01*
X109566467Y-39803557D01*
X109644511Y-39845273D01*
X109722991Y-39887222D01*
X109731608Y-39894294D01*
X109860186Y-39999814D01*
X109910545Y-40061178D01*
X109972778Y-40137009D01*
X109972779Y-40137011D01*
X110056443Y-40293533D01*
X110068663Y-40333819D01*
X110107963Y-40463373D01*
X110125359Y-40640000D01*
X110107963Y-40816627D01*
X110080565Y-40906947D01*
X110056443Y-40986467D01*
X110009844Y-41073646D01*
X109972778Y-41142991D01*
X109944933Y-41176920D01*
X109860186Y-41280186D01*
X109771320Y-41353115D01*
X109722991Y-41392778D01*
X109722989Y-41392779D01*
X109566467Y-41476443D01*
X109509853Y-41493616D01*
X109396627Y-41527963D01*
X109330442Y-41534482D01*
X109264260Y-41541000D01*
X109175740Y-41541000D01*
X109109558Y-41534482D01*
X109043373Y-41527963D01*
X108930147Y-41493616D01*
X108873533Y-41476443D01*
X108717011Y-41392779D01*
X108717009Y-41392778D01*
X108668680Y-41353115D01*
X108579814Y-41280186D01*
X108495067Y-41176920D01*
X108467222Y-41142991D01*
X108430156Y-41073646D01*
X108383557Y-40986467D01*
X108359435Y-40906947D01*
X108332037Y-40816627D01*
X108314641Y-40640000D01*
X108332037Y-40463373D01*
X108371337Y-40333819D01*
X108383557Y-40293533D01*
X108467221Y-40137011D01*
X108467222Y-40137009D01*
X108529455Y-40061178D01*
X108579814Y-39999814D01*
X108708392Y-39894294D01*
X108717009Y-39887222D01*
X108795489Y-39845273D01*
X108873533Y-39803557D01*
X108969115Y-39774563D01*
X109043373Y-39752037D01*
X109109558Y-39745518D01*
X109175740Y-39739000D01*
X109264260Y-39739000D01*
X109330442Y-39745518D01*
X109330442Y-39745518D01*
G37*
G36*
X165210442Y-39745518D02*
X165276627Y-39752037D01*
X165350885Y-39774563D01*
X165446467Y-39803557D01*
X165524511Y-39845273D01*
X165602991Y-39887222D01*
X165611608Y-39894294D01*
X165740186Y-39999814D01*
X165790545Y-40061178D01*
X165852778Y-40137009D01*
X165852779Y-40137011D01*
X165936443Y-40293533D01*
X165948663Y-40333819D01*
X165987963Y-40463373D01*
X166005359Y-40640000D01*
X165987963Y-40816627D01*
X165960565Y-40906947D01*
X165936443Y-40986467D01*
X165889844Y-41073646D01*
X165852778Y-41142991D01*
X165824933Y-41176920D01*
X165740186Y-41280186D01*
X165651320Y-41353115D01*
X165602991Y-41392778D01*
X165602989Y-41392779D01*
X165446467Y-41476443D01*
X165389853Y-41493616D01*
X165276627Y-41527963D01*
X165210442Y-41534482D01*
X165144260Y-41541000D01*
X165055740Y-41541000D01*
X164989558Y-41534482D01*
X164923373Y-41527963D01*
X164810147Y-41493616D01*
X164753533Y-41476443D01*
X164597011Y-41392779D01*
X164597009Y-41392778D01*
X164548680Y-41353115D01*
X164459814Y-41280186D01*
X164375067Y-41176920D01*
X164347222Y-41142991D01*
X164310156Y-41073646D01*
X164263557Y-40986467D01*
X164239435Y-40906947D01*
X164212037Y-40816627D01*
X164194641Y-40640000D01*
X164212037Y-40463373D01*
X164251337Y-40333819D01*
X164263557Y-40293533D01*
X164347221Y-40137011D01*
X164347222Y-40137009D01*
X164409455Y-40061178D01*
X164459814Y-39999814D01*
X164588392Y-39894294D01*
X164597009Y-39887222D01*
X164675489Y-39845273D01*
X164753533Y-39803557D01*
X164849115Y-39774563D01*
X164923373Y-39752037D01*
X164989557Y-39745519D01*
X165055740Y-39739000D01*
X165144260Y-39739000D01*
X165210442Y-39745518D01*
X165210442Y-39745518D01*
G37*
G36*
X162670442Y-39745518D02*
X162736627Y-39752037D01*
X162810885Y-39774563D01*
X162906467Y-39803557D01*
X162984511Y-39845273D01*
X163062991Y-39887222D01*
X163071608Y-39894294D01*
X163200186Y-39999814D01*
X163250545Y-40061178D01*
X163312778Y-40137009D01*
X163312779Y-40137011D01*
X163396443Y-40293533D01*
X163408663Y-40333819D01*
X163447963Y-40463373D01*
X163465359Y-40640000D01*
X163447963Y-40816627D01*
X163420565Y-40906947D01*
X163396443Y-40986467D01*
X163349844Y-41073646D01*
X163312778Y-41142991D01*
X163284933Y-41176920D01*
X163200186Y-41280186D01*
X163111320Y-41353115D01*
X163062991Y-41392778D01*
X163062989Y-41392779D01*
X162906467Y-41476443D01*
X162849853Y-41493616D01*
X162736627Y-41527963D01*
X162670442Y-41534482D01*
X162604260Y-41541000D01*
X162515740Y-41541000D01*
X162449558Y-41534482D01*
X162383373Y-41527963D01*
X162270147Y-41493616D01*
X162213533Y-41476443D01*
X162057011Y-41392779D01*
X162057009Y-41392778D01*
X162008680Y-41353115D01*
X161919814Y-41280186D01*
X161835067Y-41176920D01*
X161807222Y-41142991D01*
X161770156Y-41073646D01*
X161723557Y-40986467D01*
X161699435Y-40906947D01*
X161672037Y-40816627D01*
X161654641Y-40640000D01*
X161672037Y-40463373D01*
X161711337Y-40333819D01*
X161723557Y-40293533D01*
X161807221Y-40137011D01*
X161807222Y-40137009D01*
X161869455Y-40061178D01*
X161919814Y-39999814D01*
X162048392Y-39894294D01*
X162057009Y-39887222D01*
X162135489Y-39845273D01*
X162213533Y-39803557D01*
X162309115Y-39774563D01*
X162383373Y-39752037D01*
X162449557Y-39745519D01*
X162515740Y-39739000D01*
X162604260Y-39739000D01*
X162670442Y-39745518D01*
X162670442Y-39745518D01*
G37*
G36*
X106790442Y-39745518D02*
X106856627Y-39752037D01*
X106930885Y-39774563D01*
X107026467Y-39803557D01*
X107104511Y-39845273D01*
X107182991Y-39887222D01*
X107191608Y-39894294D01*
X107320186Y-39999814D01*
X107370545Y-40061178D01*
X107432778Y-40137009D01*
X107432779Y-40137011D01*
X107516443Y-40293533D01*
X107528663Y-40333819D01*
X107567963Y-40463373D01*
X107585359Y-40640000D01*
X107567963Y-40816627D01*
X107540565Y-40906947D01*
X107516443Y-40986467D01*
X107469844Y-41073646D01*
X107432778Y-41142991D01*
X107404933Y-41176920D01*
X107320186Y-41280186D01*
X107231320Y-41353115D01*
X107182991Y-41392778D01*
X107182989Y-41392779D01*
X107026467Y-41476443D01*
X106969853Y-41493616D01*
X106856627Y-41527963D01*
X106790442Y-41534482D01*
X106724260Y-41541000D01*
X106635740Y-41541000D01*
X106569558Y-41534482D01*
X106503373Y-41527963D01*
X106390147Y-41493616D01*
X106333533Y-41476443D01*
X106177011Y-41392779D01*
X106177009Y-41392778D01*
X106128680Y-41353115D01*
X106039814Y-41280186D01*
X105955067Y-41176920D01*
X105927222Y-41142991D01*
X105890156Y-41073646D01*
X105843557Y-40986467D01*
X105819435Y-40906947D01*
X105792037Y-40816627D01*
X105774641Y-40640000D01*
X105792037Y-40463373D01*
X105831337Y-40333819D01*
X105843557Y-40293533D01*
X105927221Y-40137011D01*
X105927222Y-40137009D01*
X105989455Y-40061178D01*
X106039814Y-39999814D01*
X106168392Y-39894294D01*
X106177009Y-39887222D01*
X106255489Y-39845273D01*
X106333533Y-39803557D01*
X106429115Y-39774563D01*
X106503373Y-39752037D01*
X106569558Y-39745518D01*
X106635740Y-39739000D01*
X106724260Y-39739000D01*
X106790442Y-39745518D01*
X106790442Y-39745518D01*
G37*
G36*
X126094499Y-40322445D02*
X126131993Y-40333819D01*
X126166557Y-40352294D01*
X126196847Y-40377153D01*
X126221706Y-40407443D01*
X126240181Y-40442007D01*
X126251555Y-40479501D01*
X126256000Y-40524638D01*
X126256000Y-41263362D01*
X126251555Y-41308499D01*
X126240181Y-41345993D01*
X126221706Y-41380557D01*
X126196847Y-41410847D01*
X126166557Y-41435706D01*
X126131993Y-41454181D01*
X126094499Y-41465555D01*
X126049362Y-41470000D01*
X125410638Y-41470000D01*
X125365501Y-41465555D01*
X125328007Y-41454181D01*
X125293443Y-41435706D01*
X125263153Y-41410847D01*
X125238294Y-41380557D01*
X125219819Y-41345993D01*
X125208445Y-41308499D01*
X125204000Y-41263362D01*
X125204000Y-40524638D01*
X125208445Y-40479501D01*
X125219819Y-40442007D01*
X125238294Y-40407443D01*
X125263153Y-40377153D01*
X125293443Y-40352294D01*
X125328007Y-40333819D01*
X125365501Y-40322445D01*
X125410638Y-40318000D01*
X126049362Y-40318000D01*
X126094499Y-40322445D01*
X126094499Y-40322445D01*
G37*
G36*
X134131499Y-39864445D02*
X134168993Y-39875819D01*
X134203557Y-39894294D01*
X134233847Y-39919153D01*
X134258706Y-39949443D01*
X134277181Y-39984007D01*
X134288555Y-40021501D01*
X134293000Y-40066638D01*
X134293000Y-40705362D01*
X134288555Y-40750499D01*
X134277181Y-40787993D01*
X134258706Y-40822557D01*
X134233847Y-40852847D01*
X134203557Y-40877706D01*
X134168993Y-40896181D01*
X134131499Y-40907555D01*
X134086362Y-40912000D01*
X133347638Y-40912000D01*
X133302501Y-40907555D01*
X133265007Y-40896181D01*
X133230443Y-40877706D01*
X133200153Y-40852847D01*
X133175294Y-40822557D01*
X133156819Y-40787993D01*
X133145445Y-40750499D01*
X133141000Y-40705362D01*
X133141000Y-40066638D01*
X133145445Y-40021501D01*
X133156819Y-39984007D01*
X133175294Y-39949443D01*
X133200153Y-39919153D01*
X133230443Y-39894294D01*
X133265007Y-39875819D01*
X133302501Y-39864445D01*
X133347638Y-39860000D01*
X134086362Y-39860000D01*
X134131499Y-39864445D01*
X134131499Y-39864445D01*
G37*
G36*
X132381499Y-39864445D02*
X132418993Y-39875819D01*
X132453557Y-39894294D01*
X132483847Y-39919153D01*
X132508706Y-39949443D01*
X132527181Y-39984007D01*
X132538555Y-40021501D01*
X132543000Y-40066638D01*
X132543000Y-40705362D01*
X132538555Y-40750499D01*
X132527181Y-40787993D01*
X132508706Y-40822557D01*
X132483847Y-40852847D01*
X132453557Y-40877706D01*
X132418993Y-40896181D01*
X132381499Y-40907555D01*
X132336362Y-40912000D01*
X131597638Y-40912000D01*
X131552501Y-40907555D01*
X131515007Y-40896181D01*
X131480443Y-40877706D01*
X131450153Y-40852847D01*
X131425294Y-40822557D01*
X131406819Y-40787993D01*
X131395445Y-40750499D01*
X131391000Y-40705362D01*
X131391000Y-40066638D01*
X131395445Y-40021501D01*
X131406819Y-39984007D01*
X131425294Y-39949443D01*
X131450153Y-39919153D01*
X131480443Y-39894294D01*
X131515007Y-39875819D01*
X131552501Y-39864445D01*
X131597638Y-39860000D01*
X132336362Y-39860000D01*
X132381499Y-39864445D01*
X132381499Y-39864445D01*
G37*
G36*
X118151790Y-39218827D02*
X118189284Y-39230201D01*
X118223848Y-39248676D01*
X118258909Y-39277450D01*
X118710550Y-39729091D01*
X118739324Y-39764152D01*
X118757799Y-39798716D01*
X118769173Y-39836210D01*
X118773013Y-39875209D01*
X118769173Y-39914208D01*
X118757799Y-39951702D01*
X118739324Y-39986266D01*
X118710550Y-40021327D01*
X118188199Y-40543678D01*
X118153138Y-40572452D01*
X118118574Y-40590927D01*
X118081080Y-40602301D01*
X118042081Y-40606141D01*
X118003082Y-40602301D01*
X117965588Y-40590927D01*
X117931024Y-40572452D01*
X117895963Y-40543678D01*
X117444322Y-40092037D01*
X117415548Y-40056976D01*
X117397073Y-40022412D01*
X117385699Y-39984918D01*
X117381859Y-39945919D01*
X117385699Y-39906920D01*
X117397073Y-39869426D01*
X117415548Y-39834862D01*
X117444322Y-39799801D01*
X117966673Y-39277450D01*
X118001734Y-39248676D01*
X118036298Y-39230201D01*
X118073792Y-39218827D01*
X118112791Y-39214987D01*
X118151790Y-39218827D01*
X118151790Y-39218827D01*
G37*
G36*
X126094499Y-38572445D02*
X126131993Y-38583819D01*
X126166557Y-38602294D01*
X126196847Y-38627153D01*
X126221706Y-38657443D01*
X126240181Y-38692007D01*
X126251555Y-38729501D01*
X126256000Y-38774638D01*
X126256000Y-39513362D01*
X126251555Y-39558499D01*
X126240181Y-39595993D01*
X126221706Y-39630557D01*
X126196847Y-39660847D01*
X126166557Y-39685706D01*
X126131993Y-39704181D01*
X126094499Y-39715555D01*
X126049362Y-39720000D01*
X125410638Y-39720000D01*
X125365501Y-39715555D01*
X125328007Y-39704181D01*
X125293443Y-39685706D01*
X125263153Y-39660847D01*
X125238294Y-39630557D01*
X125219819Y-39595993D01*
X125208445Y-39558499D01*
X125204000Y-39513362D01*
X125204000Y-38774638D01*
X125208445Y-38729501D01*
X125219819Y-38692007D01*
X125238294Y-38657443D01*
X125263153Y-38627153D01*
X125293443Y-38602294D01*
X125328007Y-38583819D01*
X125365501Y-38572445D01*
X125410638Y-38568000D01*
X126049362Y-38568000D01*
X126094499Y-38572445D01*
X126094499Y-38572445D01*
G37*
G36*
X136000499Y-38262445D02*
X136037993Y-38273819D01*
X136072557Y-38292294D01*
X136102847Y-38317153D01*
X136127706Y-38347443D01*
X136146181Y-38382007D01*
X136157555Y-38419501D01*
X136162000Y-38464638D01*
X136162000Y-39203362D01*
X136157555Y-39248499D01*
X136146181Y-39285993D01*
X136127706Y-39320557D01*
X136102847Y-39350847D01*
X136072557Y-39375706D01*
X136037993Y-39394181D01*
X136000499Y-39405555D01*
X135955362Y-39410000D01*
X135316638Y-39410000D01*
X135271501Y-39405555D01*
X135234007Y-39394181D01*
X135199443Y-39375706D01*
X135169153Y-39350847D01*
X135144294Y-39320557D01*
X135125819Y-39285993D01*
X135114445Y-39248499D01*
X135110000Y-39203362D01*
X135110000Y-38464638D01*
X135114445Y-38419501D01*
X135125819Y-38382007D01*
X135144294Y-38347443D01*
X135169153Y-38317153D01*
X135199443Y-38292294D01*
X135234007Y-38273819D01*
X135271501Y-38262445D01*
X135316638Y-38258000D01*
X135955362Y-38258000D01*
X136000499Y-38262445D01*
X136000499Y-38262445D01*
G37*
G36*
X134685200Y-39335000D02*
X133183200Y-39335000D01*
X133183200Y-38033000D01*
X134685200Y-38033000D01*
X134685200Y-39335000D01*
X134685200Y-39335000D01*
G37*
G36*
X132485200Y-39335000D02*
X130983200Y-39335000D01*
X130983200Y-38033000D01*
X132485200Y-38033000D01*
X132485200Y-39335000D01*
X132485200Y-39335000D01*
G37*
G36*
X109330442Y-37205518D02*
X109396627Y-37212037D01*
X109509853Y-37246384D01*
X109566467Y-37263557D01*
X109705087Y-37337652D01*
X109722991Y-37347222D01*
X109758729Y-37376552D01*
X109860186Y-37459814D01*
X109928548Y-37543115D01*
X109972778Y-37597009D01*
X109972779Y-37597011D01*
X110056443Y-37753533D01*
X110056443Y-37753534D01*
X110107963Y-37923373D01*
X110125359Y-38100000D01*
X110107963Y-38276627D01*
X110090246Y-38335031D01*
X110056443Y-38446467D01*
X109991481Y-38568000D01*
X109972778Y-38602991D01*
X109943448Y-38638729D01*
X109860186Y-38740186D01*
X109758729Y-38823448D01*
X109722991Y-38852778D01*
X109722989Y-38852779D01*
X109566467Y-38936443D01*
X109509853Y-38953616D01*
X109396627Y-38987963D01*
X109330443Y-38994481D01*
X109264260Y-39001000D01*
X109175740Y-39001000D01*
X109109557Y-38994481D01*
X109043373Y-38987963D01*
X108930147Y-38953616D01*
X108873533Y-38936443D01*
X108717011Y-38852779D01*
X108717009Y-38852778D01*
X108681271Y-38823448D01*
X108579814Y-38740186D01*
X108496552Y-38638729D01*
X108467222Y-38602991D01*
X108448519Y-38568000D01*
X108383557Y-38446467D01*
X108349754Y-38335031D01*
X108332037Y-38276627D01*
X108314641Y-38100000D01*
X108332037Y-37923373D01*
X108383557Y-37753534D01*
X108383557Y-37753533D01*
X108467221Y-37597011D01*
X108467222Y-37597009D01*
X108511452Y-37543115D01*
X108579814Y-37459814D01*
X108681271Y-37376552D01*
X108717009Y-37347222D01*
X108734913Y-37337652D01*
X108873533Y-37263557D01*
X108930147Y-37246384D01*
X109043373Y-37212037D01*
X109109558Y-37205518D01*
X109175740Y-37199000D01*
X109264260Y-37199000D01*
X109330442Y-37205518D01*
X109330442Y-37205518D01*
G37*
G36*
X162670442Y-37205518D02*
X162736627Y-37212037D01*
X162849853Y-37246384D01*
X162906467Y-37263557D01*
X163045087Y-37337652D01*
X163062991Y-37347222D01*
X163098729Y-37376552D01*
X163200186Y-37459814D01*
X163268548Y-37543115D01*
X163312778Y-37597009D01*
X163312779Y-37597011D01*
X163396443Y-37753533D01*
X163396443Y-37753534D01*
X163447963Y-37923373D01*
X163465359Y-38100000D01*
X163447963Y-38276627D01*
X163430246Y-38335031D01*
X163396443Y-38446467D01*
X163331481Y-38568000D01*
X163312778Y-38602991D01*
X163283448Y-38638729D01*
X163200186Y-38740186D01*
X163098729Y-38823448D01*
X163062991Y-38852778D01*
X163062989Y-38852779D01*
X162906467Y-38936443D01*
X162849853Y-38953616D01*
X162736627Y-38987963D01*
X162670443Y-38994481D01*
X162604260Y-39001000D01*
X162515740Y-39001000D01*
X162449557Y-38994481D01*
X162383373Y-38987963D01*
X162270147Y-38953616D01*
X162213533Y-38936443D01*
X162057011Y-38852779D01*
X162057009Y-38852778D01*
X162021271Y-38823448D01*
X161919814Y-38740186D01*
X161836552Y-38638729D01*
X161807222Y-38602991D01*
X161788519Y-38568000D01*
X161723557Y-38446467D01*
X161689754Y-38335031D01*
X161672037Y-38276627D01*
X161654641Y-38100000D01*
X161672037Y-37923373D01*
X161723557Y-37753534D01*
X161723557Y-37753533D01*
X161807221Y-37597011D01*
X161807222Y-37597009D01*
X161851452Y-37543115D01*
X161919814Y-37459814D01*
X162021271Y-37376552D01*
X162057009Y-37347222D01*
X162074913Y-37337652D01*
X162213533Y-37263557D01*
X162270147Y-37246384D01*
X162383373Y-37212037D01*
X162449558Y-37205518D01*
X162515740Y-37199000D01*
X162604260Y-37199000D01*
X162670442Y-37205518D01*
X162670442Y-37205518D01*
G37*
G36*
X165210442Y-37205518D02*
X165276627Y-37212037D01*
X165389853Y-37246384D01*
X165446467Y-37263557D01*
X165585087Y-37337652D01*
X165602991Y-37347222D01*
X165638729Y-37376552D01*
X165740186Y-37459814D01*
X165808548Y-37543115D01*
X165852778Y-37597009D01*
X165852779Y-37597011D01*
X165936443Y-37753533D01*
X165936443Y-37753534D01*
X165987963Y-37923373D01*
X166005359Y-38100000D01*
X165987963Y-38276627D01*
X165970246Y-38335031D01*
X165936443Y-38446467D01*
X165871481Y-38568000D01*
X165852778Y-38602991D01*
X165823448Y-38638729D01*
X165740186Y-38740186D01*
X165638729Y-38823448D01*
X165602991Y-38852778D01*
X165602989Y-38852779D01*
X165446467Y-38936443D01*
X165389853Y-38953616D01*
X165276627Y-38987963D01*
X165210443Y-38994481D01*
X165144260Y-39001000D01*
X165055740Y-39001000D01*
X164989557Y-38994481D01*
X164923373Y-38987963D01*
X164810147Y-38953616D01*
X164753533Y-38936443D01*
X164597011Y-38852779D01*
X164597009Y-38852778D01*
X164561271Y-38823448D01*
X164459814Y-38740186D01*
X164376552Y-38638729D01*
X164347222Y-38602991D01*
X164328519Y-38568000D01*
X164263557Y-38446467D01*
X164229754Y-38335031D01*
X164212037Y-38276627D01*
X164194641Y-38100000D01*
X164212037Y-37923373D01*
X164263557Y-37753534D01*
X164263557Y-37753533D01*
X164347221Y-37597011D01*
X164347222Y-37597009D01*
X164391452Y-37543115D01*
X164459814Y-37459814D01*
X164561271Y-37376552D01*
X164597009Y-37347222D01*
X164614913Y-37337652D01*
X164753533Y-37263557D01*
X164810147Y-37246384D01*
X164923373Y-37212037D01*
X164989558Y-37205518D01*
X165055740Y-37199000D01*
X165144260Y-37199000D01*
X165210442Y-37205518D01*
X165210442Y-37205518D01*
G37*
G36*
X106790442Y-37205518D02*
X106856627Y-37212037D01*
X106969853Y-37246384D01*
X107026467Y-37263557D01*
X107165087Y-37337652D01*
X107182991Y-37347222D01*
X107218729Y-37376552D01*
X107320186Y-37459814D01*
X107388548Y-37543115D01*
X107432778Y-37597009D01*
X107432779Y-37597011D01*
X107516443Y-37753533D01*
X107516443Y-37753534D01*
X107567963Y-37923373D01*
X107585359Y-38100000D01*
X107567963Y-38276627D01*
X107550246Y-38335031D01*
X107516443Y-38446467D01*
X107451481Y-38568000D01*
X107432778Y-38602991D01*
X107403448Y-38638729D01*
X107320186Y-38740186D01*
X107218729Y-38823448D01*
X107182991Y-38852778D01*
X107182989Y-38852779D01*
X107026467Y-38936443D01*
X106969853Y-38953616D01*
X106856627Y-38987963D01*
X106790443Y-38994481D01*
X106724260Y-39001000D01*
X106635740Y-39001000D01*
X106569557Y-38994481D01*
X106503373Y-38987963D01*
X106390147Y-38953616D01*
X106333533Y-38936443D01*
X106177011Y-38852779D01*
X106177009Y-38852778D01*
X106141271Y-38823448D01*
X106039814Y-38740186D01*
X105956552Y-38638729D01*
X105927222Y-38602991D01*
X105908519Y-38568000D01*
X105843557Y-38446467D01*
X105809754Y-38335031D01*
X105792037Y-38276627D01*
X105774641Y-38100000D01*
X105792037Y-37923373D01*
X105843557Y-37753534D01*
X105843557Y-37753533D01*
X105927221Y-37597011D01*
X105927222Y-37597009D01*
X105971452Y-37543115D01*
X106039814Y-37459814D01*
X106141271Y-37376552D01*
X106177009Y-37347222D01*
X106194913Y-37337652D01*
X106333533Y-37263557D01*
X106390147Y-37246384D01*
X106503373Y-37212037D01*
X106569558Y-37205518D01*
X106635740Y-37199000D01*
X106724260Y-37199000D01*
X106790442Y-37205518D01*
X106790442Y-37205518D01*
G37*
G36*
X134685200Y-37735000D02*
X133183200Y-37735000D01*
X133183200Y-36433000D01*
X134685200Y-36433000D01*
X134685200Y-37735000D01*
X134685200Y-37735000D01*
G37*
G36*
X132485200Y-37735000D02*
X130983200Y-37735000D01*
X130983200Y-36433000D01*
X132485200Y-36433000D01*
X132485200Y-37735000D01*
X132485200Y-37735000D01*
G37*
G36*
X136000499Y-36512445D02*
X136037993Y-36523819D01*
X136072557Y-36542294D01*
X136102847Y-36567153D01*
X136127706Y-36597443D01*
X136146181Y-36632007D01*
X136157555Y-36669501D01*
X136162000Y-36714638D01*
X136162000Y-37453362D01*
X136157555Y-37498499D01*
X136146181Y-37535993D01*
X136127706Y-37570557D01*
X136102847Y-37600847D01*
X136072557Y-37625706D01*
X136037993Y-37644181D01*
X136000499Y-37655555D01*
X135955362Y-37660000D01*
X135316638Y-37660000D01*
X135271501Y-37655555D01*
X135234007Y-37644181D01*
X135199443Y-37625706D01*
X135169153Y-37600847D01*
X135144294Y-37570557D01*
X135125819Y-37535993D01*
X135114445Y-37498499D01*
X135110000Y-37453362D01*
X135110000Y-36714638D01*
X135114445Y-36669501D01*
X135125819Y-36632007D01*
X135144294Y-36597443D01*
X135169153Y-36567153D01*
X135199443Y-36542294D01*
X135234007Y-36523819D01*
X135271501Y-36512445D01*
X135316638Y-36508000D01*
X135955362Y-36508000D01*
X136000499Y-36512445D01*
X136000499Y-36512445D01*
G37*
G36*
X162670443Y-34665519D02*
X162736627Y-34672037D01*
X162849853Y-34706384D01*
X162906467Y-34723557D01*
X163012063Y-34780000D01*
X163062991Y-34807222D01*
X163071608Y-34814294D01*
X163200186Y-34919814D01*
X163255026Y-34986638D01*
X163312778Y-35057009D01*
X163312779Y-35057011D01*
X163396443Y-35213533D01*
X163396443Y-35213534D01*
X163447963Y-35383373D01*
X163465359Y-35560000D01*
X163447963Y-35736627D01*
X163420565Y-35826947D01*
X163396443Y-35906467D01*
X163322348Y-36045087D01*
X163312778Y-36062991D01*
X163283448Y-36098729D01*
X163200186Y-36200186D01*
X163098729Y-36283448D01*
X163062991Y-36312778D01*
X163062989Y-36312779D01*
X162906467Y-36396443D01*
X162849853Y-36413616D01*
X162736627Y-36447963D01*
X162670442Y-36454482D01*
X162604260Y-36461000D01*
X162515740Y-36461000D01*
X162449558Y-36454482D01*
X162383373Y-36447963D01*
X162270147Y-36413616D01*
X162213533Y-36396443D01*
X162057011Y-36312779D01*
X162057009Y-36312778D01*
X162021271Y-36283448D01*
X161919814Y-36200186D01*
X161836552Y-36098729D01*
X161807222Y-36062991D01*
X161797652Y-36045087D01*
X161723557Y-35906467D01*
X161699435Y-35826947D01*
X161672037Y-35736627D01*
X161654641Y-35560000D01*
X161672037Y-35383373D01*
X161723557Y-35213534D01*
X161723557Y-35213533D01*
X161807221Y-35057011D01*
X161807222Y-35057009D01*
X161864974Y-34986638D01*
X161919814Y-34919814D01*
X162048392Y-34814294D01*
X162057009Y-34807222D01*
X162107937Y-34780000D01*
X162213533Y-34723557D01*
X162270147Y-34706384D01*
X162383373Y-34672037D01*
X162449557Y-34665519D01*
X162515740Y-34659000D01*
X162604260Y-34659000D01*
X162670443Y-34665519D01*
X162670443Y-34665519D01*
G37*
G36*
X165210443Y-34665519D02*
X165276627Y-34672037D01*
X165389853Y-34706384D01*
X165446467Y-34723557D01*
X165552063Y-34780000D01*
X165602991Y-34807222D01*
X165611608Y-34814294D01*
X165740186Y-34919814D01*
X165795026Y-34986638D01*
X165852778Y-35057009D01*
X165852779Y-35057011D01*
X165936443Y-35213533D01*
X165936443Y-35213534D01*
X165987963Y-35383373D01*
X166005359Y-35560000D01*
X165987963Y-35736627D01*
X165960565Y-35826947D01*
X165936443Y-35906467D01*
X165862348Y-36045087D01*
X165852778Y-36062991D01*
X165823448Y-36098729D01*
X165740186Y-36200186D01*
X165638729Y-36283448D01*
X165602991Y-36312778D01*
X165602989Y-36312779D01*
X165446467Y-36396443D01*
X165389853Y-36413616D01*
X165276627Y-36447963D01*
X165210442Y-36454482D01*
X165144260Y-36461000D01*
X165055740Y-36461000D01*
X164989558Y-36454482D01*
X164923373Y-36447963D01*
X164810147Y-36413616D01*
X164753533Y-36396443D01*
X164597011Y-36312779D01*
X164597009Y-36312778D01*
X164561271Y-36283448D01*
X164459814Y-36200186D01*
X164376552Y-36098729D01*
X164347222Y-36062991D01*
X164337652Y-36045087D01*
X164263557Y-35906467D01*
X164239435Y-35826947D01*
X164212037Y-35736627D01*
X164194641Y-35560000D01*
X164212037Y-35383373D01*
X164263557Y-35213534D01*
X164263557Y-35213533D01*
X164347221Y-35057011D01*
X164347222Y-35057009D01*
X164404974Y-34986638D01*
X164459814Y-34919814D01*
X164588392Y-34814294D01*
X164597009Y-34807222D01*
X164647937Y-34780000D01*
X164753533Y-34723557D01*
X164810147Y-34706384D01*
X164923373Y-34672037D01*
X164989557Y-34665519D01*
X165055740Y-34659000D01*
X165144260Y-34659000D01*
X165210443Y-34665519D01*
X165210443Y-34665519D01*
G37*
G36*
X109330443Y-34665519D02*
X109396627Y-34672037D01*
X109509853Y-34706384D01*
X109566467Y-34723557D01*
X109672063Y-34780000D01*
X109722991Y-34807222D01*
X109731608Y-34814294D01*
X109860186Y-34919814D01*
X109915026Y-34986638D01*
X109972778Y-35057009D01*
X109972779Y-35057011D01*
X110056443Y-35213533D01*
X110056443Y-35213534D01*
X110107963Y-35383373D01*
X110125359Y-35560000D01*
X110107963Y-35736627D01*
X110080565Y-35826947D01*
X110056443Y-35906467D01*
X109982348Y-36045087D01*
X109972778Y-36062991D01*
X109943448Y-36098729D01*
X109860186Y-36200186D01*
X109758729Y-36283448D01*
X109722991Y-36312778D01*
X109722989Y-36312779D01*
X109566467Y-36396443D01*
X109509853Y-36413616D01*
X109396627Y-36447963D01*
X109330442Y-36454482D01*
X109264260Y-36461000D01*
X109175740Y-36461000D01*
X109109558Y-36454482D01*
X109043373Y-36447963D01*
X108930147Y-36413616D01*
X108873533Y-36396443D01*
X108717011Y-36312779D01*
X108717009Y-36312778D01*
X108681271Y-36283448D01*
X108579814Y-36200186D01*
X108496552Y-36098729D01*
X108467222Y-36062991D01*
X108457652Y-36045087D01*
X108383557Y-35906467D01*
X108359435Y-35826947D01*
X108332037Y-35736627D01*
X108314641Y-35560000D01*
X108332037Y-35383373D01*
X108383557Y-35213534D01*
X108383557Y-35213533D01*
X108467221Y-35057011D01*
X108467222Y-35057009D01*
X108524974Y-34986638D01*
X108579814Y-34919814D01*
X108708392Y-34814294D01*
X108717009Y-34807222D01*
X108767937Y-34780000D01*
X108873533Y-34723557D01*
X108930147Y-34706384D01*
X109043373Y-34672037D01*
X109109557Y-34665519D01*
X109175740Y-34659000D01*
X109264260Y-34659000D01*
X109330443Y-34665519D01*
X109330443Y-34665519D01*
G37*
G36*
X106790443Y-34665519D02*
X106856627Y-34672037D01*
X106969853Y-34706384D01*
X107026467Y-34723557D01*
X107132063Y-34780000D01*
X107182991Y-34807222D01*
X107191608Y-34814294D01*
X107320186Y-34919814D01*
X107375026Y-34986638D01*
X107432778Y-35057009D01*
X107432779Y-35057011D01*
X107516443Y-35213533D01*
X107516443Y-35213534D01*
X107567963Y-35383373D01*
X107585359Y-35560000D01*
X107567963Y-35736627D01*
X107540565Y-35826947D01*
X107516443Y-35906467D01*
X107442348Y-36045087D01*
X107432778Y-36062991D01*
X107403448Y-36098729D01*
X107320186Y-36200186D01*
X107218729Y-36283448D01*
X107182991Y-36312778D01*
X107182989Y-36312779D01*
X107026467Y-36396443D01*
X106969853Y-36413616D01*
X106856627Y-36447963D01*
X106790442Y-36454482D01*
X106724260Y-36461000D01*
X106635740Y-36461000D01*
X106569558Y-36454482D01*
X106503373Y-36447963D01*
X106390147Y-36413616D01*
X106333533Y-36396443D01*
X106177011Y-36312779D01*
X106177009Y-36312778D01*
X106141271Y-36283448D01*
X106039814Y-36200186D01*
X105956552Y-36098729D01*
X105927222Y-36062991D01*
X105917652Y-36045087D01*
X105843557Y-35906467D01*
X105819435Y-35826947D01*
X105792037Y-35736627D01*
X105774641Y-35560000D01*
X105792037Y-35383373D01*
X105843557Y-35213534D01*
X105843557Y-35213533D01*
X105927221Y-35057011D01*
X105927222Y-35057009D01*
X105984974Y-34986638D01*
X106039814Y-34919814D01*
X106168392Y-34814294D01*
X106177009Y-34807222D01*
X106227937Y-34780000D01*
X106333533Y-34723557D01*
X106390147Y-34706384D01*
X106503373Y-34672037D01*
X106569557Y-34665519D01*
X106635740Y-34659000D01*
X106724260Y-34659000D01*
X106790443Y-34665519D01*
X106790443Y-34665519D01*
G37*
G36*
X134131499Y-34784445D02*
X134168993Y-34795819D01*
X134203557Y-34814294D01*
X134233847Y-34839153D01*
X134258706Y-34869443D01*
X134277181Y-34904007D01*
X134288555Y-34941501D01*
X134293000Y-34986638D01*
X134293000Y-35625362D01*
X134288555Y-35670499D01*
X134277181Y-35707993D01*
X134258706Y-35742557D01*
X134233847Y-35772847D01*
X134203557Y-35797706D01*
X134168993Y-35816181D01*
X134131499Y-35827555D01*
X134086362Y-35832000D01*
X133347638Y-35832000D01*
X133302501Y-35827555D01*
X133265007Y-35816181D01*
X133230443Y-35797706D01*
X133200153Y-35772847D01*
X133175294Y-35742557D01*
X133156819Y-35707993D01*
X133145445Y-35670499D01*
X133141000Y-35625362D01*
X133141000Y-34986638D01*
X133145445Y-34941501D01*
X133156819Y-34904007D01*
X133175294Y-34869443D01*
X133200153Y-34839153D01*
X133230443Y-34814294D01*
X133265007Y-34795819D01*
X133302501Y-34784445D01*
X133347638Y-34780000D01*
X134086362Y-34780000D01*
X134131499Y-34784445D01*
X134131499Y-34784445D01*
G37*
G36*
X132381499Y-34784445D02*
X132418993Y-34795819D01*
X132453557Y-34814294D01*
X132483847Y-34839153D01*
X132508706Y-34869443D01*
X132527181Y-34904007D01*
X132538555Y-34941501D01*
X132543000Y-34986638D01*
X132543000Y-35625362D01*
X132538555Y-35670499D01*
X132527181Y-35707993D01*
X132508706Y-35742557D01*
X132483847Y-35772847D01*
X132453557Y-35797706D01*
X132418993Y-35816181D01*
X132381499Y-35827555D01*
X132336362Y-35832000D01*
X131597638Y-35832000D01*
X131552501Y-35827555D01*
X131515007Y-35816181D01*
X131480443Y-35797706D01*
X131450153Y-35772847D01*
X131425294Y-35742557D01*
X131406819Y-35707993D01*
X131395445Y-35670499D01*
X131391000Y-35625362D01*
X131391000Y-34986638D01*
X131395445Y-34941501D01*
X131406819Y-34904007D01*
X131425294Y-34869443D01*
X131450153Y-34839153D01*
X131480443Y-34814294D01*
X131515007Y-34795819D01*
X131552501Y-34784445D01*
X131597638Y-34780000D01*
X132336362Y-34780000D01*
X132381499Y-34784445D01*
X132381499Y-34784445D01*
G37*
G36*
X119511552Y-33358331D02*
X119593625Y-33392327D01*
X119593626Y-33392328D01*
X119593629Y-33392329D01*
X119667496Y-33441686D01*
X119667500Y-33441689D01*
X119730311Y-33504500D01*
X119730313Y-33504503D01*
X119730314Y-33504504D01*
X119779671Y-33578371D01*
X119779672Y-33578374D01*
X119779673Y-33578375D01*
X119813669Y-33660448D01*
X119831000Y-33747579D01*
X119831000Y-33836421D01*
X119813669Y-33923552D01*
X119779673Y-34005625D01*
X119779671Y-34005629D01*
X119730314Y-34079496D01*
X119730311Y-34079500D01*
X119667500Y-34142311D01*
X119667497Y-34142313D01*
X119667496Y-34142314D01*
X119593629Y-34191671D01*
X119593626Y-34191672D01*
X119593625Y-34191673D01*
X119511552Y-34225669D01*
X119424421Y-34243000D01*
X119335579Y-34243000D01*
X119248448Y-34225669D01*
X119166375Y-34191673D01*
X119166374Y-34191672D01*
X119166371Y-34191671D01*
X119092504Y-34142314D01*
X119092503Y-34142313D01*
X119092500Y-34142311D01*
X119029689Y-34079500D01*
X119029686Y-34079496D01*
X118980329Y-34005629D01*
X118980327Y-34005625D01*
X118946331Y-33923552D01*
X118929000Y-33836421D01*
X118929000Y-33747579D01*
X118946331Y-33660448D01*
X118980327Y-33578375D01*
X118980328Y-33578374D01*
X118980329Y-33578371D01*
X119029686Y-33504504D01*
X119029687Y-33504503D01*
X119029689Y-33504500D01*
X119092500Y-33441689D01*
X119092504Y-33441686D01*
X119166371Y-33392329D01*
X119166374Y-33392328D01*
X119166375Y-33392327D01*
X119248448Y-33358331D01*
X119335579Y-33341000D01*
X119424421Y-33341000D01*
X119511552Y-33358331D01*
X119511552Y-33358331D01*
G37*
G36*
X115701552Y-33358331D02*
X115783625Y-33392327D01*
X115783626Y-33392328D01*
X115783629Y-33392329D01*
X115857496Y-33441686D01*
X115857500Y-33441689D01*
X115920311Y-33504500D01*
X115920313Y-33504503D01*
X115920314Y-33504504D01*
X115969671Y-33578371D01*
X115969672Y-33578374D01*
X115969673Y-33578375D01*
X116003669Y-33660448D01*
X116021000Y-33747579D01*
X116021000Y-33836421D01*
X116003669Y-33923552D01*
X115969673Y-34005625D01*
X115969671Y-34005629D01*
X115920314Y-34079496D01*
X115920311Y-34079500D01*
X115857500Y-34142311D01*
X115857497Y-34142313D01*
X115857496Y-34142314D01*
X115783629Y-34191671D01*
X115783626Y-34191672D01*
X115783625Y-34191673D01*
X115701552Y-34225669D01*
X115614421Y-34243000D01*
X115525579Y-34243000D01*
X115438448Y-34225669D01*
X115356375Y-34191673D01*
X115356374Y-34191672D01*
X115356371Y-34191671D01*
X115282504Y-34142314D01*
X115282503Y-34142313D01*
X115282500Y-34142311D01*
X115219689Y-34079500D01*
X115219686Y-34079496D01*
X115170329Y-34005629D01*
X115170327Y-34005625D01*
X115136331Y-33923552D01*
X115119000Y-33836421D01*
X115119000Y-33747579D01*
X115136331Y-33660448D01*
X115170327Y-33578375D01*
X115170328Y-33578374D01*
X115170329Y-33578371D01*
X115219686Y-33504504D01*
X115219687Y-33504503D01*
X115219689Y-33504500D01*
X115282500Y-33441689D01*
X115282504Y-33441686D01*
X115356371Y-33392329D01*
X115356374Y-33392328D01*
X115356375Y-33392327D01*
X115438448Y-33358331D01*
X115525579Y-33341000D01*
X115614421Y-33341000D01*
X115701552Y-33358331D01*
X115701552Y-33358331D01*
G37*
G36*
X116971552Y-33358331D02*
X117053625Y-33392327D01*
X117053626Y-33392328D01*
X117053629Y-33392329D01*
X117127496Y-33441686D01*
X117127500Y-33441689D01*
X117190311Y-33504500D01*
X117190313Y-33504503D01*
X117190314Y-33504504D01*
X117239671Y-33578371D01*
X117239672Y-33578374D01*
X117239673Y-33578375D01*
X117273669Y-33660448D01*
X117291000Y-33747579D01*
X117291000Y-33836421D01*
X117273669Y-33923552D01*
X117239673Y-34005625D01*
X117239671Y-34005629D01*
X117190314Y-34079496D01*
X117190311Y-34079500D01*
X117127500Y-34142311D01*
X117127497Y-34142313D01*
X117127496Y-34142314D01*
X117053629Y-34191671D01*
X117053626Y-34191672D01*
X117053625Y-34191673D01*
X116971552Y-34225669D01*
X116884421Y-34243000D01*
X116795579Y-34243000D01*
X116708448Y-34225669D01*
X116626375Y-34191673D01*
X116626374Y-34191672D01*
X116626371Y-34191671D01*
X116552504Y-34142314D01*
X116552503Y-34142313D01*
X116552500Y-34142311D01*
X116489689Y-34079500D01*
X116489686Y-34079496D01*
X116440329Y-34005629D01*
X116440327Y-34005625D01*
X116406331Y-33923552D01*
X116389000Y-33836421D01*
X116389000Y-33747579D01*
X116406331Y-33660448D01*
X116440327Y-33578375D01*
X116440328Y-33578374D01*
X116440329Y-33578371D01*
X116489686Y-33504504D01*
X116489687Y-33504503D01*
X116489689Y-33504500D01*
X116552500Y-33441689D01*
X116552504Y-33441686D01*
X116626371Y-33392329D01*
X116626374Y-33392328D01*
X116626375Y-33392327D01*
X116708448Y-33358331D01*
X116795579Y-33341000D01*
X116884421Y-33341000D01*
X116971552Y-33358331D01*
X116971552Y-33358331D01*
G37*
G36*
X120781552Y-33358331D02*
X120863625Y-33392327D01*
X120863626Y-33392328D01*
X120863629Y-33392329D01*
X120937496Y-33441686D01*
X120937500Y-33441689D01*
X121000311Y-33504500D01*
X121000313Y-33504503D01*
X121000314Y-33504504D01*
X121049671Y-33578371D01*
X121049672Y-33578374D01*
X121049673Y-33578375D01*
X121083669Y-33660448D01*
X121101000Y-33747579D01*
X121101000Y-33836421D01*
X121083669Y-33923552D01*
X121049673Y-34005625D01*
X121049671Y-34005629D01*
X121000314Y-34079496D01*
X121000311Y-34079500D01*
X120937500Y-34142311D01*
X120937497Y-34142313D01*
X120937496Y-34142314D01*
X120863629Y-34191671D01*
X120863626Y-34191672D01*
X120863625Y-34191673D01*
X120781552Y-34225669D01*
X120694421Y-34243000D01*
X120605579Y-34243000D01*
X120518448Y-34225669D01*
X120436375Y-34191673D01*
X120436374Y-34191672D01*
X120436371Y-34191671D01*
X120362504Y-34142314D01*
X120362503Y-34142313D01*
X120362500Y-34142311D01*
X120299689Y-34079500D01*
X120299686Y-34079496D01*
X120250329Y-34005629D01*
X120250327Y-34005625D01*
X120216331Y-33923552D01*
X120199000Y-33836421D01*
X120199000Y-33747579D01*
X120216331Y-33660448D01*
X120250327Y-33578375D01*
X120250328Y-33578374D01*
X120250329Y-33578371D01*
X120299686Y-33504504D01*
X120299687Y-33504503D01*
X120299689Y-33504500D01*
X120362500Y-33441689D01*
X120362504Y-33441686D01*
X120436371Y-33392329D01*
X120436374Y-33392328D01*
X120436375Y-33392327D01*
X120518448Y-33358331D01*
X120605579Y-33341000D01*
X120694421Y-33341000D01*
X120781552Y-33358331D01*
X120781552Y-33358331D01*
G37*
G36*
X118241552Y-33358331D02*
X118323625Y-33392327D01*
X118323626Y-33392328D01*
X118323629Y-33392329D01*
X118397496Y-33441686D01*
X118397500Y-33441689D01*
X118460311Y-33504500D01*
X118460313Y-33504503D01*
X118460314Y-33504504D01*
X118509671Y-33578371D01*
X118509672Y-33578374D01*
X118509673Y-33578375D01*
X118543669Y-33660448D01*
X118561000Y-33747579D01*
X118561000Y-33836421D01*
X118543669Y-33923552D01*
X118509673Y-34005625D01*
X118509671Y-34005629D01*
X118460314Y-34079496D01*
X118460311Y-34079500D01*
X118397500Y-34142311D01*
X118397497Y-34142313D01*
X118397496Y-34142314D01*
X118323629Y-34191671D01*
X118323626Y-34191672D01*
X118323625Y-34191673D01*
X118241552Y-34225669D01*
X118154421Y-34243000D01*
X118065579Y-34243000D01*
X117978448Y-34225669D01*
X117896375Y-34191673D01*
X117896374Y-34191672D01*
X117896371Y-34191671D01*
X117822504Y-34142314D01*
X117822503Y-34142313D01*
X117822500Y-34142311D01*
X117759689Y-34079500D01*
X117759686Y-34079496D01*
X117710329Y-34005629D01*
X117710327Y-34005625D01*
X117676331Y-33923552D01*
X117659000Y-33836421D01*
X117659000Y-33747579D01*
X117676331Y-33660448D01*
X117710327Y-33578375D01*
X117710328Y-33578374D01*
X117710329Y-33578371D01*
X117759686Y-33504504D01*
X117759687Y-33504503D01*
X117759689Y-33504500D01*
X117822500Y-33441689D01*
X117822504Y-33441686D01*
X117896371Y-33392329D01*
X117896374Y-33392328D01*
X117896375Y-33392327D01*
X117978448Y-33358331D01*
X118065579Y-33341000D01*
X118154421Y-33341000D01*
X118241552Y-33358331D01*
X118241552Y-33358331D01*
G37*
G36*
X149970443Y-32125519D02*
X150036627Y-32132037D01*
X150149853Y-32166384D01*
X150206467Y-32183557D01*
X150345087Y-32257652D01*
X150362991Y-32267222D01*
X150398729Y-32296552D01*
X150500186Y-32379814D01*
X150580418Y-32477579D01*
X150612778Y-32517009D01*
X150612779Y-32517011D01*
X150696443Y-32673533D01*
X150696443Y-32673534D01*
X150747963Y-32843373D01*
X150765359Y-33020000D01*
X150747963Y-33196627D01*
X150713616Y-33309853D01*
X150696443Y-33366467D01*
X150682620Y-33392327D01*
X150612778Y-33522991D01*
X150583448Y-33558729D01*
X150500186Y-33660186D01*
X150398729Y-33743448D01*
X150362991Y-33772778D01*
X150362989Y-33772779D01*
X150206467Y-33856443D01*
X150149853Y-33873616D01*
X150036627Y-33907963D01*
X149970443Y-33914481D01*
X149904260Y-33921000D01*
X149815740Y-33921000D01*
X149749557Y-33914481D01*
X149683373Y-33907963D01*
X149570147Y-33873616D01*
X149513533Y-33856443D01*
X149357011Y-33772779D01*
X149357009Y-33772778D01*
X149321271Y-33743448D01*
X149219814Y-33660186D01*
X149136552Y-33558729D01*
X149107222Y-33522991D01*
X149037380Y-33392327D01*
X149023557Y-33366467D01*
X149006384Y-33309853D01*
X148972037Y-33196627D01*
X148954641Y-33020000D01*
X148972037Y-32843373D01*
X149023557Y-32673534D01*
X149023557Y-32673533D01*
X149107221Y-32517011D01*
X149107222Y-32517009D01*
X149139582Y-32477579D01*
X149219814Y-32379814D01*
X149321271Y-32296552D01*
X149357009Y-32267222D01*
X149374913Y-32257652D01*
X149513533Y-32183557D01*
X149570147Y-32166384D01*
X149683373Y-32132037D01*
X149749557Y-32125519D01*
X149815740Y-32119000D01*
X149904260Y-32119000D01*
X149970443Y-32125519D01*
X149970443Y-32125519D01*
G37*
G36*
X147430443Y-32125519D02*
X147496627Y-32132037D01*
X147609853Y-32166384D01*
X147666467Y-32183557D01*
X147805087Y-32257652D01*
X147822991Y-32267222D01*
X147858729Y-32296552D01*
X147960186Y-32379814D01*
X148040418Y-32477579D01*
X148072778Y-32517009D01*
X148072779Y-32517011D01*
X148156443Y-32673533D01*
X148156443Y-32673534D01*
X148207963Y-32843373D01*
X148225359Y-33020000D01*
X148207963Y-33196627D01*
X148173616Y-33309853D01*
X148156443Y-33366467D01*
X148142620Y-33392327D01*
X148072778Y-33522991D01*
X148043448Y-33558729D01*
X147960186Y-33660186D01*
X147858729Y-33743448D01*
X147822991Y-33772778D01*
X147822989Y-33772779D01*
X147666467Y-33856443D01*
X147609853Y-33873616D01*
X147496627Y-33907963D01*
X147430443Y-33914481D01*
X147364260Y-33921000D01*
X147275740Y-33921000D01*
X147209557Y-33914481D01*
X147143373Y-33907963D01*
X147030147Y-33873616D01*
X146973533Y-33856443D01*
X146817011Y-33772779D01*
X146817009Y-33772778D01*
X146781271Y-33743448D01*
X146679814Y-33660186D01*
X146596552Y-33558729D01*
X146567222Y-33522991D01*
X146497380Y-33392327D01*
X146483557Y-33366467D01*
X146466384Y-33309853D01*
X146432037Y-33196627D01*
X146414641Y-33020000D01*
X146432037Y-32843373D01*
X146483557Y-32673534D01*
X146483557Y-32673533D01*
X146567221Y-32517011D01*
X146567222Y-32517009D01*
X146599582Y-32477579D01*
X146679814Y-32379814D01*
X146781271Y-32296552D01*
X146817009Y-32267222D01*
X146834913Y-32257652D01*
X146973533Y-32183557D01*
X147030147Y-32166384D01*
X147143373Y-32132037D01*
X147209557Y-32125519D01*
X147275740Y-32119000D01*
X147364260Y-32119000D01*
X147430443Y-32125519D01*
X147430443Y-32125519D01*
G37*
G36*
X162670443Y-32125519D02*
X162736627Y-32132037D01*
X162849853Y-32166384D01*
X162906467Y-32183557D01*
X163045087Y-32257652D01*
X163062991Y-32267222D01*
X163098729Y-32296552D01*
X163200186Y-32379814D01*
X163280418Y-32477579D01*
X163312778Y-32517009D01*
X163312779Y-32517011D01*
X163396443Y-32673533D01*
X163396443Y-32673534D01*
X163447963Y-32843373D01*
X163465359Y-33020000D01*
X163447963Y-33196627D01*
X163413616Y-33309853D01*
X163396443Y-33366467D01*
X163382620Y-33392327D01*
X163312778Y-33522991D01*
X163283448Y-33558729D01*
X163200186Y-33660186D01*
X163098729Y-33743448D01*
X163062991Y-33772778D01*
X163062989Y-33772779D01*
X162906467Y-33856443D01*
X162849853Y-33873616D01*
X162736627Y-33907963D01*
X162670443Y-33914481D01*
X162604260Y-33921000D01*
X162515740Y-33921000D01*
X162449557Y-33914481D01*
X162383373Y-33907963D01*
X162270147Y-33873616D01*
X162213533Y-33856443D01*
X162057011Y-33772779D01*
X162057009Y-33772778D01*
X162021271Y-33743448D01*
X161919814Y-33660186D01*
X161836552Y-33558729D01*
X161807222Y-33522991D01*
X161737380Y-33392327D01*
X161723557Y-33366467D01*
X161706384Y-33309853D01*
X161672037Y-33196627D01*
X161654641Y-33020000D01*
X161672037Y-32843373D01*
X161723557Y-32673534D01*
X161723557Y-32673533D01*
X161807221Y-32517011D01*
X161807222Y-32517009D01*
X161839582Y-32477579D01*
X161919814Y-32379814D01*
X162021271Y-32296552D01*
X162057009Y-32267222D01*
X162074913Y-32257652D01*
X162213533Y-32183557D01*
X162270147Y-32166384D01*
X162383373Y-32132037D01*
X162449557Y-32125519D01*
X162515740Y-32119000D01*
X162604260Y-32119000D01*
X162670443Y-32125519D01*
X162670443Y-32125519D01*
G37*
G36*
X165210443Y-32125519D02*
X165276627Y-32132037D01*
X165389853Y-32166384D01*
X165446467Y-32183557D01*
X165585087Y-32257652D01*
X165602991Y-32267222D01*
X165638729Y-32296552D01*
X165740186Y-32379814D01*
X165820418Y-32477579D01*
X165852778Y-32517009D01*
X165852779Y-32517011D01*
X165936443Y-32673533D01*
X165936443Y-32673534D01*
X165987963Y-32843373D01*
X166005359Y-33020000D01*
X165987963Y-33196627D01*
X165953616Y-33309853D01*
X165936443Y-33366467D01*
X165922620Y-33392327D01*
X165852778Y-33522991D01*
X165823448Y-33558729D01*
X165740186Y-33660186D01*
X165638729Y-33743448D01*
X165602991Y-33772778D01*
X165602989Y-33772779D01*
X165446467Y-33856443D01*
X165389853Y-33873616D01*
X165276627Y-33907963D01*
X165210443Y-33914481D01*
X165144260Y-33921000D01*
X165055740Y-33921000D01*
X164989557Y-33914481D01*
X164923373Y-33907963D01*
X164810147Y-33873616D01*
X164753533Y-33856443D01*
X164597011Y-33772779D01*
X164597009Y-33772778D01*
X164561271Y-33743448D01*
X164459814Y-33660186D01*
X164376552Y-33558729D01*
X164347222Y-33522991D01*
X164277380Y-33392327D01*
X164263557Y-33366467D01*
X164246384Y-33309853D01*
X164212037Y-33196627D01*
X164194641Y-33020000D01*
X164212037Y-32843373D01*
X164263557Y-32673534D01*
X164263557Y-32673533D01*
X164347221Y-32517011D01*
X164347222Y-32517009D01*
X164379582Y-32477579D01*
X164459814Y-32379814D01*
X164561271Y-32296552D01*
X164597009Y-32267222D01*
X164614913Y-32257652D01*
X164753533Y-32183557D01*
X164810147Y-32166384D01*
X164923373Y-32132037D01*
X164989557Y-32125519D01*
X165055740Y-32119000D01*
X165144260Y-32119000D01*
X165210443Y-32125519D01*
X165210443Y-32125519D01*
G37*
G36*
X132190443Y-32125519D02*
X132256627Y-32132037D01*
X132369853Y-32166384D01*
X132426467Y-32183557D01*
X132565087Y-32257652D01*
X132582991Y-32267222D01*
X132618729Y-32296552D01*
X132720186Y-32379814D01*
X132800418Y-32477579D01*
X132832778Y-32517009D01*
X132832779Y-32517011D01*
X132916443Y-32673533D01*
X132916443Y-32673534D01*
X132967963Y-32843373D01*
X132985359Y-33020000D01*
X132967963Y-33196627D01*
X132933616Y-33309853D01*
X132916443Y-33366467D01*
X132902620Y-33392327D01*
X132832778Y-33522991D01*
X132803448Y-33558729D01*
X132720186Y-33660186D01*
X132618729Y-33743448D01*
X132582991Y-33772778D01*
X132582989Y-33772779D01*
X132426467Y-33856443D01*
X132369853Y-33873616D01*
X132256627Y-33907963D01*
X132190443Y-33914481D01*
X132124260Y-33921000D01*
X132035740Y-33921000D01*
X131969557Y-33914481D01*
X131903373Y-33907963D01*
X131790147Y-33873616D01*
X131733533Y-33856443D01*
X131577011Y-33772779D01*
X131577009Y-33772778D01*
X131541271Y-33743448D01*
X131439814Y-33660186D01*
X131356552Y-33558729D01*
X131327222Y-33522991D01*
X131257380Y-33392327D01*
X131243557Y-33366467D01*
X131226384Y-33309853D01*
X131192037Y-33196627D01*
X131174641Y-33020000D01*
X131192037Y-32843373D01*
X131243557Y-32673534D01*
X131243557Y-32673533D01*
X131327221Y-32517011D01*
X131327222Y-32517009D01*
X131359582Y-32477579D01*
X131439814Y-32379814D01*
X131541271Y-32296552D01*
X131577009Y-32267222D01*
X131594913Y-32257652D01*
X131733533Y-32183557D01*
X131790147Y-32166384D01*
X131903373Y-32132037D01*
X131969557Y-32125519D01*
X132035740Y-32119000D01*
X132124260Y-32119000D01*
X132190443Y-32125519D01*
X132190443Y-32125519D01*
G37*
G36*
X129650443Y-32125519D02*
X129716627Y-32132037D01*
X129829853Y-32166384D01*
X129886467Y-32183557D01*
X130025087Y-32257652D01*
X130042991Y-32267222D01*
X130078729Y-32296552D01*
X130180186Y-32379814D01*
X130260418Y-32477579D01*
X130292778Y-32517009D01*
X130292779Y-32517011D01*
X130376443Y-32673533D01*
X130376443Y-32673534D01*
X130427963Y-32843373D01*
X130445359Y-33020000D01*
X130427963Y-33196627D01*
X130393616Y-33309853D01*
X130376443Y-33366467D01*
X130362620Y-33392327D01*
X130292778Y-33522991D01*
X130263448Y-33558729D01*
X130180186Y-33660186D01*
X130078729Y-33743448D01*
X130042991Y-33772778D01*
X130042989Y-33772779D01*
X129886467Y-33856443D01*
X129829853Y-33873616D01*
X129716627Y-33907963D01*
X129650443Y-33914481D01*
X129584260Y-33921000D01*
X129495740Y-33921000D01*
X129429557Y-33914481D01*
X129363373Y-33907963D01*
X129250147Y-33873616D01*
X129193533Y-33856443D01*
X129037011Y-33772779D01*
X129037009Y-33772778D01*
X129001271Y-33743448D01*
X128899814Y-33660186D01*
X128816552Y-33558729D01*
X128787222Y-33522991D01*
X128717380Y-33392327D01*
X128703557Y-33366467D01*
X128686384Y-33309853D01*
X128652037Y-33196627D01*
X128634641Y-33020000D01*
X128652037Y-32843373D01*
X128703557Y-32673534D01*
X128703557Y-32673533D01*
X128787221Y-32517011D01*
X128787222Y-32517009D01*
X128819582Y-32477579D01*
X128899814Y-32379814D01*
X129001271Y-32296552D01*
X129037009Y-32267222D01*
X129054913Y-32257652D01*
X129193533Y-32183557D01*
X129250147Y-32166384D01*
X129363373Y-32132037D01*
X129429557Y-32125519D01*
X129495740Y-32119000D01*
X129584260Y-32119000D01*
X129650443Y-32125519D01*
X129650443Y-32125519D01*
G37*
G36*
X106790443Y-32125519D02*
X106856627Y-32132037D01*
X106969853Y-32166384D01*
X107026467Y-32183557D01*
X107165087Y-32257652D01*
X107182991Y-32267222D01*
X107218729Y-32296552D01*
X107320186Y-32379814D01*
X107400418Y-32477579D01*
X107432778Y-32517009D01*
X107432779Y-32517011D01*
X107516443Y-32673533D01*
X107516443Y-32673534D01*
X107567963Y-32843373D01*
X107585359Y-33020000D01*
X107567963Y-33196627D01*
X107533616Y-33309853D01*
X107516443Y-33366467D01*
X107502620Y-33392327D01*
X107432778Y-33522991D01*
X107403448Y-33558729D01*
X107320186Y-33660186D01*
X107218729Y-33743448D01*
X107182991Y-33772778D01*
X107182989Y-33772779D01*
X107026467Y-33856443D01*
X106969853Y-33873616D01*
X106856627Y-33907963D01*
X106790443Y-33914481D01*
X106724260Y-33921000D01*
X106635740Y-33921000D01*
X106569557Y-33914481D01*
X106503373Y-33907963D01*
X106390147Y-33873616D01*
X106333533Y-33856443D01*
X106177011Y-33772779D01*
X106177009Y-33772778D01*
X106141271Y-33743448D01*
X106039814Y-33660186D01*
X105956552Y-33558729D01*
X105927222Y-33522991D01*
X105857380Y-33392327D01*
X105843557Y-33366467D01*
X105826384Y-33309853D01*
X105792037Y-33196627D01*
X105774641Y-33020000D01*
X105792037Y-32843373D01*
X105843557Y-32673534D01*
X105843557Y-32673533D01*
X105927221Y-32517011D01*
X105927222Y-32517009D01*
X105959582Y-32477579D01*
X106039814Y-32379814D01*
X106141271Y-32296552D01*
X106177009Y-32267222D01*
X106194913Y-32257652D01*
X106333533Y-32183557D01*
X106390147Y-32166384D01*
X106503373Y-32132037D01*
X106569557Y-32125519D01*
X106635740Y-32119000D01*
X106724260Y-32119000D01*
X106790443Y-32125519D01*
X106790443Y-32125519D01*
G37*
G36*
X109330443Y-32125519D02*
X109396627Y-32132037D01*
X109509853Y-32166384D01*
X109566467Y-32183557D01*
X109705087Y-32257652D01*
X109722991Y-32267222D01*
X109758729Y-32296552D01*
X109860186Y-32379814D01*
X109940418Y-32477579D01*
X109972778Y-32517009D01*
X109972779Y-32517011D01*
X110056443Y-32673533D01*
X110056443Y-32673534D01*
X110107963Y-32843373D01*
X110125359Y-33020000D01*
X110107963Y-33196627D01*
X110073616Y-33309853D01*
X110056443Y-33366467D01*
X110042620Y-33392327D01*
X109972778Y-33522991D01*
X109943448Y-33558729D01*
X109860186Y-33660186D01*
X109758729Y-33743448D01*
X109722991Y-33772778D01*
X109722989Y-33772779D01*
X109566467Y-33856443D01*
X109509853Y-33873616D01*
X109396627Y-33907963D01*
X109330443Y-33914481D01*
X109264260Y-33921000D01*
X109175740Y-33921000D01*
X109109557Y-33914481D01*
X109043373Y-33907963D01*
X108930147Y-33873616D01*
X108873533Y-33856443D01*
X108717011Y-33772779D01*
X108717009Y-33772778D01*
X108681271Y-33743448D01*
X108579814Y-33660186D01*
X108496552Y-33558729D01*
X108467222Y-33522991D01*
X108397380Y-33392327D01*
X108383557Y-33366467D01*
X108366384Y-33309853D01*
X108332037Y-33196627D01*
X108314641Y-33020000D01*
X108332037Y-32843373D01*
X108383557Y-32673534D01*
X108383557Y-32673533D01*
X108467221Y-32517011D01*
X108467222Y-32517009D01*
X108499582Y-32477579D01*
X108579814Y-32379814D01*
X108681271Y-32296552D01*
X108717009Y-32267222D01*
X108734913Y-32257652D01*
X108873533Y-32183557D01*
X108930147Y-32166384D01*
X109043373Y-32132037D01*
X109109557Y-32125519D01*
X109175740Y-32119000D01*
X109264260Y-32119000D01*
X109330443Y-32125519D01*
X109330443Y-32125519D01*
G37*
G36*
X115701552Y-32088331D02*
X115783625Y-32122327D01*
X115783626Y-32122328D01*
X115783629Y-32122329D01*
X115857496Y-32171686D01*
X115857500Y-32171689D01*
X115920311Y-32234500D01*
X115920313Y-32234503D01*
X115920314Y-32234504D01*
X115969671Y-32308371D01*
X115969672Y-32308374D01*
X115969673Y-32308375D01*
X116003669Y-32390448D01*
X116021000Y-32477579D01*
X116021000Y-32566421D01*
X116003669Y-32653552D01*
X115969673Y-32735625D01*
X115969671Y-32735629D01*
X115920314Y-32809496D01*
X115920311Y-32809500D01*
X115857500Y-32872311D01*
X115857497Y-32872313D01*
X115857496Y-32872314D01*
X115783629Y-32921671D01*
X115783626Y-32921672D01*
X115783625Y-32921673D01*
X115701552Y-32955669D01*
X115614421Y-32973000D01*
X115525579Y-32973000D01*
X115438448Y-32955669D01*
X115356375Y-32921673D01*
X115356374Y-32921672D01*
X115356371Y-32921671D01*
X115282504Y-32872314D01*
X115282503Y-32872313D01*
X115282500Y-32872311D01*
X115219689Y-32809500D01*
X115219686Y-32809496D01*
X115170329Y-32735629D01*
X115170327Y-32735625D01*
X115136331Y-32653552D01*
X115119000Y-32566421D01*
X115119000Y-32477579D01*
X115136331Y-32390448D01*
X115170327Y-32308375D01*
X115170328Y-32308374D01*
X115170329Y-32308371D01*
X115219686Y-32234504D01*
X115219687Y-32234503D01*
X115219689Y-32234500D01*
X115282500Y-32171689D01*
X115282504Y-32171686D01*
X115356371Y-32122329D01*
X115356374Y-32122328D01*
X115356375Y-32122327D01*
X115438448Y-32088331D01*
X115525579Y-32071000D01*
X115614421Y-32071000D01*
X115701552Y-32088331D01*
X115701552Y-32088331D01*
G37*
G36*
X120781552Y-32088331D02*
X120863625Y-32122327D01*
X120863626Y-32122328D01*
X120863629Y-32122329D01*
X120937496Y-32171686D01*
X120937500Y-32171689D01*
X121000311Y-32234500D01*
X121000313Y-32234503D01*
X121000314Y-32234504D01*
X121049671Y-32308371D01*
X121049672Y-32308374D01*
X121049673Y-32308375D01*
X121083669Y-32390448D01*
X121101000Y-32477579D01*
X121101000Y-32566421D01*
X121083669Y-32653552D01*
X121049673Y-32735625D01*
X121049671Y-32735629D01*
X121000314Y-32809496D01*
X121000311Y-32809500D01*
X120937500Y-32872311D01*
X120937497Y-32872313D01*
X120937496Y-32872314D01*
X120863629Y-32921671D01*
X120863626Y-32921672D01*
X120863625Y-32921673D01*
X120781552Y-32955669D01*
X120694421Y-32973000D01*
X120605579Y-32973000D01*
X120518448Y-32955669D01*
X120436375Y-32921673D01*
X120436374Y-32921672D01*
X120436371Y-32921671D01*
X120362504Y-32872314D01*
X120362503Y-32872313D01*
X120362500Y-32872311D01*
X120299689Y-32809500D01*
X120299686Y-32809496D01*
X120250329Y-32735629D01*
X120250327Y-32735625D01*
X120216331Y-32653552D01*
X120199000Y-32566421D01*
X120199000Y-32477579D01*
X120216331Y-32390448D01*
X120250327Y-32308375D01*
X120250328Y-32308374D01*
X120250329Y-32308371D01*
X120299686Y-32234504D01*
X120299687Y-32234503D01*
X120299689Y-32234500D01*
X120362500Y-32171689D01*
X120362504Y-32171686D01*
X120436371Y-32122329D01*
X120436374Y-32122328D01*
X120436375Y-32122327D01*
X120518448Y-32088331D01*
X120605579Y-32071000D01*
X120694421Y-32071000D01*
X120781552Y-32088331D01*
X120781552Y-32088331D01*
G37*
G36*
X118241552Y-32088331D02*
X118323625Y-32122327D01*
X118323626Y-32122328D01*
X118323629Y-32122329D01*
X118397496Y-32171686D01*
X118397500Y-32171689D01*
X118460311Y-32234500D01*
X118460313Y-32234503D01*
X118460314Y-32234504D01*
X118509671Y-32308371D01*
X118509672Y-32308374D01*
X118509673Y-32308375D01*
X118543669Y-32390448D01*
X118561000Y-32477579D01*
X118561000Y-32566421D01*
X118543669Y-32653552D01*
X118509673Y-32735625D01*
X118509671Y-32735629D01*
X118460314Y-32809496D01*
X118460311Y-32809500D01*
X118397500Y-32872311D01*
X118397497Y-32872313D01*
X118397496Y-32872314D01*
X118323629Y-32921671D01*
X118323626Y-32921672D01*
X118323625Y-32921673D01*
X118241552Y-32955669D01*
X118154421Y-32973000D01*
X118065579Y-32973000D01*
X117978448Y-32955669D01*
X117896375Y-32921673D01*
X117896374Y-32921672D01*
X117896371Y-32921671D01*
X117822504Y-32872314D01*
X117822503Y-32872313D01*
X117822500Y-32872311D01*
X117759689Y-32809500D01*
X117759686Y-32809496D01*
X117710329Y-32735629D01*
X117710327Y-32735625D01*
X117676331Y-32653552D01*
X117659000Y-32566421D01*
X117659000Y-32477579D01*
X117676331Y-32390448D01*
X117710327Y-32308375D01*
X117710328Y-32308374D01*
X117710329Y-32308371D01*
X117759686Y-32234504D01*
X117759687Y-32234503D01*
X117759689Y-32234500D01*
X117822500Y-32171689D01*
X117822504Y-32171686D01*
X117896371Y-32122329D01*
X117896374Y-32122328D01*
X117896375Y-32122327D01*
X117978448Y-32088331D01*
X118065579Y-32071000D01*
X118154421Y-32071000D01*
X118241552Y-32088331D01*
X118241552Y-32088331D01*
G37*
G36*
X119511552Y-32088331D02*
X119593625Y-32122327D01*
X119593626Y-32122328D01*
X119593629Y-32122329D01*
X119667496Y-32171686D01*
X119667500Y-32171689D01*
X119730311Y-32234500D01*
X119730313Y-32234503D01*
X119730314Y-32234504D01*
X119779671Y-32308371D01*
X119779672Y-32308374D01*
X119779673Y-32308375D01*
X119813669Y-32390448D01*
X119831000Y-32477579D01*
X119831000Y-32566421D01*
X119813669Y-32653552D01*
X119779673Y-32735625D01*
X119779671Y-32735629D01*
X119730314Y-32809496D01*
X119730311Y-32809500D01*
X119667500Y-32872311D01*
X119667497Y-32872313D01*
X119667496Y-32872314D01*
X119593629Y-32921671D01*
X119593626Y-32921672D01*
X119593625Y-32921673D01*
X119511552Y-32955669D01*
X119424421Y-32973000D01*
X119335579Y-32973000D01*
X119248448Y-32955669D01*
X119166375Y-32921673D01*
X119166374Y-32921672D01*
X119166371Y-32921671D01*
X119092504Y-32872314D01*
X119092503Y-32872313D01*
X119092500Y-32872311D01*
X119029689Y-32809500D01*
X119029686Y-32809496D01*
X118980329Y-32735629D01*
X118980327Y-32735625D01*
X118946331Y-32653552D01*
X118929000Y-32566421D01*
X118929000Y-32477579D01*
X118946331Y-32390448D01*
X118980327Y-32308375D01*
X118980328Y-32308374D01*
X118980329Y-32308371D01*
X119029686Y-32234504D01*
X119029687Y-32234503D01*
X119029689Y-32234500D01*
X119092500Y-32171689D01*
X119092504Y-32171686D01*
X119166371Y-32122329D01*
X119166374Y-32122328D01*
X119166375Y-32122327D01*
X119248448Y-32088331D01*
X119335579Y-32071000D01*
X119424421Y-32071000D01*
X119511552Y-32088331D01*
X119511552Y-32088331D01*
G37*
G36*
X116971552Y-32088331D02*
X117053625Y-32122327D01*
X117053626Y-32122328D01*
X117053629Y-32122329D01*
X117127496Y-32171686D01*
X117127500Y-32171689D01*
X117190311Y-32234500D01*
X117190313Y-32234503D01*
X117190314Y-32234504D01*
X117239671Y-32308371D01*
X117239672Y-32308374D01*
X117239673Y-32308375D01*
X117273669Y-32390448D01*
X117291000Y-32477579D01*
X117291000Y-32566421D01*
X117273669Y-32653552D01*
X117239673Y-32735625D01*
X117239671Y-32735629D01*
X117190314Y-32809496D01*
X117190311Y-32809500D01*
X117127500Y-32872311D01*
X117127497Y-32872313D01*
X117127496Y-32872314D01*
X117053629Y-32921671D01*
X117053626Y-32921672D01*
X117053625Y-32921673D01*
X116971552Y-32955669D01*
X116884421Y-32973000D01*
X116795579Y-32973000D01*
X116708448Y-32955669D01*
X116626375Y-32921673D01*
X116626374Y-32921672D01*
X116626371Y-32921671D01*
X116552504Y-32872314D01*
X116552503Y-32872313D01*
X116552500Y-32872311D01*
X116489689Y-32809500D01*
X116489686Y-32809496D01*
X116440329Y-32735629D01*
X116440327Y-32735625D01*
X116406331Y-32653552D01*
X116389000Y-32566421D01*
X116389000Y-32477579D01*
X116406331Y-32390448D01*
X116440327Y-32308375D01*
X116440328Y-32308374D01*
X116440329Y-32308371D01*
X116489686Y-32234504D01*
X116489687Y-32234503D01*
X116489689Y-32234500D01*
X116552500Y-32171689D01*
X116552504Y-32171686D01*
X116626371Y-32122329D01*
X116626374Y-32122328D01*
X116626375Y-32122327D01*
X116708448Y-32088331D01*
X116795579Y-32071000D01*
X116884421Y-32071000D01*
X116971552Y-32088331D01*
X116971552Y-32088331D01*
G37*
G36*
X106790443Y-29585519D02*
X106856627Y-29592037D01*
X106969853Y-29626384D01*
X107026467Y-29643557D01*
X107165087Y-29717652D01*
X107182991Y-29727222D01*
X107218729Y-29756552D01*
X107320186Y-29839814D01*
X107403448Y-29941271D01*
X107432778Y-29977009D01*
X107432779Y-29977011D01*
X107516443Y-30133533D01*
X107516443Y-30133534D01*
X107567963Y-30303373D01*
X107585359Y-30480000D01*
X107567963Y-30656627D01*
X107533616Y-30769853D01*
X107516443Y-30826467D01*
X107442348Y-30965087D01*
X107432778Y-30982991D01*
X107403448Y-31018729D01*
X107320186Y-31120186D01*
X107218729Y-31203448D01*
X107182991Y-31232778D01*
X107182989Y-31232779D01*
X107026467Y-31316443D01*
X106969853Y-31333616D01*
X106856627Y-31367963D01*
X106790443Y-31374481D01*
X106724260Y-31381000D01*
X106635740Y-31381000D01*
X106569557Y-31374481D01*
X106503373Y-31367963D01*
X106390147Y-31333616D01*
X106333533Y-31316443D01*
X106177011Y-31232779D01*
X106177009Y-31232778D01*
X106141271Y-31203448D01*
X106039814Y-31120186D01*
X105956552Y-31018729D01*
X105927222Y-30982991D01*
X105917652Y-30965087D01*
X105843557Y-30826467D01*
X105826384Y-30769853D01*
X105792037Y-30656627D01*
X105774641Y-30480000D01*
X105792037Y-30303373D01*
X105843557Y-30133534D01*
X105843557Y-30133533D01*
X105927221Y-29977011D01*
X105927222Y-29977009D01*
X105956552Y-29941271D01*
X106039814Y-29839814D01*
X106141271Y-29756552D01*
X106177009Y-29727222D01*
X106194913Y-29717652D01*
X106333533Y-29643557D01*
X106390147Y-29626384D01*
X106503373Y-29592037D01*
X106569557Y-29585519D01*
X106635740Y-29579000D01*
X106724260Y-29579000D01*
X106790443Y-29585519D01*
X106790443Y-29585519D01*
G37*
G36*
X110121000Y-31381000D02*
X108319000Y-31381000D01*
X108319000Y-29579000D01*
X110121000Y-29579000D01*
X110121000Y-31381000D01*
X110121000Y-31381000D01*
G37*
G36*
X129650443Y-29585519D02*
X129716627Y-29592037D01*
X129829853Y-29626384D01*
X129886467Y-29643557D01*
X130025087Y-29717652D01*
X130042991Y-29727222D01*
X130078729Y-29756552D01*
X130180186Y-29839814D01*
X130263448Y-29941271D01*
X130292778Y-29977009D01*
X130292779Y-29977011D01*
X130376443Y-30133533D01*
X130376443Y-30133534D01*
X130427963Y-30303373D01*
X130445359Y-30480000D01*
X130427963Y-30656627D01*
X130393616Y-30769853D01*
X130376443Y-30826467D01*
X130302348Y-30965087D01*
X130292778Y-30982991D01*
X130263448Y-31018729D01*
X130180186Y-31120186D01*
X130078729Y-31203448D01*
X130042991Y-31232778D01*
X130042989Y-31232779D01*
X129886467Y-31316443D01*
X129829853Y-31333616D01*
X129716627Y-31367963D01*
X129650443Y-31374481D01*
X129584260Y-31381000D01*
X129495740Y-31381000D01*
X129429557Y-31374481D01*
X129363373Y-31367963D01*
X129250147Y-31333616D01*
X129193533Y-31316443D01*
X129037011Y-31232779D01*
X129037009Y-31232778D01*
X129001271Y-31203448D01*
X128899814Y-31120186D01*
X128816552Y-31018729D01*
X128787222Y-30982991D01*
X128777652Y-30965087D01*
X128703557Y-30826467D01*
X128686384Y-30769853D01*
X128652037Y-30656627D01*
X128634641Y-30480000D01*
X128652037Y-30303373D01*
X128703557Y-30133534D01*
X128703557Y-30133533D01*
X128787221Y-29977011D01*
X128787222Y-29977009D01*
X128816552Y-29941271D01*
X128899814Y-29839814D01*
X129001271Y-29756552D01*
X129037009Y-29727222D01*
X129054913Y-29717652D01*
X129193533Y-29643557D01*
X129250147Y-29626384D01*
X129363373Y-29592037D01*
X129429557Y-29585519D01*
X129495740Y-29579000D01*
X129584260Y-29579000D01*
X129650443Y-29585519D01*
X129650443Y-29585519D01*
G37*
G36*
X132981000Y-31381000D02*
X131179000Y-31381000D01*
X131179000Y-29579000D01*
X132981000Y-29579000D01*
X132981000Y-31381000D01*
X132981000Y-31381000D01*
G37*
G36*
X147430443Y-29585519D02*
X147496627Y-29592037D01*
X147609853Y-29626384D01*
X147666467Y-29643557D01*
X147805087Y-29717652D01*
X147822991Y-29727222D01*
X147858729Y-29756552D01*
X147960186Y-29839814D01*
X148043448Y-29941271D01*
X148072778Y-29977009D01*
X148072779Y-29977011D01*
X148156443Y-30133533D01*
X148156443Y-30133534D01*
X148207963Y-30303373D01*
X148225359Y-30480000D01*
X148207963Y-30656627D01*
X148173616Y-30769853D01*
X148156443Y-30826467D01*
X148082348Y-30965087D01*
X148072778Y-30982991D01*
X148043448Y-31018729D01*
X147960186Y-31120186D01*
X147858729Y-31203448D01*
X147822991Y-31232778D01*
X147822989Y-31232779D01*
X147666467Y-31316443D01*
X147609853Y-31333616D01*
X147496627Y-31367963D01*
X147430443Y-31374481D01*
X147364260Y-31381000D01*
X147275740Y-31381000D01*
X147209557Y-31374481D01*
X147143373Y-31367963D01*
X147030147Y-31333616D01*
X146973533Y-31316443D01*
X146817011Y-31232779D01*
X146817009Y-31232778D01*
X146781271Y-31203448D01*
X146679814Y-31120186D01*
X146596552Y-31018729D01*
X146567222Y-30982991D01*
X146557652Y-30965087D01*
X146483557Y-30826467D01*
X146466384Y-30769853D01*
X146432037Y-30656627D01*
X146414641Y-30480000D01*
X146432037Y-30303373D01*
X146483557Y-30133534D01*
X146483557Y-30133533D01*
X146567221Y-29977011D01*
X146567222Y-29977009D01*
X146596552Y-29941271D01*
X146679814Y-29839814D01*
X146781271Y-29756552D01*
X146817009Y-29727222D01*
X146834913Y-29717652D01*
X146973533Y-29643557D01*
X147030147Y-29626384D01*
X147143373Y-29592037D01*
X147209557Y-29585519D01*
X147275740Y-29579000D01*
X147364260Y-29579000D01*
X147430443Y-29585519D01*
X147430443Y-29585519D01*
G37*
G36*
X150761000Y-31381000D02*
X148959000Y-31381000D01*
X148959000Y-29579000D01*
X150761000Y-29579000D01*
X150761000Y-31381000D01*
X150761000Y-31381000D01*
G37*
G36*
X162670443Y-29585519D02*
X162736627Y-29592037D01*
X162849853Y-29626384D01*
X162906467Y-29643557D01*
X163045087Y-29717652D01*
X163062991Y-29727222D01*
X163098729Y-29756552D01*
X163200186Y-29839814D01*
X163283448Y-29941271D01*
X163312778Y-29977009D01*
X163312779Y-29977011D01*
X163396443Y-30133533D01*
X163396443Y-30133534D01*
X163447963Y-30303373D01*
X163465359Y-30480000D01*
X163447963Y-30656627D01*
X163413616Y-30769853D01*
X163396443Y-30826467D01*
X163322348Y-30965087D01*
X163312778Y-30982991D01*
X163283448Y-31018729D01*
X163200186Y-31120186D01*
X163098729Y-31203448D01*
X163062991Y-31232778D01*
X163062989Y-31232779D01*
X162906467Y-31316443D01*
X162849853Y-31333616D01*
X162736627Y-31367963D01*
X162670443Y-31374481D01*
X162604260Y-31381000D01*
X162515740Y-31381000D01*
X162449557Y-31374481D01*
X162383373Y-31367963D01*
X162270147Y-31333616D01*
X162213533Y-31316443D01*
X162057011Y-31232779D01*
X162057009Y-31232778D01*
X162021271Y-31203448D01*
X161919814Y-31120186D01*
X161836552Y-31018729D01*
X161807222Y-30982991D01*
X161797652Y-30965087D01*
X161723557Y-30826467D01*
X161706384Y-30769853D01*
X161672037Y-30656627D01*
X161654641Y-30480000D01*
X161672037Y-30303373D01*
X161723557Y-30133534D01*
X161723557Y-30133533D01*
X161807221Y-29977011D01*
X161807222Y-29977009D01*
X161836552Y-29941271D01*
X161919814Y-29839814D01*
X162021271Y-29756552D01*
X162057009Y-29727222D01*
X162074913Y-29717652D01*
X162213533Y-29643557D01*
X162270147Y-29626384D01*
X162383373Y-29592037D01*
X162449557Y-29585519D01*
X162515740Y-29579000D01*
X162604260Y-29579000D01*
X162670443Y-29585519D01*
X162670443Y-29585519D01*
G37*
G36*
X166001000Y-31381000D02*
X164199000Y-31381000D01*
X164199000Y-29579000D01*
X166001000Y-29579000D01*
X166001000Y-31381000D01*
X166001000Y-31381000D01*
G37*
M02*
