G04 #@! TF.GenerationSoftware,KiCad,Pcbnew,(5.0.2)-1*
G04 #@! TF.CreationDate,2020-03-04T16:34:23-06:00*
G04 #@! TF.ProjectId,TM4C129-Breakout_Hardware,544d3443-3132-4392-9d42-7265616b6f75,rev?*
G04 #@! TF.SameCoordinates,Original*
G04 #@! TF.FileFunction,Legend,Top*
G04 #@! TF.FilePolarity,Positive*
%FSLAX46Y46*%
G04 Gerber Fmt 4.6, Leading zero omitted, Abs format (unit mm)*
G04 Created by KiCad (PCBNEW (5.0.2)-1) date 3/4/2020 4:34:23 PM*
%MOMM*%
%LPD*%
G01*
G04 APERTURE LIST*
%ADD10C,0.300000*%
%ADD11C,0.120000*%
%ADD12C,0.150000*%
G04 APERTURE END LIST*
D10*
X160865714Y-90467571D02*
X160865714Y-88967571D01*
X161437142Y-88967571D01*
X161580000Y-89039000D01*
X161651428Y-89110428D01*
X161722857Y-89253285D01*
X161722857Y-89467571D01*
X161651428Y-89610428D01*
X161580000Y-89681857D01*
X161437142Y-89753285D01*
X160865714Y-89753285D01*
X162580000Y-90467571D02*
X162437142Y-90396142D01*
X162365714Y-90324714D01*
X162294285Y-90181857D01*
X162294285Y-89753285D01*
X162365714Y-89610428D01*
X162437142Y-89539000D01*
X162580000Y-89467571D01*
X162794285Y-89467571D01*
X162937142Y-89539000D01*
X163008571Y-89610428D01*
X163080000Y-89753285D01*
X163080000Y-90181857D01*
X163008571Y-90324714D01*
X162937142Y-90396142D01*
X162794285Y-90467571D01*
X162580000Y-90467571D01*
X163580000Y-89467571D02*
X163865714Y-90467571D01*
X164151428Y-89753285D01*
X164437142Y-90467571D01*
X164722857Y-89467571D01*
X165865714Y-90396142D02*
X165722857Y-90467571D01*
X165437142Y-90467571D01*
X165294285Y-90396142D01*
X165222857Y-90253285D01*
X165222857Y-89681857D01*
X165294285Y-89539000D01*
X165437142Y-89467571D01*
X165722857Y-89467571D01*
X165865714Y-89539000D01*
X165937142Y-89681857D01*
X165937142Y-89824714D01*
X165222857Y-89967571D01*
X166580000Y-90467571D02*
X166580000Y-89467571D01*
X166580000Y-89753285D02*
X166651428Y-89610428D01*
X166722857Y-89539000D01*
X166865714Y-89467571D01*
X167008571Y-89467571D01*
X173910857Y-98976571D02*
X173410857Y-98262285D01*
X173053714Y-98976571D02*
X173053714Y-97476571D01*
X173625142Y-97476571D01*
X173768000Y-97548000D01*
X173839428Y-97619428D01*
X173910857Y-97762285D01*
X173910857Y-97976571D01*
X173839428Y-98119428D01*
X173768000Y-98190857D01*
X173625142Y-98262285D01*
X173053714Y-98262285D01*
X175125142Y-98905142D02*
X174982285Y-98976571D01*
X174696571Y-98976571D01*
X174553714Y-98905142D01*
X174482285Y-98762285D01*
X174482285Y-98190857D01*
X174553714Y-98048000D01*
X174696571Y-97976571D01*
X174982285Y-97976571D01*
X175125142Y-98048000D01*
X175196571Y-98190857D01*
X175196571Y-98333714D01*
X174482285Y-98476571D01*
X175768000Y-98905142D02*
X175910857Y-98976571D01*
X176196571Y-98976571D01*
X176339428Y-98905142D01*
X176410857Y-98762285D01*
X176410857Y-98690857D01*
X176339428Y-98548000D01*
X176196571Y-98476571D01*
X175982285Y-98476571D01*
X175839428Y-98405142D01*
X175768000Y-98262285D01*
X175768000Y-98190857D01*
X175839428Y-98048000D01*
X175982285Y-97976571D01*
X176196571Y-97976571D01*
X176339428Y-98048000D01*
X177625142Y-98905142D02*
X177482285Y-98976571D01*
X177196571Y-98976571D01*
X177053714Y-98905142D01*
X176982285Y-98762285D01*
X176982285Y-98190857D01*
X177053714Y-98048000D01*
X177196571Y-97976571D01*
X177482285Y-97976571D01*
X177625142Y-98048000D01*
X177696571Y-98190857D01*
X177696571Y-98333714D01*
X176982285Y-98476571D01*
X178125142Y-97976571D02*
X178696571Y-97976571D01*
X178339428Y-97476571D02*
X178339428Y-98762285D01*
X178410857Y-98905142D01*
X178553714Y-98976571D01*
X178696571Y-98976571D01*
X129397142Y-107612571D02*
X128897142Y-106898285D01*
X128540000Y-107612571D02*
X128540000Y-106112571D01*
X129111428Y-106112571D01*
X129254285Y-106184000D01*
X129325714Y-106255428D01*
X129397142Y-106398285D01*
X129397142Y-106612571D01*
X129325714Y-106755428D01*
X129254285Y-106826857D01*
X129111428Y-106898285D01*
X128540000Y-106898285D01*
X129897142Y-107612571D02*
X130682857Y-106612571D01*
X129897142Y-106612571D02*
X130682857Y-107612571D01*
X131044285Y-106112571D02*
X131901428Y-106112571D01*
X131472857Y-107612571D02*
X131472857Y-106112571D01*
X132258571Y-107612571D02*
X133044285Y-106612571D01*
X132258571Y-106612571D02*
X133044285Y-107612571D01*
X133945357Y-85276500D02*
X134659642Y-85276500D01*
X133802500Y-85705071D02*
X134302500Y-84205071D01*
X134802500Y-85705071D01*
X143157000Y-84395571D02*
X143157000Y-85467000D01*
X143085571Y-85681285D01*
X142942714Y-85824142D01*
X142728428Y-85895571D01*
X142585571Y-85895571D01*
X143657000Y-84395571D02*
X144514142Y-84395571D01*
X144085571Y-85895571D02*
X144085571Y-84395571D01*
X144942714Y-85467000D02*
X145657000Y-85467000D01*
X144799857Y-85895571D02*
X145299857Y-84395571D01*
X145799857Y-85895571D01*
X147085571Y-84467000D02*
X146942714Y-84395571D01*
X146728428Y-84395571D01*
X146514142Y-84467000D01*
X146371285Y-84609857D01*
X146299857Y-84752714D01*
X146228428Y-85038428D01*
X146228428Y-85252714D01*
X146299857Y-85538428D01*
X146371285Y-85681285D01*
X146514142Y-85824142D01*
X146728428Y-85895571D01*
X146871285Y-85895571D01*
X147085571Y-85824142D01*
X147157000Y-85752714D01*
X147157000Y-85252714D01*
X146871285Y-85252714D01*
X150300714Y-91991571D02*
X150300714Y-90491571D01*
X150943571Y-90634428D02*
X151015000Y-90563000D01*
X151157857Y-90491571D01*
X151515000Y-90491571D01*
X151657857Y-90563000D01*
X151729285Y-90634428D01*
X151800714Y-90777285D01*
X151800714Y-90920142D01*
X151729285Y-91134428D01*
X150872142Y-91991571D01*
X151800714Y-91991571D01*
X153300714Y-91848714D02*
X153229285Y-91920142D01*
X153015000Y-91991571D01*
X152872142Y-91991571D01*
X152657857Y-91920142D01*
X152515000Y-91777285D01*
X152443571Y-91634428D01*
X152372142Y-91348714D01*
X152372142Y-91134428D01*
X152443571Y-90848714D01*
X152515000Y-90705857D01*
X152657857Y-90563000D01*
X152872142Y-90491571D01*
X153015000Y-90491571D01*
X153229285Y-90563000D01*
X153300714Y-90634428D01*
X170287142Y-95987857D02*
X170287142Y-94845000D01*
X170858571Y-95416428D02*
X169715714Y-95416428D01*
X169358571Y-94273571D02*
X169358571Y-93345000D01*
X169930000Y-93845000D01*
X169930000Y-93630714D01*
X170001428Y-93487857D01*
X170072857Y-93416428D01*
X170215714Y-93345000D01*
X170572857Y-93345000D01*
X170715714Y-93416428D01*
X170787142Y-93487857D01*
X170858571Y-93630714D01*
X170858571Y-94059285D01*
X170787142Y-94202142D01*
X170715714Y-94273571D01*
X169358571Y-92916428D02*
X170858571Y-92416428D01*
X169358571Y-91916428D01*
X169358571Y-91559285D02*
X169358571Y-90630714D01*
X169930000Y-91130714D01*
X169930000Y-90916428D01*
X170001428Y-90773571D01*
X170072857Y-90702142D01*
X170215714Y-90630714D01*
X170572857Y-90630714D01*
X170715714Y-90702142D01*
X170787142Y-90773571D01*
X170858571Y-90916428D01*
X170858571Y-91345000D01*
X170787142Y-91487857D01*
X170715714Y-91559285D01*
X171970000Y-93852857D02*
X171898571Y-93995714D01*
X171898571Y-94210000D01*
X171970000Y-94424285D01*
X172112857Y-94567142D01*
X172255714Y-94638571D01*
X172541428Y-94710000D01*
X172755714Y-94710000D01*
X173041428Y-94638571D01*
X173184285Y-94567142D01*
X173327142Y-94424285D01*
X173398571Y-94210000D01*
X173398571Y-94067142D01*
X173327142Y-93852857D01*
X173255714Y-93781428D01*
X172755714Y-93781428D01*
X172755714Y-94067142D01*
X173398571Y-93138571D02*
X171898571Y-93138571D01*
X173398571Y-92281428D01*
X171898571Y-92281428D01*
X173398571Y-91567142D02*
X171898571Y-91567142D01*
X171898571Y-91210000D01*
X171970000Y-90995714D01*
X172112857Y-90852857D01*
X172255714Y-90781428D01*
X172541428Y-90710000D01*
X172755714Y-90710000D01*
X173041428Y-90781428D01*
X173184285Y-90852857D01*
X173327142Y-90995714D01*
X173398571Y-91210000D01*
X173398571Y-91567142D01*
X189436428Y-86808571D02*
X190293571Y-86808571D01*
X189865000Y-88308571D02*
X189865000Y-86808571D01*
X179502857Y-88435571D02*
X179502857Y-86935571D01*
X180074285Y-86935571D01*
X180217142Y-87007000D01*
X180288571Y-87078428D01*
X180360000Y-87221285D01*
X180360000Y-87435571D01*
X180288571Y-87578428D01*
X180217142Y-87649857D01*
X180074285Y-87721285D01*
X179502857Y-87721285D01*
X180860000Y-86935571D02*
X181217142Y-88435571D01*
X181502857Y-87364142D01*
X181788571Y-88435571D01*
X182145714Y-86935571D01*
X182717142Y-88435571D02*
X182717142Y-86935571D01*
X183217142Y-88007000D01*
X183717142Y-86935571D01*
X183717142Y-88435571D01*
D11*
G04 #@! TO.C,R10*
X176274000Y-128836267D02*
X176274000Y-128493733D01*
X177294000Y-128836267D02*
X177294000Y-128493733D01*
G04 #@! TO.C,R9*
X179072000Y-128808267D02*
X179072000Y-128465733D01*
X178052000Y-128808267D02*
X178052000Y-128465733D01*
G04 #@! TO.C,R7*
X172464000Y-128808267D02*
X172464000Y-128465733D01*
X173484000Y-128808267D02*
X173484000Y-128465733D01*
G04 #@! TO.C,R8*
X175262000Y-128808267D02*
X175262000Y-128465733D01*
X174242000Y-128808267D02*
X174242000Y-128465733D01*
G04 #@! TO.C,R16*
X151128000Y-128836267D02*
X151128000Y-128493733D01*
X152148000Y-128836267D02*
X152148000Y-128493733D01*
D12*
G04 #@! TO.C,U1*
X163118800Y-114300000D02*
X171450000Y-114300000D01*
X162356800Y-127000000D02*
X162356800Y-115062000D01*
X171450000Y-127000000D02*
X171450000Y-114300000D01*
X162356800Y-127000000D02*
X171450000Y-127000000D01*
X162356800Y-115062000D02*
X163118800Y-114300000D01*
G04 #@! TO.C,REF\002A\002A*
X190708283Y-127000000D02*
G75*
G03X190708283Y-127000000I-4018283J0D01*
G01*
D11*
G04 #@! TO.C,R15*
X163352267Y-104396000D02*
X163009733Y-104396000D01*
X163352267Y-103376000D02*
X163009733Y-103376000D01*
G04 #@! TO.C,C13*
X163352267Y-102618000D02*
X163009733Y-102618000D01*
X163352267Y-101598000D02*
X163009733Y-101598000D01*
D12*
G04 #@! TO.C,Y2*
X164147500Y-106362500D02*
X164147500Y-110172500D01*
X164147500Y-106362500D02*
X172148500Y-106362500D01*
X164147500Y-110172500D02*
X172148500Y-110172500D01*
X172148500Y-106362500D02*
X172148500Y-110172500D01*
D11*
G04 #@! TO.C,R1*
X160018000Y-115031733D02*
X160018000Y-115374267D01*
X161038000Y-115031733D02*
X161038000Y-115374267D01*
G04 #@! TO.C,R2*
X160018000Y-119918267D02*
X160018000Y-119575733D01*
X161038000Y-119918267D02*
X161038000Y-119575733D01*
G04 #@! TO.C,C2*
X155446000Y-122712267D02*
X155446000Y-122369733D01*
X156466000Y-122712267D02*
X156466000Y-122369733D01*
G04 #@! TO.C,C1*
X155760267Y-125474000D02*
X155417733Y-125474000D01*
X155760267Y-126494000D02*
X155417733Y-126494000D01*
G04 #@! TO.C,J1*
X183628000Y-105494000D02*
X183128000Y-105994000D01*
X182628000Y-105494000D02*
X183628000Y-105494000D01*
X183128000Y-105994000D02*
X182628000Y-105494000D01*
X174813000Y-122874000D02*
X180488000Y-122874000D01*
X174813000Y-106234000D02*
X180488000Y-106234000D01*
X174813000Y-106234000D02*
X174813000Y-122874000D01*
X190693000Y-122874000D02*
X182988000Y-122874000D01*
X190693000Y-106234000D02*
X182988000Y-106234000D01*
X190693000Y-106234000D02*
X190693000Y-122874000D01*
G04 #@! TO.C,R13*
X155196000Y-128493733D02*
X155196000Y-128836267D01*
X154176000Y-128493733D02*
X154176000Y-128836267D01*
G04 #@! TO.C,R17*
X175318267Y-104646000D02*
X174975733Y-104646000D01*
X175318267Y-105666000D02*
X174975733Y-105666000D01*
G04 #@! TO.C,C8*
X169895733Y-129030000D02*
X170238267Y-129030000D01*
X169895733Y-130050000D02*
X170238267Y-130050000D01*
G04 #@! TO.C,C10*
X155954000Y-128493733D02*
X155954000Y-128836267D01*
X156974000Y-128493733D02*
X156974000Y-128836267D01*
D12*
G04 #@! TO.C,U2*
X138513728Y-108458000D02*
X138867282Y-108811553D01*
X148590000Y-98381728D02*
X149003657Y-98795386D01*
X158666272Y-108458000D02*
X158252614Y-108044343D01*
X148590000Y-118534272D02*
X148176343Y-118120614D01*
X138513728Y-108458000D02*
X138927386Y-108044343D01*
X148590000Y-118534272D02*
X149003657Y-118120614D01*
X158666272Y-108458000D02*
X158252614Y-108871657D01*
X148590000Y-98381728D02*
X148176343Y-98795386D01*
X138867282Y-108811553D02*
X138107142Y-109571693D01*
G04 #@! TO.C,Conn1*
X142214600Y-86436200D02*
X142214600Y-85166200D01*
X142214600Y-85166200D02*
X139674600Y-85166200D01*
X139674600Y-85166200D02*
X139674600Y-86436200D01*
X147447000Y-91567000D02*
X147447000Y-86487000D01*
X147447000Y-86487000D02*
X134747000Y-86487000D01*
X147397000Y-91587000D02*
X134747000Y-91587000D01*
X134747000Y-86487000D02*
X134747000Y-91587000D01*
G04 #@! TO.C,Y1*
X157301800Y-92521400D02*
X154101800Y-92521400D01*
X154101800Y-95021400D02*
X154101800Y-92521400D01*
X157302200Y-95021400D02*
X154102200Y-95021400D01*
X157302200Y-95021400D02*
X157302200Y-92521400D01*
D11*
G04 #@! TO.C,C3*
X163888267Y-112774000D02*
X163545733Y-112774000D01*
X163888267Y-113794000D02*
X163545733Y-113794000D01*
G04 #@! TO.C,C4*
X163888267Y-128526000D02*
X163545733Y-128526000D01*
X163888267Y-127506000D02*
X163545733Y-127506000D01*
G04 #@! TO.C,C5*
X168908000Y-103154267D02*
X168908000Y-102811733D01*
X169928000Y-103154267D02*
X169928000Y-102811733D01*
G04 #@! TO.C,C6*
X155873267Y-95756000D02*
X155530733Y-95756000D01*
X155873267Y-96776000D02*
X155530733Y-96776000D01*
G04 #@! TO.C,C7*
X168178267Y-105920000D02*
X167835733Y-105920000D01*
X168178267Y-104900000D02*
X167835733Y-104900000D01*
G04 #@! TO.C,C9*
X168178267Y-110615000D02*
X167835733Y-110615000D01*
X168178267Y-111635000D02*
X167835733Y-111635000D01*
G04 #@! TO.C,C11*
X141828238Y-98161011D02*
X142070447Y-97918802D01*
X141106989Y-97439762D02*
X141349198Y-97197553D01*
G04 #@! TO.C,C12*
X142376989Y-98709762D02*
X142619198Y-98467553D01*
X143098238Y-99431011D02*
X143340447Y-99188802D01*
G04 #@! TO.C,C14*
X155530732Y-97534000D02*
X155873268Y-97534000D01*
X155530732Y-98554000D02*
X155873268Y-98554000D01*
G04 #@! TO.C,C15*
X146134447Y-119505198D02*
X145892238Y-119262989D01*
X145413198Y-120226447D02*
X145170989Y-119984238D01*
G04 #@! TO.C,C16*
X140558238Y-96891011D02*
X140800447Y-96648802D01*
X139836989Y-96169762D02*
X140079198Y-95927553D01*
G04 #@! TO.C,C17*
X148080000Y-96070267D02*
X148080000Y-95727733D01*
X149100000Y-96070267D02*
X149100000Y-95727733D01*
G04 #@! TO.C,C18*
X160977733Y-106932000D02*
X161320267Y-106932000D01*
X160977733Y-107952000D02*
X161320267Y-107952000D01*
G04 #@! TO.C,R3*
X158240000Y-121381733D02*
X158240000Y-121724267D01*
X159260000Y-121381733D02*
X159260000Y-121724267D01*
G04 #@! TO.C,R4*
X158240000Y-126268267D02*
X158240000Y-125925733D01*
X159260000Y-126268267D02*
X159260000Y-125925733D01*
G04 #@! TO.C,R5*
X168343733Y-99820000D02*
X168686267Y-99820000D01*
X168343733Y-100840000D02*
X168686267Y-100840000D01*
G04 #@! TO.C,R6*
X168150000Y-102811733D02*
X168150000Y-103154267D01*
X167130000Y-102811733D02*
X167130000Y-103154267D01*
G04 #@! TO.C,R11*
X155530733Y-91696000D02*
X155873267Y-91696000D01*
X155530733Y-90676000D02*
X155873267Y-90676000D01*
G04 #@! TO.C,R12*
X160304267Y-112012000D02*
X159961733Y-112012000D01*
X160304267Y-113032000D02*
X159961733Y-113032000D01*
G04 #@! TO.C,R14*
X161320267Y-109730000D02*
X160977733Y-109730000D01*
X161320267Y-108710000D02*
X160977733Y-108710000D01*
G04 #@! TO.C,SW1*
X178436000Y-100800000D02*
X178436000Y-102860000D01*
X173696000Y-100800000D02*
X173696000Y-102860000D01*
X173696000Y-99460000D02*
X173696000Y-99860000D01*
X178436000Y-99460000D02*
X173696000Y-99460000D01*
X178436000Y-99460000D02*
X178436000Y-99860000D01*
X173696000Y-104200000D02*
X173696000Y-103800000D01*
X178436000Y-104200000D02*
X178436000Y-103800000D01*
X178436000Y-104200000D02*
X173696000Y-104200000D01*
G04 #@! TO.C,C19*
X157986000Y-94010267D02*
X157986000Y-93667733D01*
X159006000Y-94010267D02*
X159006000Y-93667733D01*
G04 #@! TO.C,D1*
X162739000Y-90705000D02*
X160279000Y-90705000D01*
X160279000Y-90705000D02*
X160279000Y-92175000D01*
X160279000Y-92175000D02*
X162739000Y-92175000D01*
G04 #@! TO.C,R18*
X165892267Y-91950000D02*
X165549733Y-91950000D01*
X165892267Y-90930000D02*
X165549733Y-90930000D01*
G04 #@! TO.C,R10*
D12*
X177236380Y-126118857D02*
X176760190Y-126452190D01*
X177236380Y-126690285D02*
X176236380Y-126690285D01*
X176236380Y-126309333D01*
X176284000Y-126214095D01*
X176331619Y-126166476D01*
X176426857Y-126118857D01*
X176569714Y-126118857D01*
X176664952Y-126166476D01*
X176712571Y-126214095D01*
X176760190Y-126309333D01*
X176760190Y-126690285D01*
X177236380Y-125166476D02*
X177236380Y-125737904D01*
X177236380Y-125452190D02*
X176236380Y-125452190D01*
X176379238Y-125547428D01*
X176474476Y-125642666D01*
X176522095Y-125737904D01*
X176236380Y-124547428D02*
X176236380Y-124452190D01*
X176284000Y-124356952D01*
X176331619Y-124309333D01*
X176426857Y-124261714D01*
X176617333Y-124214095D01*
X176855428Y-124214095D01*
X177045904Y-124261714D01*
X177141142Y-124309333D01*
X177188761Y-124356952D01*
X177236380Y-124452190D01*
X177236380Y-124547428D01*
X177188761Y-124642666D01*
X177141142Y-124690285D01*
X177045904Y-124737904D01*
X176855428Y-124785523D01*
X176617333Y-124785523D01*
X176426857Y-124737904D01*
X176331619Y-124690285D01*
X176284000Y-124642666D01*
X176236380Y-124547428D01*
G04 #@! TO.C,R9*
X179014380Y-126150666D02*
X178538190Y-126484000D01*
X179014380Y-126722095D02*
X178014380Y-126722095D01*
X178014380Y-126341142D01*
X178062000Y-126245904D01*
X178109619Y-126198285D01*
X178204857Y-126150666D01*
X178347714Y-126150666D01*
X178442952Y-126198285D01*
X178490571Y-126245904D01*
X178538190Y-126341142D01*
X178538190Y-126722095D01*
X179014380Y-125674476D02*
X179014380Y-125484000D01*
X178966761Y-125388761D01*
X178919142Y-125341142D01*
X178776285Y-125245904D01*
X178585809Y-125198285D01*
X178204857Y-125198285D01*
X178109619Y-125245904D01*
X178062000Y-125293523D01*
X178014380Y-125388761D01*
X178014380Y-125579238D01*
X178062000Y-125674476D01*
X178109619Y-125722095D01*
X178204857Y-125769714D01*
X178442952Y-125769714D01*
X178538190Y-125722095D01*
X178585809Y-125674476D01*
X178633428Y-125579238D01*
X178633428Y-125388761D01*
X178585809Y-125293523D01*
X178538190Y-125245904D01*
X178442952Y-125198285D01*
G04 #@! TO.C,R7*
X173426380Y-126150666D02*
X172950190Y-126484000D01*
X173426380Y-126722095D02*
X172426380Y-126722095D01*
X172426380Y-126341142D01*
X172474000Y-126245904D01*
X172521619Y-126198285D01*
X172616857Y-126150666D01*
X172759714Y-126150666D01*
X172854952Y-126198285D01*
X172902571Y-126245904D01*
X172950190Y-126341142D01*
X172950190Y-126722095D01*
X172426380Y-125817333D02*
X172426380Y-125150666D01*
X173426380Y-125579238D01*
G04 #@! TO.C,R8*
X175204380Y-126150666D02*
X174728190Y-126484000D01*
X175204380Y-126722095D02*
X174204380Y-126722095D01*
X174204380Y-126341142D01*
X174252000Y-126245904D01*
X174299619Y-126198285D01*
X174394857Y-126150666D01*
X174537714Y-126150666D01*
X174632952Y-126198285D01*
X174680571Y-126245904D01*
X174728190Y-126341142D01*
X174728190Y-126722095D01*
X174632952Y-125579238D02*
X174585333Y-125674476D01*
X174537714Y-125722095D01*
X174442476Y-125769714D01*
X174394857Y-125769714D01*
X174299619Y-125722095D01*
X174252000Y-125674476D01*
X174204380Y-125579238D01*
X174204380Y-125388761D01*
X174252000Y-125293523D01*
X174299619Y-125245904D01*
X174394857Y-125198285D01*
X174442476Y-125198285D01*
X174537714Y-125245904D01*
X174585333Y-125293523D01*
X174632952Y-125388761D01*
X174632952Y-125579238D01*
X174680571Y-125674476D01*
X174728190Y-125722095D01*
X174823428Y-125769714D01*
X175013904Y-125769714D01*
X175109142Y-125722095D01*
X175156761Y-125674476D01*
X175204380Y-125579238D01*
X175204380Y-125388761D01*
X175156761Y-125293523D01*
X175109142Y-125245904D01*
X175013904Y-125198285D01*
X174823428Y-125198285D01*
X174728190Y-125245904D01*
X174680571Y-125293523D01*
X174632952Y-125388761D01*
G04 #@! TO.C,R16*
X152217380Y-126245857D02*
X151741190Y-126579190D01*
X152217380Y-126817285D02*
X151217380Y-126817285D01*
X151217380Y-126436333D01*
X151265000Y-126341095D01*
X151312619Y-126293476D01*
X151407857Y-126245857D01*
X151550714Y-126245857D01*
X151645952Y-126293476D01*
X151693571Y-126341095D01*
X151741190Y-126436333D01*
X151741190Y-126817285D01*
X152217380Y-125293476D02*
X152217380Y-125864904D01*
X152217380Y-125579190D02*
X151217380Y-125579190D01*
X151360238Y-125674428D01*
X151455476Y-125769666D01*
X151503095Y-125864904D01*
X151217380Y-124436333D02*
X151217380Y-124626809D01*
X151265000Y-124722047D01*
X151312619Y-124769666D01*
X151455476Y-124864904D01*
X151645952Y-124912523D01*
X152026904Y-124912523D01*
X152122142Y-124864904D01*
X152169761Y-124817285D01*
X152217380Y-124722047D01*
X152217380Y-124531571D01*
X152169761Y-124436333D01*
X152122142Y-124388714D01*
X152026904Y-124341095D01*
X151788809Y-124341095D01*
X151693571Y-124388714D01*
X151645952Y-124436333D01*
X151598333Y-124531571D01*
X151598333Y-124722047D01*
X151645952Y-124817285D01*
X151693571Y-124864904D01*
X151788809Y-124912523D01*
G04 #@! TO.C,U1*
X169926095Y-112990380D02*
X169926095Y-113799904D01*
X169973714Y-113895142D01*
X170021333Y-113942761D01*
X170116571Y-113990380D01*
X170307047Y-113990380D01*
X170402285Y-113942761D01*
X170449904Y-113895142D01*
X170497523Y-113799904D01*
X170497523Y-112990380D01*
X171497523Y-113990380D02*
X170926095Y-113990380D01*
X171211809Y-113990380D02*
X171211809Y-112990380D01*
X171116571Y-113133238D01*
X171021333Y-113228476D01*
X170926095Y-113276095D01*
G04 #@! TO.C,R15*
X159377142Y-104465380D02*
X159043809Y-103989190D01*
X158805714Y-104465380D02*
X158805714Y-103465380D01*
X159186666Y-103465380D01*
X159281904Y-103513000D01*
X159329523Y-103560619D01*
X159377142Y-103655857D01*
X159377142Y-103798714D01*
X159329523Y-103893952D01*
X159281904Y-103941571D01*
X159186666Y-103989190D01*
X158805714Y-103989190D01*
X160329523Y-104465380D02*
X159758095Y-104465380D01*
X160043809Y-104465380D02*
X160043809Y-103465380D01*
X159948571Y-103608238D01*
X159853333Y-103703476D01*
X159758095Y-103751095D01*
X161234285Y-103465380D02*
X160758095Y-103465380D01*
X160710476Y-103941571D01*
X160758095Y-103893952D01*
X160853333Y-103846333D01*
X161091428Y-103846333D01*
X161186666Y-103893952D01*
X161234285Y-103941571D01*
X161281904Y-104036809D01*
X161281904Y-104274904D01*
X161234285Y-104370142D01*
X161186666Y-104417761D01*
X161091428Y-104465380D01*
X160853333Y-104465380D01*
X160758095Y-104417761D01*
X160710476Y-104370142D01*
G04 #@! TO.C,C13*
X159377142Y-102465142D02*
X159329523Y-102512761D01*
X159186666Y-102560380D01*
X159091428Y-102560380D01*
X158948571Y-102512761D01*
X158853333Y-102417523D01*
X158805714Y-102322285D01*
X158758095Y-102131809D01*
X158758095Y-101988952D01*
X158805714Y-101798476D01*
X158853333Y-101703238D01*
X158948571Y-101608000D01*
X159091428Y-101560380D01*
X159186666Y-101560380D01*
X159329523Y-101608000D01*
X159377142Y-101655619D01*
X160329523Y-102560380D02*
X159758095Y-102560380D01*
X160043809Y-102560380D02*
X160043809Y-101560380D01*
X159948571Y-101703238D01*
X159853333Y-101798476D01*
X159758095Y-101846095D01*
X160662857Y-101560380D02*
X161281904Y-101560380D01*
X160948571Y-101941333D01*
X161091428Y-101941333D01*
X161186666Y-101988952D01*
X161234285Y-102036571D01*
X161281904Y-102131809D01*
X161281904Y-102369904D01*
X161234285Y-102465142D01*
X161186666Y-102512761D01*
X161091428Y-102560380D01*
X160805714Y-102560380D01*
X160710476Y-102512761D01*
X160662857Y-102465142D01*
G04 #@! TO.C,Y2*
X172751809Y-106910190D02*
X172751809Y-107386380D01*
X172418476Y-106386380D02*
X172751809Y-106910190D01*
X173085142Y-106386380D01*
X173370857Y-106481619D02*
X173418476Y-106434000D01*
X173513714Y-106386380D01*
X173751809Y-106386380D01*
X173847047Y-106434000D01*
X173894666Y-106481619D01*
X173942285Y-106576857D01*
X173942285Y-106672095D01*
X173894666Y-106814952D01*
X173323238Y-107386380D01*
X173942285Y-107386380D01*
G04 #@! TO.C,R1*
X158710333Y-116403380D02*
X158377000Y-115927190D01*
X158138904Y-116403380D02*
X158138904Y-115403380D01*
X158519857Y-115403380D01*
X158615095Y-115451000D01*
X158662714Y-115498619D01*
X158710333Y-115593857D01*
X158710333Y-115736714D01*
X158662714Y-115831952D01*
X158615095Y-115879571D01*
X158519857Y-115927190D01*
X158138904Y-115927190D01*
X159662714Y-116403380D02*
X159091285Y-116403380D01*
X159377000Y-116403380D02*
X159377000Y-115403380D01*
X159281761Y-115546238D01*
X159186523Y-115641476D01*
X159091285Y-115689095D01*
G04 #@! TO.C,R2*
X158583333Y-118562380D02*
X158250000Y-118086190D01*
X158011904Y-118562380D02*
X158011904Y-117562380D01*
X158392857Y-117562380D01*
X158488095Y-117610000D01*
X158535714Y-117657619D01*
X158583333Y-117752857D01*
X158583333Y-117895714D01*
X158535714Y-117990952D01*
X158488095Y-118038571D01*
X158392857Y-118086190D01*
X158011904Y-118086190D01*
X158964285Y-117657619D02*
X159011904Y-117610000D01*
X159107142Y-117562380D01*
X159345238Y-117562380D01*
X159440476Y-117610000D01*
X159488095Y-117657619D01*
X159535714Y-117752857D01*
X159535714Y-117848095D01*
X159488095Y-117990952D01*
X158916666Y-118562380D01*
X159535714Y-118562380D01*
G04 #@! TO.C,C2*
X154138333Y-121896142D02*
X154090714Y-121943761D01*
X153947857Y-121991380D01*
X153852619Y-121991380D01*
X153709761Y-121943761D01*
X153614523Y-121848523D01*
X153566904Y-121753285D01*
X153519285Y-121562809D01*
X153519285Y-121419952D01*
X153566904Y-121229476D01*
X153614523Y-121134238D01*
X153709761Y-121039000D01*
X153852619Y-120991380D01*
X153947857Y-120991380D01*
X154090714Y-121039000D01*
X154138333Y-121086619D01*
X154519285Y-121086619D02*
X154566904Y-121039000D01*
X154662142Y-120991380D01*
X154900238Y-120991380D01*
X154995476Y-121039000D01*
X155043095Y-121086619D01*
X155090714Y-121181857D01*
X155090714Y-121277095D01*
X155043095Y-121419952D01*
X154471666Y-121991380D01*
X155090714Y-121991380D01*
G04 #@! TO.C,C1*
X154265333Y-124817142D02*
X154217714Y-124864761D01*
X154074857Y-124912380D01*
X153979619Y-124912380D01*
X153836761Y-124864761D01*
X153741523Y-124769523D01*
X153693904Y-124674285D01*
X153646285Y-124483809D01*
X153646285Y-124340952D01*
X153693904Y-124150476D01*
X153741523Y-124055238D01*
X153836761Y-123960000D01*
X153979619Y-123912380D01*
X154074857Y-123912380D01*
X154217714Y-123960000D01*
X154265333Y-124007619D01*
X155217714Y-124912380D02*
X154646285Y-124912380D01*
X154932000Y-124912380D02*
X154932000Y-123912380D01*
X154836761Y-124055238D01*
X154741523Y-124150476D01*
X154646285Y-124198095D01*
G04 #@! TO.C,J1*
X175180666Y-123150380D02*
X175180666Y-123864666D01*
X175133047Y-124007523D01*
X175037809Y-124102761D01*
X174894952Y-124150380D01*
X174799714Y-124150380D01*
X176180666Y-124150380D02*
X175609238Y-124150380D01*
X175894952Y-124150380D02*
X175894952Y-123150380D01*
X175799714Y-123293238D01*
X175704476Y-123388476D01*
X175609238Y-123436095D01*
G04 #@! TO.C,R13*
X153868380Y-129674857D02*
X153392190Y-130008190D01*
X153868380Y-130246285D02*
X152868380Y-130246285D01*
X152868380Y-129865333D01*
X152916000Y-129770095D01*
X152963619Y-129722476D01*
X153058857Y-129674857D01*
X153201714Y-129674857D01*
X153296952Y-129722476D01*
X153344571Y-129770095D01*
X153392190Y-129865333D01*
X153392190Y-130246285D01*
X153868380Y-128722476D02*
X153868380Y-129293904D01*
X153868380Y-129008190D02*
X152868380Y-129008190D01*
X153011238Y-129103428D01*
X153106476Y-129198666D01*
X153154095Y-129293904D01*
X152868380Y-128389142D02*
X152868380Y-127770095D01*
X153249333Y-128103428D01*
X153249333Y-127960571D01*
X153296952Y-127865333D01*
X153344571Y-127817714D01*
X153439809Y-127770095D01*
X153677904Y-127770095D01*
X153773142Y-127817714D01*
X153820761Y-127865333D01*
X153868380Y-127960571D01*
X153868380Y-128246285D01*
X153820761Y-128341523D01*
X153773142Y-128389142D01*
G04 #@! TO.C,R17*
X171569142Y-105608380D02*
X171235809Y-105132190D01*
X170997714Y-105608380D02*
X170997714Y-104608380D01*
X171378666Y-104608380D01*
X171473904Y-104656000D01*
X171521523Y-104703619D01*
X171569142Y-104798857D01*
X171569142Y-104941714D01*
X171521523Y-105036952D01*
X171473904Y-105084571D01*
X171378666Y-105132190D01*
X170997714Y-105132190D01*
X172521523Y-105608380D02*
X171950095Y-105608380D01*
X172235809Y-105608380D02*
X172235809Y-104608380D01*
X172140571Y-104751238D01*
X172045333Y-104846476D01*
X171950095Y-104894095D01*
X172854857Y-104608380D02*
X173521523Y-104608380D01*
X173092952Y-105608380D01*
G04 #@! TO.C,C8*
X170013333Y-128373142D02*
X169965714Y-128420761D01*
X169822857Y-128468380D01*
X169727619Y-128468380D01*
X169584761Y-128420761D01*
X169489523Y-128325523D01*
X169441904Y-128230285D01*
X169394285Y-128039809D01*
X169394285Y-127896952D01*
X169441904Y-127706476D01*
X169489523Y-127611238D01*
X169584761Y-127516000D01*
X169727619Y-127468380D01*
X169822857Y-127468380D01*
X169965714Y-127516000D01*
X170013333Y-127563619D01*
X170584761Y-127896952D02*
X170489523Y-127849333D01*
X170441904Y-127801714D01*
X170394285Y-127706476D01*
X170394285Y-127658857D01*
X170441904Y-127563619D01*
X170489523Y-127516000D01*
X170584761Y-127468380D01*
X170775238Y-127468380D01*
X170870476Y-127516000D01*
X170918095Y-127563619D01*
X170965714Y-127658857D01*
X170965714Y-127706476D01*
X170918095Y-127801714D01*
X170870476Y-127849333D01*
X170775238Y-127896952D01*
X170584761Y-127896952D01*
X170489523Y-127944571D01*
X170441904Y-127992190D01*
X170394285Y-128087428D01*
X170394285Y-128277904D01*
X170441904Y-128373142D01*
X170489523Y-128420761D01*
X170584761Y-128468380D01*
X170775238Y-128468380D01*
X170870476Y-128420761D01*
X170918095Y-128373142D01*
X170965714Y-128277904D01*
X170965714Y-128087428D01*
X170918095Y-127992190D01*
X170870476Y-127944571D01*
X170775238Y-127896952D01*
G04 #@! TO.C,C10*
X158345142Y-129674857D02*
X158392761Y-129722476D01*
X158440380Y-129865333D01*
X158440380Y-129960571D01*
X158392761Y-130103428D01*
X158297523Y-130198666D01*
X158202285Y-130246285D01*
X158011809Y-130293904D01*
X157868952Y-130293904D01*
X157678476Y-130246285D01*
X157583238Y-130198666D01*
X157488000Y-130103428D01*
X157440380Y-129960571D01*
X157440380Y-129865333D01*
X157488000Y-129722476D01*
X157535619Y-129674857D01*
X158440380Y-128722476D02*
X158440380Y-129293904D01*
X158440380Y-129008190D02*
X157440380Y-129008190D01*
X157583238Y-129103428D01*
X157678476Y-129198666D01*
X157726095Y-129293904D01*
X157440380Y-128103428D02*
X157440380Y-128008190D01*
X157488000Y-127912952D01*
X157535619Y-127865333D01*
X157630857Y-127817714D01*
X157821333Y-127770095D01*
X158059428Y-127770095D01*
X158249904Y-127817714D01*
X158345142Y-127865333D01*
X158392761Y-127912952D01*
X158440380Y-128008190D01*
X158440380Y-128103428D01*
X158392761Y-128198666D01*
X158345142Y-128246285D01*
X158249904Y-128293904D01*
X158059428Y-128341523D01*
X157821333Y-128341523D01*
X157630857Y-128293904D01*
X157535619Y-128246285D01*
X157488000Y-128198666D01*
X157440380Y-128103428D01*
G04 #@! TO.C,U2*
X149454477Y-118708026D02*
X148882057Y-119280446D01*
X148848385Y-119381461D01*
X148848385Y-119448805D01*
X148882057Y-119549820D01*
X149016744Y-119684507D01*
X149117759Y-119718179D01*
X149185103Y-119718179D01*
X149286118Y-119684507D01*
X149858538Y-119112087D01*
X150094240Y-119482477D02*
X150161583Y-119482477D01*
X150262599Y-119516148D01*
X150430957Y-119684507D01*
X150464629Y-119785522D01*
X150464629Y-119852866D01*
X150430957Y-119953881D01*
X150363614Y-120021225D01*
X150228927Y-120088568D01*
X149420805Y-120088568D01*
X149858538Y-120526301D01*
G04 #@! TO.C,Y1*
X152431809Y-92940190D02*
X152431809Y-93416380D01*
X152098476Y-92416380D02*
X152431809Y-92940190D01*
X152765142Y-92416380D01*
X153622285Y-93416380D02*
X153050857Y-93416380D01*
X153336571Y-93416380D02*
X153336571Y-92416380D01*
X153241333Y-92559238D01*
X153146095Y-92654476D01*
X153050857Y-92702095D01*
G04 #@! TO.C,C3*
X163550333Y-112117142D02*
X163502714Y-112164761D01*
X163359857Y-112212380D01*
X163264619Y-112212380D01*
X163121761Y-112164761D01*
X163026523Y-112069523D01*
X162978904Y-111974285D01*
X162931285Y-111783809D01*
X162931285Y-111640952D01*
X162978904Y-111450476D01*
X163026523Y-111355238D01*
X163121761Y-111260000D01*
X163264619Y-111212380D01*
X163359857Y-111212380D01*
X163502714Y-111260000D01*
X163550333Y-111307619D01*
X163883666Y-111212380D02*
X164502714Y-111212380D01*
X164169380Y-111593333D01*
X164312238Y-111593333D01*
X164407476Y-111640952D01*
X164455095Y-111688571D01*
X164502714Y-111783809D01*
X164502714Y-112021904D01*
X164455095Y-112117142D01*
X164407476Y-112164761D01*
X164312238Y-112212380D01*
X164026523Y-112212380D01*
X163931285Y-112164761D01*
X163883666Y-112117142D01*
G04 #@! TO.C,C4*
X163550333Y-129803142D02*
X163502714Y-129850761D01*
X163359857Y-129898380D01*
X163264619Y-129898380D01*
X163121761Y-129850761D01*
X163026523Y-129755523D01*
X162978904Y-129660285D01*
X162931285Y-129469809D01*
X162931285Y-129326952D01*
X162978904Y-129136476D01*
X163026523Y-129041238D01*
X163121761Y-128946000D01*
X163264619Y-128898380D01*
X163359857Y-128898380D01*
X163502714Y-128946000D01*
X163550333Y-128993619D01*
X164407476Y-129231714D02*
X164407476Y-129898380D01*
X164169380Y-128850761D02*
X163931285Y-129565047D01*
X164550333Y-129565047D01*
G04 #@! TO.C,C5*
X171172142Y-103149666D02*
X171219761Y-103197285D01*
X171267380Y-103340142D01*
X171267380Y-103435380D01*
X171219761Y-103578238D01*
X171124523Y-103673476D01*
X171029285Y-103721095D01*
X170838809Y-103768714D01*
X170695952Y-103768714D01*
X170505476Y-103721095D01*
X170410238Y-103673476D01*
X170315000Y-103578238D01*
X170267380Y-103435380D01*
X170267380Y-103340142D01*
X170315000Y-103197285D01*
X170362619Y-103149666D01*
X170267380Y-102244904D02*
X170267380Y-102721095D01*
X170743571Y-102768714D01*
X170695952Y-102721095D01*
X170648333Y-102625857D01*
X170648333Y-102387761D01*
X170695952Y-102292523D01*
X170743571Y-102244904D01*
X170838809Y-102197285D01*
X171076904Y-102197285D01*
X171172142Y-102244904D01*
X171219761Y-102292523D01*
X171267380Y-102387761D01*
X171267380Y-102625857D01*
X171219761Y-102721095D01*
X171172142Y-102768714D01*
G04 #@! TO.C,C6*
X158329333Y-96623142D02*
X158281714Y-96670761D01*
X158138857Y-96718380D01*
X158043619Y-96718380D01*
X157900761Y-96670761D01*
X157805523Y-96575523D01*
X157757904Y-96480285D01*
X157710285Y-96289809D01*
X157710285Y-96146952D01*
X157757904Y-95956476D01*
X157805523Y-95861238D01*
X157900761Y-95766000D01*
X158043619Y-95718380D01*
X158138857Y-95718380D01*
X158281714Y-95766000D01*
X158329333Y-95813619D01*
X159186476Y-95718380D02*
X158996000Y-95718380D01*
X158900761Y-95766000D01*
X158853142Y-95813619D01*
X158757904Y-95956476D01*
X158710285Y-96146952D01*
X158710285Y-96527904D01*
X158757904Y-96623142D01*
X158805523Y-96670761D01*
X158900761Y-96718380D01*
X159091238Y-96718380D01*
X159186476Y-96670761D01*
X159234095Y-96623142D01*
X159281714Y-96527904D01*
X159281714Y-96289809D01*
X159234095Y-96194571D01*
X159186476Y-96146952D01*
X159091238Y-96099333D01*
X158900761Y-96099333D01*
X158805523Y-96146952D01*
X158757904Y-96194571D01*
X158710285Y-96289809D01*
G04 #@! TO.C,C7*
X165441333Y-105513142D02*
X165393714Y-105560761D01*
X165250857Y-105608380D01*
X165155619Y-105608380D01*
X165012761Y-105560761D01*
X164917523Y-105465523D01*
X164869904Y-105370285D01*
X164822285Y-105179809D01*
X164822285Y-105036952D01*
X164869904Y-104846476D01*
X164917523Y-104751238D01*
X165012761Y-104656000D01*
X165155619Y-104608380D01*
X165250857Y-104608380D01*
X165393714Y-104656000D01*
X165441333Y-104703619D01*
X165774666Y-104608380D02*
X166441333Y-104608380D01*
X166012761Y-105608380D01*
G04 #@! TO.C,C9*
X165441333Y-112117142D02*
X165393714Y-112164761D01*
X165250857Y-112212380D01*
X165155619Y-112212380D01*
X165012761Y-112164761D01*
X164917523Y-112069523D01*
X164869904Y-111974285D01*
X164822285Y-111783809D01*
X164822285Y-111640952D01*
X164869904Y-111450476D01*
X164917523Y-111355238D01*
X165012761Y-111260000D01*
X165155619Y-111212380D01*
X165250857Y-111212380D01*
X165393714Y-111260000D01*
X165441333Y-111307619D01*
X165917523Y-112212380D02*
X166108000Y-112212380D01*
X166203238Y-112164761D01*
X166250857Y-112117142D01*
X166346095Y-111974285D01*
X166393714Y-111783809D01*
X166393714Y-111402857D01*
X166346095Y-111307619D01*
X166298476Y-111260000D01*
X166203238Y-111212380D01*
X166012761Y-111212380D01*
X165917523Y-111260000D01*
X165869904Y-111307619D01*
X165822285Y-111402857D01*
X165822285Y-111640952D01*
X165869904Y-111736190D01*
X165917523Y-111783809D01*
X166012761Y-111831428D01*
X166203238Y-111831428D01*
X166298476Y-111783809D01*
X166346095Y-111736190D01*
X166393714Y-111640952D01*
G04 #@! TO.C,C11*
X143561969Y-96211106D02*
X143561969Y-96278450D01*
X143494625Y-96413137D01*
X143427282Y-96480480D01*
X143292595Y-96547824D01*
X143157908Y-96547824D01*
X143056893Y-96514152D01*
X142888534Y-96413137D01*
X142787519Y-96312122D01*
X142686503Y-96143763D01*
X142652832Y-96042748D01*
X142652832Y-95908061D01*
X142720175Y-95773374D01*
X142787519Y-95706030D01*
X142922206Y-95638687D01*
X142989549Y-95638687D01*
X144302748Y-95605015D02*
X143898687Y-96009076D01*
X144100717Y-95807045D02*
X143393610Y-95099938D01*
X143427282Y-95268297D01*
X143427282Y-95402984D01*
X143393610Y-95504000D01*
X144976183Y-94931580D02*
X144572122Y-95335641D01*
X144774152Y-95133610D02*
X144067045Y-94426503D01*
X144100717Y-94594862D01*
X144100717Y-94729549D01*
X144067045Y-94830564D01*
G04 #@! TO.C,C12*
X144831969Y-97481106D02*
X144831969Y-97548450D01*
X144764625Y-97683137D01*
X144697282Y-97750480D01*
X144562595Y-97817824D01*
X144427908Y-97817824D01*
X144326893Y-97784152D01*
X144158534Y-97683137D01*
X144057519Y-97582122D01*
X143956503Y-97413763D01*
X143922832Y-97312748D01*
X143922832Y-97178061D01*
X143990175Y-97043374D01*
X144057519Y-96976030D01*
X144192206Y-96908687D01*
X144259549Y-96908687D01*
X145572748Y-96875015D02*
X145168687Y-97279076D01*
X145370717Y-97077045D02*
X144663610Y-96369938D01*
X144697282Y-96538297D01*
X144697282Y-96672984D01*
X144663610Y-96774000D01*
X145202358Y-95965877D02*
X145202358Y-95898534D01*
X145236030Y-95797519D01*
X145404389Y-95629160D01*
X145505404Y-95595488D01*
X145572748Y-95595488D01*
X145673763Y-95629160D01*
X145741106Y-95696503D01*
X145808450Y-95831190D01*
X145808450Y-96639312D01*
X146246183Y-96201580D01*
G04 #@! TO.C,C14*
X158361142Y-98401142D02*
X158313523Y-98448761D01*
X158170666Y-98496380D01*
X158075428Y-98496380D01*
X157932571Y-98448761D01*
X157837333Y-98353523D01*
X157789714Y-98258285D01*
X157742095Y-98067809D01*
X157742095Y-97924952D01*
X157789714Y-97734476D01*
X157837333Y-97639238D01*
X157932571Y-97544000D01*
X158075428Y-97496380D01*
X158170666Y-97496380D01*
X158313523Y-97544000D01*
X158361142Y-97591619D01*
X159313523Y-98496380D02*
X158742095Y-98496380D01*
X159027809Y-98496380D02*
X159027809Y-97496380D01*
X158932571Y-97639238D01*
X158837333Y-97734476D01*
X158742095Y-97782095D01*
X160170666Y-97829714D02*
X160170666Y-98496380D01*
X159932571Y-97448761D02*
X159694476Y-98163047D01*
X160313523Y-98163047D01*
G04 #@! TO.C,C15*
X143934448Y-120553850D02*
X143867104Y-120553850D01*
X143732417Y-120486506D01*
X143665074Y-120419163D01*
X143597730Y-120284476D01*
X143597730Y-120149789D01*
X143631402Y-120048774D01*
X143732417Y-119880415D01*
X143833432Y-119779400D01*
X144001791Y-119678384D01*
X144102806Y-119644713D01*
X144237493Y-119644713D01*
X144372180Y-119712056D01*
X144439524Y-119779400D01*
X144506867Y-119914087D01*
X144506867Y-119981430D01*
X144540539Y-121294629D02*
X144136478Y-120890568D01*
X144338509Y-121092598D02*
X145045616Y-120385491D01*
X144877257Y-120419163D01*
X144742570Y-120419163D01*
X144641555Y-120385491D01*
X145887409Y-121227285D02*
X145550692Y-120890568D01*
X145180303Y-121193613D01*
X145247646Y-121193613D01*
X145348661Y-121227285D01*
X145517020Y-121395644D01*
X145550692Y-121496659D01*
X145550692Y-121564003D01*
X145517020Y-121665018D01*
X145348661Y-121833377D01*
X145247646Y-121867048D01*
X145180303Y-121867048D01*
X145079287Y-121833377D01*
X144910929Y-121665018D01*
X144877257Y-121564003D01*
X144877257Y-121496659D01*
G04 #@! TO.C,C16*
X142291969Y-94941106D02*
X142291969Y-95008450D01*
X142224625Y-95143137D01*
X142157282Y-95210480D01*
X142022595Y-95277824D01*
X141887908Y-95277824D01*
X141786893Y-95244152D01*
X141618534Y-95143137D01*
X141517519Y-95042122D01*
X141416503Y-94873763D01*
X141382832Y-94772748D01*
X141382832Y-94638061D01*
X141450175Y-94503374D01*
X141517519Y-94436030D01*
X141652206Y-94368687D01*
X141719549Y-94368687D01*
X143032748Y-94335015D02*
X142628687Y-94739076D01*
X142830717Y-94537045D02*
X142123610Y-93829938D01*
X142157282Y-93998297D01*
X142157282Y-94132984D01*
X142123610Y-94234000D01*
X142931732Y-93021816D02*
X142797045Y-93156503D01*
X142763374Y-93257519D01*
X142763374Y-93324862D01*
X142797045Y-93493221D01*
X142898061Y-93661580D01*
X143167435Y-93930954D01*
X143268450Y-93964625D01*
X143335793Y-93964625D01*
X143436809Y-93930954D01*
X143571496Y-93796267D01*
X143605167Y-93695251D01*
X143605167Y-93627908D01*
X143571496Y-93526893D01*
X143403137Y-93358534D01*
X143302122Y-93324862D01*
X143234778Y-93324862D01*
X143133763Y-93358534D01*
X142999076Y-93493221D01*
X142965404Y-93594236D01*
X142965404Y-93661580D01*
X142999076Y-93762595D01*
G04 #@! TO.C,C17*
X147517142Y-96541857D02*
X147564761Y-96589476D01*
X147612380Y-96732333D01*
X147612380Y-96827571D01*
X147564761Y-96970428D01*
X147469523Y-97065666D01*
X147374285Y-97113285D01*
X147183809Y-97160904D01*
X147040952Y-97160904D01*
X146850476Y-97113285D01*
X146755238Y-97065666D01*
X146660000Y-96970428D01*
X146612380Y-96827571D01*
X146612380Y-96732333D01*
X146660000Y-96589476D01*
X146707619Y-96541857D01*
X147612380Y-95589476D02*
X147612380Y-96160904D01*
X147612380Y-95875190D02*
X146612380Y-95875190D01*
X146755238Y-95970428D01*
X146850476Y-96065666D01*
X146898095Y-96160904D01*
X146612380Y-95256142D02*
X146612380Y-94589476D01*
X147612380Y-95018047D01*
G04 #@! TO.C,C18*
X160506142Y-106369142D02*
X160458523Y-106416761D01*
X160315666Y-106464380D01*
X160220428Y-106464380D01*
X160077571Y-106416761D01*
X159982333Y-106321523D01*
X159934714Y-106226285D01*
X159887095Y-106035809D01*
X159887095Y-105892952D01*
X159934714Y-105702476D01*
X159982333Y-105607238D01*
X160077571Y-105512000D01*
X160220428Y-105464380D01*
X160315666Y-105464380D01*
X160458523Y-105512000D01*
X160506142Y-105559619D01*
X161458523Y-106464380D02*
X160887095Y-106464380D01*
X161172809Y-106464380D02*
X161172809Y-105464380D01*
X161077571Y-105607238D01*
X160982333Y-105702476D01*
X160887095Y-105750095D01*
X162029952Y-105892952D02*
X161934714Y-105845333D01*
X161887095Y-105797714D01*
X161839476Y-105702476D01*
X161839476Y-105654857D01*
X161887095Y-105559619D01*
X161934714Y-105512000D01*
X162029952Y-105464380D01*
X162220428Y-105464380D01*
X162315666Y-105512000D01*
X162363285Y-105559619D01*
X162410904Y-105654857D01*
X162410904Y-105702476D01*
X162363285Y-105797714D01*
X162315666Y-105845333D01*
X162220428Y-105892952D01*
X162029952Y-105892952D01*
X161934714Y-105940571D01*
X161887095Y-105988190D01*
X161839476Y-106083428D01*
X161839476Y-106273904D01*
X161887095Y-106369142D01*
X161934714Y-106416761D01*
X162029952Y-106464380D01*
X162220428Y-106464380D01*
X162315666Y-106416761D01*
X162363285Y-106369142D01*
X162410904Y-106273904D01*
X162410904Y-106083428D01*
X162363285Y-105988190D01*
X162315666Y-105940571D01*
X162220428Y-105892952D01*
G04 #@! TO.C,R3*
X160234333Y-123134380D02*
X159901000Y-122658190D01*
X159662904Y-123134380D02*
X159662904Y-122134380D01*
X160043857Y-122134380D01*
X160139095Y-122182000D01*
X160186714Y-122229619D01*
X160234333Y-122324857D01*
X160234333Y-122467714D01*
X160186714Y-122562952D01*
X160139095Y-122610571D01*
X160043857Y-122658190D01*
X159662904Y-122658190D01*
X160567666Y-122134380D02*
X161186714Y-122134380D01*
X160853380Y-122515333D01*
X160996238Y-122515333D01*
X161091476Y-122562952D01*
X161139095Y-122610571D01*
X161186714Y-122705809D01*
X161186714Y-122943904D01*
X161139095Y-123039142D01*
X161091476Y-123086761D01*
X160996238Y-123134380D01*
X160710523Y-123134380D01*
X160615285Y-123086761D01*
X160567666Y-123039142D01*
G04 #@! TO.C,R4*
X160726380Y-126150666D02*
X160250190Y-126484000D01*
X160726380Y-126722095D02*
X159726380Y-126722095D01*
X159726380Y-126341142D01*
X159774000Y-126245904D01*
X159821619Y-126198285D01*
X159916857Y-126150666D01*
X160059714Y-126150666D01*
X160154952Y-126198285D01*
X160202571Y-126245904D01*
X160250190Y-126341142D01*
X160250190Y-126722095D01*
X160059714Y-125293523D02*
X160726380Y-125293523D01*
X159678761Y-125531619D02*
X160393047Y-125769714D01*
X160393047Y-125150666D01*
G04 #@! TO.C,R5*
X168348333Y-99352380D02*
X168015000Y-98876190D01*
X167776904Y-99352380D02*
X167776904Y-98352380D01*
X168157857Y-98352380D01*
X168253095Y-98400000D01*
X168300714Y-98447619D01*
X168348333Y-98542857D01*
X168348333Y-98685714D01*
X168300714Y-98780952D01*
X168253095Y-98828571D01*
X168157857Y-98876190D01*
X167776904Y-98876190D01*
X169253095Y-98352380D02*
X168776904Y-98352380D01*
X168729285Y-98828571D01*
X168776904Y-98780952D01*
X168872142Y-98733333D01*
X169110238Y-98733333D01*
X169205476Y-98780952D01*
X169253095Y-98828571D01*
X169300714Y-98923809D01*
X169300714Y-99161904D01*
X169253095Y-99257142D01*
X169205476Y-99304761D01*
X169110238Y-99352380D01*
X168872142Y-99352380D01*
X168776904Y-99304761D01*
X168729285Y-99257142D01*
G04 #@! TO.C,R6*
X166822380Y-103036666D02*
X166346190Y-103370000D01*
X166822380Y-103608095D02*
X165822380Y-103608095D01*
X165822380Y-103227142D01*
X165870000Y-103131904D01*
X165917619Y-103084285D01*
X166012857Y-103036666D01*
X166155714Y-103036666D01*
X166250952Y-103084285D01*
X166298571Y-103131904D01*
X166346190Y-103227142D01*
X166346190Y-103608095D01*
X165822380Y-102179523D02*
X165822380Y-102370000D01*
X165870000Y-102465238D01*
X165917619Y-102512857D01*
X166060476Y-102608095D01*
X166250952Y-102655714D01*
X166631904Y-102655714D01*
X166727142Y-102608095D01*
X166774761Y-102560476D01*
X166822380Y-102465238D01*
X166822380Y-102274761D01*
X166774761Y-102179523D01*
X166727142Y-102131904D01*
X166631904Y-102084285D01*
X166393809Y-102084285D01*
X166298571Y-102131904D01*
X166250952Y-102179523D01*
X166203333Y-102274761D01*
X166203333Y-102465238D01*
X166250952Y-102560476D01*
X166298571Y-102608095D01*
X166393809Y-102655714D01*
G04 #@! TO.C,R11*
X158361142Y-91638380D02*
X158027809Y-91162190D01*
X157789714Y-91638380D02*
X157789714Y-90638380D01*
X158170666Y-90638380D01*
X158265904Y-90686000D01*
X158313523Y-90733619D01*
X158361142Y-90828857D01*
X158361142Y-90971714D01*
X158313523Y-91066952D01*
X158265904Y-91114571D01*
X158170666Y-91162190D01*
X157789714Y-91162190D01*
X159313523Y-91638380D02*
X158742095Y-91638380D01*
X159027809Y-91638380D02*
X159027809Y-90638380D01*
X158932571Y-90781238D01*
X158837333Y-90876476D01*
X158742095Y-90924095D01*
X160265904Y-91638380D02*
X159694476Y-91638380D01*
X159980190Y-91638380D02*
X159980190Y-90638380D01*
X159884952Y-90781238D01*
X159789714Y-90876476D01*
X159694476Y-90924095D01*
G04 #@! TO.C,R12*
X157472142Y-114498380D02*
X157138809Y-114022190D01*
X156900714Y-114498380D02*
X156900714Y-113498380D01*
X157281666Y-113498380D01*
X157376904Y-113546000D01*
X157424523Y-113593619D01*
X157472142Y-113688857D01*
X157472142Y-113831714D01*
X157424523Y-113926952D01*
X157376904Y-113974571D01*
X157281666Y-114022190D01*
X156900714Y-114022190D01*
X158424523Y-114498380D02*
X157853095Y-114498380D01*
X158138809Y-114498380D02*
X158138809Y-113498380D01*
X158043571Y-113641238D01*
X157948333Y-113736476D01*
X157853095Y-113784095D01*
X158805476Y-113593619D02*
X158853095Y-113546000D01*
X158948333Y-113498380D01*
X159186428Y-113498380D01*
X159281666Y-113546000D01*
X159329285Y-113593619D01*
X159376904Y-113688857D01*
X159376904Y-113784095D01*
X159329285Y-113926952D01*
X158757857Y-114498380D01*
X159376904Y-114498380D01*
G04 #@! TO.C,R14*
X160774142Y-111196380D02*
X160440809Y-110720190D01*
X160202714Y-111196380D02*
X160202714Y-110196380D01*
X160583666Y-110196380D01*
X160678904Y-110244000D01*
X160726523Y-110291619D01*
X160774142Y-110386857D01*
X160774142Y-110529714D01*
X160726523Y-110624952D01*
X160678904Y-110672571D01*
X160583666Y-110720190D01*
X160202714Y-110720190D01*
X161726523Y-111196380D02*
X161155095Y-111196380D01*
X161440809Y-111196380D02*
X161440809Y-110196380D01*
X161345571Y-110339238D01*
X161250333Y-110434476D01*
X161155095Y-110482095D01*
X162583666Y-110529714D02*
X162583666Y-111196380D01*
X162345571Y-110148761D02*
X162107476Y-110863047D01*
X162726523Y-110863047D01*
G04 #@! TO.C,C19*
X160377142Y-94481857D02*
X160424761Y-94529476D01*
X160472380Y-94672333D01*
X160472380Y-94767571D01*
X160424761Y-94910428D01*
X160329523Y-95005666D01*
X160234285Y-95053285D01*
X160043809Y-95100904D01*
X159900952Y-95100904D01*
X159710476Y-95053285D01*
X159615238Y-95005666D01*
X159520000Y-94910428D01*
X159472380Y-94767571D01*
X159472380Y-94672333D01*
X159520000Y-94529476D01*
X159567619Y-94481857D01*
X160472380Y-93529476D02*
X160472380Y-94100904D01*
X160472380Y-93815190D02*
X159472380Y-93815190D01*
X159615238Y-93910428D01*
X159710476Y-94005666D01*
X159758095Y-94100904D01*
X160472380Y-93053285D02*
X160472380Y-92862809D01*
X160424761Y-92767571D01*
X160377142Y-92719952D01*
X160234285Y-92624714D01*
X160043809Y-92577095D01*
X159662857Y-92577095D01*
X159567619Y-92624714D01*
X159520000Y-92672333D01*
X159472380Y-92767571D01*
X159472380Y-92958047D01*
X159520000Y-93053285D01*
X159567619Y-93100904D01*
X159662857Y-93148523D01*
X159900952Y-93148523D01*
X159996190Y-93100904D01*
X160043809Y-93053285D01*
X160091428Y-92958047D01*
X160091428Y-92767571D01*
X160043809Y-92672333D01*
X159996190Y-92624714D01*
X159900952Y-92577095D01*
G04 #@! TO.C,D1*
X161186904Y-93543380D02*
X161186904Y-92543380D01*
X161425000Y-92543380D01*
X161567857Y-92591000D01*
X161663095Y-92686238D01*
X161710714Y-92781476D01*
X161758333Y-92971952D01*
X161758333Y-93114809D01*
X161710714Y-93305285D01*
X161663095Y-93400523D01*
X161567857Y-93495761D01*
X161425000Y-93543380D01*
X161186904Y-93543380D01*
X162710714Y-93543380D02*
X162139285Y-93543380D01*
X162425000Y-93543380D02*
X162425000Y-92543380D01*
X162329761Y-92686238D01*
X162234523Y-92781476D01*
X162139285Y-92829095D01*
G04 #@! TO.C,R18*
X165092142Y-93543380D02*
X164758809Y-93067190D01*
X164520714Y-93543380D02*
X164520714Y-92543380D01*
X164901666Y-92543380D01*
X164996904Y-92591000D01*
X165044523Y-92638619D01*
X165092142Y-92733857D01*
X165092142Y-92876714D01*
X165044523Y-92971952D01*
X164996904Y-93019571D01*
X164901666Y-93067190D01*
X164520714Y-93067190D01*
X166044523Y-93543380D02*
X165473095Y-93543380D01*
X165758809Y-93543380D02*
X165758809Y-92543380D01*
X165663571Y-92686238D01*
X165568333Y-92781476D01*
X165473095Y-92829095D01*
X166615952Y-92971952D02*
X166520714Y-92924333D01*
X166473095Y-92876714D01*
X166425476Y-92781476D01*
X166425476Y-92733857D01*
X166473095Y-92638619D01*
X166520714Y-92591000D01*
X166615952Y-92543380D01*
X166806428Y-92543380D01*
X166901666Y-92591000D01*
X166949285Y-92638619D01*
X166996904Y-92733857D01*
X166996904Y-92781476D01*
X166949285Y-92876714D01*
X166901666Y-92924333D01*
X166806428Y-92971952D01*
X166615952Y-92971952D01*
X166520714Y-93019571D01*
X166473095Y-93067190D01*
X166425476Y-93162428D01*
X166425476Y-93352904D01*
X166473095Y-93448142D01*
X166520714Y-93495761D01*
X166615952Y-93543380D01*
X166806428Y-93543380D01*
X166901666Y-93495761D01*
X166949285Y-93448142D01*
X166996904Y-93352904D01*
X166996904Y-93162428D01*
X166949285Y-93067190D01*
X166901666Y-93019571D01*
X166806428Y-92971952D01*
G04 #@! TD*
M02*
