G04 #@! TF.GenerationSoftware,KiCad,Pcbnew,(5.0.2)-1*
G04 #@! TF.CreationDate,2020-01-13T13:35:34-06:00*
G04 #@! TF.ProjectId,TM4C129-Breakout_Hardware,544d3443-3132-4392-9d42-7265616b6f75,rev?*
G04 #@! TF.SameCoordinates,Original*
G04 #@! TF.FileFunction,Legend,Bot*
G04 #@! TF.FilePolarity,Positive*
%FSLAX46Y46*%
G04 Gerber Fmt 4.6, Leading zero omitted, Abs format (unit mm)*
G04 Created by KiCad (PCBNEW (5.0.2)-1) date 1/13/2020 1:35:34 PM*
%MOMM*%
%LPD*%
G01*
G04 APERTURE LIST*
%ADD10C,0.300000*%
%ADD11C,0.120000*%
%ADD12C,0.010000*%
%ADD13C,0.150000*%
G04 APERTURE END LIST*
D10*
X53002142Y-5513571D02*
X52145000Y-5513571D01*
X52573571Y-7013571D02*
X52573571Y-5513571D01*
X51645000Y-7013571D02*
X51645000Y-5513571D01*
X51145000Y-6585000D01*
X50645000Y-5513571D01*
X50645000Y-7013571D01*
X49287857Y-6013571D02*
X49287857Y-7013571D01*
X49645000Y-5442142D02*
X50002142Y-6513571D01*
X49073571Y-6513571D01*
X47645000Y-6870714D02*
X47716428Y-6942142D01*
X47930714Y-7013571D01*
X48073571Y-7013571D01*
X48287857Y-6942142D01*
X48430714Y-6799285D01*
X48502142Y-6656428D01*
X48573571Y-6370714D01*
X48573571Y-6156428D01*
X48502142Y-5870714D01*
X48430714Y-5727857D01*
X48287857Y-5585000D01*
X48073571Y-5513571D01*
X47930714Y-5513571D01*
X47716428Y-5585000D01*
X47645000Y-5656428D01*
X46216428Y-7013571D02*
X47073571Y-7013571D01*
X46645000Y-7013571D02*
X46645000Y-5513571D01*
X46787857Y-5727857D01*
X46930714Y-5870714D01*
X47073571Y-5942142D01*
X45645000Y-5656428D02*
X45573571Y-5585000D01*
X45430714Y-5513571D01*
X45073571Y-5513571D01*
X44930714Y-5585000D01*
X44859285Y-5656428D01*
X44787857Y-5799285D01*
X44787857Y-5942142D01*
X44859285Y-6156428D01*
X45716428Y-7013571D01*
X44787857Y-7013571D01*
X44073571Y-7013571D02*
X43787857Y-7013571D01*
X43645000Y-6942142D01*
X43573571Y-6870714D01*
X43430714Y-6656428D01*
X43359285Y-6370714D01*
X43359285Y-5799285D01*
X43430714Y-5656428D01*
X43502142Y-5585000D01*
X43645000Y-5513571D01*
X43930714Y-5513571D01*
X44073571Y-5585000D01*
X44145000Y-5656428D01*
X44216428Y-5799285D01*
X44216428Y-6156428D01*
X44145000Y-6299285D01*
X44073571Y-6370714D01*
X43930714Y-6442142D01*
X43645000Y-6442142D01*
X43502142Y-6370714D01*
X43430714Y-6299285D01*
X43359285Y-6156428D01*
X41073571Y-6227857D02*
X40859285Y-6299285D01*
X40787857Y-6370714D01*
X40716428Y-6513571D01*
X40716428Y-6727857D01*
X40787857Y-6870714D01*
X40859285Y-6942142D01*
X41002142Y-7013571D01*
X41573571Y-7013571D01*
X41573571Y-5513571D01*
X41073571Y-5513571D01*
X40930714Y-5585000D01*
X40859285Y-5656428D01*
X40787857Y-5799285D01*
X40787857Y-5942142D01*
X40859285Y-6085000D01*
X40930714Y-6156428D01*
X41073571Y-6227857D01*
X41573571Y-6227857D01*
X40073571Y-7013571D02*
X40073571Y-6013571D01*
X40073571Y-6299285D02*
X40002142Y-6156428D01*
X39930714Y-6085000D01*
X39787857Y-6013571D01*
X39645000Y-6013571D01*
X38573571Y-6942142D02*
X38716428Y-7013571D01*
X39002142Y-7013571D01*
X39145000Y-6942142D01*
X39216428Y-6799285D01*
X39216428Y-6227857D01*
X39145000Y-6085000D01*
X39002142Y-6013571D01*
X38716428Y-6013571D01*
X38573571Y-6085000D01*
X38502142Y-6227857D01*
X38502142Y-6370714D01*
X39216428Y-6513571D01*
X37216428Y-7013571D02*
X37216428Y-6227857D01*
X37287857Y-6085000D01*
X37430714Y-6013571D01*
X37716428Y-6013571D01*
X37859285Y-6085000D01*
X37216428Y-6942142D02*
X37359285Y-7013571D01*
X37716428Y-7013571D01*
X37859285Y-6942142D01*
X37930714Y-6799285D01*
X37930714Y-6656428D01*
X37859285Y-6513571D01*
X37716428Y-6442142D01*
X37359285Y-6442142D01*
X37216428Y-6370714D01*
X36502142Y-7013571D02*
X36502142Y-5513571D01*
X36359285Y-6442142D02*
X35930714Y-7013571D01*
X35930714Y-6013571D02*
X36502142Y-6585000D01*
X35073571Y-7013571D02*
X35216428Y-6942142D01*
X35287857Y-6870714D01*
X35359285Y-6727857D01*
X35359285Y-6299285D01*
X35287857Y-6156428D01*
X35216428Y-6085000D01*
X35073571Y-6013571D01*
X34859285Y-6013571D01*
X34716428Y-6085000D01*
X34645000Y-6156428D01*
X34573571Y-6299285D01*
X34573571Y-6727857D01*
X34645000Y-6870714D01*
X34716428Y-6942142D01*
X34859285Y-7013571D01*
X35073571Y-7013571D01*
X33287857Y-6013571D02*
X33287857Y-7013571D01*
X33930714Y-6013571D02*
X33930714Y-6799285D01*
X33859285Y-6942142D01*
X33716428Y-7013571D01*
X33502142Y-7013571D01*
X33359285Y-6942142D01*
X33287857Y-6870714D01*
X32787857Y-6013571D02*
X32216428Y-6013571D01*
X32573571Y-5513571D02*
X32573571Y-6799285D01*
X32502142Y-6942142D01*
X32359285Y-7013571D01*
X32216428Y-7013571D01*
X31645000Y-6942142D02*
X31645000Y-7013571D01*
X31716428Y-7156428D01*
X31787857Y-7227857D01*
X29002142Y-7013571D02*
X29502142Y-6299285D01*
X29859285Y-7013571D02*
X29859285Y-5513571D01*
X29287857Y-5513571D01*
X29145000Y-5585000D01*
X29073571Y-5656428D01*
X29002142Y-5799285D01*
X29002142Y-6013571D01*
X29073571Y-6156428D01*
X29145000Y-6227857D01*
X29287857Y-6299285D01*
X29859285Y-6299285D01*
X27787857Y-6942142D02*
X27930714Y-7013571D01*
X28216428Y-7013571D01*
X28359285Y-6942142D01*
X28430714Y-6799285D01*
X28430714Y-6227857D01*
X28359285Y-6085000D01*
X28216428Y-6013571D01*
X27930714Y-6013571D01*
X27787857Y-6085000D01*
X27716428Y-6227857D01*
X27716428Y-6370714D01*
X28430714Y-6513571D01*
X27216428Y-6013571D02*
X26859285Y-7013571D01*
X26502142Y-6013571D01*
X24859285Y-5656428D02*
X24787857Y-5585000D01*
X24645000Y-5513571D01*
X24287857Y-5513571D01*
X24145000Y-5585000D01*
X24073571Y-5656428D01*
X24002142Y-5799285D01*
X24002142Y-5942142D01*
X24073571Y-6156428D01*
X24930714Y-7013571D01*
X24002142Y-7013571D01*
X52787857Y-9563571D02*
X52787857Y-8063571D01*
X52287857Y-9135000D01*
X51787857Y-8063571D01*
X51787857Y-9563571D01*
X50430714Y-9563571D02*
X50430714Y-8777857D01*
X50502142Y-8635000D01*
X50645000Y-8563571D01*
X50930714Y-8563571D01*
X51073571Y-8635000D01*
X50430714Y-9492142D02*
X50573571Y-9563571D01*
X50930714Y-9563571D01*
X51073571Y-9492142D01*
X51145000Y-9349285D01*
X51145000Y-9206428D01*
X51073571Y-9063571D01*
X50930714Y-8992142D01*
X50573571Y-8992142D01*
X50430714Y-8920714D01*
X49716428Y-9563571D02*
X49716428Y-8563571D01*
X49716428Y-8849285D02*
X49645000Y-8706428D01*
X49573571Y-8635000D01*
X49430714Y-8563571D01*
X49287857Y-8563571D01*
X48859285Y-9492142D02*
X48716428Y-9563571D01*
X48430714Y-9563571D01*
X48287857Y-9492142D01*
X48216428Y-9349285D01*
X48216428Y-9277857D01*
X48287857Y-9135000D01*
X48430714Y-9063571D01*
X48645000Y-9063571D01*
X48787857Y-8992142D01*
X48859285Y-8849285D01*
X48859285Y-8777857D01*
X48787857Y-8635000D01*
X48645000Y-8563571D01*
X48430714Y-8563571D01*
X48287857Y-8635000D01*
X45573571Y-9563571D02*
X46073571Y-8849285D01*
X46430714Y-9563571D02*
X46430714Y-8063571D01*
X45859285Y-8063571D01*
X45716428Y-8135000D01*
X45645000Y-8206428D01*
X45573571Y-8349285D01*
X45573571Y-8563571D01*
X45645000Y-8706428D01*
X45716428Y-8777857D01*
X45859285Y-8849285D01*
X46430714Y-8849285D01*
X44716428Y-9563571D02*
X44859285Y-9492142D01*
X44930714Y-9420714D01*
X45002142Y-9277857D01*
X45002142Y-8849285D01*
X44930714Y-8706428D01*
X44859285Y-8635000D01*
X44716428Y-8563571D01*
X44502142Y-8563571D01*
X44359285Y-8635000D01*
X44287857Y-8706428D01*
X44216428Y-8849285D01*
X44216428Y-9277857D01*
X44287857Y-9420714D01*
X44359285Y-9492142D01*
X44502142Y-9563571D01*
X44716428Y-9563571D01*
X43716428Y-8563571D02*
X43359285Y-9563571D01*
X43002142Y-8563571D01*
X41859285Y-9492142D02*
X42002142Y-9563571D01*
X42287857Y-9563571D01*
X42430714Y-9492142D01*
X42502142Y-9349285D01*
X42502142Y-8777857D01*
X42430714Y-8635000D01*
X42287857Y-8563571D01*
X42002142Y-8563571D01*
X41859285Y-8635000D01*
X41787857Y-8777857D01*
X41787857Y-8920714D01*
X42502142Y-9063571D01*
X41145000Y-9563571D02*
X41145000Y-8563571D01*
X41145000Y-8849285D02*
X41073571Y-8706428D01*
X41002142Y-8635000D01*
X40859285Y-8563571D01*
X40716428Y-8563571D01*
X39073571Y-9563571D02*
X39073571Y-8063571D01*
X38716428Y-8063571D01*
X38502142Y-8135000D01*
X38359285Y-8277857D01*
X38287857Y-8420714D01*
X38216428Y-8706428D01*
X38216428Y-8920714D01*
X38287857Y-9206428D01*
X38359285Y-9349285D01*
X38502142Y-9492142D01*
X38716428Y-9563571D01*
X39073571Y-9563571D01*
X37002142Y-9492142D02*
X37145000Y-9563571D01*
X37430714Y-9563571D01*
X37573571Y-9492142D01*
X37645000Y-9349285D01*
X37645000Y-8777857D01*
X37573571Y-8635000D01*
X37430714Y-8563571D01*
X37145000Y-8563571D01*
X37002142Y-8635000D01*
X36930714Y-8777857D01*
X36930714Y-8920714D01*
X37645000Y-9063571D01*
X36359285Y-9492142D02*
X36216428Y-9563571D01*
X35930714Y-9563571D01*
X35787857Y-9492142D01*
X35716428Y-9349285D01*
X35716428Y-9277857D01*
X35787857Y-9135000D01*
X35930714Y-9063571D01*
X36145000Y-9063571D01*
X36287857Y-8992142D01*
X36359285Y-8849285D01*
X36359285Y-8777857D01*
X36287857Y-8635000D01*
X36145000Y-8563571D01*
X35930714Y-8563571D01*
X35787857Y-8635000D01*
X35073571Y-9563571D02*
X35073571Y-8563571D01*
X35073571Y-8063571D02*
X35145000Y-8135000D01*
X35073571Y-8206428D01*
X35002142Y-8135000D01*
X35073571Y-8063571D01*
X35073571Y-8206428D01*
X33716428Y-8563571D02*
X33716428Y-9777857D01*
X33787857Y-9920714D01*
X33859285Y-9992142D01*
X34002142Y-10063571D01*
X34216428Y-10063571D01*
X34359285Y-9992142D01*
X33716428Y-9492142D02*
X33859285Y-9563571D01*
X34145000Y-9563571D01*
X34287857Y-9492142D01*
X34359285Y-9420714D01*
X34430714Y-9277857D01*
X34430714Y-8849285D01*
X34359285Y-8706428D01*
X34287857Y-8635000D01*
X34145000Y-8563571D01*
X33859285Y-8563571D01*
X33716428Y-8635000D01*
X33002142Y-8563571D02*
X33002142Y-9563571D01*
X33002142Y-8706428D02*
X32930714Y-8635000D01*
X32787857Y-8563571D01*
X32573571Y-8563571D01*
X32430714Y-8635000D01*
X32359285Y-8777857D01*
X32359285Y-9563571D01*
X30716428Y-8063571D02*
X29859285Y-8063571D01*
X30287857Y-9563571D02*
X30287857Y-8063571D01*
X28787857Y-9492142D02*
X28930714Y-9563571D01*
X29216428Y-9563571D01*
X29359285Y-9492142D01*
X29430714Y-9349285D01*
X29430714Y-8777857D01*
X29359285Y-8635000D01*
X29216428Y-8563571D01*
X28930714Y-8563571D01*
X28787857Y-8635000D01*
X28716428Y-8777857D01*
X28716428Y-8920714D01*
X29430714Y-9063571D01*
X27430714Y-9563571D02*
X27430714Y-8777857D01*
X27502142Y-8635000D01*
X27645000Y-8563571D01*
X27930714Y-8563571D01*
X28073571Y-8635000D01*
X27430714Y-9492142D02*
X27573571Y-9563571D01*
X27930714Y-9563571D01*
X28073571Y-9492142D01*
X28145000Y-9349285D01*
X28145000Y-9206428D01*
X28073571Y-9063571D01*
X27930714Y-8992142D01*
X27573571Y-8992142D01*
X27430714Y-8920714D01*
X26716428Y-9563571D02*
X26716428Y-8563571D01*
X26716428Y-8706428D02*
X26645000Y-8635000D01*
X26502142Y-8563571D01*
X26287857Y-8563571D01*
X26145000Y-8635000D01*
X26073571Y-8777857D01*
X26073571Y-9563571D01*
X26073571Y-8777857D02*
X26002142Y-8635000D01*
X25859285Y-8563571D01*
X25645000Y-8563571D01*
X25502142Y-8635000D01*
X25430714Y-8777857D01*
X25430714Y-9563571D01*
X52787857Y-12113571D02*
X52787857Y-10613571D01*
X52287857Y-11685000D01*
X51787857Y-10613571D01*
X51787857Y-12113571D01*
X51073571Y-12113571D02*
X51073571Y-11113571D01*
X51073571Y-10613571D02*
X51145000Y-10685000D01*
X51073571Y-10756428D01*
X51002142Y-10685000D01*
X51073571Y-10613571D01*
X51073571Y-10756428D01*
X50430714Y-12042142D02*
X50287857Y-12113571D01*
X50002142Y-12113571D01*
X49859285Y-12042142D01*
X49787857Y-11899285D01*
X49787857Y-11827857D01*
X49859285Y-11685000D01*
X50002142Y-11613571D01*
X50216428Y-11613571D01*
X50359285Y-11542142D01*
X50430714Y-11399285D01*
X50430714Y-11327857D01*
X50359285Y-11185000D01*
X50216428Y-11113571D01*
X50002142Y-11113571D01*
X49859285Y-11185000D01*
X49216428Y-12042142D02*
X49073571Y-12113571D01*
X48787857Y-12113571D01*
X48645000Y-12042142D01*
X48573571Y-11899285D01*
X48573571Y-11827857D01*
X48645000Y-11685000D01*
X48787857Y-11613571D01*
X49002142Y-11613571D01*
X49145000Y-11542142D01*
X49216428Y-11399285D01*
X49216428Y-11327857D01*
X49145000Y-11185000D01*
X49002142Y-11113571D01*
X48787857Y-11113571D01*
X48645000Y-11185000D01*
X47716428Y-12113571D02*
X47859285Y-12042142D01*
X47930714Y-11970714D01*
X48002142Y-11827857D01*
X48002142Y-11399285D01*
X47930714Y-11256428D01*
X47859285Y-11185000D01*
X47716428Y-11113571D01*
X47502142Y-11113571D01*
X47359285Y-11185000D01*
X47287857Y-11256428D01*
X47216428Y-11399285D01*
X47216428Y-11827857D01*
X47287857Y-11970714D01*
X47359285Y-12042142D01*
X47502142Y-12113571D01*
X47716428Y-12113571D01*
X45930714Y-11113571D02*
X45930714Y-12113571D01*
X46573571Y-11113571D02*
X46573571Y-11899285D01*
X46502142Y-12042142D01*
X46359285Y-12113571D01*
X46145000Y-12113571D01*
X46002142Y-12042142D01*
X45930714Y-11970714D01*
X45216428Y-12113571D02*
X45216428Y-11113571D01*
X45216428Y-11399285D02*
X45145000Y-11256428D01*
X45073571Y-11185000D01*
X44930714Y-11113571D01*
X44787857Y-11113571D01*
X44287857Y-12113571D02*
X44287857Y-11113571D01*
X44287857Y-10613571D02*
X44359285Y-10685000D01*
X44287857Y-10756428D01*
X44216428Y-10685000D01*
X44287857Y-10613571D01*
X44287857Y-10756428D01*
X42502142Y-12042142D02*
X42287857Y-12113571D01*
X41930714Y-12113571D01*
X41787857Y-12042142D01*
X41716428Y-11970714D01*
X41645000Y-11827857D01*
X41645000Y-11685000D01*
X41716428Y-11542142D01*
X41787857Y-11470714D01*
X41930714Y-11399285D01*
X42216428Y-11327857D01*
X42359285Y-11256428D01*
X42430714Y-11185000D01*
X42502142Y-11042142D01*
X42502142Y-10899285D01*
X42430714Y-10756428D01*
X42359285Y-10685000D01*
X42216428Y-10613571D01*
X41859285Y-10613571D01*
X41645000Y-10685000D01*
X39787857Y-12113571D02*
X39859285Y-12113571D01*
X40002142Y-12042142D01*
X40216428Y-11827857D01*
X40573571Y-11399285D01*
X40716428Y-11185000D01*
X40787857Y-10970714D01*
X40787857Y-10827857D01*
X40716428Y-10685000D01*
X40573571Y-10613571D01*
X40502142Y-10613571D01*
X40359285Y-10685000D01*
X40287857Y-10827857D01*
X40287857Y-10899285D01*
X40359285Y-11042142D01*
X40430714Y-11113571D01*
X40859285Y-11399285D01*
X40930714Y-11470714D01*
X41002142Y-11613571D01*
X41002142Y-11827857D01*
X40930714Y-11970714D01*
X40859285Y-12042142D01*
X40716428Y-12113571D01*
X40502142Y-12113571D01*
X40359285Y-12042142D01*
X40287857Y-11970714D01*
X40073571Y-11685000D01*
X40002142Y-11470714D01*
X40002142Y-11327857D01*
X39359285Y-10613571D02*
X38502142Y-10613571D01*
X38930714Y-12113571D02*
X38930714Y-10613571D01*
X37930714Y-12042142D02*
X37930714Y-12113571D01*
X38002142Y-12256428D01*
X38073571Y-12327857D01*
X36216428Y-10756428D02*
X36145000Y-10685000D01*
X36002142Y-10613571D01*
X35645000Y-10613571D01*
X35502142Y-10685000D01*
X35430714Y-10756428D01*
X35359285Y-10899285D01*
X35359285Y-11042142D01*
X35430714Y-11256428D01*
X36287857Y-12113571D01*
X35359285Y-12113571D01*
X34430714Y-10613571D02*
X34287857Y-10613571D01*
X34145000Y-10685000D01*
X34073571Y-10756428D01*
X34002142Y-10899285D01*
X33930714Y-11185000D01*
X33930714Y-11542142D01*
X34002142Y-11827857D01*
X34073571Y-11970714D01*
X34145000Y-12042142D01*
X34287857Y-12113571D01*
X34430714Y-12113571D01*
X34573571Y-12042142D01*
X34645000Y-11970714D01*
X34716428Y-11827857D01*
X34787857Y-11542142D01*
X34787857Y-11185000D01*
X34716428Y-10899285D01*
X34645000Y-10756428D01*
X34573571Y-10685000D01*
X34430714Y-10613571D01*
X33359285Y-10756428D02*
X33287857Y-10685000D01*
X33145000Y-10613571D01*
X32787857Y-10613571D01*
X32645000Y-10685000D01*
X32573571Y-10756428D01*
X32502142Y-10899285D01*
X32502142Y-11042142D01*
X32573571Y-11256428D01*
X33430714Y-12113571D01*
X32502142Y-12113571D01*
X31573571Y-10613571D02*
X31430714Y-10613571D01*
X31287857Y-10685000D01*
X31216428Y-10756428D01*
X31145000Y-10899285D01*
X31073571Y-11185000D01*
X31073571Y-11542142D01*
X31145000Y-11827857D01*
X31216428Y-11970714D01*
X31287857Y-12042142D01*
X31430714Y-12113571D01*
X31573571Y-12113571D01*
X31716428Y-12042142D01*
X31787857Y-11970714D01*
X31859285Y-11827857D01*
X31930714Y-11542142D01*
X31930714Y-11185000D01*
X31859285Y-10899285D01*
X31787857Y-10756428D01*
X31716428Y-10685000D01*
X31573571Y-10613571D01*
X52859285Y-14235000D02*
X52145000Y-14235000D01*
X53002142Y-14663571D02*
X52502142Y-13163571D01*
X52002142Y-14663571D01*
X51502142Y-13663571D02*
X51502142Y-14663571D01*
X51502142Y-13806428D02*
X51430714Y-13735000D01*
X51287857Y-13663571D01*
X51073571Y-13663571D01*
X50930714Y-13735000D01*
X50859285Y-13877857D01*
X50859285Y-14663571D01*
X49502142Y-14663571D02*
X49502142Y-13163571D01*
X49502142Y-14592142D02*
X49645000Y-14663571D01*
X49930714Y-14663571D01*
X50073571Y-14592142D01*
X50145000Y-14520714D01*
X50216428Y-14377857D01*
X50216428Y-13949285D01*
X50145000Y-13806428D01*
X50073571Y-13735000D01*
X49930714Y-13663571D01*
X49645000Y-13663571D01*
X49502142Y-13735000D01*
X48787857Y-14663571D02*
X48787857Y-13663571D01*
X48787857Y-13949285D02*
X48716428Y-13806428D01*
X48645000Y-13735000D01*
X48502142Y-13663571D01*
X48359285Y-13663571D01*
X47287857Y-14592142D02*
X47430714Y-14663571D01*
X47716428Y-14663571D01*
X47859285Y-14592142D01*
X47930714Y-14449285D01*
X47930714Y-13877857D01*
X47859285Y-13735000D01*
X47716428Y-13663571D01*
X47430714Y-13663571D01*
X47287857Y-13735000D01*
X47216428Y-13877857D01*
X47216428Y-14020714D01*
X47930714Y-14163571D01*
X46716428Y-13663571D02*
X46430714Y-14663571D01*
X46145000Y-13949285D01*
X45859285Y-14663571D01*
X45573571Y-13663571D01*
X44073571Y-13163571D02*
X43573571Y-14663571D01*
X43073571Y-13163571D01*
X41930714Y-14663571D02*
X41930714Y-13877857D01*
X42002142Y-13735000D01*
X42145000Y-13663571D01*
X42430714Y-13663571D01*
X42573571Y-13735000D01*
X41930714Y-14592142D02*
X42073571Y-14663571D01*
X42430714Y-14663571D01*
X42573571Y-14592142D01*
X42645000Y-14449285D01*
X42645000Y-14306428D01*
X42573571Y-14163571D01*
X42430714Y-14092142D01*
X42073571Y-14092142D01*
X41930714Y-14020714D01*
X41216428Y-13663571D02*
X41216428Y-14663571D01*
X41216428Y-13806428D02*
X41145000Y-13735000D01*
X41002142Y-13663571D01*
X40787857Y-13663571D01*
X40645000Y-13735000D01*
X40573571Y-13877857D01*
X40573571Y-14663571D01*
X38716428Y-14663571D02*
X38716428Y-13163571D01*
X38716428Y-13877857D02*
X37859285Y-13877857D01*
X37859285Y-14663571D02*
X37859285Y-13163571D01*
X36930714Y-14663571D02*
X37073571Y-14592142D01*
X37145000Y-14520714D01*
X37216428Y-14377857D01*
X37216428Y-13949285D01*
X37145000Y-13806428D01*
X37073571Y-13735000D01*
X36930714Y-13663571D01*
X36716428Y-13663571D01*
X36573571Y-13735000D01*
X36502142Y-13806428D01*
X36430714Y-13949285D01*
X36430714Y-14377857D01*
X36502142Y-14520714D01*
X36573571Y-14592142D01*
X36716428Y-14663571D01*
X36930714Y-14663571D01*
X35787857Y-14663571D02*
X35787857Y-13663571D01*
X35787857Y-13949285D02*
X35716428Y-13806428D01*
X35645000Y-13735000D01*
X35502142Y-13663571D01*
X35359285Y-13663571D01*
X34859285Y-13663571D02*
X34859285Y-14663571D01*
X34859285Y-13806428D02*
X34787857Y-13735000D01*
X34645000Y-13663571D01*
X34430714Y-13663571D01*
X34287857Y-13735000D01*
X34216428Y-13877857D01*
X34216428Y-14663571D01*
D11*
G04 #@! TO.C,J4*
X59750000Y-19110000D02*
X54550000Y-19110000D01*
X59750000Y-1270000D02*
X59750000Y-19110000D01*
X54550000Y1330000D02*
X54550000Y-19110000D01*
X59750000Y-1270000D02*
X57150000Y-1270000D01*
X57150000Y-1270000D02*
X57150000Y1330000D01*
X57150000Y1330000D02*
X54550000Y1330000D01*
X59750000Y0D02*
X59750000Y1330000D01*
X59750000Y1330000D02*
X58420000Y1330000D01*
G04 #@! TO.C,J2*
X3870000Y-19110000D02*
X-1330000Y-19110000D01*
X3870000Y-1270000D02*
X3870000Y-19110000D01*
X-1330000Y1330000D02*
X-1330000Y-19110000D01*
X3870000Y-1270000D02*
X1270000Y-1270000D01*
X1270000Y-1270000D02*
X1270000Y1330000D01*
X1270000Y1330000D02*
X-1330000Y1330000D01*
X3870000Y0D02*
X3870000Y1330000D01*
X3870000Y1330000D02*
X2540000Y1330000D01*
G04 #@! TO.C,J3*
X3870000Y-21530000D02*
X2540000Y-21530000D01*
X3870000Y-22860000D02*
X3870000Y-21530000D01*
X1270000Y-21530000D02*
X-1330000Y-21530000D01*
X1270000Y-24130000D02*
X1270000Y-21530000D01*
X3870000Y-24130000D02*
X1270000Y-24130000D01*
X-1330000Y-21530000D02*
X-1330000Y-41970000D01*
X3870000Y-24130000D02*
X3870000Y-41970000D01*
X3870000Y-41970000D02*
X-1330000Y-41970000D01*
G04 #@! TO.C,J5*
X26730000Y1330000D02*
X25400000Y1330000D01*
X26730000Y0D02*
X26730000Y1330000D01*
X24130000Y1330000D02*
X21530000Y1330000D01*
X24130000Y-1270000D02*
X24130000Y1330000D01*
X26730000Y-1270000D02*
X24130000Y-1270000D01*
X21530000Y1330000D02*
X21530000Y-3870000D01*
X26730000Y-1270000D02*
X26730000Y-3870000D01*
X26730000Y-3870000D02*
X21530000Y-3870000D01*
G04 #@! TO.C,J6*
X44510000Y-3870000D02*
X39310000Y-3870000D01*
X44510000Y-1270000D02*
X44510000Y-3870000D01*
X39310000Y1330000D02*
X39310000Y-3870000D01*
X44510000Y-1270000D02*
X41910000Y-1270000D01*
X41910000Y-1270000D02*
X41910000Y1330000D01*
X41910000Y1330000D02*
X39310000Y1330000D01*
X44510000Y0D02*
X44510000Y1330000D01*
X44510000Y1330000D02*
X43180000Y1330000D01*
D12*
G04 #@! TO.C,G\002A\002A\002A*
G36*
X10118104Y-9737864D02*
X9986883Y-9756790D01*
X9880044Y-9787851D01*
X9863747Y-9794907D01*
X9798345Y-9825215D01*
X9858487Y-9815041D01*
X10067804Y-9791566D01*
X10263863Y-9793129D01*
X10437756Y-9819634D01*
X10444937Y-9821416D01*
X10647576Y-9888055D01*
X10858741Y-9987912D01*
X11079150Y-10121573D01*
X11309524Y-10289623D01*
X11550584Y-10492649D01*
X11803049Y-10731238D01*
X12067640Y-11005976D01*
X12345078Y-11317449D01*
X12483326Y-11480539D01*
X12611405Y-11635226D01*
X12733766Y-11786069D01*
X12852326Y-11935839D01*
X12969003Y-12087310D01*
X13085714Y-12243251D01*
X13204377Y-12406436D01*
X13326908Y-12579636D01*
X13455227Y-12765623D01*
X13591249Y-12967169D01*
X13736893Y-13187045D01*
X13894076Y-13428024D01*
X14064716Y-13692877D01*
X14250730Y-13984376D01*
X14454035Y-14305293D01*
X14624886Y-14576283D01*
X15014496Y-15204557D01*
X15389230Y-15827398D01*
X15743063Y-16434754D01*
X15832114Y-16591042D01*
X15912591Y-16732246D01*
X16005828Y-16894650D01*
X16104147Y-17064958D01*
X16199873Y-17229873D01*
X16283865Y-17373603D01*
X16367523Y-17517010D01*
X16459291Y-17675825D01*
X16552086Y-17837692D01*
X16638827Y-17990254D01*
X16712430Y-18121155D01*
X16714785Y-18125379D01*
X16778262Y-18239071D01*
X16838481Y-18346568D01*
X16891436Y-18440744D01*
X16933118Y-18514474D01*
X16959524Y-18560635D01*
X16960355Y-18562064D01*
X17010785Y-18648635D01*
X17088612Y-18441780D01*
X17129432Y-18339477D01*
X17180182Y-18221982D01*
X17238316Y-18094292D01*
X17301287Y-17961399D01*
X17366550Y-17828301D01*
X17431559Y-17699990D01*
X17493767Y-17581462D01*
X17550629Y-17477712D01*
X17599598Y-17393735D01*
X17638129Y-17334525D01*
X17663676Y-17305077D01*
X17669226Y-17302723D01*
X17682696Y-17319484D01*
X17711612Y-17365961D01*
X17752637Y-17436447D01*
X17802437Y-17525234D01*
X17847888Y-17608445D01*
X17921277Y-17743818D01*
X17999972Y-17888054D01*
X18081578Y-18036846D01*
X18163697Y-18185886D01*
X18243932Y-18330864D01*
X18319887Y-18467474D01*
X18389166Y-18591407D01*
X18449371Y-18698355D01*
X18498106Y-18784010D01*
X18532974Y-18844064D01*
X18551579Y-18874208D01*
X18553291Y-18876440D01*
X18554681Y-18867640D01*
X18544025Y-18828115D01*
X18523348Y-18764684D01*
X18502668Y-18706038D01*
X18452446Y-18568044D01*
X18396620Y-18415817D01*
X18336786Y-18253607D01*
X18274539Y-18085663D01*
X18211474Y-17916236D01*
X18149188Y-17749576D01*
X18089277Y-17589933D01*
X18033335Y-17441557D01*
X17982959Y-17308698D01*
X17939744Y-17195605D01*
X17905287Y-17106530D01*
X17881181Y-17045722D01*
X17869024Y-17017431D01*
X17868164Y-17016046D01*
X17851255Y-17023886D01*
X17819540Y-17058979D01*
X17779093Y-17114349D01*
X17767822Y-17131319D01*
X17726006Y-17193121D01*
X17691924Y-17239124D01*
X17671675Y-17261212D01*
X17669590Y-17262055D01*
X17656897Y-17244989D01*
X17628361Y-17197500D01*
X17586837Y-17124634D01*
X17535177Y-17031439D01*
X17476234Y-16922959D01*
X17446412Y-16867351D01*
X17376180Y-16736587D01*
X17292095Y-16581214D01*
X17199828Y-16411638D01*
X17105051Y-16238270D01*
X17013436Y-16071517D01*
X16957827Y-15970805D01*
X16877104Y-15824717D01*
X16782281Y-15652700D01*
X16678454Y-15464026D01*
X16570721Y-15267965D01*
X16464177Y-15073789D01*
X16363920Y-14890769D01*
X16328968Y-14826875D01*
X16166525Y-14532146D01*
X16006967Y-14247241D01*
X15852024Y-13975059D01*
X15703424Y-13718499D01*
X15562895Y-13480462D01*
X15432166Y-13263846D01*
X15312965Y-13071552D01*
X15207020Y-12906479D01*
X15116059Y-12771526D01*
X15047355Y-12676803D01*
X14951117Y-12560760D01*
X14865286Y-12477327D01*
X14791284Y-12427297D01*
X14730534Y-12411466D01*
X14684458Y-12430626D01*
X14663047Y-12462230D01*
X14643201Y-12515781D01*
X14639785Y-12547265D01*
X14651080Y-12551469D01*
X14675364Y-12523182D01*
X14680488Y-12515050D01*
X14719173Y-12468063D01*
X14755114Y-12454930D01*
X14755590Y-12455015D01*
X14793266Y-12479064D01*
X14845446Y-12539114D01*
X14911496Y-12634041D01*
X14990782Y-12762721D01*
X15082670Y-12924027D01*
X15186526Y-13116835D01*
X15301717Y-13340021D01*
X15427607Y-13592458D01*
X15563564Y-13873022D01*
X15612084Y-13974862D01*
X15659868Y-14076682D01*
X15718191Y-14202805D01*
X15785585Y-14349931D01*
X15860582Y-14514761D01*
X15941716Y-14693996D01*
X16027519Y-14884336D01*
X16116522Y-15082481D01*
X16207260Y-15285134D01*
X16298264Y-15488993D01*
X16388066Y-15690761D01*
X16475200Y-15887137D01*
X16558197Y-16074822D01*
X16635591Y-16250518D01*
X16705914Y-16410924D01*
X16767698Y-16552741D01*
X16819475Y-16672670D01*
X16859779Y-16767411D01*
X16887142Y-16833666D01*
X16900096Y-16868135D01*
X16900856Y-16872379D01*
X16888582Y-16858034D01*
X16857153Y-16814807D01*
X16809676Y-16747160D01*
X16749261Y-16659557D01*
X16679017Y-16556458D01*
X16624470Y-16475687D01*
X16533540Y-16341400D01*
X16425888Y-16183831D01*
X16304261Y-16006905D01*
X16171407Y-15814550D01*
X16030073Y-15610690D01*
X15883008Y-15399251D01*
X15732960Y-15184159D01*
X15582675Y-14969341D01*
X15434903Y-14758721D01*
X15292391Y-14556225D01*
X15157886Y-14365781D01*
X15034137Y-14191312D01*
X14923891Y-14036746D01*
X14829896Y-13906008D01*
X14754900Y-13803023D01*
X14733743Y-13774388D01*
X14367788Y-13287774D01*
X14018793Y-12836339D01*
X13686000Y-12419294D01*
X13368655Y-12035850D01*
X13065998Y-11685218D01*
X12777275Y-11366610D01*
X12501728Y-11079236D01*
X12238601Y-10822307D01*
X11987137Y-10595034D01*
X11746578Y-10396628D01*
X11516170Y-10226301D01*
X11295154Y-10083262D01*
X11082774Y-9966724D01*
X11081376Y-9966029D01*
X10923065Y-9890475D01*
X10788324Y-9833757D01*
X10667285Y-9792591D01*
X10550078Y-9763693D01*
X10426833Y-9743779D01*
X10405659Y-9741179D01*
X10261699Y-9732264D01*
X10118104Y-9737864D01*
X10118104Y-9737864D01*
G37*
X10118104Y-9737864D02*
X9986883Y-9756790D01*
X9880044Y-9787851D01*
X9863747Y-9794907D01*
X9798345Y-9825215D01*
X9858487Y-9815041D01*
X10067804Y-9791566D01*
X10263863Y-9793129D01*
X10437756Y-9819634D01*
X10444937Y-9821416D01*
X10647576Y-9888055D01*
X10858741Y-9987912D01*
X11079150Y-10121573D01*
X11309524Y-10289623D01*
X11550584Y-10492649D01*
X11803049Y-10731238D01*
X12067640Y-11005976D01*
X12345078Y-11317449D01*
X12483326Y-11480539D01*
X12611405Y-11635226D01*
X12733766Y-11786069D01*
X12852326Y-11935839D01*
X12969003Y-12087310D01*
X13085714Y-12243251D01*
X13204377Y-12406436D01*
X13326908Y-12579636D01*
X13455227Y-12765623D01*
X13591249Y-12967169D01*
X13736893Y-13187045D01*
X13894076Y-13428024D01*
X14064716Y-13692877D01*
X14250730Y-13984376D01*
X14454035Y-14305293D01*
X14624886Y-14576283D01*
X15014496Y-15204557D01*
X15389230Y-15827398D01*
X15743063Y-16434754D01*
X15832114Y-16591042D01*
X15912591Y-16732246D01*
X16005828Y-16894650D01*
X16104147Y-17064958D01*
X16199873Y-17229873D01*
X16283865Y-17373603D01*
X16367523Y-17517010D01*
X16459291Y-17675825D01*
X16552086Y-17837692D01*
X16638827Y-17990254D01*
X16712430Y-18121155D01*
X16714785Y-18125379D01*
X16778262Y-18239071D01*
X16838481Y-18346568D01*
X16891436Y-18440744D01*
X16933118Y-18514474D01*
X16959524Y-18560635D01*
X16960355Y-18562064D01*
X17010785Y-18648635D01*
X17088612Y-18441780D01*
X17129432Y-18339477D01*
X17180182Y-18221982D01*
X17238316Y-18094292D01*
X17301287Y-17961399D01*
X17366550Y-17828301D01*
X17431559Y-17699990D01*
X17493767Y-17581462D01*
X17550629Y-17477712D01*
X17599598Y-17393735D01*
X17638129Y-17334525D01*
X17663676Y-17305077D01*
X17669226Y-17302723D01*
X17682696Y-17319484D01*
X17711612Y-17365961D01*
X17752637Y-17436447D01*
X17802437Y-17525234D01*
X17847888Y-17608445D01*
X17921277Y-17743818D01*
X17999972Y-17888054D01*
X18081578Y-18036846D01*
X18163697Y-18185886D01*
X18243932Y-18330864D01*
X18319887Y-18467474D01*
X18389166Y-18591407D01*
X18449371Y-18698355D01*
X18498106Y-18784010D01*
X18532974Y-18844064D01*
X18551579Y-18874208D01*
X18553291Y-18876440D01*
X18554681Y-18867640D01*
X18544025Y-18828115D01*
X18523348Y-18764684D01*
X18502668Y-18706038D01*
X18452446Y-18568044D01*
X18396620Y-18415817D01*
X18336786Y-18253607D01*
X18274539Y-18085663D01*
X18211474Y-17916236D01*
X18149188Y-17749576D01*
X18089277Y-17589933D01*
X18033335Y-17441557D01*
X17982959Y-17308698D01*
X17939744Y-17195605D01*
X17905287Y-17106530D01*
X17881181Y-17045722D01*
X17869024Y-17017431D01*
X17868164Y-17016046D01*
X17851255Y-17023886D01*
X17819540Y-17058979D01*
X17779093Y-17114349D01*
X17767822Y-17131319D01*
X17726006Y-17193121D01*
X17691924Y-17239124D01*
X17671675Y-17261212D01*
X17669590Y-17262055D01*
X17656897Y-17244989D01*
X17628361Y-17197500D01*
X17586837Y-17124634D01*
X17535177Y-17031439D01*
X17476234Y-16922959D01*
X17446412Y-16867351D01*
X17376180Y-16736587D01*
X17292095Y-16581214D01*
X17199828Y-16411638D01*
X17105051Y-16238270D01*
X17013436Y-16071517D01*
X16957827Y-15970805D01*
X16877104Y-15824717D01*
X16782281Y-15652700D01*
X16678454Y-15464026D01*
X16570721Y-15267965D01*
X16464177Y-15073789D01*
X16363920Y-14890769D01*
X16328968Y-14826875D01*
X16166525Y-14532146D01*
X16006967Y-14247241D01*
X15852024Y-13975059D01*
X15703424Y-13718499D01*
X15562895Y-13480462D01*
X15432166Y-13263846D01*
X15312965Y-13071552D01*
X15207020Y-12906479D01*
X15116059Y-12771526D01*
X15047355Y-12676803D01*
X14951117Y-12560760D01*
X14865286Y-12477327D01*
X14791284Y-12427297D01*
X14730534Y-12411466D01*
X14684458Y-12430626D01*
X14663047Y-12462230D01*
X14643201Y-12515781D01*
X14639785Y-12547265D01*
X14651080Y-12551469D01*
X14675364Y-12523182D01*
X14680488Y-12515050D01*
X14719173Y-12468063D01*
X14755114Y-12454930D01*
X14755590Y-12455015D01*
X14793266Y-12479064D01*
X14845446Y-12539114D01*
X14911496Y-12634041D01*
X14990782Y-12762721D01*
X15082670Y-12924027D01*
X15186526Y-13116835D01*
X15301717Y-13340021D01*
X15427607Y-13592458D01*
X15563564Y-13873022D01*
X15612084Y-13974862D01*
X15659868Y-14076682D01*
X15718191Y-14202805D01*
X15785585Y-14349931D01*
X15860582Y-14514761D01*
X15941716Y-14693996D01*
X16027519Y-14884336D01*
X16116522Y-15082481D01*
X16207260Y-15285134D01*
X16298264Y-15488993D01*
X16388066Y-15690761D01*
X16475200Y-15887137D01*
X16558197Y-16074822D01*
X16635591Y-16250518D01*
X16705914Y-16410924D01*
X16767698Y-16552741D01*
X16819475Y-16672670D01*
X16859779Y-16767411D01*
X16887142Y-16833666D01*
X16900096Y-16868135D01*
X16900856Y-16872379D01*
X16888582Y-16858034D01*
X16857153Y-16814807D01*
X16809676Y-16747160D01*
X16749261Y-16659557D01*
X16679017Y-16556458D01*
X16624470Y-16475687D01*
X16533540Y-16341400D01*
X16425888Y-16183831D01*
X16304261Y-16006905D01*
X16171407Y-15814550D01*
X16030073Y-15610690D01*
X15883008Y-15399251D01*
X15732960Y-15184159D01*
X15582675Y-14969341D01*
X15434903Y-14758721D01*
X15292391Y-14556225D01*
X15157886Y-14365781D01*
X15034137Y-14191312D01*
X14923891Y-14036746D01*
X14829896Y-13906008D01*
X14754900Y-13803023D01*
X14733743Y-13774388D01*
X14367788Y-13287774D01*
X14018793Y-12836339D01*
X13686000Y-12419294D01*
X13368655Y-12035850D01*
X13065998Y-11685218D01*
X12777275Y-11366610D01*
X12501728Y-11079236D01*
X12238601Y-10822307D01*
X11987137Y-10595034D01*
X11746578Y-10396628D01*
X11516170Y-10226301D01*
X11295154Y-10083262D01*
X11082774Y-9966724D01*
X11081376Y-9966029D01*
X10923065Y-9890475D01*
X10788324Y-9833757D01*
X10667285Y-9792591D01*
X10550078Y-9763693D01*
X10426833Y-9743779D01*
X10405659Y-9741179D01*
X10261699Y-9732264D01*
X10118104Y-9737864D01*
G36*
X18569063Y-18916535D02*
X18579087Y-18926559D01*
X18589111Y-18916535D01*
X18579087Y-18906512D01*
X18569063Y-18916535D01*
X18569063Y-18916535D01*
G37*
X18569063Y-18916535D02*
X18579087Y-18926559D01*
X18589111Y-18916535D01*
X18579087Y-18906512D01*
X18569063Y-18916535D01*
G36*
X16688230Y-14207311D02*
X16698728Y-14231474D01*
X16732869Y-14282875D01*
X16752457Y-14310609D01*
X16789099Y-14364696D01*
X16825000Y-14424063D01*
X16862413Y-14493459D01*
X16903592Y-14577630D01*
X16950788Y-14681323D01*
X17006255Y-14809288D01*
X17072245Y-14966270D01*
X17130994Y-15108324D01*
X17180959Y-15230983D01*
X17242583Y-15384288D01*
X17313194Y-15561441D01*
X17390120Y-15755642D01*
X17470690Y-15960092D01*
X17552232Y-16167991D01*
X17632074Y-16372541D01*
X17707545Y-16566941D01*
X17775973Y-16744393D01*
X17834687Y-16898096D01*
X17846369Y-16928934D01*
X17868010Y-16986163D01*
X17980456Y-16832188D01*
X18030173Y-16767814D01*
X18072155Y-16720288D01*
X18100592Y-16695835D01*
X18108681Y-16694769D01*
X18119900Y-16715236D01*
X18147016Y-16768787D01*
X18188540Y-16852377D01*
X18242983Y-16962961D01*
X18308854Y-17097494D01*
X18384665Y-17252931D01*
X18468925Y-17426229D01*
X18560145Y-17614341D01*
X18656836Y-17814223D01*
X18695422Y-17894120D01*
X18917572Y-18354054D01*
X19123714Y-18780269D01*
X19315065Y-19175256D01*
X19492843Y-19541502D01*
X19658264Y-19881495D01*
X19812545Y-20197725D01*
X19956904Y-20492679D01*
X20092557Y-20768847D01*
X20220722Y-21028716D01*
X20342615Y-21274775D01*
X20459455Y-21509513D01*
X20572457Y-21735417D01*
X20636781Y-21863497D01*
X20723960Y-22037865D01*
X20798404Y-22187761D01*
X20862759Y-22316626D01*
X20919674Y-22427904D01*
X20971796Y-22525034D01*
X21021772Y-22611460D01*
X21072250Y-22690624D01*
X21125878Y-22765966D01*
X21185304Y-22840929D01*
X21253174Y-22918954D01*
X21332137Y-23003484D01*
X21424840Y-23097961D01*
X21533930Y-23205825D01*
X21662056Y-23330520D01*
X21811864Y-23475487D01*
X21986003Y-23644167D01*
X22067327Y-23723197D01*
X22214012Y-23866727D01*
X22357521Y-24008650D01*
X22494108Y-24145161D01*
X22620029Y-24272453D01*
X22731539Y-24386720D01*
X22824895Y-24484156D01*
X22896351Y-24560953D01*
X22937945Y-24608203D01*
X23051066Y-24741210D01*
X23188239Y-24898484D01*
X23345450Y-25075656D01*
X23518689Y-25268356D01*
X23703943Y-25472216D01*
X23897200Y-25682864D01*
X24094449Y-25895933D01*
X24291678Y-26107052D01*
X24484875Y-26311853D01*
X24670027Y-26505965D01*
X24843124Y-26685019D01*
X24871448Y-26714040D01*
X24967243Y-26812321D01*
X25052778Y-26900609D01*
X25124353Y-26975043D01*
X25178274Y-27031764D01*
X25210843Y-27066913D01*
X25219020Y-27076933D01*
X25194379Y-27085712D01*
X25138550Y-27101774D01*
X25059350Y-27123126D01*
X24964599Y-27147776D01*
X24862114Y-27173729D01*
X24759713Y-27198994D01*
X24665215Y-27221577D01*
X24586439Y-27239486D01*
X24556004Y-27245939D01*
X24427253Y-27270216D01*
X24333684Y-27283002D01*
X24272138Y-27284531D01*
X24239454Y-27275038D01*
X24234614Y-27269774D01*
X24215461Y-27250877D01*
X24172122Y-27213321D01*
X24111872Y-27163305D01*
X24068040Y-27127814D01*
X23911684Y-27002385D01*
X24228104Y-27300825D01*
X24160107Y-27312994D01*
X24039584Y-27330426D01*
X23895129Y-27344547D01*
X23732215Y-27355397D01*
X23556316Y-27363015D01*
X23372904Y-27367442D01*
X23187455Y-27368718D01*
X23005440Y-27366883D01*
X22832333Y-27361977D01*
X22673608Y-27354040D01*
X22534738Y-27343111D01*
X22421197Y-27329233D01*
X22338458Y-27312443D01*
X22302608Y-27299397D01*
X22279685Y-27275744D01*
X22239112Y-27220775D01*
X22183052Y-27138031D01*
X22113667Y-27031053D01*
X22033118Y-26903385D01*
X21943567Y-26758566D01*
X21847178Y-26600140D01*
X21746110Y-26431647D01*
X21642527Y-26256630D01*
X21538589Y-26078630D01*
X21436460Y-25901189D01*
X21338301Y-25727849D01*
X21285046Y-25632399D01*
X21200538Y-25482609D01*
X21109776Y-25326222D01*
X21018051Y-25172049D01*
X20930655Y-25028899D01*
X20852878Y-24905583D01*
X20803428Y-24830505D01*
X20729443Y-24717536D01*
X20643521Y-24580284D01*
X20552426Y-24429931D01*
X20462922Y-24277662D01*
X20381773Y-24134658D01*
X20373654Y-24119985D01*
X20274025Y-23943971D01*
X20176053Y-23781293D01*
X20072693Y-23621014D01*
X19956895Y-23452200D01*
X19824578Y-23267973D01*
X19541233Y-22872087D01*
X19273481Y-22480954D01*
X19015097Y-22084927D01*
X18759856Y-21674360D01*
X18501534Y-21239605D01*
X18381497Y-21031531D01*
X18309468Y-20907758D01*
X18243922Y-20800920D01*
X18178953Y-20702644D01*
X18108651Y-20604558D01*
X18027109Y-20498291D01*
X17928419Y-20375472D01*
X17858043Y-20289779D01*
X17760915Y-20171962D01*
X17664303Y-20054444D01*
X17573685Y-19943912D01*
X17494540Y-19847053D01*
X17432345Y-19770557D01*
X17406456Y-19738477D01*
X17344151Y-19661724D01*
X17265265Y-19565751D01*
X17179171Y-19461900D01*
X17095240Y-19361513D01*
X17081364Y-19345017D01*
X17013026Y-19262271D01*
X16955040Y-19189015D01*
X16911934Y-19131216D01*
X16888239Y-19094836D01*
X16885086Y-19086563D01*
X16890434Y-19056458D01*
X16904196Y-19001747D01*
X16922948Y-18934212D01*
X16943265Y-18865638D01*
X16961723Y-18807808D01*
X16974898Y-18772506D01*
X16977824Y-18767430D01*
X16995328Y-18775548D01*
X17032944Y-18805339D01*
X17079593Y-18847620D01*
X17125858Y-18889311D01*
X17147516Y-18903125D01*
X17143317Y-18888287D01*
X17142212Y-18886464D01*
X17114184Y-18837729D01*
X17079703Y-18773722D01*
X17066099Y-18747415D01*
X17038741Y-18695991D01*
X17021963Y-18676023D01*
X17008752Y-18682936D01*
X16997243Y-18702494D01*
X16986453Y-18718896D01*
X16972827Y-18724517D01*
X16951210Y-18716135D01*
X16916449Y-18690525D01*
X16863391Y-18644468D01*
X16786883Y-18574740D01*
X16774020Y-18562917D01*
X16547118Y-18356048D01*
X16344976Y-18175630D01*
X16164609Y-18019174D01*
X16003030Y-17884187D01*
X15857252Y-17768180D01*
X15724290Y-17668662D01*
X15601156Y-17583141D01*
X15592031Y-17577088D01*
X15428827Y-17476032D01*
X15289174Y-17404096D01*
X15173765Y-17361526D01*
X15083296Y-17348569D01*
X15018462Y-17365470D01*
X15010658Y-17370850D01*
X14989257Y-17389595D01*
X14993241Y-17398750D01*
X15028417Y-17401882D01*
X15061863Y-17402322D01*
X15151238Y-17415578D01*
X15239916Y-17457997D01*
X15243864Y-17460481D01*
X15314081Y-17510093D01*
X15405024Y-17581831D01*
X15509304Y-17669236D01*
X15619533Y-17765848D01*
X15728322Y-17865207D01*
X15828281Y-17960855D01*
X15902765Y-18036499D01*
X15964625Y-18102438D01*
X16042988Y-18186976D01*
X16133742Y-18285582D01*
X16232772Y-18393724D01*
X16335965Y-18506869D01*
X16439208Y-18620485D01*
X16538388Y-18730042D01*
X16629390Y-18831007D01*
X16708102Y-18918847D01*
X16770409Y-18989032D01*
X16812199Y-19037030D01*
X16825908Y-19053539D01*
X16870093Y-19109712D01*
X16815871Y-19353929D01*
X16771330Y-19566050D01*
X16736697Y-19760181D01*
X16710661Y-19947655D01*
X16691912Y-20139805D01*
X16679140Y-20347966D01*
X16671033Y-20583471D01*
X16670348Y-20612484D01*
X16667836Y-20938395D01*
X16676572Y-21235901D01*
X16697596Y-21515367D01*
X16731947Y-21787161D01*
X16780664Y-22061650D01*
X16844125Y-22346474D01*
X16982896Y-22835144D01*
X17158330Y-23309323D01*
X17369016Y-23767086D01*
X17613541Y-24206505D01*
X17890493Y-24625654D01*
X18198461Y-25022608D01*
X18536033Y-25395441D01*
X18901797Y-25742226D01*
X19294341Y-26061037D01*
X19712253Y-26349948D01*
X19834155Y-26425546D01*
X20250195Y-26656505D01*
X20685401Y-26858539D01*
X21133104Y-27029136D01*
X21586636Y-27165782D01*
X22039328Y-27265967D01*
X22087374Y-27274412D01*
X22192759Y-27295862D01*
X22260756Y-27317986D01*
X22293553Y-27340916D01*
X22311739Y-27366849D01*
X22349203Y-27420866D01*
X22402519Y-27498004D01*
X22468258Y-27593300D01*
X22542995Y-27701793D01*
X22601963Y-27787490D01*
X22821966Y-28099828D01*
X23028927Y-28377615D01*
X23225102Y-28623362D01*
X23412750Y-28839579D01*
X23594127Y-29028775D01*
X23771490Y-29193462D01*
X23947098Y-29336149D01*
X24079628Y-29430652D01*
X24196433Y-29501970D01*
X24330900Y-29572652D01*
X24470273Y-29636796D01*
X24601798Y-29688496D01*
X24704578Y-29719916D01*
X24868981Y-29749105D01*
X25046881Y-29762085D01*
X25220802Y-29758257D01*
X25348943Y-29742014D01*
X25586512Y-29676622D01*
X25814200Y-29572447D01*
X26031699Y-29429639D01*
X26106988Y-29369186D01*
X26165101Y-29323932D01*
X26212405Y-29300442D01*
X26266187Y-29291873D01*
X26304411Y-29291042D01*
X26573070Y-29275296D01*
X26845672Y-29229825D01*
X26910504Y-29212229D01*
X25428952Y-29212229D01*
X25401198Y-29229637D01*
X25375141Y-29237775D01*
X25337117Y-29242149D01*
X25271350Y-29244293D01*
X25190143Y-29243888D01*
X25164644Y-29243223D01*
X25047701Y-29234779D01*
X24951206Y-29215355D01*
X24868368Y-29186381D01*
X24732856Y-29124508D01*
X24611583Y-29053652D01*
X24493736Y-28966388D01*
X24368504Y-28855288D01*
X24324107Y-28812513D01*
X24258588Y-28747244D01*
X24209890Y-28696455D01*
X24181620Y-28664108D01*
X24177386Y-28654167D01*
X24182323Y-28656761D01*
X24389531Y-28785454D01*
X24568569Y-28888080D01*
X24720965Y-28965513D01*
X24728259Y-28968899D01*
X24835843Y-29015011D01*
X24959058Y-29062135D01*
X25086759Y-29106521D01*
X25207799Y-29144423D01*
X25311034Y-29172091D01*
X25365367Y-29183147D01*
X25416935Y-29196321D01*
X25428952Y-29212229D01*
X26910504Y-29212229D01*
X27112984Y-29157275D01*
X27365769Y-29060294D01*
X27594790Y-28941530D01*
X27654476Y-28904027D01*
X27723509Y-28863861D01*
X27791365Y-28832641D01*
X27830942Y-28820148D01*
X27883141Y-28804640D01*
X27956507Y-28776628D01*
X28036449Y-28741747D01*
X28048109Y-28736269D01*
X28208479Y-28638273D01*
X28208739Y-28638029D01*
X26256473Y-28638029D01*
X26249823Y-28653923D01*
X26231084Y-28675413D01*
X26226662Y-28680121D01*
X26201582Y-28704852D01*
X26176657Y-28720143D01*
X26144135Y-28726225D01*
X26096264Y-28723335D01*
X26025290Y-28711704D01*
X25923462Y-28691569D01*
X25913614Y-28689570D01*
X25831691Y-28671303D01*
X25737835Y-28647804D01*
X25639304Y-28621220D01*
X25543353Y-28593695D01*
X25457238Y-28567377D01*
X25388214Y-28544411D01*
X25343537Y-28526943D01*
X25330463Y-28517119D01*
X25330479Y-28517104D01*
X25352162Y-28517021D01*
X25403698Y-28523107D01*
X25475532Y-28534148D01*
X25506129Y-28539386D01*
X25593588Y-28552692D01*
X25706336Y-28566882D01*
X25829652Y-28580233D01*
X25945797Y-28590785D01*
X26069273Y-28600862D01*
X26157434Y-28609148D01*
X26214924Y-28617119D01*
X26246388Y-28626254D01*
X26256473Y-28638029D01*
X28208739Y-28638029D01*
X28347532Y-28507786D01*
X28463927Y-28347081D01*
X28556320Y-28158431D01*
X28623371Y-27944110D01*
X28663737Y-27706391D01*
X28665368Y-27690557D01*
X28679474Y-27604351D01*
X28704248Y-27502130D01*
X28734574Y-27404736D01*
X28737530Y-27396567D01*
X28816000Y-27155047D01*
X28826096Y-27115904D01*
X28435438Y-27115904D01*
X28426693Y-27259296D01*
X28417832Y-27346617D01*
X28399788Y-27418208D01*
X28366792Y-27493113D01*
X28341662Y-27539959D01*
X28171074Y-27815885D01*
X27985860Y-28055578D01*
X27784746Y-28260615D01*
X27700634Y-28332411D01*
X27580350Y-28429855D01*
X27450042Y-28417429D01*
X27382165Y-28409928D01*
X27332084Y-28402465D01*
X27311381Y-28396957D01*
X27307086Y-28391560D01*
X27310913Y-28384442D01*
X27329163Y-28371142D01*
X27368139Y-28347196D01*
X27434143Y-28308143D01*
X27450042Y-28298775D01*
X27669146Y-28151140D01*
X27865885Y-27978505D01*
X28043460Y-27777298D01*
X28205075Y-27543948D01*
X28335792Y-27310828D01*
X28435438Y-27115904D01*
X28826096Y-27115904D01*
X28887316Y-26878568D01*
X28950514Y-26571788D01*
X29004630Y-26239362D01*
X29046858Y-25903039D01*
X29056069Y-25798073D01*
X29063797Y-25670361D01*
X29070000Y-25525984D01*
X29074636Y-25371026D01*
X29077661Y-25211566D01*
X29079033Y-25053688D01*
X29078710Y-24903473D01*
X29076648Y-24767003D01*
X29072806Y-24650361D01*
X29067141Y-24559627D01*
X29059610Y-24500885D01*
X29056755Y-24489700D01*
X29045705Y-24459373D01*
X29039566Y-24457837D01*
X29036611Y-24489142D01*
X29035392Y-24539819D01*
X29028884Y-24699094D01*
X29014856Y-24888238D01*
X28994494Y-25097977D01*
X28968983Y-25319043D01*
X28939510Y-25542162D01*
X28907259Y-25758066D01*
X28873416Y-25957481D01*
X28839166Y-26131139D01*
X28822584Y-26204064D01*
X28791953Y-26326159D01*
X28759488Y-26446577D01*
X28727043Y-26559357D01*
X28696470Y-26658541D01*
X28669626Y-26738168D01*
X28648364Y-26792281D01*
X28634539Y-26814918D01*
X28632500Y-26814985D01*
X28614085Y-26782533D01*
X28604880Y-26718783D01*
X28604871Y-26631458D01*
X28614042Y-26528280D01*
X28632379Y-26416970D01*
X28633270Y-26412617D01*
X28662310Y-26263199D01*
X28685907Y-26120185D01*
X28704620Y-25976769D01*
X28719007Y-25826145D01*
X28729627Y-25661506D01*
X28737038Y-25476046D01*
X28741798Y-25262958D01*
X28744129Y-25061050D01*
X28747253Y-24670631D01*
X28631855Y-24670631D01*
X28629930Y-24748529D01*
X28625953Y-24845522D01*
X28620273Y-24954651D01*
X28613240Y-25068957D01*
X28605202Y-25181478D01*
X28596507Y-25285257D01*
X28590986Y-25341713D01*
X28579850Y-25435811D01*
X28565053Y-25543712D01*
X28547912Y-25657544D01*
X28529744Y-25769437D01*
X28511864Y-25871518D01*
X28495589Y-25955918D01*
X28482235Y-26014764D01*
X28474517Y-26038195D01*
X28463693Y-26030053D01*
X28443838Y-25989899D01*
X28417666Y-25924057D01*
X28387890Y-25838851D01*
X28384227Y-25827698D01*
X28339126Y-25693200D01*
X28298793Y-25580257D01*
X28264755Y-25492709D01*
X28238537Y-25434397D01*
X28221665Y-25409161D01*
X28217939Y-25409122D01*
X28218613Y-25430829D01*
X28226598Y-25483927D01*
X28240572Y-25560654D01*
X28259210Y-25653247D01*
X28261089Y-25662178D01*
X28286686Y-25788571D01*
X28313948Y-25931590D01*
X28338912Y-26070076D01*
X28351754Y-26145968D01*
X28390782Y-26385190D01*
X28329863Y-26560097D01*
X28278888Y-26694221D01*
X28215854Y-26841299D01*
X28146071Y-26990283D01*
X28074846Y-27130126D01*
X28007489Y-27249784D01*
X27969885Y-27309155D01*
X27874287Y-27435766D01*
X27758276Y-27566195D01*
X27634007Y-27687821D01*
X27513636Y-27788023D01*
X27496958Y-27800217D01*
X27436283Y-27840115D01*
X27361566Y-27884073D01*
X27280812Y-27928042D01*
X27202028Y-27967974D01*
X27133220Y-27999820D01*
X27082395Y-28019532D01*
X27057558Y-28023059D01*
X27057071Y-28022670D01*
X27060762Y-28001828D01*
X27078097Y-27954244D01*
X27105550Y-27889408D01*
X27111649Y-27875855D01*
X27170836Y-27739649D01*
X27237417Y-27576610D01*
X27307032Y-27398239D01*
X27375323Y-27216037D01*
X27437932Y-27041505D01*
X27490500Y-26886145D01*
X27509821Y-26825217D01*
X27543230Y-26713545D01*
X27579276Y-26587332D01*
X27616337Y-26452878D01*
X27652792Y-26316486D01*
X27687017Y-26184456D01*
X27717391Y-26063089D01*
X27742291Y-25958686D01*
X27760096Y-25877549D01*
X27769183Y-25825979D01*
X27770008Y-25814552D01*
X27762699Y-25822233D01*
X27742310Y-25863210D01*
X27710564Y-25933518D01*
X27669186Y-26029192D01*
X27619898Y-26146266D01*
X27564425Y-26280774D01*
X27522434Y-26384175D01*
X27434396Y-26600539D01*
X27356991Y-26786299D01*
X27286950Y-26948459D01*
X27221001Y-27094021D01*
X27155876Y-27229990D01*
X27088305Y-27363368D01*
X27015017Y-27501160D01*
X26932744Y-27650368D01*
X26923855Y-27666261D01*
X26843896Y-27808027D01*
X26780117Y-27918185D01*
X26729869Y-28000520D01*
X26690500Y-28058822D01*
X26659358Y-28096877D01*
X26633794Y-28118474D01*
X26611156Y-28127400D01*
X26600473Y-28128295D01*
X26564139Y-28117617D01*
X26504271Y-28088795D01*
X26430199Y-28046651D01*
X26374523Y-28011562D01*
X26292805Y-27955336D01*
X26191602Y-27881841D01*
X26082218Y-27799488D01*
X25975959Y-27716688D01*
X25946323Y-27692972D01*
X25927106Y-27677230D01*
X24763696Y-27677230D01*
X24753673Y-27687253D01*
X24743649Y-27677230D01*
X24753673Y-27667206D01*
X24763696Y-27677230D01*
X25927106Y-27677230D01*
X25906415Y-27660281D01*
X24723602Y-27660281D01*
X24708277Y-27656484D01*
X24662470Y-27627112D01*
X24586429Y-27572341D01*
X24480406Y-27492349D01*
X24426638Y-27450997D01*
X24359125Y-27397369D01*
X24306599Y-27352810D01*
X24275228Y-27322739D01*
X24269366Y-27312865D01*
X24287023Y-27321360D01*
X24329010Y-27349693D01*
X24388411Y-27392578D01*
X24458312Y-27444724D01*
X24531798Y-27500844D01*
X24601955Y-27555649D01*
X24661868Y-27603850D01*
X24704621Y-27640159D01*
X24723301Y-27659287D01*
X24723602Y-27660281D01*
X25906415Y-27660281D01*
X25860036Y-27622290D01*
X25765298Y-27542780D01*
X25666700Y-27458508D01*
X25568833Y-27373538D01*
X25476286Y-27291935D01*
X25393650Y-27217765D01*
X25325515Y-27155091D01*
X25276472Y-27107980D01*
X25251111Y-27080496D01*
X25248818Y-27075299D01*
X25268872Y-27066511D01*
X25319129Y-27046871D01*
X25392117Y-27019242D01*
X25480364Y-26986488D01*
X25484874Y-26984830D01*
X25951800Y-26792680D01*
X26402536Y-26566178D01*
X26834373Y-26307323D01*
X27244605Y-26018116D01*
X27630524Y-25700559D01*
X27989422Y-25356652D01*
X28318593Y-24988395D01*
X28501641Y-24755328D01*
X28552264Y-24688888D01*
X28594015Y-24636630D01*
X28621202Y-24605543D01*
X28628157Y-24599961D01*
X28631381Y-24618788D01*
X28631855Y-24670631D01*
X28747253Y-24670631D01*
X28749344Y-24409511D01*
X28883383Y-24188990D01*
X29128043Y-23748215D01*
X29336930Y-23289701D01*
X29510118Y-22813225D01*
X29647683Y-22318565D01*
X29749699Y-21805496D01*
X29798064Y-21452526D01*
X29807410Y-21340882D01*
X29814341Y-21198377D01*
X29818855Y-21034173D01*
X29820953Y-20857432D01*
X29820636Y-20677315D01*
X29817902Y-20502983D01*
X29812752Y-20343598D01*
X29805186Y-20208321D01*
X29798064Y-20129400D01*
X29719398Y-19602919D01*
X29604657Y-19093922D01*
X29453803Y-18602317D01*
X29266800Y-18128014D01*
X29043610Y-17670921D01*
X28784195Y-17230948D01*
X28488518Y-16808003D01*
X28374241Y-16661208D01*
X28272182Y-16539620D01*
X28147863Y-16400938D01*
X28009716Y-16253869D01*
X27866171Y-16107121D01*
X27725659Y-15969401D01*
X27596612Y-15849416D01*
X27540255Y-15799855D01*
X27137062Y-15479804D01*
X26713131Y-15193764D01*
X26269984Y-14942399D01*
X25809140Y-14726372D01*
X25332122Y-14546344D01*
X24840450Y-14402978D01*
X24335644Y-14296938D01*
X23971826Y-14244872D01*
X23822635Y-14231373D01*
X23644800Y-14221402D01*
X23448728Y-14215040D01*
X23244825Y-14212368D01*
X23043497Y-14213465D01*
X22855151Y-14218412D01*
X22690193Y-14227290D01*
X22608606Y-14234346D01*
X22089438Y-14307041D01*
X21586408Y-14416391D01*
X21099088Y-14562572D01*
X20627051Y-14745761D01*
X20169871Y-14966134D01*
X19727119Y-15223868D01*
X19298368Y-15519139D01*
X19070247Y-15696085D01*
X18982741Y-15770193D01*
X18878367Y-15864109D01*
X18763207Y-15971832D01*
X18643346Y-16087360D01*
X18524867Y-16204692D01*
X18413852Y-16317826D01*
X18316386Y-16420761D01*
X18238552Y-16507496D01*
X18198187Y-16556409D01*
X18155774Y-16609245D01*
X18123160Y-16646657D01*
X18107974Y-16660181D01*
X18096886Y-16643092D01*
X18070059Y-16594333D01*
X18029678Y-16518096D01*
X17977931Y-16418575D01*
X17917003Y-16299965D01*
X17849081Y-16166458D01*
X17802682Y-16074600D01*
X17658817Y-15791942D01*
X17520458Y-15525893D01*
X17388804Y-15278527D01*
X17265054Y-15051919D01*
X17150406Y-14848143D01*
X17046059Y-14669274D01*
X16953213Y-14517387D01*
X16873065Y-14394555D01*
X16806814Y-14302854D01*
X16755660Y-14244359D01*
X16735528Y-14227820D01*
X16700716Y-14207166D01*
X16688230Y-14207311D01*
X16688230Y-14207311D01*
G37*
X16688230Y-14207311D02*
X16698728Y-14231474D01*
X16732869Y-14282875D01*
X16752457Y-14310609D01*
X16789099Y-14364696D01*
X16825000Y-14424063D01*
X16862413Y-14493459D01*
X16903592Y-14577630D01*
X16950788Y-14681323D01*
X17006255Y-14809288D01*
X17072245Y-14966270D01*
X17130994Y-15108324D01*
X17180959Y-15230983D01*
X17242583Y-15384288D01*
X17313194Y-15561441D01*
X17390120Y-15755642D01*
X17470690Y-15960092D01*
X17552232Y-16167991D01*
X17632074Y-16372541D01*
X17707545Y-16566941D01*
X17775973Y-16744393D01*
X17834687Y-16898096D01*
X17846369Y-16928934D01*
X17868010Y-16986163D01*
X17980456Y-16832188D01*
X18030173Y-16767814D01*
X18072155Y-16720288D01*
X18100592Y-16695835D01*
X18108681Y-16694769D01*
X18119900Y-16715236D01*
X18147016Y-16768787D01*
X18188540Y-16852377D01*
X18242983Y-16962961D01*
X18308854Y-17097494D01*
X18384665Y-17252931D01*
X18468925Y-17426229D01*
X18560145Y-17614341D01*
X18656836Y-17814223D01*
X18695422Y-17894120D01*
X18917572Y-18354054D01*
X19123714Y-18780269D01*
X19315065Y-19175256D01*
X19492843Y-19541502D01*
X19658264Y-19881495D01*
X19812545Y-20197725D01*
X19956904Y-20492679D01*
X20092557Y-20768847D01*
X20220722Y-21028716D01*
X20342615Y-21274775D01*
X20459455Y-21509513D01*
X20572457Y-21735417D01*
X20636781Y-21863497D01*
X20723960Y-22037865D01*
X20798404Y-22187761D01*
X20862759Y-22316626D01*
X20919674Y-22427904D01*
X20971796Y-22525034D01*
X21021772Y-22611460D01*
X21072250Y-22690624D01*
X21125878Y-22765966D01*
X21185304Y-22840929D01*
X21253174Y-22918954D01*
X21332137Y-23003484D01*
X21424840Y-23097961D01*
X21533930Y-23205825D01*
X21662056Y-23330520D01*
X21811864Y-23475487D01*
X21986003Y-23644167D01*
X22067327Y-23723197D01*
X22214012Y-23866727D01*
X22357521Y-24008650D01*
X22494108Y-24145161D01*
X22620029Y-24272453D01*
X22731539Y-24386720D01*
X22824895Y-24484156D01*
X22896351Y-24560953D01*
X22937945Y-24608203D01*
X23051066Y-24741210D01*
X23188239Y-24898484D01*
X23345450Y-25075656D01*
X23518689Y-25268356D01*
X23703943Y-25472216D01*
X23897200Y-25682864D01*
X24094449Y-25895933D01*
X24291678Y-26107052D01*
X24484875Y-26311853D01*
X24670027Y-26505965D01*
X24843124Y-26685019D01*
X24871448Y-26714040D01*
X24967243Y-26812321D01*
X25052778Y-26900609D01*
X25124353Y-26975043D01*
X25178274Y-27031764D01*
X25210843Y-27066913D01*
X25219020Y-27076933D01*
X25194379Y-27085712D01*
X25138550Y-27101774D01*
X25059350Y-27123126D01*
X24964599Y-27147776D01*
X24862114Y-27173729D01*
X24759713Y-27198994D01*
X24665215Y-27221577D01*
X24586439Y-27239486D01*
X24556004Y-27245939D01*
X24427253Y-27270216D01*
X24333684Y-27283002D01*
X24272138Y-27284531D01*
X24239454Y-27275038D01*
X24234614Y-27269774D01*
X24215461Y-27250877D01*
X24172122Y-27213321D01*
X24111872Y-27163305D01*
X24068040Y-27127814D01*
X23911684Y-27002385D01*
X24228104Y-27300825D01*
X24160107Y-27312994D01*
X24039584Y-27330426D01*
X23895129Y-27344547D01*
X23732215Y-27355397D01*
X23556316Y-27363015D01*
X23372904Y-27367442D01*
X23187455Y-27368718D01*
X23005440Y-27366883D01*
X22832333Y-27361977D01*
X22673608Y-27354040D01*
X22534738Y-27343111D01*
X22421197Y-27329233D01*
X22338458Y-27312443D01*
X22302608Y-27299397D01*
X22279685Y-27275744D01*
X22239112Y-27220775D01*
X22183052Y-27138031D01*
X22113667Y-27031053D01*
X22033118Y-26903385D01*
X21943567Y-26758566D01*
X21847178Y-26600140D01*
X21746110Y-26431647D01*
X21642527Y-26256630D01*
X21538589Y-26078630D01*
X21436460Y-25901189D01*
X21338301Y-25727849D01*
X21285046Y-25632399D01*
X21200538Y-25482609D01*
X21109776Y-25326222D01*
X21018051Y-25172049D01*
X20930655Y-25028899D01*
X20852878Y-24905583D01*
X20803428Y-24830505D01*
X20729443Y-24717536D01*
X20643521Y-24580284D01*
X20552426Y-24429931D01*
X20462922Y-24277662D01*
X20381773Y-24134658D01*
X20373654Y-24119985D01*
X20274025Y-23943971D01*
X20176053Y-23781293D01*
X20072693Y-23621014D01*
X19956895Y-23452200D01*
X19824578Y-23267973D01*
X19541233Y-22872087D01*
X19273481Y-22480954D01*
X19015097Y-22084927D01*
X18759856Y-21674360D01*
X18501534Y-21239605D01*
X18381497Y-21031531D01*
X18309468Y-20907758D01*
X18243922Y-20800920D01*
X18178953Y-20702644D01*
X18108651Y-20604558D01*
X18027109Y-20498291D01*
X17928419Y-20375472D01*
X17858043Y-20289779D01*
X17760915Y-20171962D01*
X17664303Y-20054444D01*
X17573685Y-19943912D01*
X17494540Y-19847053D01*
X17432345Y-19770557D01*
X17406456Y-19738477D01*
X17344151Y-19661724D01*
X17265265Y-19565751D01*
X17179171Y-19461900D01*
X17095240Y-19361513D01*
X17081364Y-19345017D01*
X17013026Y-19262271D01*
X16955040Y-19189015D01*
X16911934Y-19131216D01*
X16888239Y-19094836D01*
X16885086Y-19086563D01*
X16890434Y-19056458D01*
X16904196Y-19001747D01*
X16922948Y-18934212D01*
X16943265Y-18865638D01*
X16961723Y-18807808D01*
X16974898Y-18772506D01*
X16977824Y-18767430D01*
X16995328Y-18775548D01*
X17032944Y-18805339D01*
X17079593Y-18847620D01*
X17125858Y-18889311D01*
X17147516Y-18903125D01*
X17143317Y-18888287D01*
X17142212Y-18886464D01*
X17114184Y-18837729D01*
X17079703Y-18773722D01*
X17066099Y-18747415D01*
X17038741Y-18695991D01*
X17021963Y-18676023D01*
X17008752Y-18682936D01*
X16997243Y-18702494D01*
X16986453Y-18718896D01*
X16972827Y-18724517D01*
X16951210Y-18716135D01*
X16916449Y-18690525D01*
X16863391Y-18644468D01*
X16786883Y-18574740D01*
X16774020Y-18562917D01*
X16547118Y-18356048D01*
X16344976Y-18175630D01*
X16164609Y-18019174D01*
X16003030Y-17884187D01*
X15857252Y-17768180D01*
X15724290Y-17668662D01*
X15601156Y-17583141D01*
X15592031Y-17577088D01*
X15428827Y-17476032D01*
X15289174Y-17404096D01*
X15173765Y-17361526D01*
X15083296Y-17348569D01*
X15018462Y-17365470D01*
X15010658Y-17370850D01*
X14989257Y-17389595D01*
X14993241Y-17398750D01*
X15028417Y-17401882D01*
X15061863Y-17402322D01*
X15151238Y-17415578D01*
X15239916Y-17457997D01*
X15243864Y-17460481D01*
X15314081Y-17510093D01*
X15405024Y-17581831D01*
X15509304Y-17669236D01*
X15619533Y-17765848D01*
X15728322Y-17865207D01*
X15828281Y-17960855D01*
X15902765Y-18036499D01*
X15964625Y-18102438D01*
X16042988Y-18186976D01*
X16133742Y-18285582D01*
X16232772Y-18393724D01*
X16335965Y-18506869D01*
X16439208Y-18620485D01*
X16538388Y-18730042D01*
X16629390Y-18831007D01*
X16708102Y-18918847D01*
X16770409Y-18989032D01*
X16812199Y-19037030D01*
X16825908Y-19053539D01*
X16870093Y-19109712D01*
X16815871Y-19353929D01*
X16771330Y-19566050D01*
X16736697Y-19760181D01*
X16710661Y-19947655D01*
X16691912Y-20139805D01*
X16679140Y-20347966D01*
X16671033Y-20583471D01*
X16670348Y-20612484D01*
X16667836Y-20938395D01*
X16676572Y-21235901D01*
X16697596Y-21515367D01*
X16731947Y-21787161D01*
X16780664Y-22061650D01*
X16844125Y-22346474D01*
X16982896Y-22835144D01*
X17158330Y-23309323D01*
X17369016Y-23767086D01*
X17613541Y-24206505D01*
X17890493Y-24625654D01*
X18198461Y-25022608D01*
X18536033Y-25395441D01*
X18901797Y-25742226D01*
X19294341Y-26061037D01*
X19712253Y-26349948D01*
X19834155Y-26425546D01*
X20250195Y-26656505D01*
X20685401Y-26858539D01*
X21133104Y-27029136D01*
X21586636Y-27165782D01*
X22039328Y-27265967D01*
X22087374Y-27274412D01*
X22192759Y-27295862D01*
X22260756Y-27317986D01*
X22293553Y-27340916D01*
X22311739Y-27366849D01*
X22349203Y-27420866D01*
X22402519Y-27498004D01*
X22468258Y-27593300D01*
X22542995Y-27701793D01*
X22601963Y-27787490D01*
X22821966Y-28099828D01*
X23028927Y-28377615D01*
X23225102Y-28623362D01*
X23412750Y-28839579D01*
X23594127Y-29028775D01*
X23771490Y-29193462D01*
X23947098Y-29336149D01*
X24079628Y-29430652D01*
X24196433Y-29501970D01*
X24330900Y-29572652D01*
X24470273Y-29636796D01*
X24601798Y-29688496D01*
X24704578Y-29719916D01*
X24868981Y-29749105D01*
X25046881Y-29762085D01*
X25220802Y-29758257D01*
X25348943Y-29742014D01*
X25586512Y-29676622D01*
X25814200Y-29572447D01*
X26031699Y-29429639D01*
X26106988Y-29369186D01*
X26165101Y-29323932D01*
X26212405Y-29300442D01*
X26266187Y-29291873D01*
X26304411Y-29291042D01*
X26573070Y-29275296D01*
X26845672Y-29229825D01*
X26910504Y-29212229D01*
X25428952Y-29212229D01*
X25401198Y-29229637D01*
X25375141Y-29237775D01*
X25337117Y-29242149D01*
X25271350Y-29244293D01*
X25190143Y-29243888D01*
X25164644Y-29243223D01*
X25047701Y-29234779D01*
X24951206Y-29215355D01*
X24868368Y-29186381D01*
X24732856Y-29124508D01*
X24611583Y-29053652D01*
X24493736Y-28966388D01*
X24368504Y-28855288D01*
X24324107Y-28812513D01*
X24258588Y-28747244D01*
X24209890Y-28696455D01*
X24181620Y-28664108D01*
X24177386Y-28654167D01*
X24182323Y-28656761D01*
X24389531Y-28785454D01*
X24568569Y-28888080D01*
X24720965Y-28965513D01*
X24728259Y-28968899D01*
X24835843Y-29015011D01*
X24959058Y-29062135D01*
X25086759Y-29106521D01*
X25207799Y-29144423D01*
X25311034Y-29172091D01*
X25365367Y-29183147D01*
X25416935Y-29196321D01*
X25428952Y-29212229D01*
X26910504Y-29212229D01*
X27112984Y-29157275D01*
X27365769Y-29060294D01*
X27594790Y-28941530D01*
X27654476Y-28904027D01*
X27723509Y-28863861D01*
X27791365Y-28832641D01*
X27830942Y-28820148D01*
X27883141Y-28804640D01*
X27956507Y-28776628D01*
X28036449Y-28741747D01*
X28048109Y-28736269D01*
X28208479Y-28638273D01*
X28208739Y-28638029D01*
X26256473Y-28638029D01*
X26249823Y-28653923D01*
X26231084Y-28675413D01*
X26226662Y-28680121D01*
X26201582Y-28704852D01*
X26176657Y-28720143D01*
X26144135Y-28726225D01*
X26096264Y-28723335D01*
X26025290Y-28711704D01*
X25923462Y-28691569D01*
X25913614Y-28689570D01*
X25831691Y-28671303D01*
X25737835Y-28647804D01*
X25639304Y-28621220D01*
X25543353Y-28593695D01*
X25457238Y-28567377D01*
X25388214Y-28544411D01*
X25343537Y-28526943D01*
X25330463Y-28517119D01*
X25330479Y-28517104D01*
X25352162Y-28517021D01*
X25403698Y-28523107D01*
X25475532Y-28534148D01*
X25506129Y-28539386D01*
X25593588Y-28552692D01*
X25706336Y-28566882D01*
X25829652Y-28580233D01*
X25945797Y-28590785D01*
X26069273Y-28600862D01*
X26157434Y-28609148D01*
X26214924Y-28617119D01*
X26246388Y-28626254D01*
X26256473Y-28638029D01*
X28208739Y-28638029D01*
X28347532Y-28507786D01*
X28463927Y-28347081D01*
X28556320Y-28158431D01*
X28623371Y-27944110D01*
X28663737Y-27706391D01*
X28665368Y-27690557D01*
X28679474Y-27604351D01*
X28704248Y-27502130D01*
X28734574Y-27404736D01*
X28737530Y-27396567D01*
X28816000Y-27155047D01*
X28826096Y-27115904D01*
X28435438Y-27115904D01*
X28426693Y-27259296D01*
X28417832Y-27346617D01*
X28399788Y-27418208D01*
X28366792Y-27493113D01*
X28341662Y-27539959D01*
X28171074Y-27815885D01*
X27985860Y-28055578D01*
X27784746Y-28260615D01*
X27700634Y-28332411D01*
X27580350Y-28429855D01*
X27450042Y-28417429D01*
X27382165Y-28409928D01*
X27332084Y-28402465D01*
X27311381Y-28396957D01*
X27307086Y-28391560D01*
X27310913Y-28384442D01*
X27329163Y-28371142D01*
X27368139Y-28347196D01*
X27434143Y-28308143D01*
X27450042Y-28298775D01*
X27669146Y-28151140D01*
X27865885Y-27978505D01*
X28043460Y-27777298D01*
X28205075Y-27543948D01*
X28335792Y-27310828D01*
X28435438Y-27115904D01*
X28826096Y-27115904D01*
X28887316Y-26878568D01*
X28950514Y-26571788D01*
X29004630Y-26239362D01*
X29046858Y-25903039D01*
X29056069Y-25798073D01*
X29063797Y-25670361D01*
X29070000Y-25525984D01*
X29074636Y-25371026D01*
X29077661Y-25211566D01*
X29079033Y-25053688D01*
X29078710Y-24903473D01*
X29076648Y-24767003D01*
X29072806Y-24650361D01*
X29067141Y-24559627D01*
X29059610Y-24500885D01*
X29056755Y-24489700D01*
X29045705Y-24459373D01*
X29039566Y-24457837D01*
X29036611Y-24489142D01*
X29035392Y-24539819D01*
X29028884Y-24699094D01*
X29014856Y-24888238D01*
X28994494Y-25097977D01*
X28968983Y-25319043D01*
X28939510Y-25542162D01*
X28907259Y-25758066D01*
X28873416Y-25957481D01*
X28839166Y-26131139D01*
X28822584Y-26204064D01*
X28791953Y-26326159D01*
X28759488Y-26446577D01*
X28727043Y-26559357D01*
X28696470Y-26658541D01*
X28669626Y-26738168D01*
X28648364Y-26792281D01*
X28634539Y-26814918D01*
X28632500Y-26814985D01*
X28614085Y-26782533D01*
X28604880Y-26718783D01*
X28604871Y-26631458D01*
X28614042Y-26528280D01*
X28632379Y-26416970D01*
X28633270Y-26412617D01*
X28662310Y-26263199D01*
X28685907Y-26120185D01*
X28704620Y-25976769D01*
X28719007Y-25826145D01*
X28729627Y-25661506D01*
X28737038Y-25476046D01*
X28741798Y-25262958D01*
X28744129Y-25061050D01*
X28747253Y-24670631D01*
X28631855Y-24670631D01*
X28629930Y-24748529D01*
X28625953Y-24845522D01*
X28620273Y-24954651D01*
X28613240Y-25068957D01*
X28605202Y-25181478D01*
X28596507Y-25285257D01*
X28590986Y-25341713D01*
X28579850Y-25435811D01*
X28565053Y-25543712D01*
X28547912Y-25657544D01*
X28529744Y-25769437D01*
X28511864Y-25871518D01*
X28495589Y-25955918D01*
X28482235Y-26014764D01*
X28474517Y-26038195D01*
X28463693Y-26030053D01*
X28443838Y-25989899D01*
X28417666Y-25924057D01*
X28387890Y-25838851D01*
X28384227Y-25827698D01*
X28339126Y-25693200D01*
X28298793Y-25580257D01*
X28264755Y-25492709D01*
X28238537Y-25434397D01*
X28221665Y-25409161D01*
X28217939Y-25409122D01*
X28218613Y-25430829D01*
X28226598Y-25483927D01*
X28240572Y-25560654D01*
X28259210Y-25653247D01*
X28261089Y-25662178D01*
X28286686Y-25788571D01*
X28313948Y-25931590D01*
X28338912Y-26070076D01*
X28351754Y-26145968D01*
X28390782Y-26385190D01*
X28329863Y-26560097D01*
X28278888Y-26694221D01*
X28215854Y-26841299D01*
X28146071Y-26990283D01*
X28074846Y-27130126D01*
X28007489Y-27249784D01*
X27969885Y-27309155D01*
X27874287Y-27435766D01*
X27758276Y-27566195D01*
X27634007Y-27687821D01*
X27513636Y-27788023D01*
X27496958Y-27800217D01*
X27436283Y-27840115D01*
X27361566Y-27884073D01*
X27280812Y-27928042D01*
X27202028Y-27967974D01*
X27133220Y-27999820D01*
X27082395Y-28019532D01*
X27057558Y-28023059D01*
X27057071Y-28022670D01*
X27060762Y-28001828D01*
X27078097Y-27954244D01*
X27105550Y-27889408D01*
X27111649Y-27875855D01*
X27170836Y-27739649D01*
X27237417Y-27576610D01*
X27307032Y-27398239D01*
X27375323Y-27216037D01*
X27437932Y-27041505D01*
X27490500Y-26886145D01*
X27509821Y-26825217D01*
X27543230Y-26713545D01*
X27579276Y-26587332D01*
X27616337Y-26452878D01*
X27652792Y-26316486D01*
X27687017Y-26184456D01*
X27717391Y-26063089D01*
X27742291Y-25958686D01*
X27760096Y-25877549D01*
X27769183Y-25825979D01*
X27770008Y-25814552D01*
X27762699Y-25822233D01*
X27742310Y-25863210D01*
X27710564Y-25933518D01*
X27669186Y-26029192D01*
X27619898Y-26146266D01*
X27564425Y-26280774D01*
X27522434Y-26384175D01*
X27434396Y-26600539D01*
X27356991Y-26786299D01*
X27286950Y-26948459D01*
X27221001Y-27094021D01*
X27155876Y-27229990D01*
X27088305Y-27363368D01*
X27015017Y-27501160D01*
X26932744Y-27650368D01*
X26923855Y-27666261D01*
X26843896Y-27808027D01*
X26780117Y-27918185D01*
X26729869Y-28000520D01*
X26690500Y-28058822D01*
X26659358Y-28096877D01*
X26633794Y-28118474D01*
X26611156Y-28127400D01*
X26600473Y-28128295D01*
X26564139Y-28117617D01*
X26504271Y-28088795D01*
X26430199Y-28046651D01*
X26374523Y-28011562D01*
X26292805Y-27955336D01*
X26191602Y-27881841D01*
X26082218Y-27799488D01*
X25975959Y-27716688D01*
X25946323Y-27692972D01*
X25927106Y-27677230D01*
X24763696Y-27677230D01*
X24753673Y-27687253D01*
X24743649Y-27677230D01*
X24753673Y-27667206D01*
X24763696Y-27677230D01*
X25927106Y-27677230D01*
X25906415Y-27660281D01*
X24723602Y-27660281D01*
X24708277Y-27656484D01*
X24662470Y-27627112D01*
X24586429Y-27572341D01*
X24480406Y-27492349D01*
X24426638Y-27450997D01*
X24359125Y-27397369D01*
X24306599Y-27352810D01*
X24275228Y-27322739D01*
X24269366Y-27312865D01*
X24287023Y-27321360D01*
X24329010Y-27349693D01*
X24388411Y-27392578D01*
X24458312Y-27444724D01*
X24531798Y-27500844D01*
X24601955Y-27555649D01*
X24661868Y-27603850D01*
X24704621Y-27640159D01*
X24723301Y-27659287D01*
X24723602Y-27660281D01*
X25906415Y-27660281D01*
X25860036Y-27622290D01*
X25765298Y-27542780D01*
X25666700Y-27458508D01*
X25568833Y-27373538D01*
X25476286Y-27291935D01*
X25393650Y-27217765D01*
X25325515Y-27155091D01*
X25276472Y-27107980D01*
X25251111Y-27080496D01*
X25248818Y-27075299D01*
X25268872Y-27066511D01*
X25319129Y-27046871D01*
X25392117Y-27019242D01*
X25480364Y-26986488D01*
X25484874Y-26984830D01*
X25951800Y-26792680D01*
X26402536Y-26566178D01*
X26834373Y-26307323D01*
X27244605Y-26018116D01*
X27630524Y-25700559D01*
X27989422Y-25356652D01*
X28318593Y-24988395D01*
X28501641Y-24755328D01*
X28552264Y-24688888D01*
X28594015Y-24636630D01*
X28621202Y-24605543D01*
X28628157Y-24599961D01*
X28631381Y-24618788D01*
X28631855Y-24670631D01*
X28747253Y-24670631D01*
X28749344Y-24409511D01*
X28883383Y-24188990D01*
X29128043Y-23748215D01*
X29336930Y-23289701D01*
X29510118Y-22813225D01*
X29647683Y-22318565D01*
X29749699Y-21805496D01*
X29798064Y-21452526D01*
X29807410Y-21340882D01*
X29814341Y-21198377D01*
X29818855Y-21034173D01*
X29820953Y-20857432D01*
X29820636Y-20677315D01*
X29817902Y-20502983D01*
X29812752Y-20343598D01*
X29805186Y-20208321D01*
X29798064Y-20129400D01*
X29719398Y-19602919D01*
X29604657Y-19093922D01*
X29453803Y-18602317D01*
X29266800Y-18128014D01*
X29043610Y-17670921D01*
X28784195Y-17230948D01*
X28488518Y-16808003D01*
X28374241Y-16661208D01*
X28272182Y-16539620D01*
X28147863Y-16400938D01*
X28009716Y-16253869D01*
X27866171Y-16107121D01*
X27725659Y-15969401D01*
X27596612Y-15849416D01*
X27540255Y-15799855D01*
X27137062Y-15479804D01*
X26713131Y-15193764D01*
X26269984Y-14942399D01*
X25809140Y-14726372D01*
X25332122Y-14546344D01*
X24840450Y-14402978D01*
X24335644Y-14296938D01*
X23971826Y-14244872D01*
X23822635Y-14231373D01*
X23644800Y-14221402D01*
X23448728Y-14215040D01*
X23244825Y-14212368D01*
X23043497Y-14213465D01*
X22855151Y-14218412D01*
X22690193Y-14227290D01*
X22608606Y-14234346D01*
X22089438Y-14307041D01*
X21586408Y-14416391D01*
X21099088Y-14562572D01*
X20627051Y-14745761D01*
X20169871Y-14966134D01*
X19727119Y-15223868D01*
X19298368Y-15519139D01*
X19070247Y-15696085D01*
X18982741Y-15770193D01*
X18878367Y-15864109D01*
X18763207Y-15971832D01*
X18643346Y-16087360D01*
X18524867Y-16204692D01*
X18413852Y-16317826D01*
X18316386Y-16420761D01*
X18238552Y-16507496D01*
X18198187Y-16556409D01*
X18155774Y-16609245D01*
X18123160Y-16646657D01*
X18107974Y-16660181D01*
X18096886Y-16643092D01*
X18070059Y-16594333D01*
X18029678Y-16518096D01*
X17977931Y-16418575D01*
X17917003Y-16299965D01*
X17849081Y-16166458D01*
X17802682Y-16074600D01*
X17658817Y-15791942D01*
X17520458Y-15525893D01*
X17388804Y-15278527D01*
X17265054Y-15051919D01*
X17150406Y-14848143D01*
X17046059Y-14669274D01*
X16953213Y-14517387D01*
X16873065Y-14394555D01*
X16806814Y-14302854D01*
X16755660Y-14244359D01*
X16735528Y-14227820D01*
X16700716Y-14207166D01*
X16688230Y-14207311D01*
G36*
X44063691Y-14966561D02*
X44030920Y-14987512D01*
X43983993Y-15024470D01*
X43945058Y-15057615D01*
X43928576Y-15084645D01*
X43930260Y-15113198D01*
X43942593Y-15144693D01*
X43967560Y-15192259D01*
X44002202Y-15251098D01*
X44043563Y-15316413D01*
X44088684Y-15383403D01*
X44134607Y-15447272D01*
X44143394Y-15458941D01*
X44179247Y-15508794D01*
X44216104Y-15564484D01*
X44250922Y-15620857D01*
X44280659Y-15672759D01*
X44302272Y-15715036D01*
X44312719Y-15742533D01*
X44313230Y-15746671D01*
X44323142Y-15764302D01*
X44339282Y-15777541D01*
X44359752Y-15796838D01*
X44365333Y-15810802D01*
X44374114Y-15829764D01*
X44396084Y-15856671D01*
X44405421Y-15866050D01*
X44432084Y-15897723D01*
X44462506Y-15943028D01*
X44488404Y-15988974D01*
X44529186Y-16068566D01*
X44561304Y-16128757D01*
X44587238Y-16173697D01*
X44609465Y-16207535D01*
X44630463Y-16234420D01*
X44644020Y-16249487D01*
X44671557Y-16281399D01*
X44703528Y-16322421D01*
X44735898Y-16366821D01*
X44764630Y-16408862D01*
X44785687Y-16442809D01*
X44795034Y-16462928D01*
X44795179Y-16464263D01*
X44803435Y-16480680D01*
X44823708Y-16505699D01*
X44827714Y-16509970D01*
X44852522Y-16539118D01*
X44883840Y-16580255D01*
X44909125Y-16616097D01*
X44954764Y-16681334D01*
X45006598Y-16751958D01*
X45060059Y-16822044D01*
X45110581Y-16885669D01*
X45153597Y-16936908D01*
X45172461Y-16957724D01*
X45206485Y-16994389D01*
X45237364Y-17028916D01*
X45250291Y-17044051D01*
X45272831Y-17071040D01*
X45304915Y-17109082D01*
X45335766Y-17145435D01*
X45373873Y-17196496D01*
X45392778Y-17236953D01*
X45394596Y-17249640D01*
X45405566Y-17296133D01*
X45438303Y-17349912D01*
X45493408Y-17411667D01*
X45571482Y-17482087D01*
X45656075Y-17549061D01*
X45704344Y-17582057D01*
X45744688Y-17598726D01*
X45787093Y-17601655D01*
X45833529Y-17595019D01*
X45862433Y-17580317D01*
X45893184Y-17551949D01*
X45917823Y-17518818D01*
X45928392Y-17489825D01*
X45928410Y-17488883D01*
X45923909Y-17466934D01*
X45911950Y-17428150D01*
X45894845Y-17379845D01*
X45889333Y-17365309D01*
X45871135Y-17315159D01*
X45857455Y-17271948D01*
X45850624Y-17243227D01*
X45850256Y-17238853D01*
X45844889Y-17214790D01*
X45830837Y-17176001D01*
X45811752Y-17132221D01*
X45787709Y-17078341D01*
X45760632Y-17013309D01*
X45736101Y-16950558D01*
X45734535Y-16946359D01*
X45640624Y-16719022D01*
X45590044Y-16614205D01*
X45564737Y-16559943D01*
X45539027Y-16498057D01*
X45525655Y-16462185D01*
X45505993Y-16413745D01*
X45477615Y-16353507D01*
X45445506Y-16291832D01*
X45432953Y-16269461D01*
X45405550Y-16220798D01*
X45383908Y-16180385D01*
X45370852Y-16153612D01*
X45368307Y-16146148D01*
X45361503Y-16130201D01*
X45343891Y-16100232D01*
X45325383Y-16071846D01*
X45297383Y-16026573D01*
X45266070Y-15970018D01*
X45239633Y-15917333D01*
X45215813Y-15869523D01*
X45192845Y-15828277D01*
X45175314Y-15801775D01*
X45173907Y-15800103D01*
X45156278Y-15775120D01*
X45134189Y-15736982D01*
X45110440Y-15691532D01*
X45087829Y-15644611D01*
X45069156Y-15602064D01*
X45057220Y-15569731D01*
X45054821Y-15553456D01*
X45055414Y-15552787D01*
X45075582Y-15553150D01*
X45109910Y-15565367D01*
X45151277Y-15586263D01*
X45192565Y-15612662D01*
X45197072Y-15615971D01*
X45233986Y-15640554D01*
X45281468Y-15668385D01*
X45311463Y-15684345D01*
X45351927Y-15708261D01*
X45400302Y-15741899D01*
X45450654Y-15780506D01*
X45497051Y-15819330D01*
X45533561Y-15853618D01*
X45554252Y-15878619D01*
X45554478Y-15879017D01*
X45556203Y-15893009D01*
X45536909Y-15897705D01*
X45531128Y-15897795D01*
X45485030Y-15905727D01*
X45446833Y-15926369D01*
X45419633Y-15954984D01*
X45406524Y-15986840D01*
X45410602Y-16017201D01*
X45434961Y-16041332D01*
X45436692Y-16042252D01*
X45466225Y-16062205D01*
X45497796Y-16089931D01*
X45499400Y-16091556D01*
X45534525Y-16121851D01*
X45571943Y-16146581D01*
X45603656Y-16173012D01*
X45632937Y-16213156D01*
X45639096Y-16224735D01*
X45687216Y-16302212D01*
X45744357Y-16357220D01*
X45767202Y-16371354D01*
X45791186Y-16388057D01*
X45828599Y-16418616D01*
X45874276Y-16458646D01*
X45921897Y-16502666D01*
X45969528Y-16546333D01*
X46012957Y-16583345D01*
X46047439Y-16609836D01*
X46068225Y-16621941D01*
X46068435Y-16622001D01*
X46091201Y-16632248D01*
X46097743Y-16640782D01*
X46107706Y-16653384D01*
X46133969Y-16676350D01*
X46171096Y-16705689D01*
X46213647Y-16737407D01*
X46256186Y-16767512D01*
X46293276Y-16792013D01*
X46319477Y-16806915D01*
X46327659Y-16809590D01*
X46341775Y-16798694D01*
X46345230Y-16782770D01*
X46349919Y-16764521D01*
X46357356Y-16763444D01*
X46372908Y-16761419D01*
X46385293Y-16736319D01*
X46393890Y-16690995D01*
X46398076Y-16628300D01*
X46398071Y-16576503D01*
X46387437Y-16533715D01*
X46358439Y-16477531D01*
X46313009Y-16410888D01*
X46253078Y-16336724D01*
X46206500Y-16285063D01*
X46170318Y-16245285D01*
X46142172Y-16212045D01*
X46126074Y-16190195D01*
X46123794Y-16184993D01*
X46113080Y-16171841D01*
X46098770Y-16165146D01*
X46081875Y-16153785D01*
X46050003Y-16126987D01*
X46006534Y-16087799D01*
X45970648Y-16054103D01*
X45741667Y-16054103D01*
X45730583Y-16045606D01*
X45713487Y-16028051D01*
X45700200Y-16009346D01*
X45701822Y-16002000D01*
X45717262Y-16011828D01*
X45730002Y-16028051D01*
X45740790Y-16047954D01*
X45741667Y-16054103D01*
X45970648Y-16054103D01*
X45954848Y-16039268D01*
X45899063Y-15985166D01*
X45799734Y-15888101D01*
X45715136Y-15807346D01*
X45642145Y-15740242D01*
X45577637Y-15684128D01*
X45518487Y-15636347D01*
X45461571Y-15594238D01*
X45403763Y-15555143D01*
X45364633Y-15530338D01*
X45298159Y-15490597D01*
X45223231Y-15448128D01*
X45152393Y-15409971D01*
X45127333Y-15397152D01*
X45073161Y-15370512D01*
X45035387Y-15354151D01*
X45007270Y-15346369D01*
X44982072Y-15345470D01*
X44953056Y-15349753D01*
X44945282Y-15351263D01*
X44893514Y-15365218D01*
X44862006Y-15385746D01*
X44844976Y-15418637D01*
X44837752Y-15458974D01*
X44837148Y-15507421D01*
X44843485Y-15563522D01*
X44854973Y-15617804D01*
X44869818Y-15660796D01*
X44878891Y-15676359D01*
X44894017Y-15700027D01*
X44913334Y-15735531D01*
X44919568Y-15748000D01*
X44942740Y-15790187D01*
X44968014Y-15828819D01*
X44973161Y-15835591D01*
X44994247Y-15866804D01*
X45019601Y-15910794D01*
X45037916Y-15946309D01*
X45062553Y-15994326D01*
X45087933Y-16039651D01*
X45103225Y-16064304D01*
X45124728Y-16102932D01*
X45139282Y-16140801D01*
X45140227Y-16144685D01*
X45154937Y-16180139D01*
X45179619Y-16215819D01*
X45182017Y-16218478D01*
X45205339Y-16249216D01*
X45235681Y-16296849D01*
X45269266Y-16354566D01*
X45302318Y-16415552D01*
X45331059Y-16472995D01*
X45351714Y-16520083D01*
X45356394Y-16533038D01*
X45370516Y-16569655D01*
X45392057Y-16618627D01*
X45415939Y-16668509D01*
X45436962Y-16711453D01*
X45452413Y-16744940D01*
X45459360Y-16762574D01*
X45459487Y-16763445D01*
X45464606Y-16777863D01*
X45478484Y-16810762D01*
X45498899Y-16856998D01*
X45519598Y-16902652D01*
X45546896Y-16966098D01*
X45571175Y-17029699D01*
X45590890Y-17088517D01*
X45604495Y-17137614D01*
X45610447Y-17172051D01*
X45608285Y-17186159D01*
X45596824Y-17180499D01*
X45572575Y-17158077D01*
X45538875Y-17122590D01*
X45499062Y-17077737D01*
X45456474Y-17027214D01*
X45414450Y-16974720D01*
X45397693Y-16952872D01*
X45363898Y-16908694D01*
X45334956Y-16871846D01*
X45315157Y-16847742D01*
X45310017Y-16842154D01*
X45295380Y-16825042D01*
X45271592Y-16794003D01*
X45249730Y-16764000D01*
X45219502Y-16722645D01*
X45190747Y-16684986D01*
X45175646Y-16666308D01*
X45120736Y-16600868D01*
X45075857Y-16545185D01*
X45034837Y-16491157D01*
X44991506Y-16430677D01*
X44944974Y-16363362D01*
X44903033Y-16301972D01*
X44862463Y-16242380D01*
X44827481Y-16190793D01*
X44802303Y-16153418D01*
X44799283Y-16148898D01*
X44766666Y-16101288D01*
X44731426Y-16051767D01*
X44716750Y-16031826D01*
X44693487Y-15996619D01*
X44663696Y-15945690D01*
X44631863Y-15886923D01*
X44611893Y-15847628D01*
X44579217Y-15785529D01*
X44543294Y-15723845D01*
X44509502Y-15671553D01*
X44492529Y-15648469D01*
X44459932Y-15604416D01*
X44431304Y-15560400D01*
X44415428Y-15531187D01*
X44394956Y-15496979D01*
X44358700Y-15447966D01*
X44309467Y-15387591D01*
X44250065Y-15319297D01*
X44183406Y-15246640D01*
X44155728Y-15211131D01*
X44124843Y-15162357D01*
X44098369Y-15112724D01*
X44056115Y-15024271D01*
X44081413Y-14992110D01*
X44097303Y-14969938D01*
X44096678Y-14961270D01*
X44084690Y-14959949D01*
X44063691Y-14966561D01*
X44063691Y-14966561D01*
G37*
X44063691Y-14966561D02*
X44030920Y-14987512D01*
X43983993Y-15024470D01*
X43945058Y-15057615D01*
X43928576Y-15084645D01*
X43930260Y-15113198D01*
X43942593Y-15144693D01*
X43967560Y-15192259D01*
X44002202Y-15251098D01*
X44043563Y-15316413D01*
X44088684Y-15383403D01*
X44134607Y-15447272D01*
X44143394Y-15458941D01*
X44179247Y-15508794D01*
X44216104Y-15564484D01*
X44250922Y-15620857D01*
X44280659Y-15672759D01*
X44302272Y-15715036D01*
X44312719Y-15742533D01*
X44313230Y-15746671D01*
X44323142Y-15764302D01*
X44339282Y-15777541D01*
X44359752Y-15796838D01*
X44365333Y-15810802D01*
X44374114Y-15829764D01*
X44396084Y-15856671D01*
X44405421Y-15866050D01*
X44432084Y-15897723D01*
X44462506Y-15943028D01*
X44488404Y-15988974D01*
X44529186Y-16068566D01*
X44561304Y-16128757D01*
X44587238Y-16173697D01*
X44609465Y-16207535D01*
X44630463Y-16234420D01*
X44644020Y-16249487D01*
X44671557Y-16281399D01*
X44703528Y-16322421D01*
X44735898Y-16366821D01*
X44764630Y-16408862D01*
X44785687Y-16442809D01*
X44795034Y-16462928D01*
X44795179Y-16464263D01*
X44803435Y-16480680D01*
X44823708Y-16505699D01*
X44827714Y-16509970D01*
X44852522Y-16539118D01*
X44883840Y-16580255D01*
X44909125Y-16616097D01*
X44954764Y-16681334D01*
X45006598Y-16751958D01*
X45060059Y-16822044D01*
X45110581Y-16885669D01*
X45153597Y-16936908D01*
X45172461Y-16957724D01*
X45206485Y-16994389D01*
X45237364Y-17028916D01*
X45250291Y-17044051D01*
X45272831Y-17071040D01*
X45304915Y-17109082D01*
X45335766Y-17145435D01*
X45373873Y-17196496D01*
X45392778Y-17236953D01*
X45394596Y-17249640D01*
X45405566Y-17296133D01*
X45438303Y-17349912D01*
X45493408Y-17411667D01*
X45571482Y-17482087D01*
X45656075Y-17549061D01*
X45704344Y-17582057D01*
X45744688Y-17598726D01*
X45787093Y-17601655D01*
X45833529Y-17595019D01*
X45862433Y-17580317D01*
X45893184Y-17551949D01*
X45917823Y-17518818D01*
X45928392Y-17489825D01*
X45928410Y-17488883D01*
X45923909Y-17466934D01*
X45911950Y-17428150D01*
X45894845Y-17379845D01*
X45889333Y-17365309D01*
X45871135Y-17315159D01*
X45857455Y-17271948D01*
X45850624Y-17243227D01*
X45850256Y-17238853D01*
X45844889Y-17214790D01*
X45830837Y-17176001D01*
X45811752Y-17132221D01*
X45787709Y-17078341D01*
X45760632Y-17013309D01*
X45736101Y-16950558D01*
X45734535Y-16946359D01*
X45640624Y-16719022D01*
X45590044Y-16614205D01*
X45564737Y-16559943D01*
X45539027Y-16498057D01*
X45525655Y-16462185D01*
X45505993Y-16413745D01*
X45477615Y-16353507D01*
X45445506Y-16291832D01*
X45432953Y-16269461D01*
X45405550Y-16220798D01*
X45383908Y-16180385D01*
X45370852Y-16153612D01*
X45368307Y-16146148D01*
X45361503Y-16130201D01*
X45343891Y-16100232D01*
X45325383Y-16071846D01*
X45297383Y-16026573D01*
X45266070Y-15970018D01*
X45239633Y-15917333D01*
X45215813Y-15869523D01*
X45192845Y-15828277D01*
X45175314Y-15801775D01*
X45173907Y-15800103D01*
X45156278Y-15775120D01*
X45134189Y-15736982D01*
X45110440Y-15691532D01*
X45087829Y-15644611D01*
X45069156Y-15602064D01*
X45057220Y-15569731D01*
X45054821Y-15553456D01*
X45055414Y-15552787D01*
X45075582Y-15553150D01*
X45109910Y-15565367D01*
X45151277Y-15586263D01*
X45192565Y-15612662D01*
X45197072Y-15615971D01*
X45233986Y-15640554D01*
X45281468Y-15668385D01*
X45311463Y-15684345D01*
X45351927Y-15708261D01*
X45400302Y-15741899D01*
X45450654Y-15780506D01*
X45497051Y-15819330D01*
X45533561Y-15853618D01*
X45554252Y-15878619D01*
X45554478Y-15879017D01*
X45556203Y-15893009D01*
X45536909Y-15897705D01*
X45531128Y-15897795D01*
X45485030Y-15905727D01*
X45446833Y-15926369D01*
X45419633Y-15954984D01*
X45406524Y-15986840D01*
X45410602Y-16017201D01*
X45434961Y-16041332D01*
X45436692Y-16042252D01*
X45466225Y-16062205D01*
X45497796Y-16089931D01*
X45499400Y-16091556D01*
X45534525Y-16121851D01*
X45571943Y-16146581D01*
X45603656Y-16173012D01*
X45632937Y-16213156D01*
X45639096Y-16224735D01*
X45687216Y-16302212D01*
X45744357Y-16357220D01*
X45767202Y-16371354D01*
X45791186Y-16388057D01*
X45828599Y-16418616D01*
X45874276Y-16458646D01*
X45921897Y-16502666D01*
X45969528Y-16546333D01*
X46012957Y-16583345D01*
X46047439Y-16609836D01*
X46068225Y-16621941D01*
X46068435Y-16622001D01*
X46091201Y-16632248D01*
X46097743Y-16640782D01*
X46107706Y-16653384D01*
X46133969Y-16676350D01*
X46171096Y-16705689D01*
X46213647Y-16737407D01*
X46256186Y-16767512D01*
X46293276Y-16792013D01*
X46319477Y-16806915D01*
X46327659Y-16809590D01*
X46341775Y-16798694D01*
X46345230Y-16782770D01*
X46349919Y-16764521D01*
X46357356Y-16763444D01*
X46372908Y-16761419D01*
X46385293Y-16736319D01*
X46393890Y-16690995D01*
X46398076Y-16628300D01*
X46398071Y-16576503D01*
X46387437Y-16533715D01*
X46358439Y-16477531D01*
X46313009Y-16410888D01*
X46253078Y-16336724D01*
X46206500Y-16285063D01*
X46170318Y-16245285D01*
X46142172Y-16212045D01*
X46126074Y-16190195D01*
X46123794Y-16184993D01*
X46113080Y-16171841D01*
X46098770Y-16165146D01*
X46081875Y-16153785D01*
X46050003Y-16126987D01*
X46006534Y-16087799D01*
X45970648Y-16054103D01*
X45741667Y-16054103D01*
X45730583Y-16045606D01*
X45713487Y-16028051D01*
X45700200Y-16009346D01*
X45701822Y-16002000D01*
X45717262Y-16011828D01*
X45730002Y-16028051D01*
X45740790Y-16047954D01*
X45741667Y-16054103D01*
X45970648Y-16054103D01*
X45954848Y-16039268D01*
X45899063Y-15985166D01*
X45799734Y-15888101D01*
X45715136Y-15807346D01*
X45642145Y-15740242D01*
X45577637Y-15684128D01*
X45518487Y-15636347D01*
X45461571Y-15594238D01*
X45403763Y-15555143D01*
X45364633Y-15530338D01*
X45298159Y-15490597D01*
X45223231Y-15448128D01*
X45152393Y-15409971D01*
X45127333Y-15397152D01*
X45073161Y-15370512D01*
X45035387Y-15354151D01*
X45007270Y-15346369D01*
X44982072Y-15345470D01*
X44953056Y-15349753D01*
X44945282Y-15351263D01*
X44893514Y-15365218D01*
X44862006Y-15385746D01*
X44844976Y-15418637D01*
X44837752Y-15458974D01*
X44837148Y-15507421D01*
X44843485Y-15563522D01*
X44854973Y-15617804D01*
X44869818Y-15660796D01*
X44878891Y-15676359D01*
X44894017Y-15700027D01*
X44913334Y-15735531D01*
X44919568Y-15748000D01*
X44942740Y-15790187D01*
X44968014Y-15828819D01*
X44973161Y-15835591D01*
X44994247Y-15866804D01*
X45019601Y-15910794D01*
X45037916Y-15946309D01*
X45062553Y-15994326D01*
X45087933Y-16039651D01*
X45103225Y-16064304D01*
X45124728Y-16102932D01*
X45139282Y-16140801D01*
X45140227Y-16144685D01*
X45154937Y-16180139D01*
X45179619Y-16215819D01*
X45182017Y-16218478D01*
X45205339Y-16249216D01*
X45235681Y-16296849D01*
X45269266Y-16354566D01*
X45302318Y-16415552D01*
X45331059Y-16472995D01*
X45351714Y-16520083D01*
X45356394Y-16533038D01*
X45370516Y-16569655D01*
X45392057Y-16618627D01*
X45415939Y-16668509D01*
X45436962Y-16711453D01*
X45452413Y-16744940D01*
X45459360Y-16762574D01*
X45459487Y-16763445D01*
X45464606Y-16777863D01*
X45478484Y-16810762D01*
X45498899Y-16856998D01*
X45519598Y-16902652D01*
X45546896Y-16966098D01*
X45571175Y-17029699D01*
X45590890Y-17088517D01*
X45604495Y-17137614D01*
X45610447Y-17172051D01*
X45608285Y-17186159D01*
X45596824Y-17180499D01*
X45572575Y-17158077D01*
X45538875Y-17122590D01*
X45499062Y-17077737D01*
X45456474Y-17027214D01*
X45414450Y-16974720D01*
X45397693Y-16952872D01*
X45363898Y-16908694D01*
X45334956Y-16871846D01*
X45315157Y-16847742D01*
X45310017Y-16842154D01*
X45295380Y-16825042D01*
X45271592Y-16794003D01*
X45249730Y-16764000D01*
X45219502Y-16722645D01*
X45190747Y-16684986D01*
X45175646Y-16666308D01*
X45120736Y-16600868D01*
X45075857Y-16545185D01*
X45034837Y-16491157D01*
X44991506Y-16430677D01*
X44944974Y-16363362D01*
X44903033Y-16301972D01*
X44862463Y-16242380D01*
X44827481Y-16190793D01*
X44802303Y-16153418D01*
X44799283Y-16148898D01*
X44766666Y-16101288D01*
X44731426Y-16051767D01*
X44716750Y-16031826D01*
X44693487Y-15996619D01*
X44663696Y-15945690D01*
X44631863Y-15886923D01*
X44611893Y-15847628D01*
X44579217Y-15785529D01*
X44543294Y-15723845D01*
X44509502Y-15671553D01*
X44492529Y-15648469D01*
X44459932Y-15604416D01*
X44431304Y-15560400D01*
X44415428Y-15531187D01*
X44394956Y-15496979D01*
X44358700Y-15447966D01*
X44309467Y-15387591D01*
X44250065Y-15319297D01*
X44183406Y-15246640D01*
X44155728Y-15211131D01*
X44124843Y-15162357D01*
X44098369Y-15112724D01*
X44056115Y-15024271D01*
X44081413Y-14992110D01*
X44097303Y-14969938D01*
X44096678Y-14961270D01*
X44084690Y-14959949D01*
X44063691Y-14966561D01*
G36*
X43123494Y-16507382D02*
X43114871Y-16521431D01*
X43106519Y-16535806D01*
X43085443Y-16560808D01*
X43073820Y-16573094D01*
X43032768Y-16615083D01*
X43048648Y-16689541D01*
X43060041Y-16733542D01*
X43078109Y-16792851D01*
X43100029Y-16858515D01*
X43115750Y-16902377D01*
X43136172Y-16958257D01*
X43152728Y-17004913D01*
X43163586Y-17037091D01*
X43166974Y-17049286D01*
X43172229Y-17064181D01*
X43186242Y-17096532D01*
X43206389Y-17140363D01*
X43214920Y-17158396D01*
X43241749Y-17217300D01*
X43267901Y-17279079D01*
X43288154Y-17331348D01*
X43289818Y-17336042D01*
X43316769Y-17413110D01*
X43406353Y-17443208D01*
X43495936Y-17473306D01*
X43489724Y-17418192D01*
X43487942Y-17377080D01*
X43491215Y-17343234D01*
X43492940Y-17337078D01*
X43494637Y-17304905D01*
X43488184Y-17285026D01*
X43476570Y-17261860D01*
X43473012Y-17252462D01*
X43465744Y-17225107D01*
X43451025Y-17181755D01*
X43431864Y-17130269D01*
X43411272Y-17078509D01*
X43392259Y-17034338D01*
X43379791Y-17008995D01*
X43363342Y-16972359D01*
X43360905Y-16950680D01*
X43370686Y-16946888D01*
X43390893Y-16963916D01*
X43400251Y-16975543D01*
X43422666Y-17004921D01*
X43439870Y-17026619D01*
X43440371Y-17027219D01*
X43452269Y-17048593D01*
X43453538Y-17055442D01*
X43461837Y-17071478D01*
X43463307Y-17072273D01*
X43480731Y-17088753D01*
X43503356Y-17120920D01*
X43526277Y-17160451D01*
X43544587Y-17199022D01*
X43552691Y-17223942D01*
X43567693Y-17262836D01*
X43592795Y-17300422D01*
X43595285Y-17303194D01*
X43633953Y-17349729D01*
X43675314Y-17406952D01*
X43711455Y-17463520D01*
X43727498Y-17492740D01*
X43749610Y-17527634D01*
X43779671Y-17564555D01*
X43785692Y-17570894D01*
X43814940Y-17605376D01*
X43837659Y-17640151D01*
X43840772Y-17646487D01*
X43859448Y-17675073D01*
X43877363Y-17680164D01*
X43891142Y-17661175D01*
X43892828Y-17655520D01*
X43905847Y-17636023D01*
X43919129Y-17636136D01*
X43944593Y-17634492D01*
X43976983Y-17619245D01*
X44006888Y-17596637D01*
X44024898Y-17572913D01*
X44026666Y-17564783D01*
X44032898Y-17540292D01*
X44039692Y-17532513D01*
X44051938Y-17515082D01*
X44040682Y-17490769D01*
X44030374Y-17479466D01*
X44013233Y-17453795D01*
X43993850Y-17412873D01*
X43976201Y-17366751D01*
X43964257Y-17325476D01*
X43961419Y-17305064D01*
X43955861Y-17282716D01*
X43941708Y-17246760D01*
X43929262Y-17219897D01*
X43905710Y-17162974D01*
X43897248Y-17119952D01*
X43904341Y-17093742D01*
X43908625Y-17090142D01*
X43923455Y-17094373D01*
X43942964Y-17114869D01*
X43944446Y-17116979D01*
X43972215Y-17152831D01*
X43997359Y-17180613D01*
X44017785Y-17203706D01*
X44026655Y-17219103D01*
X44026666Y-17219380D01*
X44033548Y-17235587D01*
X44050258Y-17262018D01*
X44051686Y-17264039D01*
X44071408Y-17295039D01*
X44096022Y-17338345D01*
X44122375Y-17387779D01*
X44147319Y-17437161D01*
X44167700Y-17480313D01*
X44180368Y-17511055D01*
X44182974Y-17521479D01*
X44192898Y-17540478D01*
X44213383Y-17558350D01*
X44243131Y-17585258D01*
X44260198Y-17608930D01*
X44280786Y-17633865D01*
X44314478Y-17662455D01*
X44333550Y-17675580D01*
X44371321Y-17703095D01*
X44402070Y-17731758D01*
X44411349Y-17743403D01*
X44429663Y-17764450D01*
X44445643Y-17763713D01*
X44449526Y-17760854D01*
X44460603Y-17737849D01*
X44459705Y-17719162D01*
X44458586Y-17699295D01*
X44470819Y-17698474D01*
X44485330Y-17712480D01*
X44485820Y-17719756D01*
X44490210Y-17733049D01*
X44509918Y-17730580D01*
X44540392Y-17713435D01*
X44553458Y-17703612D01*
X44574504Y-17685531D01*
X44584617Y-17669083D01*
X44585711Y-17645787D01*
X44579699Y-17607160D01*
X44577696Y-17596215D01*
X44569881Y-17545352D01*
X44569869Y-17518460D01*
X44577997Y-17514551D01*
X44594603Y-17532639D01*
X44597858Y-17537206D01*
X44623043Y-17569965D01*
X44648641Y-17599670D01*
X44668654Y-17623184D01*
X44677878Y-17637680D01*
X44677948Y-17638230D01*
X44685709Y-17650951D01*
X44705977Y-17677457D01*
X44732090Y-17709278D01*
X44772420Y-17749528D01*
X44808821Y-17771685D01*
X44837822Y-17774226D01*
X44852715Y-17762208D01*
X44869352Y-17755657D01*
X44890462Y-17756813D01*
X44918144Y-17754134D01*
X44946423Y-17732199D01*
X44955901Y-17721503D01*
X44977797Y-17692072D01*
X44989880Y-17669211D01*
X44990700Y-17665026D01*
X44991276Y-17645786D01*
X44992697Y-17607423D01*
X44994703Y-17556840D01*
X44995654Y-17533709D01*
X44996921Y-17469930D01*
X44993856Y-17423964D01*
X44985539Y-17387796D01*
X44976265Y-17364376D01*
X44960794Y-17320792D01*
X44952307Y-17278435D01*
X44951773Y-17269092D01*
X44946090Y-17230654D01*
X44932227Y-17185363D01*
X44926452Y-17171400D01*
X44926172Y-17170769D01*
X44666916Y-17170769D01*
X44659053Y-17174308D01*
X44645909Y-17167795D01*
X44261128Y-17167795D01*
X44254615Y-17174308D01*
X44248102Y-17167795D01*
X44254615Y-17161282D01*
X44261128Y-17167795D01*
X44645909Y-17167795D01*
X44638170Y-17163961D01*
X44625846Y-17148256D01*
X44617802Y-17128142D01*
X44619333Y-17122205D01*
X44619962Y-17112662D01*
X44612820Y-17096154D01*
X44602655Y-17074145D01*
X44605395Y-17071661D01*
X44618935Y-17086934D01*
X44641170Y-17118196D01*
X44643838Y-17122205D01*
X44663264Y-17154650D01*
X44666916Y-17170769D01*
X44926172Y-17170769D01*
X44905851Y-17125120D01*
X44885759Y-17079327D01*
X44881422Y-17069312D01*
X44862850Y-17038033D01*
X44831466Y-16996536D01*
X44793279Y-16952615D01*
X44783512Y-16942312D01*
X44743102Y-16902015D01*
X44713726Y-16877701D01*
X44689479Y-16865559D01*
X44664457Y-16861780D01*
X44658580Y-16861692D01*
X44615793Y-16867658D01*
X44569330Y-16882421D01*
X44559976Y-16886616D01*
X44508391Y-16911539D01*
X44476570Y-16857240D01*
X44448699Y-16817336D01*
X44411028Y-16772730D01*
X44385109Y-16746101D01*
X44350155Y-16714669D01*
X44325143Y-16698867D01*
X44302486Y-16695051D01*
X44284000Y-16697554D01*
X44245324Y-16712696D01*
X44209172Y-16737820D01*
X44208205Y-16738734D01*
X44187852Y-16761622D01*
X44178880Y-16785425D01*
X44178371Y-16820506D01*
X44179833Y-16839451D01*
X44186447Y-16887189D01*
X44198036Y-16946874D01*
X44211937Y-17004974D01*
X44225453Y-17055502D01*
X44237027Y-17098827D01*
X44244418Y-17126556D01*
X44244991Y-17128718D01*
X44245008Y-17140605D01*
X44234613Y-17132954D01*
X44216195Y-17108915D01*
X44192143Y-17071639D01*
X44164843Y-17024276D01*
X44162328Y-17019662D01*
X44134298Y-16975790D01*
X44095118Y-16924153D01*
X44052561Y-16874892D01*
X44046205Y-16868166D01*
X44001774Y-16824332D01*
X43965272Y-16795739D01*
X43928724Y-16776994D01*
X43894405Y-16765555D01*
X43839392Y-16751194D01*
X43800972Y-16746848D01*
X43771146Y-16753936D01*
X43741914Y-16773873D01*
X43716675Y-16797048D01*
X43684243Y-16831159D01*
X43667719Y-16858994D01*
X43662195Y-16889942D01*
X43661948Y-16901711D01*
X43660651Y-16934241D01*
X43654590Y-16946014D01*
X43640507Y-16942278D01*
X43637696Y-16940809D01*
X43619826Y-16923949D01*
X43594025Y-16890776D01*
X43565149Y-16847674D01*
X43557823Y-16835774D01*
X43502641Y-16758530D01*
X43432563Y-16681410D01*
X43354829Y-16611301D01*
X43276681Y-16555089D01*
X43242311Y-16535654D01*
X43191441Y-16513936D01*
X43150410Y-16504353D01*
X43123494Y-16507382D01*
X43123494Y-16507382D01*
G37*
X43123494Y-16507382D02*
X43114871Y-16521431D01*
X43106519Y-16535806D01*
X43085443Y-16560808D01*
X43073820Y-16573094D01*
X43032768Y-16615083D01*
X43048648Y-16689541D01*
X43060041Y-16733542D01*
X43078109Y-16792851D01*
X43100029Y-16858515D01*
X43115750Y-16902377D01*
X43136172Y-16958257D01*
X43152728Y-17004913D01*
X43163586Y-17037091D01*
X43166974Y-17049286D01*
X43172229Y-17064181D01*
X43186242Y-17096532D01*
X43206389Y-17140363D01*
X43214920Y-17158396D01*
X43241749Y-17217300D01*
X43267901Y-17279079D01*
X43288154Y-17331348D01*
X43289818Y-17336042D01*
X43316769Y-17413110D01*
X43406353Y-17443208D01*
X43495936Y-17473306D01*
X43489724Y-17418192D01*
X43487942Y-17377080D01*
X43491215Y-17343234D01*
X43492940Y-17337078D01*
X43494637Y-17304905D01*
X43488184Y-17285026D01*
X43476570Y-17261860D01*
X43473012Y-17252462D01*
X43465744Y-17225107D01*
X43451025Y-17181755D01*
X43431864Y-17130269D01*
X43411272Y-17078509D01*
X43392259Y-17034338D01*
X43379791Y-17008995D01*
X43363342Y-16972359D01*
X43360905Y-16950680D01*
X43370686Y-16946888D01*
X43390893Y-16963916D01*
X43400251Y-16975543D01*
X43422666Y-17004921D01*
X43439870Y-17026619D01*
X43440371Y-17027219D01*
X43452269Y-17048593D01*
X43453538Y-17055442D01*
X43461837Y-17071478D01*
X43463307Y-17072273D01*
X43480731Y-17088753D01*
X43503356Y-17120920D01*
X43526277Y-17160451D01*
X43544587Y-17199022D01*
X43552691Y-17223942D01*
X43567693Y-17262836D01*
X43592795Y-17300422D01*
X43595285Y-17303194D01*
X43633953Y-17349729D01*
X43675314Y-17406952D01*
X43711455Y-17463520D01*
X43727498Y-17492740D01*
X43749610Y-17527634D01*
X43779671Y-17564555D01*
X43785692Y-17570894D01*
X43814940Y-17605376D01*
X43837659Y-17640151D01*
X43840772Y-17646487D01*
X43859448Y-17675073D01*
X43877363Y-17680164D01*
X43891142Y-17661175D01*
X43892828Y-17655520D01*
X43905847Y-17636023D01*
X43919129Y-17636136D01*
X43944593Y-17634492D01*
X43976983Y-17619245D01*
X44006888Y-17596637D01*
X44024898Y-17572913D01*
X44026666Y-17564783D01*
X44032898Y-17540292D01*
X44039692Y-17532513D01*
X44051938Y-17515082D01*
X44040682Y-17490769D01*
X44030374Y-17479466D01*
X44013233Y-17453795D01*
X43993850Y-17412873D01*
X43976201Y-17366751D01*
X43964257Y-17325476D01*
X43961419Y-17305064D01*
X43955861Y-17282716D01*
X43941708Y-17246760D01*
X43929262Y-17219897D01*
X43905710Y-17162974D01*
X43897248Y-17119952D01*
X43904341Y-17093742D01*
X43908625Y-17090142D01*
X43923455Y-17094373D01*
X43942964Y-17114869D01*
X43944446Y-17116979D01*
X43972215Y-17152831D01*
X43997359Y-17180613D01*
X44017785Y-17203706D01*
X44026655Y-17219103D01*
X44026666Y-17219380D01*
X44033548Y-17235587D01*
X44050258Y-17262018D01*
X44051686Y-17264039D01*
X44071408Y-17295039D01*
X44096022Y-17338345D01*
X44122375Y-17387779D01*
X44147319Y-17437161D01*
X44167700Y-17480313D01*
X44180368Y-17511055D01*
X44182974Y-17521479D01*
X44192898Y-17540478D01*
X44213383Y-17558350D01*
X44243131Y-17585258D01*
X44260198Y-17608930D01*
X44280786Y-17633865D01*
X44314478Y-17662455D01*
X44333550Y-17675580D01*
X44371321Y-17703095D01*
X44402070Y-17731758D01*
X44411349Y-17743403D01*
X44429663Y-17764450D01*
X44445643Y-17763713D01*
X44449526Y-17760854D01*
X44460603Y-17737849D01*
X44459705Y-17719162D01*
X44458586Y-17699295D01*
X44470819Y-17698474D01*
X44485330Y-17712480D01*
X44485820Y-17719756D01*
X44490210Y-17733049D01*
X44509918Y-17730580D01*
X44540392Y-17713435D01*
X44553458Y-17703612D01*
X44574504Y-17685531D01*
X44584617Y-17669083D01*
X44585711Y-17645787D01*
X44579699Y-17607160D01*
X44577696Y-17596215D01*
X44569881Y-17545352D01*
X44569869Y-17518460D01*
X44577997Y-17514551D01*
X44594603Y-17532639D01*
X44597858Y-17537206D01*
X44623043Y-17569965D01*
X44648641Y-17599670D01*
X44668654Y-17623184D01*
X44677878Y-17637680D01*
X44677948Y-17638230D01*
X44685709Y-17650951D01*
X44705977Y-17677457D01*
X44732090Y-17709278D01*
X44772420Y-17749528D01*
X44808821Y-17771685D01*
X44837822Y-17774226D01*
X44852715Y-17762208D01*
X44869352Y-17755657D01*
X44890462Y-17756813D01*
X44918144Y-17754134D01*
X44946423Y-17732199D01*
X44955901Y-17721503D01*
X44977797Y-17692072D01*
X44989880Y-17669211D01*
X44990700Y-17665026D01*
X44991276Y-17645786D01*
X44992697Y-17607423D01*
X44994703Y-17556840D01*
X44995654Y-17533709D01*
X44996921Y-17469930D01*
X44993856Y-17423964D01*
X44985539Y-17387796D01*
X44976265Y-17364376D01*
X44960794Y-17320792D01*
X44952307Y-17278435D01*
X44951773Y-17269092D01*
X44946090Y-17230654D01*
X44932227Y-17185363D01*
X44926452Y-17171400D01*
X44926172Y-17170769D01*
X44666916Y-17170769D01*
X44659053Y-17174308D01*
X44645909Y-17167795D01*
X44261128Y-17167795D01*
X44254615Y-17174308D01*
X44248102Y-17167795D01*
X44254615Y-17161282D01*
X44261128Y-17167795D01*
X44645909Y-17167795D01*
X44638170Y-17163961D01*
X44625846Y-17148256D01*
X44617802Y-17128142D01*
X44619333Y-17122205D01*
X44619962Y-17112662D01*
X44612820Y-17096154D01*
X44602655Y-17074145D01*
X44605395Y-17071661D01*
X44618935Y-17086934D01*
X44641170Y-17118196D01*
X44643838Y-17122205D01*
X44663264Y-17154650D01*
X44666916Y-17170769D01*
X44926172Y-17170769D01*
X44905851Y-17125120D01*
X44885759Y-17079327D01*
X44881422Y-17069312D01*
X44862850Y-17038033D01*
X44831466Y-16996536D01*
X44793279Y-16952615D01*
X44783512Y-16942312D01*
X44743102Y-16902015D01*
X44713726Y-16877701D01*
X44689479Y-16865559D01*
X44664457Y-16861780D01*
X44658580Y-16861692D01*
X44615793Y-16867658D01*
X44569330Y-16882421D01*
X44559976Y-16886616D01*
X44508391Y-16911539D01*
X44476570Y-16857240D01*
X44448699Y-16817336D01*
X44411028Y-16772730D01*
X44385109Y-16746101D01*
X44350155Y-16714669D01*
X44325143Y-16698867D01*
X44302486Y-16695051D01*
X44284000Y-16697554D01*
X44245324Y-16712696D01*
X44209172Y-16737820D01*
X44208205Y-16738734D01*
X44187852Y-16761622D01*
X44178880Y-16785425D01*
X44178371Y-16820506D01*
X44179833Y-16839451D01*
X44186447Y-16887189D01*
X44198036Y-16946874D01*
X44211937Y-17004974D01*
X44225453Y-17055502D01*
X44237027Y-17098827D01*
X44244418Y-17126556D01*
X44244991Y-17128718D01*
X44245008Y-17140605D01*
X44234613Y-17132954D01*
X44216195Y-17108915D01*
X44192143Y-17071639D01*
X44164843Y-17024276D01*
X44162328Y-17019662D01*
X44134298Y-16975790D01*
X44095118Y-16924153D01*
X44052561Y-16874892D01*
X44046205Y-16868166D01*
X44001774Y-16824332D01*
X43965272Y-16795739D01*
X43928724Y-16776994D01*
X43894405Y-16765555D01*
X43839392Y-16751194D01*
X43800972Y-16746848D01*
X43771146Y-16753936D01*
X43741914Y-16773873D01*
X43716675Y-16797048D01*
X43684243Y-16831159D01*
X43667719Y-16858994D01*
X43662195Y-16889942D01*
X43661948Y-16901711D01*
X43660651Y-16934241D01*
X43654590Y-16946014D01*
X43640507Y-16942278D01*
X43637696Y-16940809D01*
X43619826Y-16923949D01*
X43594025Y-16890776D01*
X43565149Y-16847674D01*
X43557823Y-16835774D01*
X43502641Y-16758530D01*
X43432563Y-16681410D01*
X43354829Y-16611301D01*
X43276681Y-16555089D01*
X43242311Y-16535654D01*
X43191441Y-16513936D01*
X43150410Y-16504353D01*
X43123494Y-16507382D01*
G36*
X41259052Y-15038583D02*
X41240772Y-15066037D01*
X41239179Y-15077918D01*
X41231035Y-15098629D01*
X41220099Y-15103231D01*
X41201678Y-15112221D01*
X41185526Y-15132059D01*
X41179072Y-15152040D01*
X41181666Y-15158606D01*
X41185984Y-15173800D01*
X41191656Y-15208446D01*
X41197675Y-15256051D01*
X41199647Y-15274293D01*
X41212264Y-15355706D01*
X41233895Y-15426552D01*
X41254953Y-15474462D01*
X41293023Y-15547970D01*
X41333466Y-15617002D01*
X41371836Y-15674296D01*
X41395487Y-15703986D01*
X41431230Y-15744621D01*
X41467165Y-15787182D01*
X41509529Y-15839130D01*
X41535701Y-15871744D01*
X41574395Y-15918568D01*
X41613791Y-15963703D01*
X41646079Y-15998234D01*
X41649239Y-16001373D01*
X41676017Y-16030847D01*
X41692527Y-16055197D01*
X41695076Y-16063245D01*
X41703044Y-16078819D01*
X41708102Y-16080154D01*
X41718721Y-16091052D01*
X41721128Y-16105940D01*
X41708134Y-16131576D01*
X41669238Y-16158183D01*
X41666585Y-16159552D01*
X41629631Y-16180242D01*
X41600859Y-16199545D01*
X41594014Y-16205407D01*
X41574600Y-16220478D01*
X41566396Y-16223436D01*
X41553195Y-16235068D01*
X41538305Y-16265082D01*
X41524272Y-16306157D01*
X41513643Y-16350969D01*
X41509102Y-16388191D01*
X41505035Y-16424246D01*
X41497873Y-16446151D01*
X41493179Y-16449399D01*
X41479593Y-16437607D01*
X41460902Y-16410332D01*
X41453581Y-16397296D01*
X41416489Y-16328025D01*
X41388216Y-16277200D01*
X41365860Y-16240001D01*
X41346518Y-16211609D01*
X41327287Y-16187204D01*
X41326417Y-16186169D01*
X41296908Y-16145687D01*
X41268528Y-16098406D01*
X41261763Y-16085220D01*
X41242851Y-16051953D01*
X41225840Y-16031339D01*
X41219367Y-16028051D01*
X41206341Y-16017129D01*
X41188325Y-15989013D01*
X41175389Y-15963095D01*
X41152630Y-15921042D01*
X41127171Y-15885890D01*
X41114452Y-15873297D01*
X41092141Y-15852159D01*
X41082871Y-15836249D01*
X41072610Y-15821817D01*
X41050901Y-15806933D01*
X41029760Y-15788936D01*
X41000423Y-15755997D01*
X40968444Y-15715305D01*
X40939374Y-15674046D01*
X40918765Y-15639409D01*
X40914813Y-15630769D01*
X40902628Y-15612582D01*
X40882249Y-15589139D01*
X40839857Y-15544036D01*
X40810792Y-15510914D01*
X40789796Y-15483494D01*
X40775269Y-15461436D01*
X40728226Y-15395002D01*
X40682403Y-15347386D01*
X40639936Y-15320091D01*
X40602959Y-15314622D01*
X40581215Y-15324807D01*
X40564786Y-15346398D01*
X40561846Y-15357739D01*
X40552229Y-15376800D01*
X40529488Y-15398478D01*
X40497130Y-15422359D01*
X40535088Y-15501673D01*
X40559589Y-15546048D01*
X40585709Y-15582852D01*
X40605408Y-15602192D01*
X40627544Y-15622710D01*
X40657930Y-15658614D01*
X40691012Y-15703193D01*
X40700756Y-15717440D01*
X40743842Y-15780549D01*
X40778123Y-15827340D01*
X40808320Y-15863764D01*
X40839153Y-15895770D01*
X40851666Y-15907683D01*
X40875199Y-15934183D01*
X40887123Y-15956408D01*
X40887487Y-15959332D01*
X40893302Y-15971837D01*
X40898270Y-15970822D01*
X40910919Y-15976577D01*
X40933320Y-15996726D01*
X40959645Y-16024784D01*
X40984066Y-16054265D01*
X41000756Y-16078684D01*
X41004717Y-16089271D01*
X41014502Y-16103728D01*
X41030530Y-16116058D01*
X41050983Y-16136606D01*
X41075075Y-16171536D01*
X41088541Y-16195720D01*
X41109767Y-16232536D01*
X41129645Y-16258738D01*
X41139212Y-16266350D01*
X41155651Y-16281520D01*
X41176280Y-16311906D01*
X41186048Y-16329848D01*
X41205322Y-16367542D01*
X41221241Y-16397588D01*
X41225837Y-16405795D01*
X41236035Y-16425898D01*
X41253725Y-16463285D01*
X41275844Y-16511425D01*
X41286962Y-16536051D01*
X41312449Y-16589280D01*
X41338011Y-16636741D01*
X41359455Y-16670849D01*
X41366073Y-16679200D01*
X41386689Y-16702935D01*
X41395336Y-16718631D01*
X41389103Y-16727804D01*
X41365077Y-16731965D01*
X41320346Y-16732628D01*
X41265230Y-16731603D01*
X41204198Y-16726731D01*
X41157265Y-16712298D01*
X41113341Y-16683784D01*
X41083086Y-16657358D01*
X41052601Y-16633774D01*
X41024686Y-16619210D01*
X41024256Y-16619077D01*
X40993770Y-16604342D01*
X40972153Y-16588942D01*
X40944070Y-16570678D01*
X40899844Y-16547826D01*
X40847976Y-16524242D01*
X40796970Y-16503780D01*
X40755325Y-16490297D01*
X40753807Y-16489916D01*
X40687460Y-16485537D01*
X40620612Y-16501513D01*
X40563672Y-16535178D01*
X40558331Y-16539968D01*
X40529466Y-16570386D01*
X40509140Y-16597860D01*
X40505158Y-16605903D01*
X40494741Y-16622248D01*
X40478439Y-16615233D01*
X40476932Y-16614000D01*
X40451407Y-16602903D01*
X40414253Y-16596809D01*
X40408386Y-16596549D01*
X40370448Y-16600404D01*
X40339313Y-16618088D01*
X40319146Y-16637298D01*
X40291131Y-16661498D01*
X40260303Y-16675116D01*
X40221790Y-16678309D01*
X40170722Y-16671229D01*
X40102227Y-16654034D01*
X40071585Y-16645165D01*
X39981630Y-16619719D01*
X39900694Y-16599103D01*
X39833326Y-16584366D01*
X39784076Y-16576556D01*
X39769452Y-16575586D01*
X39742637Y-16584676D01*
X39709664Y-16607835D01*
X39678226Y-16637944D01*
X39656020Y-16667880D01*
X39650051Y-16686083D01*
X39642532Y-16703258D01*
X39636256Y-16705385D01*
X39628193Y-16713229D01*
X39629933Y-16717472D01*
X39626067Y-16730616D01*
X39614379Y-16736868D01*
X39598063Y-16752525D01*
X39580526Y-16784030D01*
X39566078Y-16821775D01*
X39559025Y-16856151D01*
X39558871Y-16860674D01*
X39569379Y-16873337D01*
X39596401Y-16892659D01*
X39620743Y-16907011D01*
X39673831Y-16945107D01*
X39719417Y-16994175D01*
X39750467Y-17046011D01*
X39757451Y-17066504D01*
X39760785Y-17085744D01*
X39752759Y-17087821D01*
X39730152Y-17076187D01*
X39673357Y-17039602D01*
X39622117Y-16998048D01*
X39594156Y-16969154D01*
X39572578Y-16947940D01*
X39556862Y-16939846D01*
X39540180Y-16932147D01*
X39511233Y-16912339D01*
X39488081Y-16894256D01*
X39455728Y-16869074D01*
X39431349Y-16852517D01*
X39422771Y-16848667D01*
X39406397Y-16841802D01*
X39379988Y-16825179D01*
X39378523Y-16824146D01*
X39337882Y-16804139D01*
X39282630Y-16787740D01*
X39223747Y-16777243D01*
X39172207Y-16774941D01*
X39154034Y-16777254D01*
X39117070Y-16796016D01*
X39101924Y-16820565D01*
X39087704Y-16856796D01*
X39076923Y-16881231D01*
X39062993Y-16913350D01*
X39051060Y-16944161D01*
X39037088Y-16965994D01*
X39020507Y-16974863D01*
X39009148Y-16969031D01*
X39008861Y-16953532D01*
X39005034Y-16943770D01*
X39000142Y-16945510D01*
X38982330Y-16943657D01*
X38968185Y-16933453D01*
X38949058Y-16917560D01*
X38940701Y-16913795D01*
X38926770Y-16906087D01*
X38896320Y-16884802D01*
X38853126Y-16852700D01*
X38800961Y-16812540D01*
X38783846Y-16799112D01*
X38737228Y-16772262D01*
X38673376Y-16748410D01*
X38600792Y-16729475D01*
X38527978Y-16717376D01*
X38463436Y-16714033D01*
X38425974Y-16718331D01*
X38398978Y-16734406D01*
X38367237Y-16766988D01*
X38335725Y-16808879D01*
X38309416Y-16852881D01*
X38293282Y-16891795D01*
X38290927Y-16913795D01*
X38300460Y-16953343D01*
X38315360Y-16998446D01*
X38332216Y-17040193D01*
X38347617Y-17069669D01*
X38353232Y-17076615D01*
X38371582Y-17095901D01*
X38397993Y-17127009D01*
X38427758Y-17163940D01*
X38456168Y-17200696D01*
X38478517Y-17231278D01*
X38490097Y-17249687D01*
X38490769Y-17251875D01*
X38497904Y-17266045D01*
X38516635Y-17295350D01*
X38542955Y-17334069D01*
X38572855Y-17376478D01*
X38602326Y-17416853D01*
X38627359Y-17449471D01*
X38638674Y-17463043D01*
X38650886Y-17482989D01*
X38650333Y-17492350D01*
X38652700Y-17499368D01*
X38657931Y-17499949D01*
X38670694Y-17510708D01*
X38673128Y-17523395D01*
X38683947Y-17556172D01*
X38716005Y-17574324D01*
X38750992Y-17578103D01*
X38794691Y-17570862D01*
X38821321Y-17547368D01*
X38832878Y-17504964D01*
X38833365Y-17468393D01*
X38829868Y-17426365D01*
X38824286Y-17393176D01*
X38821322Y-17383726D01*
X38812683Y-17360814D01*
X38811022Y-17353833D01*
X38802509Y-17337632D01*
X38789524Y-17320692D01*
X38769464Y-17292162D01*
X38760625Y-17274680D01*
X38747778Y-17255840D01*
X38740187Y-17252462D01*
X38729348Y-17242287D01*
X38709964Y-17216301D01*
X38686415Y-17181312D01*
X38663081Y-17144128D01*
X38644343Y-17111555D01*
X38634580Y-17090403D01*
X38634051Y-17087506D01*
X38626704Y-17071490D01*
X38609860Y-17050151D01*
X38591316Y-17032039D01*
X38578864Y-17025703D01*
X38578125Y-17026165D01*
X38568633Y-17021001D01*
X38554357Y-17000418D01*
X38540191Y-16973183D01*
X38531031Y-16948063D01*
X38529846Y-16939690D01*
X38540491Y-16931051D01*
X38567236Y-16931312D01*
X38602292Y-16938979D01*
X38637871Y-16952555D01*
X38658321Y-16964352D01*
X38691438Y-16984411D01*
X38719155Y-16996736D01*
X38741468Y-17009832D01*
X38774380Y-17036233D01*
X38810335Y-17069802D01*
X38843783Y-17102005D01*
X38870522Y-17125311D01*
X38885021Y-17134913D01*
X38885344Y-17134947D01*
X38903648Y-17142532D01*
X38911395Y-17148060D01*
X38931234Y-17164100D01*
X38961053Y-17188075D01*
X38969717Y-17195023D01*
X38995556Y-17220967D01*
X39008474Y-17244406D01*
X39008794Y-17250057D01*
X39017458Y-17270550D01*
X39044359Y-17288438D01*
X39085522Y-17307503D01*
X39108158Y-17320322D01*
X39117854Y-17330501D01*
X39119828Y-17337128D01*
X39131023Y-17354468D01*
X39157905Y-17382152D01*
X39194856Y-17415527D01*
X39236259Y-17449942D01*
X39276499Y-17480744D01*
X39309959Y-17503281D01*
X39331021Y-17512901D01*
X39332124Y-17512974D01*
X39353362Y-17502490D01*
X39358427Y-17494346D01*
X39375049Y-17476875D01*
X39402326Y-17462906D01*
X39434475Y-17441229D01*
X39447874Y-17410043D01*
X39457576Y-17379671D01*
X39468619Y-17362607D01*
X39468694Y-17362560D01*
X39480992Y-17341120D01*
X39479853Y-17305955D01*
X39467454Y-17264193D01*
X39445972Y-17222962D01*
X39417584Y-17189392D01*
X39415179Y-17187333D01*
X39404090Y-17173747D01*
X39383595Y-17145437D01*
X39365166Y-17118815D01*
X39341510Y-17077387D01*
X39336724Y-17052980D01*
X39348969Y-17046812D01*
X39376404Y-17060101D01*
X39411138Y-17088385D01*
X39472050Y-17142440D01*
X39526433Y-17184856D01*
X39584923Y-17223594D01*
X39619578Y-17244390D01*
X39660403Y-17270465D01*
X39691731Y-17294465D01*
X39706944Y-17311306D01*
X39707076Y-17311629D01*
X39722044Y-17326517D01*
X39754652Y-17347538D01*
X39798536Y-17370703D01*
X39809914Y-17376081D01*
X39858407Y-17400418D01*
X39899950Y-17424720D01*
X39926703Y-17444334D01*
X39929265Y-17446921D01*
X39948837Y-17466097D01*
X39966083Y-17471633D01*
X39988890Y-17462990D01*
X40023960Y-17440424D01*
X40063919Y-17408473D01*
X40088408Y-17373808D01*
X40100579Y-17329174D01*
X40103584Y-17267315D01*
X40103462Y-17257428D01*
X40100905Y-17204895D01*
X40093688Y-17168686D01*
X40079223Y-17139158D01*
X40067189Y-17122205D01*
X40040518Y-17082350D01*
X40018703Y-17041716D01*
X40015513Y-17034282D01*
X40001293Y-17006060D01*
X39988571Y-16992231D01*
X39987137Y-16991949D01*
X39976833Y-16981445D01*
X39975692Y-16973390D01*
X39966819Y-16954871D01*
X39943889Y-16926313D01*
X39920680Y-16902487D01*
X39892593Y-16873261D01*
X39875958Y-16850946D01*
X39873913Y-16841899D01*
X39889131Y-16842438D01*
X39921239Y-16851706D01*
X39963381Y-16867711D01*
X39964745Y-16868282D01*
X40034527Y-16891691D01*
X40108186Y-16906594D01*
X40178463Y-16912302D01*
X40238103Y-16908126D01*
X40272600Y-16897546D01*
X40302477Y-16886437D01*
X40322636Y-16885619D01*
X40323590Y-16886151D01*
X40335642Y-16900635D01*
X40356535Y-16931438D01*
X40382071Y-16972325D01*
X40386031Y-16978923D01*
X40413914Y-17023243D01*
X40439999Y-17060651D01*
X40458994Y-17083596D01*
X40460133Y-17084656D01*
X40478674Y-17109134D01*
X40483692Y-17126248D01*
X40491712Y-17145119D01*
X40513065Y-17177431D01*
X40543691Y-17217230D01*
X40555188Y-17231049D01*
X40606361Y-17285757D01*
X40651733Y-17321162D01*
X40684607Y-17337445D01*
X40720341Y-17354061D01*
X40744475Y-17370796D01*
X40749314Y-17377243D01*
X40764898Y-17393244D01*
X40795156Y-17410970D01*
X40804465Y-17415130D01*
X40840970Y-17435150D01*
X40868695Y-17458478D01*
X40871886Y-17462541D01*
X40904227Y-17491735D01*
X40952974Y-17516851D01*
X41008483Y-17533802D01*
X41051691Y-17538740D01*
X41091825Y-17534237D01*
X41130083Y-17517445D01*
X41166352Y-17492315D01*
X41236827Y-17434991D01*
X41286569Y-17384357D01*
X41318081Y-17335321D01*
X41333867Y-17282794D01*
X41334595Y-17265415D01*
X41134181Y-17265415D01*
X41128680Y-17290789D01*
X41109977Y-17314454D01*
X41082605Y-17328794D01*
X41071809Y-17330201D01*
X41052533Y-17324021D01*
X41018438Y-17307378D01*
X40976687Y-17283789D01*
X40974117Y-17282243D01*
X40925329Y-17249046D01*
X40870122Y-17205415D01*
X40812059Y-17154891D01*
X40754704Y-17101014D01*
X40701621Y-17047324D01*
X40656375Y-16997360D01*
X40622528Y-16954664D01*
X40603645Y-16922775D01*
X40600923Y-16911556D01*
X40593875Y-16888015D01*
X40580087Y-16863793D01*
X40566738Y-16839423D01*
X40570683Y-16821203D01*
X40577568Y-16812049D01*
X40596203Y-16783765D01*
X40611970Y-16752432D01*
X40622052Y-16731823D01*
X40634562Y-16721383D01*
X40656827Y-16718844D01*
X40696171Y-16721940D01*
X40706881Y-16723051D01*
X40755592Y-16731096D01*
X40805102Y-16744051D01*
X40849298Y-16759657D01*
X40882066Y-16775652D01*
X40897291Y-16789778D01*
X40897469Y-16793504D01*
X40903794Y-16808629D01*
X40923790Y-16833973D01*
X40936333Y-16847247D01*
X40961845Y-16876498D01*
X40976923Y-16900814D01*
X40978666Y-16907637D01*
X40988551Y-16929909D01*
X40995700Y-16935942D01*
X41012347Y-16955599D01*
X41033416Y-16993525D01*
X41056140Y-17042951D01*
X41077753Y-17097106D01*
X41095490Y-17149221D01*
X41106583Y-17192523D01*
X41108923Y-17213071D01*
X41115009Y-17237817D01*
X41121948Y-17245949D01*
X41134181Y-17265415D01*
X41334595Y-17265415D01*
X41336430Y-17221685D01*
X41330106Y-17159361D01*
X41321339Y-17103742D01*
X41311535Y-17050963D01*
X41303056Y-17013429D01*
X41295651Y-16980662D01*
X41293740Y-16960536D01*
X41294471Y-16958366D01*
X41309632Y-16953706D01*
X41342358Y-16947718D01*
X41384402Y-16941498D01*
X41427519Y-16936144D01*
X41463462Y-16932752D01*
X41483986Y-16932419D01*
X41485715Y-16932925D01*
X41495909Y-16947527D01*
X41514015Y-16981128D01*
X41537551Y-17028842D01*
X41564030Y-17085780D01*
X41568703Y-17096154D01*
X41583857Y-17132935D01*
X41602684Y-17182665D01*
X41618257Y-17226410D01*
X41635028Y-17272047D01*
X41650611Y-17309163D01*
X41661260Y-17329124D01*
X41674004Y-17352735D01*
X41676086Y-17361688D01*
X41681388Y-17386440D01*
X41684564Y-17395744D01*
X41692293Y-17419819D01*
X41702873Y-17457416D01*
X41707216Y-17473897D01*
X41719108Y-17515583D01*
X41730903Y-17550192D01*
X41734399Y-17558564D01*
X41743240Y-17583182D01*
X41755835Y-17625035D01*
X41769781Y-17676042D01*
X41772928Y-17688223D01*
X41786611Y-17737806D01*
X41799508Y-17777704D01*
X41809339Y-17801042D01*
X41811226Y-17803668D01*
X41830023Y-17809544D01*
X41845906Y-17795719D01*
X41851384Y-17772718D01*
X41855544Y-17751287D01*
X41869836Y-17751434D01*
X41892828Y-17769117D01*
X41910710Y-17782247D01*
X41926146Y-17779788D01*
X41949213Y-17760333D01*
X41972734Y-17730878D01*
X41979666Y-17698120D01*
X41970277Y-17655556D01*
X41955054Y-17618456D01*
X41939740Y-17574501D01*
X41936374Y-17540024D01*
X41937619Y-17534086D01*
X41947360Y-17475099D01*
X41945180Y-17406913D01*
X41932462Y-17339914D01*
X41910592Y-17284489D01*
X41902690Y-17272000D01*
X41895631Y-17254227D01*
X41884544Y-17217527D01*
X41871311Y-17168345D01*
X41864638Y-17141744D01*
X41848147Y-17077737D01*
X41829971Y-17012341D01*
X41813435Y-16957411D01*
X41809832Y-16946359D01*
X41788582Y-16881361D01*
X41775635Y-16835973D01*
X41770620Y-16805240D01*
X41773168Y-16784207D01*
X41782910Y-16767918D01*
X41795561Y-16755041D01*
X41825520Y-16720478D01*
X41847649Y-16685846D01*
X41869899Y-16651919D01*
X41901287Y-16614810D01*
X41911540Y-16604464D01*
X41937912Y-16575216D01*
X41953646Y-16550197D01*
X41955589Y-16542593D01*
X41961009Y-16524405D01*
X41973979Y-16526445D01*
X41989566Y-16546075D01*
X41998179Y-16565359D01*
X42007727Y-16596416D01*
X42010862Y-16615983D01*
X42010682Y-16616996D01*
X42015317Y-16632419D01*
X42030398Y-16665848D01*
X42053477Y-16712650D01*
X42082106Y-16768197D01*
X42113837Y-16827855D01*
X42146220Y-16886995D01*
X42176807Y-16940986D01*
X42203150Y-16985196D01*
X42215816Y-17004974D01*
X42236102Y-17040444D01*
X42255062Y-17081226D01*
X42255603Y-17082569D01*
X42273216Y-17118532D01*
X42292100Y-17146011D01*
X42293798Y-17147799D01*
X42306606Y-17166631D01*
X42328645Y-17205610D01*
X42358148Y-17261263D01*
X42393347Y-17330120D01*
X42432475Y-17408712D01*
X42473765Y-17493568D01*
X42515451Y-17581217D01*
X42526191Y-17604154D01*
X42560850Y-17685003D01*
X42592262Y-17770536D01*
X42618418Y-17854177D01*
X42637304Y-17929348D01*
X42646909Y-17989475D01*
X42647618Y-18001161D01*
X42649689Y-18041400D01*
X42656494Y-18063330D01*
X42673895Y-18071025D01*
X42707754Y-18068565D01*
X42737948Y-18063982D01*
X42772246Y-18049786D01*
X42795682Y-18018153D01*
X42809114Y-17966846D01*
X42813403Y-17893629D01*
X42813075Y-17868599D01*
X42800460Y-17752761D01*
X42770145Y-17632212D01*
X42725156Y-17518026D01*
X42708328Y-17484959D01*
X42622623Y-17325528D01*
X42537529Y-17164448D01*
X42515446Y-17122226D01*
X42484405Y-17064806D01*
X42454530Y-17013106D01*
X42429471Y-16973243D01*
X42414376Y-16952892D01*
X42398213Y-16930074D01*
X42373383Y-16888840D01*
X42342711Y-16834152D01*
X42309022Y-16770974D01*
X42292028Y-16737949D01*
X42252576Y-16658235D01*
X42224913Y-16596974D01*
X42207495Y-16550240D01*
X42198774Y-16514107D01*
X42197111Y-16496974D01*
X42193063Y-16464269D01*
X42181735Y-16429994D01*
X42160448Y-16388111D01*
X42126527Y-16332581D01*
X42119168Y-16321128D01*
X42087404Y-16272514D01*
X42060521Y-16232447D01*
X42041812Y-16205767D01*
X42035036Y-16197385D01*
X42024472Y-16184316D01*
X42003242Y-16154768D01*
X41975066Y-16113980D01*
X41959959Y-16091639D01*
X41926581Y-16038456D01*
X41907104Y-15999500D01*
X41902838Y-15977461D01*
X41903534Y-15975872D01*
X41915760Y-15968305D01*
X41935679Y-15980029D01*
X41942943Y-15986532D01*
X41976120Y-16011739D01*
X42014169Y-16033674D01*
X42048124Y-16053404D01*
X42073113Y-16074031D01*
X42074030Y-16075098D01*
X42100979Y-16096293D01*
X42146435Y-16120522D01*
X42204686Y-16145840D01*
X42270017Y-16170301D01*
X42336718Y-16191960D01*
X42399076Y-16208870D01*
X42451379Y-16219087D01*
X42487914Y-16220665D01*
X42495946Y-16218805D01*
X42510854Y-16200646D01*
X42515692Y-16171742D01*
X42521199Y-16140829D01*
X42535650Y-16132256D01*
X42555977Y-16120680D01*
X42569508Y-16091193D01*
X42573241Y-16051660D01*
X42571794Y-16037646D01*
X42550759Y-15967697D01*
X42531630Y-15936024D01*
X41874242Y-15936024D01*
X41872460Y-15936872D01*
X41860573Y-15927702D01*
X41857897Y-15923846D01*
X41854578Y-15911669D01*
X41856360Y-15910820D01*
X41868247Y-15919990D01*
X41870923Y-15923846D01*
X41874242Y-15936024D01*
X42531630Y-15936024D01*
X42508583Y-15897867D01*
X42503684Y-15892409D01*
X42229128Y-15892409D01*
X42225433Y-15897132D01*
X42211369Y-15892514D01*
X42182466Y-15876648D01*
X42158018Y-15862069D01*
X42119334Y-15836126D01*
X42100120Y-15817361D01*
X42101976Y-15807595D01*
X42109331Y-15806615D01*
X42124321Y-15813566D01*
X42151243Y-15830768D01*
X42182452Y-15852749D01*
X42210307Y-15874034D01*
X42227164Y-15889150D01*
X42229128Y-15892409D01*
X42503684Y-15892409D01*
X42443428Y-15825289D01*
X42423590Y-15806615D01*
X42372177Y-15759215D01*
X42055292Y-15759215D01*
X42050544Y-15762177D01*
X42027471Y-15750575D01*
X42024855Y-15749153D01*
X41999691Y-15731754D01*
X41961909Y-15701224D01*
X41917571Y-15662589D01*
X41890461Y-15637719D01*
X41835598Y-15588411D01*
X41793622Y-15557459D01*
X41759987Y-15543860D01*
X41730145Y-15546613D01*
X41699548Y-15564716D01*
X41671551Y-15589502D01*
X41628486Y-15630769D01*
X41571758Y-15565641D01*
X41520187Y-15499264D01*
X41479524Y-15432563D01*
X41451536Y-15369797D01*
X41437988Y-15315225D01*
X41440644Y-15273108D01*
X41445869Y-15261876D01*
X41463689Y-15256439D01*
X41497664Y-15264825D01*
X41543632Y-15284556D01*
X41597430Y-15313150D01*
X41654895Y-15348128D01*
X41711864Y-15387009D01*
X41764174Y-15427312D01*
X41807663Y-15466558D01*
X41829178Y-15490264D01*
X41849293Y-15513335D01*
X41881363Y-15548250D01*
X41919134Y-15588225D01*
X41926871Y-15596279D01*
X41970719Y-15642175D01*
X42000471Y-15674674D01*
X42020362Y-15698884D01*
X42034629Y-15719918D01*
X42045888Y-15739841D01*
X42055292Y-15759215D01*
X42372177Y-15759215D01*
X42352485Y-15741061D01*
X42295983Y-15687654D01*
X42249085Y-15641386D01*
X42206790Y-15597249D01*
X42164097Y-15550235D01*
X42137948Y-15520553D01*
X42068481Y-15443836D01*
X41995872Y-15368492D01*
X41924447Y-15298682D01*
X41858535Y-15238565D01*
X41802463Y-15192300D01*
X41778356Y-15174913D01*
X41699147Y-15127506D01*
X41616240Y-15087688D01*
X41536175Y-15058026D01*
X41465489Y-15041089D01*
X41430045Y-15038103D01*
X41383186Y-15035917D01*
X41342455Y-15030331D01*
X41326274Y-15026000D01*
X41290574Y-15023437D01*
X41259052Y-15038583D01*
X41259052Y-15038583D01*
G37*
X41259052Y-15038583D02*
X41240772Y-15066037D01*
X41239179Y-15077918D01*
X41231035Y-15098629D01*
X41220099Y-15103231D01*
X41201678Y-15112221D01*
X41185526Y-15132059D01*
X41179072Y-15152040D01*
X41181666Y-15158606D01*
X41185984Y-15173800D01*
X41191656Y-15208446D01*
X41197675Y-15256051D01*
X41199647Y-15274293D01*
X41212264Y-15355706D01*
X41233895Y-15426552D01*
X41254953Y-15474462D01*
X41293023Y-15547970D01*
X41333466Y-15617002D01*
X41371836Y-15674296D01*
X41395487Y-15703986D01*
X41431230Y-15744621D01*
X41467165Y-15787182D01*
X41509529Y-15839130D01*
X41535701Y-15871744D01*
X41574395Y-15918568D01*
X41613791Y-15963703D01*
X41646079Y-15998234D01*
X41649239Y-16001373D01*
X41676017Y-16030847D01*
X41692527Y-16055197D01*
X41695076Y-16063245D01*
X41703044Y-16078819D01*
X41708102Y-16080154D01*
X41718721Y-16091052D01*
X41721128Y-16105940D01*
X41708134Y-16131576D01*
X41669238Y-16158183D01*
X41666585Y-16159552D01*
X41629631Y-16180242D01*
X41600859Y-16199545D01*
X41594014Y-16205407D01*
X41574600Y-16220478D01*
X41566396Y-16223436D01*
X41553195Y-16235068D01*
X41538305Y-16265082D01*
X41524272Y-16306157D01*
X41513643Y-16350969D01*
X41509102Y-16388191D01*
X41505035Y-16424246D01*
X41497873Y-16446151D01*
X41493179Y-16449399D01*
X41479593Y-16437607D01*
X41460902Y-16410332D01*
X41453581Y-16397296D01*
X41416489Y-16328025D01*
X41388216Y-16277200D01*
X41365860Y-16240001D01*
X41346518Y-16211609D01*
X41327287Y-16187204D01*
X41326417Y-16186169D01*
X41296908Y-16145687D01*
X41268528Y-16098406D01*
X41261763Y-16085220D01*
X41242851Y-16051953D01*
X41225840Y-16031339D01*
X41219367Y-16028051D01*
X41206341Y-16017129D01*
X41188325Y-15989013D01*
X41175389Y-15963095D01*
X41152630Y-15921042D01*
X41127171Y-15885890D01*
X41114452Y-15873297D01*
X41092141Y-15852159D01*
X41082871Y-15836249D01*
X41072610Y-15821817D01*
X41050901Y-15806933D01*
X41029760Y-15788936D01*
X41000423Y-15755997D01*
X40968444Y-15715305D01*
X40939374Y-15674046D01*
X40918765Y-15639409D01*
X40914813Y-15630769D01*
X40902628Y-15612582D01*
X40882249Y-15589139D01*
X40839857Y-15544036D01*
X40810792Y-15510914D01*
X40789796Y-15483494D01*
X40775269Y-15461436D01*
X40728226Y-15395002D01*
X40682403Y-15347386D01*
X40639936Y-15320091D01*
X40602959Y-15314622D01*
X40581215Y-15324807D01*
X40564786Y-15346398D01*
X40561846Y-15357739D01*
X40552229Y-15376800D01*
X40529488Y-15398478D01*
X40497130Y-15422359D01*
X40535088Y-15501673D01*
X40559589Y-15546048D01*
X40585709Y-15582852D01*
X40605408Y-15602192D01*
X40627544Y-15622710D01*
X40657930Y-15658614D01*
X40691012Y-15703193D01*
X40700756Y-15717440D01*
X40743842Y-15780549D01*
X40778123Y-15827340D01*
X40808320Y-15863764D01*
X40839153Y-15895770D01*
X40851666Y-15907683D01*
X40875199Y-15934183D01*
X40887123Y-15956408D01*
X40887487Y-15959332D01*
X40893302Y-15971837D01*
X40898270Y-15970822D01*
X40910919Y-15976577D01*
X40933320Y-15996726D01*
X40959645Y-16024784D01*
X40984066Y-16054265D01*
X41000756Y-16078684D01*
X41004717Y-16089271D01*
X41014502Y-16103728D01*
X41030530Y-16116058D01*
X41050983Y-16136606D01*
X41075075Y-16171536D01*
X41088541Y-16195720D01*
X41109767Y-16232536D01*
X41129645Y-16258738D01*
X41139212Y-16266350D01*
X41155651Y-16281520D01*
X41176280Y-16311906D01*
X41186048Y-16329848D01*
X41205322Y-16367542D01*
X41221241Y-16397588D01*
X41225837Y-16405795D01*
X41236035Y-16425898D01*
X41253725Y-16463285D01*
X41275844Y-16511425D01*
X41286962Y-16536051D01*
X41312449Y-16589280D01*
X41338011Y-16636741D01*
X41359455Y-16670849D01*
X41366073Y-16679200D01*
X41386689Y-16702935D01*
X41395336Y-16718631D01*
X41389103Y-16727804D01*
X41365077Y-16731965D01*
X41320346Y-16732628D01*
X41265230Y-16731603D01*
X41204198Y-16726731D01*
X41157265Y-16712298D01*
X41113341Y-16683784D01*
X41083086Y-16657358D01*
X41052601Y-16633774D01*
X41024686Y-16619210D01*
X41024256Y-16619077D01*
X40993770Y-16604342D01*
X40972153Y-16588942D01*
X40944070Y-16570678D01*
X40899844Y-16547826D01*
X40847976Y-16524242D01*
X40796970Y-16503780D01*
X40755325Y-16490297D01*
X40753807Y-16489916D01*
X40687460Y-16485537D01*
X40620612Y-16501513D01*
X40563672Y-16535178D01*
X40558331Y-16539968D01*
X40529466Y-16570386D01*
X40509140Y-16597860D01*
X40505158Y-16605903D01*
X40494741Y-16622248D01*
X40478439Y-16615233D01*
X40476932Y-16614000D01*
X40451407Y-16602903D01*
X40414253Y-16596809D01*
X40408386Y-16596549D01*
X40370448Y-16600404D01*
X40339313Y-16618088D01*
X40319146Y-16637298D01*
X40291131Y-16661498D01*
X40260303Y-16675116D01*
X40221790Y-16678309D01*
X40170722Y-16671229D01*
X40102227Y-16654034D01*
X40071585Y-16645165D01*
X39981630Y-16619719D01*
X39900694Y-16599103D01*
X39833326Y-16584366D01*
X39784076Y-16576556D01*
X39769452Y-16575586D01*
X39742637Y-16584676D01*
X39709664Y-16607835D01*
X39678226Y-16637944D01*
X39656020Y-16667880D01*
X39650051Y-16686083D01*
X39642532Y-16703258D01*
X39636256Y-16705385D01*
X39628193Y-16713229D01*
X39629933Y-16717472D01*
X39626067Y-16730616D01*
X39614379Y-16736868D01*
X39598063Y-16752525D01*
X39580526Y-16784030D01*
X39566078Y-16821775D01*
X39559025Y-16856151D01*
X39558871Y-16860674D01*
X39569379Y-16873337D01*
X39596401Y-16892659D01*
X39620743Y-16907011D01*
X39673831Y-16945107D01*
X39719417Y-16994175D01*
X39750467Y-17046011D01*
X39757451Y-17066504D01*
X39760785Y-17085744D01*
X39752759Y-17087821D01*
X39730152Y-17076187D01*
X39673357Y-17039602D01*
X39622117Y-16998048D01*
X39594156Y-16969154D01*
X39572578Y-16947940D01*
X39556862Y-16939846D01*
X39540180Y-16932147D01*
X39511233Y-16912339D01*
X39488081Y-16894256D01*
X39455728Y-16869074D01*
X39431349Y-16852517D01*
X39422771Y-16848667D01*
X39406397Y-16841802D01*
X39379988Y-16825179D01*
X39378523Y-16824146D01*
X39337882Y-16804139D01*
X39282630Y-16787740D01*
X39223747Y-16777243D01*
X39172207Y-16774941D01*
X39154034Y-16777254D01*
X39117070Y-16796016D01*
X39101924Y-16820565D01*
X39087704Y-16856796D01*
X39076923Y-16881231D01*
X39062993Y-16913350D01*
X39051060Y-16944161D01*
X39037088Y-16965994D01*
X39020507Y-16974863D01*
X39009148Y-16969031D01*
X39008861Y-16953532D01*
X39005034Y-16943770D01*
X39000142Y-16945510D01*
X38982330Y-16943657D01*
X38968185Y-16933453D01*
X38949058Y-16917560D01*
X38940701Y-16913795D01*
X38926770Y-16906087D01*
X38896320Y-16884802D01*
X38853126Y-16852700D01*
X38800961Y-16812540D01*
X38783846Y-16799112D01*
X38737228Y-16772262D01*
X38673376Y-16748410D01*
X38600792Y-16729475D01*
X38527978Y-16717376D01*
X38463436Y-16714033D01*
X38425974Y-16718331D01*
X38398978Y-16734406D01*
X38367237Y-16766988D01*
X38335725Y-16808879D01*
X38309416Y-16852881D01*
X38293282Y-16891795D01*
X38290927Y-16913795D01*
X38300460Y-16953343D01*
X38315360Y-16998446D01*
X38332216Y-17040193D01*
X38347617Y-17069669D01*
X38353232Y-17076615D01*
X38371582Y-17095901D01*
X38397993Y-17127009D01*
X38427758Y-17163940D01*
X38456168Y-17200696D01*
X38478517Y-17231278D01*
X38490097Y-17249687D01*
X38490769Y-17251875D01*
X38497904Y-17266045D01*
X38516635Y-17295350D01*
X38542955Y-17334069D01*
X38572855Y-17376478D01*
X38602326Y-17416853D01*
X38627359Y-17449471D01*
X38638674Y-17463043D01*
X38650886Y-17482989D01*
X38650333Y-17492350D01*
X38652700Y-17499368D01*
X38657931Y-17499949D01*
X38670694Y-17510708D01*
X38673128Y-17523395D01*
X38683947Y-17556172D01*
X38716005Y-17574324D01*
X38750992Y-17578103D01*
X38794691Y-17570862D01*
X38821321Y-17547368D01*
X38832878Y-17504964D01*
X38833365Y-17468393D01*
X38829868Y-17426365D01*
X38824286Y-17393176D01*
X38821322Y-17383726D01*
X38812683Y-17360814D01*
X38811022Y-17353833D01*
X38802509Y-17337632D01*
X38789524Y-17320692D01*
X38769464Y-17292162D01*
X38760625Y-17274680D01*
X38747778Y-17255840D01*
X38740187Y-17252462D01*
X38729348Y-17242287D01*
X38709964Y-17216301D01*
X38686415Y-17181312D01*
X38663081Y-17144128D01*
X38644343Y-17111555D01*
X38634580Y-17090403D01*
X38634051Y-17087506D01*
X38626704Y-17071490D01*
X38609860Y-17050151D01*
X38591316Y-17032039D01*
X38578864Y-17025703D01*
X38578125Y-17026165D01*
X38568633Y-17021001D01*
X38554357Y-17000418D01*
X38540191Y-16973183D01*
X38531031Y-16948063D01*
X38529846Y-16939690D01*
X38540491Y-16931051D01*
X38567236Y-16931312D01*
X38602292Y-16938979D01*
X38637871Y-16952555D01*
X38658321Y-16964352D01*
X38691438Y-16984411D01*
X38719155Y-16996736D01*
X38741468Y-17009832D01*
X38774380Y-17036233D01*
X38810335Y-17069802D01*
X38843783Y-17102005D01*
X38870522Y-17125311D01*
X38885021Y-17134913D01*
X38885344Y-17134947D01*
X38903648Y-17142532D01*
X38911395Y-17148060D01*
X38931234Y-17164100D01*
X38961053Y-17188075D01*
X38969717Y-17195023D01*
X38995556Y-17220967D01*
X39008474Y-17244406D01*
X39008794Y-17250057D01*
X39017458Y-17270550D01*
X39044359Y-17288438D01*
X39085522Y-17307503D01*
X39108158Y-17320322D01*
X39117854Y-17330501D01*
X39119828Y-17337128D01*
X39131023Y-17354468D01*
X39157905Y-17382152D01*
X39194856Y-17415527D01*
X39236259Y-17449942D01*
X39276499Y-17480744D01*
X39309959Y-17503281D01*
X39331021Y-17512901D01*
X39332124Y-17512974D01*
X39353362Y-17502490D01*
X39358427Y-17494346D01*
X39375049Y-17476875D01*
X39402326Y-17462906D01*
X39434475Y-17441229D01*
X39447874Y-17410043D01*
X39457576Y-17379671D01*
X39468619Y-17362607D01*
X39468694Y-17362560D01*
X39480992Y-17341120D01*
X39479853Y-17305955D01*
X39467454Y-17264193D01*
X39445972Y-17222962D01*
X39417584Y-17189392D01*
X39415179Y-17187333D01*
X39404090Y-17173747D01*
X39383595Y-17145437D01*
X39365166Y-17118815D01*
X39341510Y-17077387D01*
X39336724Y-17052980D01*
X39348969Y-17046812D01*
X39376404Y-17060101D01*
X39411138Y-17088385D01*
X39472050Y-17142440D01*
X39526433Y-17184856D01*
X39584923Y-17223594D01*
X39619578Y-17244390D01*
X39660403Y-17270465D01*
X39691731Y-17294465D01*
X39706944Y-17311306D01*
X39707076Y-17311629D01*
X39722044Y-17326517D01*
X39754652Y-17347538D01*
X39798536Y-17370703D01*
X39809914Y-17376081D01*
X39858407Y-17400418D01*
X39899950Y-17424720D01*
X39926703Y-17444334D01*
X39929265Y-17446921D01*
X39948837Y-17466097D01*
X39966083Y-17471633D01*
X39988890Y-17462990D01*
X40023960Y-17440424D01*
X40063919Y-17408473D01*
X40088408Y-17373808D01*
X40100579Y-17329174D01*
X40103584Y-17267315D01*
X40103462Y-17257428D01*
X40100905Y-17204895D01*
X40093688Y-17168686D01*
X40079223Y-17139158D01*
X40067189Y-17122205D01*
X40040518Y-17082350D01*
X40018703Y-17041716D01*
X40015513Y-17034282D01*
X40001293Y-17006060D01*
X39988571Y-16992231D01*
X39987137Y-16991949D01*
X39976833Y-16981445D01*
X39975692Y-16973390D01*
X39966819Y-16954871D01*
X39943889Y-16926313D01*
X39920680Y-16902487D01*
X39892593Y-16873261D01*
X39875958Y-16850946D01*
X39873913Y-16841899D01*
X39889131Y-16842438D01*
X39921239Y-16851706D01*
X39963381Y-16867711D01*
X39964745Y-16868282D01*
X40034527Y-16891691D01*
X40108186Y-16906594D01*
X40178463Y-16912302D01*
X40238103Y-16908126D01*
X40272600Y-16897546D01*
X40302477Y-16886437D01*
X40322636Y-16885619D01*
X40323590Y-16886151D01*
X40335642Y-16900635D01*
X40356535Y-16931438D01*
X40382071Y-16972325D01*
X40386031Y-16978923D01*
X40413914Y-17023243D01*
X40439999Y-17060651D01*
X40458994Y-17083596D01*
X40460133Y-17084656D01*
X40478674Y-17109134D01*
X40483692Y-17126248D01*
X40491712Y-17145119D01*
X40513065Y-17177431D01*
X40543691Y-17217230D01*
X40555188Y-17231049D01*
X40606361Y-17285757D01*
X40651733Y-17321162D01*
X40684607Y-17337445D01*
X40720341Y-17354061D01*
X40744475Y-17370796D01*
X40749314Y-17377243D01*
X40764898Y-17393244D01*
X40795156Y-17410970D01*
X40804465Y-17415130D01*
X40840970Y-17435150D01*
X40868695Y-17458478D01*
X40871886Y-17462541D01*
X40904227Y-17491735D01*
X40952974Y-17516851D01*
X41008483Y-17533802D01*
X41051691Y-17538740D01*
X41091825Y-17534237D01*
X41130083Y-17517445D01*
X41166352Y-17492315D01*
X41236827Y-17434991D01*
X41286569Y-17384357D01*
X41318081Y-17335321D01*
X41333867Y-17282794D01*
X41334595Y-17265415D01*
X41134181Y-17265415D01*
X41128680Y-17290789D01*
X41109977Y-17314454D01*
X41082605Y-17328794D01*
X41071809Y-17330201D01*
X41052533Y-17324021D01*
X41018438Y-17307378D01*
X40976687Y-17283789D01*
X40974117Y-17282243D01*
X40925329Y-17249046D01*
X40870122Y-17205415D01*
X40812059Y-17154891D01*
X40754704Y-17101014D01*
X40701621Y-17047324D01*
X40656375Y-16997360D01*
X40622528Y-16954664D01*
X40603645Y-16922775D01*
X40600923Y-16911556D01*
X40593875Y-16888015D01*
X40580087Y-16863793D01*
X40566738Y-16839423D01*
X40570683Y-16821203D01*
X40577568Y-16812049D01*
X40596203Y-16783765D01*
X40611970Y-16752432D01*
X40622052Y-16731823D01*
X40634562Y-16721383D01*
X40656827Y-16718844D01*
X40696171Y-16721940D01*
X40706881Y-16723051D01*
X40755592Y-16731096D01*
X40805102Y-16744051D01*
X40849298Y-16759657D01*
X40882066Y-16775652D01*
X40897291Y-16789778D01*
X40897469Y-16793504D01*
X40903794Y-16808629D01*
X40923790Y-16833973D01*
X40936333Y-16847247D01*
X40961845Y-16876498D01*
X40976923Y-16900814D01*
X40978666Y-16907637D01*
X40988551Y-16929909D01*
X40995700Y-16935942D01*
X41012347Y-16955599D01*
X41033416Y-16993525D01*
X41056140Y-17042951D01*
X41077753Y-17097106D01*
X41095490Y-17149221D01*
X41106583Y-17192523D01*
X41108923Y-17213071D01*
X41115009Y-17237817D01*
X41121948Y-17245949D01*
X41134181Y-17265415D01*
X41334595Y-17265415D01*
X41336430Y-17221685D01*
X41330106Y-17159361D01*
X41321339Y-17103742D01*
X41311535Y-17050963D01*
X41303056Y-17013429D01*
X41295651Y-16980662D01*
X41293740Y-16960536D01*
X41294471Y-16958366D01*
X41309632Y-16953706D01*
X41342358Y-16947718D01*
X41384402Y-16941498D01*
X41427519Y-16936144D01*
X41463462Y-16932752D01*
X41483986Y-16932419D01*
X41485715Y-16932925D01*
X41495909Y-16947527D01*
X41514015Y-16981128D01*
X41537551Y-17028842D01*
X41564030Y-17085780D01*
X41568703Y-17096154D01*
X41583857Y-17132935D01*
X41602684Y-17182665D01*
X41618257Y-17226410D01*
X41635028Y-17272047D01*
X41650611Y-17309163D01*
X41661260Y-17329124D01*
X41674004Y-17352735D01*
X41676086Y-17361688D01*
X41681388Y-17386440D01*
X41684564Y-17395744D01*
X41692293Y-17419819D01*
X41702873Y-17457416D01*
X41707216Y-17473897D01*
X41719108Y-17515583D01*
X41730903Y-17550192D01*
X41734399Y-17558564D01*
X41743240Y-17583182D01*
X41755835Y-17625035D01*
X41769781Y-17676042D01*
X41772928Y-17688223D01*
X41786611Y-17737806D01*
X41799508Y-17777704D01*
X41809339Y-17801042D01*
X41811226Y-17803668D01*
X41830023Y-17809544D01*
X41845906Y-17795719D01*
X41851384Y-17772718D01*
X41855544Y-17751287D01*
X41869836Y-17751434D01*
X41892828Y-17769117D01*
X41910710Y-17782247D01*
X41926146Y-17779788D01*
X41949213Y-17760333D01*
X41972734Y-17730878D01*
X41979666Y-17698120D01*
X41970277Y-17655556D01*
X41955054Y-17618456D01*
X41939740Y-17574501D01*
X41936374Y-17540024D01*
X41937619Y-17534086D01*
X41947360Y-17475099D01*
X41945180Y-17406913D01*
X41932462Y-17339914D01*
X41910592Y-17284489D01*
X41902690Y-17272000D01*
X41895631Y-17254227D01*
X41884544Y-17217527D01*
X41871311Y-17168345D01*
X41864638Y-17141744D01*
X41848147Y-17077737D01*
X41829971Y-17012341D01*
X41813435Y-16957411D01*
X41809832Y-16946359D01*
X41788582Y-16881361D01*
X41775635Y-16835973D01*
X41770620Y-16805240D01*
X41773168Y-16784207D01*
X41782910Y-16767918D01*
X41795561Y-16755041D01*
X41825520Y-16720478D01*
X41847649Y-16685846D01*
X41869899Y-16651919D01*
X41901287Y-16614810D01*
X41911540Y-16604464D01*
X41937912Y-16575216D01*
X41953646Y-16550197D01*
X41955589Y-16542593D01*
X41961009Y-16524405D01*
X41973979Y-16526445D01*
X41989566Y-16546075D01*
X41998179Y-16565359D01*
X42007727Y-16596416D01*
X42010862Y-16615983D01*
X42010682Y-16616996D01*
X42015317Y-16632419D01*
X42030398Y-16665848D01*
X42053477Y-16712650D01*
X42082106Y-16768197D01*
X42113837Y-16827855D01*
X42146220Y-16886995D01*
X42176807Y-16940986D01*
X42203150Y-16985196D01*
X42215816Y-17004974D01*
X42236102Y-17040444D01*
X42255062Y-17081226D01*
X42255603Y-17082569D01*
X42273216Y-17118532D01*
X42292100Y-17146011D01*
X42293798Y-17147799D01*
X42306606Y-17166631D01*
X42328645Y-17205610D01*
X42358148Y-17261263D01*
X42393347Y-17330120D01*
X42432475Y-17408712D01*
X42473765Y-17493568D01*
X42515451Y-17581217D01*
X42526191Y-17604154D01*
X42560850Y-17685003D01*
X42592262Y-17770536D01*
X42618418Y-17854177D01*
X42637304Y-17929348D01*
X42646909Y-17989475D01*
X42647618Y-18001161D01*
X42649689Y-18041400D01*
X42656494Y-18063330D01*
X42673895Y-18071025D01*
X42707754Y-18068565D01*
X42737948Y-18063982D01*
X42772246Y-18049786D01*
X42795682Y-18018153D01*
X42809114Y-17966846D01*
X42813403Y-17893629D01*
X42813075Y-17868599D01*
X42800460Y-17752761D01*
X42770145Y-17632212D01*
X42725156Y-17518026D01*
X42708328Y-17484959D01*
X42622623Y-17325528D01*
X42537529Y-17164448D01*
X42515446Y-17122226D01*
X42484405Y-17064806D01*
X42454530Y-17013106D01*
X42429471Y-16973243D01*
X42414376Y-16952892D01*
X42398213Y-16930074D01*
X42373383Y-16888840D01*
X42342711Y-16834152D01*
X42309022Y-16770974D01*
X42292028Y-16737949D01*
X42252576Y-16658235D01*
X42224913Y-16596974D01*
X42207495Y-16550240D01*
X42198774Y-16514107D01*
X42197111Y-16496974D01*
X42193063Y-16464269D01*
X42181735Y-16429994D01*
X42160448Y-16388111D01*
X42126527Y-16332581D01*
X42119168Y-16321128D01*
X42087404Y-16272514D01*
X42060521Y-16232447D01*
X42041812Y-16205767D01*
X42035036Y-16197385D01*
X42024472Y-16184316D01*
X42003242Y-16154768D01*
X41975066Y-16113980D01*
X41959959Y-16091639D01*
X41926581Y-16038456D01*
X41907104Y-15999500D01*
X41902838Y-15977461D01*
X41903534Y-15975872D01*
X41915760Y-15968305D01*
X41935679Y-15980029D01*
X41942943Y-15986532D01*
X41976120Y-16011739D01*
X42014169Y-16033674D01*
X42048124Y-16053404D01*
X42073113Y-16074031D01*
X42074030Y-16075098D01*
X42100979Y-16096293D01*
X42146435Y-16120522D01*
X42204686Y-16145840D01*
X42270017Y-16170301D01*
X42336718Y-16191960D01*
X42399076Y-16208870D01*
X42451379Y-16219087D01*
X42487914Y-16220665D01*
X42495946Y-16218805D01*
X42510854Y-16200646D01*
X42515692Y-16171742D01*
X42521199Y-16140829D01*
X42535650Y-16132256D01*
X42555977Y-16120680D01*
X42569508Y-16091193D01*
X42573241Y-16051660D01*
X42571794Y-16037646D01*
X42550759Y-15967697D01*
X42531630Y-15936024D01*
X41874242Y-15936024D01*
X41872460Y-15936872D01*
X41860573Y-15927702D01*
X41857897Y-15923846D01*
X41854578Y-15911669D01*
X41856360Y-15910820D01*
X41868247Y-15919990D01*
X41870923Y-15923846D01*
X41874242Y-15936024D01*
X42531630Y-15936024D01*
X42508583Y-15897867D01*
X42503684Y-15892409D01*
X42229128Y-15892409D01*
X42225433Y-15897132D01*
X42211369Y-15892514D01*
X42182466Y-15876648D01*
X42158018Y-15862069D01*
X42119334Y-15836126D01*
X42100120Y-15817361D01*
X42101976Y-15807595D01*
X42109331Y-15806615D01*
X42124321Y-15813566D01*
X42151243Y-15830768D01*
X42182452Y-15852749D01*
X42210307Y-15874034D01*
X42227164Y-15889150D01*
X42229128Y-15892409D01*
X42503684Y-15892409D01*
X42443428Y-15825289D01*
X42423590Y-15806615D01*
X42372177Y-15759215D01*
X42055292Y-15759215D01*
X42050544Y-15762177D01*
X42027471Y-15750575D01*
X42024855Y-15749153D01*
X41999691Y-15731754D01*
X41961909Y-15701224D01*
X41917571Y-15662589D01*
X41890461Y-15637719D01*
X41835598Y-15588411D01*
X41793622Y-15557459D01*
X41759987Y-15543860D01*
X41730145Y-15546613D01*
X41699548Y-15564716D01*
X41671551Y-15589502D01*
X41628486Y-15630769D01*
X41571758Y-15565641D01*
X41520187Y-15499264D01*
X41479524Y-15432563D01*
X41451536Y-15369797D01*
X41437988Y-15315225D01*
X41440644Y-15273108D01*
X41445869Y-15261876D01*
X41463689Y-15256439D01*
X41497664Y-15264825D01*
X41543632Y-15284556D01*
X41597430Y-15313150D01*
X41654895Y-15348128D01*
X41711864Y-15387009D01*
X41764174Y-15427312D01*
X41807663Y-15466558D01*
X41829178Y-15490264D01*
X41849293Y-15513335D01*
X41881363Y-15548250D01*
X41919134Y-15588225D01*
X41926871Y-15596279D01*
X41970719Y-15642175D01*
X42000471Y-15674674D01*
X42020362Y-15698884D01*
X42034629Y-15719918D01*
X42045888Y-15739841D01*
X42055292Y-15759215D01*
X42372177Y-15759215D01*
X42352485Y-15741061D01*
X42295983Y-15687654D01*
X42249085Y-15641386D01*
X42206790Y-15597249D01*
X42164097Y-15550235D01*
X42137948Y-15520553D01*
X42068481Y-15443836D01*
X41995872Y-15368492D01*
X41924447Y-15298682D01*
X41858535Y-15238565D01*
X41802463Y-15192300D01*
X41778356Y-15174913D01*
X41699147Y-15127506D01*
X41616240Y-15087688D01*
X41536175Y-15058026D01*
X41465489Y-15041089D01*
X41430045Y-15038103D01*
X41383186Y-15035917D01*
X41342455Y-15030331D01*
X41326274Y-15026000D01*
X41290574Y-15023437D01*
X41259052Y-15038583D01*
G36*
X51872213Y-15632291D02*
X51764741Y-15643168D01*
X51679846Y-15664606D01*
X51615850Y-15697655D01*
X51571076Y-15743368D01*
X51543846Y-15802795D01*
X51535508Y-15843390D01*
X51525353Y-15904562D01*
X51514700Y-15940204D01*
X51503116Y-15950838D01*
X51490164Y-15936986D01*
X51479285Y-15910820D01*
X51463018Y-15881568D01*
X51437791Y-15871902D01*
X51432421Y-15871744D01*
X51406396Y-15877727D01*
X51399179Y-15897026D01*
X51391484Y-15924808D01*
X51371458Y-15931093D01*
X51346176Y-15916518D01*
X51324589Y-15900998D01*
X51314263Y-15904925D01*
X51314799Y-15929774D01*
X51325797Y-15977019D01*
X51327816Y-15984319D01*
X51351906Y-16070966D01*
X51370492Y-16139505D01*
X51385362Y-16196835D01*
X51398306Y-16249859D01*
X51411110Y-16305477D01*
X51411701Y-16308103D01*
X51441729Y-16431725D01*
X51475691Y-16550307D01*
X51515831Y-16672820D01*
X51536913Y-16739627D01*
X51557722Y-16814539D01*
X51573729Y-16881231D01*
X51588739Y-16940525D01*
X51607560Y-16998914D01*
X51626320Y-17044492D01*
X51627746Y-17047314D01*
X51645907Y-17086059D01*
X51657479Y-17117606D01*
X51659692Y-17129183D01*
X51666241Y-17155264D01*
X51677485Y-17178022D01*
X51685319Y-17196632D01*
X51695185Y-17231089D01*
X51707438Y-17283072D01*
X51722435Y-17354260D01*
X51740531Y-17446331D01*
X51762080Y-17560964D01*
X51784269Y-17682308D01*
X51795126Y-17737688D01*
X51806262Y-17787024D01*
X51815696Y-17821728D01*
X51817825Y-17827816D01*
X51826203Y-17861999D01*
X51826188Y-17886431D01*
X51817916Y-17894215D01*
X51802702Y-17880222D01*
X51782250Y-17847248D01*
X51758265Y-17798091D01*
X51732453Y-17735548D01*
X51729548Y-17727897D01*
X51709538Y-17679310D01*
X51689348Y-17637654D01*
X51673171Y-17611534D01*
X51672435Y-17610667D01*
X51650525Y-17577079D01*
X51640044Y-17552051D01*
X51629570Y-17523127D01*
X51612013Y-17480691D01*
X51594528Y-17441333D01*
X51568649Y-17384826D01*
X51540807Y-17323787D01*
X51525230Y-17289506D01*
X51506017Y-17249719D01*
X51489672Y-17220405D01*
X51480997Y-17209136D01*
X51471148Y-17194640D01*
X51454893Y-17162333D01*
X51435411Y-17118629D01*
X51431415Y-17109104D01*
X51404372Y-17051269D01*
X51375857Y-17009116D01*
X51338929Y-16972855D01*
X51329093Y-16964781D01*
X51292674Y-16937895D01*
X51262115Y-16919420D01*
X51246395Y-16913795D01*
X51221541Y-16919285D01*
X51181920Y-16933631D01*
X51135864Y-16953644D01*
X51112615Y-16964988D01*
X51098964Y-16984220D01*
X51087358Y-17023891D01*
X51082626Y-17051827D01*
X51074377Y-17102613D01*
X51064485Y-17149996D01*
X51058496Y-17172411D01*
X51052451Y-17210350D01*
X51050538Y-17269689D01*
X51052867Y-17346090D01*
X51053743Y-17361283D01*
X51057336Y-17423699D01*
X51058683Y-17463618D01*
X51057445Y-17484523D01*
X51053278Y-17489901D01*
X51045842Y-17483234D01*
X51042251Y-17478492D01*
X51021888Y-17444958D01*
X50997232Y-17396501D01*
X50972247Y-17341905D01*
X50950897Y-17289954D01*
X50937144Y-17249433D01*
X50935152Y-17241123D01*
X50921016Y-17203073D01*
X50902757Y-17175754D01*
X50884546Y-17152041D01*
X50878153Y-17136698D01*
X50868172Y-17123059D01*
X50842405Y-17101076D01*
X50816976Y-17082762D01*
X50758400Y-17053339D01*
X50703776Y-17048547D01*
X50649008Y-17068239D01*
X50635801Y-17076320D01*
X50623457Y-17085294D01*
X50614561Y-17096112D01*
X50608889Y-17112421D01*
X50606214Y-17137869D01*
X50606310Y-17176104D01*
X50608950Y-17230774D01*
X50613910Y-17305526D01*
X50618023Y-17363179D01*
X50625302Y-17464498D01*
X50630796Y-17542795D01*
X50634555Y-17601036D01*
X50636632Y-17642185D01*
X50637076Y-17669208D01*
X50635941Y-17685069D01*
X50633277Y-17692734D01*
X50629135Y-17695167D01*
X50623776Y-17695333D01*
X50605990Y-17684543D01*
X50598528Y-17670625D01*
X50585128Y-17646591D01*
X50560345Y-17614460D01*
X50547382Y-17600001D01*
X50514441Y-17560312D01*
X50480694Y-17512473D01*
X50467546Y-17491196D01*
X50441612Y-17450454D01*
X50415564Y-17415584D01*
X50403315Y-17402153D01*
X50386323Y-17381377D01*
X50359643Y-17343252D01*
X50337533Y-17309447D01*
X50106466Y-17309447D01*
X50089172Y-17336198D01*
X50055364Y-17356477D01*
X50022345Y-17351740D01*
X49993450Y-17322896D01*
X49985187Y-17307820D01*
X49965973Y-17253800D01*
X49956734Y-17198216D01*
X49958126Y-17149409D01*
X49970165Y-17116544D01*
X49982184Y-17103216D01*
X49991853Y-17104880D01*
X50003880Y-17124953D01*
X50015019Y-17149108D01*
X50038430Y-17191573D01*
X50066059Y-17228899D01*
X50075307Y-17238450D01*
X50103805Y-17275189D01*
X50106466Y-17309447D01*
X50337533Y-17309447D01*
X50326724Y-17292922D01*
X50291018Y-17235534D01*
X50285437Y-17226307D01*
X50234993Y-17145627D01*
X50192137Y-17084727D01*
X50153551Y-17039724D01*
X50115922Y-17006738D01*
X50077313Y-16982610D01*
X50034465Y-16967562D01*
X49990957Y-16964012D01*
X49956832Y-16972313D01*
X49948943Y-16978103D01*
X49922869Y-16992593D01*
X49900188Y-16981873D01*
X49882164Y-16946696D01*
X49879175Y-16936590D01*
X49852279Y-16847905D01*
X49820566Y-16760605D01*
X49787593Y-16684009D01*
X49768519Y-16646769D01*
X49745645Y-16604145D01*
X49714328Y-16543388D01*
X49677252Y-16469923D01*
X49637101Y-16389172D01*
X49596558Y-16306559D01*
X49558308Y-16227507D01*
X49525035Y-16157439D01*
X49505838Y-16115974D01*
X49482963Y-16070094D01*
X49461774Y-16035115D01*
X49445789Y-16016594D01*
X49441929Y-16015026D01*
X49419908Y-16022966D01*
X49388743Y-16042790D01*
X49355947Y-16068503D01*
X49329032Y-16094110D01*
X49315512Y-16113616D01*
X49315076Y-16116250D01*
X49318384Y-16142512D01*
X49326685Y-16183341D01*
X49337551Y-16228335D01*
X49348551Y-16267091D01*
X49353807Y-16282051D01*
X49363671Y-16310569D01*
X49375886Y-16351038D01*
X49380201Y-16366490D01*
X49395895Y-16414221D01*
X49417267Y-16467622D01*
X49427225Y-16489415D01*
X49444747Y-16529206D01*
X49456130Y-16561699D01*
X49458555Y-16574310D01*
X49463067Y-16600537D01*
X49473791Y-16637120D01*
X49487011Y-16673122D01*
X49499012Y-16697608D01*
X49501534Y-16700799D01*
X49508651Y-16719711D01*
X49510461Y-16739351D01*
X49515601Y-16766065D01*
X49523487Y-16777026D01*
X49532382Y-16794390D01*
X49536481Y-16825795D01*
X49536512Y-16828841D01*
X49542292Y-16872258D01*
X49554868Y-16909483D01*
X49568170Y-16940558D01*
X49585394Y-16986571D01*
X49602805Y-17037538D01*
X49623040Y-17093183D01*
X49650373Y-17159578D01*
X49679692Y-17224459D01*
X49686945Y-17239436D01*
X49715997Y-17298873D01*
X49736203Y-17342258D01*
X49750429Y-17376807D01*
X49761541Y-17409738D01*
X49772404Y-17448269D01*
X49777459Y-17467385D01*
X49785625Y-17505316D01*
X49794336Y-17556837D01*
X49802918Y-17616254D01*
X49810696Y-17677876D01*
X49816997Y-17736012D01*
X49821148Y-17784968D01*
X49822473Y-17819055D01*
X49820668Y-17832340D01*
X49802170Y-17833323D01*
X49771638Y-17811986D01*
X49729560Y-17768852D01*
X49676423Y-17704445D01*
X49612717Y-17619290D01*
X49582102Y-17576292D01*
X49545295Y-17525218D01*
X49502594Y-17467811D01*
X49470180Y-17425462D01*
X49436031Y-17377087D01*
X49405490Y-17325950D01*
X49386362Y-17285908D01*
X49363473Y-17240697D01*
X49332766Y-17211023D01*
X49289752Y-17194970D01*
X49229938Y-17190620D01*
X49170901Y-17193925D01*
X49099172Y-17196678D01*
X49048148Y-17189583D01*
X49014067Y-17171747D01*
X48998557Y-17152867D01*
X48967394Y-17123099D01*
X48922177Y-17106309D01*
X48873075Y-17105892D01*
X48864023Y-17107978D01*
X48814331Y-17131436D01*
X48786989Y-17166316D01*
X48782654Y-17209619D01*
X48801982Y-17258343D01*
X48824596Y-17288244D01*
X48865572Y-17352537D01*
X48887696Y-17428406D01*
X48888675Y-17504828D01*
X48882001Y-17555298D01*
X48818245Y-17547746D01*
X48766468Y-17535676D01*
X48712583Y-17513545D01*
X48663215Y-17485236D01*
X48624987Y-17454635D01*
X48604521Y-17425623D01*
X48603425Y-17421795D01*
X48577928Y-17323851D01*
X48545738Y-17226477D01*
X48509177Y-17135161D01*
X48470562Y-17055390D01*
X48432215Y-16992652D01*
X48410701Y-16965897D01*
X48384517Y-16933791D01*
X48365338Y-16904026D01*
X48348388Y-16882135D01*
X48324851Y-16876475D01*
X48289311Y-16886888D01*
X48259671Y-16900937D01*
X48215938Y-16927602D01*
X48188431Y-16957833D01*
X48174366Y-16997754D01*
X48170959Y-17053490D01*
X48172584Y-17092524D01*
X48179459Y-17158760D01*
X48192935Y-17212692D01*
X48216568Y-17267888D01*
X48220713Y-17276142D01*
X48240283Y-17317650D01*
X48252533Y-17349717D01*
X48255021Y-17365871D01*
X48254721Y-17366287D01*
X48244025Y-17366464D01*
X48224731Y-17352406D01*
X48195556Y-17322703D01*
X48155218Y-17275944D01*
X48102436Y-17210720D01*
X48035927Y-17125620D01*
X48035694Y-17125319D01*
X47976527Y-17050215D01*
X47929745Y-16994788D01*
X47893088Y-16957172D01*
X47864296Y-16935497D01*
X47841108Y-16927896D01*
X47821265Y-16932502D01*
X47810950Y-16939568D01*
X47790754Y-16965421D01*
X47784190Y-16980099D01*
X47769576Y-17000588D01*
X47757635Y-17004974D01*
X47743329Y-17007996D01*
X47741731Y-17019773D01*
X47753933Y-17044374D01*
X47778288Y-17081832D01*
X47800321Y-17117465D01*
X47814396Y-17146215D01*
X47817128Y-17156693D01*
X47822825Y-17174911D01*
X47838243Y-17210577D01*
X47860869Y-17258140D01*
X47882114Y-17300329D01*
X47908015Y-17351669D01*
X47928194Y-17393763D01*
X47940381Y-17421731D01*
X47942802Y-17430719D01*
X47931226Y-17425456D01*
X47904255Y-17407669D01*
X47867056Y-17380828D01*
X47855021Y-17371792D01*
X47767198Y-17295600D01*
X47687128Y-17207842D01*
X47623017Y-17117610D01*
X47618020Y-17109179D01*
X47592824Y-17072235D01*
X47555796Y-17025531D01*
X47513740Y-16977509D01*
X47500888Y-16963824D01*
X47461099Y-16923010D01*
X47433629Y-16898108D01*
X47413145Y-16885872D01*
X47394315Y-16883054D01*
X47373257Y-16886113D01*
X47336422Y-16900831D01*
X47309133Y-16931964D01*
X47302820Y-16942969D01*
X47276974Y-16990798D01*
X47314694Y-17062895D01*
X47339765Y-17104843D01*
X47365769Y-17139083D01*
X47382415Y-17154650D01*
X47410727Y-17179415D01*
X47426359Y-17200359D01*
X47433978Y-17221209D01*
X47427068Y-17225860D01*
X47408946Y-17217091D01*
X47382930Y-17197679D01*
X47352335Y-17170406D01*
X47320480Y-17138048D01*
X47290681Y-17103386D01*
X47266255Y-17069198D01*
X47262601Y-17063166D01*
X47225910Y-17014456D01*
X47185044Y-16989848D01*
X47135845Y-16987394D01*
X47111819Y-16992467D01*
X47083353Y-16998635D01*
X47059023Y-16997988D01*
X47030908Y-16988592D01*
X46991086Y-16968517D01*
X46972871Y-16958585D01*
X46923207Y-16929376D01*
X46876594Y-16898730D01*
X46843094Y-16873264D01*
X46843008Y-16873189D01*
X46798991Y-16843321D01*
X46762801Y-16835933D01*
X46736962Y-16850379D01*
X46724001Y-16886017D01*
X46722974Y-16903816D01*
X46732263Y-16934376D01*
X46756287Y-16973654D01*
X46789281Y-17014294D01*
X46825480Y-17048939D01*
X46849974Y-17065869D01*
X46877553Y-17083118D01*
X46891781Y-17096210D01*
X46892307Y-17097887D01*
X46903187Y-17107454D01*
X46931451Y-17124065D01*
X46970535Y-17144511D01*
X47013874Y-17165581D01*
X47054904Y-17184066D01*
X47087061Y-17196756D01*
X47102318Y-17200587D01*
X47120161Y-17209083D01*
X47150286Y-17231233D01*
X47186429Y-17262394D01*
X47189338Y-17265086D01*
X47237099Y-17308283D01*
X47289785Y-17354097D01*
X47326107Y-17384476D01*
X47371256Y-17423295D01*
X47422533Y-17470413D01*
X47465251Y-17512059D01*
X47501033Y-17545912D01*
X47531395Y-17570254D01*
X47550801Y-17580750D01*
X47553026Y-17580776D01*
X47576664Y-17583512D01*
X47596418Y-17591517D01*
X47631196Y-17598280D01*
X47660989Y-17583142D01*
X47681039Y-17550251D01*
X47686871Y-17512674D01*
X47688287Y-17484523D01*
X47693811Y-17466579D01*
X47705361Y-17459962D01*
X47724853Y-17465790D01*
X47754206Y-17485183D01*
X47795335Y-17519257D01*
X47850157Y-17569133D01*
X47920590Y-17635928D01*
X47955313Y-17669321D01*
X47985001Y-17693602D01*
X48010437Y-17707263D01*
X48016416Y-17708359D01*
X48039379Y-17715625D01*
X48045076Y-17721385D01*
X48064787Y-17732205D01*
X48096213Y-17733524D01*
X48127102Y-17726056D01*
X48142048Y-17715740D01*
X48150437Y-17692206D01*
X48151692Y-17648572D01*
X48148473Y-17605022D01*
X48145066Y-17550716D01*
X48148397Y-17520534D01*
X48159060Y-17513281D01*
X48177648Y-17527767D01*
X48183507Y-17534531D01*
X48208013Y-17555411D01*
X48240461Y-17574388D01*
X48298161Y-17603446D01*
X48334578Y-17627032D01*
X48353289Y-17647464D01*
X48353342Y-17647559D01*
X48371854Y-17660466D01*
X48407116Y-17671699D01*
X48430266Y-17675923D01*
X48472284Y-17679896D01*
X48499108Y-17675875D01*
X48520908Y-17661822D01*
X48526669Y-17656591D01*
X48549492Y-17638156D01*
X48568806Y-17636294D01*
X48595602Y-17648159D01*
X48628133Y-17667607D01*
X48669474Y-17695712D01*
X48694737Y-17714309D01*
X48730807Y-17739436D01*
X48760909Y-17756198D01*
X48774625Y-17760462D01*
X48791895Y-17766978D01*
X48794051Y-17772452D01*
X48805507Y-17786187D01*
X48835198Y-17793101D01*
X48876114Y-17792791D01*
X48921239Y-17784852D01*
X48935484Y-17780614D01*
X49000260Y-17748524D01*
X49046561Y-17700806D01*
X49074830Y-17636389D01*
X49085510Y-17554206D01*
X49079046Y-17453185D01*
X49077068Y-17439271D01*
X49067009Y-17372080D01*
X49118426Y-17363393D01*
X49164103Y-17361754D01*
X49200681Y-17371474D01*
X49221472Y-17390182D01*
X49223897Y-17400783D01*
X49232092Y-17420678D01*
X49252487Y-17449010D01*
X49259717Y-17457314D01*
X49283712Y-17487330D01*
X49314967Y-17531326D01*
X49347522Y-17580836D01*
X49354153Y-17591444D01*
X49393508Y-17650001D01*
X49440644Y-17712926D01*
X49485445Y-17766721D01*
X49485992Y-17767328D01*
X49523534Y-17810566D01*
X49556774Y-17851737D01*
X49579582Y-17883185D01*
X49582461Y-17887817D01*
X49607951Y-17918904D01*
X49644850Y-17950978D01*
X49660699Y-17961930D01*
X49702621Y-17991680D01*
X49741724Y-18024545D01*
X49752282Y-18034883D01*
X49773924Y-18059063D01*
X49778002Y-18070211D01*
X49766007Y-18073065D01*
X49764293Y-18073077D01*
X49748196Y-18076470D01*
X49754791Y-18088156D01*
X49773138Y-18096474D01*
X49788096Y-18088108D01*
X49814287Y-18079332D01*
X49845459Y-18080810D01*
X49898756Y-18079370D01*
X49945818Y-18053202D01*
X49985434Y-18003141D01*
X49999879Y-17974470D01*
X50017465Y-17936872D01*
X50031295Y-17911221D01*
X50037377Y-17903744D01*
X50047500Y-17913769D01*
X50058595Y-17931770D01*
X50067201Y-17951522D01*
X50060090Y-17954283D01*
X50052541Y-17951717D01*
X50036133Y-17947148D01*
X50033205Y-17954775D01*
X50042909Y-17979631D01*
X50046499Y-17987570D01*
X50058622Y-18009285D01*
X50068840Y-18009088D01*
X50076689Y-17999763D01*
X50088218Y-17989261D01*
X50101437Y-17994340D01*
X50122376Y-18017796D01*
X50126329Y-18022785D01*
X50153184Y-18056281D01*
X50176610Y-18084505D01*
X50180806Y-18089359D01*
X50196956Y-18117088D01*
X50200820Y-18134862D01*
X50193919Y-18140249D01*
X50173007Y-18124482D01*
X50142409Y-18092529D01*
X50113365Y-18061981D01*
X50092385Y-18043333D01*
X50083818Y-18040427D01*
X50083794Y-18040745D01*
X50092277Y-18065179D01*
X50113998Y-18098637D01*
X50142563Y-18133017D01*
X50171581Y-18160218D01*
X50184912Y-18168928D01*
X50226365Y-18180553D01*
X50280759Y-18183940D01*
X50337201Y-18179564D01*
X50384802Y-18167902D01*
X50401964Y-18159435D01*
X50442112Y-18118934D01*
X50471160Y-18060641D01*
X50486063Y-17991536D01*
X50487384Y-17963647D01*
X50489242Y-17922976D01*
X50494022Y-17894096D01*
X50498417Y-17885437D01*
X50513308Y-17889704D01*
X50537490Y-17908552D01*
X50547263Y-17918200D01*
X50570150Y-17943831D01*
X50576251Y-17958798D01*
X50567538Y-17970509D01*
X50562282Y-17974532D01*
X50542431Y-17993150D01*
X50546195Y-18003800D01*
X50574453Y-18007821D01*
X50584229Y-18007949D01*
X50624936Y-18011325D01*
X50659126Y-18019312D01*
X50694724Y-18024108D01*
X50717907Y-18019984D01*
X50744812Y-17999464D01*
X50769504Y-17964528D01*
X50784930Y-17926355D01*
X50786974Y-17910485D01*
X50792144Y-17885873D01*
X50801348Y-17860568D01*
X50276654Y-17860568D01*
X50271614Y-17887358D01*
X50258265Y-17890038D01*
X50237154Y-17869925D01*
X50219753Y-17850106D01*
X50190679Y-17818618D01*
X50158275Y-17784426D01*
X50121594Y-17742174D01*
X50085356Y-17693680D01*
X50053528Y-17645092D01*
X50030079Y-17602555D01*
X50018975Y-17572216D01*
X50018583Y-17568011D01*
X50029272Y-17551193D01*
X50048503Y-17539985D01*
X50078014Y-17524135D01*
X50112987Y-17499389D01*
X50120336Y-17493397D01*
X50150175Y-17472928D01*
X50174247Y-17464275D01*
X50179374Y-17464850D01*
X50198028Y-17482625D01*
X50219034Y-17518279D01*
X50239255Y-17564223D01*
X50255556Y-17612870D01*
X50264802Y-17656631D01*
X50265806Y-17674002D01*
X50266657Y-17717497D01*
X50270113Y-17772289D01*
X50273603Y-17809308D01*
X50276654Y-17860568D01*
X50801348Y-17860568D01*
X50804967Y-17850621D01*
X50808976Y-17841453D01*
X50823287Y-17807717D01*
X50831710Y-17783611D01*
X50832458Y-17780000D01*
X50837322Y-17760165D01*
X50847590Y-17726953D01*
X50851011Y-17716709D01*
X50860198Y-17680387D01*
X50860752Y-17643378D01*
X50852738Y-17594178D01*
X50851720Y-17589327D01*
X50841305Y-17547284D01*
X50830909Y-17516561D01*
X50824190Y-17505311D01*
X50815182Y-17488163D01*
X50813025Y-17470234D01*
X50814121Y-17450929D01*
X50821538Y-17451979D01*
X50836843Y-17467746D01*
X50853432Y-17492336D01*
X50874699Y-17532896D01*
X50896241Y-17580981D01*
X50897729Y-17584615D01*
X50922003Y-17640664D01*
X50952926Y-17707034D01*
X50984628Y-17771203D01*
X50991142Y-17783815D01*
X51015769Y-17832383D01*
X51034936Y-17872757D01*
X51045916Y-17899068D01*
X51047487Y-17905211D01*
X51055855Y-17930285D01*
X51076813Y-17963215D01*
X51104136Y-17996482D01*
X51131602Y-18022566D01*
X51152988Y-18033948D01*
X51154063Y-18034000D01*
X51188047Y-18029946D01*
X51229080Y-18019804D01*
X51267452Y-18006607D01*
X51293453Y-17993386D01*
X51298031Y-17989044D01*
X51304013Y-17966032D01*
X51306611Y-17922736D01*
X51305982Y-17864683D01*
X51302282Y-17797399D01*
X51295668Y-17726410D01*
X51289145Y-17675795D01*
X51281378Y-17619841D01*
X51278100Y-17583800D01*
X51279589Y-17561874D01*
X51286123Y-17548266D01*
X51295712Y-17539026D01*
X51307594Y-17526318D01*
X51313273Y-17508867D01*
X51313388Y-17480108D01*
X51308578Y-17433474D01*
X51307128Y-17421795D01*
X51299359Y-17364703D01*
X51290876Y-17309500D01*
X51283630Y-17268744D01*
X51278352Y-17231756D01*
X51282382Y-17215226D01*
X51287887Y-17213385D01*
X51301397Y-17224236D01*
X51322854Y-17253114D01*
X51349048Y-17294502D01*
X51376771Y-17342883D01*
X51402816Y-17392741D01*
X51423973Y-17438560D01*
X51433855Y-17464365D01*
X51447361Y-17499308D01*
X51469166Y-17549842D01*
X51495878Y-17608280D01*
X51515666Y-17649744D01*
X51542454Y-17705972D01*
X51565514Y-17756527D01*
X51582002Y-17795047D01*
X51588448Y-17812564D01*
X51599503Y-17839593D01*
X51619887Y-17880538D01*
X51645414Y-17927044D01*
X51648314Y-17932067D01*
X51672323Y-17974584D01*
X51690135Y-18008311D01*
X51698511Y-18027061D01*
X51698769Y-18028461D01*
X51704092Y-18044400D01*
X51717891Y-18076035D01*
X51732861Y-18107599D01*
X51759712Y-18153774D01*
X51782948Y-18175577D01*
X51790391Y-18177282D01*
X51812622Y-18184047D01*
X51818541Y-18191420D01*
X51832616Y-18194975D01*
X51866190Y-18185596D01*
X51895387Y-18173656D01*
X51938579Y-18152173D01*
X51947796Y-18144718D01*
X51802974Y-18144718D01*
X51796461Y-18151231D01*
X51789948Y-18144718D01*
X51796461Y-18138205D01*
X51802974Y-18144718D01*
X51947796Y-18144718D01*
X51963602Y-18131934D01*
X51977289Y-18106873D01*
X51979878Y-18098668D01*
X51992150Y-18068186D01*
X52005615Y-18051262D01*
X52006915Y-18050686D01*
X52022776Y-18056621D01*
X52051745Y-18076740D01*
X52088253Y-18107060D01*
X52097899Y-18115762D01*
X52181555Y-18182680D01*
X52261888Y-18225716D01*
X52342340Y-18246147D01*
X52426352Y-18245249D01*
X52441230Y-18243068D01*
X52542316Y-18213793D01*
X52637904Y-18161816D01*
X52722570Y-18090487D01*
X52761916Y-18045002D01*
X52790486Y-18003616D01*
X52818072Y-17956475D01*
X52841882Y-17909428D01*
X52859122Y-17868325D01*
X52866998Y-17839016D01*
X52865298Y-17828495D01*
X52867039Y-17814643D01*
X52877283Y-17784990D01*
X52886610Y-17762522D01*
X52905961Y-17707851D01*
X52925870Y-17632376D01*
X52926327Y-17630205D01*
X52743706Y-17630205D01*
X52738302Y-17692972D01*
X52720769Y-17763073D01*
X52694195Y-17832892D01*
X52661669Y-17894813D01*
X52626278Y-17941218D01*
X52612778Y-17953156D01*
X52574749Y-17984217D01*
X52538786Y-18017471D01*
X52510309Y-18047464D01*
X52494738Y-18068738D01*
X52493333Y-18073382D01*
X52482562Y-18085212D01*
X52456568Y-18100657D01*
X52424831Y-18115058D01*
X52396831Y-18123756D01*
X52389128Y-18124597D01*
X52365754Y-18119459D01*
X52330464Y-18106556D01*
X52316691Y-18100581D01*
X52274680Y-18075742D01*
X52232962Y-18041724D01*
X52197416Y-18004497D01*
X52173925Y-17970034D01*
X52167750Y-17949333D01*
X52161935Y-17923343D01*
X52147215Y-17885003D01*
X52135073Y-17859203D01*
X52116938Y-17820708D01*
X52105137Y-17790384D01*
X52102564Y-17779067D01*
X52097178Y-17762208D01*
X52082344Y-17726457D01*
X52060042Y-17676329D01*
X52032257Y-17616342D01*
X52017401Y-17585050D01*
X51986125Y-17517284D01*
X51958295Y-17452503D01*
X51936359Y-17396739D01*
X51922766Y-17356019D01*
X51920357Y-17346058D01*
X51908921Y-17300856D01*
X51891237Y-17245201D01*
X51874699Y-17200359D01*
X51860276Y-17163064D01*
X51846374Y-17124191D01*
X51831835Y-17079920D01*
X51815498Y-17026432D01*
X51796203Y-16959910D01*
X51772791Y-16876533D01*
X51744101Y-16772483D01*
X51738208Y-16750974D01*
X51704960Y-16629772D01*
X51677685Y-16530916D01*
X51655584Y-16451596D01*
X51637857Y-16389002D01*
X51623705Y-16340326D01*
X51612328Y-16302758D01*
X51602926Y-16273488D01*
X51599209Y-16262513D01*
X51583683Y-16214088D01*
X51567244Y-16157847D01*
X51560314Y-16132256D01*
X51548695Y-16088408D01*
X51538844Y-16052381D01*
X51534647Y-16037820D01*
X51536393Y-16018626D01*
X51548355Y-16015026D01*
X51572732Y-16007949D01*
X51606843Y-15990419D01*
X51641850Y-15967987D01*
X51668914Y-15946204D01*
X51678880Y-15933059D01*
X51683527Y-15911199D01*
X51689407Y-15874789D01*
X51691664Y-15858718D01*
X51700490Y-15809794D01*
X51714249Y-15781361D01*
X51738428Y-15767866D01*
X51778512Y-15763753D01*
X51785598Y-15763611D01*
X51824835Y-15765908D01*
X51863252Y-15775907D01*
X51909230Y-15796348D01*
X51946756Y-15816322D01*
X51986601Y-15841258D01*
X52033981Y-15875359D01*
X52084500Y-15914884D01*
X52133761Y-15956091D01*
X52177370Y-15995240D01*
X52210930Y-16028589D01*
X52230047Y-16052399D01*
X52232820Y-16059786D01*
X52240498Y-16075403D01*
X52259533Y-16101463D01*
X52265384Y-16108581D01*
X52286512Y-16137646D01*
X52297505Y-16160494D01*
X52297948Y-16163727D01*
X52306927Y-16181577D01*
X52329719Y-16208228D01*
X52344519Y-16222551D01*
X52364659Y-16242339D01*
X52382285Y-16264159D01*
X52399216Y-16291761D01*
X52417269Y-16328894D01*
X52438261Y-16379307D01*
X52464010Y-16446751D01*
X52496334Y-16534975D01*
X52497445Y-16538038D01*
X52523611Y-16609009D01*
X52550837Y-16680821D01*
X52575817Y-16744863D01*
X52594436Y-16790622D01*
X52644670Y-16919928D01*
X52683989Y-17043074D01*
X52711703Y-17156781D01*
X52727120Y-17257770D01*
X52729550Y-17342760D01*
X52722007Y-17395744D01*
X52719871Y-17424928D01*
X52722248Y-17469833D01*
X52728446Y-17519487D01*
X52735873Y-17567777D01*
X52741345Y-17607419D01*
X52743699Y-17629977D01*
X52743706Y-17630205D01*
X52926327Y-17630205D01*
X52945082Y-17541282D01*
X52958071Y-17467121D01*
X52956253Y-17429357D01*
X52937280Y-17403230D01*
X52917999Y-17375758D01*
X52910464Y-17334773D01*
X52910077Y-17318827D01*
X52906903Y-17258824D01*
X52898474Y-17185703D01*
X52886233Y-17107999D01*
X52871620Y-17034248D01*
X52856079Y-16972986D01*
X52847138Y-16946359D01*
X52831733Y-16900639D01*
X52815052Y-16841527D01*
X52800527Y-16781252D01*
X52799621Y-16777026D01*
X52779586Y-16686082D01*
X52762602Y-16617662D01*
X52747559Y-16568571D01*
X52733347Y-16535614D01*
X52718859Y-16515598D01*
X52705646Y-16506441D01*
X52678086Y-16480293D01*
X52660982Y-16439470D01*
X52648561Y-16394522D01*
X52636668Y-16352589D01*
X52634960Y-16346708D01*
X52621048Y-16315681D01*
X52596276Y-16274130D01*
X52569618Y-16235990D01*
X52537169Y-16191572D01*
X52497585Y-16135248D01*
X52457850Y-16077005D01*
X52445468Y-16058421D01*
X52409775Y-16007981D01*
X52369653Y-15956872D01*
X52329006Y-15909440D01*
X52291738Y-15870034D01*
X52261754Y-15842998D01*
X52242959Y-15832680D01*
X52242680Y-15832674D01*
X52229692Y-15824531D01*
X52201474Y-15802365D01*
X52162177Y-15769555D01*
X52115956Y-15729485D01*
X52115780Y-15729329D01*
X51998558Y-15625992D01*
X51872213Y-15632291D01*
X51872213Y-15632291D01*
G37*
X51872213Y-15632291D02*
X51764741Y-15643168D01*
X51679846Y-15664606D01*
X51615850Y-15697655D01*
X51571076Y-15743368D01*
X51543846Y-15802795D01*
X51535508Y-15843390D01*
X51525353Y-15904562D01*
X51514700Y-15940204D01*
X51503116Y-15950838D01*
X51490164Y-15936986D01*
X51479285Y-15910820D01*
X51463018Y-15881568D01*
X51437791Y-15871902D01*
X51432421Y-15871744D01*
X51406396Y-15877727D01*
X51399179Y-15897026D01*
X51391484Y-15924808D01*
X51371458Y-15931093D01*
X51346176Y-15916518D01*
X51324589Y-15900998D01*
X51314263Y-15904925D01*
X51314799Y-15929774D01*
X51325797Y-15977019D01*
X51327816Y-15984319D01*
X51351906Y-16070966D01*
X51370492Y-16139505D01*
X51385362Y-16196835D01*
X51398306Y-16249859D01*
X51411110Y-16305477D01*
X51411701Y-16308103D01*
X51441729Y-16431725D01*
X51475691Y-16550307D01*
X51515831Y-16672820D01*
X51536913Y-16739627D01*
X51557722Y-16814539D01*
X51573729Y-16881231D01*
X51588739Y-16940525D01*
X51607560Y-16998914D01*
X51626320Y-17044492D01*
X51627746Y-17047314D01*
X51645907Y-17086059D01*
X51657479Y-17117606D01*
X51659692Y-17129183D01*
X51666241Y-17155264D01*
X51677485Y-17178022D01*
X51685319Y-17196632D01*
X51695185Y-17231089D01*
X51707438Y-17283072D01*
X51722435Y-17354260D01*
X51740531Y-17446331D01*
X51762080Y-17560964D01*
X51784269Y-17682308D01*
X51795126Y-17737688D01*
X51806262Y-17787024D01*
X51815696Y-17821728D01*
X51817825Y-17827816D01*
X51826203Y-17861999D01*
X51826188Y-17886431D01*
X51817916Y-17894215D01*
X51802702Y-17880222D01*
X51782250Y-17847248D01*
X51758265Y-17798091D01*
X51732453Y-17735548D01*
X51729548Y-17727897D01*
X51709538Y-17679310D01*
X51689348Y-17637654D01*
X51673171Y-17611534D01*
X51672435Y-17610667D01*
X51650525Y-17577079D01*
X51640044Y-17552051D01*
X51629570Y-17523127D01*
X51612013Y-17480691D01*
X51594528Y-17441333D01*
X51568649Y-17384826D01*
X51540807Y-17323787D01*
X51525230Y-17289506D01*
X51506017Y-17249719D01*
X51489672Y-17220405D01*
X51480997Y-17209136D01*
X51471148Y-17194640D01*
X51454893Y-17162333D01*
X51435411Y-17118629D01*
X51431415Y-17109104D01*
X51404372Y-17051269D01*
X51375857Y-17009116D01*
X51338929Y-16972855D01*
X51329093Y-16964781D01*
X51292674Y-16937895D01*
X51262115Y-16919420D01*
X51246395Y-16913795D01*
X51221541Y-16919285D01*
X51181920Y-16933631D01*
X51135864Y-16953644D01*
X51112615Y-16964988D01*
X51098964Y-16984220D01*
X51087358Y-17023891D01*
X51082626Y-17051827D01*
X51074377Y-17102613D01*
X51064485Y-17149996D01*
X51058496Y-17172411D01*
X51052451Y-17210350D01*
X51050538Y-17269689D01*
X51052867Y-17346090D01*
X51053743Y-17361283D01*
X51057336Y-17423699D01*
X51058683Y-17463618D01*
X51057445Y-17484523D01*
X51053278Y-17489901D01*
X51045842Y-17483234D01*
X51042251Y-17478492D01*
X51021888Y-17444958D01*
X50997232Y-17396501D01*
X50972247Y-17341905D01*
X50950897Y-17289954D01*
X50937144Y-17249433D01*
X50935152Y-17241123D01*
X50921016Y-17203073D01*
X50902757Y-17175754D01*
X50884546Y-17152041D01*
X50878153Y-17136698D01*
X50868172Y-17123059D01*
X50842405Y-17101076D01*
X50816976Y-17082762D01*
X50758400Y-17053339D01*
X50703776Y-17048547D01*
X50649008Y-17068239D01*
X50635801Y-17076320D01*
X50623457Y-17085294D01*
X50614561Y-17096112D01*
X50608889Y-17112421D01*
X50606214Y-17137869D01*
X50606310Y-17176104D01*
X50608950Y-17230774D01*
X50613910Y-17305526D01*
X50618023Y-17363179D01*
X50625302Y-17464498D01*
X50630796Y-17542795D01*
X50634555Y-17601036D01*
X50636632Y-17642185D01*
X50637076Y-17669208D01*
X50635941Y-17685069D01*
X50633277Y-17692734D01*
X50629135Y-17695167D01*
X50623776Y-17695333D01*
X50605990Y-17684543D01*
X50598528Y-17670625D01*
X50585128Y-17646591D01*
X50560345Y-17614460D01*
X50547382Y-17600001D01*
X50514441Y-17560312D01*
X50480694Y-17512473D01*
X50467546Y-17491196D01*
X50441612Y-17450454D01*
X50415564Y-17415584D01*
X50403315Y-17402153D01*
X50386323Y-17381377D01*
X50359643Y-17343252D01*
X50337533Y-17309447D01*
X50106466Y-17309447D01*
X50089172Y-17336198D01*
X50055364Y-17356477D01*
X50022345Y-17351740D01*
X49993450Y-17322896D01*
X49985187Y-17307820D01*
X49965973Y-17253800D01*
X49956734Y-17198216D01*
X49958126Y-17149409D01*
X49970165Y-17116544D01*
X49982184Y-17103216D01*
X49991853Y-17104880D01*
X50003880Y-17124953D01*
X50015019Y-17149108D01*
X50038430Y-17191573D01*
X50066059Y-17228899D01*
X50075307Y-17238450D01*
X50103805Y-17275189D01*
X50106466Y-17309447D01*
X50337533Y-17309447D01*
X50326724Y-17292922D01*
X50291018Y-17235534D01*
X50285437Y-17226307D01*
X50234993Y-17145627D01*
X50192137Y-17084727D01*
X50153551Y-17039724D01*
X50115922Y-17006738D01*
X50077313Y-16982610D01*
X50034465Y-16967562D01*
X49990957Y-16964012D01*
X49956832Y-16972313D01*
X49948943Y-16978103D01*
X49922869Y-16992593D01*
X49900188Y-16981873D01*
X49882164Y-16946696D01*
X49879175Y-16936590D01*
X49852279Y-16847905D01*
X49820566Y-16760605D01*
X49787593Y-16684009D01*
X49768519Y-16646769D01*
X49745645Y-16604145D01*
X49714328Y-16543388D01*
X49677252Y-16469923D01*
X49637101Y-16389172D01*
X49596558Y-16306559D01*
X49558308Y-16227507D01*
X49525035Y-16157439D01*
X49505838Y-16115974D01*
X49482963Y-16070094D01*
X49461774Y-16035115D01*
X49445789Y-16016594D01*
X49441929Y-16015026D01*
X49419908Y-16022966D01*
X49388743Y-16042790D01*
X49355947Y-16068503D01*
X49329032Y-16094110D01*
X49315512Y-16113616D01*
X49315076Y-16116250D01*
X49318384Y-16142512D01*
X49326685Y-16183341D01*
X49337551Y-16228335D01*
X49348551Y-16267091D01*
X49353807Y-16282051D01*
X49363671Y-16310569D01*
X49375886Y-16351038D01*
X49380201Y-16366490D01*
X49395895Y-16414221D01*
X49417267Y-16467622D01*
X49427225Y-16489415D01*
X49444747Y-16529206D01*
X49456130Y-16561699D01*
X49458555Y-16574310D01*
X49463067Y-16600537D01*
X49473791Y-16637120D01*
X49487011Y-16673122D01*
X49499012Y-16697608D01*
X49501534Y-16700799D01*
X49508651Y-16719711D01*
X49510461Y-16739351D01*
X49515601Y-16766065D01*
X49523487Y-16777026D01*
X49532382Y-16794390D01*
X49536481Y-16825795D01*
X49536512Y-16828841D01*
X49542292Y-16872258D01*
X49554868Y-16909483D01*
X49568170Y-16940558D01*
X49585394Y-16986571D01*
X49602805Y-17037538D01*
X49623040Y-17093183D01*
X49650373Y-17159578D01*
X49679692Y-17224459D01*
X49686945Y-17239436D01*
X49715997Y-17298873D01*
X49736203Y-17342258D01*
X49750429Y-17376807D01*
X49761541Y-17409738D01*
X49772404Y-17448269D01*
X49777459Y-17467385D01*
X49785625Y-17505316D01*
X49794336Y-17556837D01*
X49802918Y-17616254D01*
X49810696Y-17677876D01*
X49816997Y-17736012D01*
X49821148Y-17784968D01*
X49822473Y-17819055D01*
X49820668Y-17832340D01*
X49802170Y-17833323D01*
X49771638Y-17811986D01*
X49729560Y-17768852D01*
X49676423Y-17704445D01*
X49612717Y-17619290D01*
X49582102Y-17576292D01*
X49545295Y-17525218D01*
X49502594Y-17467811D01*
X49470180Y-17425462D01*
X49436031Y-17377087D01*
X49405490Y-17325950D01*
X49386362Y-17285908D01*
X49363473Y-17240697D01*
X49332766Y-17211023D01*
X49289752Y-17194970D01*
X49229938Y-17190620D01*
X49170901Y-17193925D01*
X49099172Y-17196678D01*
X49048148Y-17189583D01*
X49014067Y-17171747D01*
X48998557Y-17152867D01*
X48967394Y-17123099D01*
X48922177Y-17106309D01*
X48873075Y-17105892D01*
X48864023Y-17107978D01*
X48814331Y-17131436D01*
X48786989Y-17166316D01*
X48782654Y-17209619D01*
X48801982Y-17258343D01*
X48824596Y-17288244D01*
X48865572Y-17352537D01*
X48887696Y-17428406D01*
X48888675Y-17504828D01*
X48882001Y-17555298D01*
X48818245Y-17547746D01*
X48766468Y-17535676D01*
X48712583Y-17513545D01*
X48663215Y-17485236D01*
X48624987Y-17454635D01*
X48604521Y-17425623D01*
X48603425Y-17421795D01*
X48577928Y-17323851D01*
X48545738Y-17226477D01*
X48509177Y-17135161D01*
X48470562Y-17055390D01*
X48432215Y-16992652D01*
X48410701Y-16965897D01*
X48384517Y-16933791D01*
X48365338Y-16904026D01*
X48348388Y-16882135D01*
X48324851Y-16876475D01*
X48289311Y-16886888D01*
X48259671Y-16900937D01*
X48215938Y-16927602D01*
X48188431Y-16957833D01*
X48174366Y-16997754D01*
X48170959Y-17053490D01*
X48172584Y-17092524D01*
X48179459Y-17158760D01*
X48192935Y-17212692D01*
X48216568Y-17267888D01*
X48220713Y-17276142D01*
X48240283Y-17317650D01*
X48252533Y-17349717D01*
X48255021Y-17365871D01*
X48254721Y-17366287D01*
X48244025Y-17366464D01*
X48224731Y-17352406D01*
X48195556Y-17322703D01*
X48155218Y-17275944D01*
X48102436Y-17210720D01*
X48035927Y-17125620D01*
X48035694Y-17125319D01*
X47976527Y-17050215D01*
X47929745Y-16994788D01*
X47893088Y-16957172D01*
X47864296Y-16935497D01*
X47841108Y-16927896D01*
X47821265Y-16932502D01*
X47810950Y-16939568D01*
X47790754Y-16965421D01*
X47784190Y-16980099D01*
X47769576Y-17000588D01*
X47757635Y-17004974D01*
X47743329Y-17007996D01*
X47741731Y-17019773D01*
X47753933Y-17044374D01*
X47778288Y-17081832D01*
X47800321Y-17117465D01*
X47814396Y-17146215D01*
X47817128Y-17156693D01*
X47822825Y-17174911D01*
X47838243Y-17210577D01*
X47860869Y-17258140D01*
X47882114Y-17300329D01*
X47908015Y-17351669D01*
X47928194Y-17393763D01*
X47940381Y-17421731D01*
X47942802Y-17430719D01*
X47931226Y-17425456D01*
X47904255Y-17407669D01*
X47867056Y-17380828D01*
X47855021Y-17371792D01*
X47767198Y-17295600D01*
X47687128Y-17207842D01*
X47623017Y-17117610D01*
X47618020Y-17109179D01*
X47592824Y-17072235D01*
X47555796Y-17025531D01*
X47513740Y-16977509D01*
X47500888Y-16963824D01*
X47461099Y-16923010D01*
X47433629Y-16898108D01*
X47413145Y-16885872D01*
X47394315Y-16883054D01*
X47373257Y-16886113D01*
X47336422Y-16900831D01*
X47309133Y-16931964D01*
X47302820Y-16942969D01*
X47276974Y-16990798D01*
X47314694Y-17062895D01*
X47339765Y-17104843D01*
X47365769Y-17139083D01*
X47382415Y-17154650D01*
X47410727Y-17179415D01*
X47426359Y-17200359D01*
X47433978Y-17221209D01*
X47427068Y-17225860D01*
X47408946Y-17217091D01*
X47382930Y-17197679D01*
X47352335Y-17170406D01*
X47320480Y-17138048D01*
X47290681Y-17103386D01*
X47266255Y-17069198D01*
X47262601Y-17063166D01*
X47225910Y-17014456D01*
X47185044Y-16989848D01*
X47135845Y-16987394D01*
X47111819Y-16992467D01*
X47083353Y-16998635D01*
X47059023Y-16997988D01*
X47030908Y-16988592D01*
X46991086Y-16968517D01*
X46972871Y-16958585D01*
X46923207Y-16929376D01*
X46876594Y-16898730D01*
X46843094Y-16873264D01*
X46843008Y-16873189D01*
X46798991Y-16843321D01*
X46762801Y-16835933D01*
X46736962Y-16850379D01*
X46724001Y-16886017D01*
X46722974Y-16903816D01*
X46732263Y-16934376D01*
X46756287Y-16973654D01*
X46789281Y-17014294D01*
X46825480Y-17048939D01*
X46849974Y-17065869D01*
X46877553Y-17083118D01*
X46891781Y-17096210D01*
X46892307Y-17097887D01*
X46903187Y-17107454D01*
X46931451Y-17124065D01*
X46970535Y-17144511D01*
X47013874Y-17165581D01*
X47054904Y-17184066D01*
X47087061Y-17196756D01*
X47102318Y-17200587D01*
X47120161Y-17209083D01*
X47150286Y-17231233D01*
X47186429Y-17262394D01*
X47189338Y-17265086D01*
X47237099Y-17308283D01*
X47289785Y-17354097D01*
X47326107Y-17384476D01*
X47371256Y-17423295D01*
X47422533Y-17470413D01*
X47465251Y-17512059D01*
X47501033Y-17545912D01*
X47531395Y-17570254D01*
X47550801Y-17580750D01*
X47553026Y-17580776D01*
X47576664Y-17583512D01*
X47596418Y-17591517D01*
X47631196Y-17598280D01*
X47660989Y-17583142D01*
X47681039Y-17550251D01*
X47686871Y-17512674D01*
X47688287Y-17484523D01*
X47693811Y-17466579D01*
X47705361Y-17459962D01*
X47724853Y-17465790D01*
X47754206Y-17485183D01*
X47795335Y-17519257D01*
X47850157Y-17569133D01*
X47920590Y-17635928D01*
X47955313Y-17669321D01*
X47985001Y-17693602D01*
X48010437Y-17707263D01*
X48016416Y-17708359D01*
X48039379Y-17715625D01*
X48045076Y-17721385D01*
X48064787Y-17732205D01*
X48096213Y-17733524D01*
X48127102Y-17726056D01*
X48142048Y-17715740D01*
X48150437Y-17692206D01*
X48151692Y-17648572D01*
X48148473Y-17605022D01*
X48145066Y-17550716D01*
X48148397Y-17520534D01*
X48159060Y-17513281D01*
X48177648Y-17527767D01*
X48183507Y-17534531D01*
X48208013Y-17555411D01*
X48240461Y-17574388D01*
X48298161Y-17603446D01*
X48334578Y-17627032D01*
X48353289Y-17647464D01*
X48353342Y-17647559D01*
X48371854Y-17660466D01*
X48407116Y-17671699D01*
X48430266Y-17675923D01*
X48472284Y-17679896D01*
X48499108Y-17675875D01*
X48520908Y-17661822D01*
X48526669Y-17656591D01*
X48549492Y-17638156D01*
X48568806Y-17636294D01*
X48595602Y-17648159D01*
X48628133Y-17667607D01*
X48669474Y-17695712D01*
X48694737Y-17714309D01*
X48730807Y-17739436D01*
X48760909Y-17756198D01*
X48774625Y-17760462D01*
X48791895Y-17766978D01*
X48794051Y-17772452D01*
X48805507Y-17786187D01*
X48835198Y-17793101D01*
X48876114Y-17792791D01*
X48921239Y-17784852D01*
X48935484Y-17780614D01*
X49000260Y-17748524D01*
X49046561Y-17700806D01*
X49074830Y-17636389D01*
X49085510Y-17554206D01*
X49079046Y-17453185D01*
X49077068Y-17439271D01*
X49067009Y-17372080D01*
X49118426Y-17363393D01*
X49164103Y-17361754D01*
X49200681Y-17371474D01*
X49221472Y-17390182D01*
X49223897Y-17400783D01*
X49232092Y-17420678D01*
X49252487Y-17449010D01*
X49259717Y-17457314D01*
X49283712Y-17487330D01*
X49314967Y-17531326D01*
X49347522Y-17580836D01*
X49354153Y-17591444D01*
X49393508Y-17650001D01*
X49440644Y-17712926D01*
X49485445Y-17766721D01*
X49485992Y-17767328D01*
X49523534Y-17810566D01*
X49556774Y-17851737D01*
X49579582Y-17883185D01*
X49582461Y-17887817D01*
X49607951Y-17918904D01*
X49644850Y-17950978D01*
X49660699Y-17961930D01*
X49702621Y-17991680D01*
X49741724Y-18024545D01*
X49752282Y-18034883D01*
X49773924Y-18059063D01*
X49778002Y-18070211D01*
X49766007Y-18073065D01*
X49764293Y-18073077D01*
X49748196Y-18076470D01*
X49754791Y-18088156D01*
X49773138Y-18096474D01*
X49788096Y-18088108D01*
X49814287Y-18079332D01*
X49845459Y-18080810D01*
X49898756Y-18079370D01*
X49945818Y-18053202D01*
X49985434Y-18003141D01*
X49999879Y-17974470D01*
X50017465Y-17936872D01*
X50031295Y-17911221D01*
X50037377Y-17903744D01*
X50047500Y-17913769D01*
X50058595Y-17931770D01*
X50067201Y-17951522D01*
X50060090Y-17954283D01*
X50052541Y-17951717D01*
X50036133Y-17947148D01*
X50033205Y-17954775D01*
X50042909Y-17979631D01*
X50046499Y-17987570D01*
X50058622Y-18009285D01*
X50068840Y-18009088D01*
X50076689Y-17999763D01*
X50088218Y-17989261D01*
X50101437Y-17994340D01*
X50122376Y-18017796D01*
X50126329Y-18022785D01*
X50153184Y-18056281D01*
X50176610Y-18084505D01*
X50180806Y-18089359D01*
X50196956Y-18117088D01*
X50200820Y-18134862D01*
X50193919Y-18140249D01*
X50173007Y-18124482D01*
X50142409Y-18092529D01*
X50113365Y-18061981D01*
X50092385Y-18043333D01*
X50083818Y-18040427D01*
X50083794Y-18040745D01*
X50092277Y-18065179D01*
X50113998Y-18098637D01*
X50142563Y-18133017D01*
X50171581Y-18160218D01*
X50184912Y-18168928D01*
X50226365Y-18180553D01*
X50280759Y-18183940D01*
X50337201Y-18179564D01*
X50384802Y-18167902D01*
X50401964Y-18159435D01*
X50442112Y-18118934D01*
X50471160Y-18060641D01*
X50486063Y-17991536D01*
X50487384Y-17963647D01*
X50489242Y-17922976D01*
X50494022Y-17894096D01*
X50498417Y-17885437D01*
X50513308Y-17889704D01*
X50537490Y-17908552D01*
X50547263Y-17918200D01*
X50570150Y-17943831D01*
X50576251Y-17958798D01*
X50567538Y-17970509D01*
X50562282Y-17974532D01*
X50542431Y-17993150D01*
X50546195Y-18003800D01*
X50574453Y-18007821D01*
X50584229Y-18007949D01*
X50624936Y-18011325D01*
X50659126Y-18019312D01*
X50694724Y-18024108D01*
X50717907Y-18019984D01*
X50744812Y-17999464D01*
X50769504Y-17964528D01*
X50784930Y-17926355D01*
X50786974Y-17910485D01*
X50792144Y-17885873D01*
X50801348Y-17860568D01*
X50276654Y-17860568D01*
X50271614Y-17887358D01*
X50258265Y-17890038D01*
X50237154Y-17869925D01*
X50219753Y-17850106D01*
X50190679Y-17818618D01*
X50158275Y-17784426D01*
X50121594Y-17742174D01*
X50085356Y-17693680D01*
X50053528Y-17645092D01*
X50030079Y-17602555D01*
X50018975Y-17572216D01*
X50018583Y-17568011D01*
X50029272Y-17551193D01*
X50048503Y-17539985D01*
X50078014Y-17524135D01*
X50112987Y-17499389D01*
X50120336Y-17493397D01*
X50150175Y-17472928D01*
X50174247Y-17464275D01*
X50179374Y-17464850D01*
X50198028Y-17482625D01*
X50219034Y-17518279D01*
X50239255Y-17564223D01*
X50255556Y-17612870D01*
X50264802Y-17656631D01*
X50265806Y-17674002D01*
X50266657Y-17717497D01*
X50270113Y-17772289D01*
X50273603Y-17809308D01*
X50276654Y-17860568D01*
X50801348Y-17860568D01*
X50804967Y-17850621D01*
X50808976Y-17841453D01*
X50823287Y-17807717D01*
X50831710Y-17783611D01*
X50832458Y-17780000D01*
X50837322Y-17760165D01*
X50847590Y-17726953D01*
X50851011Y-17716709D01*
X50860198Y-17680387D01*
X50860752Y-17643378D01*
X50852738Y-17594178D01*
X50851720Y-17589327D01*
X50841305Y-17547284D01*
X50830909Y-17516561D01*
X50824190Y-17505311D01*
X50815182Y-17488163D01*
X50813025Y-17470234D01*
X50814121Y-17450929D01*
X50821538Y-17451979D01*
X50836843Y-17467746D01*
X50853432Y-17492336D01*
X50874699Y-17532896D01*
X50896241Y-17580981D01*
X50897729Y-17584615D01*
X50922003Y-17640664D01*
X50952926Y-17707034D01*
X50984628Y-17771203D01*
X50991142Y-17783815D01*
X51015769Y-17832383D01*
X51034936Y-17872757D01*
X51045916Y-17899068D01*
X51047487Y-17905211D01*
X51055855Y-17930285D01*
X51076813Y-17963215D01*
X51104136Y-17996482D01*
X51131602Y-18022566D01*
X51152988Y-18033948D01*
X51154063Y-18034000D01*
X51188047Y-18029946D01*
X51229080Y-18019804D01*
X51267452Y-18006607D01*
X51293453Y-17993386D01*
X51298031Y-17989044D01*
X51304013Y-17966032D01*
X51306611Y-17922736D01*
X51305982Y-17864683D01*
X51302282Y-17797399D01*
X51295668Y-17726410D01*
X51289145Y-17675795D01*
X51281378Y-17619841D01*
X51278100Y-17583800D01*
X51279589Y-17561874D01*
X51286123Y-17548266D01*
X51295712Y-17539026D01*
X51307594Y-17526318D01*
X51313273Y-17508867D01*
X51313388Y-17480108D01*
X51308578Y-17433474D01*
X51307128Y-17421795D01*
X51299359Y-17364703D01*
X51290876Y-17309500D01*
X51283630Y-17268744D01*
X51278352Y-17231756D01*
X51282382Y-17215226D01*
X51287887Y-17213385D01*
X51301397Y-17224236D01*
X51322854Y-17253114D01*
X51349048Y-17294502D01*
X51376771Y-17342883D01*
X51402816Y-17392741D01*
X51423973Y-17438560D01*
X51433855Y-17464365D01*
X51447361Y-17499308D01*
X51469166Y-17549842D01*
X51495878Y-17608280D01*
X51515666Y-17649744D01*
X51542454Y-17705972D01*
X51565514Y-17756527D01*
X51582002Y-17795047D01*
X51588448Y-17812564D01*
X51599503Y-17839593D01*
X51619887Y-17880538D01*
X51645414Y-17927044D01*
X51648314Y-17932067D01*
X51672323Y-17974584D01*
X51690135Y-18008311D01*
X51698511Y-18027061D01*
X51698769Y-18028461D01*
X51704092Y-18044400D01*
X51717891Y-18076035D01*
X51732861Y-18107599D01*
X51759712Y-18153774D01*
X51782948Y-18175577D01*
X51790391Y-18177282D01*
X51812622Y-18184047D01*
X51818541Y-18191420D01*
X51832616Y-18194975D01*
X51866190Y-18185596D01*
X51895387Y-18173656D01*
X51938579Y-18152173D01*
X51947796Y-18144718D01*
X51802974Y-18144718D01*
X51796461Y-18151231D01*
X51789948Y-18144718D01*
X51796461Y-18138205D01*
X51802974Y-18144718D01*
X51947796Y-18144718D01*
X51963602Y-18131934D01*
X51977289Y-18106873D01*
X51979878Y-18098668D01*
X51992150Y-18068186D01*
X52005615Y-18051262D01*
X52006915Y-18050686D01*
X52022776Y-18056621D01*
X52051745Y-18076740D01*
X52088253Y-18107060D01*
X52097899Y-18115762D01*
X52181555Y-18182680D01*
X52261888Y-18225716D01*
X52342340Y-18246147D01*
X52426352Y-18245249D01*
X52441230Y-18243068D01*
X52542316Y-18213793D01*
X52637904Y-18161816D01*
X52722570Y-18090487D01*
X52761916Y-18045002D01*
X52790486Y-18003616D01*
X52818072Y-17956475D01*
X52841882Y-17909428D01*
X52859122Y-17868325D01*
X52866998Y-17839016D01*
X52865298Y-17828495D01*
X52867039Y-17814643D01*
X52877283Y-17784990D01*
X52886610Y-17762522D01*
X52905961Y-17707851D01*
X52925870Y-17632376D01*
X52926327Y-17630205D01*
X52743706Y-17630205D01*
X52738302Y-17692972D01*
X52720769Y-17763073D01*
X52694195Y-17832892D01*
X52661669Y-17894813D01*
X52626278Y-17941218D01*
X52612778Y-17953156D01*
X52574749Y-17984217D01*
X52538786Y-18017471D01*
X52510309Y-18047464D01*
X52494738Y-18068738D01*
X52493333Y-18073382D01*
X52482562Y-18085212D01*
X52456568Y-18100657D01*
X52424831Y-18115058D01*
X52396831Y-18123756D01*
X52389128Y-18124597D01*
X52365754Y-18119459D01*
X52330464Y-18106556D01*
X52316691Y-18100581D01*
X52274680Y-18075742D01*
X52232962Y-18041724D01*
X52197416Y-18004497D01*
X52173925Y-17970034D01*
X52167750Y-17949333D01*
X52161935Y-17923343D01*
X52147215Y-17885003D01*
X52135073Y-17859203D01*
X52116938Y-17820708D01*
X52105137Y-17790384D01*
X52102564Y-17779067D01*
X52097178Y-17762208D01*
X52082344Y-17726457D01*
X52060042Y-17676329D01*
X52032257Y-17616342D01*
X52017401Y-17585050D01*
X51986125Y-17517284D01*
X51958295Y-17452503D01*
X51936359Y-17396739D01*
X51922766Y-17356019D01*
X51920357Y-17346058D01*
X51908921Y-17300856D01*
X51891237Y-17245201D01*
X51874699Y-17200359D01*
X51860276Y-17163064D01*
X51846374Y-17124191D01*
X51831835Y-17079920D01*
X51815498Y-17026432D01*
X51796203Y-16959910D01*
X51772791Y-16876533D01*
X51744101Y-16772483D01*
X51738208Y-16750974D01*
X51704960Y-16629772D01*
X51677685Y-16530916D01*
X51655584Y-16451596D01*
X51637857Y-16389002D01*
X51623705Y-16340326D01*
X51612328Y-16302758D01*
X51602926Y-16273488D01*
X51599209Y-16262513D01*
X51583683Y-16214088D01*
X51567244Y-16157847D01*
X51560314Y-16132256D01*
X51548695Y-16088408D01*
X51538844Y-16052381D01*
X51534647Y-16037820D01*
X51536393Y-16018626D01*
X51548355Y-16015026D01*
X51572732Y-16007949D01*
X51606843Y-15990419D01*
X51641850Y-15967987D01*
X51668914Y-15946204D01*
X51678880Y-15933059D01*
X51683527Y-15911199D01*
X51689407Y-15874789D01*
X51691664Y-15858718D01*
X51700490Y-15809794D01*
X51714249Y-15781361D01*
X51738428Y-15767866D01*
X51778512Y-15763753D01*
X51785598Y-15763611D01*
X51824835Y-15765908D01*
X51863252Y-15775907D01*
X51909230Y-15796348D01*
X51946756Y-15816322D01*
X51986601Y-15841258D01*
X52033981Y-15875359D01*
X52084500Y-15914884D01*
X52133761Y-15956091D01*
X52177370Y-15995240D01*
X52210930Y-16028589D01*
X52230047Y-16052399D01*
X52232820Y-16059786D01*
X52240498Y-16075403D01*
X52259533Y-16101463D01*
X52265384Y-16108581D01*
X52286512Y-16137646D01*
X52297505Y-16160494D01*
X52297948Y-16163727D01*
X52306927Y-16181577D01*
X52329719Y-16208228D01*
X52344519Y-16222551D01*
X52364659Y-16242339D01*
X52382285Y-16264159D01*
X52399216Y-16291761D01*
X52417269Y-16328894D01*
X52438261Y-16379307D01*
X52464010Y-16446751D01*
X52496334Y-16534975D01*
X52497445Y-16538038D01*
X52523611Y-16609009D01*
X52550837Y-16680821D01*
X52575817Y-16744863D01*
X52594436Y-16790622D01*
X52644670Y-16919928D01*
X52683989Y-17043074D01*
X52711703Y-17156781D01*
X52727120Y-17257770D01*
X52729550Y-17342760D01*
X52722007Y-17395744D01*
X52719871Y-17424928D01*
X52722248Y-17469833D01*
X52728446Y-17519487D01*
X52735873Y-17567777D01*
X52741345Y-17607419D01*
X52743699Y-17629977D01*
X52743706Y-17630205D01*
X52926327Y-17630205D01*
X52945082Y-17541282D01*
X52958071Y-17467121D01*
X52956253Y-17429357D01*
X52937280Y-17403230D01*
X52917999Y-17375758D01*
X52910464Y-17334773D01*
X52910077Y-17318827D01*
X52906903Y-17258824D01*
X52898474Y-17185703D01*
X52886233Y-17107999D01*
X52871620Y-17034248D01*
X52856079Y-16972986D01*
X52847138Y-16946359D01*
X52831733Y-16900639D01*
X52815052Y-16841527D01*
X52800527Y-16781252D01*
X52799621Y-16777026D01*
X52779586Y-16686082D01*
X52762602Y-16617662D01*
X52747559Y-16568571D01*
X52733347Y-16535614D01*
X52718859Y-16515598D01*
X52705646Y-16506441D01*
X52678086Y-16480293D01*
X52660982Y-16439470D01*
X52648561Y-16394522D01*
X52636668Y-16352589D01*
X52634960Y-16346708D01*
X52621048Y-16315681D01*
X52596276Y-16274130D01*
X52569618Y-16235990D01*
X52537169Y-16191572D01*
X52497585Y-16135248D01*
X52457850Y-16077005D01*
X52445468Y-16058421D01*
X52409775Y-16007981D01*
X52369653Y-15956872D01*
X52329006Y-15909440D01*
X52291738Y-15870034D01*
X52261754Y-15842998D01*
X52242959Y-15832680D01*
X52242680Y-15832674D01*
X52229692Y-15824531D01*
X52201474Y-15802365D01*
X52162177Y-15769555D01*
X52115956Y-15729485D01*
X52115780Y-15729329D01*
X51998558Y-15625992D01*
X51872213Y-15632291D01*
G04 #@! TO.C,J4*
D13*
X53927333Y-17994380D02*
X53927333Y-18708666D01*
X53974952Y-18851523D01*
X54070190Y-18946761D01*
X54213047Y-18994380D01*
X54308285Y-18994380D01*
X53022571Y-18327714D02*
X53022571Y-18994380D01*
X53260666Y-17946761D02*
X53498761Y-18661047D01*
X52879714Y-18661047D01*
G04 #@! TO.C,J2*
X5159333Y-17232380D02*
X5159333Y-17946666D01*
X5206952Y-18089523D01*
X5302190Y-18184761D01*
X5445047Y-18232380D01*
X5540285Y-18232380D01*
X4730761Y-17327619D02*
X4683142Y-17280000D01*
X4587904Y-17232380D01*
X4349809Y-17232380D01*
X4254571Y-17280000D01*
X4206952Y-17327619D01*
X4159333Y-17422857D01*
X4159333Y-17518095D01*
X4206952Y-17660952D01*
X4778380Y-18232380D01*
X4159333Y-18232380D01*
G04 #@! TO.C,J3*
X5159333Y-40092380D02*
X5159333Y-40806666D01*
X5206952Y-40949523D01*
X5302190Y-41044761D01*
X5445047Y-41092380D01*
X5540285Y-41092380D01*
X4778380Y-40092380D02*
X4159333Y-40092380D01*
X4492666Y-40473333D01*
X4349809Y-40473333D01*
X4254571Y-40520952D01*
X4206952Y-40568571D01*
X4159333Y-40663809D01*
X4159333Y-40901904D01*
X4206952Y-40997142D01*
X4254571Y-41044761D01*
X4349809Y-41092380D01*
X4635523Y-41092380D01*
X4730761Y-41044761D01*
X4778380Y-40997142D01*
G04 #@! TO.C,J5*
X20907333Y-2627380D02*
X20907333Y-3341666D01*
X20954952Y-3484523D01*
X21050190Y-3579761D01*
X21193047Y-3627380D01*
X21288285Y-3627380D01*
X19954952Y-2627380D02*
X20431142Y-2627380D01*
X20478761Y-3103571D01*
X20431142Y-3055952D01*
X20335904Y-3008333D01*
X20097809Y-3008333D01*
X20002571Y-3055952D01*
X19954952Y-3103571D01*
X19907333Y-3198809D01*
X19907333Y-3436904D01*
X19954952Y-3532142D01*
X20002571Y-3579761D01*
X20097809Y-3627380D01*
X20335904Y-3627380D01*
X20431142Y-3579761D01*
X20478761Y-3532142D01*
G04 #@! TO.C,J6*
X46053333Y-1992380D02*
X46053333Y-2706666D01*
X46100952Y-2849523D01*
X46196190Y-2944761D01*
X46339047Y-2992380D01*
X46434285Y-2992380D01*
X45148571Y-1992380D02*
X45339047Y-1992380D01*
X45434285Y-2040000D01*
X45481904Y-2087619D01*
X45577142Y-2230476D01*
X45624761Y-2420952D01*
X45624761Y-2801904D01*
X45577142Y-2897142D01*
X45529523Y-2944761D01*
X45434285Y-2992380D01*
X45243809Y-2992380D01*
X45148571Y-2944761D01*
X45100952Y-2897142D01*
X45053333Y-2801904D01*
X45053333Y-2563809D01*
X45100952Y-2468571D01*
X45148571Y-2420952D01*
X45243809Y-2373333D01*
X45434285Y-2373333D01*
X45529523Y-2420952D01*
X45577142Y-2468571D01*
X45624761Y-2563809D01*
G04 #@! TD*
M02*
