G04 #@! TF.GenerationSoftware,KiCad,Pcbnew,(5.0.2)-1*
G04 #@! TF.CreationDate,2020-01-13T13:35:34-06:00*
G04 #@! TF.ProjectId,TM4C129-Breakout_Hardware,544d3443-3132-4392-9d42-7265616b6f75,rev?*
G04 #@! TF.SameCoordinates,Original*
G04 #@! TF.FileFunction,Legend,Top*
G04 #@! TF.FilePolarity,Positive*
%FSLAX46Y46*%
G04 Gerber Fmt 4.6, Leading zero omitted, Abs format (unit mm)*
G04 Created by KiCad (PCBNEW (5.0.2)-1) date 1/13/2020 1:35:34 PM*
%MOMM*%
%LPD*%
G01*
G04 APERTURE LIST*
%ADD10C,0.300000*%
%ADD11C,0.150000*%
%ADD12C,0.120000*%
G04 APERTURE END LIST*
D10*
X31325714Y-4107571D02*
X31325714Y-2607571D01*
X31897142Y-2607571D01*
X32040000Y-2679000D01*
X32111428Y-2750428D01*
X32182857Y-2893285D01*
X32182857Y-3107571D01*
X32111428Y-3250428D01*
X32040000Y-3321857D01*
X31897142Y-3393285D01*
X31325714Y-3393285D01*
X33040000Y-4107571D02*
X32897142Y-4036142D01*
X32825714Y-3964714D01*
X32754285Y-3821857D01*
X32754285Y-3393285D01*
X32825714Y-3250428D01*
X32897142Y-3179000D01*
X33040000Y-3107571D01*
X33254285Y-3107571D01*
X33397142Y-3179000D01*
X33468571Y-3250428D01*
X33540000Y-3393285D01*
X33540000Y-3821857D01*
X33468571Y-3964714D01*
X33397142Y-4036142D01*
X33254285Y-4107571D01*
X33040000Y-4107571D01*
X34040000Y-3107571D02*
X34325714Y-4107571D01*
X34611428Y-3393285D01*
X34897142Y-4107571D01*
X35182857Y-3107571D01*
X36325714Y-4036142D02*
X36182857Y-4107571D01*
X35897142Y-4107571D01*
X35754285Y-4036142D01*
X35682857Y-3893285D01*
X35682857Y-3321857D01*
X35754285Y-3179000D01*
X35897142Y-3107571D01*
X36182857Y-3107571D01*
X36325714Y-3179000D01*
X36397142Y-3321857D01*
X36397142Y-3464714D01*
X35682857Y-3607571D01*
X37040000Y-4107571D02*
X37040000Y-3107571D01*
X37040000Y-3393285D02*
X37111428Y-3250428D01*
X37182857Y-3179000D01*
X37325714Y-3107571D01*
X37468571Y-3107571D01*
X44370857Y-12616571D02*
X43870857Y-11902285D01*
X43513714Y-12616571D02*
X43513714Y-11116571D01*
X44085142Y-11116571D01*
X44228000Y-11188000D01*
X44299428Y-11259428D01*
X44370857Y-11402285D01*
X44370857Y-11616571D01*
X44299428Y-11759428D01*
X44228000Y-11830857D01*
X44085142Y-11902285D01*
X43513714Y-11902285D01*
X45585142Y-12545142D02*
X45442285Y-12616571D01*
X45156571Y-12616571D01*
X45013714Y-12545142D01*
X44942285Y-12402285D01*
X44942285Y-11830857D01*
X45013714Y-11688000D01*
X45156571Y-11616571D01*
X45442285Y-11616571D01*
X45585142Y-11688000D01*
X45656571Y-11830857D01*
X45656571Y-11973714D01*
X44942285Y-12116571D01*
X46228000Y-12545142D02*
X46370857Y-12616571D01*
X46656571Y-12616571D01*
X46799428Y-12545142D01*
X46870857Y-12402285D01*
X46870857Y-12330857D01*
X46799428Y-12188000D01*
X46656571Y-12116571D01*
X46442285Y-12116571D01*
X46299428Y-12045142D01*
X46228000Y-11902285D01*
X46228000Y-11830857D01*
X46299428Y-11688000D01*
X46442285Y-11616571D01*
X46656571Y-11616571D01*
X46799428Y-11688000D01*
X48085142Y-12545142D02*
X47942285Y-12616571D01*
X47656571Y-12616571D01*
X47513714Y-12545142D01*
X47442285Y-12402285D01*
X47442285Y-11830857D01*
X47513714Y-11688000D01*
X47656571Y-11616571D01*
X47942285Y-11616571D01*
X48085142Y-11688000D01*
X48156571Y-11830857D01*
X48156571Y-11973714D01*
X47442285Y-12116571D01*
X48585142Y-11616571D02*
X49156571Y-11616571D01*
X48799428Y-11116571D02*
X48799428Y-12402285D01*
X48870857Y-12545142D01*
X49013714Y-12616571D01*
X49156571Y-12616571D01*
X-142857Y-21252571D02*
X-642857Y-20538285D01*
X-1000000Y-21252571D02*
X-1000000Y-19752571D01*
X-428571Y-19752571D01*
X-285714Y-19824000D01*
X-214285Y-19895428D01*
X-142857Y-20038285D01*
X-142857Y-20252571D01*
X-214285Y-20395428D01*
X-285714Y-20466857D01*
X-428571Y-20538285D01*
X-1000000Y-20538285D01*
X357142Y-21252571D02*
X1142857Y-20252571D01*
X357142Y-20252571D02*
X1142857Y-21252571D01*
X1504285Y-19752571D02*
X2361428Y-19752571D01*
X1932857Y-21252571D02*
X1932857Y-19752571D01*
X2718571Y-21252571D02*
X3504285Y-20252571D01*
X2718571Y-20252571D02*
X3504285Y-21252571D01*
X4405357Y1083500D02*
X5119642Y1083500D01*
X4262500Y654928D02*
X4762500Y2154928D01*
X5262500Y654928D01*
X13617000Y1964428D02*
X13617000Y893000D01*
X13545571Y678714D01*
X13402714Y535857D01*
X13188428Y464428D01*
X13045571Y464428D01*
X14117000Y1964428D02*
X14974142Y1964428D01*
X14545571Y464428D02*
X14545571Y1964428D01*
X15402714Y893000D02*
X16117000Y893000D01*
X15259857Y464428D02*
X15759857Y1964428D01*
X16259857Y464428D01*
X17545571Y1893000D02*
X17402714Y1964428D01*
X17188428Y1964428D01*
X16974142Y1893000D01*
X16831285Y1750142D01*
X16759857Y1607285D01*
X16688428Y1321571D01*
X16688428Y1107285D01*
X16759857Y821571D01*
X16831285Y678714D01*
X16974142Y535857D01*
X17188428Y464428D01*
X17331285Y464428D01*
X17545571Y535857D01*
X17617000Y607285D01*
X17617000Y1107285D01*
X17331285Y1107285D01*
X20760714Y-5631571D02*
X20760714Y-4131571D01*
X21403571Y-4274428D02*
X21475000Y-4203000D01*
X21617857Y-4131571D01*
X21975000Y-4131571D01*
X22117857Y-4203000D01*
X22189285Y-4274428D01*
X22260714Y-4417285D01*
X22260714Y-4560142D01*
X22189285Y-4774428D01*
X21332142Y-5631571D01*
X22260714Y-5631571D01*
X23760714Y-5488714D02*
X23689285Y-5560142D01*
X23475000Y-5631571D01*
X23332142Y-5631571D01*
X23117857Y-5560142D01*
X22975000Y-5417285D01*
X22903571Y-5274428D01*
X22832142Y-4988714D01*
X22832142Y-4774428D01*
X22903571Y-4488714D01*
X22975000Y-4345857D01*
X23117857Y-4203000D01*
X23332142Y-4131571D01*
X23475000Y-4131571D01*
X23689285Y-4203000D01*
X23760714Y-4274428D01*
X40747142Y-9627857D02*
X40747142Y-8485000D01*
X41318571Y-9056428D02*
X40175714Y-9056428D01*
X39818571Y-7913571D02*
X39818571Y-6985000D01*
X40390000Y-7485000D01*
X40390000Y-7270714D01*
X40461428Y-7127857D01*
X40532857Y-7056428D01*
X40675714Y-6985000D01*
X41032857Y-6985000D01*
X41175714Y-7056428D01*
X41247142Y-7127857D01*
X41318571Y-7270714D01*
X41318571Y-7699285D01*
X41247142Y-7842142D01*
X41175714Y-7913571D01*
X39818571Y-6556428D02*
X41318571Y-6056428D01*
X39818571Y-5556428D01*
X39818571Y-5199285D02*
X39818571Y-4270714D01*
X40390000Y-4770714D01*
X40390000Y-4556428D01*
X40461428Y-4413571D01*
X40532857Y-4342142D01*
X40675714Y-4270714D01*
X41032857Y-4270714D01*
X41175714Y-4342142D01*
X41247142Y-4413571D01*
X41318571Y-4556428D01*
X41318571Y-4985000D01*
X41247142Y-5127857D01*
X41175714Y-5199285D01*
X42430000Y-7492857D02*
X42358571Y-7635714D01*
X42358571Y-7850000D01*
X42430000Y-8064285D01*
X42572857Y-8207142D01*
X42715714Y-8278571D01*
X43001428Y-8350000D01*
X43215714Y-8350000D01*
X43501428Y-8278571D01*
X43644285Y-8207142D01*
X43787142Y-8064285D01*
X43858571Y-7850000D01*
X43858571Y-7707142D01*
X43787142Y-7492857D01*
X43715714Y-7421428D01*
X43215714Y-7421428D01*
X43215714Y-7707142D01*
X43858571Y-6778571D02*
X42358571Y-6778571D01*
X43858571Y-5921428D01*
X42358571Y-5921428D01*
X43858571Y-5207142D02*
X42358571Y-5207142D01*
X42358571Y-4850000D01*
X42430000Y-4635714D01*
X42572857Y-4492857D01*
X42715714Y-4421428D01*
X43001428Y-4350000D01*
X43215714Y-4350000D01*
X43501428Y-4421428D01*
X43644285Y-4492857D01*
X43787142Y-4635714D01*
X43858571Y-4850000D01*
X43858571Y-5207142D01*
X59896428Y-448571D02*
X60753571Y-448571D01*
X60325000Y-1948571D02*
X60325000Y-448571D01*
X49962857Y-2075571D02*
X49962857Y-575571D01*
X50534285Y-575571D01*
X50677142Y-647000D01*
X50748571Y-718428D01*
X50820000Y-861285D01*
X50820000Y-1075571D01*
X50748571Y-1218428D01*
X50677142Y-1289857D01*
X50534285Y-1361285D01*
X49962857Y-1361285D01*
X51320000Y-575571D02*
X51677142Y-2075571D01*
X51962857Y-1004142D01*
X52248571Y-2075571D01*
X52605714Y-575571D01*
X53177142Y-2075571D02*
X53177142Y-575571D01*
X53677142Y-1647000D01*
X54177142Y-575571D01*
X54177142Y-2075571D01*
D11*
G04 #@! TO.C,U1*
X29260800Y-31369000D02*
X37592000Y-31369000D01*
X28498800Y-44069000D02*
X28498800Y-32131000D01*
X37592000Y-44069000D02*
X37592000Y-31369000D01*
X28498800Y-44069000D02*
X37592000Y-44069000D01*
X28498800Y-32131000D02*
X29260800Y-31369000D01*
G04 #@! TO.C,REF\002A\002A*
X61168283Y-40640000D02*
G75*
G03X61168283Y-40640000I-4018283J0D01*
G01*
D12*
G04 #@! TO.C,R15*
X33812267Y-18036000D02*
X33469733Y-18036000D01*
X33812267Y-17016000D02*
X33469733Y-17016000D01*
G04 #@! TO.C,C13*
X33812267Y-16258000D02*
X33469733Y-16258000D01*
X33812267Y-15238000D02*
X33469733Y-15238000D01*
D11*
G04 #@! TO.C,Y2*
X36893500Y-18605500D02*
X33083500Y-18605500D01*
X36893500Y-18605500D02*
X36893500Y-26606500D01*
X33083500Y-18605500D02*
X33083500Y-26606500D01*
X36893500Y-26606500D02*
X33083500Y-26606500D01*
D12*
G04 #@! TO.C,R1*
X17241733Y-40134000D02*
X17584267Y-40134000D01*
X17241733Y-39114000D02*
X17584267Y-39114000D01*
G04 #@! TO.C,R2*
X17241733Y-41146000D02*
X17584267Y-41146000D01*
X17241733Y-42166000D02*
X17584267Y-42166000D01*
G04 #@! TO.C,C2*
X13774267Y-42166000D02*
X13431733Y-42166000D01*
X13774267Y-41146000D02*
X13431733Y-41146000D01*
G04 #@! TO.C,C1*
X13774267Y-39114000D02*
X13431733Y-39114000D01*
X13774267Y-40134000D02*
X13431733Y-40134000D01*
G04 #@! TO.C,R9*
X42641733Y-25910000D02*
X42984267Y-25910000D01*
X42641733Y-24890000D02*
X42984267Y-24890000D01*
G04 #@! TO.C,J1*
X54088000Y-19134000D02*
X53588000Y-19634000D01*
X53088000Y-19134000D02*
X54088000Y-19134000D01*
X53588000Y-19634000D02*
X53088000Y-19134000D01*
X45273000Y-36514000D02*
X50948000Y-36514000D01*
X45273000Y-19874000D02*
X50948000Y-19874000D01*
X45273000Y-19874000D02*
X45273000Y-36514000D01*
X61153000Y-36514000D02*
X53448000Y-36514000D01*
X61153000Y-19874000D02*
X53448000Y-19874000D01*
X61153000Y-19874000D02*
X61153000Y-36514000D01*
G04 #@! TO.C,R7*
X42984267Y-23878000D02*
X42641733Y-23878000D01*
X42984267Y-22858000D02*
X42641733Y-22858000D01*
G04 #@! TO.C,R8*
X42641733Y-29974000D02*
X42984267Y-29974000D01*
X42641733Y-28954000D02*
X42984267Y-28954000D01*
G04 #@! TO.C,R16*
X42984267Y-32006000D02*
X42641733Y-32006000D01*
X42984267Y-30986000D02*
X42641733Y-30986000D01*
G04 #@! TO.C,R10*
X42641733Y-26922000D02*
X42984267Y-26922000D01*
X42641733Y-27942000D02*
X42984267Y-27942000D01*
G04 #@! TO.C,R13*
X46480000Y-39908267D02*
X46480000Y-39565733D01*
X47500000Y-39908267D02*
X47500000Y-39565733D01*
G04 #@! TO.C,R17*
X42984267Y-20826000D02*
X42641733Y-20826000D01*
X42984267Y-21846000D02*
X42641733Y-21846000D01*
G04 #@! TO.C,C8*
X43944000Y-39565733D02*
X43944000Y-39908267D01*
X42924000Y-39565733D02*
X42924000Y-39908267D01*
G04 #@! TO.C,C10*
X45722000Y-39908267D02*
X45722000Y-39565733D01*
X44702000Y-39908267D02*
X44702000Y-39565733D01*
D11*
G04 #@! TO.C,U2*
X8973728Y-22098000D02*
X9327282Y-22451553D01*
X19050000Y-12021728D02*
X19463657Y-12435386D01*
X29126272Y-22098000D02*
X28712614Y-21684343D01*
X19050000Y-32174272D02*
X18636343Y-31760614D01*
X8973728Y-22098000D02*
X9387386Y-21684343D01*
X19050000Y-32174272D02*
X19463657Y-31760614D01*
X29126272Y-22098000D02*
X28712614Y-22511657D01*
X19050000Y-12021728D02*
X18636343Y-12435386D01*
X9327282Y-22451553D02*
X8567142Y-23211693D01*
G04 #@! TO.C,Conn1*
X12674600Y-76200D02*
X12674600Y1193800D01*
X12674600Y1193800D02*
X10134600Y1193800D01*
X10134600Y1193800D02*
X10134600Y-76200D01*
X17907000Y-5207000D02*
X17907000Y-127000D01*
X17907000Y-127000D02*
X5207000Y-127000D01*
X17857000Y-5227000D02*
X5207000Y-5227000D01*
X5207000Y-127000D02*
X5207000Y-5227000D01*
G04 #@! TO.C,Y1*
X27761800Y-6161400D02*
X24561800Y-6161400D01*
X24561800Y-8661400D02*
X24561800Y-6161400D01*
X27762200Y-8661400D02*
X24562200Y-8661400D01*
X27762200Y-8661400D02*
X27762200Y-6161400D01*
D12*
G04 #@! TO.C,C3*
X21394267Y-39114000D02*
X21051733Y-39114000D01*
X21394267Y-40134000D02*
X21051733Y-40134000D01*
G04 #@! TO.C,C4*
X21394267Y-42166000D02*
X21051733Y-42166000D01*
X21394267Y-41146000D02*
X21051733Y-41146000D01*
G04 #@! TO.C,C5*
X39368000Y-16794267D02*
X39368000Y-16451733D01*
X40388000Y-16794267D02*
X40388000Y-16451733D01*
G04 #@! TO.C,C6*
X26333267Y-9396000D02*
X25990733Y-9396000D01*
X26333267Y-10416000D02*
X25990733Y-10416000D01*
G04 #@! TO.C,C7*
X39146267Y-21846000D02*
X38803733Y-21846000D01*
X39146267Y-20826000D02*
X38803733Y-20826000D01*
G04 #@! TO.C,C9*
X39174267Y-22604000D02*
X38831733Y-22604000D01*
X39174267Y-23624000D02*
X38831733Y-23624000D01*
G04 #@! TO.C,C11*
X12288238Y-11801011D02*
X12530447Y-11558802D01*
X11566989Y-11079762D02*
X11809198Y-10837553D01*
G04 #@! TO.C,C12*
X12836989Y-12349762D02*
X13079198Y-12107553D01*
X13558238Y-13071011D02*
X13800447Y-12828802D01*
G04 #@! TO.C,C14*
X25990732Y-11174000D02*
X26333268Y-11174000D01*
X25990732Y-12194000D02*
X26333268Y-12194000D01*
G04 #@! TO.C,C15*
X16594447Y-33145198D02*
X16352238Y-32902989D01*
X15873198Y-33866447D02*
X15630989Y-33624238D01*
G04 #@! TO.C,C16*
X11018238Y-10531011D02*
X11260447Y-10288802D01*
X10296989Y-9809762D02*
X10539198Y-9567553D01*
G04 #@! TO.C,C17*
X18540000Y-9710267D02*
X18540000Y-9367733D01*
X19560000Y-9710267D02*
X19560000Y-9367733D01*
G04 #@! TO.C,C18*
X30929733Y-21334000D02*
X31272267Y-21334000D01*
X30929733Y-22354000D02*
X31272267Y-22354000D01*
G04 #@! TO.C,R3*
X24861733Y-40134000D02*
X25204267Y-40134000D01*
X24861733Y-39114000D02*
X25204267Y-39114000D01*
G04 #@! TO.C,R4*
X24861733Y-41146000D02*
X25204267Y-41146000D01*
X24861733Y-42166000D02*
X25204267Y-42166000D01*
G04 #@! TO.C,R5*
X38803733Y-13460000D02*
X39146267Y-13460000D01*
X38803733Y-14480000D02*
X39146267Y-14480000D01*
G04 #@! TO.C,R6*
X38610000Y-16451733D02*
X38610000Y-16794267D01*
X37590000Y-16451733D02*
X37590000Y-16794267D01*
G04 #@! TO.C,R11*
X25990733Y-5336000D02*
X26333267Y-5336000D01*
X25990733Y-4316000D02*
X26333267Y-4316000D01*
G04 #@! TO.C,R12*
X33530000Y-28986267D02*
X33530000Y-28643733D01*
X32510000Y-28986267D02*
X32510000Y-28643733D01*
G04 #@! TO.C,R14*
X34288000Y-28986267D02*
X34288000Y-28643733D01*
X35308000Y-28986267D02*
X35308000Y-28643733D01*
G04 #@! TO.C,SW1*
X48896000Y-14440000D02*
X48896000Y-16500000D01*
X44156000Y-14440000D02*
X44156000Y-16500000D01*
X44156000Y-13100000D02*
X44156000Y-13500000D01*
X48896000Y-13100000D02*
X44156000Y-13100000D01*
X48896000Y-13100000D02*
X48896000Y-13500000D01*
X44156000Y-17840000D02*
X44156000Y-17440000D01*
X48896000Y-17840000D02*
X48896000Y-17440000D01*
X48896000Y-17840000D02*
X44156000Y-17840000D01*
G04 #@! TO.C,C19*
X28446000Y-7650267D02*
X28446000Y-7307733D01*
X29466000Y-7650267D02*
X29466000Y-7307733D01*
G04 #@! TO.C,D1*
X33199000Y-4345000D02*
X30739000Y-4345000D01*
X30739000Y-4345000D02*
X30739000Y-5815000D01*
X30739000Y-5815000D02*
X33199000Y-5815000D01*
G04 #@! TO.C,R18*
X36352267Y-5590000D02*
X36009733Y-5590000D01*
X36352267Y-4570000D02*
X36009733Y-4570000D01*
G04 #@! TO.C,U1*
D11*
X37846095Y-42886380D02*
X37846095Y-43695904D01*
X37893714Y-43791142D01*
X37941333Y-43838761D01*
X38036571Y-43886380D01*
X38227047Y-43886380D01*
X38322285Y-43838761D01*
X38369904Y-43791142D01*
X38417523Y-43695904D01*
X38417523Y-42886380D01*
X39417523Y-43886380D02*
X38846095Y-43886380D01*
X39131809Y-43886380D02*
X39131809Y-42886380D01*
X39036571Y-43029238D01*
X38941333Y-43124476D01*
X38846095Y-43172095D01*
G04 #@! TO.C,R15*
X29837142Y-18105380D02*
X29503809Y-17629190D01*
X29265714Y-18105380D02*
X29265714Y-17105380D01*
X29646666Y-17105380D01*
X29741904Y-17153000D01*
X29789523Y-17200619D01*
X29837142Y-17295857D01*
X29837142Y-17438714D01*
X29789523Y-17533952D01*
X29741904Y-17581571D01*
X29646666Y-17629190D01*
X29265714Y-17629190D01*
X30789523Y-18105380D02*
X30218095Y-18105380D01*
X30503809Y-18105380D02*
X30503809Y-17105380D01*
X30408571Y-17248238D01*
X30313333Y-17343476D01*
X30218095Y-17391095D01*
X31694285Y-17105380D02*
X31218095Y-17105380D01*
X31170476Y-17581571D01*
X31218095Y-17533952D01*
X31313333Y-17486333D01*
X31551428Y-17486333D01*
X31646666Y-17533952D01*
X31694285Y-17581571D01*
X31741904Y-17676809D01*
X31741904Y-17914904D01*
X31694285Y-18010142D01*
X31646666Y-18057761D01*
X31551428Y-18105380D01*
X31313333Y-18105380D01*
X31218095Y-18057761D01*
X31170476Y-18010142D01*
G04 #@! TO.C,C13*
X29837142Y-16105142D02*
X29789523Y-16152761D01*
X29646666Y-16200380D01*
X29551428Y-16200380D01*
X29408571Y-16152761D01*
X29313333Y-16057523D01*
X29265714Y-15962285D01*
X29218095Y-15771809D01*
X29218095Y-15628952D01*
X29265714Y-15438476D01*
X29313333Y-15343238D01*
X29408571Y-15248000D01*
X29551428Y-15200380D01*
X29646666Y-15200380D01*
X29789523Y-15248000D01*
X29837142Y-15295619D01*
X30789523Y-16200380D02*
X30218095Y-16200380D01*
X30503809Y-16200380D02*
X30503809Y-15200380D01*
X30408571Y-15343238D01*
X30313333Y-15438476D01*
X30218095Y-15486095D01*
X31122857Y-15200380D02*
X31741904Y-15200380D01*
X31408571Y-15581333D01*
X31551428Y-15581333D01*
X31646666Y-15628952D01*
X31694285Y-15676571D01*
X31741904Y-15771809D01*
X31741904Y-16009904D01*
X31694285Y-16105142D01*
X31646666Y-16152761D01*
X31551428Y-16200380D01*
X31265714Y-16200380D01*
X31170476Y-16152761D01*
X31122857Y-16105142D01*
G04 #@! TO.C,Y2*
X31019809Y-25884190D02*
X31019809Y-26360380D01*
X30686476Y-25360380D02*
X31019809Y-25884190D01*
X31353142Y-25360380D01*
X31638857Y-25455619D02*
X31686476Y-25408000D01*
X31781714Y-25360380D01*
X32019809Y-25360380D01*
X32115047Y-25408000D01*
X32162666Y-25455619D01*
X32210285Y-25550857D01*
X32210285Y-25646095D01*
X32162666Y-25788952D01*
X31591238Y-26360380D01*
X32210285Y-26360380D01*
G04 #@! TO.C,R1*
X17246333Y-38646380D02*
X16913000Y-38170190D01*
X16674904Y-38646380D02*
X16674904Y-37646380D01*
X17055857Y-37646380D01*
X17151095Y-37694000D01*
X17198714Y-37741619D01*
X17246333Y-37836857D01*
X17246333Y-37979714D01*
X17198714Y-38074952D01*
X17151095Y-38122571D01*
X17055857Y-38170190D01*
X16674904Y-38170190D01*
X18198714Y-38646380D02*
X17627285Y-38646380D01*
X17913000Y-38646380D02*
X17913000Y-37646380D01*
X17817761Y-37789238D01*
X17722523Y-37884476D01*
X17627285Y-37932095D01*
G04 #@! TO.C,R2*
X17246333Y-43632380D02*
X16913000Y-43156190D01*
X16674904Y-43632380D02*
X16674904Y-42632380D01*
X17055857Y-42632380D01*
X17151095Y-42680000D01*
X17198714Y-42727619D01*
X17246333Y-42822857D01*
X17246333Y-42965714D01*
X17198714Y-43060952D01*
X17151095Y-43108571D01*
X17055857Y-43156190D01*
X16674904Y-43156190D01*
X17627285Y-42727619D02*
X17674904Y-42680000D01*
X17770142Y-42632380D01*
X18008238Y-42632380D01*
X18103476Y-42680000D01*
X18151095Y-42727619D01*
X18198714Y-42822857D01*
X18198714Y-42918095D01*
X18151095Y-43060952D01*
X17579666Y-43632380D01*
X18198714Y-43632380D01*
G04 #@! TO.C,C2*
X13436333Y-43443142D02*
X13388714Y-43490761D01*
X13245857Y-43538380D01*
X13150619Y-43538380D01*
X13007761Y-43490761D01*
X12912523Y-43395523D01*
X12864904Y-43300285D01*
X12817285Y-43109809D01*
X12817285Y-42966952D01*
X12864904Y-42776476D01*
X12912523Y-42681238D01*
X13007761Y-42586000D01*
X13150619Y-42538380D01*
X13245857Y-42538380D01*
X13388714Y-42586000D01*
X13436333Y-42633619D01*
X13817285Y-42633619D02*
X13864904Y-42586000D01*
X13960142Y-42538380D01*
X14198238Y-42538380D01*
X14293476Y-42586000D01*
X14341095Y-42633619D01*
X14388714Y-42728857D01*
X14388714Y-42824095D01*
X14341095Y-42966952D01*
X13769666Y-43538380D01*
X14388714Y-43538380D01*
G04 #@! TO.C,C1*
X13436333Y-38457142D02*
X13388714Y-38504761D01*
X13245857Y-38552380D01*
X13150619Y-38552380D01*
X13007761Y-38504761D01*
X12912523Y-38409523D01*
X12864904Y-38314285D01*
X12817285Y-38123809D01*
X12817285Y-37980952D01*
X12864904Y-37790476D01*
X12912523Y-37695238D01*
X13007761Y-37600000D01*
X13150619Y-37552380D01*
X13245857Y-37552380D01*
X13388714Y-37600000D01*
X13436333Y-37647619D01*
X14388714Y-38552380D02*
X13817285Y-38552380D01*
X14103000Y-38552380D02*
X14103000Y-37552380D01*
X14007761Y-37695238D01*
X13912523Y-37790476D01*
X13817285Y-37838095D01*
G04 #@! TO.C,R9*
X40219333Y-26360380D02*
X39886000Y-25884190D01*
X39647904Y-26360380D02*
X39647904Y-25360380D01*
X40028857Y-25360380D01*
X40124095Y-25408000D01*
X40171714Y-25455619D01*
X40219333Y-25550857D01*
X40219333Y-25693714D01*
X40171714Y-25788952D01*
X40124095Y-25836571D01*
X40028857Y-25884190D01*
X39647904Y-25884190D01*
X40695523Y-26360380D02*
X40886000Y-26360380D01*
X40981238Y-26312761D01*
X41028857Y-26265142D01*
X41124095Y-26122285D01*
X41171714Y-25931809D01*
X41171714Y-25550857D01*
X41124095Y-25455619D01*
X41076476Y-25408000D01*
X40981238Y-25360380D01*
X40790761Y-25360380D01*
X40695523Y-25408000D01*
X40647904Y-25455619D01*
X40600285Y-25550857D01*
X40600285Y-25788952D01*
X40647904Y-25884190D01*
X40695523Y-25931809D01*
X40790761Y-25979428D01*
X40981238Y-25979428D01*
X41076476Y-25931809D01*
X41124095Y-25884190D01*
X41171714Y-25788952D01*
G04 #@! TO.C,J1*
X45640666Y-36790380D02*
X45640666Y-37504666D01*
X45593047Y-37647523D01*
X45497809Y-37742761D01*
X45354952Y-37790380D01*
X45259714Y-37790380D01*
X46640666Y-37790380D02*
X46069238Y-37790380D01*
X46354952Y-37790380D02*
X46354952Y-36790380D01*
X46259714Y-36933238D01*
X46164476Y-37028476D01*
X46069238Y-37076095D01*
G04 #@! TO.C,R7*
X40473333Y-24836380D02*
X40140000Y-24360190D01*
X39901904Y-24836380D02*
X39901904Y-23836380D01*
X40282857Y-23836380D01*
X40378095Y-23884000D01*
X40425714Y-23931619D01*
X40473333Y-24026857D01*
X40473333Y-24169714D01*
X40425714Y-24264952D01*
X40378095Y-24312571D01*
X40282857Y-24360190D01*
X39901904Y-24360190D01*
X40806666Y-23836380D02*
X41473333Y-23836380D01*
X41044761Y-24836380D01*
G04 #@! TO.C,R8*
X39965333Y-29916380D02*
X39632000Y-29440190D01*
X39393904Y-29916380D02*
X39393904Y-28916380D01*
X39774857Y-28916380D01*
X39870095Y-28964000D01*
X39917714Y-29011619D01*
X39965333Y-29106857D01*
X39965333Y-29249714D01*
X39917714Y-29344952D01*
X39870095Y-29392571D01*
X39774857Y-29440190D01*
X39393904Y-29440190D01*
X40536761Y-29344952D02*
X40441523Y-29297333D01*
X40393904Y-29249714D01*
X40346285Y-29154476D01*
X40346285Y-29106857D01*
X40393904Y-29011619D01*
X40441523Y-28964000D01*
X40536761Y-28916380D01*
X40727238Y-28916380D01*
X40822476Y-28964000D01*
X40870095Y-29011619D01*
X40917714Y-29106857D01*
X40917714Y-29154476D01*
X40870095Y-29249714D01*
X40822476Y-29297333D01*
X40727238Y-29344952D01*
X40536761Y-29344952D01*
X40441523Y-29392571D01*
X40393904Y-29440190D01*
X40346285Y-29535428D01*
X40346285Y-29725904D01*
X40393904Y-29821142D01*
X40441523Y-29868761D01*
X40536761Y-29916380D01*
X40727238Y-29916380D01*
X40822476Y-29868761D01*
X40870095Y-29821142D01*
X40917714Y-29725904D01*
X40917714Y-29535428D01*
X40870095Y-29440190D01*
X40822476Y-29392571D01*
X40727238Y-29344952D01*
G04 #@! TO.C,R16*
X39235142Y-32202380D02*
X38901809Y-31726190D01*
X38663714Y-32202380D02*
X38663714Y-31202380D01*
X39044666Y-31202380D01*
X39139904Y-31250000D01*
X39187523Y-31297619D01*
X39235142Y-31392857D01*
X39235142Y-31535714D01*
X39187523Y-31630952D01*
X39139904Y-31678571D01*
X39044666Y-31726190D01*
X38663714Y-31726190D01*
X40187523Y-32202380D02*
X39616095Y-32202380D01*
X39901809Y-32202380D02*
X39901809Y-31202380D01*
X39806571Y-31345238D01*
X39711333Y-31440476D01*
X39616095Y-31488095D01*
X41044666Y-31202380D02*
X40854190Y-31202380D01*
X40758952Y-31250000D01*
X40711333Y-31297619D01*
X40616095Y-31440476D01*
X40568476Y-31630952D01*
X40568476Y-32011904D01*
X40616095Y-32107142D01*
X40663714Y-32154761D01*
X40758952Y-32202380D01*
X40949428Y-32202380D01*
X41044666Y-32154761D01*
X41092285Y-32107142D01*
X41139904Y-32011904D01*
X41139904Y-31773809D01*
X41092285Y-31678571D01*
X41044666Y-31630952D01*
X40949428Y-31583333D01*
X40758952Y-31583333D01*
X40663714Y-31630952D01*
X40616095Y-31678571D01*
X40568476Y-31773809D01*
G04 #@! TO.C,R10*
X39108142Y-27884380D02*
X38774809Y-27408190D01*
X38536714Y-27884380D02*
X38536714Y-26884380D01*
X38917666Y-26884380D01*
X39012904Y-26932000D01*
X39060523Y-26979619D01*
X39108142Y-27074857D01*
X39108142Y-27217714D01*
X39060523Y-27312952D01*
X39012904Y-27360571D01*
X38917666Y-27408190D01*
X38536714Y-27408190D01*
X40060523Y-27884380D02*
X39489095Y-27884380D01*
X39774809Y-27884380D02*
X39774809Y-26884380D01*
X39679571Y-27027238D01*
X39584333Y-27122476D01*
X39489095Y-27170095D01*
X40679571Y-26884380D02*
X40774809Y-26884380D01*
X40870047Y-26932000D01*
X40917666Y-26979619D01*
X40965285Y-27074857D01*
X41012904Y-27265333D01*
X41012904Y-27503428D01*
X40965285Y-27693904D01*
X40917666Y-27789142D01*
X40870047Y-27836761D01*
X40774809Y-27884380D01*
X40679571Y-27884380D01*
X40584333Y-27836761D01*
X40536714Y-27789142D01*
X40489095Y-27693904D01*
X40441476Y-27503428D01*
X40441476Y-27265333D01*
X40489095Y-27074857D01*
X40536714Y-26979619D01*
X40584333Y-26932000D01*
X40679571Y-26884380D01*
G04 #@! TO.C,R13*
X47442380Y-43568857D02*
X46966190Y-43902190D01*
X47442380Y-44140285D02*
X46442380Y-44140285D01*
X46442380Y-43759333D01*
X46490000Y-43664095D01*
X46537619Y-43616476D01*
X46632857Y-43568857D01*
X46775714Y-43568857D01*
X46870952Y-43616476D01*
X46918571Y-43664095D01*
X46966190Y-43759333D01*
X46966190Y-44140285D01*
X47442380Y-42616476D02*
X47442380Y-43187904D01*
X47442380Y-42902190D02*
X46442380Y-42902190D01*
X46585238Y-42997428D01*
X46680476Y-43092666D01*
X46728095Y-43187904D01*
X46442380Y-42283142D02*
X46442380Y-41664095D01*
X46823333Y-41997428D01*
X46823333Y-41854571D01*
X46870952Y-41759333D01*
X46918571Y-41711714D01*
X47013809Y-41664095D01*
X47251904Y-41664095D01*
X47347142Y-41711714D01*
X47394761Y-41759333D01*
X47442380Y-41854571D01*
X47442380Y-42140285D01*
X47394761Y-42235523D01*
X47347142Y-42283142D01*
G04 #@! TO.C,R17*
X42029142Y-20518380D02*
X41695809Y-20042190D01*
X41457714Y-20518380D02*
X41457714Y-19518380D01*
X41838666Y-19518380D01*
X41933904Y-19566000D01*
X41981523Y-19613619D01*
X42029142Y-19708857D01*
X42029142Y-19851714D01*
X41981523Y-19946952D01*
X41933904Y-19994571D01*
X41838666Y-20042190D01*
X41457714Y-20042190D01*
X42981523Y-20518380D02*
X42410095Y-20518380D01*
X42695809Y-20518380D02*
X42695809Y-19518380D01*
X42600571Y-19661238D01*
X42505333Y-19756476D01*
X42410095Y-19804095D01*
X43314857Y-19518380D02*
X43981523Y-19518380D01*
X43552952Y-20518380D01*
G04 #@! TO.C,C8*
X43791142Y-42521166D02*
X43838761Y-42568785D01*
X43886380Y-42711642D01*
X43886380Y-42806880D01*
X43838761Y-42949738D01*
X43743523Y-43044976D01*
X43648285Y-43092595D01*
X43457809Y-43140214D01*
X43314952Y-43140214D01*
X43124476Y-43092595D01*
X43029238Y-43044976D01*
X42934000Y-42949738D01*
X42886380Y-42806880D01*
X42886380Y-42711642D01*
X42934000Y-42568785D01*
X42981619Y-42521166D01*
X43314952Y-41949738D02*
X43267333Y-42044976D01*
X43219714Y-42092595D01*
X43124476Y-42140214D01*
X43076857Y-42140214D01*
X42981619Y-42092595D01*
X42934000Y-42044976D01*
X42886380Y-41949738D01*
X42886380Y-41759261D01*
X42934000Y-41664023D01*
X42981619Y-41616404D01*
X43076857Y-41568785D01*
X43124476Y-41568785D01*
X43219714Y-41616404D01*
X43267333Y-41664023D01*
X43314952Y-41759261D01*
X43314952Y-41949738D01*
X43362571Y-42044976D01*
X43410190Y-42092595D01*
X43505428Y-42140214D01*
X43695904Y-42140214D01*
X43791142Y-42092595D01*
X43838761Y-42044976D01*
X43886380Y-41949738D01*
X43886380Y-41759261D01*
X43838761Y-41664023D01*
X43791142Y-41616404D01*
X43695904Y-41568785D01*
X43505428Y-41568785D01*
X43410190Y-41616404D01*
X43362571Y-41664023D01*
X43314952Y-41759261D01*
G04 #@! TO.C,C10*
X45569142Y-43505357D02*
X45616761Y-43552976D01*
X45664380Y-43695833D01*
X45664380Y-43791071D01*
X45616761Y-43933928D01*
X45521523Y-44029166D01*
X45426285Y-44076785D01*
X45235809Y-44124404D01*
X45092952Y-44124404D01*
X44902476Y-44076785D01*
X44807238Y-44029166D01*
X44712000Y-43933928D01*
X44664380Y-43791071D01*
X44664380Y-43695833D01*
X44712000Y-43552976D01*
X44759619Y-43505357D01*
X45664380Y-42552976D02*
X45664380Y-43124404D01*
X45664380Y-42838690D02*
X44664380Y-42838690D01*
X44807238Y-42933928D01*
X44902476Y-43029166D01*
X44950095Y-43124404D01*
X44664380Y-41933928D02*
X44664380Y-41838690D01*
X44712000Y-41743452D01*
X44759619Y-41695833D01*
X44854857Y-41648214D01*
X45045333Y-41600595D01*
X45283428Y-41600595D01*
X45473904Y-41648214D01*
X45569142Y-41695833D01*
X45616761Y-41743452D01*
X45664380Y-41838690D01*
X45664380Y-41933928D01*
X45616761Y-42029166D01*
X45569142Y-42076785D01*
X45473904Y-42124404D01*
X45283428Y-42172023D01*
X45045333Y-42172023D01*
X44854857Y-42124404D01*
X44759619Y-42076785D01*
X44712000Y-42029166D01*
X44664380Y-41933928D01*
G04 #@! TO.C,U2*
X19914477Y-32348026D02*
X19342057Y-32920446D01*
X19308385Y-33021461D01*
X19308385Y-33088805D01*
X19342057Y-33189820D01*
X19476744Y-33324507D01*
X19577759Y-33358179D01*
X19645103Y-33358179D01*
X19746118Y-33324507D01*
X20318538Y-32752087D01*
X20554240Y-33122477D02*
X20621583Y-33122477D01*
X20722599Y-33156148D01*
X20890957Y-33324507D01*
X20924629Y-33425522D01*
X20924629Y-33492866D01*
X20890957Y-33593881D01*
X20823614Y-33661225D01*
X20688927Y-33728568D01*
X19880805Y-33728568D01*
X20318538Y-34166301D01*
G04 #@! TO.C,Y1*
X22891809Y-6580190D02*
X22891809Y-7056380D01*
X22558476Y-6056380D02*
X22891809Y-6580190D01*
X23225142Y-6056380D01*
X24082285Y-7056380D02*
X23510857Y-7056380D01*
X23796571Y-7056380D02*
X23796571Y-6056380D01*
X23701333Y-6199238D01*
X23606095Y-6294476D01*
X23510857Y-6342095D01*
G04 #@! TO.C,C3*
X21056333Y-38457142D02*
X21008714Y-38504761D01*
X20865857Y-38552380D01*
X20770619Y-38552380D01*
X20627761Y-38504761D01*
X20532523Y-38409523D01*
X20484904Y-38314285D01*
X20437285Y-38123809D01*
X20437285Y-37980952D01*
X20484904Y-37790476D01*
X20532523Y-37695238D01*
X20627761Y-37600000D01*
X20770619Y-37552380D01*
X20865857Y-37552380D01*
X21008714Y-37600000D01*
X21056333Y-37647619D01*
X21389666Y-37552380D02*
X22008714Y-37552380D01*
X21675380Y-37933333D01*
X21818238Y-37933333D01*
X21913476Y-37980952D01*
X21961095Y-38028571D01*
X22008714Y-38123809D01*
X22008714Y-38361904D01*
X21961095Y-38457142D01*
X21913476Y-38504761D01*
X21818238Y-38552380D01*
X21532523Y-38552380D01*
X21437285Y-38504761D01*
X21389666Y-38457142D01*
G04 #@! TO.C,C4*
X21056333Y-43443142D02*
X21008714Y-43490761D01*
X20865857Y-43538380D01*
X20770619Y-43538380D01*
X20627761Y-43490761D01*
X20532523Y-43395523D01*
X20484904Y-43300285D01*
X20437285Y-43109809D01*
X20437285Y-42966952D01*
X20484904Y-42776476D01*
X20532523Y-42681238D01*
X20627761Y-42586000D01*
X20770619Y-42538380D01*
X20865857Y-42538380D01*
X21008714Y-42586000D01*
X21056333Y-42633619D01*
X21913476Y-42871714D02*
X21913476Y-43538380D01*
X21675380Y-42490761D02*
X21437285Y-43205047D01*
X22056333Y-43205047D01*
G04 #@! TO.C,C5*
X41632142Y-16789666D02*
X41679761Y-16837285D01*
X41727380Y-16980142D01*
X41727380Y-17075380D01*
X41679761Y-17218238D01*
X41584523Y-17313476D01*
X41489285Y-17361095D01*
X41298809Y-17408714D01*
X41155952Y-17408714D01*
X40965476Y-17361095D01*
X40870238Y-17313476D01*
X40775000Y-17218238D01*
X40727380Y-17075380D01*
X40727380Y-16980142D01*
X40775000Y-16837285D01*
X40822619Y-16789666D01*
X40727380Y-15884904D02*
X40727380Y-16361095D01*
X41203571Y-16408714D01*
X41155952Y-16361095D01*
X41108333Y-16265857D01*
X41108333Y-16027761D01*
X41155952Y-15932523D01*
X41203571Y-15884904D01*
X41298809Y-15837285D01*
X41536904Y-15837285D01*
X41632142Y-15884904D01*
X41679761Y-15932523D01*
X41727380Y-16027761D01*
X41727380Y-16265857D01*
X41679761Y-16361095D01*
X41632142Y-16408714D01*
G04 #@! TO.C,C6*
X28789333Y-10263142D02*
X28741714Y-10310761D01*
X28598857Y-10358380D01*
X28503619Y-10358380D01*
X28360761Y-10310761D01*
X28265523Y-10215523D01*
X28217904Y-10120285D01*
X28170285Y-9929809D01*
X28170285Y-9786952D01*
X28217904Y-9596476D01*
X28265523Y-9501238D01*
X28360761Y-9406000D01*
X28503619Y-9358380D01*
X28598857Y-9358380D01*
X28741714Y-9406000D01*
X28789333Y-9453619D01*
X29646476Y-9358380D02*
X29456000Y-9358380D01*
X29360761Y-9406000D01*
X29313142Y-9453619D01*
X29217904Y-9596476D01*
X29170285Y-9786952D01*
X29170285Y-10167904D01*
X29217904Y-10263142D01*
X29265523Y-10310761D01*
X29360761Y-10358380D01*
X29551238Y-10358380D01*
X29646476Y-10310761D01*
X29694095Y-10263142D01*
X29741714Y-10167904D01*
X29741714Y-9929809D01*
X29694095Y-9834571D01*
X29646476Y-9786952D01*
X29551238Y-9739333D01*
X29360761Y-9739333D01*
X29265523Y-9786952D01*
X29217904Y-9834571D01*
X29170285Y-9929809D01*
G04 #@! TO.C,C7*
X38441333Y-20169142D02*
X38393714Y-20216761D01*
X38250857Y-20264380D01*
X38155619Y-20264380D01*
X38012761Y-20216761D01*
X37917523Y-20121523D01*
X37869904Y-20026285D01*
X37822285Y-19835809D01*
X37822285Y-19692952D01*
X37869904Y-19502476D01*
X37917523Y-19407238D01*
X38012761Y-19312000D01*
X38155619Y-19264380D01*
X38250857Y-19264380D01*
X38393714Y-19312000D01*
X38441333Y-19359619D01*
X38774666Y-19264380D02*
X39441333Y-19264380D01*
X39012761Y-20264380D01*
G04 #@! TO.C,C9*
X38187333Y-24741142D02*
X38139714Y-24788761D01*
X37996857Y-24836380D01*
X37901619Y-24836380D01*
X37758761Y-24788761D01*
X37663523Y-24693523D01*
X37615904Y-24598285D01*
X37568285Y-24407809D01*
X37568285Y-24264952D01*
X37615904Y-24074476D01*
X37663523Y-23979238D01*
X37758761Y-23884000D01*
X37901619Y-23836380D01*
X37996857Y-23836380D01*
X38139714Y-23884000D01*
X38187333Y-23931619D01*
X38663523Y-24836380D02*
X38854000Y-24836380D01*
X38949238Y-24788761D01*
X38996857Y-24741142D01*
X39092095Y-24598285D01*
X39139714Y-24407809D01*
X39139714Y-24026857D01*
X39092095Y-23931619D01*
X39044476Y-23884000D01*
X38949238Y-23836380D01*
X38758761Y-23836380D01*
X38663523Y-23884000D01*
X38615904Y-23931619D01*
X38568285Y-24026857D01*
X38568285Y-24264952D01*
X38615904Y-24360190D01*
X38663523Y-24407809D01*
X38758761Y-24455428D01*
X38949238Y-24455428D01*
X39044476Y-24407809D01*
X39092095Y-24360190D01*
X39139714Y-24264952D01*
G04 #@! TO.C,C11*
X14021969Y-9851106D02*
X14021969Y-9918450D01*
X13954625Y-10053137D01*
X13887282Y-10120480D01*
X13752595Y-10187824D01*
X13617908Y-10187824D01*
X13516893Y-10154152D01*
X13348534Y-10053137D01*
X13247519Y-9952122D01*
X13146503Y-9783763D01*
X13112832Y-9682748D01*
X13112832Y-9548061D01*
X13180175Y-9413374D01*
X13247519Y-9346030D01*
X13382206Y-9278687D01*
X13449549Y-9278687D01*
X14762748Y-9245015D02*
X14358687Y-9649076D01*
X14560717Y-9447045D02*
X13853610Y-8739938D01*
X13887282Y-8908297D01*
X13887282Y-9042984D01*
X13853610Y-9144000D01*
X15436183Y-8571580D02*
X15032122Y-8975641D01*
X15234152Y-8773610D02*
X14527045Y-8066503D01*
X14560717Y-8234862D01*
X14560717Y-8369549D01*
X14527045Y-8470564D01*
G04 #@! TO.C,C12*
X15291969Y-11121106D02*
X15291969Y-11188450D01*
X15224625Y-11323137D01*
X15157282Y-11390480D01*
X15022595Y-11457824D01*
X14887908Y-11457824D01*
X14786893Y-11424152D01*
X14618534Y-11323137D01*
X14517519Y-11222122D01*
X14416503Y-11053763D01*
X14382832Y-10952748D01*
X14382832Y-10818061D01*
X14450175Y-10683374D01*
X14517519Y-10616030D01*
X14652206Y-10548687D01*
X14719549Y-10548687D01*
X16032748Y-10515015D02*
X15628687Y-10919076D01*
X15830717Y-10717045D02*
X15123610Y-10009938D01*
X15157282Y-10178297D01*
X15157282Y-10312984D01*
X15123610Y-10414000D01*
X15662358Y-9605877D02*
X15662358Y-9538534D01*
X15696030Y-9437519D01*
X15864389Y-9269160D01*
X15965404Y-9235488D01*
X16032748Y-9235488D01*
X16133763Y-9269160D01*
X16201106Y-9336503D01*
X16268450Y-9471190D01*
X16268450Y-10279312D01*
X16706183Y-9841580D01*
G04 #@! TO.C,C14*
X28821142Y-12041142D02*
X28773523Y-12088761D01*
X28630666Y-12136380D01*
X28535428Y-12136380D01*
X28392571Y-12088761D01*
X28297333Y-11993523D01*
X28249714Y-11898285D01*
X28202095Y-11707809D01*
X28202095Y-11564952D01*
X28249714Y-11374476D01*
X28297333Y-11279238D01*
X28392571Y-11184000D01*
X28535428Y-11136380D01*
X28630666Y-11136380D01*
X28773523Y-11184000D01*
X28821142Y-11231619D01*
X29773523Y-12136380D02*
X29202095Y-12136380D01*
X29487809Y-12136380D02*
X29487809Y-11136380D01*
X29392571Y-11279238D01*
X29297333Y-11374476D01*
X29202095Y-11422095D01*
X30630666Y-11469714D02*
X30630666Y-12136380D01*
X30392571Y-11088761D02*
X30154476Y-11803047D01*
X30773523Y-11803047D01*
G04 #@! TO.C,C15*
X14394448Y-34193850D02*
X14327104Y-34193850D01*
X14192417Y-34126506D01*
X14125074Y-34059163D01*
X14057730Y-33924476D01*
X14057730Y-33789789D01*
X14091402Y-33688774D01*
X14192417Y-33520415D01*
X14293432Y-33419400D01*
X14461791Y-33318384D01*
X14562806Y-33284713D01*
X14697493Y-33284713D01*
X14832180Y-33352056D01*
X14899524Y-33419400D01*
X14966867Y-33554087D01*
X14966867Y-33621430D01*
X15000539Y-34934629D02*
X14596478Y-34530568D01*
X14798509Y-34732598D02*
X15505616Y-34025491D01*
X15337257Y-34059163D01*
X15202570Y-34059163D01*
X15101555Y-34025491D01*
X16347409Y-34867285D02*
X16010692Y-34530568D01*
X15640303Y-34833613D01*
X15707646Y-34833613D01*
X15808661Y-34867285D01*
X15977020Y-35035644D01*
X16010692Y-35136659D01*
X16010692Y-35204003D01*
X15977020Y-35305018D01*
X15808661Y-35473377D01*
X15707646Y-35507048D01*
X15640303Y-35507048D01*
X15539287Y-35473377D01*
X15370929Y-35305018D01*
X15337257Y-35204003D01*
X15337257Y-35136659D01*
G04 #@! TO.C,C16*
X12751969Y-8581106D02*
X12751969Y-8648450D01*
X12684625Y-8783137D01*
X12617282Y-8850480D01*
X12482595Y-8917824D01*
X12347908Y-8917824D01*
X12246893Y-8884152D01*
X12078534Y-8783137D01*
X11977519Y-8682122D01*
X11876503Y-8513763D01*
X11842832Y-8412748D01*
X11842832Y-8278061D01*
X11910175Y-8143374D01*
X11977519Y-8076030D01*
X12112206Y-8008687D01*
X12179549Y-8008687D01*
X13492748Y-7975015D02*
X13088687Y-8379076D01*
X13290717Y-8177045D02*
X12583610Y-7469938D01*
X12617282Y-7638297D01*
X12617282Y-7772984D01*
X12583610Y-7873999D01*
X13391732Y-6661816D02*
X13257045Y-6796503D01*
X13223374Y-6897519D01*
X13223374Y-6964862D01*
X13257045Y-7133221D01*
X13358061Y-7301580D01*
X13627435Y-7570954D01*
X13728450Y-7604625D01*
X13795793Y-7604625D01*
X13896809Y-7570954D01*
X14031496Y-7436267D01*
X14065167Y-7335251D01*
X14065167Y-7267908D01*
X14031496Y-7166893D01*
X13863137Y-6998534D01*
X13762122Y-6964862D01*
X13694778Y-6964862D01*
X13593763Y-6998534D01*
X13459076Y-7133221D01*
X13425404Y-7234236D01*
X13425404Y-7301580D01*
X13459076Y-7402595D01*
G04 #@! TO.C,C17*
X17977142Y-10181857D02*
X18024761Y-10229476D01*
X18072380Y-10372333D01*
X18072380Y-10467571D01*
X18024761Y-10610428D01*
X17929523Y-10705666D01*
X17834285Y-10753285D01*
X17643809Y-10800904D01*
X17500952Y-10800904D01*
X17310476Y-10753285D01*
X17215238Y-10705666D01*
X17120000Y-10610428D01*
X17072380Y-10467571D01*
X17072380Y-10372333D01*
X17120000Y-10229476D01*
X17167619Y-10181857D01*
X18072380Y-9229476D02*
X18072380Y-9800904D01*
X18072380Y-9515190D02*
X17072380Y-9515190D01*
X17215238Y-9610428D01*
X17310476Y-9705666D01*
X17358095Y-9800904D01*
X17072380Y-8896142D02*
X17072380Y-8229476D01*
X18072380Y-8658047D01*
G04 #@! TO.C,C18*
X30458142Y-20771142D02*
X30410523Y-20818761D01*
X30267666Y-20866380D01*
X30172428Y-20866380D01*
X30029571Y-20818761D01*
X29934333Y-20723523D01*
X29886714Y-20628285D01*
X29839095Y-20437809D01*
X29839095Y-20294952D01*
X29886714Y-20104476D01*
X29934333Y-20009238D01*
X30029571Y-19914000D01*
X30172428Y-19866380D01*
X30267666Y-19866380D01*
X30410523Y-19914000D01*
X30458142Y-19961619D01*
X31410523Y-20866380D02*
X30839095Y-20866380D01*
X31124809Y-20866380D02*
X31124809Y-19866380D01*
X31029571Y-20009238D01*
X30934333Y-20104476D01*
X30839095Y-20152095D01*
X31981952Y-20294952D02*
X31886714Y-20247333D01*
X31839095Y-20199714D01*
X31791476Y-20104476D01*
X31791476Y-20056857D01*
X31839095Y-19961619D01*
X31886714Y-19914000D01*
X31981952Y-19866380D01*
X32172428Y-19866380D01*
X32267666Y-19914000D01*
X32315285Y-19961619D01*
X32362904Y-20056857D01*
X32362904Y-20104476D01*
X32315285Y-20199714D01*
X32267666Y-20247333D01*
X32172428Y-20294952D01*
X31981952Y-20294952D01*
X31886714Y-20342571D01*
X31839095Y-20390190D01*
X31791476Y-20485428D01*
X31791476Y-20675904D01*
X31839095Y-20771142D01*
X31886714Y-20818761D01*
X31981952Y-20866380D01*
X32172428Y-20866380D01*
X32267666Y-20818761D01*
X32315285Y-20771142D01*
X32362904Y-20675904D01*
X32362904Y-20485428D01*
X32315285Y-20390190D01*
X32267666Y-20342571D01*
X32172428Y-20294952D01*
G04 #@! TO.C,R3*
X24866333Y-38646380D02*
X24533000Y-38170190D01*
X24294904Y-38646380D02*
X24294904Y-37646380D01*
X24675857Y-37646380D01*
X24771095Y-37694000D01*
X24818714Y-37741619D01*
X24866333Y-37836857D01*
X24866333Y-37979714D01*
X24818714Y-38074952D01*
X24771095Y-38122571D01*
X24675857Y-38170190D01*
X24294904Y-38170190D01*
X25199666Y-37646380D02*
X25818714Y-37646380D01*
X25485380Y-38027333D01*
X25628238Y-38027333D01*
X25723476Y-38074952D01*
X25771095Y-38122571D01*
X25818714Y-38217809D01*
X25818714Y-38455904D01*
X25771095Y-38551142D01*
X25723476Y-38598761D01*
X25628238Y-38646380D01*
X25342523Y-38646380D01*
X25247285Y-38598761D01*
X25199666Y-38551142D01*
G04 #@! TO.C,R4*
X24979333Y-43632380D02*
X24646000Y-43156190D01*
X24407904Y-43632380D02*
X24407904Y-42632380D01*
X24788857Y-42632380D01*
X24884095Y-42680000D01*
X24931714Y-42727619D01*
X24979333Y-42822857D01*
X24979333Y-42965714D01*
X24931714Y-43060952D01*
X24884095Y-43108571D01*
X24788857Y-43156190D01*
X24407904Y-43156190D01*
X25836476Y-42965714D02*
X25836476Y-43632380D01*
X25598380Y-42584761D02*
X25360285Y-43299047D01*
X25979333Y-43299047D01*
G04 #@! TO.C,R5*
X38808333Y-12992380D02*
X38475000Y-12516190D01*
X38236904Y-12992380D02*
X38236904Y-11992380D01*
X38617857Y-11992380D01*
X38713095Y-12040000D01*
X38760714Y-12087619D01*
X38808333Y-12182857D01*
X38808333Y-12325714D01*
X38760714Y-12420952D01*
X38713095Y-12468571D01*
X38617857Y-12516190D01*
X38236904Y-12516190D01*
X39713095Y-11992380D02*
X39236904Y-11992380D01*
X39189285Y-12468571D01*
X39236904Y-12420952D01*
X39332142Y-12373333D01*
X39570238Y-12373333D01*
X39665476Y-12420952D01*
X39713095Y-12468571D01*
X39760714Y-12563809D01*
X39760714Y-12801904D01*
X39713095Y-12897142D01*
X39665476Y-12944761D01*
X39570238Y-12992380D01*
X39332142Y-12992380D01*
X39236904Y-12944761D01*
X39189285Y-12897142D01*
G04 #@! TO.C,R6*
X37282380Y-16676666D02*
X36806190Y-17010000D01*
X37282380Y-17248095D02*
X36282380Y-17248095D01*
X36282380Y-16867142D01*
X36330000Y-16771904D01*
X36377619Y-16724285D01*
X36472857Y-16676666D01*
X36615714Y-16676666D01*
X36710952Y-16724285D01*
X36758571Y-16771904D01*
X36806190Y-16867142D01*
X36806190Y-17248095D01*
X36282380Y-15819523D02*
X36282380Y-16010000D01*
X36330000Y-16105238D01*
X36377619Y-16152857D01*
X36520476Y-16248095D01*
X36710952Y-16295714D01*
X37091904Y-16295714D01*
X37187142Y-16248095D01*
X37234761Y-16200476D01*
X37282380Y-16105238D01*
X37282380Y-15914761D01*
X37234761Y-15819523D01*
X37187142Y-15771904D01*
X37091904Y-15724285D01*
X36853809Y-15724285D01*
X36758571Y-15771904D01*
X36710952Y-15819523D01*
X36663333Y-15914761D01*
X36663333Y-16105238D01*
X36710952Y-16200476D01*
X36758571Y-16248095D01*
X36853809Y-16295714D01*
G04 #@! TO.C,R11*
X28821142Y-5278380D02*
X28487809Y-4802190D01*
X28249714Y-5278380D02*
X28249714Y-4278380D01*
X28630666Y-4278380D01*
X28725904Y-4326000D01*
X28773523Y-4373619D01*
X28821142Y-4468857D01*
X28821142Y-4611714D01*
X28773523Y-4706952D01*
X28725904Y-4754571D01*
X28630666Y-4802190D01*
X28249714Y-4802190D01*
X29773523Y-5278380D02*
X29202095Y-5278380D01*
X29487809Y-5278380D02*
X29487809Y-4278380D01*
X29392571Y-4421238D01*
X29297333Y-4516476D01*
X29202095Y-4564095D01*
X30725904Y-5278380D02*
X30154476Y-5278380D01*
X30440190Y-5278380D02*
X30440190Y-4278380D01*
X30344952Y-4421238D01*
X30249714Y-4516476D01*
X30154476Y-4564095D01*
G04 #@! TO.C,R12*
X32075380Y-29725857D02*
X31599190Y-30059190D01*
X32075380Y-30297285D02*
X31075380Y-30297285D01*
X31075380Y-29916333D01*
X31123000Y-29821095D01*
X31170619Y-29773476D01*
X31265857Y-29725857D01*
X31408714Y-29725857D01*
X31503952Y-29773476D01*
X31551571Y-29821095D01*
X31599190Y-29916333D01*
X31599190Y-30297285D01*
X32075380Y-28773476D02*
X32075380Y-29344904D01*
X32075380Y-29059190D02*
X31075380Y-29059190D01*
X31218238Y-29154428D01*
X31313476Y-29249666D01*
X31361095Y-29344904D01*
X31170619Y-28392523D02*
X31123000Y-28344904D01*
X31075380Y-28249666D01*
X31075380Y-28011571D01*
X31123000Y-27916333D01*
X31170619Y-27868714D01*
X31265857Y-27821095D01*
X31361095Y-27821095D01*
X31503952Y-27868714D01*
X32075380Y-28440142D01*
X32075380Y-27821095D01*
G04 #@! TO.C,R14*
X36647380Y-29725857D02*
X36171190Y-30059190D01*
X36647380Y-30297285D02*
X35647380Y-30297285D01*
X35647380Y-29916333D01*
X35695000Y-29821095D01*
X35742619Y-29773476D01*
X35837857Y-29725857D01*
X35980714Y-29725857D01*
X36075952Y-29773476D01*
X36123571Y-29821095D01*
X36171190Y-29916333D01*
X36171190Y-30297285D01*
X36647380Y-28773476D02*
X36647380Y-29344904D01*
X36647380Y-29059190D02*
X35647380Y-29059190D01*
X35790238Y-29154428D01*
X35885476Y-29249666D01*
X35933095Y-29344904D01*
X35980714Y-27916333D02*
X36647380Y-27916333D01*
X35599761Y-28154428D02*
X36314047Y-28392523D01*
X36314047Y-27773476D01*
G04 #@! TO.C,C19*
X30837142Y-8121857D02*
X30884761Y-8169476D01*
X30932380Y-8312333D01*
X30932380Y-8407571D01*
X30884761Y-8550428D01*
X30789523Y-8645666D01*
X30694285Y-8693285D01*
X30503809Y-8740904D01*
X30360952Y-8740904D01*
X30170476Y-8693285D01*
X30075238Y-8645666D01*
X29980000Y-8550428D01*
X29932380Y-8407571D01*
X29932380Y-8312333D01*
X29980000Y-8169476D01*
X30027619Y-8121857D01*
X30932380Y-7169476D02*
X30932380Y-7740904D01*
X30932380Y-7455190D02*
X29932380Y-7455190D01*
X30075238Y-7550428D01*
X30170476Y-7645666D01*
X30218095Y-7740904D01*
X30932380Y-6693285D02*
X30932380Y-6502809D01*
X30884761Y-6407571D01*
X30837142Y-6359952D01*
X30694285Y-6264714D01*
X30503809Y-6217095D01*
X30122857Y-6217095D01*
X30027619Y-6264714D01*
X29980000Y-6312333D01*
X29932380Y-6407571D01*
X29932380Y-6598047D01*
X29980000Y-6693285D01*
X30027619Y-6740904D01*
X30122857Y-6788523D01*
X30360952Y-6788523D01*
X30456190Y-6740904D01*
X30503809Y-6693285D01*
X30551428Y-6598047D01*
X30551428Y-6407571D01*
X30503809Y-6312333D01*
X30456190Y-6264714D01*
X30360952Y-6217095D01*
G04 #@! TO.C,D1*
X31646904Y-7183380D02*
X31646904Y-6183380D01*
X31885000Y-6183380D01*
X32027857Y-6231000D01*
X32123095Y-6326238D01*
X32170714Y-6421476D01*
X32218333Y-6611952D01*
X32218333Y-6754809D01*
X32170714Y-6945285D01*
X32123095Y-7040523D01*
X32027857Y-7135761D01*
X31885000Y-7183380D01*
X31646904Y-7183380D01*
X33170714Y-7183380D02*
X32599285Y-7183380D01*
X32885000Y-7183380D02*
X32885000Y-6183380D01*
X32789761Y-6326238D01*
X32694523Y-6421476D01*
X32599285Y-6469095D01*
G04 #@! TO.C,R18*
X35552142Y-7183380D02*
X35218809Y-6707190D01*
X34980714Y-7183380D02*
X34980714Y-6183380D01*
X35361666Y-6183380D01*
X35456904Y-6231000D01*
X35504523Y-6278619D01*
X35552142Y-6373857D01*
X35552142Y-6516714D01*
X35504523Y-6611952D01*
X35456904Y-6659571D01*
X35361666Y-6707190D01*
X34980714Y-6707190D01*
X36504523Y-7183380D02*
X35933095Y-7183380D01*
X36218809Y-7183380D02*
X36218809Y-6183380D01*
X36123571Y-6326238D01*
X36028333Y-6421476D01*
X35933095Y-6469095D01*
X37075952Y-6611952D02*
X36980714Y-6564333D01*
X36933095Y-6516714D01*
X36885476Y-6421476D01*
X36885476Y-6373857D01*
X36933095Y-6278619D01*
X36980714Y-6231000D01*
X37075952Y-6183380D01*
X37266428Y-6183380D01*
X37361666Y-6231000D01*
X37409285Y-6278619D01*
X37456904Y-6373857D01*
X37456904Y-6421476D01*
X37409285Y-6516714D01*
X37361666Y-6564333D01*
X37266428Y-6611952D01*
X37075952Y-6611952D01*
X36980714Y-6659571D01*
X36933095Y-6707190D01*
X36885476Y-6802428D01*
X36885476Y-6992904D01*
X36933095Y-7088142D01*
X36980714Y-7135761D01*
X37075952Y-7183380D01*
X37266428Y-7183380D01*
X37361666Y-7135761D01*
X37409285Y-7088142D01*
X37456904Y-6992904D01*
X37456904Y-6802428D01*
X37409285Y-6707190D01*
X37361666Y-6659571D01*
X37266428Y-6611952D01*
G04 #@! TD*
M02*
