G04 #@! TF.GenerationSoftware,KiCad,Pcbnew,(5.0.2)-1*
G04 #@! TF.CreationDate,2020-01-13T13:35:34-06:00*
G04 #@! TF.ProjectId,TM4C129-Breakout_Hardware,544d3443-3132-4392-9d42-7265616b6f75,rev?*
G04 #@! TF.SameCoordinates,Original*
G04 #@! TF.FileFunction,Copper,L2,Bot*
G04 #@! TF.FilePolarity,Positive*
%FSLAX46Y46*%
G04 Gerber Fmt 4.6, Leading zero omitted, Abs format (unit mm)*
G04 Created by KiCad (PCBNEW (5.0.2)-1) date 1/13/2020 1:35:34 PM*
%MOMM*%
%LPD*%
G01*
G04 APERTURE LIST*
G04 #@! TA.AperFunction,ComponentPad*
%ADD10R,1.700000X1.700000*%
G04 #@! TD*
G04 #@! TA.AperFunction,ComponentPad*
%ADD11O,1.700000X1.700000*%
G04 #@! TD*
G04 #@! TA.AperFunction,ComponentPad*
%ADD12C,1.500000*%
G04 #@! TD*
G04 #@! TA.AperFunction,ComponentPad*
%ADD13C,2.000000*%
G04 #@! TD*
G04 #@! TA.AperFunction,ComponentPad*
%ADD14R,1.500000X1.500000*%
G04 #@! TD*
G04 #@! TA.AperFunction,ComponentPad*
%ADD15C,0.800000*%
G04 #@! TD*
G04 #@! TA.AperFunction,ViaPad*
%ADD16C,0.800000*%
G04 #@! TD*
G04 #@! TA.AperFunction,Conductor*
%ADD17C,0.762000*%
G04 #@! TD*
G04 #@! TA.AperFunction,Conductor*
%ADD18C,0.381000*%
G04 #@! TD*
G04 #@! TA.AperFunction,Conductor*
%ADD19C,0.228600*%
G04 #@! TD*
G04 #@! TA.AperFunction,Conductor*
%ADD20C,0.254000*%
G04 #@! TD*
G04 #@! TA.AperFunction,NonConductor*
%ADD21C,0.254000*%
G04 #@! TD*
G04 APERTURE END LIST*
D10*
G04 #@! TO.P,J4,1*
G04 #@! TO.N,T2_A*
X58420000Y0D03*
D11*
G04 #@! TO.P,J4,2*
G04 #@! TO.N,Net-(J4-Pad2)*
X55880000Y0D03*
G04 #@! TO.P,J4,3*
G04 #@! TO.N,T2_B*
X58420000Y-2540000D03*
G04 #@! TO.P,J4,4*
G04 #@! TO.N,PWM1*
X55880000Y-2540000D03*
G04 #@! TO.P,J4,5*
G04 #@! TO.N,T3_A*
X58420000Y-5080000D03*
G04 #@! TO.P,J4,6*
G04 #@! TO.N,PWM2*
X55880000Y-5080000D03*
G04 #@! TO.P,J4,7*
G04 #@! TO.N,T3_B*
X58420000Y-7620000D03*
G04 #@! TO.P,J4,8*
G04 #@! TO.N,PWM3*
X55880000Y-7620000D03*
G04 #@! TO.P,J4,9*
G04 #@! TO.N,T4_A*
X58420000Y-10160000D03*
G04 #@! TO.P,J4,10*
G04 #@! TO.N,PWM4*
X55880000Y-10160000D03*
G04 #@! TO.P,J4,11*
G04 #@! TO.N,T4_B*
X58420000Y-12700000D03*
G04 #@! TO.P,J4,12*
G04 #@! TO.N,PWM5*
X55880000Y-12700000D03*
G04 #@! TO.P,J4,13*
G04 #@! TO.N,T5_A*
X58420000Y-15240000D03*
G04 #@! TO.P,J4,14*
G04 #@! TO.N,PWM6*
X55880000Y-15240000D03*
G04 #@! TO.P,J4,15*
G04 #@! TO.N,T5_B*
X58420000Y-17780000D03*
G04 #@! TO.P,J4,16*
G04 #@! TO.N,PWM7*
X55880000Y-17780000D03*
G04 #@! TD*
D12*
G04 #@! TO.P,J1,12*
G04 #@! TO.N,Ethernet_Link*
X46488000Y-35054000D03*
G04 #@! TO.P,J1,11*
G04 #@! TO.N,Net-(J1-Pad11)*
X46488000Y-32764000D03*
G04 #@! TO.P,J1,10*
G04 #@! TO.N,Ethernet_Activity*
X46488000Y-23624000D03*
G04 #@! TO.P,J1,9*
G04 #@! TO.N,Net-(J1-Pad9)*
X46488000Y-21334000D03*
D13*
G04 #@! TO.P,J1,SH*
G04 #@! TO.N,N/C*
X52198000Y-20064000D03*
X52198000Y-36324000D03*
D12*
G04 #@! TO.P,J1,8*
G04 #@! TO.N,Net-(J1-Pad7)*
X51308000Y-31774000D03*
G04 #@! TO.P,J1,6*
G04 #@! TO.N,Net-(J1-Pad6)*
X51308000Y-29734000D03*
G04 #@! TO.P,J1,4*
G04 #@! TO.N,Net-(J1-Pad4)*
X51308000Y-27694000D03*
G04 #@! TO.P,J1,2*
G04 #@! TO.N,Net-(J1-Pad2)*
X51308000Y-25654000D03*
G04 #@! TO.P,J1,7*
G04 #@! TO.N,Net-(J1-Pad7)*
X53088000Y-30754000D03*
G04 #@! TO.P,J1,5*
G04 #@! TO.N,Net-(J1-Pad4)*
X53088000Y-28714000D03*
G04 #@! TO.P,J1,3*
G04 #@! TO.N,Net-(J1-Pad3)*
X53088000Y-26674000D03*
D14*
G04 #@! TO.P,J1,1*
G04 #@! TO.N,Net-(J1-Pad1)*
X53088000Y-24634000D03*
G04 #@! TD*
D10*
G04 #@! TO.P,J2,1*
G04 #@! TO.N,A8*
X2540000Y0D03*
D11*
G04 #@! TO.P,J2,2*
G04 #@! TO.N,A0*
X0Y0D03*
G04 #@! TO.P,J2,3*
G04 #@! TO.N,A9*
X2540000Y-2540000D03*
G04 #@! TO.P,J2,4*
G04 #@! TO.N,A1*
X0Y-2540000D03*
G04 #@! TO.P,J2,5*
G04 #@! TO.N,A10*
X2540000Y-5080000D03*
G04 #@! TO.P,J2,6*
G04 #@! TO.N,A2*
X0Y-5080000D03*
G04 #@! TO.P,J2,7*
G04 #@! TO.N,A11*
X2540000Y-7620000D03*
G04 #@! TO.P,J2,8*
G04 #@! TO.N,A3*
X0Y-7620000D03*
G04 #@! TO.P,J2,9*
G04 #@! TO.N,A12*
X2540000Y-10160000D03*
G04 #@! TO.P,J2,10*
G04 #@! TO.N,A4*
X0Y-10160000D03*
G04 #@! TO.P,J2,11*
G04 #@! TO.N,A13*
X2540000Y-12700000D03*
G04 #@! TO.P,J2,12*
G04 #@! TO.N,A5*
X0Y-12700000D03*
G04 #@! TO.P,J2,13*
G04 #@! TO.N,A14*
X2540000Y-15240000D03*
G04 #@! TO.P,J2,14*
G04 #@! TO.N,A6*
X0Y-15240000D03*
G04 #@! TO.P,J2,15*
G04 #@! TO.N,A15*
X2540000Y-17780000D03*
G04 #@! TO.P,J2,16*
G04 #@! TO.N,A7*
X0Y-17780000D03*
G04 #@! TD*
D15*
G04 #@! TO.P,Conn1,10*
G04 #@! TO.N,~RST*
X8890000Y-3312000D03*
G04 #@! TO.P,Conn1,9*
G04 #@! TO.N,TX0*
X8890000Y-2042000D03*
G04 #@! TO.P,Conn1,8*
G04 #@! TO.N,TDI*
X10160000Y-3312000D03*
G04 #@! TO.P,Conn1,7*
G04 #@! TO.N,RX0*
X10160000Y-2042000D03*
G04 #@! TO.P,Conn1,6*
G04 #@! TO.N,TDO*
X11430000Y-3312000D03*
G04 #@! TO.P,Conn1,5*
G04 #@! TO.N,GND*
X11430000Y-2042000D03*
G04 #@! TO.P,Conn1,4*
G04 #@! TO.N,TCK*
X12700000Y-3312000D03*
G04 #@! TO.P,Conn1,3*
G04 #@! TO.N,GND*
X12700000Y-2042000D03*
G04 #@! TO.P,Conn1,2*
G04 #@! TO.N,TMS*
X13970000Y-3312000D03*
G04 #@! TO.P,Conn1,1*
G04 #@! TO.N,+3V3*
X13970000Y-2042000D03*
G04 #@! TD*
D11*
G04 #@! TO.P,J3,16*
G04 #@! TO.N,RX7*
X0Y-40640000D03*
G04 #@! TO.P,J3,15*
G04 #@! TO.N,TX7*
X2540000Y-40640000D03*
G04 #@! TO.P,J3,14*
G04 #@! TO.N,RX6*
X0Y-38100000D03*
G04 #@! TO.P,J3,13*
G04 #@! TO.N,TX6*
X2540000Y-38100000D03*
G04 #@! TO.P,J3,12*
G04 #@! TO.N,RX5*
X0Y-35560000D03*
G04 #@! TO.P,J3,11*
G04 #@! TO.N,TX5*
X2540000Y-35560000D03*
G04 #@! TO.P,J3,10*
G04 #@! TO.N,RX4*
X0Y-33020000D03*
G04 #@! TO.P,J3,9*
G04 #@! TO.N,TX4*
X2540000Y-33020000D03*
G04 #@! TO.P,J3,8*
G04 #@! TO.N,RX3*
X0Y-30480000D03*
G04 #@! TO.P,J3,7*
G04 #@! TO.N,TX3*
X2540000Y-30480000D03*
G04 #@! TO.P,J3,6*
G04 #@! TO.N,RX2*
X0Y-27940000D03*
G04 #@! TO.P,J3,5*
G04 #@! TO.N,TX2*
X2540000Y-27940000D03*
G04 #@! TO.P,J3,4*
G04 #@! TO.N,RX1*
X0Y-25400000D03*
G04 #@! TO.P,J3,3*
G04 #@! TO.N,TX1*
X2540000Y-25400000D03*
G04 #@! TO.P,J3,2*
G04 #@! TO.N,RX0*
X0Y-22860000D03*
D10*
G04 #@! TO.P,J3,1*
G04 #@! TO.N,TX0*
X2540000Y-22860000D03*
G04 #@! TD*
D11*
G04 #@! TO.P,J5,4*
G04 #@! TO.N,SDA0*
X22860000Y-2540000D03*
G04 #@! TO.P,J5,3*
G04 #@! TO.N,SCL0*
X25400000Y-2540000D03*
G04 #@! TO.P,J5,2*
G04 #@! TO.N,+3V3*
X22860000Y0D03*
D10*
G04 #@! TO.P,J5,1*
G04 #@! TO.N,GND*
X25400000Y0D03*
G04 #@! TD*
G04 #@! TO.P,J6,1*
G04 #@! TO.N,GND*
X43180000Y0D03*
D11*
G04 #@! TO.P,J6,2*
G04 #@! TO.N,+3V3*
X40640000Y0D03*
G04 #@! TO.P,J6,3*
G04 #@! TO.N,GND*
X43180000Y-2540000D03*
G04 #@! TO.P,J6,4*
G04 #@! TO.N,+3V3*
X40640000Y-2540000D03*
G04 #@! TD*
D16*
G04 #@! TO.N,GND*
X21590000Y-24892000D03*
X16510000Y-24892000D03*
X23368000Y-22860000D03*
X24384000Y-22098000D03*
X14986000Y-23622000D03*
X21336000Y-20066000D03*
X16510000Y-18542000D03*
X14224000Y-32766000D03*
X46482000Y-17526000D03*
X40894000Y-19050000D03*
X41910000Y-32766000D03*
X11176000Y508000D03*
X15494000Y-1016000D03*
X16764000Y-1016000D03*
X16763998Y-2794000D03*
X15494000Y-2794000D03*
X16763998Y-4572000D03*
X7366000Y1016000D03*
X6096000Y1016000D03*
X6096000Y-4572000D03*
X7366000Y-4572000D03*
X6096000Y-5842000D03*
X7366000Y-5842000D03*
X30480000Y0D03*
X33020000Y0D03*
X35560000Y0D03*
X35560000Y-2540000D03*
X33020000Y-2540000D03*
X30480000Y-2540000D03*
X11176000Y-39624000D03*
X11176000Y-41656000D03*
X19558000Y-43180000D03*
X22860000Y-43180000D03*
X9906000Y-40640000D03*
X33020000Y-42926000D03*
X48768000Y-40640000D03*
X50038000Y-40640000D03*
X38100000Y-24384000D03*
X36322000Y-30734000D03*
X42926000Y-19050000D03*
X51816000Y-17526000D03*
X53086000Y-17526000D03*
X30480000Y-9906000D03*
X31496000Y-9906000D03*
X27178000Y-13208000D03*
X10160000Y-8128000D03*
X10160000Y-6858000D03*
X10160000Y-5588000D03*
X33528000Y-32258000D03*
G04 #@! TO.N,+3V3*
X27178000Y-40640000D03*
X15494000Y-40640000D03*
X36322000Y-18288000D03*
X34290000Y-23622000D03*
X20066000Y-22606000D03*
X18542000Y-21082000D03*
X21082000Y-22606000D03*
X17526000Y-21082000D03*
X23114000Y-40640000D03*
X22098000Y-40640000D03*
X24130000Y-40640000D03*
X14478000Y-40640000D03*
X16510000Y-40640000D03*
X27178000Y-35052000D03*
G04 #@! TO.N,Net-(C8-Pad2)*
X41938000Y-26416000D03*
X37338000Y-27432000D03*
G04 #@! TO.N,Net-(C11-Pad1)*
X16510000Y-20066000D03*
X21336000Y-18542000D03*
G04 #@! TO.N,TDO*
X14732000Y-4318000D03*
G04 #@! TO.N,RX0*
X12192000Y-33020000D03*
G04 #@! TO.N,TDI*
X13970000Y-5080000D03*
G04 #@! TO.N,TX0*
X11176000Y-33528000D03*
G04 #@! TO.N,Net-(J1-Pad1)*
X39624000Y-25146000D03*
G04 #@! TO.N,Net-(J1-Pad3)*
X40386000Y-34290000D03*
G04 #@! TO.N,Net-(J1-Pad4)*
X46482000Y-26416000D03*
G04 #@! TO.N,Net-(J1-Pad7)*
X46482000Y-27432000D03*
G04 #@! TO.N,Ethernet_Link*
X29718000Y-31496000D03*
G04 #@! TO.N,Ethernet_Activity*
X29718000Y-30226000D03*
G04 #@! TO.N,A0*
X7874000Y-26670000D03*
G04 #@! TO.N,A1*
X7112000Y-27432000D03*
G04 #@! TO.N,A2*
X7874000Y-28194000D03*
G04 #@! TO.N,A3*
X7112000Y-28956000D03*
X7112000Y-28956000D03*
G04 #@! TO.N,A12*
X7112000Y-25908000D03*
X6096000Y-10414000D03*
G04 #@! TO.N,A13*
X7874000Y-25146000D03*
X6604000Y-12954000D03*
G04 #@! TO.N,A14*
X7112000Y-24384000D03*
X7112000Y-15494000D03*
G04 #@! TO.N,A15*
X7874000Y-23622000D03*
X7524700Y-18034000D03*
G04 #@! TO.N,RX6*
X10922000Y-15748000D03*
G04 #@! TO.N,TX6*
X10161108Y-16508892D03*
G04 #@! TO.N,RX3*
X6604000Y-34544000D03*
G04 #@! TO.N,TX3*
X7620000Y-35052000D03*
G04 #@! TO.N,RX2*
X8636000Y-35560000D03*
G04 #@! TO.N,TX2*
X9652000Y-36068000D03*
G04 #@! TO.N,PWM1*
X26670000Y-32512000D03*
G04 #@! TO.N,PWM2*
X27432000Y-31750000D03*
G04 #@! TO.N,PWM3*
X28194000Y-30988000D03*
G04 #@! TO.N,PWM4*
X28956000Y-29464000D03*
G04 #@! TO.N,PWM5*
X29718000Y-28702000D03*
G04 #@! TO.N,PWM6*
X30480000Y-24130000D03*
G04 #@! TO.N,PWM7*
X31242000Y-24892000D03*
G04 #@! TO.N,EN0RXI_N*
X30480000Y-41910000D03*
X30480000Y-32258000D03*
G04 #@! TO.N,EN0RXI_P*
X31242000Y-39116000D03*
X31242000Y-31496000D03*
G04 #@! TO.N,EN0TXO_N*
X32004000Y-35306000D03*
X32004000Y-32258000D03*
G04 #@! TO.N,EN0TXO_P*
X32766000Y-33020000D03*
X32766000Y-31496000D03*
G04 #@! TO.N,~RST*
X11176000Y1912600D03*
X49276000Y-18542000D03*
G04 #@! TO.N,Net-(J1-Pad2)*
X39878000Y-27686000D03*
G04 #@! TD*
D17*
G04 #@! TO.N,+3V3*
X15494000Y-40640000D02*
X27178000Y-40640000D01*
X18542000Y-21082000D02*
X20066000Y-22606000D01*
X20066000Y-22606000D02*
X21082000Y-22606000D01*
X18542000Y-21082000D02*
X17526000Y-21082000D01*
D18*
X36322000Y-23114000D02*
X35814000Y-23622000D01*
X36322000Y-18288000D02*
X36322000Y-23114000D01*
X34290000Y-23622000D02*
X35814000Y-23622000D01*
D17*
X15494000Y-40640000D02*
X14478000Y-40640000D01*
X27178000Y-35052000D02*
X27178000Y-40640000D01*
D18*
G04 #@! TO.N,Net-(C8-Pad2)*
X38354000Y-26416000D02*
X41938000Y-26416000D01*
X37338000Y-27432000D02*
X38354000Y-26416000D01*
D19*
G04 #@! TO.N,Net-(C11-Pad1)*
X19812000Y-20066000D02*
X21336000Y-18542000D01*
X16510000Y-20066000D02*
X19812000Y-20066000D01*
G04 #@! TO.N,TDO*
X11430000Y-3312000D02*
X11430000Y-4064000D01*
X11430000Y-4064000D02*
X11684000Y-4318000D01*
X11684000Y-4318000D02*
X14732000Y-4318000D01*
G04 #@! TO.N,RX0*
X12192000Y-33020000D02*
X11938000Y-33274000D01*
X11938000Y-33274000D02*
X11938000Y-33782000D01*
X11938000Y-33782000D02*
X11938000Y-34544000D01*
X9652000Y-38354000D02*
X9398000Y-38354000D01*
X4826000Y-38354000D02*
X9652000Y-38354000D01*
X4318000Y-38862000D02*
X4826000Y-38354000D01*
X-1778000Y-22860000D02*
X-1778000Y-41402000D01*
X0Y-22860000D02*
X-1778000Y-22860000D01*
X-1778000Y-41402000D02*
X-762000Y-42418000D01*
X-762000Y-42418000D02*
X3302000Y-42418000D01*
X3302000Y-42418000D02*
X4318000Y-41402000D01*
X4318000Y-41402000D02*
X4318000Y-38862000D01*
X11938000Y-34798000D02*
X11938000Y-33782000D01*
X11938000Y-37084000D02*
X11938000Y-34798000D01*
X9652000Y-38354000D02*
X10668000Y-38354000D01*
X10668000Y-38354000D02*
X11938000Y-37084000D01*
X-1778000Y1016000D02*
X-1778000Y-22860000D01*
X10160000Y1778000D02*
X9739710Y2198290D01*
X10160000Y-2042000D02*
X10160000Y1778000D01*
X9739710Y2198290D02*
X166290Y2198290D01*
X166290Y2198290D02*
X-254000Y1778000D01*
X-254000Y1778000D02*
X-1016000Y1778000D01*
X-1016000Y1778000D02*
X-1778000Y1016000D01*
G04 #@! TO.N,TDI*
X10160000Y-3312000D02*
X10160000Y-4572000D01*
X10160000Y-4572000D02*
X10668000Y-5080000D01*
X10668000Y-5080000D02*
X13970000Y-5080000D01*
G04 #@! TO.N,TX0*
X9398000Y-37846000D02*
X9652000Y-37846000D01*
X1690001Y-23709999D02*
X2540000Y-22860000D01*
X1270000Y-24130000D02*
X1690001Y-23709999D01*
X-508000Y-24130000D02*
X1270000Y-24130000D01*
X-1270000Y-24892000D02*
X-508000Y-24130000D01*
X-1270000Y-41148000D02*
X-1270000Y-24892000D01*
X9652000Y-37846000D02*
X4572000Y-37846000D01*
X4572000Y-37846000D02*
X3810000Y-38608000D01*
X3810000Y-38608000D02*
X3810000Y-41148000D01*
X3048000Y-41910000D02*
X-508000Y-41910000D01*
X3810000Y-41148000D02*
X3048000Y-41910000D01*
X-508000Y-41910000D02*
X-1270000Y-41148000D01*
X10414000Y-37846000D02*
X9906000Y-37846000D01*
X11430000Y-36830000D02*
X10414000Y-37846000D01*
X9906000Y-37846000D02*
X10160000Y-37846000D01*
X9652000Y-37846000D02*
X9906000Y-37846000D01*
X11176000Y-33528000D02*
X10922000Y-33782000D01*
X10922000Y-33782000D02*
X10922000Y-34544000D01*
X10922000Y-34544000D02*
X11430000Y-35052000D01*
X11430000Y-35052000D02*
X11430000Y-36830000D01*
X8890000Y1270000D02*
X8890000Y-2042000D01*
X8382000Y1778000D02*
X8890000Y1270000D01*
X508000Y1778000D02*
X8382000Y1778000D01*
X0Y1270000D02*
X508000Y1778000D01*
X1270000Y-21590000D02*
X-762000Y-21590000D01*
X2540000Y-22860000D02*
X1270000Y-21590000D01*
X-762000Y-21590000D02*
X-1270000Y-21082000D01*
X-1270000Y-21082000D02*
X-1270000Y910062D01*
X-1270000Y910062D02*
X-910062Y1270000D01*
X-910062Y1270000D02*
X0Y1270000D01*
D18*
G04 #@! TO.N,Net-(J1-Pad1)*
X39878000Y-24892000D02*
X39624000Y-25146000D01*
X47167099Y-24892000D02*
X39878000Y-24892000D01*
X47675099Y-24384000D02*
X47167099Y-24892000D01*
X52324000Y-24384000D02*
X47675099Y-24384000D01*
X52574000Y-24634000D02*
X52324000Y-24384000D01*
X53088000Y-24634000D02*
X52574000Y-24634000D01*
G04 #@! TO.N,Net-(J1-Pad3)*
X54356000Y-27942000D02*
X53088000Y-26674000D01*
X54356000Y-29718000D02*
X54356000Y-27942000D01*
X54356000Y-31103494D02*
X54356000Y-29718000D01*
X54356000Y-31496000D02*
X54356000Y-29718000D01*
X51890901Y-33961099D02*
X54356000Y-31496000D01*
X40386000Y-34290000D02*
X40714901Y-33961099D01*
X40714901Y-33961099D02*
X51890901Y-33961099D01*
G04 #@! TO.N,Net-(J1-Pad4)*
X50030000Y-26416000D02*
X51308000Y-27694000D01*
X50030000Y-26416000D02*
X46482000Y-26416000D01*
G04 #@! TO.N,Net-(J1-Pad7)*
X51308000Y-31774000D02*
X50038000Y-30504000D01*
X50038000Y-30504000D02*
X50038000Y-27940000D01*
X50038000Y-27940000D02*
X49530000Y-27432000D01*
X49530000Y-27432000D02*
X46482000Y-27432000D01*
G04 #@! TO.N,Ethernet_Link*
X40386000Y-35054000D02*
X46488000Y-35054000D01*
X31222901Y-29991099D02*
X38881099Y-29991099D01*
X29718000Y-31496000D02*
X31222901Y-29991099D01*
X38881099Y-29991099D02*
X39624000Y-30734000D01*
X39624000Y-34627494D02*
X40050506Y-35054000D01*
X39624000Y-30734000D02*
X39624000Y-34627494D01*
X40050506Y-35054000D02*
X40386000Y-35054000D01*
G04 #@! TO.N,Ethernet_Activity*
X46488000Y-23624000D02*
X37590000Y-23624000D01*
X37590000Y-23624000D02*
X36576000Y-24638000D01*
X36576000Y-24638000D02*
X32766000Y-24638000D01*
X32766000Y-24638000D02*
X30988000Y-26416000D01*
X30988000Y-28956000D02*
X30988000Y-27940000D01*
X29718000Y-30226000D02*
X30988000Y-28956000D01*
X30988000Y-26416000D02*
X30988000Y-27940000D01*
D19*
G04 #@! TO.N,A0*
X7874000Y-26670000D02*
X6858000Y-26670000D01*
X6858000Y-26670000D02*
X5334000Y-25146000D01*
X5334000Y-25146000D02*
X5334000Y-24384000D01*
X5334000Y-24384000D02*
X5334000Y-24130000D01*
X5334000Y-24130000D02*
X5334000Y-23114000D01*
X0Y0D02*
X1016000Y-1016000D01*
X1016000Y-1016000D02*
X1270000Y-1270000D01*
X1270000Y-1270000D02*
X2794000Y-1270000D01*
X2794000Y-1270000D02*
X4826000Y-1270000D01*
X4826000Y-1270000D02*
X5334000Y-1778000D01*
X5334000Y-1778000D02*
X5334000Y-10414000D01*
X5334000Y-10414000D02*
X5334000Y-11430000D01*
X5334000Y-18796000D02*
X5334000Y-24130000D01*
X5334000Y-18796000D02*
X5334000Y-19050000D01*
X5334000Y-11430000D02*
X5334000Y-18796000D01*
G04 #@! TO.N,A1*
X4826000Y-25400000D02*
X4826000Y-24384000D01*
X7112000Y-27432000D02*
X6858000Y-27432000D01*
X6858000Y-27432000D02*
X4826000Y-25400000D01*
X4826000Y-24384000D02*
X4826000Y-24130000D01*
X0Y-2540000D02*
X849999Y-3389999D01*
X849999Y-3389999D02*
X1270000Y-3810000D01*
X1270000Y-3810000D02*
X4318000Y-3810000D01*
X4318000Y-3810000D02*
X4826000Y-4318000D01*
X4826000Y-4318000D02*
X4826000Y-9398000D01*
X4826000Y-9398000D02*
X4826000Y-10414000D01*
X4826000Y-10414000D02*
X4826000Y-10668000D01*
X4826000Y-19304000D02*
X4826000Y-23622000D01*
X4826000Y-18796000D02*
X4826000Y-19304000D01*
X4826000Y-23622000D02*
X4826000Y-23114000D01*
X4826000Y-24130000D02*
X4826000Y-23622000D01*
X4826000Y-18796000D02*
X4826000Y-19050000D01*
X4826000Y-10668000D02*
X4826000Y-18796000D01*
G04 #@! TO.N,A2*
X7874000Y-28194000D02*
X6858000Y-28194000D01*
X6858000Y-28194000D02*
X4318000Y-25654000D01*
X4318000Y-25654000D02*
X4318000Y-24384000D01*
X4318000Y-24384000D02*
X4318000Y-24130000D01*
X849999Y-5929999D02*
X0Y-5080000D01*
X1270000Y-6350000D02*
X849999Y-5929999D01*
X3810000Y-6350000D02*
X1270000Y-6350000D01*
X4318000Y-6858000D02*
X3810000Y-6350000D01*
X4318000Y-6858000D02*
X4318000Y-10414000D01*
X4318000Y-18542000D02*
X4318000Y-23622000D01*
X4318000Y-23622000D02*
X4318000Y-23114000D01*
X4318000Y-24130000D02*
X4318000Y-23622000D01*
X4318000Y-18542000D02*
X4318000Y-19050000D01*
X4318000Y-10414000D02*
X4318000Y-18542000D01*
G04 #@! TO.N,A3*
X6858000Y-28956000D02*
X7112000Y-28956000D01*
X3810000Y-25908000D02*
X6858000Y-28956000D01*
X1270000Y-8890000D02*
X0Y-7620000D01*
X3302000Y-8890000D02*
X1270000Y-8890000D01*
X3810000Y-9398000D02*
X3302000Y-8890000D01*
X3810000Y-23368000D02*
X3810000Y-9398000D01*
X3810000Y-23368000D02*
X3810000Y-25908000D01*
X3810000Y-23114000D02*
X3810000Y-23368000D01*
G04 #@! TO.N,A12*
X6858000Y-25908000D02*
X7112000Y-25908000D01*
X5842000Y-24892000D02*
X6858000Y-25908000D01*
X5842000Y-24384000D02*
X5842000Y-24892000D01*
X5842000Y-24384000D02*
X5842000Y-24130000D01*
X5842000Y-20828000D02*
X5842000Y-23622000D01*
X5842000Y-10668000D02*
X5842000Y-20828000D01*
X6096000Y-10414000D02*
X5842000Y-10668000D01*
X5842000Y-24130000D02*
X5842000Y-23622000D01*
X5842000Y-23622000D02*
X5842000Y-23114000D01*
G04 #@! TO.N,A13*
X7874000Y-25146000D02*
X6858000Y-25146000D01*
X6858000Y-25146000D02*
X6350000Y-24638000D01*
X6350000Y-24638000D02*
X6350000Y-24130000D01*
X6350000Y-24130000D02*
X6350000Y-23368000D01*
X6350000Y-23368000D02*
X6350000Y-23114000D01*
X6604000Y-12954000D02*
X6350000Y-13208000D01*
X6350000Y-13208000D02*
X6350000Y-13716000D01*
X6350000Y-18796000D02*
X6350000Y-23368000D01*
X6350000Y-18796000D02*
X6350000Y-19050000D01*
X6350000Y-13716000D02*
X6350000Y-18796000D01*
G04 #@! TO.N,A14*
X7112000Y-24384000D02*
X6858000Y-24130000D01*
X6858000Y-24130000D02*
X6858000Y-23876000D01*
X7112000Y-15494000D02*
X6858000Y-15748000D01*
X6858000Y-15748000D02*
X6858000Y-16002000D01*
X6858000Y-16002000D02*
X6858000Y-16510000D01*
X6858000Y-23368000D02*
X6858000Y-23114000D01*
X6858000Y-23876000D02*
X6858000Y-23368000D01*
X6858000Y-18542000D02*
X6858000Y-19050000D01*
X6858000Y-16510000D02*
X6858000Y-18542000D01*
X6858000Y-18542000D02*
X6858000Y-23368000D01*
G04 #@! TO.N,A15*
X7874000Y-23622000D02*
X7620000Y-23622000D01*
X7620000Y-23622000D02*
X7366000Y-23368000D01*
X7366000Y-23368000D02*
X7366000Y-23114000D01*
X7524700Y-18034000D02*
X7366000Y-18192700D01*
X7366000Y-18796000D02*
X7366000Y-19050000D01*
X7366000Y-18192700D02*
X7366000Y-18796000D01*
X7366000Y-18796000D02*
X7366000Y-23368000D01*
G04 #@! TO.N,RX6*
X0Y-38100000D02*
X1270000Y-36830000D01*
X8382000Y-36830000D02*
X9652000Y-36830000D01*
X1270000Y-36830000D02*
X8382000Y-36830000D01*
X9652000Y-15748000D02*
X10922000Y-15748000D01*
X8636000Y-16764000D02*
X9652000Y-15748000D01*
X8636000Y-30734000D02*
X8636000Y-16764000D01*
X10414000Y-35560000D02*
X9906000Y-35052000D01*
X9906000Y-35052000D02*
X9906000Y-32004000D01*
X9906000Y-32004000D02*
X8636000Y-30734000D01*
X9906000Y-36830000D02*
X10414000Y-36322000D01*
X10414000Y-36322000D02*
X10414000Y-35560000D01*
X8382000Y-36830000D02*
X9906000Y-36830000D01*
G04 #@! TO.N,TX6*
X3302000Y-37338000D02*
X2540000Y-38100000D01*
X9144000Y-37338000D02*
X3302000Y-37338000D01*
X9906000Y-37338000D02*
X9144000Y-37338000D01*
X9653108Y-16508892D02*
X9144000Y-17018000D01*
X10161108Y-16508892D02*
X9653108Y-16508892D01*
X10190829Y-37338000D02*
X9144000Y-37338000D01*
X10922000Y-35306000D02*
X10922000Y-36606829D01*
X9144000Y-17018000D02*
X9144000Y-30480000D01*
X9144000Y-30480000D02*
X10414000Y-31750000D01*
X10922000Y-36606829D02*
X10190829Y-37338000D01*
X10414000Y-31750000D02*
X10414000Y-34798000D01*
X10414000Y-34798000D02*
X10922000Y-35306000D01*
G04 #@! TO.N,RX3*
X6350000Y-34290000D02*
X6604000Y-34544000D01*
X6350000Y-32004000D02*
X6350000Y-34290000D01*
X6096000Y-31750000D02*
X6350000Y-32004000D01*
X0Y-30480000D02*
X1270000Y-31750000D01*
X1270000Y-31750000D02*
X6096000Y-31750000D01*
G04 #@! TO.N,TX3*
X7366000Y-34798000D02*
X7620000Y-35052000D01*
X7366000Y-31750000D02*
X7366000Y-34798000D01*
X2540000Y-30480000D02*
X6096000Y-30480000D01*
X6096000Y-30480000D02*
X7366000Y-31750000D01*
G04 #@! TO.N,RX2*
X8382000Y-35306000D02*
X8636000Y-35560000D01*
X8382000Y-32004000D02*
X8382000Y-35306000D01*
X5588000Y-29210000D02*
X8382000Y-32004000D01*
X0Y-27940000D02*
X1270000Y-29210000D01*
X1270000Y-29210000D02*
X5588000Y-29210000D01*
G04 #@! TO.N,TX2*
X9398000Y-35814000D02*
X9652000Y-36068000D01*
X9398000Y-32258000D02*
X9398000Y-35814000D01*
X2540000Y-27940000D02*
X5080000Y-27940000D01*
X5080000Y-27940000D02*
X9398000Y-32258000D01*
G04 #@! TO.N,PWM1*
X27686000Y-27432000D02*
X27686000Y-22860000D01*
X27432000Y-28448000D02*
X27432000Y-27686000D01*
X26670000Y-29210000D02*
X27432000Y-28448000D01*
X27432000Y-27686000D02*
X27686000Y-27432000D01*
X27686000Y-22860000D02*
X27940000Y-22606000D01*
X26670000Y-32512000D02*
X26670000Y-29210000D01*
X27940000Y-22606000D02*
X28194000Y-22352000D01*
X28194000Y-22098000D02*
X28194000Y-21844000D01*
X28194000Y-22352000D02*
X28194000Y-22098000D01*
X28194000Y-15748000D02*
X28194000Y-22098000D01*
X30226000Y-13716000D02*
X28194000Y-15748000D01*
X50292000Y-13716000D02*
X30226000Y-13716000D01*
X52324000Y-6096000D02*
X52324000Y-13208000D01*
X55880000Y-2540000D02*
X52324000Y-6096000D01*
X52324000Y-13208000D02*
X51816000Y-13716000D01*
X51816000Y-13716000D02*
X50292000Y-13716000D01*
G04 #@! TO.N,PWM2*
X27940000Y-28702000D02*
X27432000Y-29210000D01*
X28702000Y-22606000D02*
X28194000Y-23114000D01*
X27432000Y-29210000D02*
X27432000Y-31750000D01*
X55880000Y-5080000D02*
X52832000Y-8128000D01*
X27940000Y-27940000D02*
X27940000Y-28702000D01*
X52832000Y-8128000D02*
X52832000Y-13462000D01*
X52832000Y-13462000D02*
X52070000Y-14224000D01*
X28194000Y-27686000D02*
X27940000Y-27940000D01*
X30480000Y-14224000D02*
X28702000Y-16002000D01*
X28194000Y-23114000D02*
X28194000Y-27686000D01*
X28702000Y-16002000D02*
X28702000Y-22606000D01*
X49784000Y-14224000D02*
X52070000Y-14224000D01*
X49784000Y-14224000D02*
X30480000Y-14224000D01*
X50546000Y-14224000D02*
X49784000Y-14224000D01*
G04 #@! TO.N,PWM3*
X28194000Y-29210000D02*
X28194000Y-30988000D01*
X28448000Y-28194000D02*
X28448000Y-28956000D01*
X28702000Y-23368000D02*
X28702000Y-27940000D01*
X28702000Y-27940000D02*
X28448000Y-28194000D01*
X29210000Y-22860000D02*
X28702000Y-23368000D01*
X55880000Y-7620000D02*
X53340000Y-10160000D01*
X53340000Y-10160000D02*
X53340000Y-13716000D01*
X30734000Y-14732000D02*
X29210000Y-16256000D01*
X28448000Y-28956000D02*
X28194000Y-29210000D01*
X53340000Y-13716000D02*
X52324000Y-14732000D01*
X29210000Y-16256000D02*
X29210000Y-22860000D01*
X50546000Y-14732000D02*
X52324000Y-14732000D01*
X50546000Y-14732000D02*
X30734000Y-14732000D01*
X50800000Y-14732000D02*
X50546000Y-14732000D01*
G04 #@! TO.N,PWM4*
X28956000Y-28448000D02*
X28956000Y-29464000D01*
X55880000Y-10160000D02*
X53848000Y-12192000D01*
X29210000Y-28194000D02*
X28956000Y-28448000D01*
X53848000Y-13970000D02*
X52578000Y-15240000D01*
X29718000Y-23114000D02*
X29210000Y-23622000D01*
X53848000Y-12192000D02*
X53848000Y-13970000D01*
X30988000Y-15240000D02*
X29718000Y-16510000D01*
X29210000Y-23622000D02*
X29210000Y-28194000D01*
X29718000Y-16510000D02*
X29718000Y-23114000D01*
X50800000Y-15240000D02*
X52578000Y-15240000D01*
X50800000Y-15240000D02*
X30988000Y-15240000D01*
X51054000Y-15240000D02*
X50800000Y-15240000D01*
G04 #@! TO.N,PWM5*
X30226000Y-23368000D02*
X30226000Y-23114000D01*
X29718000Y-23876000D02*
X30226000Y-23368000D01*
X29718000Y-28702000D02*
X29718000Y-23876000D01*
X52832000Y-15748000D02*
X55880000Y-12700000D01*
X31242000Y-15748000D02*
X52832000Y-15748000D01*
X30226000Y-23368000D02*
X30226000Y-16764000D01*
X30226000Y-16764000D02*
X31242000Y-15748000D01*
G04 #@! TO.N,PWM6*
X30480000Y-24130000D02*
X30480000Y-23876000D01*
X30480000Y-23876000D02*
X30734000Y-23622000D01*
X30734000Y-23368000D02*
X30734000Y-23114000D01*
X30734000Y-23622000D02*
X30734000Y-23368000D01*
X30734000Y-17018000D02*
X30734000Y-23368000D01*
X31496000Y-16256000D02*
X30734000Y-17018000D01*
X55880000Y-15240000D02*
X54864000Y-16256000D01*
X53086000Y-16256000D02*
X54864000Y-16256000D01*
X53086000Y-16256000D02*
X31496000Y-16256000D01*
X53340000Y-16256000D02*
X53086000Y-16256000D01*
G04 #@! TO.N,PWM7*
X54864000Y-16764000D02*
X55880000Y-17780000D01*
X31750000Y-16764000D02*
X54864000Y-16764000D01*
X31242000Y-24892000D02*
X31242000Y-17272000D01*
X31242000Y-17272000D02*
X31750000Y-16764000D01*
G04 #@! TO.N,EN0RXI_N*
X30480000Y-34798000D02*
X30480000Y-32766000D01*
X30480000Y-34798000D02*
X30480000Y-34544000D01*
X30480000Y-41910000D02*
X30480000Y-34798000D01*
X30480000Y-32512000D02*
X30480000Y-32766000D01*
X30480000Y-32258000D02*
X30480000Y-32512000D01*
G04 #@! TO.N,EN0RXI_P*
X31242000Y-39116000D02*
X31242000Y-32766000D01*
X31242000Y-32004000D02*
X31242000Y-32004000D01*
X31242000Y-32004000D02*
X31242000Y-31750000D01*
X31242000Y-32258000D02*
X31242000Y-31496000D01*
X31242000Y-32258000D02*
X31242000Y-32004000D01*
X31242000Y-32766000D02*
X31242000Y-32258000D01*
G04 #@! TO.N,EN0TXO_N*
X32004000Y-33274000D02*
X32004000Y-32258000D01*
X32004000Y-33274000D02*
X32004000Y-32766000D01*
X32004000Y-35306000D02*
X32004000Y-33274000D01*
G04 #@! TO.N,EN0TXO_P*
X32766000Y-32766000D02*
X32766000Y-32258000D01*
X32766000Y-32004000D02*
X32766000Y-31496000D01*
X32766000Y-32004000D02*
X32766000Y-31750000D01*
X32766000Y-32258000D02*
X32766000Y-32004000D01*
X32766000Y-32258000D02*
X32766000Y-33020000D01*
D18*
G04 #@! TO.N,~RST*
X59291083Y1912600D02*
X59308696Y1905304D01*
X11176000Y1912600D02*
X59291083Y1912600D01*
X60325304Y888696D02*
X60452000Y582822D01*
X59308696Y1905304D02*
X60325304Y888696D01*
X60452000Y582822D02*
X60452000Y-762000D01*
X60452000Y-762000D02*
X60452000Y-14973494D01*
X60452000Y-14973494D02*
X60452000Y-18796000D01*
X60452000Y-18796000D02*
X59944000Y-19304000D01*
X59944000Y-19304000D02*
X55118000Y-19304000D01*
X55118000Y-19304000D02*
X54535099Y-18721099D01*
X54535099Y-18721099D02*
X54356000Y-18542000D01*
X54356000Y-18542000D02*
X53594000Y-18542000D01*
X53594000Y-18542000D02*
X50038000Y-18542000D01*
X50038000Y-18542000D02*
X49276000Y-18542000D01*
G04 #@! TO.N,Net-(J1-Pad2)*
X43942000Y-25654000D02*
X51308000Y-25654000D01*
X42418000Y-27178000D02*
X43942000Y-25654000D01*
X40386000Y-27178000D02*
X42418000Y-27178000D01*
X39878000Y-27686000D02*
X40386000Y-27178000D01*
G04 #@! TD*
D20*
G04 #@! TO.N,GND*
G36*
X10600033Y1527751D02*
X10791151Y1336633D01*
X11040859Y1233200D01*
X11311141Y1233200D01*
X11560849Y1336633D01*
X11666916Y1442700D01*
X59106762Y1442700D01*
X59926943Y622518D01*
X59982100Y489356D01*
X59982101Y-715720D01*
X59982100Y-715725D01*
X59982101Y-14927214D01*
X59982100Y-14927219D01*
X59982101Y-18601360D01*
X59749362Y-18834100D01*
X58875293Y-18834100D01*
X59234252Y-18594252D01*
X59483871Y-18220670D01*
X59571526Y-17780000D01*
X59483871Y-17339330D01*
X59234252Y-16965748D01*
X58860670Y-16716129D01*
X58531235Y-16650600D01*
X58308765Y-16650600D01*
X57979330Y-16716129D01*
X57605748Y-16965748D01*
X57356129Y-17339330D01*
X57268474Y-17780000D01*
X57356129Y-18220670D01*
X57605748Y-18594252D01*
X57964707Y-18834100D01*
X56335293Y-18834100D01*
X56694252Y-18594252D01*
X56943871Y-18220670D01*
X57031526Y-17780000D01*
X56943871Y-17339330D01*
X56694252Y-16965748D01*
X56320670Y-16716129D01*
X55991235Y-16650600D01*
X55768765Y-16650600D01*
X55439330Y-16716129D01*
X55399511Y-16742735D01*
X55169809Y-16513034D01*
X55167782Y-16510000D01*
X55169809Y-16506966D01*
X55399511Y-16277265D01*
X55439330Y-16303871D01*
X55768765Y-16369400D01*
X55991235Y-16369400D01*
X56320670Y-16303871D01*
X56694252Y-16054252D01*
X56943871Y-15680670D01*
X57031526Y-15240000D01*
X57268474Y-15240000D01*
X57356129Y-15680670D01*
X57605748Y-16054252D01*
X57979330Y-16303871D01*
X58308765Y-16369400D01*
X58531235Y-16369400D01*
X58860670Y-16303871D01*
X59234252Y-16054252D01*
X59483871Y-15680670D01*
X59571526Y-15240000D01*
X59483871Y-14799330D01*
X59234252Y-14425748D01*
X58860670Y-14176129D01*
X58531235Y-14110600D01*
X58308765Y-14110600D01*
X57979330Y-14176129D01*
X57605748Y-14425748D01*
X57356129Y-14799330D01*
X57268474Y-15240000D01*
X57031526Y-15240000D01*
X56943871Y-14799330D01*
X56694252Y-14425748D01*
X56320670Y-14176129D01*
X55991235Y-14110600D01*
X55768765Y-14110600D01*
X55439330Y-14176129D01*
X55065748Y-14425748D01*
X54816129Y-14799330D01*
X54728474Y-15240000D01*
X54816129Y-15680670D01*
X54842735Y-15720489D01*
X54700925Y-15862300D01*
X53274475Y-15862300D01*
X55399511Y-13737265D01*
X55439330Y-13763871D01*
X55768765Y-13829400D01*
X55991235Y-13829400D01*
X56320670Y-13763871D01*
X56694252Y-13514252D01*
X56943871Y-13140670D01*
X57031526Y-12700000D01*
X57268474Y-12700000D01*
X57356129Y-13140670D01*
X57605748Y-13514252D01*
X57979330Y-13763871D01*
X58308765Y-13829400D01*
X58531235Y-13829400D01*
X58860670Y-13763871D01*
X59234252Y-13514252D01*
X59483871Y-13140670D01*
X59571526Y-12700000D01*
X59483871Y-12259330D01*
X59234252Y-11885748D01*
X58860670Y-11636129D01*
X58531235Y-11570600D01*
X58308765Y-11570600D01*
X57979330Y-11636129D01*
X57605748Y-11885748D01*
X57356129Y-12259330D01*
X57268474Y-12700000D01*
X57031526Y-12700000D01*
X56943871Y-12259330D01*
X56694252Y-11885748D01*
X56320670Y-11636129D01*
X55991235Y-11570600D01*
X55768765Y-11570600D01*
X55439330Y-11636129D01*
X55065748Y-11885748D01*
X54816129Y-12259330D01*
X54728474Y-12700000D01*
X54816129Y-13140670D01*
X54842735Y-13180489D01*
X54241700Y-13781524D01*
X54241700Y-12355075D01*
X55399511Y-11197265D01*
X55439330Y-11223871D01*
X55768765Y-11289400D01*
X55991235Y-11289400D01*
X56320670Y-11223871D01*
X56694252Y-10974252D01*
X56943871Y-10600670D01*
X57031526Y-10160000D01*
X57268474Y-10160000D01*
X57356129Y-10600670D01*
X57605748Y-10974252D01*
X57979330Y-11223871D01*
X58308765Y-11289400D01*
X58531235Y-11289400D01*
X58860670Y-11223871D01*
X59234252Y-10974252D01*
X59483871Y-10600670D01*
X59571526Y-10160000D01*
X59483871Y-9719330D01*
X59234252Y-9345748D01*
X58860670Y-9096129D01*
X58531235Y-9030600D01*
X58308765Y-9030600D01*
X57979330Y-9096129D01*
X57605748Y-9345748D01*
X57356129Y-9719330D01*
X57268474Y-10160000D01*
X57031526Y-10160000D01*
X56943871Y-9719330D01*
X56694252Y-9345748D01*
X56320670Y-9096129D01*
X55991235Y-9030600D01*
X55768765Y-9030600D01*
X55439330Y-9096129D01*
X55065748Y-9345748D01*
X54816129Y-9719330D01*
X54728474Y-10160000D01*
X54816129Y-10600670D01*
X54842735Y-10640489D01*
X53733700Y-11749525D01*
X53733700Y-10323075D01*
X55399511Y-8657265D01*
X55439330Y-8683871D01*
X55768765Y-8749400D01*
X55991235Y-8749400D01*
X56320670Y-8683871D01*
X56694252Y-8434252D01*
X56943871Y-8060670D01*
X57031526Y-7620000D01*
X57268474Y-7620000D01*
X57356129Y-8060670D01*
X57605748Y-8434252D01*
X57979330Y-8683871D01*
X58308765Y-8749400D01*
X58531235Y-8749400D01*
X58860670Y-8683871D01*
X59234252Y-8434252D01*
X59483871Y-8060670D01*
X59571526Y-7620000D01*
X59483871Y-7179330D01*
X59234252Y-6805748D01*
X58860670Y-6556129D01*
X58531235Y-6490600D01*
X58308765Y-6490600D01*
X57979330Y-6556129D01*
X57605748Y-6805748D01*
X57356129Y-7179330D01*
X57268474Y-7620000D01*
X57031526Y-7620000D01*
X56943871Y-7179330D01*
X56694252Y-6805748D01*
X56320670Y-6556129D01*
X55991235Y-6490600D01*
X55768765Y-6490600D01*
X55439330Y-6556129D01*
X55065748Y-6805748D01*
X54816129Y-7179330D01*
X54728474Y-7620000D01*
X54816129Y-8060670D01*
X54842735Y-8100489D01*
X53225700Y-9717525D01*
X53225700Y-8291075D01*
X55399511Y-6117265D01*
X55439330Y-6143871D01*
X55768765Y-6209400D01*
X55991235Y-6209400D01*
X56320670Y-6143871D01*
X56694252Y-5894252D01*
X56943871Y-5520670D01*
X57031526Y-5080000D01*
X57268474Y-5080000D01*
X57356129Y-5520670D01*
X57605748Y-5894252D01*
X57979330Y-6143871D01*
X58308765Y-6209400D01*
X58531235Y-6209400D01*
X58860670Y-6143871D01*
X59234252Y-5894252D01*
X59483871Y-5520670D01*
X59571526Y-5080000D01*
X59483871Y-4639330D01*
X59234252Y-4265748D01*
X58860670Y-4016129D01*
X58531235Y-3950600D01*
X58308765Y-3950600D01*
X57979330Y-4016129D01*
X57605748Y-4265748D01*
X57356129Y-4639330D01*
X57268474Y-5080000D01*
X57031526Y-5080000D01*
X56943871Y-4639330D01*
X56694252Y-4265748D01*
X56320670Y-4016129D01*
X55991235Y-3950600D01*
X55768765Y-3950600D01*
X55439330Y-4016129D01*
X55065748Y-4265748D01*
X54816129Y-4639330D01*
X54728474Y-5080000D01*
X54816129Y-5520670D01*
X54842735Y-5560489D01*
X52717700Y-7685525D01*
X52717700Y-6259075D01*
X55399511Y-3577265D01*
X55439330Y-3603871D01*
X55768765Y-3669400D01*
X55991235Y-3669400D01*
X56320670Y-3603871D01*
X56694252Y-3354252D01*
X56943871Y-2980670D01*
X57031526Y-2540000D01*
X57268474Y-2540000D01*
X57356129Y-2980670D01*
X57605748Y-3354252D01*
X57979330Y-3603871D01*
X58308765Y-3669400D01*
X58531235Y-3669400D01*
X58860670Y-3603871D01*
X59234252Y-3354252D01*
X59483871Y-2980670D01*
X59571526Y-2540000D01*
X59483871Y-2099330D01*
X59234252Y-1725748D01*
X58860670Y-1476129D01*
X58531235Y-1410600D01*
X58308765Y-1410600D01*
X57979330Y-1476129D01*
X57605748Y-1725748D01*
X57356129Y-2099330D01*
X57268474Y-2540000D01*
X57031526Y-2540000D01*
X56943871Y-2099330D01*
X56694252Y-1725748D01*
X56320670Y-1476129D01*
X55991235Y-1410600D01*
X55768765Y-1410600D01*
X55439330Y-1476129D01*
X55065748Y-1725748D01*
X54816129Y-2099330D01*
X54728474Y-2540000D01*
X54816129Y-2980670D01*
X54842735Y-3020489D01*
X52073034Y-5790191D01*
X52040158Y-5812158D01*
X51961421Y-5929998D01*
X51953143Y-5942387D01*
X51922587Y-6096000D01*
X51930300Y-6134775D01*
X51930301Y-13044923D01*
X51652925Y-13322300D01*
X30264776Y-13322300D01*
X30226000Y-13314587D01*
X30187224Y-13322300D01*
X30072386Y-13345143D01*
X29942158Y-13432158D01*
X29920193Y-13465031D01*
X27943034Y-15442191D01*
X27910158Y-15464158D01*
X27823144Y-15594386D01*
X27823143Y-15594387D01*
X27792587Y-15748000D01*
X27800300Y-15786775D01*
X27800301Y-21805219D01*
X27800300Y-21805224D01*
X27800300Y-22188924D01*
X27689030Y-22300194D01*
X27435031Y-22554194D01*
X27402159Y-22576158D01*
X27380195Y-22609030D01*
X27380194Y-22609031D01*
X27315143Y-22706387D01*
X27284587Y-22860000D01*
X27292301Y-22898780D01*
X27292300Y-27268924D01*
X27181031Y-27380194D01*
X27148159Y-27402158D01*
X27126194Y-27435031D01*
X27061143Y-27532387D01*
X27030587Y-27686000D01*
X27038301Y-27724780D01*
X27038300Y-28284925D01*
X26419032Y-28904193D01*
X26386159Y-28926158D01*
X26364195Y-28959030D01*
X26364194Y-28959031D01*
X26299143Y-29056387D01*
X26268587Y-29210000D01*
X26276301Y-29248780D01*
X26276300Y-31944884D01*
X26094033Y-32127151D01*
X25990600Y-32376859D01*
X25990600Y-32647141D01*
X26094033Y-32896849D01*
X26285151Y-33087967D01*
X26534859Y-33191400D01*
X26805141Y-33191400D01*
X27054849Y-33087967D01*
X27245967Y-32896849D01*
X27349400Y-32647141D01*
X27349400Y-32429400D01*
X27567141Y-32429400D01*
X27816849Y-32325967D01*
X28007967Y-32134849D01*
X28111400Y-31885141D01*
X28111400Y-31667400D01*
X28329141Y-31667400D01*
X28578849Y-31563967D01*
X28769967Y-31372849D01*
X28873400Y-31123141D01*
X28873400Y-30852859D01*
X28769967Y-30603151D01*
X28587700Y-30420884D01*
X28587700Y-30046822D01*
X28820859Y-30143400D01*
X29038600Y-30143400D01*
X29038600Y-30361141D01*
X29142033Y-30610849D01*
X29333151Y-30801967D01*
X29475668Y-30861000D01*
X29333151Y-30920033D01*
X29142033Y-31111151D01*
X29038600Y-31360859D01*
X29038600Y-31631141D01*
X29142033Y-31880849D01*
X29333151Y-32071967D01*
X29582859Y-32175400D01*
X29800600Y-32175400D01*
X29800600Y-32393141D01*
X29904033Y-32642849D01*
X30086301Y-32825117D01*
X30086300Y-34836775D01*
X30086301Y-34836780D01*
X30086300Y-41342884D01*
X29904033Y-41525151D01*
X29800600Y-41774859D01*
X29800600Y-42045141D01*
X29904033Y-42294849D01*
X30095151Y-42485967D01*
X30344859Y-42589400D01*
X30615141Y-42589400D01*
X30864849Y-42485967D01*
X31055967Y-42294849D01*
X31159400Y-42045141D01*
X31159400Y-41774859D01*
X31055967Y-41525151D01*
X30873700Y-41342884D01*
X30873700Y-39698822D01*
X31106859Y-39795400D01*
X31377141Y-39795400D01*
X31626849Y-39691967D01*
X31817967Y-39500849D01*
X31921400Y-39251141D01*
X31921400Y-38980859D01*
X31817967Y-38731151D01*
X31635700Y-38548884D01*
X31635700Y-35888822D01*
X31868859Y-35985400D01*
X32139141Y-35985400D01*
X32388849Y-35881967D01*
X32579967Y-35690849D01*
X32683400Y-35441141D01*
X32683400Y-35170859D01*
X32579967Y-34921151D01*
X32397700Y-34738884D01*
X32397700Y-33602822D01*
X32630859Y-33699400D01*
X32901141Y-33699400D01*
X33150849Y-33595967D01*
X33341967Y-33404849D01*
X33445400Y-33155141D01*
X33445400Y-32884859D01*
X33341967Y-32635151D01*
X33159700Y-32452884D01*
X33159700Y-32063116D01*
X33341967Y-31880849D01*
X33445400Y-31631141D01*
X33445400Y-31360859D01*
X33341967Y-31111151D01*
X33150849Y-30920033D01*
X32901141Y-30816600D01*
X32630859Y-30816600D01*
X32381151Y-30920033D01*
X32190033Y-31111151D01*
X32086600Y-31360859D01*
X32086600Y-31578600D01*
X31921400Y-31578600D01*
X31921400Y-31360859D01*
X31817967Y-31111151D01*
X31626849Y-30920033D01*
X31377141Y-30816600D01*
X31106859Y-30816600D01*
X31030175Y-30848364D01*
X31417540Y-30460999D01*
X38686461Y-30460999D01*
X39154100Y-30928639D01*
X39154101Y-34581217D01*
X39144896Y-34627494D01*
X39181365Y-34810839D01*
X39259009Y-34927041D01*
X39259011Y-34927043D01*
X39285223Y-34966272D01*
X39324452Y-34992484D01*
X39685515Y-35353548D01*
X39711728Y-35392778D01*
X39750957Y-35418990D01*
X39750958Y-35418991D01*
X39756744Y-35422857D01*
X39867160Y-35496635D01*
X40004230Y-35523900D01*
X40004234Y-35523900D01*
X40050506Y-35533104D01*
X40096778Y-35523900D01*
X45568425Y-35523900D01*
X45615317Y-35637108D01*
X45904892Y-35926683D01*
X46283240Y-36083400D01*
X46692760Y-36083400D01*
X46726288Y-36069512D01*
X50918600Y-36069512D01*
X50918600Y-36578488D01*
X51113377Y-37048722D01*
X51473278Y-37408623D01*
X51943512Y-37603400D01*
X52452488Y-37603400D01*
X52922722Y-37408623D01*
X53282623Y-37048722D01*
X53477400Y-36578488D01*
X53477400Y-36069512D01*
X53282623Y-35599278D01*
X52922722Y-35239377D01*
X52452488Y-35044600D01*
X51943512Y-35044600D01*
X51473278Y-35239377D01*
X51113377Y-35599278D01*
X50918600Y-36069512D01*
X46726288Y-36069512D01*
X47071108Y-35926683D01*
X47360683Y-35637108D01*
X47517400Y-35258760D01*
X47517400Y-34849240D01*
X47360683Y-34470892D01*
X47320790Y-34430999D01*
X51844629Y-34430999D01*
X51890901Y-34440203D01*
X51937173Y-34430999D01*
X51937177Y-34430999D01*
X52074247Y-34403734D01*
X52229679Y-34299877D01*
X52255893Y-34260645D01*
X52351347Y-34165191D01*
X53723600Y-34165191D01*
X53723600Y-34922809D01*
X54013528Y-35622756D01*
X54549244Y-36158472D01*
X55249191Y-36448400D01*
X56006809Y-36448400D01*
X56706756Y-36158472D01*
X57242472Y-35622756D01*
X57532400Y-34922809D01*
X57532400Y-34165191D01*
X57242472Y-33465244D01*
X56706756Y-32929528D01*
X56006809Y-32639600D01*
X55249191Y-32639600D01*
X54549244Y-32929528D01*
X54013528Y-33465244D01*
X53723600Y-34165191D01*
X52351347Y-34165191D01*
X54655549Y-31860990D01*
X54694778Y-31834778D01*
X54735390Y-31773999D01*
X54798635Y-31679346D01*
X54807825Y-31633143D01*
X54825900Y-31542276D01*
X54825900Y-31542273D01*
X54835104Y-31496001D01*
X54825900Y-31449729D01*
X54825900Y-27988272D01*
X54835104Y-27942000D01*
X54825900Y-27895728D01*
X54825900Y-27895724D01*
X54798635Y-27758654D01*
X54724631Y-27647900D01*
X54720991Y-27642452D01*
X54720990Y-27642451D01*
X54694778Y-27603222D01*
X54655548Y-27577009D01*
X54070507Y-26991969D01*
X54117400Y-26878760D01*
X54117400Y-26469240D01*
X53960683Y-26090892D01*
X53671108Y-25801317D01*
X53351360Y-25668873D01*
X53838000Y-25668873D01*
X53947016Y-25647188D01*
X54039436Y-25585436D01*
X54101188Y-25493016D01*
X54122873Y-25384000D01*
X54122873Y-23884000D01*
X54101188Y-23774984D01*
X54039436Y-23682564D01*
X53947016Y-23620812D01*
X53838000Y-23599127D01*
X52338000Y-23599127D01*
X52228984Y-23620812D01*
X52136564Y-23682564D01*
X52074812Y-23774984D01*
X52053127Y-23884000D01*
X52053127Y-23914100D01*
X47721370Y-23914100D01*
X47675098Y-23904896D01*
X47628826Y-23914100D01*
X47628823Y-23914100D01*
X47491753Y-23941365D01*
X47462723Y-23960762D01*
X47517400Y-23828760D01*
X47517400Y-23419240D01*
X47360683Y-23040892D01*
X47071108Y-22751317D01*
X46692760Y-22594600D01*
X46283240Y-22594600D01*
X45904892Y-22751317D01*
X45615317Y-23040892D01*
X45568425Y-23154100D01*
X37636272Y-23154100D01*
X37590000Y-23144896D01*
X37543728Y-23154100D01*
X37543724Y-23154100D01*
X37406654Y-23181365D01*
X37323165Y-23237151D01*
X37302225Y-23251143D01*
X37251222Y-23285222D01*
X37225009Y-23324452D01*
X36381362Y-24168100D01*
X34704716Y-24168100D01*
X34780916Y-24091900D01*
X35767728Y-24091900D01*
X35814000Y-24101104D01*
X35860272Y-24091900D01*
X35860276Y-24091900D01*
X35997346Y-24064635D01*
X36152778Y-23960778D01*
X36178992Y-23921546D01*
X36621548Y-23478991D01*
X36660778Y-23452778D01*
X36691517Y-23406775D01*
X36764635Y-23297346D01*
X36770549Y-23267613D01*
X36791900Y-23160276D01*
X36791900Y-23160273D01*
X36801104Y-23114001D01*
X36791900Y-23067729D01*
X36791900Y-21129240D01*
X45458600Y-21129240D01*
X45458600Y-21538760D01*
X45615317Y-21917108D01*
X45904892Y-22206683D01*
X46283240Y-22363400D01*
X46692760Y-22363400D01*
X47071108Y-22206683D01*
X47360683Y-21917108D01*
X47517400Y-21538760D01*
X47517400Y-21465191D01*
X53723600Y-21465191D01*
X53723600Y-22222809D01*
X54013528Y-22922756D01*
X54549244Y-23458472D01*
X55249191Y-23748400D01*
X56006809Y-23748400D01*
X56706756Y-23458472D01*
X57242472Y-22922756D01*
X57532400Y-22222809D01*
X57532400Y-21465191D01*
X57242472Y-20765244D01*
X56706756Y-20229528D01*
X56006809Y-19939600D01*
X55249191Y-19939600D01*
X54549244Y-20229528D01*
X54013528Y-20765244D01*
X53723600Y-21465191D01*
X47517400Y-21465191D01*
X47517400Y-21129240D01*
X47360683Y-20750892D01*
X47071108Y-20461317D01*
X46692760Y-20304600D01*
X46283240Y-20304600D01*
X45904892Y-20461317D01*
X45615317Y-20750892D01*
X45458600Y-21129240D01*
X36791900Y-21129240D01*
X36791900Y-18778916D01*
X36897967Y-18672849D01*
X37001400Y-18423141D01*
X37001400Y-18152859D01*
X36897967Y-17903151D01*
X36706849Y-17712033D01*
X36457141Y-17608600D01*
X36186859Y-17608600D01*
X35937151Y-17712033D01*
X35746033Y-17903151D01*
X35642600Y-18152859D01*
X35642600Y-18423141D01*
X35746033Y-18672849D01*
X35852100Y-18778916D01*
X35852101Y-22919360D01*
X35619362Y-23152100D01*
X34780916Y-23152100D01*
X34674849Y-23046033D01*
X34425141Y-22942600D01*
X34154859Y-22942600D01*
X33905151Y-23046033D01*
X33714033Y-23237151D01*
X33610600Y-23486859D01*
X33610600Y-23757141D01*
X33714033Y-24006849D01*
X33875284Y-24168100D01*
X32812272Y-24168100D01*
X32766000Y-24158896D01*
X32719728Y-24168100D01*
X32719724Y-24168100D01*
X32582654Y-24195365D01*
X32505591Y-24246857D01*
X32470058Y-24270600D01*
X32427222Y-24299222D01*
X32401009Y-24338452D01*
X31921400Y-24818061D01*
X31921400Y-24756859D01*
X31817967Y-24507151D01*
X31635700Y-24324884D01*
X31635700Y-17435075D01*
X31913076Y-17157700D01*
X54700925Y-17157700D01*
X54842735Y-17299511D01*
X54816129Y-17339330D01*
X54728474Y-17780000D01*
X54816129Y-18220670D01*
X55051567Y-18573029D01*
X54720992Y-18242454D01*
X54694778Y-18203222D01*
X54539346Y-18099365D01*
X54402276Y-18072100D01*
X54402272Y-18072100D01*
X54356000Y-18062896D01*
X54309728Y-18072100D01*
X49766916Y-18072100D01*
X49660849Y-17966033D01*
X49411141Y-17862600D01*
X49140859Y-17862600D01*
X48891151Y-17966033D01*
X48700033Y-18157151D01*
X48596600Y-18406859D01*
X48596600Y-18677141D01*
X48700033Y-18926849D01*
X48891151Y-19117967D01*
X49140859Y-19221400D01*
X49411141Y-19221400D01*
X49660849Y-19117967D01*
X49766916Y-19011900D01*
X51440755Y-19011900D01*
X51113377Y-19339278D01*
X50918600Y-19809512D01*
X50918600Y-20318488D01*
X51113377Y-20788722D01*
X51473278Y-21148623D01*
X51943512Y-21343400D01*
X52452488Y-21343400D01*
X52922722Y-21148623D01*
X53282623Y-20788722D01*
X53477400Y-20318488D01*
X53477400Y-19809512D01*
X53282623Y-19339278D01*
X52955245Y-19011900D01*
X54161362Y-19011900D01*
X54170108Y-19020646D01*
X54753009Y-19603548D01*
X54779222Y-19642778D01*
X54818451Y-19668990D01*
X54818452Y-19668991D01*
X54827231Y-19674857D01*
X54934654Y-19746635D01*
X55071724Y-19773900D01*
X55071727Y-19773900D01*
X55117999Y-19783104D01*
X55164271Y-19773900D01*
X59897728Y-19773900D01*
X59944000Y-19783104D01*
X59990272Y-19773900D01*
X59990276Y-19773900D01*
X60127346Y-19746635D01*
X60282778Y-19642778D01*
X60308992Y-19603546D01*
X60605600Y-19306938D01*
X60605601Y-38297042D01*
X59472577Y-37164018D01*
X57965581Y-36539800D01*
X56334419Y-36539800D01*
X54827423Y-37164018D01*
X53674018Y-38317423D01*
X53049800Y-39824419D01*
X53049800Y-41455581D01*
X53674018Y-42962577D01*
X54807041Y-44095600D01*
X22294Y-44095600D01*
X-542834Y-44024208D01*
X-1051566Y-43822787D01*
X-1494219Y-43501180D01*
X-1842985Y-43079594D01*
X-2075950Y-42584517D01*
X-2181639Y-42030475D01*
X-2185600Y-41904437D01*
X-2185600Y-22293D01*
X-2171700Y87736D01*
X-2171699Y-22821219D01*
X-2179413Y-22860000D01*
X-2171700Y-22898776D01*
X-2171699Y-41363220D01*
X-2179413Y-41402000D01*
X-2148857Y-41555613D01*
X-2139463Y-41569672D01*
X-2061841Y-41685842D01*
X-2028968Y-41707807D01*
X-1067807Y-42668969D01*
X-1045842Y-42701842D01*
X-915614Y-42788857D01*
X-837379Y-42804419D01*
X-762000Y-42819413D01*
X-723224Y-42811700D01*
X3263225Y-42811700D01*
X3302000Y-42819413D01*
X3340775Y-42811700D01*
X3340776Y-42811700D01*
X3455614Y-42788857D01*
X3585842Y-42701842D01*
X3607809Y-42668966D01*
X4568970Y-41707806D01*
X4601842Y-41685842D01*
X4688857Y-41555614D01*
X4711700Y-41440776D01*
X4711700Y-41440775D01*
X4719413Y-41402000D01*
X4711700Y-41363224D01*
X4711700Y-40504859D01*
X13798600Y-40504859D01*
X13798600Y-40775141D01*
X13902033Y-41024849D01*
X14093151Y-41215967D01*
X14342859Y-41319400D01*
X14613141Y-41319400D01*
X14659011Y-41300400D01*
X15312989Y-41300400D01*
X15358859Y-41319400D01*
X15629141Y-41319400D01*
X15675011Y-41300400D01*
X16328989Y-41300400D01*
X16374859Y-41319400D01*
X16645141Y-41319400D01*
X16691011Y-41300400D01*
X21916989Y-41300400D01*
X21962859Y-41319400D01*
X22233141Y-41319400D01*
X22279011Y-41300400D01*
X22932989Y-41300400D01*
X22978859Y-41319400D01*
X23249141Y-41319400D01*
X23295011Y-41300400D01*
X23948989Y-41300400D01*
X23994859Y-41319400D01*
X24265141Y-41319400D01*
X24311011Y-41300400D01*
X26996989Y-41300400D01*
X27042859Y-41319400D01*
X27313141Y-41319400D01*
X27562849Y-41215967D01*
X27753967Y-41024849D01*
X27857400Y-40775141D01*
X27857400Y-40504859D01*
X27838400Y-40458989D01*
X27838400Y-35233011D01*
X27857400Y-35187141D01*
X27857400Y-34916859D01*
X27753967Y-34667151D01*
X27562849Y-34476033D01*
X27313141Y-34372600D01*
X27042859Y-34372600D01*
X26793151Y-34476033D01*
X26602033Y-34667151D01*
X26498600Y-34916859D01*
X26498600Y-35187141D01*
X26517600Y-35233011D01*
X26517601Y-39979600D01*
X24311011Y-39979600D01*
X24265141Y-39960600D01*
X23994859Y-39960600D01*
X23948989Y-39979600D01*
X23295011Y-39979600D01*
X23249141Y-39960600D01*
X22978859Y-39960600D01*
X22932989Y-39979600D01*
X22279011Y-39979600D01*
X22233141Y-39960600D01*
X21962859Y-39960600D01*
X21916989Y-39979600D01*
X16691011Y-39979600D01*
X16645141Y-39960600D01*
X16374859Y-39960600D01*
X16328989Y-39979600D01*
X15675011Y-39979600D01*
X15629141Y-39960600D01*
X15358859Y-39960600D01*
X15312989Y-39979600D01*
X14659011Y-39979600D01*
X14613141Y-39960600D01*
X14342859Y-39960600D01*
X14093151Y-40064033D01*
X13902033Y-40255151D01*
X13798600Y-40504859D01*
X4711700Y-40504859D01*
X4711700Y-39025075D01*
X4989076Y-38747700D01*
X10629225Y-38747700D01*
X10668000Y-38755413D01*
X10706775Y-38747700D01*
X10706776Y-38747700D01*
X10821614Y-38724857D01*
X10951842Y-38637842D01*
X10973809Y-38604966D01*
X12188970Y-37389806D01*
X12221842Y-37367842D01*
X12308857Y-37237614D01*
X12331700Y-37122776D01*
X12331700Y-37122775D01*
X12339413Y-37084001D01*
X12331700Y-37045227D01*
X12331700Y-33697512D01*
X12576849Y-33595967D01*
X12767967Y-33404849D01*
X12871400Y-33155141D01*
X12871400Y-32884859D01*
X12767967Y-32635151D01*
X12576849Y-32444033D01*
X12327141Y-32340600D01*
X12056859Y-32340600D01*
X11807151Y-32444033D01*
X11616033Y-32635151D01*
X11512600Y-32884859D01*
X11512600Y-32932048D01*
X11311141Y-32848600D01*
X11040859Y-32848600D01*
X10807700Y-32945178D01*
X10807700Y-31788773D01*
X10815413Y-31749999D01*
X10801359Y-31679346D01*
X10784857Y-31596386D01*
X10697842Y-31466158D01*
X10664970Y-31444194D01*
X9537700Y-30316925D01*
X9537700Y-19930859D01*
X15830600Y-19930859D01*
X15830600Y-20201141D01*
X15934033Y-20450849D01*
X16125151Y-20641967D01*
X16374859Y-20745400D01*
X16645141Y-20745400D01*
X16894849Y-20641967D01*
X17077116Y-20459700D01*
X17253008Y-20459700D01*
X17141151Y-20506033D01*
X16950033Y-20697151D01*
X16846600Y-20946859D01*
X16846600Y-21217141D01*
X16950033Y-21466849D01*
X17141151Y-21657967D01*
X17390859Y-21761400D01*
X17661141Y-21761400D01*
X17707011Y-21742400D01*
X18268455Y-21742400D01*
X19471033Y-22944980D01*
X19490033Y-22990849D01*
X19681151Y-23181967D01*
X19930859Y-23285400D01*
X20201141Y-23285400D01*
X20247011Y-23266400D01*
X20900989Y-23266400D01*
X20946859Y-23285400D01*
X21217141Y-23285400D01*
X21466849Y-23181967D01*
X21657967Y-22990849D01*
X21761400Y-22741141D01*
X21761400Y-22470859D01*
X21657967Y-22221151D01*
X21466849Y-22030033D01*
X21217141Y-21926600D01*
X20946859Y-21926600D01*
X20900989Y-21945600D01*
X20339547Y-21945600D01*
X19136968Y-20743022D01*
X19117967Y-20697151D01*
X18926849Y-20506033D01*
X18814992Y-20459700D01*
X19773225Y-20459700D01*
X19812000Y-20467413D01*
X19850775Y-20459700D01*
X19850776Y-20459700D01*
X19965614Y-20436857D01*
X20095842Y-20349842D01*
X20117809Y-20316966D01*
X21213376Y-19221400D01*
X21471141Y-19221400D01*
X21720849Y-19117967D01*
X21911967Y-18926849D01*
X22015400Y-18677141D01*
X22015400Y-18406859D01*
X21911967Y-18157151D01*
X21720849Y-17966033D01*
X21471141Y-17862600D01*
X21200859Y-17862600D01*
X20951151Y-17966033D01*
X20760033Y-18157151D01*
X20656600Y-18406859D01*
X20656600Y-18664624D01*
X19648925Y-19672300D01*
X17077116Y-19672300D01*
X16894849Y-19490033D01*
X16645141Y-19386600D01*
X16374859Y-19386600D01*
X16125151Y-19490033D01*
X15934033Y-19681151D01*
X15830600Y-19930859D01*
X9537700Y-19930859D01*
X9537700Y-17181075D01*
X9705088Y-17013688D01*
X9776259Y-17084859D01*
X10025967Y-17188292D01*
X10296249Y-17188292D01*
X10545957Y-17084859D01*
X10737075Y-16893741D01*
X10840508Y-16644033D01*
X10840508Y-16427400D01*
X11057141Y-16427400D01*
X11306849Y-16323967D01*
X11497967Y-16132849D01*
X11601400Y-15883141D01*
X11601400Y-15612859D01*
X11497967Y-15363151D01*
X11306849Y-15172033D01*
X11057141Y-15068600D01*
X10786859Y-15068600D01*
X10537151Y-15172033D01*
X10354884Y-15354300D01*
X9690776Y-15354300D01*
X9652000Y-15346587D01*
X9613224Y-15354300D01*
X9498386Y-15377143D01*
X9368158Y-15464158D01*
X9346193Y-15497031D01*
X8385032Y-16458193D01*
X8352159Y-16480158D01*
X8330194Y-16513031D01*
X8265143Y-16610387D01*
X8234587Y-16764000D01*
X8242301Y-16802780D01*
X8242301Y-23039178D01*
X8009141Y-22942600D01*
X7759700Y-22942600D01*
X7759700Y-18672037D01*
X7909549Y-18609967D01*
X8100667Y-18418849D01*
X8204100Y-18169141D01*
X8204100Y-17898859D01*
X8100667Y-17649151D01*
X7909549Y-17458033D01*
X7659841Y-17354600D01*
X7389559Y-17354600D01*
X7251700Y-17411703D01*
X7251700Y-16171512D01*
X7496849Y-16069967D01*
X7687967Y-15878849D01*
X7791400Y-15629141D01*
X7791400Y-15358859D01*
X7687967Y-15109151D01*
X7496849Y-14918033D01*
X7247141Y-14814600D01*
X6976859Y-14814600D01*
X6743700Y-14911178D01*
X6743700Y-13631512D01*
X6988849Y-13529967D01*
X7179967Y-13338849D01*
X7283400Y-13089141D01*
X7283400Y-12818859D01*
X7179967Y-12569151D01*
X6988849Y-12378033D01*
X6739141Y-12274600D01*
X6468859Y-12274600D01*
X6235700Y-12371178D01*
X6235700Y-11091512D01*
X6480849Y-10989967D01*
X6671967Y-10798849D01*
X6775400Y-10549141D01*
X6775400Y-10278859D01*
X6671967Y-10029151D01*
X6480849Y-9838033D01*
X6231141Y-9734600D01*
X5960859Y-9734600D01*
X5727700Y-9831178D01*
X5727700Y-1816769D01*
X5735412Y-1777999D01*
X5727700Y-1739229D01*
X5727700Y-1739224D01*
X5704857Y-1624386D01*
X5617842Y-1494158D01*
X5584970Y-1472194D01*
X5131808Y-1019033D01*
X5109842Y-986158D01*
X4979614Y-899143D01*
X4864776Y-876300D01*
X4864775Y-876300D01*
X4826000Y-868587D01*
X4787225Y-876300D01*
X3669642Y-876300D01*
X3674873Y-850000D01*
X3674873Y850000D01*
X3653188Y959016D01*
X3591436Y1051436D01*
X3499016Y1113188D01*
X3390000Y1134873D01*
X1690000Y1134873D01*
X1580984Y1113188D01*
X1488564Y1051436D01*
X1426812Y959016D01*
X1405127Y850000D01*
X1405127Y-848352D01*
X1321808Y-765032D01*
X1037265Y-480489D01*
X1063871Y-440670D01*
X1151526Y0D01*
X1063871Y440670D01*
X814252Y814252D01*
X440670Y1063871D01*
X365582Y1078807D01*
X671076Y1384300D01*
X8218925Y1384300D01*
X8496300Y1106924D01*
X8496301Y-1474883D01*
X8314033Y-1657151D01*
X8210600Y-1906859D01*
X8210600Y-2177141D01*
X8314033Y-2426849D01*
X8505151Y-2617967D01*
X8610600Y-2661646D01*
X8610600Y-2692354D01*
X8505151Y-2736033D01*
X8314033Y-2927151D01*
X8210600Y-3176859D01*
X8210600Y-3447141D01*
X8314033Y-3696849D01*
X8505151Y-3887967D01*
X8754859Y-3991400D01*
X9025141Y-3991400D01*
X9274849Y-3887967D01*
X9465967Y-3696849D01*
X9513788Y-3581400D01*
X9536212Y-3581400D01*
X9584033Y-3696849D01*
X9766300Y-3879116D01*
X9766301Y-4533220D01*
X9758587Y-4572000D01*
X9789143Y-4725613D01*
X9821604Y-4774194D01*
X9876159Y-4855842D01*
X9909031Y-4877806D01*
X10362193Y-5330969D01*
X10384158Y-5363842D01*
X10514386Y-5450857D01*
X10629224Y-5473700D01*
X10629229Y-5473700D01*
X10667999Y-5481412D01*
X10706769Y-5473700D01*
X13402884Y-5473700D01*
X13585151Y-5655967D01*
X13834859Y-5759400D01*
X14105141Y-5759400D01*
X14354849Y-5655967D01*
X14545967Y-5464849D01*
X14649400Y-5215141D01*
X14649400Y-4997400D01*
X14867141Y-4997400D01*
X15116849Y-4893967D01*
X15307967Y-4702849D01*
X15411400Y-4453141D01*
X15411400Y-4182859D01*
X15307967Y-3933151D01*
X15116849Y-3742033D01*
X14867141Y-3638600D01*
X14596859Y-3638600D01*
X14564552Y-3651982D01*
X14649400Y-3447141D01*
X14649400Y-3176859D01*
X14545967Y-2927151D01*
X14354849Y-2736033D01*
X14212332Y-2677000D01*
X14354849Y-2617967D01*
X14432816Y-2540000D01*
X21708474Y-2540000D01*
X21796129Y-2980670D01*
X22045748Y-3354252D01*
X22419330Y-3603871D01*
X22748765Y-3669400D01*
X22971235Y-3669400D01*
X23300670Y-3603871D01*
X23674252Y-3354252D01*
X23923871Y-2980670D01*
X24011526Y-2540000D01*
X24248474Y-2540000D01*
X24336129Y-2980670D01*
X24585748Y-3354252D01*
X24959330Y-3603871D01*
X25288765Y-3669400D01*
X25511235Y-3669400D01*
X25840670Y-3603871D01*
X26214252Y-3354252D01*
X26463871Y-2980670D01*
X26551526Y-2540000D01*
X39488474Y-2540000D01*
X39576129Y-2980670D01*
X39825748Y-3354252D01*
X40199330Y-3603871D01*
X40528765Y-3669400D01*
X40751235Y-3669400D01*
X41080670Y-3603871D01*
X41454252Y-3354252D01*
X41703871Y-2980670D01*
X41791526Y-2540000D01*
X41703871Y-2099330D01*
X41454252Y-1725748D01*
X41080670Y-1476129D01*
X40751235Y-1410600D01*
X40528765Y-1410600D01*
X40199330Y-1476129D01*
X39825748Y-1725748D01*
X39576129Y-2099330D01*
X39488474Y-2540000D01*
X26551526Y-2540000D01*
X26463871Y-2099330D01*
X26214252Y-1725748D01*
X25840670Y-1476129D01*
X25511235Y-1410600D01*
X25288765Y-1410600D01*
X24959330Y-1476129D01*
X24585748Y-1725748D01*
X24336129Y-2099330D01*
X24248474Y-2540000D01*
X24011526Y-2540000D01*
X23923871Y-2099330D01*
X23674252Y-1725748D01*
X23300670Y-1476129D01*
X22971235Y-1410600D01*
X22748765Y-1410600D01*
X22419330Y-1476129D01*
X22045748Y-1725748D01*
X21796129Y-2099330D01*
X21708474Y-2540000D01*
X14432816Y-2540000D01*
X14545967Y-2426849D01*
X14649400Y-2177141D01*
X14649400Y-1906859D01*
X14545967Y-1657151D01*
X14354849Y-1466033D01*
X14105141Y-1362600D01*
X13834859Y-1362600D01*
X13585151Y-1466033D01*
X13394033Y-1657151D01*
X13290600Y-1906859D01*
X13290600Y-2177141D01*
X13394033Y-2426849D01*
X13585151Y-2617967D01*
X13727668Y-2677000D01*
X13585151Y-2736033D01*
X13394033Y-2927151D01*
X13335000Y-3069668D01*
X13275967Y-2927151D01*
X13084849Y-2736033D01*
X12835141Y-2632600D01*
X12564859Y-2632600D01*
X12315151Y-2736033D01*
X12124033Y-2927151D01*
X12065000Y-3069668D01*
X12005967Y-2927151D01*
X11814849Y-2736033D01*
X11565141Y-2632600D01*
X11294859Y-2632600D01*
X11045151Y-2736033D01*
X10854033Y-2927151D01*
X10814497Y-3022600D01*
X10775503Y-3022600D01*
X10735967Y-2927151D01*
X10544849Y-2736033D01*
X10439400Y-2692354D01*
X10439400Y-2661646D01*
X10544849Y-2617967D01*
X10735967Y-2426849D01*
X10839400Y-2177141D01*
X10839400Y-1906859D01*
X10735967Y-1657151D01*
X10553700Y-1474884D01*
X10553700Y0D01*
X21708474Y0D01*
X21796129Y-440670D01*
X22045748Y-814252D01*
X22419330Y-1063871D01*
X22748765Y-1129400D01*
X22971235Y-1129400D01*
X23300670Y-1063871D01*
X23674252Y-814252D01*
X23923871Y-440670D01*
X24011526Y0D01*
X39488474Y0D01*
X39576129Y-440670D01*
X39825748Y-814252D01*
X40199330Y-1063871D01*
X40528765Y-1129400D01*
X40751235Y-1129400D01*
X41080670Y-1063871D01*
X41454252Y-814252D01*
X41703871Y-440670D01*
X41791526Y0D01*
X54728474Y0D01*
X54816129Y-440670D01*
X55065748Y-814252D01*
X55439330Y-1063871D01*
X55768765Y-1129400D01*
X55991235Y-1129400D01*
X56320670Y-1063871D01*
X56694252Y-814252D01*
X56943871Y-440670D01*
X57031526Y0D01*
X56943871Y440670D01*
X56694252Y814252D01*
X56640752Y850000D01*
X57285127Y850000D01*
X57285127Y-850000D01*
X57306812Y-959016D01*
X57368564Y-1051436D01*
X57460984Y-1113188D01*
X57570000Y-1134873D01*
X59270000Y-1134873D01*
X59379016Y-1113188D01*
X59471436Y-1051436D01*
X59533188Y-959016D01*
X59554873Y-850000D01*
X59554873Y850000D01*
X59533188Y959016D01*
X59471436Y1051436D01*
X59379016Y1113188D01*
X59270000Y1134873D01*
X57570000Y1134873D01*
X57460984Y1113188D01*
X57368564Y1051436D01*
X57306812Y959016D01*
X57285127Y850000D01*
X56640752Y850000D01*
X56320670Y1063871D01*
X55991235Y1129400D01*
X55768765Y1129400D01*
X55439330Y1063871D01*
X55065748Y814252D01*
X54816129Y440670D01*
X54728474Y0D01*
X41791526Y0D01*
X41703871Y440670D01*
X41454252Y814252D01*
X41080670Y1063871D01*
X40751235Y1129400D01*
X40528765Y1129400D01*
X40199330Y1063871D01*
X39825748Y814252D01*
X39576129Y440670D01*
X39488474Y0D01*
X24011526Y0D01*
X23923871Y440670D01*
X23674252Y814252D01*
X23300670Y1063871D01*
X22971235Y1129400D01*
X22748765Y1129400D01*
X22419330Y1063871D01*
X22045748Y814252D01*
X21796129Y440670D01*
X21708474Y0D01*
X10553700Y0D01*
X10553700Y1639608D01*
X10600033Y1527751D01*
X10600033Y1527751D01*
G37*
X10600033Y1527751D02*
X10791151Y1336633D01*
X11040859Y1233200D01*
X11311141Y1233200D01*
X11560849Y1336633D01*
X11666916Y1442700D01*
X59106762Y1442700D01*
X59926943Y622518D01*
X59982100Y489356D01*
X59982101Y-715720D01*
X59982100Y-715725D01*
X59982101Y-14927214D01*
X59982100Y-14927219D01*
X59982101Y-18601360D01*
X59749362Y-18834100D01*
X58875293Y-18834100D01*
X59234252Y-18594252D01*
X59483871Y-18220670D01*
X59571526Y-17780000D01*
X59483871Y-17339330D01*
X59234252Y-16965748D01*
X58860670Y-16716129D01*
X58531235Y-16650600D01*
X58308765Y-16650600D01*
X57979330Y-16716129D01*
X57605748Y-16965748D01*
X57356129Y-17339330D01*
X57268474Y-17780000D01*
X57356129Y-18220670D01*
X57605748Y-18594252D01*
X57964707Y-18834100D01*
X56335293Y-18834100D01*
X56694252Y-18594252D01*
X56943871Y-18220670D01*
X57031526Y-17780000D01*
X56943871Y-17339330D01*
X56694252Y-16965748D01*
X56320670Y-16716129D01*
X55991235Y-16650600D01*
X55768765Y-16650600D01*
X55439330Y-16716129D01*
X55399511Y-16742735D01*
X55169809Y-16513034D01*
X55167782Y-16510000D01*
X55169809Y-16506966D01*
X55399511Y-16277265D01*
X55439330Y-16303871D01*
X55768765Y-16369400D01*
X55991235Y-16369400D01*
X56320670Y-16303871D01*
X56694252Y-16054252D01*
X56943871Y-15680670D01*
X57031526Y-15240000D01*
X57268474Y-15240000D01*
X57356129Y-15680670D01*
X57605748Y-16054252D01*
X57979330Y-16303871D01*
X58308765Y-16369400D01*
X58531235Y-16369400D01*
X58860670Y-16303871D01*
X59234252Y-16054252D01*
X59483871Y-15680670D01*
X59571526Y-15240000D01*
X59483871Y-14799330D01*
X59234252Y-14425748D01*
X58860670Y-14176129D01*
X58531235Y-14110600D01*
X58308765Y-14110600D01*
X57979330Y-14176129D01*
X57605748Y-14425748D01*
X57356129Y-14799330D01*
X57268474Y-15240000D01*
X57031526Y-15240000D01*
X56943871Y-14799330D01*
X56694252Y-14425748D01*
X56320670Y-14176129D01*
X55991235Y-14110600D01*
X55768765Y-14110600D01*
X55439330Y-14176129D01*
X55065748Y-14425748D01*
X54816129Y-14799330D01*
X54728474Y-15240000D01*
X54816129Y-15680670D01*
X54842735Y-15720489D01*
X54700925Y-15862300D01*
X53274475Y-15862300D01*
X55399511Y-13737265D01*
X55439330Y-13763871D01*
X55768765Y-13829400D01*
X55991235Y-13829400D01*
X56320670Y-13763871D01*
X56694252Y-13514252D01*
X56943871Y-13140670D01*
X57031526Y-12700000D01*
X57268474Y-12700000D01*
X57356129Y-13140670D01*
X57605748Y-13514252D01*
X57979330Y-13763871D01*
X58308765Y-13829400D01*
X58531235Y-13829400D01*
X58860670Y-13763871D01*
X59234252Y-13514252D01*
X59483871Y-13140670D01*
X59571526Y-12700000D01*
X59483871Y-12259330D01*
X59234252Y-11885748D01*
X58860670Y-11636129D01*
X58531235Y-11570600D01*
X58308765Y-11570600D01*
X57979330Y-11636129D01*
X57605748Y-11885748D01*
X57356129Y-12259330D01*
X57268474Y-12700000D01*
X57031526Y-12700000D01*
X56943871Y-12259330D01*
X56694252Y-11885748D01*
X56320670Y-11636129D01*
X55991235Y-11570600D01*
X55768765Y-11570600D01*
X55439330Y-11636129D01*
X55065748Y-11885748D01*
X54816129Y-12259330D01*
X54728474Y-12700000D01*
X54816129Y-13140670D01*
X54842735Y-13180489D01*
X54241700Y-13781524D01*
X54241700Y-12355075D01*
X55399511Y-11197265D01*
X55439330Y-11223871D01*
X55768765Y-11289400D01*
X55991235Y-11289400D01*
X56320670Y-11223871D01*
X56694252Y-10974252D01*
X56943871Y-10600670D01*
X57031526Y-10160000D01*
X57268474Y-10160000D01*
X57356129Y-10600670D01*
X57605748Y-10974252D01*
X57979330Y-11223871D01*
X58308765Y-11289400D01*
X58531235Y-11289400D01*
X58860670Y-11223871D01*
X59234252Y-10974252D01*
X59483871Y-10600670D01*
X59571526Y-10160000D01*
X59483871Y-9719330D01*
X59234252Y-9345748D01*
X58860670Y-9096129D01*
X58531235Y-9030600D01*
X58308765Y-9030600D01*
X57979330Y-9096129D01*
X57605748Y-9345748D01*
X57356129Y-9719330D01*
X57268474Y-10160000D01*
X57031526Y-10160000D01*
X56943871Y-9719330D01*
X56694252Y-9345748D01*
X56320670Y-9096129D01*
X55991235Y-9030600D01*
X55768765Y-9030600D01*
X55439330Y-9096129D01*
X55065748Y-9345748D01*
X54816129Y-9719330D01*
X54728474Y-10160000D01*
X54816129Y-10600670D01*
X54842735Y-10640489D01*
X53733700Y-11749525D01*
X53733700Y-10323075D01*
X55399511Y-8657265D01*
X55439330Y-8683871D01*
X55768765Y-8749400D01*
X55991235Y-8749400D01*
X56320670Y-8683871D01*
X56694252Y-8434252D01*
X56943871Y-8060670D01*
X57031526Y-7620000D01*
X57268474Y-7620000D01*
X57356129Y-8060670D01*
X57605748Y-8434252D01*
X57979330Y-8683871D01*
X58308765Y-8749400D01*
X58531235Y-8749400D01*
X58860670Y-8683871D01*
X59234252Y-8434252D01*
X59483871Y-8060670D01*
X59571526Y-7620000D01*
X59483871Y-7179330D01*
X59234252Y-6805748D01*
X58860670Y-6556129D01*
X58531235Y-6490600D01*
X58308765Y-6490600D01*
X57979330Y-6556129D01*
X57605748Y-6805748D01*
X57356129Y-7179330D01*
X57268474Y-7620000D01*
X57031526Y-7620000D01*
X56943871Y-7179330D01*
X56694252Y-6805748D01*
X56320670Y-6556129D01*
X55991235Y-6490600D01*
X55768765Y-6490600D01*
X55439330Y-6556129D01*
X55065748Y-6805748D01*
X54816129Y-7179330D01*
X54728474Y-7620000D01*
X54816129Y-8060670D01*
X54842735Y-8100489D01*
X53225700Y-9717525D01*
X53225700Y-8291075D01*
X55399511Y-6117265D01*
X55439330Y-6143871D01*
X55768765Y-6209400D01*
X55991235Y-6209400D01*
X56320670Y-6143871D01*
X56694252Y-5894252D01*
X56943871Y-5520670D01*
X57031526Y-5080000D01*
X57268474Y-5080000D01*
X57356129Y-5520670D01*
X57605748Y-5894252D01*
X57979330Y-6143871D01*
X58308765Y-6209400D01*
X58531235Y-6209400D01*
X58860670Y-6143871D01*
X59234252Y-5894252D01*
X59483871Y-5520670D01*
X59571526Y-5080000D01*
X59483871Y-4639330D01*
X59234252Y-4265748D01*
X58860670Y-4016129D01*
X58531235Y-3950600D01*
X58308765Y-3950600D01*
X57979330Y-4016129D01*
X57605748Y-4265748D01*
X57356129Y-4639330D01*
X57268474Y-5080000D01*
X57031526Y-5080000D01*
X56943871Y-4639330D01*
X56694252Y-4265748D01*
X56320670Y-4016129D01*
X55991235Y-3950600D01*
X55768765Y-3950600D01*
X55439330Y-4016129D01*
X55065748Y-4265748D01*
X54816129Y-4639330D01*
X54728474Y-5080000D01*
X54816129Y-5520670D01*
X54842735Y-5560489D01*
X52717700Y-7685525D01*
X52717700Y-6259075D01*
X55399511Y-3577265D01*
X55439330Y-3603871D01*
X55768765Y-3669400D01*
X55991235Y-3669400D01*
X56320670Y-3603871D01*
X56694252Y-3354252D01*
X56943871Y-2980670D01*
X57031526Y-2540000D01*
X57268474Y-2540000D01*
X57356129Y-2980670D01*
X57605748Y-3354252D01*
X57979330Y-3603871D01*
X58308765Y-3669400D01*
X58531235Y-3669400D01*
X58860670Y-3603871D01*
X59234252Y-3354252D01*
X59483871Y-2980670D01*
X59571526Y-2540000D01*
X59483871Y-2099330D01*
X59234252Y-1725748D01*
X58860670Y-1476129D01*
X58531235Y-1410600D01*
X58308765Y-1410600D01*
X57979330Y-1476129D01*
X57605748Y-1725748D01*
X57356129Y-2099330D01*
X57268474Y-2540000D01*
X57031526Y-2540000D01*
X56943871Y-2099330D01*
X56694252Y-1725748D01*
X56320670Y-1476129D01*
X55991235Y-1410600D01*
X55768765Y-1410600D01*
X55439330Y-1476129D01*
X55065748Y-1725748D01*
X54816129Y-2099330D01*
X54728474Y-2540000D01*
X54816129Y-2980670D01*
X54842735Y-3020489D01*
X52073034Y-5790191D01*
X52040158Y-5812158D01*
X51961421Y-5929998D01*
X51953143Y-5942387D01*
X51922587Y-6096000D01*
X51930300Y-6134775D01*
X51930301Y-13044923D01*
X51652925Y-13322300D01*
X30264776Y-13322300D01*
X30226000Y-13314587D01*
X30187224Y-13322300D01*
X30072386Y-13345143D01*
X29942158Y-13432158D01*
X29920193Y-13465031D01*
X27943034Y-15442191D01*
X27910158Y-15464158D01*
X27823144Y-15594386D01*
X27823143Y-15594387D01*
X27792587Y-15748000D01*
X27800300Y-15786775D01*
X27800301Y-21805219D01*
X27800300Y-21805224D01*
X27800300Y-22188924D01*
X27689030Y-22300194D01*
X27435031Y-22554194D01*
X27402159Y-22576158D01*
X27380195Y-22609030D01*
X27380194Y-22609031D01*
X27315143Y-22706387D01*
X27284587Y-22860000D01*
X27292301Y-22898780D01*
X27292300Y-27268924D01*
X27181031Y-27380194D01*
X27148159Y-27402158D01*
X27126194Y-27435031D01*
X27061143Y-27532387D01*
X27030587Y-27686000D01*
X27038301Y-27724780D01*
X27038300Y-28284925D01*
X26419032Y-28904193D01*
X26386159Y-28926158D01*
X26364195Y-28959030D01*
X26364194Y-28959031D01*
X26299143Y-29056387D01*
X26268587Y-29210000D01*
X26276301Y-29248780D01*
X26276300Y-31944884D01*
X26094033Y-32127151D01*
X25990600Y-32376859D01*
X25990600Y-32647141D01*
X26094033Y-32896849D01*
X26285151Y-33087967D01*
X26534859Y-33191400D01*
X26805141Y-33191400D01*
X27054849Y-33087967D01*
X27245967Y-32896849D01*
X27349400Y-32647141D01*
X27349400Y-32429400D01*
X27567141Y-32429400D01*
X27816849Y-32325967D01*
X28007967Y-32134849D01*
X28111400Y-31885141D01*
X28111400Y-31667400D01*
X28329141Y-31667400D01*
X28578849Y-31563967D01*
X28769967Y-31372849D01*
X28873400Y-31123141D01*
X28873400Y-30852859D01*
X28769967Y-30603151D01*
X28587700Y-30420884D01*
X28587700Y-30046822D01*
X28820859Y-30143400D01*
X29038600Y-30143400D01*
X29038600Y-30361141D01*
X29142033Y-30610849D01*
X29333151Y-30801967D01*
X29475668Y-30861000D01*
X29333151Y-30920033D01*
X29142033Y-31111151D01*
X29038600Y-31360859D01*
X29038600Y-31631141D01*
X29142033Y-31880849D01*
X29333151Y-32071967D01*
X29582859Y-32175400D01*
X29800600Y-32175400D01*
X29800600Y-32393141D01*
X29904033Y-32642849D01*
X30086301Y-32825117D01*
X30086300Y-34836775D01*
X30086301Y-34836780D01*
X30086300Y-41342884D01*
X29904033Y-41525151D01*
X29800600Y-41774859D01*
X29800600Y-42045141D01*
X29904033Y-42294849D01*
X30095151Y-42485967D01*
X30344859Y-42589400D01*
X30615141Y-42589400D01*
X30864849Y-42485967D01*
X31055967Y-42294849D01*
X31159400Y-42045141D01*
X31159400Y-41774859D01*
X31055967Y-41525151D01*
X30873700Y-41342884D01*
X30873700Y-39698822D01*
X31106859Y-39795400D01*
X31377141Y-39795400D01*
X31626849Y-39691967D01*
X31817967Y-39500849D01*
X31921400Y-39251141D01*
X31921400Y-38980859D01*
X31817967Y-38731151D01*
X31635700Y-38548884D01*
X31635700Y-35888822D01*
X31868859Y-35985400D01*
X32139141Y-35985400D01*
X32388849Y-35881967D01*
X32579967Y-35690849D01*
X32683400Y-35441141D01*
X32683400Y-35170859D01*
X32579967Y-34921151D01*
X32397700Y-34738884D01*
X32397700Y-33602822D01*
X32630859Y-33699400D01*
X32901141Y-33699400D01*
X33150849Y-33595967D01*
X33341967Y-33404849D01*
X33445400Y-33155141D01*
X33445400Y-32884859D01*
X33341967Y-32635151D01*
X33159700Y-32452884D01*
X33159700Y-32063116D01*
X33341967Y-31880849D01*
X33445400Y-31631141D01*
X33445400Y-31360859D01*
X33341967Y-31111151D01*
X33150849Y-30920033D01*
X32901141Y-30816600D01*
X32630859Y-30816600D01*
X32381151Y-30920033D01*
X32190033Y-31111151D01*
X32086600Y-31360859D01*
X32086600Y-31578600D01*
X31921400Y-31578600D01*
X31921400Y-31360859D01*
X31817967Y-31111151D01*
X31626849Y-30920033D01*
X31377141Y-30816600D01*
X31106859Y-30816600D01*
X31030175Y-30848364D01*
X31417540Y-30460999D01*
X38686461Y-30460999D01*
X39154100Y-30928639D01*
X39154101Y-34581217D01*
X39144896Y-34627494D01*
X39181365Y-34810839D01*
X39259009Y-34927041D01*
X39259011Y-34927043D01*
X39285223Y-34966272D01*
X39324452Y-34992484D01*
X39685515Y-35353548D01*
X39711728Y-35392778D01*
X39750957Y-35418990D01*
X39750958Y-35418991D01*
X39756744Y-35422857D01*
X39867160Y-35496635D01*
X40004230Y-35523900D01*
X40004234Y-35523900D01*
X40050506Y-35533104D01*
X40096778Y-35523900D01*
X45568425Y-35523900D01*
X45615317Y-35637108D01*
X45904892Y-35926683D01*
X46283240Y-36083400D01*
X46692760Y-36083400D01*
X46726288Y-36069512D01*
X50918600Y-36069512D01*
X50918600Y-36578488D01*
X51113377Y-37048722D01*
X51473278Y-37408623D01*
X51943512Y-37603400D01*
X52452488Y-37603400D01*
X52922722Y-37408623D01*
X53282623Y-37048722D01*
X53477400Y-36578488D01*
X53477400Y-36069512D01*
X53282623Y-35599278D01*
X52922722Y-35239377D01*
X52452488Y-35044600D01*
X51943512Y-35044600D01*
X51473278Y-35239377D01*
X51113377Y-35599278D01*
X50918600Y-36069512D01*
X46726288Y-36069512D01*
X47071108Y-35926683D01*
X47360683Y-35637108D01*
X47517400Y-35258760D01*
X47517400Y-34849240D01*
X47360683Y-34470892D01*
X47320790Y-34430999D01*
X51844629Y-34430999D01*
X51890901Y-34440203D01*
X51937173Y-34430999D01*
X51937177Y-34430999D01*
X52074247Y-34403734D01*
X52229679Y-34299877D01*
X52255893Y-34260645D01*
X52351347Y-34165191D01*
X53723600Y-34165191D01*
X53723600Y-34922809D01*
X54013528Y-35622756D01*
X54549244Y-36158472D01*
X55249191Y-36448400D01*
X56006809Y-36448400D01*
X56706756Y-36158472D01*
X57242472Y-35622756D01*
X57532400Y-34922809D01*
X57532400Y-34165191D01*
X57242472Y-33465244D01*
X56706756Y-32929528D01*
X56006809Y-32639600D01*
X55249191Y-32639600D01*
X54549244Y-32929528D01*
X54013528Y-33465244D01*
X53723600Y-34165191D01*
X52351347Y-34165191D01*
X54655549Y-31860990D01*
X54694778Y-31834778D01*
X54735390Y-31773999D01*
X54798635Y-31679346D01*
X54807825Y-31633143D01*
X54825900Y-31542276D01*
X54825900Y-31542273D01*
X54835104Y-31496001D01*
X54825900Y-31449729D01*
X54825900Y-27988272D01*
X54835104Y-27942000D01*
X54825900Y-27895728D01*
X54825900Y-27895724D01*
X54798635Y-27758654D01*
X54724631Y-27647900D01*
X54720991Y-27642452D01*
X54720990Y-27642451D01*
X54694778Y-27603222D01*
X54655548Y-27577009D01*
X54070507Y-26991969D01*
X54117400Y-26878760D01*
X54117400Y-26469240D01*
X53960683Y-26090892D01*
X53671108Y-25801317D01*
X53351360Y-25668873D01*
X53838000Y-25668873D01*
X53947016Y-25647188D01*
X54039436Y-25585436D01*
X54101188Y-25493016D01*
X54122873Y-25384000D01*
X54122873Y-23884000D01*
X54101188Y-23774984D01*
X54039436Y-23682564D01*
X53947016Y-23620812D01*
X53838000Y-23599127D01*
X52338000Y-23599127D01*
X52228984Y-23620812D01*
X52136564Y-23682564D01*
X52074812Y-23774984D01*
X52053127Y-23884000D01*
X52053127Y-23914100D01*
X47721370Y-23914100D01*
X47675098Y-23904896D01*
X47628826Y-23914100D01*
X47628823Y-23914100D01*
X47491753Y-23941365D01*
X47462723Y-23960762D01*
X47517400Y-23828760D01*
X47517400Y-23419240D01*
X47360683Y-23040892D01*
X47071108Y-22751317D01*
X46692760Y-22594600D01*
X46283240Y-22594600D01*
X45904892Y-22751317D01*
X45615317Y-23040892D01*
X45568425Y-23154100D01*
X37636272Y-23154100D01*
X37590000Y-23144896D01*
X37543728Y-23154100D01*
X37543724Y-23154100D01*
X37406654Y-23181365D01*
X37323165Y-23237151D01*
X37302225Y-23251143D01*
X37251222Y-23285222D01*
X37225009Y-23324452D01*
X36381362Y-24168100D01*
X34704716Y-24168100D01*
X34780916Y-24091900D01*
X35767728Y-24091900D01*
X35814000Y-24101104D01*
X35860272Y-24091900D01*
X35860276Y-24091900D01*
X35997346Y-24064635D01*
X36152778Y-23960778D01*
X36178992Y-23921546D01*
X36621548Y-23478991D01*
X36660778Y-23452778D01*
X36691517Y-23406775D01*
X36764635Y-23297346D01*
X36770549Y-23267613D01*
X36791900Y-23160276D01*
X36791900Y-23160273D01*
X36801104Y-23114001D01*
X36791900Y-23067729D01*
X36791900Y-21129240D01*
X45458600Y-21129240D01*
X45458600Y-21538760D01*
X45615317Y-21917108D01*
X45904892Y-22206683D01*
X46283240Y-22363400D01*
X46692760Y-22363400D01*
X47071108Y-22206683D01*
X47360683Y-21917108D01*
X47517400Y-21538760D01*
X47517400Y-21465191D01*
X53723600Y-21465191D01*
X53723600Y-22222809D01*
X54013528Y-22922756D01*
X54549244Y-23458472D01*
X55249191Y-23748400D01*
X56006809Y-23748400D01*
X56706756Y-23458472D01*
X57242472Y-22922756D01*
X57532400Y-22222809D01*
X57532400Y-21465191D01*
X57242472Y-20765244D01*
X56706756Y-20229528D01*
X56006809Y-19939600D01*
X55249191Y-19939600D01*
X54549244Y-20229528D01*
X54013528Y-20765244D01*
X53723600Y-21465191D01*
X47517400Y-21465191D01*
X47517400Y-21129240D01*
X47360683Y-20750892D01*
X47071108Y-20461317D01*
X46692760Y-20304600D01*
X46283240Y-20304600D01*
X45904892Y-20461317D01*
X45615317Y-20750892D01*
X45458600Y-21129240D01*
X36791900Y-21129240D01*
X36791900Y-18778916D01*
X36897967Y-18672849D01*
X37001400Y-18423141D01*
X37001400Y-18152859D01*
X36897967Y-17903151D01*
X36706849Y-17712033D01*
X36457141Y-17608600D01*
X36186859Y-17608600D01*
X35937151Y-17712033D01*
X35746033Y-17903151D01*
X35642600Y-18152859D01*
X35642600Y-18423141D01*
X35746033Y-18672849D01*
X35852100Y-18778916D01*
X35852101Y-22919360D01*
X35619362Y-23152100D01*
X34780916Y-23152100D01*
X34674849Y-23046033D01*
X34425141Y-22942600D01*
X34154859Y-22942600D01*
X33905151Y-23046033D01*
X33714033Y-23237151D01*
X33610600Y-23486859D01*
X33610600Y-23757141D01*
X33714033Y-24006849D01*
X33875284Y-24168100D01*
X32812272Y-24168100D01*
X32766000Y-24158896D01*
X32719728Y-24168100D01*
X32719724Y-24168100D01*
X32582654Y-24195365D01*
X32505591Y-24246857D01*
X32470058Y-24270600D01*
X32427222Y-24299222D01*
X32401009Y-24338452D01*
X31921400Y-24818061D01*
X31921400Y-24756859D01*
X31817967Y-24507151D01*
X31635700Y-24324884D01*
X31635700Y-17435075D01*
X31913076Y-17157700D01*
X54700925Y-17157700D01*
X54842735Y-17299511D01*
X54816129Y-17339330D01*
X54728474Y-17780000D01*
X54816129Y-18220670D01*
X55051567Y-18573029D01*
X54720992Y-18242454D01*
X54694778Y-18203222D01*
X54539346Y-18099365D01*
X54402276Y-18072100D01*
X54402272Y-18072100D01*
X54356000Y-18062896D01*
X54309728Y-18072100D01*
X49766916Y-18072100D01*
X49660849Y-17966033D01*
X49411141Y-17862600D01*
X49140859Y-17862600D01*
X48891151Y-17966033D01*
X48700033Y-18157151D01*
X48596600Y-18406859D01*
X48596600Y-18677141D01*
X48700033Y-18926849D01*
X48891151Y-19117967D01*
X49140859Y-19221400D01*
X49411141Y-19221400D01*
X49660849Y-19117967D01*
X49766916Y-19011900D01*
X51440755Y-19011900D01*
X51113377Y-19339278D01*
X50918600Y-19809512D01*
X50918600Y-20318488D01*
X51113377Y-20788722D01*
X51473278Y-21148623D01*
X51943512Y-21343400D01*
X52452488Y-21343400D01*
X52922722Y-21148623D01*
X53282623Y-20788722D01*
X53477400Y-20318488D01*
X53477400Y-19809512D01*
X53282623Y-19339278D01*
X52955245Y-19011900D01*
X54161362Y-19011900D01*
X54170108Y-19020646D01*
X54753009Y-19603548D01*
X54779222Y-19642778D01*
X54818451Y-19668990D01*
X54818452Y-19668991D01*
X54827231Y-19674857D01*
X54934654Y-19746635D01*
X55071724Y-19773900D01*
X55071727Y-19773900D01*
X55117999Y-19783104D01*
X55164271Y-19773900D01*
X59897728Y-19773900D01*
X59944000Y-19783104D01*
X59990272Y-19773900D01*
X59990276Y-19773900D01*
X60127346Y-19746635D01*
X60282778Y-19642778D01*
X60308992Y-19603546D01*
X60605600Y-19306938D01*
X60605601Y-38297042D01*
X59472577Y-37164018D01*
X57965581Y-36539800D01*
X56334419Y-36539800D01*
X54827423Y-37164018D01*
X53674018Y-38317423D01*
X53049800Y-39824419D01*
X53049800Y-41455581D01*
X53674018Y-42962577D01*
X54807041Y-44095600D01*
X22294Y-44095600D01*
X-542834Y-44024208D01*
X-1051566Y-43822787D01*
X-1494219Y-43501180D01*
X-1842985Y-43079594D01*
X-2075950Y-42584517D01*
X-2181639Y-42030475D01*
X-2185600Y-41904437D01*
X-2185600Y-22293D01*
X-2171700Y87736D01*
X-2171699Y-22821219D01*
X-2179413Y-22860000D01*
X-2171700Y-22898776D01*
X-2171699Y-41363220D01*
X-2179413Y-41402000D01*
X-2148857Y-41555613D01*
X-2139463Y-41569672D01*
X-2061841Y-41685842D01*
X-2028968Y-41707807D01*
X-1067807Y-42668969D01*
X-1045842Y-42701842D01*
X-915614Y-42788857D01*
X-837379Y-42804419D01*
X-762000Y-42819413D01*
X-723224Y-42811700D01*
X3263225Y-42811700D01*
X3302000Y-42819413D01*
X3340775Y-42811700D01*
X3340776Y-42811700D01*
X3455614Y-42788857D01*
X3585842Y-42701842D01*
X3607809Y-42668966D01*
X4568970Y-41707806D01*
X4601842Y-41685842D01*
X4688857Y-41555614D01*
X4711700Y-41440776D01*
X4711700Y-41440775D01*
X4719413Y-41402000D01*
X4711700Y-41363224D01*
X4711700Y-40504859D01*
X13798600Y-40504859D01*
X13798600Y-40775141D01*
X13902033Y-41024849D01*
X14093151Y-41215967D01*
X14342859Y-41319400D01*
X14613141Y-41319400D01*
X14659011Y-41300400D01*
X15312989Y-41300400D01*
X15358859Y-41319400D01*
X15629141Y-41319400D01*
X15675011Y-41300400D01*
X16328989Y-41300400D01*
X16374859Y-41319400D01*
X16645141Y-41319400D01*
X16691011Y-41300400D01*
X21916989Y-41300400D01*
X21962859Y-41319400D01*
X22233141Y-41319400D01*
X22279011Y-41300400D01*
X22932989Y-41300400D01*
X22978859Y-41319400D01*
X23249141Y-41319400D01*
X23295011Y-41300400D01*
X23948989Y-41300400D01*
X23994859Y-41319400D01*
X24265141Y-41319400D01*
X24311011Y-41300400D01*
X26996989Y-41300400D01*
X27042859Y-41319400D01*
X27313141Y-41319400D01*
X27562849Y-41215967D01*
X27753967Y-41024849D01*
X27857400Y-40775141D01*
X27857400Y-40504859D01*
X27838400Y-40458989D01*
X27838400Y-35233011D01*
X27857400Y-35187141D01*
X27857400Y-34916859D01*
X27753967Y-34667151D01*
X27562849Y-34476033D01*
X27313141Y-34372600D01*
X27042859Y-34372600D01*
X26793151Y-34476033D01*
X26602033Y-34667151D01*
X26498600Y-34916859D01*
X26498600Y-35187141D01*
X26517600Y-35233011D01*
X26517601Y-39979600D01*
X24311011Y-39979600D01*
X24265141Y-39960600D01*
X23994859Y-39960600D01*
X23948989Y-39979600D01*
X23295011Y-39979600D01*
X23249141Y-39960600D01*
X22978859Y-39960600D01*
X22932989Y-39979600D01*
X22279011Y-39979600D01*
X22233141Y-39960600D01*
X21962859Y-39960600D01*
X21916989Y-39979600D01*
X16691011Y-39979600D01*
X16645141Y-39960600D01*
X16374859Y-39960600D01*
X16328989Y-39979600D01*
X15675011Y-39979600D01*
X15629141Y-39960600D01*
X15358859Y-39960600D01*
X15312989Y-39979600D01*
X14659011Y-39979600D01*
X14613141Y-39960600D01*
X14342859Y-39960600D01*
X14093151Y-40064033D01*
X13902033Y-40255151D01*
X13798600Y-40504859D01*
X4711700Y-40504859D01*
X4711700Y-39025075D01*
X4989076Y-38747700D01*
X10629225Y-38747700D01*
X10668000Y-38755413D01*
X10706775Y-38747700D01*
X10706776Y-38747700D01*
X10821614Y-38724857D01*
X10951842Y-38637842D01*
X10973809Y-38604966D01*
X12188970Y-37389806D01*
X12221842Y-37367842D01*
X12308857Y-37237614D01*
X12331700Y-37122776D01*
X12331700Y-37122775D01*
X12339413Y-37084001D01*
X12331700Y-37045227D01*
X12331700Y-33697512D01*
X12576849Y-33595967D01*
X12767967Y-33404849D01*
X12871400Y-33155141D01*
X12871400Y-32884859D01*
X12767967Y-32635151D01*
X12576849Y-32444033D01*
X12327141Y-32340600D01*
X12056859Y-32340600D01*
X11807151Y-32444033D01*
X11616033Y-32635151D01*
X11512600Y-32884859D01*
X11512600Y-32932048D01*
X11311141Y-32848600D01*
X11040859Y-32848600D01*
X10807700Y-32945178D01*
X10807700Y-31788773D01*
X10815413Y-31749999D01*
X10801359Y-31679346D01*
X10784857Y-31596386D01*
X10697842Y-31466158D01*
X10664970Y-31444194D01*
X9537700Y-30316925D01*
X9537700Y-19930859D01*
X15830600Y-19930859D01*
X15830600Y-20201141D01*
X15934033Y-20450849D01*
X16125151Y-20641967D01*
X16374859Y-20745400D01*
X16645141Y-20745400D01*
X16894849Y-20641967D01*
X17077116Y-20459700D01*
X17253008Y-20459700D01*
X17141151Y-20506033D01*
X16950033Y-20697151D01*
X16846600Y-20946859D01*
X16846600Y-21217141D01*
X16950033Y-21466849D01*
X17141151Y-21657967D01*
X17390859Y-21761400D01*
X17661141Y-21761400D01*
X17707011Y-21742400D01*
X18268455Y-21742400D01*
X19471033Y-22944980D01*
X19490033Y-22990849D01*
X19681151Y-23181967D01*
X19930859Y-23285400D01*
X20201141Y-23285400D01*
X20247011Y-23266400D01*
X20900989Y-23266400D01*
X20946859Y-23285400D01*
X21217141Y-23285400D01*
X21466849Y-23181967D01*
X21657967Y-22990849D01*
X21761400Y-22741141D01*
X21761400Y-22470859D01*
X21657967Y-22221151D01*
X21466849Y-22030033D01*
X21217141Y-21926600D01*
X20946859Y-21926600D01*
X20900989Y-21945600D01*
X20339547Y-21945600D01*
X19136968Y-20743022D01*
X19117967Y-20697151D01*
X18926849Y-20506033D01*
X18814992Y-20459700D01*
X19773225Y-20459700D01*
X19812000Y-20467413D01*
X19850775Y-20459700D01*
X19850776Y-20459700D01*
X19965614Y-20436857D01*
X20095842Y-20349842D01*
X20117809Y-20316966D01*
X21213376Y-19221400D01*
X21471141Y-19221400D01*
X21720849Y-19117967D01*
X21911967Y-18926849D01*
X22015400Y-18677141D01*
X22015400Y-18406859D01*
X21911967Y-18157151D01*
X21720849Y-17966033D01*
X21471141Y-17862600D01*
X21200859Y-17862600D01*
X20951151Y-17966033D01*
X20760033Y-18157151D01*
X20656600Y-18406859D01*
X20656600Y-18664624D01*
X19648925Y-19672300D01*
X17077116Y-19672300D01*
X16894849Y-19490033D01*
X16645141Y-19386600D01*
X16374859Y-19386600D01*
X16125151Y-19490033D01*
X15934033Y-19681151D01*
X15830600Y-19930859D01*
X9537700Y-19930859D01*
X9537700Y-17181075D01*
X9705088Y-17013688D01*
X9776259Y-17084859D01*
X10025967Y-17188292D01*
X10296249Y-17188292D01*
X10545957Y-17084859D01*
X10737075Y-16893741D01*
X10840508Y-16644033D01*
X10840508Y-16427400D01*
X11057141Y-16427400D01*
X11306849Y-16323967D01*
X11497967Y-16132849D01*
X11601400Y-15883141D01*
X11601400Y-15612859D01*
X11497967Y-15363151D01*
X11306849Y-15172033D01*
X11057141Y-15068600D01*
X10786859Y-15068600D01*
X10537151Y-15172033D01*
X10354884Y-15354300D01*
X9690776Y-15354300D01*
X9652000Y-15346587D01*
X9613224Y-15354300D01*
X9498386Y-15377143D01*
X9368158Y-15464158D01*
X9346193Y-15497031D01*
X8385032Y-16458193D01*
X8352159Y-16480158D01*
X8330194Y-16513031D01*
X8265143Y-16610387D01*
X8234587Y-16764000D01*
X8242301Y-16802780D01*
X8242301Y-23039178D01*
X8009141Y-22942600D01*
X7759700Y-22942600D01*
X7759700Y-18672037D01*
X7909549Y-18609967D01*
X8100667Y-18418849D01*
X8204100Y-18169141D01*
X8204100Y-17898859D01*
X8100667Y-17649151D01*
X7909549Y-17458033D01*
X7659841Y-17354600D01*
X7389559Y-17354600D01*
X7251700Y-17411703D01*
X7251700Y-16171512D01*
X7496849Y-16069967D01*
X7687967Y-15878849D01*
X7791400Y-15629141D01*
X7791400Y-15358859D01*
X7687967Y-15109151D01*
X7496849Y-14918033D01*
X7247141Y-14814600D01*
X6976859Y-14814600D01*
X6743700Y-14911178D01*
X6743700Y-13631512D01*
X6988849Y-13529967D01*
X7179967Y-13338849D01*
X7283400Y-13089141D01*
X7283400Y-12818859D01*
X7179967Y-12569151D01*
X6988849Y-12378033D01*
X6739141Y-12274600D01*
X6468859Y-12274600D01*
X6235700Y-12371178D01*
X6235700Y-11091512D01*
X6480849Y-10989967D01*
X6671967Y-10798849D01*
X6775400Y-10549141D01*
X6775400Y-10278859D01*
X6671967Y-10029151D01*
X6480849Y-9838033D01*
X6231141Y-9734600D01*
X5960859Y-9734600D01*
X5727700Y-9831178D01*
X5727700Y-1816769D01*
X5735412Y-1777999D01*
X5727700Y-1739229D01*
X5727700Y-1739224D01*
X5704857Y-1624386D01*
X5617842Y-1494158D01*
X5584970Y-1472194D01*
X5131808Y-1019033D01*
X5109842Y-986158D01*
X4979614Y-899143D01*
X4864776Y-876300D01*
X4864775Y-876300D01*
X4826000Y-868587D01*
X4787225Y-876300D01*
X3669642Y-876300D01*
X3674873Y-850000D01*
X3674873Y850000D01*
X3653188Y959016D01*
X3591436Y1051436D01*
X3499016Y1113188D01*
X3390000Y1134873D01*
X1690000Y1134873D01*
X1580984Y1113188D01*
X1488564Y1051436D01*
X1426812Y959016D01*
X1405127Y850000D01*
X1405127Y-848352D01*
X1321808Y-765032D01*
X1037265Y-480489D01*
X1063871Y-440670D01*
X1151526Y0D01*
X1063871Y440670D01*
X814252Y814252D01*
X440670Y1063871D01*
X365582Y1078807D01*
X671076Y1384300D01*
X8218925Y1384300D01*
X8496300Y1106924D01*
X8496301Y-1474883D01*
X8314033Y-1657151D01*
X8210600Y-1906859D01*
X8210600Y-2177141D01*
X8314033Y-2426849D01*
X8505151Y-2617967D01*
X8610600Y-2661646D01*
X8610600Y-2692354D01*
X8505151Y-2736033D01*
X8314033Y-2927151D01*
X8210600Y-3176859D01*
X8210600Y-3447141D01*
X8314033Y-3696849D01*
X8505151Y-3887967D01*
X8754859Y-3991400D01*
X9025141Y-3991400D01*
X9274849Y-3887967D01*
X9465967Y-3696849D01*
X9513788Y-3581400D01*
X9536212Y-3581400D01*
X9584033Y-3696849D01*
X9766300Y-3879116D01*
X9766301Y-4533220D01*
X9758587Y-4572000D01*
X9789143Y-4725613D01*
X9821604Y-4774194D01*
X9876159Y-4855842D01*
X9909031Y-4877806D01*
X10362193Y-5330969D01*
X10384158Y-5363842D01*
X10514386Y-5450857D01*
X10629224Y-5473700D01*
X10629229Y-5473700D01*
X10667999Y-5481412D01*
X10706769Y-5473700D01*
X13402884Y-5473700D01*
X13585151Y-5655967D01*
X13834859Y-5759400D01*
X14105141Y-5759400D01*
X14354849Y-5655967D01*
X14545967Y-5464849D01*
X14649400Y-5215141D01*
X14649400Y-4997400D01*
X14867141Y-4997400D01*
X15116849Y-4893967D01*
X15307967Y-4702849D01*
X15411400Y-4453141D01*
X15411400Y-4182859D01*
X15307967Y-3933151D01*
X15116849Y-3742033D01*
X14867141Y-3638600D01*
X14596859Y-3638600D01*
X14564552Y-3651982D01*
X14649400Y-3447141D01*
X14649400Y-3176859D01*
X14545967Y-2927151D01*
X14354849Y-2736033D01*
X14212332Y-2677000D01*
X14354849Y-2617967D01*
X14432816Y-2540000D01*
X21708474Y-2540000D01*
X21796129Y-2980670D01*
X22045748Y-3354252D01*
X22419330Y-3603871D01*
X22748765Y-3669400D01*
X22971235Y-3669400D01*
X23300670Y-3603871D01*
X23674252Y-3354252D01*
X23923871Y-2980670D01*
X24011526Y-2540000D01*
X24248474Y-2540000D01*
X24336129Y-2980670D01*
X24585748Y-3354252D01*
X24959330Y-3603871D01*
X25288765Y-3669400D01*
X25511235Y-3669400D01*
X25840670Y-3603871D01*
X26214252Y-3354252D01*
X26463871Y-2980670D01*
X26551526Y-2540000D01*
X39488474Y-2540000D01*
X39576129Y-2980670D01*
X39825748Y-3354252D01*
X40199330Y-3603871D01*
X40528765Y-3669400D01*
X40751235Y-3669400D01*
X41080670Y-3603871D01*
X41454252Y-3354252D01*
X41703871Y-2980670D01*
X41791526Y-2540000D01*
X41703871Y-2099330D01*
X41454252Y-1725748D01*
X41080670Y-1476129D01*
X40751235Y-1410600D01*
X40528765Y-1410600D01*
X40199330Y-1476129D01*
X39825748Y-1725748D01*
X39576129Y-2099330D01*
X39488474Y-2540000D01*
X26551526Y-2540000D01*
X26463871Y-2099330D01*
X26214252Y-1725748D01*
X25840670Y-1476129D01*
X25511235Y-1410600D01*
X25288765Y-1410600D01*
X24959330Y-1476129D01*
X24585748Y-1725748D01*
X24336129Y-2099330D01*
X24248474Y-2540000D01*
X24011526Y-2540000D01*
X23923871Y-2099330D01*
X23674252Y-1725748D01*
X23300670Y-1476129D01*
X22971235Y-1410600D01*
X22748765Y-1410600D01*
X22419330Y-1476129D01*
X22045748Y-1725748D01*
X21796129Y-2099330D01*
X21708474Y-2540000D01*
X14432816Y-2540000D01*
X14545967Y-2426849D01*
X14649400Y-2177141D01*
X14649400Y-1906859D01*
X14545967Y-1657151D01*
X14354849Y-1466033D01*
X14105141Y-1362600D01*
X13834859Y-1362600D01*
X13585151Y-1466033D01*
X13394033Y-1657151D01*
X13290600Y-1906859D01*
X13290600Y-2177141D01*
X13394033Y-2426849D01*
X13585151Y-2617967D01*
X13727668Y-2677000D01*
X13585151Y-2736033D01*
X13394033Y-2927151D01*
X13335000Y-3069668D01*
X13275967Y-2927151D01*
X13084849Y-2736033D01*
X12835141Y-2632600D01*
X12564859Y-2632600D01*
X12315151Y-2736033D01*
X12124033Y-2927151D01*
X12065000Y-3069668D01*
X12005967Y-2927151D01*
X11814849Y-2736033D01*
X11565141Y-2632600D01*
X11294859Y-2632600D01*
X11045151Y-2736033D01*
X10854033Y-2927151D01*
X10814497Y-3022600D01*
X10775503Y-3022600D01*
X10735967Y-2927151D01*
X10544849Y-2736033D01*
X10439400Y-2692354D01*
X10439400Y-2661646D01*
X10544849Y-2617967D01*
X10735967Y-2426849D01*
X10839400Y-2177141D01*
X10839400Y-1906859D01*
X10735967Y-1657151D01*
X10553700Y-1474884D01*
X10553700Y0D01*
X21708474Y0D01*
X21796129Y-440670D01*
X22045748Y-814252D01*
X22419330Y-1063871D01*
X22748765Y-1129400D01*
X22971235Y-1129400D01*
X23300670Y-1063871D01*
X23674252Y-814252D01*
X23923871Y-440670D01*
X24011526Y0D01*
X39488474Y0D01*
X39576129Y-440670D01*
X39825748Y-814252D01*
X40199330Y-1063871D01*
X40528765Y-1129400D01*
X40751235Y-1129400D01*
X41080670Y-1063871D01*
X41454252Y-814252D01*
X41703871Y-440670D01*
X41791526Y0D01*
X54728474Y0D01*
X54816129Y-440670D01*
X55065748Y-814252D01*
X55439330Y-1063871D01*
X55768765Y-1129400D01*
X55991235Y-1129400D01*
X56320670Y-1063871D01*
X56694252Y-814252D01*
X56943871Y-440670D01*
X57031526Y0D01*
X56943871Y440670D01*
X56694252Y814252D01*
X56640752Y850000D01*
X57285127Y850000D01*
X57285127Y-850000D01*
X57306812Y-959016D01*
X57368564Y-1051436D01*
X57460984Y-1113188D01*
X57570000Y-1134873D01*
X59270000Y-1134873D01*
X59379016Y-1113188D01*
X59471436Y-1051436D01*
X59533188Y-959016D01*
X59554873Y-850000D01*
X59554873Y850000D01*
X59533188Y959016D01*
X59471436Y1051436D01*
X59379016Y1113188D01*
X59270000Y1134873D01*
X57570000Y1134873D01*
X57460984Y1113188D01*
X57368564Y1051436D01*
X57306812Y959016D01*
X57285127Y850000D01*
X56640752Y850000D01*
X56320670Y1063871D01*
X55991235Y1129400D01*
X55768765Y1129400D01*
X55439330Y1063871D01*
X55065748Y814252D01*
X54816129Y440670D01*
X54728474Y0D01*
X41791526Y0D01*
X41703871Y440670D01*
X41454252Y814252D01*
X41080670Y1063871D01*
X40751235Y1129400D01*
X40528765Y1129400D01*
X40199330Y1063871D01*
X39825748Y814252D01*
X39576129Y440670D01*
X39488474Y0D01*
X24011526Y0D01*
X23923871Y440670D01*
X23674252Y814252D01*
X23300670Y1063871D01*
X22971235Y1129400D01*
X22748765Y1129400D01*
X22419330Y1063871D01*
X22045748Y814252D01*
X21796129Y440670D01*
X21708474Y0D01*
X10553700Y0D01*
X10553700Y1639608D01*
X10600033Y1527751D01*
G36*
X45615317Y-24207108D02*
X45830309Y-24422100D01*
X39924271Y-24422100D01*
X39877999Y-24412896D01*
X39831727Y-24422100D01*
X39831724Y-24422100D01*
X39694654Y-24449365D01*
X39668860Y-24466600D01*
X39488859Y-24466600D01*
X39239151Y-24570033D01*
X39048033Y-24761151D01*
X38944600Y-25010859D01*
X38944600Y-25281141D01*
X39048033Y-25530849D01*
X39239151Y-25721967D01*
X39488859Y-25825400D01*
X39759141Y-25825400D01*
X40008849Y-25721967D01*
X40199967Y-25530849D01*
X40269948Y-25361900D01*
X43569561Y-25361900D01*
X42617400Y-26314062D01*
X42617400Y-26280859D01*
X42513967Y-26031151D01*
X42322849Y-25840033D01*
X42073141Y-25736600D01*
X41802859Y-25736600D01*
X41553151Y-25840033D01*
X41447084Y-25946100D01*
X38400272Y-25946100D01*
X38354000Y-25936896D01*
X38307728Y-25946100D01*
X38307724Y-25946100D01*
X38170654Y-25973365D01*
X38015222Y-26077222D01*
X37989009Y-26116452D01*
X37352862Y-26752600D01*
X37202859Y-26752600D01*
X36953151Y-26856033D01*
X36762033Y-27047151D01*
X36658600Y-27296859D01*
X36658600Y-27567141D01*
X36762033Y-27816849D01*
X36953151Y-28007967D01*
X37202859Y-28111400D01*
X37473141Y-28111400D01*
X37722849Y-28007967D01*
X37913967Y-27816849D01*
X38017400Y-27567141D01*
X38017400Y-27417138D01*
X38548639Y-26885900D01*
X40013561Y-26885900D01*
X39892861Y-27006600D01*
X39742859Y-27006600D01*
X39493151Y-27110033D01*
X39302033Y-27301151D01*
X39198600Y-27550859D01*
X39198600Y-27821141D01*
X39302033Y-28070849D01*
X39493151Y-28261967D01*
X39742859Y-28365400D01*
X40013141Y-28365400D01*
X40262849Y-28261967D01*
X40453967Y-28070849D01*
X40557400Y-27821141D01*
X40557400Y-27671139D01*
X40580639Y-27647900D01*
X42371728Y-27647900D01*
X42418000Y-27657104D01*
X42464272Y-27647900D01*
X42464276Y-27647900D01*
X42601346Y-27620635D01*
X42756778Y-27516778D01*
X42782992Y-27477546D01*
X44136639Y-26123900D01*
X45867615Y-26123900D01*
X45802600Y-26280859D01*
X45802600Y-26551141D01*
X45906033Y-26800849D01*
X46029184Y-26924000D01*
X45906033Y-27047151D01*
X45802600Y-27296859D01*
X45802600Y-27567141D01*
X45906033Y-27816849D01*
X46097151Y-28007967D01*
X46346859Y-28111400D01*
X46617141Y-28111400D01*
X46866849Y-28007967D01*
X46972916Y-27901900D01*
X49335362Y-27901900D01*
X49568101Y-28134640D01*
X49568100Y-30457727D01*
X49558896Y-30504000D01*
X49568100Y-30550272D01*
X49568100Y-30550275D01*
X49595365Y-30687345D01*
X49699222Y-30842778D01*
X49738454Y-30868992D01*
X50325493Y-31456031D01*
X50278600Y-31569240D01*
X50278600Y-31978760D01*
X50435317Y-32357108D01*
X50724892Y-32646683D01*
X51103240Y-32803400D01*
X51512760Y-32803400D01*
X51891108Y-32646683D01*
X52180683Y-32357108D01*
X52337400Y-31978760D01*
X52337400Y-31569240D01*
X52259583Y-31381374D01*
X52504892Y-31626683D01*
X52883240Y-31783400D01*
X53292760Y-31783400D01*
X53482763Y-31704698D01*
X51696263Y-33491199D01*
X47216592Y-33491199D01*
X47360683Y-33347108D01*
X47517400Y-32968760D01*
X47517400Y-32559240D01*
X47360683Y-32180892D01*
X47071108Y-31891317D01*
X46692760Y-31734600D01*
X46283240Y-31734600D01*
X45904892Y-31891317D01*
X45615317Y-32180892D01*
X45458600Y-32559240D01*
X45458600Y-32968760D01*
X45615317Y-33347108D01*
X45759408Y-33491199D01*
X40761172Y-33491199D01*
X40714900Y-33481995D01*
X40668628Y-33491199D01*
X40668625Y-33491199D01*
X40531555Y-33518464D01*
X40472624Y-33557841D01*
X40393665Y-33610600D01*
X40250859Y-33610600D01*
X40093900Y-33675615D01*
X40093900Y-30780272D01*
X40103104Y-30734000D01*
X40093900Y-30687728D01*
X40093900Y-30687724D01*
X40066635Y-30550654D01*
X39962778Y-30395222D01*
X39923549Y-30369010D01*
X39246091Y-29691553D01*
X39219877Y-29652321D01*
X39064445Y-29548464D01*
X38927375Y-29521199D01*
X38927371Y-29521199D01*
X38881099Y-29511995D01*
X38834827Y-29521199D01*
X31269172Y-29521199D01*
X31222900Y-29511995D01*
X31176628Y-29521199D01*
X31176625Y-29521199D01*
X31065170Y-29543369D01*
X31287549Y-29320990D01*
X31326778Y-29294778D01*
X31430635Y-29139346D01*
X31457900Y-29002276D01*
X31457900Y-29002273D01*
X31467104Y-28956001D01*
X31457900Y-28909729D01*
X31457900Y-26610638D01*
X32960639Y-25107900D01*
X36529728Y-25107900D01*
X36576000Y-25117104D01*
X36622272Y-25107900D01*
X36622276Y-25107900D01*
X36759346Y-25080635D01*
X36914778Y-24976778D01*
X36940992Y-24937546D01*
X37784639Y-24093900D01*
X45568425Y-24093900D01*
X45615317Y-24207108D01*
X45615317Y-24207108D01*
G37*
X45615317Y-24207108D02*
X45830309Y-24422100D01*
X39924271Y-24422100D01*
X39877999Y-24412896D01*
X39831727Y-24422100D01*
X39831724Y-24422100D01*
X39694654Y-24449365D01*
X39668860Y-24466600D01*
X39488859Y-24466600D01*
X39239151Y-24570033D01*
X39048033Y-24761151D01*
X38944600Y-25010859D01*
X38944600Y-25281141D01*
X39048033Y-25530849D01*
X39239151Y-25721967D01*
X39488859Y-25825400D01*
X39759141Y-25825400D01*
X40008849Y-25721967D01*
X40199967Y-25530849D01*
X40269948Y-25361900D01*
X43569561Y-25361900D01*
X42617400Y-26314062D01*
X42617400Y-26280859D01*
X42513967Y-26031151D01*
X42322849Y-25840033D01*
X42073141Y-25736600D01*
X41802859Y-25736600D01*
X41553151Y-25840033D01*
X41447084Y-25946100D01*
X38400272Y-25946100D01*
X38354000Y-25936896D01*
X38307728Y-25946100D01*
X38307724Y-25946100D01*
X38170654Y-25973365D01*
X38015222Y-26077222D01*
X37989009Y-26116452D01*
X37352862Y-26752600D01*
X37202859Y-26752600D01*
X36953151Y-26856033D01*
X36762033Y-27047151D01*
X36658600Y-27296859D01*
X36658600Y-27567141D01*
X36762033Y-27816849D01*
X36953151Y-28007967D01*
X37202859Y-28111400D01*
X37473141Y-28111400D01*
X37722849Y-28007967D01*
X37913967Y-27816849D01*
X38017400Y-27567141D01*
X38017400Y-27417138D01*
X38548639Y-26885900D01*
X40013561Y-26885900D01*
X39892861Y-27006600D01*
X39742859Y-27006600D01*
X39493151Y-27110033D01*
X39302033Y-27301151D01*
X39198600Y-27550859D01*
X39198600Y-27821141D01*
X39302033Y-28070849D01*
X39493151Y-28261967D01*
X39742859Y-28365400D01*
X40013141Y-28365400D01*
X40262849Y-28261967D01*
X40453967Y-28070849D01*
X40557400Y-27821141D01*
X40557400Y-27671139D01*
X40580639Y-27647900D01*
X42371728Y-27647900D01*
X42418000Y-27657104D01*
X42464272Y-27647900D01*
X42464276Y-27647900D01*
X42601346Y-27620635D01*
X42756778Y-27516778D01*
X42782992Y-27477546D01*
X44136639Y-26123900D01*
X45867615Y-26123900D01*
X45802600Y-26280859D01*
X45802600Y-26551141D01*
X45906033Y-26800849D01*
X46029184Y-26924000D01*
X45906033Y-27047151D01*
X45802600Y-27296859D01*
X45802600Y-27567141D01*
X45906033Y-27816849D01*
X46097151Y-28007967D01*
X46346859Y-28111400D01*
X46617141Y-28111400D01*
X46866849Y-28007967D01*
X46972916Y-27901900D01*
X49335362Y-27901900D01*
X49568101Y-28134640D01*
X49568100Y-30457727D01*
X49558896Y-30504000D01*
X49568100Y-30550272D01*
X49568100Y-30550275D01*
X49595365Y-30687345D01*
X49699222Y-30842778D01*
X49738454Y-30868992D01*
X50325493Y-31456031D01*
X50278600Y-31569240D01*
X50278600Y-31978760D01*
X50435317Y-32357108D01*
X50724892Y-32646683D01*
X51103240Y-32803400D01*
X51512760Y-32803400D01*
X51891108Y-32646683D01*
X52180683Y-32357108D01*
X52337400Y-31978760D01*
X52337400Y-31569240D01*
X52259583Y-31381374D01*
X52504892Y-31626683D01*
X52883240Y-31783400D01*
X53292760Y-31783400D01*
X53482763Y-31704698D01*
X51696263Y-33491199D01*
X47216592Y-33491199D01*
X47360683Y-33347108D01*
X47517400Y-32968760D01*
X47517400Y-32559240D01*
X47360683Y-32180892D01*
X47071108Y-31891317D01*
X46692760Y-31734600D01*
X46283240Y-31734600D01*
X45904892Y-31891317D01*
X45615317Y-32180892D01*
X45458600Y-32559240D01*
X45458600Y-32968760D01*
X45615317Y-33347108D01*
X45759408Y-33491199D01*
X40761172Y-33491199D01*
X40714900Y-33481995D01*
X40668628Y-33491199D01*
X40668625Y-33491199D01*
X40531555Y-33518464D01*
X40472624Y-33557841D01*
X40393665Y-33610600D01*
X40250859Y-33610600D01*
X40093900Y-33675615D01*
X40093900Y-30780272D01*
X40103104Y-30734000D01*
X40093900Y-30687728D01*
X40093900Y-30687724D01*
X40066635Y-30550654D01*
X39962778Y-30395222D01*
X39923549Y-30369010D01*
X39246091Y-29691553D01*
X39219877Y-29652321D01*
X39064445Y-29548464D01*
X38927375Y-29521199D01*
X38927371Y-29521199D01*
X38881099Y-29511995D01*
X38834827Y-29521199D01*
X31269172Y-29521199D01*
X31222900Y-29511995D01*
X31176628Y-29521199D01*
X31176625Y-29521199D01*
X31065170Y-29543369D01*
X31287549Y-29320990D01*
X31326778Y-29294778D01*
X31430635Y-29139346D01*
X31457900Y-29002276D01*
X31457900Y-29002273D01*
X31467104Y-28956001D01*
X31457900Y-28909729D01*
X31457900Y-26610638D01*
X32960639Y-25107900D01*
X36529728Y-25107900D01*
X36576000Y-25117104D01*
X36622272Y-25107900D01*
X36622276Y-25107900D01*
X36759346Y-25080635D01*
X36914778Y-24976778D01*
X36940992Y-24937546D01*
X37784639Y-24093900D01*
X45568425Y-24093900D01*
X45615317Y-24207108D01*
D21*
G36*
X1725748Y-37285748D02*
X1476129Y-37659330D01*
X1388474Y-38100000D01*
X1476129Y-38540670D01*
X1725748Y-38914252D01*
X2099330Y-39163871D01*
X2428765Y-39229400D01*
X2651235Y-39229400D01*
X2980670Y-39163871D01*
X3354252Y-38914252D01*
X3416300Y-38821390D01*
X3416301Y-39918610D01*
X3354252Y-39825748D01*
X2980670Y-39576129D01*
X2651235Y-39510600D01*
X2428765Y-39510600D01*
X2099330Y-39576129D01*
X1725748Y-39825748D01*
X1476129Y-40199330D01*
X1388474Y-40640000D01*
X1476129Y-41080670D01*
X1725748Y-41454252D01*
X1818610Y-41516300D01*
X721390Y-41516300D01*
X814252Y-41454252D01*
X1063871Y-41080670D01*
X1151526Y-40640000D01*
X1063871Y-40199330D01*
X814252Y-39825748D01*
X440670Y-39576129D01*
X111235Y-39510600D01*
X-111235Y-39510600D01*
X-440670Y-39576129D01*
X-814252Y-39825748D01*
X-876300Y-39918610D01*
X-876300Y-38821390D01*
X-814252Y-38914252D01*
X-440670Y-39163871D01*
X-111235Y-39229400D01*
X111235Y-39229400D01*
X440670Y-39163871D01*
X814252Y-38914252D01*
X1063871Y-38540670D01*
X1151526Y-38100000D01*
X1063871Y-37659330D01*
X1037265Y-37619511D01*
X1433076Y-37223700D01*
X1818610Y-37223700D01*
X1725748Y-37285748D01*
X1725748Y-37285748D01*
G37*
X1725748Y-37285748D02*
X1476129Y-37659330D01*
X1388474Y-38100000D01*
X1476129Y-38540670D01*
X1725748Y-38914252D01*
X2099330Y-39163871D01*
X2428765Y-39229400D01*
X2651235Y-39229400D01*
X2980670Y-39163871D01*
X3354252Y-38914252D01*
X3416300Y-38821390D01*
X3416301Y-39918610D01*
X3354252Y-39825748D01*
X2980670Y-39576129D01*
X2651235Y-39510600D01*
X2428765Y-39510600D01*
X2099330Y-39576129D01*
X1725748Y-39825748D01*
X1476129Y-40199330D01*
X1388474Y-40640000D01*
X1476129Y-41080670D01*
X1725748Y-41454252D01*
X1818610Y-41516300D01*
X721390Y-41516300D01*
X814252Y-41454252D01*
X1063871Y-41080670D01*
X1151526Y-40640000D01*
X1063871Y-40199330D01*
X814252Y-39825748D01*
X440670Y-39576129D01*
X111235Y-39510600D01*
X-111235Y-39510600D01*
X-440670Y-39576129D01*
X-814252Y-39825748D01*
X-876300Y-39918610D01*
X-876300Y-38821390D01*
X-814252Y-38914252D01*
X-440670Y-39163871D01*
X-111235Y-39229400D01*
X111235Y-39229400D01*
X440670Y-39163871D01*
X814252Y-38914252D01*
X1063871Y-38540670D01*
X1151526Y-38100000D01*
X1063871Y-37659330D01*
X1037265Y-37619511D01*
X1433076Y-37223700D01*
X1818610Y-37223700D01*
X1725748Y-37285748D01*
G36*
X3674219Y-38187006D02*
X3691526Y-38100000D01*
X3618266Y-37731700D01*
X4129525Y-37731700D01*
X3674219Y-38187006D01*
X3674219Y-38187006D01*
G37*
X3674219Y-38187006D02*
X3691526Y-38100000D01*
X3618266Y-37731700D01*
X4129525Y-37731700D01*
X3674219Y-38187006D01*
G36*
X-814252Y-31294252D02*
X-440670Y-31543871D01*
X-111235Y-31609400D01*
X111235Y-31609400D01*
X440670Y-31543871D01*
X480489Y-31517265D01*
X964193Y-32000969D01*
X986158Y-32033842D01*
X1116386Y-32120857D01*
X1231224Y-32143700D01*
X1231225Y-32143700D01*
X1269999Y-32151413D01*
X1308773Y-32143700D01*
X1818610Y-32143700D01*
X1725748Y-32205748D01*
X1476129Y-32579330D01*
X1388474Y-33020000D01*
X1476129Y-33460670D01*
X1725748Y-33834252D01*
X2099330Y-34083871D01*
X2428765Y-34149400D01*
X2651235Y-34149400D01*
X2980670Y-34083871D01*
X3354252Y-33834252D01*
X3603871Y-33460670D01*
X3691526Y-33020000D01*
X3603871Y-32579330D01*
X3354252Y-32205748D01*
X3261390Y-32143700D01*
X5932925Y-32143700D01*
X5956300Y-32167076D01*
X5956301Y-34251220D01*
X5948587Y-34290000D01*
X5956778Y-34331176D01*
X5924600Y-34408859D01*
X5924600Y-34679141D01*
X6028033Y-34928849D01*
X6219151Y-35119967D01*
X6468859Y-35223400D01*
X6739141Y-35223400D01*
X6940600Y-35139952D01*
X6940600Y-35187141D01*
X7044033Y-35436849D01*
X7235151Y-35627967D01*
X7484859Y-35731400D01*
X7755141Y-35731400D01*
X7956600Y-35647952D01*
X7956600Y-35695141D01*
X8060033Y-35944849D01*
X8251151Y-36135967D01*
X8500859Y-36239400D01*
X8771141Y-36239400D01*
X8972600Y-36155952D01*
X8972600Y-36203141D01*
X9069178Y-36436300D01*
X3261390Y-36436300D01*
X3354252Y-36374252D01*
X3603871Y-36000670D01*
X3691526Y-35560000D01*
X3603871Y-35119330D01*
X3354252Y-34745748D01*
X2980670Y-34496129D01*
X2651235Y-34430600D01*
X2428765Y-34430600D01*
X2099330Y-34496129D01*
X1725748Y-34745748D01*
X1476129Y-35119330D01*
X1388474Y-35560000D01*
X1476129Y-36000670D01*
X1725748Y-36374252D01*
X1818610Y-36436300D01*
X1308773Y-36436300D01*
X1269999Y-36428587D01*
X1231225Y-36436300D01*
X1231224Y-36436300D01*
X1116386Y-36459143D01*
X986158Y-36546158D01*
X964193Y-36579031D01*
X480489Y-37062735D01*
X440670Y-37036129D01*
X111235Y-36970600D01*
X-111235Y-36970600D01*
X-440670Y-37036129D01*
X-814252Y-37285748D01*
X-876300Y-37378610D01*
X-876300Y-36281390D01*
X-814252Y-36374252D01*
X-440670Y-36623871D01*
X-111235Y-36689400D01*
X111235Y-36689400D01*
X440670Y-36623871D01*
X814252Y-36374252D01*
X1063871Y-36000670D01*
X1151526Y-35560000D01*
X1063871Y-35119330D01*
X814252Y-34745748D01*
X440670Y-34496129D01*
X111235Y-34430600D01*
X-111235Y-34430600D01*
X-440670Y-34496129D01*
X-814252Y-34745748D01*
X-876300Y-34838610D01*
X-876300Y-33741390D01*
X-814252Y-33834252D01*
X-440670Y-34083871D01*
X-111235Y-34149400D01*
X111235Y-34149400D01*
X440670Y-34083871D01*
X814252Y-33834252D01*
X1063871Y-33460670D01*
X1151526Y-33020000D01*
X1063871Y-32579330D01*
X814252Y-32205748D01*
X440670Y-31956129D01*
X111235Y-31890600D01*
X-111235Y-31890600D01*
X-440670Y-31956129D01*
X-814252Y-32205748D01*
X-876300Y-32298610D01*
X-876300Y-31201390D01*
X-814252Y-31294252D01*
X-814252Y-31294252D01*
G37*
X-814252Y-31294252D02*
X-440670Y-31543871D01*
X-111235Y-31609400D01*
X111235Y-31609400D01*
X440670Y-31543871D01*
X480489Y-31517265D01*
X964193Y-32000969D01*
X986158Y-32033842D01*
X1116386Y-32120857D01*
X1231224Y-32143700D01*
X1231225Y-32143700D01*
X1269999Y-32151413D01*
X1308773Y-32143700D01*
X1818610Y-32143700D01*
X1725748Y-32205748D01*
X1476129Y-32579330D01*
X1388474Y-33020000D01*
X1476129Y-33460670D01*
X1725748Y-33834252D01*
X2099330Y-34083871D01*
X2428765Y-34149400D01*
X2651235Y-34149400D01*
X2980670Y-34083871D01*
X3354252Y-33834252D01*
X3603871Y-33460670D01*
X3691526Y-33020000D01*
X3603871Y-32579330D01*
X3354252Y-32205748D01*
X3261390Y-32143700D01*
X5932925Y-32143700D01*
X5956300Y-32167076D01*
X5956301Y-34251220D01*
X5948587Y-34290000D01*
X5956778Y-34331176D01*
X5924600Y-34408859D01*
X5924600Y-34679141D01*
X6028033Y-34928849D01*
X6219151Y-35119967D01*
X6468859Y-35223400D01*
X6739141Y-35223400D01*
X6940600Y-35139952D01*
X6940600Y-35187141D01*
X7044033Y-35436849D01*
X7235151Y-35627967D01*
X7484859Y-35731400D01*
X7755141Y-35731400D01*
X7956600Y-35647952D01*
X7956600Y-35695141D01*
X8060033Y-35944849D01*
X8251151Y-36135967D01*
X8500859Y-36239400D01*
X8771141Y-36239400D01*
X8972600Y-36155952D01*
X8972600Y-36203141D01*
X9069178Y-36436300D01*
X3261390Y-36436300D01*
X3354252Y-36374252D01*
X3603871Y-36000670D01*
X3691526Y-35560000D01*
X3603871Y-35119330D01*
X3354252Y-34745748D01*
X2980670Y-34496129D01*
X2651235Y-34430600D01*
X2428765Y-34430600D01*
X2099330Y-34496129D01*
X1725748Y-34745748D01*
X1476129Y-35119330D01*
X1388474Y-35560000D01*
X1476129Y-36000670D01*
X1725748Y-36374252D01*
X1818610Y-36436300D01*
X1308773Y-36436300D01*
X1269999Y-36428587D01*
X1231225Y-36436300D01*
X1231224Y-36436300D01*
X1116386Y-36459143D01*
X986158Y-36546158D01*
X964193Y-36579031D01*
X480489Y-37062735D01*
X440670Y-37036129D01*
X111235Y-36970600D01*
X-111235Y-36970600D01*
X-440670Y-37036129D01*
X-814252Y-37285748D01*
X-876300Y-37378610D01*
X-876300Y-36281390D01*
X-814252Y-36374252D01*
X-440670Y-36623871D01*
X-111235Y-36689400D01*
X111235Y-36689400D01*
X440670Y-36623871D01*
X814252Y-36374252D01*
X1063871Y-36000670D01*
X1151526Y-35560000D01*
X1063871Y-35119330D01*
X814252Y-34745748D01*
X440670Y-34496129D01*
X111235Y-34430600D01*
X-111235Y-34430600D01*
X-440670Y-34496129D01*
X-814252Y-34745748D01*
X-876300Y-34838610D01*
X-876300Y-33741390D01*
X-814252Y-33834252D01*
X-440670Y-34083871D01*
X-111235Y-34149400D01*
X111235Y-34149400D01*
X440670Y-34083871D01*
X814252Y-33834252D01*
X1063871Y-33460670D01*
X1151526Y-33020000D01*
X1063871Y-32579330D01*
X814252Y-32205748D01*
X440670Y-31956129D01*
X111235Y-31890600D01*
X-111235Y-31890600D01*
X-440670Y-31956129D01*
X-814252Y-32205748D01*
X-876300Y-32298610D01*
X-876300Y-31201390D01*
X-814252Y-31294252D01*
G36*
X9004300Y-32421076D02*
X9004301Y-34977178D01*
X8775700Y-34882488D01*
X8775700Y-32192476D01*
X9004300Y-32421076D01*
X9004300Y-32421076D01*
G37*
X9004300Y-32421076D02*
X9004301Y-34977178D01*
X8775700Y-34882488D01*
X8775700Y-32192476D01*
X9004300Y-32421076D01*
G36*
X7988300Y-32167075D02*
X7988301Y-34469178D01*
X7759700Y-34374488D01*
X7759700Y-31938475D01*
X7988300Y-32167075D01*
X7988300Y-32167075D01*
G37*
X7988300Y-32167075D02*
X7988301Y-34469178D01*
X7759700Y-34374488D01*
X7759700Y-31938475D01*
X7988300Y-32167075D01*
G36*
X6972300Y-31913076D02*
X6972301Y-33961178D01*
X6743700Y-33866488D01*
X6743700Y-32042773D01*
X6751413Y-32003999D01*
X6741891Y-31956129D01*
X6720857Y-31850386D01*
X6633842Y-31720158D01*
X6600969Y-31698193D01*
X6401808Y-31499033D01*
X6379842Y-31466158D01*
X6249614Y-31379143D01*
X6134776Y-31356300D01*
X6134775Y-31356300D01*
X6096000Y-31348587D01*
X6057225Y-31356300D01*
X3261390Y-31356300D01*
X3354252Y-31294252D01*
X3603871Y-30920670D01*
X3613214Y-30873700D01*
X5932925Y-30873700D01*
X6972300Y-31913076D01*
X6972300Y-31913076D01*
G37*
X6972300Y-31913076D02*
X6972301Y-33961178D01*
X6743700Y-33866488D01*
X6743700Y-32042773D01*
X6751413Y-32003999D01*
X6741891Y-31956129D01*
X6720857Y-31850386D01*
X6633842Y-31720158D01*
X6600969Y-31698193D01*
X6401808Y-31499033D01*
X6379842Y-31466158D01*
X6249614Y-31379143D01*
X6134776Y-31356300D01*
X6134775Y-31356300D01*
X6096000Y-31348587D01*
X6057225Y-31356300D01*
X3261390Y-31356300D01*
X3354252Y-31294252D01*
X3603871Y-30920670D01*
X3613214Y-30873700D01*
X5932925Y-30873700D01*
X6972300Y-31913076D01*
G36*
X-814252Y-28754252D02*
X-440670Y-29003871D01*
X-111235Y-29069400D01*
X111235Y-29069400D01*
X440670Y-29003871D01*
X480489Y-28977265D01*
X964193Y-29460969D01*
X986158Y-29493842D01*
X1116386Y-29580857D01*
X1231224Y-29603700D01*
X1231225Y-29603700D01*
X1269999Y-29611413D01*
X1308773Y-29603700D01*
X1818610Y-29603700D01*
X1725748Y-29665748D01*
X1476129Y-30039330D01*
X1388474Y-30480000D01*
X1476129Y-30920670D01*
X1725748Y-31294252D01*
X1818610Y-31356300D01*
X1433076Y-31356300D01*
X1037265Y-30960489D01*
X1063871Y-30920670D01*
X1151526Y-30480000D01*
X1063871Y-30039330D01*
X814252Y-29665748D01*
X440670Y-29416129D01*
X111235Y-29350600D01*
X-111235Y-29350600D01*
X-440670Y-29416129D01*
X-814252Y-29665748D01*
X-876300Y-29758610D01*
X-876300Y-28661390D01*
X-814252Y-28754252D01*
X-814252Y-28754252D01*
G37*
X-814252Y-28754252D02*
X-440670Y-29003871D01*
X-111235Y-29069400D01*
X111235Y-29069400D01*
X440670Y-29003871D01*
X480489Y-28977265D01*
X964193Y-29460969D01*
X986158Y-29493842D01*
X1116386Y-29580857D01*
X1231224Y-29603700D01*
X1231225Y-29603700D01*
X1269999Y-29611413D01*
X1308773Y-29603700D01*
X1818610Y-29603700D01*
X1725748Y-29665748D01*
X1476129Y-30039330D01*
X1388474Y-30480000D01*
X1476129Y-30920670D01*
X1725748Y-31294252D01*
X1818610Y-31356300D01*
X1433076Y-31356300D01*
X1037265Y-30960489D01*
X1063871Y-30920670D01*
X1151526Y-30480000D01*
X1063871Y-30039330D01*
X814252Y-29665748D01*
X440670Y-29416129D01*
X111235Y-29350600D01*
X-111235Y-29350600D01*
X-440670Y-29416129D01*
X-814252Y-29665748D01*
X-876300Y-29758610D01*
X-876300Y-28661390D01*
X-814252Y-28754252D01*
G36*
X8242300Y-30545524D02*
X7307269Y-29610494D01*
X7496849Y-29531967D01*
X7687967Y-29340849D01*
X7791400Y-29091141D01*
X7791400Y-28873400D01*
X8009141Y-28873400D01*
X8242300Y-28776822D01*
X8242300Y-30545524D01*
X8242300Y-30545524D01*
G37*
X8242300Y-30545524D02*
X7307269Y-29610494D01*
X7496849Y-29531967D01*
X7687967Y-29340849D01*
X7791400Y-29091141D01*
X7791400Y-28873400D01*
X8009141Y-28873400D01*
X8242300Y-28776822D01*
X8242300Y-30545524D01*
G36*
X5907525Y-30086300D02*
X3613214Y-30086300D01*
X3603871Y-30039330D01*
X3354252Y-29665748D01*
X3261390Y-29603700D01*
X5424925Y-29603700D01*
X5907525Y-30086300D01*
X5907525Y-30086300D01*
G37*
X5907525Y-30086300D02*
X3613214Y-30086300D01*
X3603871Y-30039330D01*
X3354252Y-29665748D01*
X3261390Y-29603700D01*
X5424925Y-29603700D01*
X5907525Y-30086300D01*
G36*
X3416301Y-24678610D02*
X3354252Y-24585748D01*
X2980670Y-24336129D01*
X2651235Y-24270600D01*
X2428765Y-24270600D01*
X2099330Y-24336129D01*
X1725748Y-24585748D01*
X1476129Y-24959330D01*
X1388474Y-25400000D01*
X1476129Y-25840670D01*
X1725748Y-26214252D01*
X2099330Y-26463871D01*
X2428765Y-26529400D01*
X2651235Y-26529400D01*
X2980670Y-26463871D01*
X3354252Y-26214252D01*
X3447692Y-26074408D01*
X3504194Y-26158969D01*
X3526159Y-26191842D01*
X3559031Y-26213806D01*
X4891525Y-27546300D01*
X3613214Y-27546300D01*
X3603871Y-27499330D01*
X3354252Y-27125748D01*
X2980670Y-26876129D01*
X2651235Y-26810600D01*
X2428765Y-26810600D01*
X2099330Y-26876129D01*
X1725748Y-27125748D01*
X1476129Y-27499330D01*
X1388474Y-27940000D01*
X1476129Y-28380670D01*
X1725748Y-28754252D01*
X1818610Y-28816300D01*
X1433076Y-28816300D01*
X1037265Y-28420489D01*
X1063871Y-28380670D01*
X1151526Y-27940000D01*
X1063871Y-27499330D01*
X814252Y-27125748D01*
X440670Y-26876129D01*
X111235Y-26810600D01*
X-111235Y-26810600D01*
X-440670Y-26876129D01*
X-814252Y-27125748D01*
X-876300Y-27218610D01*
X-876300Y-26121390D01*
X-814252Y-26214252D01*
X-440670Y-26463871D01*
X-111235Y-26529400D01*
X111235Y-26529400D01*
X440670Y-26463871D01*
X814252Y-26214252D01*
X1063871Y-25840670D01*
X1151526Y-25400000D01*
X1063871Y-24959330D01*
X814252Y-24585748D01*
X721390Y-24523700D01*
X1231225Y-24523700D01*
X1270000Y-24531413D01*
X1308775Y-24523700D01*
X1308776Y-24523700D01*
X1423614Y-24500857D01*
X1553842Y-24413842D01*
X1575808Y-24380967D01*
X1961903Y-23994873D01*
X3390000Y-23994873D01*
X3416300Y-23989641D01*
X3416301Y-24678610D01*
X3416301Y-24678610D01*
G37*
X3416301Y-24678610D02*
X3354252Y-24585748D01*
X2980670Y-24336129D01*
X2651235Y-24270600D01*
X2428765Y-24270600D01*
X2099330Y-24336129D01*
X1725748Y-24585748D01*
X1476129Y-24959330D01*
X1388474Y-25400000D01*
X1476129Y-25840670D01*
X1725748Y-26214252D01*
X2099330Y-26463871D01*
X2428765Y-26529400D01*
X2651235Y-26529400D01*
X2980670Y-26463871D01*
X3354252Y-26214252D01*
X3447692Y-26074408D01*
X3504194Y-26158969D01*
X3526159Y-26191842D01*
X3559031Y-26213806D01*
X4891525Y-27546300D01*
X3613214Y-27546300D01*
X3603871Y-27499330D01*
X3354252Y-27125748D01*
X2980670Y-26876129D01*
X2651235Y-26810600D01*
X2428765Y-26810600D01*
X2099330Y-26876129D01*
X1725748Y-27125748D01*
X1476129Y-27499330D01*
X1388474Y-27940000D01*
X1476129Y-28380670D01*
X1725748Y-28754252D01*
X1818610Y-28816300D01*
X1433076Y-28816300D01*
X1037265Y-28420489D01*
X1063871Y-28380670D01*
X1151526Y-27940000D01*
X1063871Y-27499330D01*
X814252Y-27125748D01*
X440670Y-26876129D01*
X111235Y-26810600D01*
X-111235Y-26810600D01*
X-440670Y-26876129D01*
X-814252Y-27125748D01*
X-876300Y-27218610D01*
X-876300Y-26121390D01*
X-814252Y-26214252D01*
X-440670Y-26463871D01*
X-111235Y-26529400D01*
X111235Y-26529400D01*
X440670Y-26463871D01*
X814252Y-26214252D01*
X1063871Y-25840670D01*
X1151526Y-25400000D01*
X1063871Y-24959330D01*
X814252Y-24585748D01*
X721390Y-24523700D01*
X1231225Y-24523700D01*
X1270000Y-24531413D01*
X1308775Y-24523700D01*
X1308776Y-24523700D01*
X1423614Y-24500857D01*
X1553842Y-24413842D01*
X1575808Y-24380967D01*
X1961903Y-23994873D01*
X3390000Y-23994873D01*
X3416300Y-23989641D01*
X3416301Y-24678610D01*
G36*
X5399525Y-28816300D02*
X3261390Y-28816300D01*
X3354252Y-28754252D01*
X3603871Y-28380670D01*
X3613214Y-28333700D01*
X4916925Y-28333700D01*
X5399525Y-28816300D01*
X5399525Y-28816300D01*
G37*
X5399525Y-28816300D02*
X3261390Y-28816300D01*
X3354252Y-28754252D01*
X3603871Y-28380670D01*
X3613214Y-28333700D01*
X4916925Y-28333700D01*
X5399525Y-28816300D01*
G36*
X8242300Y-27611178D02*
X8009141Y-27514600D01*
X7791400Y-27514600D01*
X7791400Y-27349400D01*
X8009141Y-27349400D01*
X8242300Y-27252822D01*
X8242300Y-27611178D01*
X8242300Y-27611178D01*
G37*
X8242300Y-27611178D02*
X8009141Y-27514600D01*
X7791400Y-27514600D01*
X7791400Y-27349400D01*
X8009141Y-27349400D01*
X8242300Y-27252822D01*
X8242300Y-27611178D01*
G36*
X8242300Y-26087178D02*
X8009141Y-25990600D01*
X7791400Y-25990600D01*
X7791400Y-25825400D01*
X8009141Y-25825400D01*
X8242300Y-25728822D01*
X8242300Y-26087178D01*
X8242300Y-26087178D01*
G37*
X8242300Y-26087178D02*
X8009141Y-25990600D01*
X7791400Y-25990600D01*
X7791400Y-25825400D01*
X8009141Y-25825400D01*
X8242300Y-25728822D01*
X8242300Y-26087178D01*
G36*
X8242300Y-24563178D02*
X8009141Y-24466600D01*
X7791400Y-24466600D01*
X7791400Y-24301400D01*
X8009141Y-24301400D01*
X8242300Y-24204822D01*
X8242300Y-24563178D01*
X8242300Y-24563178D01*
G37*
X8242300Y-24563178D02*
X8009141Y-24466600D01*
X7791400Y-24466600D01*
X7791400Y-24301400D01*
X8009141Y-24301400D01*
X8242300Y-24204822D01*
X8242300Y-24563178D01*
G36*
X-1063871Y-23300670D02*
X-814252Y-23674252D01*
X-674409Y-23767692D01*
X-791842Y-23846158D01*
X-813809Y-23879034D01*
X-1143000Y-24208225D01*
X-1143000Y-23253700D01*
X-1073214Y-23253700D01*
X-1063871Y-23300670D01*
X-1063871Y-23300670D01*
G37*
X-1063871Y-23300670D02*
X-814252Y-23674252D01*
X-674409Y-23767692D01*
X-791842Y-23846158D01*
X-813809Y-23879034D01*
X-1143000Y-24208225D01*
X-1143000Y-23253700D01*
X-1073214Y-23253700D01*
X-1063871Y-23300670D01*
G36*
X1405127Y-22281902D02*
X1405127Y-23438097D01*
X1106925Y-23736300D01*
X721390Y-23736300D01*
X814252Y-23674252D01*
X1063871Y-23300670D01*
X1151526Y-22860000D01*
X1063871Y-22419330D01*
X814252Y-22045748D01*
X721390Y-21983700D01*
X1106925Y-21983700D01*
X1405127Y-22281902D01*
X1405127Y-22281902D01*
G37*
X1405127Y-22281902D02*
X1405127Y-23438097D01*
X1106925Y-23736300D01*
X721390Y-23736300D01*
X814252Y-23674252D01*
X1063871Y-23300670D01*
X1151526Y-22860000D01*
X1063871Y-22419330D01*
X814252Y-22045748D01*
X721390Y-21983700D01*
X1106925Y-21983700D01*
X1405127Y-22281902D01*
G36*
X-1067807Y-21840969D02*
X-1045842Y-21873842D01*
X-915614Y-21960857D01*
X-800776Y-21983700D01*
X-800771Y-21983700D01*
X-762001Y-21991412D01*
X-723231Y-21983700D01*
X-721390Y-21983700D01*
X-814252Y-22045748D01*
X-1063871Y-22419330D01*
X-1073214Y-22466300D01*
X-1143000Y-22466300D01*
X-1143000Y-21765776D01*
X-1067807Y-21840969D01*
X-1067807Y-21840969D01*
G37*
X-1067807Y-21840969D02*
X-1045842Y-21873842D01*
X-915614Y-21960857D01*
X-800776Y-21983700D01*
X-800771Y-21983700D01*
X-762001Y-21991412D01*
X-723231Y-21983700D01*
X-721390Y-21983700D01*
X-814252Y-22045748D01*
X-1063871Y-22419330D01*
X-1073214Y-22466300D01*
X-1143000Y-22466300D01*
X-1143000Y-21765776D01*
X-1067807Y-21840969D01*
G36*
X-814252Y-8434252D02*
X-440670Y-8683871D01*
X-111235Y-8749400D01*
X111235Y-8749400D01*
X440670Y-8683871D01*
X480489Y-8657265D01*
X964193Y-9140969D01*
X986158Y-9173842D01*
X1116386Y-9260857D01*
X1231224Y-9283700D01*
X1231225Y-9283700D01*
X1269999Y-9291413D01*
X1308773Y-9283700D01*
X1818610Y-9283700D01*
X1725748Y-9345748D01*
X1476129Y-9719330D01*
X1388474Y-10160000D01*
X1476129Y-10600670D01*
X1725748Y-10974252D01*
X2099330Y-11223871D01*
X2428765Y-11289400D01*
X2651235Y-11289400D01*
X2980670Y-11223871D01*
X3354252Y-10974252D01*
X3416301Y-10881389D01*
X3416301Y-11978611D01*
X3354252Y-11885748D01*
X2980670Y-11636129D01*
X2651235Y-11570600D01*
X2428765Y-11570600D01*
X2099330Y-11636129D01*
X1725748Y-11885748D01*
X1476129Y-12259330D01*
X1388474Y-12700000D01*
X1476129Y-13140670D01*
X1725748Y-13514252D01*
X2099330Y-13763871D01*
X2428765Y-13829400D01*
X2651235Y-13829400D01*
X2980670Y-13763871D01*
X3354252Y-13514252D01*
X3416301Y-13421389D01*
X3416301Y-14518611D01*
X3354252Y-14425748D01*
X2980670Y-14176129D01*
X2651235Y-14110600D01*
X2428765Y-14110600D01*
X2099330Y-14176129D01*
X1725748Y-14425748D01*
X1476129Y-14799330D01*
X1388474Y-15240000D01*
X1476129Y-15680670D01*
X1725748Y-16054252D01*
X2099330Y-16303871D01*
X2428765Y-16369400D01*
X2651235Y-16369400D01*
X2980670Y-16303871D01*
X3354252Y-16054252D01*
X3416301Y-15961390D01*
X3416300Y-17058610D01*
X3354252Y-16965748D01*
X2980670Y-16716129D01*
X2651235Y-16650600D01*
X2428765Y-16650600D01*
X2099330Y-16716129D01*
X1725748Y-16965748D01*
X1476129Y-17339330D01*
X1388474Y-17780000D01*
X1476129Y-18220670D01*
X1725748Y-18594252D01*
X2099330Y-18843871D01*
X2428765Y-18909400D01*
X2651235Y-18909400D01*
X2980670Y-18843871D01*
X3354252Y-18594252D01*
X3416300Y-18501390D01*
X3416300Y-21730359D01*
X3390000Y-21725127D01*
X1961902Y-21725127D01*
X1575809Y-21339034D01*
X1553842Y-21306158D01*
X1423614Y-21219143D01*
X1308776Y-21196300D01*
X1308775Y-21196300D01*
X1270000Y-21188587D01*
X1231225Y-21196300D01*
X-598924Y-21196300D01*
X-876300Y-20918925D01*
X-876300Y-18501390D01*
X-814252Y-18594252D01*
X-440670Y-18843871D01*
X-111235Y-18909400D01*
X111235Y-18909400D01*
X440670Y-18843871D01*
X814252Y-18594252D01*
X1063871Y-18220670D01*
X1151526Y-17780000D01*
X1063871Y-17339330D01*
X814252Y-16965748D01*
X440670Y-16716129D01*
X111235Y-16650600D01*
X-111235Y-16650600D01*
X-440670Y-16716129D01*
X-814252Y-16965748D01*
X-876300Y-17058610D01*
X-876300Y-15961390D01*
X-814252Y-16054252D01*
X-440670Y-16303871D01*
X-111235Y-16369400D01*
X111235Y-16369400D01*
X440670Y-16303871D01*
X814252Y-16054252D01*
X1063871Y-15680670D01*
X1151526Y-15240000D01*
X1063871Y-14799330D01*
X814252Y-14425748D01*
X440670Y-14176129D01*
X111235Y-14110600D01*
X-111235Y-14110600D01*
X-440670Y-14176129D01*
X-814252Y-14425748D01*
X-876300Y-14518610D01*
X-876300Y-13421390D01*
X-814252Y-13514252D01*
X-440670Y-13763871D01*
X-111235Y-13829400D01*
X111235Y-13829400D01*
X440670Y-13763871D01*
X814252Y-13514252D01*
X1063871Y-13140670D01*
X1151526Y-12700000D01*
X1063871Y-12259330D01*
X814252Y-11885748D01*
X440670Y-11636129D01*
X111235Y-11570600D01*
X-111235Y-11570600D01*
X-440670Y-11636129D01*
X-814252Y-11885748D01*
X-876300Y-11978610D01*
X-876300Y-10881390D01*
X-814252Y-10974252D01*
X-440670Y-11223871D01*
X-111235Y-11289400D01*
X111235Y-11289400D01*
X440670Y-11223871D01*
X814252Y-10974252D01*
X1063871Y-10600670D01*
X1151526Y-10160000D01*
X1063871Y-9719330D01*
X814252Y-9345748D01*
X440670Y-9096129D01*
X111235Y-9030600D01*
X-111235Y-9030600D01*
X-440670Y-9096129D01*
X-814252Y-9345748D01*
X-876300Y-9438610D01*
X-876300Y-8341390D01*
X-814252Y-8434252D01*
X-814252Y-8434252D01*
G37*
X-814252Y-8434252D02*
X-440670Y-8683871D01*
X-111235Y-8749400D01*
X111235Y-8749400D01*
X440670Y-8683871D01*
X480489Y-8657265D01*
X964193Y-9140969D01*
X986158Y-9173842D01*
X1116386Y-9260857D01*
X1231224Y-9283700D01*
X1231225Y-9283700D01*
X1269999Y-9291413D01*
X1308773Y-9283700D01*
X1818610Y-9283700D01*
X1725748Y-9345748D01*
X1476129Y-9719330D01*
X1388474Y-10160000D01*
X1476129Y-10600670D01*
X1725748Y-10974252D01*
X2099330Y-11223871D01*
X2428765Y-11289400D01*
X2651235Y-11289400D01*
X2980670Y-11223871D01*
X3354252Y-10974252D01*
X3416301Y-10881389D01*
X3416301Y-11978611D01*
X3354252Y-11885748D01*
X2980670Y-11636129D01*
X2651235Y-11570600D01*
X2428765Y-11570600D01*
X2099330Y-11636129D01*
X1725748Y-11885748D01*
X1476129Y-12259330D01*
X1388474Y-12700000D01*
X1476129Y-13140670D01*
X1725748Y-13514252D01*
X2099330Y-13763871D01*
X2428765Y-13829400D01*
X2651235Y-13829400D01*
X2980670Y-13763871D01*
X3354252Y-13514252D01*
X3416301Y-13421389D01*
X3416301Y-14518611D01*
X3354252Y-14425748D01*
X2980670Y-14176129D01*
X2651235Y-14110600D01*
X2428765Y-14110600D01*
X2099330Y-14176129D01*
X1725748Y-14425748D01*
X1476129Y-14799330D01*
X1388474Y-15240000D01*
X1476129Y-15680670D01*
X1725748Y-16054252D01*
X2099330Y-16303871D01*
X2428765Y-16369400D01*
X2651235Y-16369400D01*
X2980670Y-16303871D01*
X3354252Y-16054252D01*
X3416301Y-15961390D01*
X3416300Y-17058610D01*
X3354252Y-16965748D01*
X2980670Y-16716129D01*
X2651235Y-16650600D01*
X2428765Y-16650600D01*
X2099330Y-16716129D01*
X1725748Y-16965748D01*
X1476129Y-17339330D01*
X1388474Y-17780000D01*
X1476129Y-18220670D01*
X1725748Y-18594252D01*
X2099330Y-18843871D01*
X2428765Y-18909400D01*
X2651235Y-18909400D01*
X2980670Y-18843871D01*
X3354252Y-18594252D01*
X3416300Y-18501390D01*
X3416300Y-21730359D01*
X3390000Y-21725127D01*
X1961902Y-21725127D01*
X1575809Y-21339034D01*
X1553842Y-21306158D01*
X1423614Y-21219143D01*
X1308776Y-21196300D01*
X1308775Y-21196300D01*
X1270000Y-21188587D01*
X1231225Y-21196300D01*
X-598924Y-21196300D01*
X-876300Y-20918925D01*
X-876300Y-18501390D01*
X-814252Y-18594252D01*
X-440670Y-18843871D01*
X-111235Y-18909400D01*
X111235Y-18909400D01*
X440670Y-18843871D01*
X814252Y-18594252D01*
X1063871Y-18220670D01*
X1151526Y-17780000D01*
X1063871Y-17339330D01*
X814252Y-16965748D01*
X440670Y-16716129D01*
X111235Y-16650600D01*
X-111235Y-16650600D01*
X-440670Y-16716129D01*
X-814252Y-16965748D01*
X-876300Y-17058610D01*
X-876300Y-15961390D01*
X-814252Y-16054252D01*
X-440670Y-16303871D01*
X-111235Y-16369400D01*
X111235Y-16369400D01*
X440670Y-16303871D01*
X814252Y-16054252D01*
X1063871Y-15680670D01*
X1151526Y-15240000D01*
X1063871Y-14799330D01*
X814252Y-14425748D01*
X440670Y-14176129D01*
X111235Y-14110600D01*
X-111235Y-14110600D01*
X-440670Y-14176129D01*
X-814252Y-14425748D01*
X-876300Y-14518610D01*
X-876300Y-13421390D01*
X-814252Y-13514252D01*
X-440670Y-13763871D01*
X-111235Y-13829400D01*
X111235Y-13829400D01*
X440670Y-13763871D01*
X814252Y-13514252D01*
X1063871Y-13140670D01*
X1151526Y-12700000D01*
X1063871Y-12259330D01*
X814252Y-11885748D01*
X440670Y-11636129D01*
X111235Y-11570600D01*
X-111235Y-11570600D01*
X-440670Y-11636129D01*
X-814252Y-11885748D01*
X-876300Y-11978610D01*
X-876300Y-10881390D01*
X-814252Y-10974252D01*
X-440670Y-11223871D01*
X-111235Y-11289400D01*
X111235Y-11289400D01*
X440670Y-11223871D01*
X814252Y-10974252D01*
X1063871Y-10600670D01*
X1151526Y-10160000D01*
X1063871Y-9719330D01*
X814252Y-9345748D01*
X440670Y-9096129D01*
X111235Y-9030600D01*
X-111235Y-9030600D01*
X-440670Y-9096129D01*
X-814252Y-9345748D01*
X-876300Y-9438610D01*
X-876300Y-8341390D01*
X-814252Y-8434252D01*
G36*
X3683000Y-8714225D02*
X3607808Y-8639033D01*
X3585842Y-8606158D01*
X3455614Y-8519143D01*
X3340776Y-8496300D01*
X3340775Y-8496300D01*
X3302000Y-8488587D01*
X3263225Y-8496300D01*
X3261390Y-8496300D01*
X3354252Y-8434252D01*
X3603871Y-8060670D01*
X3683000Y-7662863D01*
X3683000Y-8714225D01*
X3683000Y-8714225D01*
G37*
X3683000Y-8714225D02*
X3607808Y-8639033D01*
X3585842Y-8606158D01*
X3455614Y-8519143D01*
X3340776Y-8496300D01*
X3340775Y-8496300D01*
X3302000Y-8488587D01*
X3263225Y-8496300D01*
X3261390Y-8496300D01*
X3354252Y-8434252D01*
X3603871Y-8060670D01*
X3683000Y-7662863D01*
X3683000Y-8714225D01*
G36*
X-814252Y-5894252D02*
X-440670Y-6143871D01*
X-111235Y-6209400D01*
X111235Y-6209400D01*
X440670Y-6143871D01*
X480489Y-6117265D01*
X599029Y-6235805D01*
X599032Y-6235807D01*
X964193Y-6600969D01*
X986158Y-6633842D01*
X1116386Y-6720857D01*
X1231224Y-6743700D01*
X1231225Y-6743700D01*
X1269999Y-6751413D01*
X1308773Y-6743700D01*
X1818610Y-6743700D01*
X1725748Y-6805748D01*
X1476129Y-7179330D01*
X1388474Y-7620000D01*
X1476129Y-8060670D01*
X1725748Y-8434252D01*
X1818610Y-8496300D01*
X1433076Y-8496300D01*
X1037265Y-8100489D01*
X1063871Y-8060670D01*
X1151526Y-7620000D01*
X1063871Y-7179330D01*
X814252Y-6805748D01*
X440670Y-6556129D01*
X111235Y-6490600D01*
X-111235Y-6490600D01*
X-440670Y-6556129D01*
X-814252Y-6805748D01*
X-876300Y-6898610D01*
X-876300Y-5801390D01*
X-814252Y-5894252D01*
X-814252Y-5894252D01*
G37*
X-814252Y-5894252D02*
X-440670Y-6143871D01*
X-111235Y-6209400D01*
X111235Y-6209400D01*
X440670Y-6143871D01*
X480489Y-6117265D01*
X599029Y-6235805D01*
X599032Y-6235807D01*
X964193Y-6600969D01*
X986158Y-6633842D01*
X1116386Y-6720857D01*
X1231224Y-6743700D01*
X1231225Y-6743700D01*
X1269999Y-6751413D01*
X1308773Y-6743700D01*
X1818610Y-6743700D01*
X1725748Y-6805748D01*
X1476129Y-7179330D01*
X1388474Y-7620000D01*
X1476129Y-8060670D01*
X1725748Y-8434252D01*
X1818610Y-8496300D01*
X1433076Y-8496300D01*
X1037265Y-8100489D01*
X1063871Y-8060670D01*
X1151526Y-7620000D01*
X1063871Y-7179330D01*
X814252Y-6805748D01*
X440670Y-6556129D01*
X111235Y-6490600D01*
X-111235Y-6490600D01*
X-440670Y-6556129D01*
X-814252Y-6805748D01*
X-876300Y-6898610D01*
X-876300Y-5801390D01*
X-814252Y-5894252D01*
G36*
X3683000Y-6779775D02*
X3683000Y-7577137D01*
X3603871Y-7179330D01*
X3354252Y-6805748D01*
X3261390Y-6743700D01*
X3646925Y-6743700D01*
X3683000Y-6779775D01*
X3683000Y-6779775D01*
G37*
X3683000Y-6779775D02*
X3683000Y-7577137D01*
X3603871Y-7179330D01*
X3354252Y-6805748D01*
X3261390Y-6743700D01*
X3646925Y-6743700D01*
X3683000Y-6779775D01*
G36*
X3683000Y-5956300D02*
X3261390Y-5956300D01*
X3354252Y-5894252D01*
X3603871Y-5520670D01*
X3683000Y-5122863D01*
X3683000Y-5956300D01*
X3683000Y-5956300D01*
G37*
X3683000Y-5956300D02*
X3261390Y-5956300D01*
X3354252Y-5894252D01*
X3603871Y-5520670D01*
X3683000Y-5122863D01*
X3683000Y-5956300D01*
G36*
X-814252Y-3354252D02*
X-440670Y-3603871D01*
X-111235Y-3669400D01*
X111235Y-3669400D01*
X440670Y-3603871D01*
X480489Y-3577265D01*
X599029Y-3695805D01*
X599032Y-3695807D01*
X964193Y-4060969D01*
X986158Y-4093842D01*
X1116386Y-4180857D01*
X1231224Y-4203700D01*
X1231225Y-4203700D01*
X1269999Y-4211413D01*
X1308773Y-4203700D01*
X1818610Y-4203700D01*
X1725748Y-4265748D01*
X1476129Y-4639330D01*
X1388474Y-5080000D01*
X1476129Y-5520670D01*
X1725748Y-5894252D01*
X1818610Y-5956300D01*
X1433076Y-5956300D01*
X1155807Y-5679032D01*
X1155805Y-5679029D01*
X1037265Y-5560489D01*
X1063871Y-5520670D01*
X1151526Y-5080000D01*
X1063871Y-4639330D01*
X814252Y-4265748D01*
X440670Y-4016129D01*
X111235Y-3950600D01*
X-111235Y-3950600D01*
X-440670Y-4016129D01*
X-814252Y-4265748D01*
X-876300Y-4358610D01*
X-876300Y-3261390D01*
X-814252Y-3354252D01*
X-814252Y-3354252D01*
G37*
X-814252Y-3354252D02*
X-440670Y-3603871D01*
X-111235Y-3669400D01*
X111235Y-3669400D01*
X440670Y-3603871D01*
X480489Y-3577265D01*
X599029Y-3695805D01*
X599032Y-3695807D01*
X964193Y-4060969D01*
X986158Y-4093842D01*
X1116386Y-4180857D01*
X1231224Y-4203700D01*
X1231225Y-4203700D01*
X1269999Y-4211413D01*
X1308773Y-4203700D01*
X1818610Y-4203700D01*
X1725748Y-4265748D01*
X1476129Y-4639330D01*
X1388474Y-5080000D01*
X1476129Y-5520670D01*
X1725748Y-5894252D01*
X1818610Y-5956300D01*
X1433076Y-5956300D01*
X1155807Y-5679032D01*
X1155805Y-5679029D01*
X1037265Y-5560489D01*
X1063871Y-5520670D01*
X1151526Y-5080000D01*
X1063871Y-4639330D01*
X814252Y-4265748D01*
X440670Y-4016129D01*
X111235Y-3950600D01*
X-111235Y-3950600D01*
X-440670Y-4016129D01*
X-814252Y-4265748D01*
X-876300Y-4358610D01*
X-876300Y-3261390D01*
X-814252Y-3354252D01*
G36*
X3683000Y-5037137D02*
X3603871Y-4639330D01*
X3354252Y-4265748D01*
X3261390Y-4203700D01*
X3683000Y-4203700D01*
X3683000Y-5037137D01*
X3683000Y-5037137D01*
G37*
X3683000Y-5037137D02*
X3603871Y-4639330D01*
X3354252Y-4265748D01*
X3261390Y-4203700D01*
X3683000Y-4203700D01*
X3683000Y-5037137D01*
G36*
X3683000Y-3416300D02*
X3261390Y-3416300D01*
X3354252Y-3354252D01*
X3603871Y-2980670D01*
X3683000Y-2582863D01*
X3683000Y-3416300D01*
X3683000Y-3416300D01*
G37*
X3683000Y-3416300D02*
X3261390Y-3416300D01*
X3354252Y-3354252D01*
X3603871Y-2980670D01*
X3683000Y-2582863D01*
X3683000Y-3416300D01*
G36*
X-814252Y-814252D02*
X-440670Y-1063871D01*
X-111235Y-1129400D01*
X111235Y-1129400D01*
X440670Y-1063871D01*
X480489Y-1037265D01*
X964193Y-1520969D01*
X986158Y-1553842D01*
X1116386Y-1640857D01*
X1231224Y-1663700D01*
X1231225Y-1663700D01*
X1269999Y-1671413D01*
X1308773Y-1663700D01*
X1818610Y-1663700D01*
X1725748Y-1725748D01*
X1476129Y-2099330D01*
X1388474Y-2540000D01*
X1476129Y-2980670D01*
X1725748Y-3354252D01*
X1818610Y-3416300D01*
X1433076Y-3416300D01*
X1155807Y-3139032D01*
X1155805Y-3139029D01*
X1037265Y-3020489D01*
X1063871Y-2980670D01*
X1151526Y-2540000D01*
X1063871Y-2099330D01*
X814252Y-1725748D01*
X440670Y-1476129D01*
X111235Y-1410600D01*
X-111235Y-1410600D01*
X-440670Y-1476129D01*
X-814252Y-1725748D01*
X-876300Y-1818610D01*
X-876300Y-721390D01*
X-814252Y-814252D01*
X-814252Y-814252D01*
G37*
X-814252Y-814252D02*
X-440670Y-1063871D01*
X-111235Y-1129400D01*
X111235Y-1129400D01*
X440670Y-1063871D01*
X480489Y-1037265D01*
X964193Y-1520969D01*
X986158Y-1553842D01*
X1116386Y-1640857D01*
X1231224Y-1663700D01*
X1231225Y-1663700D01*
X1269999Y-1671413D01*
X1308773Y-1663700D01*
X1818610Y-1663700D01*
X1725748Y-1725748D01*
X1476129Y-2099330D01*
X1388474Y-2540000D01*
X1476129Y-2980670D01*
X1725748Y-3354252D01*
X1818610Y-3416300D01*
X1433076Y-3416300D01*
X1155807Y-3139032D01*
X1155805Y-3139029D01*
X1037265Y-3020489D01*
X1063871Y-2980670D01*
X1151526Y-2540000D01*
X1063871Y-2099330D01*
X814252Y-1725748D01*
X440670Y-1476129D01*
X111235Y-1410600D01*
X-111235Y-1410600D01*
X-440670Y-1476129D01*
X-814252Y-1725748D01*
X-876300Y-1818610D01*
X-876300Y-721390D01*
X-814252Y-814252D01*
G36*
X3683000Y-2497137D02*
X3603871Y-2099330D01*
X3354252Y-1725748D01*
X3261390Y-1663700D01*
X3683000Y-1663700D01*
X3683000Y-2497137D01*
X3683000Y-2497137D01*
G37*
X3683000Y-2497137D02*
X3603871Y-2099330D01*
X3354252Y-1725748D01*
X3261390Y-1663700D01*
X3683000Y-1663700D01*
X3683000Y-2497137D01*
G36*
X9766301Y1614923D02*
X9766300Y-1474884D01*
X9584033Y-1657151D01*
X9525000Y-1799668D01*
X9465967Y-1657151D01*
X9283700Y-1474884D01*
X9283700Y1231231D01*
X9291412Y1270001D01*
X9283700Y1308771D01*
X9283700Y1308776D01*
X9260857Y1423614D01*
X9173842Y1553842D01*
X9140970Y1575806D01*
X8912185Y1804590D01*
X9576635Y1804590D01*
X9766301Y1614923D01*
X9766301Y1614923D01*
G37*
X9766301Y1614923D02*
X9766300Y-1474884D01*
X9584033Y-1657151D01*
X9525000Y-1799668D01*
X9465967Y-1657151D01*
X9283700Y-1474884D01*
X9283700Y1231231D01*
X9291412Y1270001D01*
X9283700Y1308771D01*
X9283700Y1308776D01*
X9260857Y1423614D01*
X9173842Y1553842D01*
X9140970Y1575806D01*
X8912185Y1804590D01*
X9576635Y1804590D01*
X9766301Y1614923D01*
G36*
X9584033Y-2426849D02*
X9775151Y-2617967D01*
X9917668Y-2677000D01*
X9775151Y-2736033D01*
X9584033Y-2927151D01*
X9525000Y-3069668D01*
X9465967Y-2927151D01*
X9274849Y-2736033D01*
X9132332Y-2677000D01*
X9274849Y-2617967D01*
X9465967Y-2426849D01*
X9525000Y-2284332D01*
X9584033Y-2426849D01*
X9584033Y-2426849D01*
G37*
X9584033Y-2426849D02*
X9775151Y-2617967D01*
X9917668Y-2677000D01*
X9775151Y-2736033D01*
X9584033Y-2927151D01*
X9525000Y-3069668D01*
X9465967Y-2927151D01*
X9274849Y-2736033D01*
X9132332Y-2677000D01*
X9274849Y-2617967D01*
X9465967Y-2426849D01*
X9525000Y-2284332D01*
X9584033Y-2426849D01*
G36*
X10854033Y-3696849D02*
X11036301Y-3879117D01*
X11036301Y-4025220D01*
X11028587Y-4064000D01*
X11059143Y-4217613D01*
X11059144Y-4217614D01*
X11146159Y-4347842D01*
X11179031Y-4369806D01*
X11378193Y-4568969D01*
X11400158Y-4601842D01*
X11526559Y-4686300D01*
X10831076Y-4686300D01*
X10553700Y-4408925D01*
X10553700Y-3879116D01*
X10735967Y-3696849D01*
X10795000Y-3554332D01*
X10854033Y-3696849D01*
X10854033Y-3696849D01*
G37*
X10854033Y-3696849D02*
X11036301Y-3879117D01*
X11036301Y-4025220D01*
X11028587Y-4064000D01*
X11059143Y-4217613D01*
X11059144Y-4217614D01*
X11146159Y-4347842D01*
X11179031Y-4369806D01*
X11378193Y-4568969D01*
X11400158Y-4601842D01*
X11526559Y-4686300D01*
X10831076Y-4686300D01*
X10553700Y-4408925D01*
X10553700Y-3879116D01*
X10735967Y-3696849D01*
X10795000Y-3554332D01*
X10854033Y-3696849D01*
G04 #@! TD*
M02*
