G04 #@! TF.GenerationSoftware,KiCad,Pcbnew,(5.0.2)-1*
G04 #@! TF.CreationDate,2020-03-04T16:34:23-06:00*
G04 #@! TF.ProjectId,TM4C129-Breakout_Hardware,544d3443-3132-4392-9d42-7265616b6f75,rev?*
G04 #@! TF.SameCoordinates,Original*
G04 #@! TF.FileFunction,Copper,L2,Bot*
G04 #@! TF.FilePolarity,Positive*
%FSLAX46Y46*%
G04 Gerber Fmt 4.6, Leading zero omitted, Abs format (unit mm)*
G04 Created by KiCad (PCBNEW (5.0.2)-1) date 3/4/2020 4:34:23 PM*
%MOMM*%
%LPD*%
G01*
G04 APERTURE LIST*
G04 #@! TA.AperFunction,ComponentPad*
%ADD10R,1.700000X1.700000*%
G04 #@! TD*
G04 #@! TA.AperFunction,ComponentPad*
%ADD11O,1.700000X1.700000*%
G04 #@! TD*
G04 #@! TA.AperFunction,ComponentPad*
%ADD12C,1.500000*%
G04 #@! TD*
G04 #@! TA.AperFunction,ComponentPad*
%ADD13C,2.000000*%
G04 #@! TD*
G04 #@! TA.AperFunction,ComponentPad*
%ADD14R,1.500000X1.500000*%
G04 #@! TD*
G04 #@! TA.AperFunction,ComponentPad*
%ADD15C,0.800000*%
G04 #@! TD*
G04 #@! TA.AperFunction,ViaPad*
%ADD16C,0.800000*%
G04 #@! TD*
G04 #@! TA.AperFunction,Conductor*
%ADD17C,0.762000*%
G04 #@! TD*
G04 #@! TA.AperFunction,Conductor*
%ADD18C,0.381000*%
G04 #@! TD*
G04 #@! TA.AperFunction,Conductor*
%ADD19C,0.228600*%
G04 #@! TD*
G04 #@! TA.AperFunction,NonConductor*
%ADD20C,0.254000*%
G04 #@! TD*
G04 #@! TA.AperFunction,Conductor*
%ADD21C,0.254000*%
G04 #@! TD*
G04 APERTURE END LIST*
D10*
G04 #@! TO.P,J4,1*
G04 #@! TO.N,T2_A*
X187960000Y-86360000D03*
D11*
G04 #@! TO.P,J4,2*
G04 #@! TO.N,Net-(J4-Pad2)*
X185420000Y-86360000D03*
G04 #@! TO.P,J4,3*
G04 #@! TO.N,T2_B*
X187960000Y-88900000D03*
G04 #@! TO.P,J4,4*
G04 #@! TO.N,PWM1*
X185420000Y-88900000D03*
G04 #@! TO.P,J4,5*
G04 #@! TO.N,T3_A*
X187960000Y-91440000D03*
G04 #@! TO.P,J4,6*
G04 #@! TO.N,PWM2*
X185420000Y-91440000D03*
G04 #@! TO.P,J4,7*
G04 #@! TO.N,T3_B*
X187960000Y-93980000D03*
G04 #@! TO.P,J4,8*
G04 #@! TO.N,PWM3*
X185420000Y-93980000D03*
G04 #@! TO.P,J4,9*
G04 #@! TO.N,T4_A*
X187960000Y-96520000D03*
G04 #@! TO.P,J4,10*
G04 #@! TO.N,PWM4*
X185420000Y-96520000D03*
G04 #@! TO.P,J4,11*
G04 #@! TO.N,T4_B*
X187960000Y-99060000D03*
G04 #@! TO.P,J4,12*
G04 #@! TO.N,PWM5*
X185420000Y-99060000D03*
G04 #@! TO.P,J4,13*
G04 #@! TO.N,T5_A*
X187960000Y-101600000D03*
G04 #@! TO.P,J4,14*
G04 #@! TO.N,PWM6*
X185420000Y-101600000D03*
G04 #@! TO.P,J4,15*
G04 #@! TO.N,T5_B*
X187960000Y-104140000D03*
G04 #@! TO.P,J4,16*
G04 #@! TO.N,PWM7*
X185420000Y-104140000D03*
G04 #@! TD*
D12*
G04 #@! TO.P,J1,12*
G04 #@! TO.N,Ethernet_Link*
X176028000Y-121414000D03*
G04 #@! TO.P,J1,11*
G04 #@! TO.N,Net-(J1-Pad11)*
X176028000Y-119124000D03*
G04 #@! TO.P,J1,10*
G04 #@! TO.N,Ethernet_Activity*
X176028000Y-109984000D03*
G04 #@! TO.P,J1,9*
G04 #@! TO.N,Net-(J1-Pad9)*
X176028000Y-107694000D03*
D13*
G04 #@! TO.P,J1,SH*
G04 #@! TO.N,N/C*
X181738000Y-106424000D03*
X181738000Y-122684000D03*
D12*
G04 #@! TO.P,J1,8*
G04 #@! TO.N,Net-(J1-Pad7)*
X180848000Y-118134000D03*
G04 #@! TO.P,J1,6*
G04 #@! TO.N,Net-(J1-Pad6)*
X180848000Y-116094000D03*
G04 #@! TO.P,J1,4*
G04 #@! TO.N,Net-(J1-Pad4)*
X180848000Y-114054000D03*
G04 #@! TO.P,J1,2*
G04 #@! TO.N,Net-(J1-Pad2)*
X180848000Y-112014000D03*
G04 #@! TO.P,J1,7*
G04 #@! TO.N,Net-(J1-Pad7)*
X182628000Y-117114000D03*
G04 #@! TO.P,J1,5*
G04 #@! TO.N,Net-(J1-Pad4)*
X182628000Y-115074000D03*
G04 #@! TO.P,J1,3*
G04 #@! TO.N,Net-(J1-Pad3)*
X182628000Y-113034000D03*
D14*
G04 #@! TO.P,J1,1*
G04 #@! TO.N,Net-(J1-Pad1)*
X182628000Y-110994000D03*
G04 #@! TD*
D10*
G04 #@! TO.P,J2,1*
G04 #@! TO.N,A8*
X132080000Y-86360000D03*
D11*
G04 #@! TO.P,J2,2*
G04 #@! TO.N,A0*
X129540000Y-86360000D03*
G04 #@! TO.P,J2,3*
G04 #@! TO.N,A9*
X132080000Y-88900000D03*
G04 #@! TO.P,J2,4*
G04 #@! TO.N,A1*
X129540000Y-88900000D03*
G04 #@! TO.P,J2,5*
G04 #@! TO.N,A10*
X132080000Y-91440000D03*
G04 #@! TO.P,J2,6*
G04 #@! TO.N,A2*
X129540000Y-91440000D03*
G04 #@! TO.P,J2,7*
G04 #@! TO.N,A11*
X132080000Y-93980000D03*
G04 #@! TO.P,J2,8*
G04 #@! TO.N,A3*
X129540000Y-93980000D03*
G04 #@! TO.P,J2,9*
G04 #@! TO.N,A12*
X132080000Y-96520000D03*
G04 #@! TO.P,J2,10*
G04 #@! TO.N,A4*
X129540000Y-96520000D03*
G04 #@! TO.P,J2,11*
G04 #@! TO.N,A13*
X132080000Y-99060000D03*
G04 #@! TO.P,J2,12*
G04 #@! TO.N,A5*
X129540000Y-99060000D03*
G04 #@! TO.P,J2,13*
G04 #@! TO.N,A14*
X132080000Y-101600000D03*
G04 #@! TO.P,J2,14*
G04 #@! TO.N,A6*
X129540000Y-101600000D03*
G04 #@! TO.P,J2,15*
G04 #@! TO.N,A15*
X132080000Y-104140000D03*
G04 #@! TO.P,J2,16*
G04 #@! TO.N,A7*
X129540000Y-104140000D03*
G04 #@! TD*
D15*
G04 #@! TO.P,Conn1,10*
G04 #@! TO.N,~RST*
X138430000Y-89672000D03*
G04 #@! TO.P,Conn1,9*
G04 #@! TO.N,TX0*
X138430000Y-88402000D03*
G04 #@! TO.P,Conn1,8*
G04 #@! TO.N,TDI*
X139700000Y-89672000D03*
G04 #@! TO.P,Conn1,7*
G04 #@! TO.N,RX0*
X139700000Y-88402000D03*
G04 #@! TO.P,Conn1,6*
G04 #@! TO.N,TDO*
X140970000Y-89672000D03*
G04 #@! TO.P,Conn1,5*
G04 #@! TO.N,GND*
X140970000Y-88402000D03*
G04 #@! TO.P,Conn1,4*
G04 #@! TO.N,TCK*
X142240000Y-89672000D03*
G04 #@! TO.P,Conn1,3*
G04 #@! TO.N,GND*
X142240000Y-88402000D03*
G04 #@! TO.P,Conn1,2*
G04 #@! TO.N,TMS*
X143510000Y-89672000D03*
G04 #@! TO.P,Conn1,1*
G04 #@! TO.N,+3V3*
X143510000Y-88402000D03*
G04 #@! TD*
D11*
G04 #@! TO.P,J3,16*
G04 #@! TO.N,RX7*
X129540000Y-127000000D03*
G04 #@! TO.P,J3,15*
G04 #@! TO.N,TX7*
X132080000Y-127000000D03*
G04 #@! TO.P,J3,14*
G04 #@! TO.N,RX6*
X129540000Y-124460000D03*
G04 #@! TO.P,J3,13*
G04 #@! TO.N,TX6*
X132080000Y-124460000D03*
G04 #@! TO.P,J3,12*
G04 #@! TO.N,RX5*
X129540000Y-121920000D03*
G04 #@! TO.P,J3,11*
G04 #@! TO.N,TX5*
X132080000Y-121920000D03*
G04 #@! TO.P,J3,10*
G04 #@! TO.N,RX4*
X129540000Y-119380000D03*
G04 #@! TO.P,J3,9*
G04 #@! TO.N,TX4*
X132080000Y-119380000D03*
G04 #@! TO.P,J3,8*
G04 #@! TO.N,RX3*
X129540000Y-116840000D03*
G04 #@! TO.P,J3,7*
G04 #@! TO.N,TX3*
X132080000Y-116840000D03*
G04 #@! TO.P,J3,6*
G04 #@! TO.N,RX2*
X129540000Y-114300000D03*
G04 #@! TO.P,J3,5*
G04 #@! TO.N,TX2*
X132080000Y-114300000D03*
G04 #@! TO.P,J3,4*
G04 #@! TO.N,RX1*
X129540000Y-111760000D03*
G04 #@! TO.P,J3,3*
G04 #@! TO.N,TX1*
X132080000Y-111760000D03*
G04 #@! TO.P,J3,2*
G04 #@! TO.N,RX0*
X129540000Y-109220000D03*
D10*
G04 #@! TO.P,J3,1*
G04 #@! TO.N,TX0*
X132080000Y-109220000D03*
G04 #@! TD*
D11*
G04 #@! TO.P,J5,4*
G04 #@! TO.N,SDA0*
X152400000Y-88900000D03*
G04 #@! TO.P,J5,3*
G04 #@! TO.N,SCL0*
X154940000Y-88900000D03*
G04 #@! TO.P,J5,2*
G04 #@! TO.N,+3V3*
X152400000Y-86360000D03*
D10*
G04 #@! TO.P,J5,1*
G04 #@! TO.N,GND*
X154940000Y-86360000D03*
G04 #@! TD*
G04 #@! TO.P,J6,1*
G04 #@! TO.N,GND*
X172720000Y-86360000D03*
D11*
G04 #@! TO.P,J6,2*
G04 #@! TO.N,+3V3*
X170180000Y-86360000D03*
G04 #@! TO.P,J6,3*
G04 #@! TO.N,GND*
X172720000Y-88900000D03*
G04 #@! TO.P,J6,4*
G04 #@! TO.N,+3V3*
X170180000Y-88900000D03*
G04 #@! TD*
D16*
G04 #@! TO.N,GND*
X151130000Y-111252000D03*
X146050000Y-111252000D03*
X152908000Y-109220000D03*
X153924000Y-108458000D03*
X144526000Y-109982000D03*
X150876000Y-106426000D03*
X146050000Y-104902000D03*
X143764000Y-119126000D03*
X176022000Y-103886000D03*
X140716000Y-85852000D03*
X145034000Y-87376000D03*
X146304000Y-87376000D03*
X146303998Y-89154000D03*
X145034000Y-89154000D03*
X146303998Y-90932000D03*
X136906000Y-85344000D03*
X135636000Y-85344000D03*
X135636000Y-90932000D03*
X136906000Y-90932000D03*
X135636000Y-92202000D03*
X136906000Y-92202000D03*
X160020000Y-86360000D03*
X162560000Y-86360000D03*
X165100000Y-86360000D03*
X165100000Y-88900000D03*
X162560000Y-88900000D03*
X160020000Y-88900000D03*
X140716000Y-125984000D03*
X140716000Y-128016000D03*
X139446000Y-127000000D03*
X181356000Y-103886000D03*
X182626000Y-103886000D03*
X160020000Y-96266000D03*
X161036000Y-96266000D03*
X156718000Y-99568000D03*
X139700000Y-94488000D03*
X139700000Y-93218000D03*
X139700000Y-91948000D03*
X162306000Y-110998000D03*
X163576000Y-109474000D03*
G04 #@! TO.N,+3V3*
X149606000Y-108966000D03*
X148082000Y-107442000D03*
X150622000Y-108966000D03*
X147066000Y-107442000D03*
X164592000Y-120650000D03*
X164592000Y-117475000D03*
X164592000Y-123825000D03*
X164592000Y-127000000D03*
X158877000Y-119126000D03*
X164592000Y-114300000D03*
X163802000Y-110998000D03*
X164084000Y-105664000D03*
G04 #@! TO.N,Net-(C11-Pad1)*
X146050000Y-106426000D03*
X150876000Y-104902000D03*
G04 #@! TO.N,TDO*
X144272000Y-90678000D03*
G04 #@! TO.N,RX0*
X141732000Y-119380000D03*
G04 #@! TO.N,TDI*
X143510000Y-91440000D03*
G04 #@! TO.N,TX0*
X140716000Y-119888000D03*
G04 #@! TO.N,Ethernet_Link*
X153162000Y-127762000D03*
G04 #@! TO.N,Net-(J1-Pad11)*
X153162000Y-129540000D03*
G04 #@! TO.N,Ethernet_Activity*
X155956000Y-116586000D03*
G04 #@! TO.N,A0*
X137414000Y-113030000D03*
G04 #@! TO.N,A1*
X136652000Y-113792000D03*
G04 #@! TO.N,A2*
X137414000Y-114554000D03*
G04 #@! TO.N,A3*
X136652000Y-115316000D03*
X136652000Y-115316000D03*
G04 #@! TO.N,A12*
X136652000Y-112268000D03*
X135636000Y-96774000D03*
G04 #@! TO.N,A13*
X137414000Y-111506000D03*
X136144000Y-99314000D03*
G04 #@! TO.N,A14*
X136652000Y-110744000D03*
X136652000Y-101854000D03*
G04 #@! TO.N,A15*
X137414000Y-109982000D03*
X137064700Y-104394000D03*
G04 #@! TO.N,RX6*
X140462000Y-102108000D03*
G04 #@! TO.N,TX6*
X139701108Y-102868892D03*
G04 #@! TO.N,RX3*
X136144000Y-120904000D03*
G04 #@! TO.N,TX3*
X137160000Y-121412000D03*
G04 #@! TO.N,RX2*
X138176000Y-121920000D03*
G04 #@! TO.N,TX2*
X139192000Y-122428000D03*
G04 #@! TO.N,PWM1*
X154178000Y-118999000D03*
G04 #@! TO.N,PWM2*
X154590700Y-118110000D03*
G04 #@! TO.N,PWM3*
X155098700Y-117221000D03*
G04 #@! TO.N,PWM4*
X155702000Y-115570000D03*
G04 #@! TO.N,PWM5*
X156114700Y-114681000D03*
G04 #@! TO.N,PWM6*
X160020000Y-110490000D03*
G04 #@! TO.N,PWM7*
X160782000Y-111252000D03*
G04 #@! TO.N,~RST*
X140716000Y-84447400D03*
X178816000Y-104902000D03*
G04 #@! TD*
D17*
G04 #@! TO.N,+3V3*
X148082000Y-107442000D02*
X149606000Y-108966000D01*
X149606000Y-108966000D02*
X150622000Y-108966000D01*
X148082000Y-107442000D02*
X147066000Y-107442000D01*
D18*
X164592000Y-116332000D02*
X164592000Y-115951000D01*
X164592000Y-114300000D02*
X164592000Y-116332000D01*
X164592000Y-116332000D02*
X164592000Y-117475000D01*
X164592000Y-117602000D02*
X164592000Y-120650000D01*
X164592000Y-117475000D02*
X164592000Y-117602000D01*
X164592000Y-123825000D02*
X164592000Y-120650000D01*
X164592000Y-123825000D02*
X164592000Y-127000000D01*
X160401000Y-120650000D02*
X158877000Y-119126000D01*
X161544000Y-120650000D02*
X160401000Y-120650000D01*
X161544000Y-120650000D02*
X164592000Y-120650000D01*
X163802000Y-110998000D02*
X164338000Y-110462000D01*
X164338000Y-110462000D02*
X164338000Y-105918000D01*
X164338000Y-105918000D02*
X164084000Y-105664000D01*
D19*
G04 #@! TO.N,Net-(C11-Pad1)*
X149352000Y-106426000D02*
X150876000Y-104902000D01*
X146050000Y-106426000D02*
X149352000Y-106426000D01*
G04 #@! TO.N,TDO*
X140970000Y-89672000D02*
X140970000Y-90424000D01*
X140970000Y-90424000D02*
X141224000Y-90678000D01*
X141224000Y-90678000D02*
X144272000Y-90678000D01*
G04 #@! TO.N,RX0*
X141732000Y-119380000D02*
X141478000Y-119634000D01*
X141478000Y-119634000D02*
X141478000Y-120142000D01*
X141478000Y-120142000D02*
X141478000Y-120904000D01*
X139192000Y-124714000D02*
X138938000Y-124714000D01*
X134366000Y-124714000D02*
X139192000Y-124714000D01*
X133858000Y-125222000D02*
X134366000Y-124714000D01*
X127762000Y-109220000D02*
X127762000Y-127762000D01*
X129540000Y-109220000D02*
X127762000Y-109220000D01*
X127762000Y-127762000D02*
X128778000Y-128778000D01*
X128778000Y-128778000D02*
X132842000Y-128778000D01*
X132842000Y-128778000D02*
X133858000Y-127762000D01*
X133858000Y-127762000D02*
X133858000Y-125222000D01*
X141478000Y-121158000D02*
X141478000Y-120142000D01*
X141478000Y-123444000D02*
X141478000Y-121158000D01*
X139192000Y-124714000D02*
X140208000Y-124714000D01*
X140208000Y-124714000D02*
X141478000Y-123444000D01*
X127762000Y-85344000D02*
X127762000Y-109220000D01*
X139700000Y-84582000D02*
X139279710Y-84161710D01*
X139700000Y-88402000D02*
X139700000Y-84582000D01*
X139279710Y-84161710D02*
X129706290Y-84161710D01*
X129706290Y-84161710D02*
X129286000Y-84582000D01*
X129286000Y-84582000D02*
X128524000Y-84582000D01*
X128524000Y-84582000D02*
X127762000Y-85344000D01*
G04 #@! TO.N,TDI*
X139700000Y-89672000D02*
X139700000Y-90932000D01*
X139700000Y-90932000D02*
X140208000Y-91440000D01*
X140208000Y-91440000D02*
X143510000Y-91440000D01*
G04 #@! TO.N,TX0*
X138938000Y-124206000D02*
X139192000Y-124206000D01*
X131230001Y-110069999D02*
X132080000Y-109220000D01*
X130810000Y-110490000D02*
X131230001Y-110069999D01*
X129032000Y-110490000D02*
X130810000Y-110490000D01*
X128270000Y-111252000D02*
X129032000Y-110490000D01*
X128270000Y-127508000D02*
X128270000Y-111252000D01*
X139192000Y-124206000D02*
X134112000Y-124206000D01*
X134112000Y-124206000D02*
X133350000Y-124968000D01*
X133350000Y-124968000D02*
X133350000Y-127508000D01*
X132588000Y-128270000D02*
X129032000Y-128270000D01*
X133350000Y-127508000D02*
X132588000Y-128270000D01*
X129032000Y-128270000D02*
X128270000Y-127508000D01*
X139954000Y-124206000D02*
X139446000Y-124206000D01*
X140970000Y-123190000D02*
X139954000Y-124206000D01*
X139446000Y-124206000D02*
X139700000Y-124206000D01*
X139192000Y-124206000D02*
X139446000Y-124206000D01*
X140716000Y-119888000D02*
X140462000Y-120142000D01*
X140462000Y-120142000D02*
X140462000Y-120904000D01*
X140462000Y-120904000D02*
X140970000Y-121412000D01*
X140970000Y-121412000D02*
X140970000Y-123190000D01*
X138430000Y-85090000D02*
X138430000Y-88402000D01*
X137922000Y-84582000D02*
X138430000Y-85090000D01*
X130048000Y-84582000D02*
X137922000Y-84582000D01*
X129540000Y-85090000D02*
X130048000Y-84582000D01*
X130810000Y-107950000D02*
X128778000Y-107950000D01*
X132080000Y-109220000D02*
X130810000Y-107950000D01*
X128778000Y-107950000D02*
X128270000Y-107442000D01*
X128270000Y-107442000D02*
X128270000Y-85449938D01*
X128270000Y-85449938D02*
X128629938Y-85090000D01*
X128629938Y-85090000D02*
X129540000Y-85090000D01*
D18*
G04 #@! TO.N,Ethernet_Link*
X176028000Y-121414000D02*
X176028000Y-121660000D01*
D19*
X176028000Y-121414000D02*
X175260000Y-122182000D01*
X175260000Y-128524000D02*
X174752000Y-129032000D01*
X153670000Y-129032000D02*
X153162000Y-128524000D01*
X174752000Y-129032000D02*
X153670000Y-129032000D01*
X153162000Y-128524000D02*
X153162000Y-127762000D01*
X175260000Y-128524000D02*
X175260000Y-122182000D01*
D18*
G04 #@! TO.N,Net-(J1-Pad11)*
X176028000Y-119124000D02*
X177546000Y-120642000D01*
X177546000Y-120642000D02*
X177546000Y-121920000D01*
X177546000Y-121920000D02*
X176022000Y-123444000D01*
X176022000Y-123444000D02*
X176022000Y-124460000D01*
X176022000Y-124460000D02*
X176022000Y-128778000D01*
X176022000Y-128778000D02*
X175006000Y-129794000D01*
X153162000Y-129540000D02*
X153416000Y-129794000D01*
X175006000Y-129794000D02*
X153416000Y-129794000D01*
D19*
G04 #@! TO.N,Ethernet_Activity*
X156355999Y-116186001D02*
X155956000Y-116586000D01*
X156781401Y-115760599D02*
X156355999Y-116186001D01*
X156781401Y-113347599D02*
X156781401Y-115760599D01*
X158115000Y-112014000D02*
X156781401Y-113347599D01*
X173998000Y-112014000D02*
X176028000Y-109984000D01*
X161544000Y-112014000D02*
X173998000Y-112014000D01*
X161544000Y-112014000D02*
X158115000Y-112014000D01*
X161671000Y-112014000D02*
X161544000Y-112014000D01*
G04 #@! TO.N,A0*
X137414000Y-113030000D02*
X136398000Y-113030000D01*
X136398000Y-113030000D02*
X134874000Y-111506000D01*
X134874000Y-111506000D02*
X134874000Y-110744000D01*
X134874000Y-110744000D02*
X134874000Y-110490000D01*
X134874000Y-110490000D02*
X134874000Y-109474000D01*
X129540000Y-86360000D02*
X130556000Y-87376000D01*
X130556000Y-87376000D02*
X130810000Y-87630000D01*
X130810000Y-87630000D02*
X132334000Y-87630000D01*
X132334000Y-87630000D02*
X134366000Y-87630000D01*
X134366000Y-87630000D02*
X134874000Y-88138000D01*
X134874000Y-88138000D02*
X134874000Y-96774000D01*
X134874000Y-96774000D02*
X134874000Y-97790000D01*
X134874000Y-105156000D02*
X134874000Y-110490000D01*
X134874000Y-105156000D02*
X134874000Y-105410000D01*
X134874000Y-97790000D02*
X134874000Y-105156000D01*
G04 #@! TO.N,A1*
X134366000Y-111760000D02*
X134366000Y-110744000D01*
X136652000Y-113792000D02*
X136398000Y-113792000D01*
X136398000Y-113792000D02*
X134366000Y-111760000D01*
X134366000Y-110744000D02*
X134366000Y-110490000D01*
X129540000Y-88900000D02*
X130389999Y-89749999D01*
X130389999Y-89749999D02*
X130810000Y-90170000D01*
X130810000Y-90170000D02*
X133858000Y-90170000D01*
X133858000Y-90170000D02*
X134366000Y-90678000D01*
X134366000Y-90678000D02*
X134366000Y-95758000D01*
X134366000Y-95758000D02*
X134366000Y-96774000D01*
X134366000Y-96774000D02*
X134366000Y-97028000D01*
X134366000Y-105664000D02*
X134366000Y-109982000D01*
X134366000Y-105156000D02*
X134366000Y-105664000D01*
X134366000Y-109982000D02*
X134366000Y-109474000D01*
X134366000Y-110490000D02*
X134366000Y-109982000D01*
X134366000Y-105156000D02*
X134366000Y-105410000D01*
X134366000Y-97028000D02*
X134366000Y-105156000D01*
G04 #@! TO.N,A2*
X137414000Y-114554000D02*
X136398000Y-114554000D01*
X136398000Y-114554000D02*
X133858000Y-112014000D01*
X133858000Y-112014000D02*
X133858000Y-110744000D01*
X133858000Y-110744000D02*
X133858000Y-110490000D01*
X130389999Y-92289999D02*
X129540000Y-91440000D01*
X130810000Y-92710000D02*
X130389999Y-92289999D01*
X133350000Y-92710000D02*
X130810000Y-92710000D01*
X133858000Y-93218000D02*
X133350000Y-92710000D01*
X133858000Y-93218000D02*
X133858000Y-96774000D01*
X133858000Y-104902000D02*
X133858000Y-109982000D01*
X133858000Y-109982000D02*
X133858000Y-109474000D01*
X133858000Y-110490000D02*
X133858000Y-109982000D01*
X133858000Y-104902000D02*
X133858000Y-105410000D01*
X133858000Y-96774000D02*
X133858000Y-104902000D01*
G04 #@! TO.N,A3*
X136398000Y-115316000D02*
X136652000Y-115316000D01*
X133350000Y-112268000D02*
X136398000Y-115316000D01*
X130810000Y-95250000D02*
X129540000Y-93980000D01*
X132842000Y-95250000D02*
X130810000Y-95250000D01*
X133350000Y-95758000D02*
X132842000Y-95250000D01*
X133350000Y-109728000D02*
X133350000Y-95758000D01*
X133350000Y-109728000D02*
X133350000Y-112268000D01*
X133350000Y-109474000D02*
X133350000Y-109728000D01*
G04 #@! TO.N,A12*
X136398000Y-112268000D02*
X136652000Y-112268000D01*
X135382000Y-111252000D02*
X136398000Y-112268000D01*
X135382000Y-110744000D02*
X135382000Y-111252000D01*
X135382000Y-110744000D02*
X135382000Y-110490000D01*
X135382000Y-107188000D02*
X135382000Y-109982000D01*
X135382000Y-97028000D02*
X135382000Y-107188000D01*
X135636000Y-96774000D02*
X135382000Y-97028000D01*
X135382000Y-110490000D02*
X135382000Y-109982000D01*
X135382000Y-109982000D02*
X135382000Y-109474000D01*
G04 #@! TO.N,A13*
X137414000Y-111506000D02*
X136398000Y-111506000D01*
X136398000Y-111506000D02*
X135890000Y-110998000D01*
X135890000Y-110998000D02*
X135890000Y-110490000D01*
X135890000Y-110490000D02*
X135890000Y-109728000D01*
X135890000Y-109728000D02*
X135890000Y-109474000D01*
X136144000Y-99314000D02*
X135890000Y-99568000D01*
X135890000Y-99568000D02*
X135890000Y-100076000D01*
X135890000Y-105156000D02*
X135890000Y-109728000D01*
X135890000Y-105156000D02*
X135890000Y-105410000D01*
X135890000Y-100076000D02*
X135890000Y-105156000D01*
G04 #@! TO.N,A14*
X136652000Y-110744000D02*
X136398000Y-110490000D01*
X136398000Y-110490000D02*
X136398000Y-110236000D01*
X136652000Y-101854000D02*
X136398000Y-102108000D01*
X136398000Y-102108000D02*
X136398000Y-102362000D01*
X136398000Y-102362000D02*
X136398000Y-102870000D01*
X136398000Y-109728000D02*
X136398000Y-109474000D01*
X136398000Y-110236000D02*
X136398000Y-109728000D01*
X136398000Y-104902000D02*
X136398000Y-105410000D01*
X136398000Y-102870000D02*
X136398000Y-104902000D01*
X136398000Y-104902000D02*
X136398000Y-109728000D01*
G04 #@! TO.N,A15*
X137414000Y-109982000D02*
X137160000Y-109982000D01*
X137160000Y-109982000D02*
X136906000Y-109728000D01*
X136906000Y-109728000D02*
X136906000Y-109474000D01*
X137064700Y-104394000D02*
X136906000Y-104552700D01*
X136906000Y-105156000D02*
X136906000Y-105410000D01*
X136906000Y-104552700D02*
X136906000Y-105156000D01*
X136906000Y-105156000D02*
X136906000Y-109728000D01*
G04 #@! TO.N,RX6*
X129540000Y-124460000D02*
X130810000Y-123190000D01*
X137922000Y-123190000D02*
X139192000Y-123190000D01*
X130810000Y-123190000D02*
X137922000Y-123190000D01*
X139192000Y-102108000D02*
X140462000Y-102108000D01*
X138176000Y-103124000D02*
X139192000Y-102108000D01*
X138176000Y-117094000D02*
X138176000Y-103124000D01*
X139954000Y-121920000D02*
X139446000Y-121412000D01*
X139446000Y-121412000D02*
X139446000Y-118364000D01*
X139446000Y-118364000D02*
X138176000Y-117094000D01*
X139446000Y-123190000D02*
X139954000Y-122682000D01*
X139954000Y-122682000D02*
X139954000Y-121920000D01*
X137922000Y-123190000D02*
X139446000Y-123190000D01*
G04 #@! TO.N,TX6*
X132842000Y-123698000D02*
X132080000Y-124460000D01*
X138684000Y-123698000D02*
X132842000Y-123698000D01*
X139446000Y-123698000D02*
X138684000Y-123698000D01*
X139193108Y-102868892D02*
X138684000Y-103378000D01*
X139701108Y-102868892D02*
X139193108Y-102868892D01*
X139730829Y-123698000D02*
X138684000Y-123698000D01*
X140462000Y-121666000D02*
X140462000Y-122966829D01*
X138684000Y-103378000D02*
X138684000Y-116840000D01*
X138684000Y-116840000D02*
X139954000Y-118110000D01*
X140462000Y-122966829D02*
X139730829Y-123698000D01*
X139954000Y-118110000D02*
X139954000Y-121158000D01*
X139954000Y-121158000D02*
X140462000Y-121666000D01*
G04 #@! TO.N,RX3*
X135890000Y-120650000D02*
X136144000Y-120904000D01*
X135890000Y-118364000D02*
X135890000Y-120650000D01*
X135636000Y-118110000D02*
X135890000Y-118364000D01*
X129540000Y-116840000D02*
X130810000Y-118110000D01*
X130810000Y-118110000D02*
X135636000Y-118110000D01*
G04 #@! TO.N,TX3*
X136906000Y-121158000D02*
X137160000Y-121412000D01*
X136906000Y-118110000D02*
X136906000Y-121158000D01*
X132080000Y-116840000D02*
X135636000Y-116840000D01*
X135636000Y-116840000D02*
X136906000Y-118110000D01*
G04 #@! TO.N,RX2*
X137922000Y-121666000D02*
X138176000Y-121920000D01*
X137922000Y-118364000D02*
X137922000Y-121666000D01*
X135128000Y-115570000D02*
X137922000Y-118364000D01*
X129540000Y-114300000D02*
X130810000Y-115570000D01*
X130810000Y-115570000D02*
X135128000Y-115570000D01*
G04 #@! TO.N,TX2*
X138938000Y-122174000D02*
X139192000Y-122428000D01*
X138938000Y-118618000D02*
X138938000Y-122174000D01*
X132080000Y-114300000D02*
X134620000Y-114300000D01*
X134620000Y-114300000D02*
X138938000Y-118618000D01*
G04 #@! TO.N,PWM1*
X157734000Y-108458000D02*
X157734000Y-108204000D01*
X157734000Y-102108000D02*
X157734000Y-108458000D01*
X159766000Y-100076000D02*
X157734000Y-102108000D01*
X179832000Y-100076000D02*
X159766000Y-100076000D01*
X181864000Y-92456000D02*
X181864000Y-99568000D01*
X185420000Y-88900000D02*
X181864000Y-92456000D01*
X181864000Y-99568000D02*
X181356000Y-100076000D01*
X181356000Y-100076000D02*
X179832000Y-100076000D01*
X153924000Y-118745000D02*
X154178000Y-118999000D01*
X153924000Y-112522000D02*
X153924000Y-118745000D01*
X157734000Y-108458000D02*
X157734000Y-108712000D01*
X157734000Y-108712000D02*
X153924000Y-112522000D01*
G04 #@! TO.N,PWM2*
X185420000Y-91440000D02*
X182372000Y-94488000D01*
X182372000Y-94488000D02*
X182372000Y-99822000D01*
X182372000Y-99822000D02*
X181610000Y-100584000D01*
X179324000Y-100584000D02*
X181610000Y-100584000D01*
X180086000Y-100584000D02*
X179324000Y-100584000D01*
X154432000Y-117951300D02*
X154590700Y-118110000D01*
X154432000Y-112776000D02*
X154432000Y-117951300D01*
X158242000Y-108966000D02*
X154432000Y-112776000D01*
X158242000Y-102362000D02*
X158242000Y-108966000D01*
X179324000Y-100584000D02*
X160020000Y-100584000D01*
X160020000Y-100584000D02*
X158242000Y-102362000D01*
G04 #@! TO.N,PWM3*
X185420000Y-93980000D02*
X182880000Y-96520000D01*
X182880000Y-96520000D02*
X182880000Y-100076000D01*
X160274000Y-101092000D02*
X158750000Y-102616000D01*
X182880000Y-100076000D02*
X181864000Y-101092000D01*
X158750000Y-102616000D02*
X158750000Y-109220000D01*
X180086000Y-101092000D02*
X181864000Y-101092000D01*
X180086000Y-101092000D02*
X160274000Y-101092000D01*
X180340000Y-101092000D02*
X180086000Y-101092000D01*
X158369000Y-109601000D02*
X158242000Y-109728000D01*
X158750000Y-109220000D02*
X158369000Y-109601000D01*
X154940000Y-117062300D02*
X155098700Y-117221000D01*
X158369000Y-109601000D02*
X154940000Y-113030000D01*
X154940000Y-113030000D02*
X154940000Y-117062300D01*
G04 #@! TO.N,PWM4*
X185420000Y-96520000D02*
X183388000Y-98552000D01*
X183388000Y-100330000D02*
X182118000Y-101600000D01*
X183388000Y-98552000D02*
X183388000Y-100330000D01*
X180340000Y-101600000D02*
X182118000Y-101600000D01*
X180594000Y-101600000D02*
X180340000Y-101600000D01*
X160528000Y-101600000D02*
X180340000Y-101600000D01*
X159258000Y-102870000D02*
X160528000Y-101600000D01*
X159258000Y-109474000D02*
X159258000Y-102870000D01*
X156083000Y-112649000D02*
X159258000Y-109474000D01*
X155829000Y-112903000D02*
X156083000Y-112649000D01*
X155448000Y-113284000D02*
X156083000Y-112649000D01*
X155702000Y-115570000D02*
X155448000Y-115316000D01*
X155448000Y-115316000D02*
X155448000Y-113284000D01*
G04 #@! TO.N,PWM5*
X159766000Y-109728000D02*
X159766000Y-109474000D01*
X159258000Y-110236000D02*
X159766000Y-109728000D01*
X182372000Y-102108000D02*
X185420000Y-99060000D01*
X160782000Y-102108000D02*
X182372000Y-102108000D01*
X159766000Y-109728000D02*
X159766000Y-103124000D01*
X159766000Y-103124000D02*
X160782000Y-102108000D01*
X159258000Y-110236000D02*
X157734000Y-111760000D01*
X157734000Y-111760000D02*
X155956000Y-113538000D01*
X155956000Y-113538000D02*
X155956000Y-114522300D01*
X155956000Y-114522300D02*
X156114700Y-114681000D01*
G04 #@! TO.N,PWM6*
X160020000Y-110490000D02*
X160020000Y-110236000D01*
X160020000Y-110236000D02*
X160274000Y-109982000D01*
X160274000Y-109728000D02*
X160274000Y-109474000D01*
X160274000Y-109982000D02*
X160274000Y-109728000D01*
X160274000Y-103378000D02*
X160274000Y-109728000D01*
X161036000Y-102616000D02*
X160274000Y-103378000D01*
X185420000Y-101600000D02*
X184404000Y-102616000D01*
X182626000Y-102616000D02*
X184404000Y-102616000D01*
X182626000Y-102616000D02*
X161036000Y-102616000D01*
X182880000Y-102616000D02*
X182626000Y-102616000D01*
G04 #@! TO.N,PWM7*
X184404000Y-103124000D02*
X185420000Y-104140000D01*
X161290000Y-103124000D02*
X184404000Y-103124000D01*
X160782000Y-111252000D02*
X160782000Y-103632000D01*
X160782000Y-103632000D02*
X161290000Y-103124000D01*
D18*
G04 #@! TO.N,~RST*
X188831083Y-84447400D02*
X188848696Y-84454696D01*
X140716000Y-84447400D02*
X188831083Y-84447400D01*
X189865304Y-85471304D02*
X189992000Y-85777178D01*
X188848696Y-84454696D02*
X189865304Y-85471304D01*
X189992000Y-85777178D02*
X189992000Y-87122000D01*
X189992000Y-87122000D02*
X189992000Y-101333494D01*
X189992000Y-101333494D02*
X189992000Y-105156000D01*
X189992000Y-105156000D02*
X189484000Y-105664000D01*
X189484000Y-105664000D02*
X184658000Y-105664000D01*
X184658000Y-105664000D02*
X184075099Y-105081099D01*
X184075099Y-105081099D02*
X183896000Y-104902000D01*
X183896000Y-104902000D02*
X183134000Y-104902000D01*
X183134000Y-104902000D02*
X179578000Y-104902000D01*
X179578000Y-104902000D02*
X178816000Y-104902000D01*
G04 #@! TD*
D20*
G36*
X131265748Y-123645748D02*
X131016129Y-124019330D01*
X130928474Y-124460000D01*
X131016129Y-124900670D01*
X131265748Y-125274252D01*
X131639330Y-125523871D01*
X131968765Y-125589400D01*
X132191235Y-125589400D01*
X132520670Y-125523871D01*
X132894252Y-125274252D01*
X132956300Y-125181390D01*
X132956301Y-126278610D01*
X132894252Y-126185748D01*
X132520670Y-125936129D01*
X132191235Y-125870600D01*
X131968765Y-125870600D01*
X131639330Y-125936129D01*
X131265748Y-126185748D01*
X131016129Y-126559330D01*
X130928474Y-127000000D01*
X131016129Y-127440670D01*
X131265748Y-127814252D01*
X131358610Y-127876300D01*
X130261390Y-127876300D01*
X130354252Y-127814252D01*
X130603871Y-127440670D01*
X130691526Y-127000000D01*
X130603871Y-126559330D01*
X130354252Y-126185748D01*
X129980670Y-125936129D01*
X129651235Y-125870600D01*
X129428765Y-125870600D01*
X129099330Y-125936129D01*
X128725748Y-126185748D01*
X128663700Y-126278610D01*
X128663700Y-125181390D01*
X128725748Y-125274252D01*
X129099330Y-125523871D01*
X129428765Y-125589400D01*
X129651235Y-125589400D01*
X129980670Y-125523871D01*
X130354252Y-125274252D01*
X130603871Y-124900670D01*
X130691526Y-124460000D01*
X130603871Y-124019330D01*
X130577265Y-123979511D01*
X130973076Y-123583700D01*
X131358610Y-123583700D01*
X131265748Y-123645748D01*
X131265748Y-123645748D01*
G37*
X131265748Y-123645748D02*
X131016129Y-124019330D01*
X130928474Y-124460000D01*
X131016129Y-124900670D01*
X131265748Y-125274252D01*
X131639330Y-125523871D01*
X131968765Y-125589400D01*
X132191235Y-125589400D01*
X132520670Y-125523871D01*
X132894252Y-125274252D01*
X132956300Y-125181390D01*
X132956301Y-126278610D01*
X132894252Y-126185748D01*
X132520670Y-125936129D01*
X132191235Y-125870600D01*
X131968765Y-125870600D01*
X131639330Y-125936129D01*
X131265748Y-126185748D01*
X131016129Y-126559330D01*
X130928474Y-127000000D01*
X131016129Y-127440670D01*
X131265748Y-127814252D01*
X131358610Y-127876300D01*
X130261390Y-127876300D01*
X130354252Y-127814252D01*
X130603871Y-127440670D01*
X130691526Y-127000000D01*
X130603871Y-126559330D01*
X130354252Y-126185748D01*
X129980670Y-125936129D01*
X129651235Y-125870600D01*
X129428765Y-125870600D01*
X129099330Y-125936129D01*
X128725748Y-126185748D01*
X128663700Y-126278610D01*
X128663700Y-125181390D01*
X128725748Y-125274252D01*
X129099330Y-125523871D01*
X129428765Y-125589400D01*
X129651235Y-125589400D01*
X129980670Y-125523871D01*
X130354252Y-125274252D01*
X130603871Y-124900670D01*
X130691526Y-124460000D01*
X130603871Y-124019330D01*
X130577265Y-123979511D01*
X130973076Y-123583700D01*
X131358610Y-123583700D01*
X131265748Y-123645748D01*
G36*
X133214219Y-124547006D02*
X133231526Y-124460000D01*
X133158266Y-124091700D01*
X133669525Y-124091700D01*
X133214219Y-124547006D01*
X133214219Y-124547006D01*
G37*
X133214219Y-124547006D02*
X133231526Y-124460000D01*
X133158266Y-124091700D01*
X133669525Y-124091700D01*
X133214219Y-124547006D01*
G36*
X128725748Y-117654252D02*
X129099330Y-117903871D01*
X129428765Y-117969400D01*
X129651235Y-117969400D01*
X129980670Y-117903871D01*
X130020489Y-117877265D01*
X130504193Y-118360969D01*
X130526158Y-118393842D01*
X130656386Y-118480857D01*
X130771224Y-118503700D01*
X130771225Y-118503700D01*
X130809999Y-118511413D01*
X130848773Y-118503700D01*
X131358610Y-118503700D01*
X131265748Y-118565748D01*
X131016129Y-118939330D01*
X130928474Y-119380000D01*
X131016129Y-119820670D01*
X131265748Y-120194252D01*
X131639330Y-120443871D01*
X131968765Y-120509400D01*
X132191235Y-120509400D01*
X132520670Y-120443871D01*
X132894252Y-120194252D01*
X133143871Y-119820670D01*
X133231526Y-119380000D01*
X133143871Y-118939330D01*
X132894252Y-118565748D01*
X132801390Y-118503700D01*
X135472925Y-118503700D01*
X135496300Y-118527076D01*
X135496301Y-120611220D01*
X135488587Y-120650000D01*
X135496778Y-120691176D01*
X135464600Y-120768859D01*
X135464600Y-121039141D01*
X135568033Y-121288849D01*
X135759151Y-121479967D01*
X136008859Y-121583400D01*
X136279141Y-121583400D01*
X136480600Y-121499952D01*
X136480600Y-121547141D01*
X136584033Y-121796849D01*
X136775151Y-121987967D01*
X137024859Y-122091400D01*
X137295141Y-122091400D01*
X137496600Y-122007952D01*
X137496600Y-122055141D01*
X137600033Y-122304849D01*
X137791151Y-122495967D01*
X138040859Y-122599400D01*
X138311141Y-122599400D01*
X138512600Y-122515952D01*
X138512600Y-122563141D01*
X138609178Y-122796300D01*
X132801390Y-122796300D01*
X132894252Y-122734252D01*
X133143871Y-122360670D01*
X133231526Y-121920000D01*
X133143871Y-121479330D01*
X132894252Y-121105748D01*
X132520670Y-120856129D01*
X132191235Y-120790600D01*
X131968765Y-120790600D01*
X131639330Y-120856129D01*
X131265748Y-121105748D01*
X131016129Y-121479330D01*
X130928474Y-121920000D01*
X131016129Y-122360670D01*
X131265748Y-122734252D01*
X131358610Y-122796300D01*
X130848773Y-122796300D01*
X130809999Y-122788587D01*
X130771225Y-122796300D01*
X130771224Y-122796300D01*
X130656386Y-122819143D01*
X130526158Y-122906158D01*
X130504193Y-122939031D01*
X130020489Y-123422735D01*
X129980670Y-123396129D01*
X129651235Y-123330600D01*
X129428765Y-123330600D01*
X129099330Y-123396129D01*
X128725748Y-123645748D01*
X128663700Y-123738610D01*
X128663700Y-122641390D01*
X128725748Y-122734252D01*
X129099330Y-122983871D01*
X129428765Y-123049400D01*
X129651235Y-123049400D01*
X129980670Y-122983871D01*
X130354252Y-122734252D01*
X130603871Y-122360670D01*
X130691526Y-121920000D01*
X130603871Y-121479330D01*
X130354252Y-121105748D01*
X129980670Y-120856129D01*
X129651235Y-120790600D01*
X129428765Y-120790600D01*
X129099330Y-120856129D01*
X128725748Y-121105748D01*
X128663700Y-121198610D01*
X128663700Y-120101390D01*
X128725748Y-120194252D01*
X129099330Y-120443871D01*
X129428765Y-120509400D01*
X129651235Y-120509400D01*
X129980670Y-120443871D01*
X130354252Y-120194252D01*
X130603871Y-119820670D01*
X130691526Y-119380000D01*
X130603871Y-118939330D01*
X130354252Y-118565748D01*
X129980670Y-118316129D01*
X129651235Y-118250600D01*
X129428765Y-118250600D01*
X129099330Y-118316129D01*
X128725748Y-118565748D01*
X128663700Y-118658610D01*
X128663700Y-117561390D01*
X128725748Y-117654252D01*
X128725748Y-117654252D01*
G37*
X128725748Y-117654252D02*
X129099330Y-117903871D01*
X129428765Y-117969400D01*
X129651235Y-117969400D01*
X129980670Y-117903871D01*
X130020489Y-117877265D01*
X130504193Y-118360969D01*
X130526158Y-118393842D01*
X130656386Y-118480857D01*
X130771224Y-118503700D01*
X130771225Y-118503700D01*
X130809999Y-118511413D01*
X130848773Y-118503700D01*
X131358610Y-118503700D01*
X131265748Y-118565748D01*
X131016129Y-118939330D01*
X130928474Y-119380000D01*
X131016129Y-119820670D01*
X131265748Y-120194252D01*
X131639330Y-120443871D01*
X131968765Y-120509400D01*
X132191235Y-120509400D01*
X132520670Y-120443871D01*
X132894252Y-120194252D01*
X133143871Y-119820670D01*
X133231526Y-119380000D01*
X133143871Y-118939330D01*
X132894252Y-118565748D01*
X132801390Y-118503700D01*
X135472925Y-118503700D01*
X135496300Y-118527076D01*
X135496301Y-120611220D01*
X135488587Y-120650000D01*
X135496778Y-120691176D01*
X135464600Y-120768859D01*
X135464600Y-121039141D01*
X135568033Y-121288849D01*
X135759151Y-121479967D01*
X136008859Y-121583400D01*
X136279141Y-121583400D01*
X136480600Y-121499952D01*
X136480600Y-121547141D01*
X136584033Y-121796849D01*
X136775151Y-121987967D01*
X137024859Y-122091400D01*
X137295141Y-122091400D01*
X137496600Y-122007952D01*
X137496600Y-122055141D01*
X137600033Y-122304849D01*
X137791151Y-122495967D01*
X138040859Y-122599400D01*
X138311141Y-122599400D01*
X138512600Y-122515952D01*
X138512600Y-122563141D01*
X138609178Y-122796300D01*
X132801390Y-122796300D01*
X132894252Y-122734252D01*
X133143871Y-122360670D01*
X133231526Y-121920000D01*
X133143871Y-121479330D01*
X132894252Y-121105748D01*
X132520670Y-120856129D01*
X132191235Y-120790600D01*
X131968765Y-120790600D01*
X131639330Y-120856129D01*
X131265748Y-121105748D01*
X131016129Y-121479330D01*
X130928474Y-121920000D01*
X131016129Y-122360670D01*
X131265748Y-122734252D01*
X131358610Y-122796300D01*
X130848773Y-122796300D01*
X130809999Y-122788587D01*
X130771225Y-122796300D01*
X130771224Y-122796300D01*
X130656386Y-122819143D01*
X130526158Y-122906158D01*
X130504193Y-122939031D01*
X130020489Y-123422735D01*
X129980670Y-123396129D01*
X129651235Y-123330600D01*
X129428765Y-123330600D01*
X129099330Y-123396129D01*
X128725748Y-123645748D01*
X128663700Y-123738610D01*
X128663700Y-122641390D01*
X128725748Y-122734252D01*
X129099330Y-122983871D01*
X129428765Y-123049400D01*
X129651235Y-123049400D01*
X129980670Y-122983871D01*
X130354252Y-122734252D01*
X130603871Y-122360670D01*
X130691526Y-121920000D01*
X130603871Y-121479330D01*
X130354252Y-121105748D01*
X129980670Y-120856129D01*
X129651235Y-120790600D01*
X129428765Y-120790600D01*
X129099330Y-120856129D01*
X128725748Y-121105748D01*
X128663700Y-121198610D01*
X128663700Y-120101390D01*
X128725748Y-120194252D01*
X129099330Y-120443871D01*
X129428765Y-120509400D01*
X129651235Y-120509400D01*
X129980670Y-120443871D01*
X130354252Y-120194252D01*
X130603871Y-119820670D01*
X130691526Y-119380000D01*
X130603871Y-118939330D01*
X130354252Y-118565748D01*
X129980670Y-118316129D01*
X129651235Y-118250600D01*
X129428765Y-118250600D01*
X129099330Y-118316129D01*
X128725748Y-118565748D01*
X128663700Y-118658610D01*
X128663700Y-117561390D01*
X128725748Y-117654252D01*
G36*
X138544300Y-118781076D02*
X138544301Y-121337178D01*
X138315700Y-121242488D01*
X138315700Y-118552476D01*
X138544300Y-118781076D01*
X138544300Y-118781076D01*
G37*
X138544300Y-118781076D02*
X138544301Y-121337178D01*
X138315700Y-121242488D01*
X138315700Y-118552476D01*
X138544300Y-118781076D01*
G36*
X137528300Y-118527075D02*
X137528301Y-120829178D01*
X137299700Y-120734488D01*
X137299700Y-118298475D01*
X137528300Y-118527075D01*
X137528300Y-118527075D01*
G37*
X137528300Y-118527075D02*
X137528301Y-120829178D01*
X137299700Y-120734488D01*
X137299700Y-118298475D01*
X137528300Y-118527075D01*
G36*
X136512300Y-118273076D02*
X136512301Y-120321178D01*
X136283700Y-120226488D01*
X136283700Y-118402773D01*
X136291413Y-118363999D01*
X136281891Y-118316129D01*
X136260857Y-118210386D01*
X136173842Y-118080158D01*
X136140969Y-118058193D01*
X135941808Y-117859033D01*
X135919842Y-117826158D01*
X135789614Y-117739143D01*
X135674776Y-117716300D01*
X135674775Y-117716300D01*
X135636000Y-117708587D01*
X135597225Y-117716300D01*
X132801390Y-117716300D01*
X132894252Y-117654252D01*
X133143871Y-117280670D01*
X133153214Y-117233700D01*
X135472925Y-117233700D01*
X136512300Y-118273076D01*
X136512300Y-118273076D01*
G37*
X136512300Y-118273076D02*
X136512301Y-120321178D01*
X136283700Y-120226488D01*
X136283700Y-118402773D01*
X136291413Y-118363999D01*
X136281891Y-118316129D01*
X136260857Y-118210386D01*
X136173842Y-118080158D01*
X136140969Y-118058193D01*
X135941808Y-117859033D01*
X135919842Y-117826158D01*
X135789614Y-117739143D01*
X135674776Y-117716300D01*
X135674775Y-117716300D01*
X135636000Y-117708587D01*
X135597225Y-117716300D01*
X132801390Y-117716300D01*
X132894252Y-117654252D01*
X133143871Y-117280670D01*
X133153214Y-117233700D01*
X135472925Y-117233700D01*
X136512300Y-118273076D01*
G36*
X128725748Y-115114252D02*
X129099330Y-115363871D01*
X129428765Y-115429400D01*
X129651235Y-115429400D01*
X129980670Y-115363871D01*
X130020489Y-115337265D01*
X130504193Y-115820969D01*
X130526158Y-115853842D01*
X130656386Y-115940857D01*
X130771224Y-115963700D01*
X130771225Y-115963700D01*
X130809999Y-115971413D01*
X130848773Y-115963700D01*
X131358610Y-115963700D01*
X131265748Y-116025748D01*
X131016129Y-116399330D01*
X130928474Y-116840000D01*
X131016129Y-117280670D01*
X131265748Y-117654252D01*
X131358610Y-117716300D01*
X130973076Y-117716300D01*
X130577265Y-117320489D01*
X130603871Y-117280670D01*
X130691526Y-116840000D01*
X130603871Y-116399330D01*
X130354252Y-116025748D01*
X129980670Y-115776129D01*
X129651235Y-115710600D01*
X129428765Y-115710600D01*
X129099330Y-115776129D01*
X128725748Y-116025748D01*
X128663700Y-116118610D01*
X128663700Y-115021390D01*
X128725748Y-115114252D01*
X128725748Y-115114252D01*
G37*
X128725748Y-115114252D02*
X129099330Y-115363871D01*
X129428765Y-115429400D01*
X129651235Y-115429400D01*
X129980670Y-115363871D01*
X130020489Y-115337265D01*
X130504193Y-115820969D01*
X130526158Y-115853842D01*
X130656386Y-115940857D01*
X130771224Y-115963700D01*
X130771225Y-115963700D01*
X130809999Y-115971413D01*
X130848773Y-115963700D01*
X131358610Y-115963700D01*
X131265748Y-116025748D01*
X131016129Y-116399330D01*
X130928474Y-116840000D01*
X131016129Y-117280670D01*
X131265748Y-117654252D01*
X131358610Y-117716300D01*
X130973076Y-117716300D01*
X130577265Y-117320489D01*
X130603871Y-117280670D01*
X130691526Y-116840000D01*
X130603871Y-116399330D01*
X130354252Y-116025748D01*
X129980670Y-115776129D01*
X129651235Y-115710600D01*
X129428765Y-115710600D01*
X129099330Y-115776129D01*
X128725748Y-116025748D01*
X128663700Y-116118610D01*
X128663700Y-115021390D01*
X128725748Y-115114252D01*
G36*
X137782300Y-116905524D02*
X136847269Y-115970494D01*
X137036849Y-115891967D01*
X137227967Y-115700849D01*
X137331400Y-115451141D01*
X137331400Y-115233400D01*
X137549141Y-115233400D01*
X137782300Y-115136822D01*
X137782300Y-116905524D01*
X137782300Y-116905524D01*
G37*
X137782300Y-116905524D02*
X136847269Y-115970494D01*
X137036849Y-115891967D01*
X137227967Y-115700849D01*
X137331400Y-115451141D01*
X137331400Y-115233400D01*
X137549141Y-115233400D01*
X137782300Y-115136822D01*
X137782300Y-116905524D01*
G36*
X135447525Y-116446300D02*
X133153214Y-116446300D01*
X133143871Y-116399330D01*
X132894252Y-116025748D01*
X132801390Y-115963700D01*
X134964925Y-115963700D01*
X135447525Y-116446300D01*
X135447525Y-116446300D01*
G37*
X135447525Y-116446300D02*
X133153214Y-116446300D01*
X133143871Y-116399330D01*
X132894252Y-116025748D01*
X132801390Y-115963700D01*
X134964925Y-115963700D01*
X135447525Y-116446300D01*
G36*
X132956301Y-111038610D02*
X132894252Y-110945748D01*
X132520670Y-110696129D01*
X132191235Y-110630600D01*
X131968765Y-110630600D01*
X131639330Y-110696129D01*
X131265748Y-110945748D01*
X131016129Y-111319330D01*
X130928474Y-111760000D01*
X131016129Y-112200670D01*
X131265748Y-112574252D01*
X131639330Y-112823871D01*
X131968765Y-112889400D01*
X132191235Y-112889400D01*
X132520670Y-112823871D01*
X132894252Y-112574252D01*
X132987692Y-112434408D01*
X133044194Y-112518969D01*
X133066159Y-112551842D01*
X133099031Y-112573806D01*
X134431525Y-113906300D01*
X133153214Y-113906300D01*
X133143871Y-113859330D01*
X132894252Y-113485748D01*
X132520670Y-113236129D01*
X132191235Y-113170600D01*
X131968765Y-113170600D01*
X131639330Y-113236129D01*
X131265748Y-113485748D01*
X131016129Y-113859330D01*
X130928474Y-114300000D01*
X131016129Y-114740670D01*
X131265748Y-115114252D01*
X131358610Y-115176300D01*
X130973076Y-115176300D01*
X130577265Y-114780489D01*
X130603871Y-114740670D01*
X130691526Y-114300000D01*
X130603871Y-113859330D01*
X130354252Y-113485748D01*
X129980670Y-113236129D01*
X129651235Y-113170600D01*
X129428765Y-113170600D01*
X129099330Y-113236129D01*
X128725748Y-113485748D01*
X128663700Y-113578610D01*
X128663700Y-112481390D01*
X128725748Y-112574252D01*
X129099330Y-112823871D01*
X129428765Y-112889400D01*
X129651235Y-112889400D01*
X129980670Y-112823871D01*
X130354252Y-112574252D01*
X130603871Y-112200670D01*
X130691526Y-111760000D01*
X130603871Y-111319330D01*
X130354252Y-110945748D01*
X130261390Y-110883700D01*
X130771225Y-110883700D01*
X130810000Y-110891413D01*
X130848775Y-110883700D01*
X130848776Y-110883700D01*
X130963614Y-110860857D01*
X131093842Y-110773842D01*
X131115808Y-110740967D01*
X131501903Y-110354873D01*
X132930000Y-110354873D01*
X132956300Y-110349641D01*
X132956301Y-111038610D01*
X132956301Y-111038610D01*
G37*
X132956301Y-111038610D02*
X132894252Y-110945748D01*
X132520670Y-110696129D01*
X132191235Y-110630600D01*
X131968765Y-110630600D01*
X131639330Y-110696129D01*
X131265748Y-110945748D01*
X131016129Y-111319330D01*
X130928474Y-111760000D01*
X131016129Y-112200670D01*
X131265748Y-112574252D01*
X131639330Y-112823871D01*
X131968765Y-112889400D01*
X132191235Y-112889400D01*
X132520670Y-112823871D01*
X132894252Y-112574252D01*
X132987692Y-112434408D01*
X133044194Y-112518969D01*
X133066159Y-112551842D01*
X133099031Y-112573806D01*
X134431525Y-113906300D01*
X133153214Y-113906300D01*
X133143871Y-113859330D01*
X132894252Y-113485748D01*
X132520670Y-113236129D01*
X132191235Y-113170600D01*
X131968765Y-113170600D01*
X131639330Y-113236129D01*
X131265748Y-113485748D01*
X131016129Y-113859330D01*
X130928474Y-114300000D01*
X131016129Y-114740670D01*
X131265748Y-115114252D01*
X131358610Y-115176300D01*
X130973076Y-115176300D01*
X130577265Y-114780489D01*
X130603871Y-114740670D01*
X130691526Y-114300000D01*
X130603871Y-113859330D01*
X130354252Y-113485748D01*
X129980670Y-113236129D01*
X129651235Y-113170600D01*
X129428765Y-113170600D01*
X129099330Y-113236129D01*
X128725748Y-113485748D01*
X128663700Y-113578610D01*
X128663700Y-112481390D01*
X128725748Y-112574252D01*
X129099330Y-112823871D01*
X129428765Y-112889400D01*
X129651235Y-112889400D01*
X129980670Y-112823871D01*
X130354252Y-112574252D01*
X130603871Y-112200670D01*
X130691526Y-111760000D01*
X130603871Y-111319330D01*
X130354252Y-110945748D01*
X130261390Y-110883700D01*
X130771225Y-110883700D01*
X130810000Y-110891413D01*
X130848775Y-110883700D01*
X130848776Y-110883700D01*
X130963614Y-110860857D01*
X131093842Y-110773842D01*
X131115808Y-110740967D01*
X131501903Y-110354873D01*
X132930000Y-110354873D01*
X132956300Y-110349641D01*
X132956301Y-111038610D01*
G36*
X134939525Y-115176300D02*
X132801390Y-115176300D01*
X132894252Y-115114252D01*
X133143871Y-114740670D01*
X133153214Y-114693700D01*
X134456925Y-114693700D01*
X134939525Y-115176300D01*
X134939525Y-115176300D01*
G37*
X134939525Y-115176300D02*
X132801390Y-115176300D01*
X132894252Y-115114252D01*
X133143871Y-114740670D01*
X133153214Y-114693700D01*
X134456925Y-114693700D01*
X134939525Y-115176300D01*
G36*
X137782300Y-113971178D02*
X137549141Y-113874600D01*
X137331400Y-113874600D01*
X137331400Y-113709400D01*
X137549141Y-113709400D01*
X137782300Y-113612822D01*
X137782300Y-113971178D01*
X137782300Y-113971178D01*
G37*
X137782300Y-113971178D02*
X137549141Y-113874600D01*
X137331400Y-113874600D01*
X137331400Y-113709400D01*
X137549141Y-113709400D01*
X137782300Y-113612822D01*
X137782300Y-113971178D01*
G36*
X137782300Y-112447178D02*
X137549141Y-112350600D01*
X137331400Y-112350600D01*
X137331400Y-112185400D01*
X137549141Y-112185400D01*
X137782300Y-112088822D01*
X137782300Y-112447178D01*
X137782300Y-112447178D01*
G37*
X137782300Y-112447178D02*
X137549141Y-112350600D01*
X137331400Y-112350600D01*
X137331400Y-112185400D01*
X137549141Y-112185400D01*
X137782300Y-112088822D01*
X137782300Y-112447178D01*
G36*
X137782300Y-110923178D02*
X137549141Y-110826600D01*
X137331400Y-110826600D01*
X137331400Y-110661400D01*
X137549141Y-110661400D01*
X137782300Y-110564822D01*
X137782300Y-110923178D01*
X137782300Y-110923178D01*
G37*
X137782300Y-110923178D02*
X137549141Y-110826600D01*
X137331400Y-110826600D01*
X137331400Y-110661400D01*
X137549141Y-110661400D01*
X137782300Y-110564822D01*
X137782300Y-110923178D01*
G36*
X128476129Y-109660670D02*
X128725748Y-110034252D01*
X128865591Y-110127692D01*
X128748158Y-110206158D01*
X128726191Y-110239034D01*
X128397000Y-110568225D01*
X128397000Y-109613700D01*
X128466786Y-109613700D01*
X128476129Y-109660670D01*
X128476129Y-109660670D01*
G37*
X128476129Y-109660670D02*
X128725748Y-110034252D01*
X128865591Y-110127692D01*
X128748158Y-110206158D01*
X128726191Y-110239034D01*
X128397000Y-110568225D01*
X128397000Y-109613700D01*
X128466786Y-109613700D01*
X128476129Y-109660670D01*
G36*
X130945127Y-108641902D02*
X130945127Y-109798097D01*
X130646925Y-110096300D01*
X130261390Y-110096300D01*
X130354252Y-110034252D01*
X130603871Y-109660670D01*
X130691526Y-109220000D01*
X130603871Y-108779330D01*
X130354252Y-108405748D01*
X130261390Y-108343700D01*
X130646925Y-108343700D01*
X130945127Y-108641902D01*
X130945127Y-108641902D01*
G37*
X130945127Y-108641902D02*
X130945127Y-109798097D01*
X130646925Y-110096300D01*
X130261390Y-110096300D01*
X130354252Y-110034252D01*
X130603871Y-109660670D01*
X130691526Y-109220000D01*
X130603871Y-108779330D01*
X130354252Y-108405748D01*
X130261390Y-108343700D01*
X130646925Y-108343700D01*
X130945127Y-108641902D01*
G36*
X128472193Y-108200969D02*
X128494158Y-108233842D01*
X128624386Y-108320857D01*
X128739224Y-108343700D01*
X128739229Y-108343700D01*
X128777999Y-108351412D01*
X128816769Y-108343700D01*
X128818610Y-108343700D01*
X128725748Y-108405748D01*
X128476129Y-108779330D01*
X128466786Y-108826300D01*
X128397000Y-108826300D01*
X128397000Y-108125776D01*
X128472193Y-108200969D01*
X128472193Y-108200969D01*
G37*
X128472193Y-108200969D02*
X128494158Y-108233842D01*
X128624386Y-108320857D01*
X128739224Y-108343700D01*
X128739229Y-108343700D01*
X128777999Y-108351412D01*
X128816769Y-108343700D01*
X128818610Y-108343700D01*
X128725748Y-108405748D01*
X128476129Y-108779330D01*
X128466786Y-108826300D01*
X128397000Y-108826300D01*
X128397000Y-108125776D01*
X128472193Y-108200969D01*
G36*
X128725748Y-94794252D02*
X129099330Y-95043871D01*
X129428765Y-95109400D01*
X129651235Y-95109400D01*
X129980670Y-95043871D01*
X130020489Y-95017265D01*
X130504193Y-95500969D01*
X130526158Y-95533842D01*
X130656386Y-95620857D01*
X130771224Y-95643700D01*
X130771225Y-95643700D01*
X130809999Y-95651413D01*
X130848773Y-95643700D01*
X131358610Y-95643700D01*
X131265748Y-95705748D01*
X131016129Y-96079330D01*
X130928474Y-96520000D01*
X131016129Y-96960670D01*
X131265748Y-97334252D01*
X131639330Y-97583871D01*
X131968765Y-97649400D01*
X132191235Y-97649400D01*
X132520670Y-97583871D01*
X132894252Y-97334252D01*
X132956301Y-97241389D01*
X132956301Y-98338611D01*
X132894252Y-98245748D01*
X132520670Y-97996129D01*
X132191235Y-97930600D01*
X131968765Y-97930600D01*
X131639330Y-97996129D01*
X131265748Y-98245748D01*
X131016129Y-98619330D01*
X130928474Y-99060000D01*
X131016129Y-99500670D01*
X131265748Y-99874252D01*
X131639330Y-100123871D01*
X131968765Y-100189400D01*
X132191235Y-100189400D01*
X132520670Y-100123871D01*
X132894252Y-99874252D01*
X132956301Y-99781389D01*
X132956301Y-100878611D01*
X132894252Y-100785748D01*
X132520670Y-100536129D01*
X132191235Y-100470600D01*
X131968765Y-100470600D01*
X131639330Y-100536129D01*
X131265748Y-100785748D01*
X131016129Y-101159330D01*
X130928474Y-101600000D01*
X131016129Y-102040670D01*
X131265748Y-102414252D01*
X131639330Y-102663871D01*
X131968765Y-102729400D01*
X132191235Y-102729400D01*
X132520670Y-102663871D01*
X132894252Y-102414252D01*
X132956301Y-102321390D01*
X132956300Y-103418610D01*
X132894252Y-103325748D01*
X132520670Y-103076129D01*
X132191235Y-103010600D01*
X131968765Y-103010600D01*
X131639330Y-103076129D01*
X131265748Y-103325748D01*
X131016129Y-103699330D01*
X130928474Y-104140000D01*
X131016129Y-104580670D01*
X131265748Y-104954252D01*
X131639330Y-105203871D01*
X131968765Y-105269400D01*
X132191235Y-105269400D01*
X132520670Y-105203871D01*
X132894252Y-104954252D01*
X132956300Y-104861390D01*
X132956300Y-108090359D01*
X132930000Y-108085127D01*
X131501902Y-108085127D01*
X131115809Y-107699034D01*
X131093842Y-107666158D01*
X130963614Y-107579143D01*
X130848776Y-107556300D01*
X130848775Y-107556300D01*
X130810000Y-107548587D01*
X130771225Y-107556300D01*
X128941076Y-107556300D01*
X128663700Y-107278925D01*
X128663700Y-104861390D01*
X128725748Y-104954252D01*
X129099330Y-105203871D01*
X129428765Y-105269400D01*
X129651235Y-105269400D01*
X129980670Y-105203871D01*
X130354252Y-104954252D01*
X130603871Y-104580670D01*
X130691526Y-104140000D01*
X130603871Y-103699330D01*
X130354252Y-103325748D01*
X129980670Y-103076129D01*
X129651235Y-103010600D01*
X129428765Y-103010600D01*
X129099330Y-103076129D01*
X128725748Y-103325748D01*
X128663700Y-103418610D01*
X128663700Y-102321390D01*
X128725748Y-102414252D01*
X129099330Y-102663871D01*
X129428765Y-102729400D01*
X129651235Y-102729400D01*
X129980670Y-102663871D01*
X130354252Y-102414252D01*
X130603871Y-102040670D01*
X130691526Y-101600000D01*
X130603871Y-101159330D01*
X130354252Y-100785748D01*
X129980670Y-100536129D01*
X129651235Y-100470600D01*
X129428765Y-100470600D01*
X129099330Y-100536129D01*
X128725748Y-100785748D01*
X128663700Y-100878610D01*
X128663700Y-99781390D01*
X128725748Y-99874252D01*
X129099330Y-100123871D01*
X129428765Y-100189400D01*
X129651235Y-100189400D01*
X129980670Y-100123871D01*
X130354252Y-99874252D01*
X130603871Y-99500670D01*
X130691526Y-99060000D01*
X130603871Y-98619330D01*
X130354252Y-98245748D01*
X129980670Y-97996129D01*
X129651235Y-97930600D01*
X129428765Y-97930600D01*
X129099330Y-97996129D01*
X128725748Y-98245748D01*
X128663700Y-98338610D01*
X128663700Y-97241390D01*
X128725748Y-97334252D01*
X129099330Y-97583871D01*
X129428765Y-97649400D01*
X129651235Y-97649400D01*
X129980670Y-97583871D01*
X130354252Y-97334252D01*
X130603871Y-96960670D01*
X130691526Y-96520000D01*
X130603871Y-96079330D01*
X130354252Y-95705748D01*
X129980670Y-95456129D01*
X129651235Y-95390600D01*
X129428765Y-95390600D01*
X129099330Y-95456129D01*
X128725748Y-95705748D01*
X128663700Y-95798610D01*
X128663700Y-94701390D01*
X128725748Y-94794252D01*
X128725748Y-94794252D01*
G37*
X128725748Y-94794252D02*
X129099330Y-95043871D01*
X129428765Y-95109400D01*
X129651235Y-95109400D01*
X129980670Y-95043871D01*
X130020489Y-95017265D01*
X130504193Y-95500969D01*
X130526158Y-95533842D01*
X130656386Y-95620857D01*
X130771224Y-95643700D01*
X130771225Y-95643700D01*
X130809999Y-95651413D01*
X130848773Y-95643700D01*
X131358610Y-95643700D01*
X131265748Y-95705748D01*
X131016129Y-96079330D01*
X130928474Y-96520000D01*
X131016129Y-96960670D01*
X131265748Y-97334252D01*
X131639330Y-97583871D01*
X131968765Y-97649400D01*
X132191235Y-97649400D01*
X132520670Y-97583871D01*
X132894252Y-97334252D01*
X132956301Y-97241389D01*
X132956301Y-98338611D01*
X132894252Y-98245748D01*
X132520670Y-97996129D01*
X132191235Y-97930600D01*
X131968765Y-97930600D01*
X131639330Y-97996129D01*
X131265748Y-98245748D01*
X131016129Y-98619330D01*
X130928474Y-99060000D01*
X131016129Y-99500670D01*
X131265748Y-99874252D01*
X131639330Y-100123871D01*
X131968765Y-100189400D01*
X132191235Y-100189400D01*
X132520670Y-100123871D01*
X132894252Y-99874252D01*
X132956301Y-99781389D01*
X132956301Y-100878611D01*
X132894252Y-100785748D01*
X132520670Y-100536129D01*
X132191235Y-100470600D01*
X131968765Y-100470600D01*
X131639330Y-100536129D01*
X131265748Y-100785748D01*
X131016129Y-101159330D01*
X130928474Y-101600000D01*
X131016129Y-102040670D01*
X131265748Y-102414252D01*
X131639330Y-102663871D01*
X131968765Y-102729400D01*
X132191235Y-102729400D01*
X132520670Y-102663871D01*
X132894252Y-102414252D01*
X132956301Y-102321390D01*
X132956300Y-103418610D01*
X132894252Y-103325748D01*
X132520670Y-103076129D01*
X132191235Y-103010600D01*
X131968765Y-103010600D01*
X131639330Y-103076129D01*
X131265748Y-103325748D01*
X131016129Y-103699330D01*
X130928474Y-104140000D01*
X131016129Y-104580670D01*
X131265748Y-104954252D01*
X131639330Y-105203871D01*
X131968765Y-105269400D01*
X132191235Y-105269400D01*
X132520670Y-105203871D01*
X132894252Y-104954252D01*
X132956300Y-104861390D01*
X132956300Y-108090359D01*
X132930000Y-108085127D01*
X131501902Y-108085127D01*
X131115809Y-107699034D01*
X131093842Y-107666158D01*
X130963614Y-107579143D01*
X130848776Y-107556300D01*
X130848775Y-107556300D01*
X130810000Y-107548587D01*
X130771225Y-107556300D01*
X128941076Y-107556300D01*
X128663700Y-107278925D01*
X128663700Y-104861390D01*
X128725748Y-104954252D01*
X129099330Y-105203871D01*
X129428765Y-105269400D01*
X129651235Y-105269400D01*
X129980670Y-105203871D01*
X130354252Y-104954252D01*
X130603871Y-104580670D01*
X130691526Y-104140000D01*
X130603871Y-103699330D01*
X130354252Y-103325748D01*
X129980670Y-103076129D01*
X129651235Y-103010600D01*
X129428765Y-103010600D01*
X129099330Y-103076129D01*
X128725748Y-103325748D01*
X128663700Y-103418610D01*
X128663700Y-102321390D01*
X128725748Y-102414252D01*
X129099330Y-102663871D01*
X129428765Y-102729400D01*
X129651235Y-102729400D01*
X129980670Y-102663871D01*
X130354252Y-102414252D01*
X130603871Y-102040670D01*
X130691526Y-101600000D01*
X130603871Y-101159330D01*
X130354252Y-100785748D01*
X129980670Y-100536129D01*
X129651235Y-100470600D01*
X129428765Y-100470600D01*
X129099330Y-100536129D01*
X128725748Y-100785748D01*
X128663700Y-100878610D01*
X128663700Y-99781390D01*
X128725748Y-99874252D01*
X129099330Y-100123871D01*
X129428765Y-100189400D01*
X129651235Y-100189400D01*
X129980670Y-100123871D01*
X130354252Y-99874252D01*
X130603871Y-99500670D01*
X130691526Y-99060000D01*
X130603871Y-98619330D01*
X130354252Y-98245748D01*
X129980670Y-97996129D01*
X129651235Y-97930600D01*
X129428765Y-97930600D01*
X129099330Y-97996129D01*
X128725748Y-98245748D01*
X128663700Y-98338610D01*
X128663700Y-97241390D01*
X128725748Y-97334252D01*
X129099330Y-97583871D01*
X129428765Y-97649400D01*
X129651235Y-97649400D01*
X129980670Y-97583871D01*
X130354252Y-97334252D01*
X130603871Y-96960670D01*
X130691526Y-96520000D01*
X130603871Y-96079330D01*
X130354252Y-95705748D01*
X129980670Y-95456129D01*
X129651235Y-95390600D01*
X129428765Y-95390600D01*
X129099330Y-95456129D01*
X128725748Y-95705748D01*
X128663700Y-95798610D01*
X128663700Y-94701390D01*
X128725748Y-94794252D01*
G36*
X133223000Y-95074225D02*
X133147808Y-94999033D01*
X133125842Y-94966158D01*
X132995614Y-94879143D01*
X132880776Y-94856300D01*
X132880775Y-94856300D01*
X132842000Y-94848587D01*
X132803225Y-94856300D01*
X132801390Y-94856300D01*
X132894252Y-94794252D01*
X133143871Y-94420670D01*
X133223000Y-94022863D01*
X133223000Y-95074225D01*
X133223000Y-95074225D01*
G37*
X133223000Y-95074225D02*
X133147808Y-94999033D01*
X133125842Y-94966158D01*
X132995614Y-94879143D01*
X132880776Y-94856300D01*
X132880775Y-94856300D01*
X132842000Y-94848587D01*
X132803225Y-94856300D01*
X132801390Y-94856300D01*
X132894252Y-94794252D01*
X133143871Y-94420670D01*
X133223000Y-94022863D01*
X133223000Y-95074225D01*
G36*
X128725748Y-92254252D02*
X129099330Y-92503871D01*
X129428765Y-92569400D01*
X129651235Y-92569400D01*
X129980670Y-92503871D01*
X130020489Y-92477265D01*
X130139029Y-92595805D01*
X130139032Y-92595807D01*
X130504193Y-92960969D01*
X130526158Y-92993842D01*
X130656386Y-93080857D01*
X130771224Y-93103700D01*
X130771225Y-93103700D01*
X130809999Y-93111413D01*
X130848773Y-93103700D01*
X131358610Y-93103700D01*
X131265748Y-93165748D01*
X131016129Y-93539330D01*
X130928474Y-93980000D01*
X131016129Y-94420670D01*
X131265748Y-94794252D01*
X131358610Y-94856300D01*
X130973076Y-94856300D01*
X130577265Y-94460489D01*
X130603871Y-94420670D01*
X130691526Y-93980000D01*
X130603871Y-93539330D01*
X130354252Y-93165748D01*
X129980670Y-92916129D01*
X129651235Y-92850600D01*
X129428765Y-92850600D01*
X129099330Y-92916129D01*
X128725748Y-93165748D01*
X128663700Y-93258610D01*
X128663700Y-92161390D01*
X128725748Y-92254252D01*
X128725748Y-92254252D01*
G37*
X128725748Y-92254252D02*
X129099330Y-92503871D01*
X129428765Y-92569400D01*
X129651235Y-92569400D01*
X129980670Y-92503871D01*
X130020489Y-92477265D01*
X130139029Y-92595805D01*
X130139032Y-92595807D01*
X130504193Y-92960969D01*
X130526158Y-92993842D01*
X130656386Y-93080857D01*
X130771224Y-93103700D01*
X130771225Y-93103700D01*
X130809999Y-93111413D01*
X130848773Y-93103700D01*
X131358610Y-93103700D01*
X131265748Y-93165748D01*
X131016129Y-93539330D01*
X130928474Y-93980000D01*
X131016129Y-94420670D01*
X131265748Y-94794252D01*
X131358610Y-94856300D01*
X130973076Y-94856300D01*
X130577265Y-94460489D01*
X130603871Y-94420670D01*
X130691526Y-93980000D01*
X130603871Y-93539330D01*
X130354252Y-93165748D01*
X129980670Y-92916129D01*
X129651235Y-92850600D01*
X129428765Y-92850600D01*
X129099330Y-92916129D01*
X128725748Y-93165748D01*
X128663700Y-93258610D01*
X128663700Y-92161390D01*
X128725748Y-92254252D01*
G36*
X133223000Y-93139775D02*
X133223000Y-93937137D01*
X133143871Y-93539330D01*
X132894252Y-93165748D01*
X132801390Y-93103700D01*
X133186925Y-93103700D01*
X133223000Y-93139775D01*
X133223000Y-93139775D01*
G37*
X133223000Y-93139775D02*
X133223000Y-93937137D01*
X133143871Y-93539330D01*
X132894252Y-93165748D01*
X132801390Y-93103700D01*
X133186925Y-93103700D01*
X133223000Y-93139775D01*
G36*
X133223000Y-92316300D02*
X132801390Y-92316300D01*
X132894252Y-92254252D01*
X133143871Y-91880670D01*
X133223000Y-91482863D01*
X133223000Y-92316300D01*
X133223000Y-92316300D01*
G37*
X133223000Y-92316300D02*
X132801390Y-92316300D01*
X132894252Y-92254252D01*
X133143871Y-91880670D01*
X133223000Y-91482863D01*
X133223000Y-92316300D01*
G36*
X128725748Y-89714252D02*
X129099330Y-89963871D01*
X129428765Y-90029400D01*
X129651235Y-90029400D01*
X129980670Y-89963871D01*
X130020489Y-89937265D01*
X130139029Y-90055805D01*
X130139032Y-90055807D01*
X130504193Y-90420969D01*
X130526158Y-90453842D01*
X130656386Y-90540857D01*
X130771224Y-90563700D01*
X130771225Y-90563700D01*
X130809999Y-90571413D01*
X130848773Y-90563700D01*
X131358610Y-90563700D01*
X131265748Y-90625748D01*
X131016129Y-90999330D01*
X130928474Y-91440000D01*
X131016129Y-91880670D01*
X131265748Y-92254252D01*
X131358610Y-92316300D01*
X130973076Y-92316300D01*
X130695807Y-92039032D01*
X130695805Y-92039029D01*
X130577265Y-91920489D01*
X130603871Y-91880670D01*
X130691526Y-91440000D01*
X130603871Y-90999330D01*
X130354252Y-90625748D01*
X129980670Y-90376129D01*
X129651235Y-90310600D01*
X129428765Y-90310600D01*
X129099330Y-90376129D01*
X128725748Y-90625748D01*
X128663700Y-90718610D01*
X128663700Y-89621390D01*
X128725748Y-89714252D01*
X128725748Y-89714252D01*
G37*
X128725748Y-89714252D02*
X129099330Y-89963871D01*
X129428765Y-90029400D01*
X129651235Y-90029400D01*
X129980670Y-89963871D01*
X130020489Y-89937265D01*
X130139029Y-90055805D01*
X130139032Y-90055807D01*
X130504193Y-90420969D01*
X130526158Y-90453842D01*
X130656386Y-90540857D01*
X130771224Y-90563700D01*
X130771225Y-90563700D01*
X130809999Y-90571413D01*
X130848773Y-90563700D01*
X131358610Y-90563700D01*
X131265748Y-90625748D01*
X131016129Y-90999330D01*
X130928474Y-91440000D01*
X131016129Y-91880670D01*
X131265748Y-92254252D01*
X131358610Y-92316300D01*
X130973076Y-92316300D01*
X130695807Y-92039032D01*
X130695805Y-92039029D01*
X130577265Y-91920489D01*
X130603871Y-91880670D01*
X130691526Y-91440000D01*
X130603871Y-90999330D01*
X130354252Y-90625748D01*
X129980670Y-90376129D01*
X129651235Y-90310600D01*
X129428765Y-90310600D01*
X129099330Y-90376129D01*
X128725748Y-90625748D01*
X128663700Y-90718610D01*
X128663700Y-89621390D01*
X128725748Y-89714252D01*
G36*
X133223000Y-91397137D02*
X133143871Y-90999330D01*
X132894252Y-90625748D01*
X132801390Y-90563700D01*
X133223000Y-90563700D01*
X133223000Y-91397137D01*
X133223000Y-91397137D01*
G37*
X133223000Y-91397137D02*
X133143871Y-90999330D01*
X132894252Y-90625748D01*
X132801390Y-90563700D01*
X133223000Y-90563700D01*
X133223000Y-91397137D01*
G36*
X133223000Y-89776300D02*
X132801390Y-89776300D01*
X132894252Y-89714252D01*
X133143871Y-89340670D01*
X133223000Y-88942863D01*
X133223000Y-89776300D01*
X133223000Y-89776300D01*
G37*
X133223000Y-89776300D02*
X132801390Y-89776300D01*
X132894252Y-89714252D01*
X133143871Y-89340670D01*
X133223000Y-88942863D01*
X133223000Y-89776300D01*
G36*
X128725748Y-87174252D02*
X129099330Y-87423871D01*
X129428765Y-87489400D01*
X129651235Y-87489400D01*
X129980670Y-87423871D01*
X130020489Y-87397265D01*
X130504193Y-87880969D01*
X130526158Y-87913842D01*
X130656386Y-88000857D01*
X130771224Y-88023700D01*
X130771225Y-88023700D01*
X130809999Y-88031413D01*
X130848773Y-88023700D01*
X131358610Y-88023700D01*
X131265748Y-88085748D01*
X131016129Y-88459330D01*
X130928474Y-88900000D01*
X131016129Y-89340670D01*
X131265748Y-89714252D01*
X131358610Y-89776300D01*
X130973076Y-89776300D01*
X130695807Y-89499032D01*
X130695805Y-89499029D01*
X130577265Y-89380489D01*
X130603871Y-89340670D01*
X130691526Y-88900000D01*
X130603871Y-88459330D01*
X130354252Y-88085748D01*
X129980670Y-87836129D01*
X129651235Y-87770600D01*
X129428765Y-87770600D01*
X129099330Y-87836129D01*
X128725748Y-88085748D01*
X128663700Y-88178610D01*
X128663700Y-87081390D01*
X128725748Y-87174252D01*
X128725748Y-87174252D01*
G37*
X128725748Y-87174252D02*
X129099330Y-87423871D01*
X129428765Y-87489400D01*
X129651235Y-87489400D01*
X129980670Y-87423871D01*
X130020489Y-87397265D01*
X130504193Y-87880969D01*
X130526158Y-87913842D01*
X130656386Y-88000857D01*
X130771224Y-88023700D01*
X130771225Y-88023700D01*
X130809999Y-88031413D01*
X130848773Y-88023700D01*
X131358610Y-88023700D01*
X131265748Y-88085748D01*
X131016129Y-88459330D01*
X130928474Y-88900000D01*
X131016129Y-89340670D01*
X131265748Y-89714252D01*
X131358610Y-89776300D01*
X130973076Y-89776300D01*
X130695807Y-89499032D01*
X130695805Y-89499029D01*
X130577265Y-89380489D01*
X130603871Y-89340670D01*
X130691526Y-88900000D01*
X130603871Y-88459330D01*
X130354252Y-88085748D01*
X129980670Y-87836129D01*
X129651235Y-87770600D01*
X129428765Y-87770600D01*
X129099330Y-87836129D01*
X128725748Y-88085748D01*
X128663700Y-88178610D01*
X128663700Y-87081390D01*
X128725748Y-87174252D01*
G36*
X133223000Y-88857137D02*
X133143871Y-88459330D01*
X132894252Y-88085748D01*
X132801390Y-88023700D01*
X133223000Y-88023700D01*
X133223000Y-88857137D01*
X133223000Y-88857137D01*
G37*
X133223000Y-88857137D02*
X133143871Y-88459330D01*
X132894252Y-88085748D01*
X132801390Y-88023700D01*
X133223000Y-88023700D01*
X133223000Y-88857137D01*
G36*
X139306301Y-84745077D02*
X139306300Y-87834884D01*
X139124033Y-88017151D01*
X139065000Y-88159668D01*
X139005967Y-88017151D01*
X138823700Y-87834884D01*
X138823700Y-85128769D01*
X138831412Y-85089999D01*
X138823700Y-85051229D01*
X138823700Y-85051224D01*
X138800857Y-84936386D01*
X138713842Y-84806158D01*
X138680970Y-84784194D01*
X138452185Y-84555410D01*
X139116635Y-84555410D01*
X139306301Y-84745077D01*
X139306301Y-84745077D01*
G37*
X139306301Y-84745077D02*
X139306300Y-87834884D01*
X139124033Y-88017151D01*
X139065000Y-88159668D01*
X139005967Y-88017151D01*
X138823700Y-87834884D01*
X138823700Y-85128769D01*
X138831412Y-85089999D01*
X138823700Y-85051229D01*
X138823700Y-85051224D01*
X138800857Y-84936386D01*
X138713842Y-84806158D01*
X138680970Y-84784194D01*
X138452185Y-84555410D01*
X139116635Y-84555410D01*
X139306301Y-84745077D01*
G36*
X139124033Y-88786849D02*
X139315151Y-88977967D01*
X139457668Y-89037000D01*
X139315151Y-89096033D01*
X139124033Y-89287151D01*
X139065000Y-89429668D01*
X139005967Y-89287151D01*
X138814849Y-89096033D01*
X138672332Y-89037000D01*
X138814849Y-88977967D01*
X139005967Y-88786849D01*
X139065000Y-88644332D01*
X139124033Y-88786849D01*
X139124033Y-88786849D01*
G37*
X139124033Y-88786849D02*
X139315151Y-88977967D01*
X139457668Y-89037000D01*
X139315151Y-89096033D01*
X139124033Y-89287151D01*
X139065000Y-89429668D01*
X139005967Y-89287151D01*
X138814849Y-89096033D01*
X138672332Y-89037000D01*
X138814849Y-88977967D01*
X139005967Y-88786849D01*
X139065000Y-88644332D01*
X139124033Y-88786849D01*
G36*
X140394033Y-90056849D02*
X140576301Y-90239117D01*
X140576301Y-90385220D01*
X140568587Y-90424000D01*
X140599143Y-90577613D01*
X140599144Y-90577614D01*
X140686159Y-90707842D01*
X140719031Y-90729806D01*
X140918193Y-90928969D01*
X140940158Y-90961842D01*
X141066559Y-91046300D01*
X140371076Y-91046300D01*
X140093700Y-90768925D01*
X140093700Y-90239116D01*
X140275967Y-90056849D01*
X140335000Y-89914332D01*
X140394033Y-90056849D01*
X140394033Y-90056849D01*
G37*
X140394033Y-90056849D02*
X140576301Y-90239117D01*
X140576301Y-90385220D01*
X140568587Y-90424000D01*
X140599143Y-90577613D01*
X140599144Y-90577614D01*
X140686159Y-90707842D01*
X140719031Y-90729806D01*
X140918193Y-90928969D01*
X140940158Y-90961842D01*
X141066559Y-91046300D01*
X140371076Y-91046300D01*
X140093700Y-90768925D01*
X140093700Y-90239116D01*
X140275967Y-90056849D01*
X140335000Y-89914332D01*
X140394033Y-90056849D01*
D21*
G04 #@! TO.N,GND*
G36*
X140140033Y-84832249D02*
X140331151Y-85023367D01*
X140580859Y-85126800D01*
X140851141Y-85126800D01*
X141100849Y-85023367D01*
X141206916Y-84917300D01*
X188646762Y-84917300D01*
X189466943Y-85737482D01*
X189522100Y-85870644D01*
X189522101Y-87075720D01*
X189522100Y-87075725D01*
X189522101Y-101287214D01*
X189522100Y-101287219D01*
X189522101Y-104961360D01*
X189289362Y-105194100D01*
X188415293Y-105194100D01*
X188774252Y-104954252D01*
X189023871Y-104580670D01*
X189111526Y-104140000D01*
X189023871Y-103699330D01*
X188774252Y-103325748D01*
X188400670Y-103076129D01*
X188071235Y-103010600D01*
X187848765Y-103010600D01*
X187519330Y-103076129D01*
X187145748Y-103325748D01*
X186896129Y-103699330D01*
X186808474Y-104140000D01*
X186896129Y-104580670D01*
X187145748Y-104954252D01*
X187504707Y-105194100D01*
X185875293Y-105194100D01*
X186234252Y-104954252D01*
X186483871Y-104580670D01*
X186571526Y-104140000D01*
X186483871Y-103699330D01*
X186234252Y-103325748D01*
X185860670Y-103076129D01*
X185531235Y-103010600D01*
X185308765Y-103010600D01*
X184979330Y-103076129D01*
X184939511Y-103102735D01*
X184709809Y-102873034D01*
X184707782Y-102870000D01*
X184709809Y-102866966D01*
X184939511Y-102637265D01*
X184979330Y-102663871D01*
X185308765Y-102729400D01*
X185531235Y-102729400D01*
X185860670Y-102663871D01*
X186234252Y-102414252D01*
X186483871Y-102040670D01*
X186571526Y-101600000D01*
X186808474Y-101600000D01*
X186896129Y-102040670D01*
X187145748Y-102414252D01*
X187519330Y-102663871D01*
X187848765Y-102729400D01*
X188071235Y-102729400D01*
X188400670Y-102663871D01*
X188774252Y-102414252D01*
X189023871Y-102040670D01*
X189111526Y-101600000D01*
X189023871Y-101159330D01*
X188774252Y-100785748D01*
X188400670Y-100536129D01*
X188071235Y-100470600D01*
X187848765Y-100470600D01*
X187519330Y-100536129D01*
X187145748Y-100785748D01*
X186896129Y-101159330D01*
X186808474Y-101600000D01*
X186571526Y-101600000D01*
X186483871Y-101159330D01*
X186234252Y-100785748D01*
X185860670Y-100536129D01*
X185531235Y-100470600D01*
X185308765Y-100470600D01*
X184979330Y-100536129D01*
X184605748Y-100785748D01*
X184356129Y-101159330D01*
X184268474Y-101600000D01*
X184356129Y-102040670D01*
X184382735Y-102080489D01*
X184240925Y-102222300D01*
X182814475Y-102222300D01*
X184939511Y-100097265D01*
X184979330Y-100123871D01*
X185308765Y-100189400D01*
X185531235Y-100189400D01*
X185860670Y-100123871D01*
X186234252Y-99874252D01*
X186483871Y-99500670D01*
X186571526Y-99060000D01*
X186808474Y-99060000D01*
X186896129Y-99500670D01*
X187145748Y-99874252D01*
X187519330Y-100123871D01*
X187848765Y-100189400D01*
X188071235Y-100189400D01*
X188400670Y-100123871D01*
X188774252Y-99874252D01*
X189023871Y-99500670D01*
X189111526Y-99060000D01*
X189023871Y-98619330D01*
X188774252Y-98245748D01*
X188400670Y-97996129D01*
X188071235Y-97930600D01*
X187848765Y-97930600D01*
X187519330Y-97996129D01*
X187145748Y-98245748D01*
X186896129Y-98619330D01*
X186808474Y-99060000D01*
X186571526Y-99060000D01*
X186483871Y-98619330D01*
X186234252Y-98245748D01*
X185860670Y-97996129D01*
X185531235Y-97930600D01*
X185308765Y-97930600D01*
X184979330Y-97996129D01*
X184605748Y-98245748D01*
X184356129Y-98619330D01*
X184268474Y-99060000D01*
X184356129Y-99500670D01*
X184382735Y-99540489D01*
X183781700Y-100141524D01*
X183781700Y-98715075D01*
X184939511Y-97557265D01*
X184979330Y-97583871D01*
X185308765Y-97649400D01*
X185531235Y-97649400D01*
X185860670Y-97583871D01*
X186234252Y-97334252D01*
X186483871Y-96960670D01*
X186571526Y-96520000D01*
X186808474Y-96520000D01*
X186896129Y-96960670D01*
X187145748Y-97334252D01*
X187519330Y-97583871D01*
X187848765Y-97649400D01*
X188071235Y-97649400D01*
X188400670Y-97583871D01*
X188774252Y-97334252D01*
X189023871Y-96960670D01*
X189111526Y-96520000D01*
X189023871Y-96079330D01*
X188774252Y-95705748D01*
X188400670Y-95456129D01*
X188071235Y-95390600D01*
X187848765Y-95390600D01*
X187519330Y-95456129D01*
X187145748Y-95705748D01*
X186896129Y-96079330D01*
X186808474Y-96520000D01*
X186571526Y-96520000D01*
X186483871Y-96079330D01*
X186234252Y-95705748D01*
X185860670Y-95456129D01*
X185531235Y-95390600D01*
X185308765Y-95390600D01*
X184979330Y-95456129D01*
X184605748Y-95705748D01*
X184356129Y-96079330D01*
X184268474Y-96520000D01*
X184356129Y-96960670D01*
X184382735Y-97000489D01*
X183273700Y-98109525D01*
X183273700Y-96683075D01*
X184939511Y-95017265D01*
X184979330Y-95043871D01*
X185308765Y-95109400D01*
X185531235Y-95109400D01*
X185860670Y-95043871D01*
X186234252Y-94794252D01*
X186483871Y-94420670D01*
X186571526Y-93980000D01*
X186808474Y-93980000D01*
X186896129Y-94420670D01*
X187145748Y-94794252D01*
X187519330Y-95043871D01*
X187848765Y-95109400D01*
X188071235Y-95109400D01*
X188400670Y-95043871D01*
X188774252Y-94794252D01*
X189023871Y-94420670D01*
X189111526Y-93980000D01*
X189023871Y-93539330D01*
X188774252Y-93165748D01*
X188400670Y-92916129D01*
X188071235Y-92850600D01*
X187848765Y-92850600D01*
X187519330Y-92916129D01*
X187145748Y-93165748D01*
X186896129Y-93539330D01*
X186808474Y-93980000D01*
X186571526Y-93980000D01*
X186483871Y-93539330D01*
X186234252Y-93165748D01*
X185860670Y-92916129D01*
X185531235Y-92850600D01*
X185308765Y-92850600D01*
X184979330Y-92916129D01*
X184605748Y-93165748D01*
X184356129Y-93539330D01*
X184268474Y-93980000D01*
X184356129Y-94420670D01*
X184382735Y-94460489D01*
X182765700Y-96077525D01*
X182765700Y-94651075D01*
X184939511Y-92477265D01*
X184979330Y-92503871D01*
X185308765Y-92569400D01*
X185531235Y-92569400D01*
X185860670Y-92503871D01*
X186234252Y-92254252D01*
X186483871Y-91880670D01*
X186571526Y-91440000D01*
X186808474Y-91440000D01*
X186896129Y-91880670D01*
X187145748Y-92254252D01*
X187519330Y-92503871D01*
X187848765Y-92569400D01*
X188071235Y-92569400D01*
X188400670Y-92503871D01*
X188774252Y-92254252D01*
X189023871Y-91880670D01*
X189111526Y-91440000D01*
X189023871Y-90999330D01*
X188774252Y-90625748D01*
X188400670Y-90376129D01*
X188071235Y-90310600D01*
X187848765Y-90310600D01*
X187519330Y-90376129D01*
X187145748Y-90625748D01*
X186896129Y-90999330D01*
X186808474Y-91440000D01*
X186571526Y-91440000D01*
X186483871Y-90999330D01*
X186234252Y-90625748D01*
X185860670Y-90376129D01*
X185531235Y-90310600D01*
X185308765Y-90310600D01*
X184979330Y-90376129D01*
X184605748Y-90625748D01*
X184356129Y-90999330D01*
X184268474Y-91440000D01*
X184356129Y-91880670D01*
X184382735Y-91920489D01*
X182257700Y-94045525D01*
X182257700Y-92619075D01*
X184939511Y-89937265D01*
X184979330Y-89963871D01*
X185308765Y-90029400D01*
X185531235Y-90029400D01*
X185860670Y-89963871D01*
X186234252Y-89714252D01*
X186483871Y-89340670D01*
X186571526Y-88900000D01*
X186808474Y-88900000D01*
X186896129Y-89340670D01*
X187145748Y-89714252D01*
X187519330Y-89963871D01*
X187848765Y-90029400D01*
X188071235Y-90029400D01*
X188400670Y-89963871D01*
X188774252Y-89714252D01*
X189023871Y-89340670D01*
X189111526Y-88900000D01*
X189023871Y-88459330D01*
X188774252Y-88085748D01*
X188400670Y-87836129D01*
X188071235Y-87770600D01*
X187848765Y-87770600D01*
X187519330Y-87836129D01*
X187145748Y-88085748D01*
X186896129Y-88459330D01*
X186808474Y-88900000D01*
X186571526Y-88900000D01*
X186483871Y-88459330D01*
X186234252Y-88085748D01*
X185860670Y-87836129D01*
X185531235Y-87770600D01*
X185308765Y-87770600D01*
X184979330Y-87836129D01*
X184605748Y-88085748D01*
X184356129Y-88459330D01*
X184268474Y-88900000D01*
X184356129Y-89340670D01*
X184382735Y-89380489D01*
X181613034Y-92150191D01*
X181580158Y-92172158D01*
X181501421Y-92289998D01*
X181493143Y-92302387D01*
X181462587Y-92456000D01*
X181470300Y-92494775D01*
X181470301Y-99404923D01*
X181192925Y-99682300D01*
X159804776Y-99682300D01*
X159766000Y-99674587D01*
X159727224Y-99682300D01*
X159612386Y-99705143D01*
X159482158Y-99792158D01*
X159460193Y-99825031D01*
X157483034Y-101802191D01*
X157450158Y-101824158D01*
X157363144Y-101954386D01*
X157363143Y-101954387D01*
X157332587Y-102108000D01*
X157340300Y-102146775D01*
X157340301Y-108165219D01*
X157340300Y-108165224D01*
X157340300Y-108548925D01*
X153673034Y-112216191D01*
X153640158Y-112238158D01*
X153569976Y-112343194D01*
X153553143Y-112368387D01*
X153522587Y-112522000D01*
X153530300Y-112560775D01*
X153530301Y-118706220D01*
X153522587Y-118745000D01*
X153530778Y-118786176D01*
X153498600Y-118863859D01*
X153498600Y-119134141D01*
X153602033Y-119383849D01*
X153793151Y-119574967D01*
X154042859Y-119678400D01*
X154313141Y-119678400D01*
X154562849Y-119574967D01*
X154753967Y-119383849D01*
X154857400Y-119134141D01*
X154857400Y-118863859D01*
X154811808Y-118753791D01*
X154975549Y-118685967D01*
X155166667Y-118494849D01*
X155270100Y-118245141D01*
X155270100Y-117974859D01*
X155238465Y-117898485D01*
X155483549Y-117796967D01*
X155674667Y-117605849D01*
X155778100Y-117356141D01*
X155778100Y-117247689D01*
X155820859Y-117265400D01*
X156091141Y-117265400D01*
X156340849Y-117161967D01*
X156531967Y-116970849D01*
X156635400Y-116721141D01*
X156635400Y-116463376D01*
X156661805Y-116436971D01*
X156661807Y-116436968D01*
X157032370Y-116066406D01*
X157065243Y-116044441D01*
X157152258Y-115914213D01*
X157175101Y-115799375D01*
X157175101Y-115799374D01*
X157182814Y-115760600D01*
X157175101Y-115721826D01*
X157175101Y-113510674D01*
X158278076Y-112407700D01*
X173959225Y-112407700D01*
X173998000Y-112415413D01*
X174036775Y-112407700D01*
X174036776Y-112407700D01*
X174151614Y-112384857D01*
X174281842Y-112297842D01*
X174303809Y-112264966D01*
X174625000Y-111943775D01*
X174625000Y-114173000D01*
X165271400Y-114173000D01*
X165271400Y-114164859D01*
X165167967Y-113915151D01*
X164976849Y-113724033D01*
X164727141Y-113620600D01*
X164456859Y-113620600D01*
X164207151Y-113724033D01*
X164016033Y-113915151D01*
X163912600Y-114164859D01*
X163912600Y-114173000D01*
X162560000Y-114173000D01*
X162511399Y-114182667D01*
X162470197Y-114210197D01*
X162442667Y-114251399D01*
X162433000Y-114300000D01*
X162433000Y-120180100D01*
X160595639Y-120180100D01*
X159556400Y-119140862D01*
X159556400Y-118990859D01*
X159452967Y-118741151D01*
X159261849Y-118550033D01*
X159012141Y-118446600D01*
X158741859Y-118446600D01*
X158492151Y-118550033D01*
X158301033Y-118741151D01*
X158197600Y-118990859D01*
X158197600Y-119261141D01*
X158301033Y-119510849D01*
X158492151Y-119701967D01*
X158741859Y-119805400D01*
X158891862Y-119805400D01*
X160036009Y-120949548D01*
X160062222Y-120988778D01*
X160101451Y-121014990D01*
X160101452Y-121014991D01*
X160137595Y-121039141D01*
X160217654Y-121092635D01*
X160354724Y-121119900D01*
X160354727Y-121119900D01*
X160400999Y-121129104D01*
X160447271Y-121119900D01*
X162433000Y-121119900D01*
X162433000Y-128638300D01*
X153833076Y-128638300D01*
X153555700Y-128360925D01*
X153555700Y-128329116D01*
X153737967Y-128146849D01*
X153841400Y-127897141D01*
X153841400Y-127626859D01*
X153737967Y-127377151D01*
X153546849Y-127186033D01*
X153297141Y-127082600D01*
X153026859Y-127082600D01*
X152777151Y-127186033D01*
X152586033Y-127377151D01*
X152482600Y-127626859D01*
X152482600Y-127897141D01*
X152586033Y-128146849D01*
X152768300Y-128329116D01*
X152768300Y-128485224D01*
X152760587Y-128524000D01*
X152768300Y-128562775D01*
X152791143Y-128677613D01*
X152878158Y-128807842D01*
X152911033Y-128829808D01*
X152966731Y-128885506D01*
X152777151Y-128964033D01*
X152586033Y-129155151D01*
X152482600Y-129404859D01*
X152482600Y-129675141D01*
X152586033Y-129924849D01*
X152777151Y-130115967D01*
X153026859Y-130219400D01*
X153206860Y-130219400D01*
X153232654Y-130236635D01*
X153369724Y-130263900D01*
X153369727Y-130263900D01*
X153415999Y-130273104D01*
X153462271Y-130263900D01*
X162433000Y-130263900D01*
X162433000Y-130455600D01*
X129562294Y-130455600D01*
X128997166Y-130384208D01*
X128488434Y-130182787D01*
X128045781Y-129861180D01*
X127697015Y-129439594D01*
X127464050Y-128944517D01*
X127358361Y-128390475D01*
X127354400Y-128264437D01*
X127354400Y-86382293D01*
X127368300Y-86272264D01*
X127368301Y-109181219D01*
X127360587Y-109220000D01*
X127368300Y-109258776D01*
X127368301Y-127723220D01*
X127360587Y-127762000D01*
X127391143Y-127915613D01*
X127400537Y-127929672D01*
X127478159Y-128045842D01*
X127511032Y-128067807D01*
X128472193Y-129028969D01*
X128494158Y-129061842D01*
X128624386Y-129148857D01*
X128702621Y-129164419D01*
X128778000Y-129179413D01*
X128816776Y-129171700D01*
X132803225Y-129171700D01*
X132842000Y-129179413D01*
X132880775Y-129171700D01*
X132880776Y-129171700D01*
X132995614Y-129148857D01*
X133125842Y-129061842D01*
X133147809Y-129028966D01*
X134108970Y-128067806D01*
X134141842Y-128045842D01*
X134228857Y-127915614D01*
X134251700Y-127800776D01*
X134251700Y-127800775D01*
X134259413Y-127762000D01*
X134251700Y-127723224D01*
X134251700Y-125385075D01*
X134529076Y-125107700D01*
X140169225Y-125107700D01*
X140208000Y-125115413D01*
X140246775Y-125107700D01*
X140246776Y-125107700D01*
X140361614Y-125084857D01*
X140491842Y-124997842D01*
X140513809Y-124964966D01*
X141728970Y-123749806D01*
X141761842Y-123727842D01*
X141848857Y-123597614D01*
X141871700Y-123482776D01*
X141871700Y-123482775D01*
X141879413Y-123444001D01*
X141871700Y-123405227D01*
X141871700Y-120057512D01*
X142116849Y-119955967D01*
X142307967Y-119764849D01*
X142411400Y-119515141D01*
X142411400Y-119244859D01*
X142307967Y-118995151D01*
X142116849Y-118804033D01*
X141867141Y-118700600D01*
X141596859Y-118700600D01*
X141347151Y-118804033D01*
X141156033Y-118995151D01*
X141052600Y-119244859D01*
X141052600Y-119292048D01*
X140851141Y-119208600D01*
X140580859Y-119208600D01*
X140347700Y-119305178D01*
X140347700Y-118148773D01*
X140355413Y-118109999D01*
X140347700Y-118071224D01*
X140324857Y-117956386D01*
X140237842Y-117826158D01*
X140204970Y-117804194D01*
X139077700Y-116676925D01*
X139077700Y-106290859D01*
X145370600Y-106290859D01*
X145370600Y-106561141D01*
X145474033Y-106810849D01*
X145665151Y-107001967D01*
X145914859Y-107105400D01*
X146185141Y-107105400D01*
X146434849Y-107001967D01*
X146617116Y-106819700D01*
X146793008Y-106819700D01*
X146681151Y-106866033D01*
X146490033Y-107057151D01*
X146386600Y-107306859D01*
X146386600Y-107577141D01*
X146490033Y-107826849D01*
X146681151Y-108017967D01*
X146930859Y-108121400D01*
X147201141Y-108121400D01*
X147247011Y-108102400D01*
X147808455Y-108102400D01*
X149011033Y-109304980D01*
X149030033Y-109350849D01*
X149221151Y-109541967D01*
X149470859Y-109645400D01*
X149741141Y-109645400D01*
X149787011Y-109626400D01*
X150440989Y-109626400D01*
X150486859Y-109645400D01*
X150757141Y-109645400D01*
X151006849Y-109541967D01*
X151197967Y-109350849D01*
X151301400Y-109101141D01*
X151301400Y-108830859D01*
X151197967Y-108581151D01*
X151006849Y-108390033D01*
X150757141Y-108286600D01*
X150486859Y-108286600D01*
X150440989Y-108305600D01*
X149879547Y-108305600D01*
X148676968Y-107103022D01*
X148657967Y-107057151D01*
X148466849Y-106866033D01*
X148354992Y-106819700D01*
X149313225Y-106819700D01*
X149352000Y-106827413D01*
X149390775Y-106819700D01*
X149390776Y-106819700D01*
X149505614Y-106796857D01*
X149635842Y-106709842D01*
X149657809Y-106676966D01*
X150753376Y-105581400D01*
X151011141Y-105581400D01*
X151260849Y-105477967D01*
X151451967Y-105286849D01*
X151555400Y-105037141D01*
X151555400Y-104766859D01*
X151451967Y-104517151D01*
X151260849Y-104326033D01*
X151011141Y-104222600D01*
X150740859Y-104222600D01*
X150491151Y-104326033D01*
X150300033Y-104517151D01*
X150196600Y-104766859D01*
X150196600Y-105024624D01*
X149188925Y-106032300D01*
X146617116Y-106032300D01*
X146434849Y-105850033D01*
X146185141Y-105746600D01*
X145914859Y-105746600D01*
X145665151Y-105850033D01*
X145474033Y-106041151D01*
X145370600Y-106290859D01*
X139077700Y-106290859D01*
X139077700Y-103541075D01*
X139245088Y-103373688D01*
X139316259Y-103444859D01*
X139565967Y-103548292D01*
X139836249Y-103548292D01*
X140085957Y-103444859D01*
X140277075Y-103253741D01*
X140380508Y-103004033D01*
X140380508Y-102787400D01*
X140597141Y-102787400D01*
X140846849Y-102683967D01*
X141037967Y-102492849D01*
X141141400Y-102243141D01*
X141141400Y-101972859D01*
X141037967Y-101723151D01*
X140846849Y-101532033D01*
X140597141Y-101428600D01*
X140326859Y-101428600D01*
X140077151Y-101532033D01*
X139894884Y-101714300D01*
X139230776Y-101714300D01*
X139192000Y-101706587D01*
X139153224Y-101714300D01*
X139038386Y-101737143D01*
X138908158Y-101824158D01*
X138886193Y-101857031D01*
X137925032Y-102818193D01*
X137892159Y-102840158D01*
X137870194Y-102873031D01*
X137805143Y-102970387D01*
X137774587Y-103124000D01*
X137782301Y-103162780D01*
X137782301Y-109399178D01*
X137549141Y-109302600D01*
X137299700Y-109302600D01*
X137299700Y-105032037D01*
X137449549Y-104969967D01*
X137640667Y-104778849D01*
X137744100Y-104529141D01*
X137744100Y-104258859D01*
X137640667Y-104009151D01*
X137449549Y-103818033D01*
X137199841Y-103714600D01*
X136929559Y-103714600D01*
X136791700Y-103771703D01*
X136791700Y-102531512D01*
X137036849Y-102429967D01*
X137227967Y-102238849D01*
X137331400Y-101989141D01*
X137331400Y-101718859D01*
X137227967Y-101469151D01*
X137036849Y-101278033D01*
X136787141Y-101174600D01*
X136516859Y-101174600D01*
X136283700Y-101271178D01*
X136283700Y-99991512D01*
X136528849Y-99889967D01*
X136719967Y-99698849D01*
X136823400Y-99449141D01*
X136823400Y-99178859D01*
X136719967Y-98929151D01*
X136528849Y-98738033D01*
X136279141Y-98634600D01*
X136008859Y-98634600D01*
X135775700Y-98731178D01*
X135775700Y-97451512D01*
X136020849Y-97349967D01*
X136211967Y-97158849D01*
X136315400Y-96909141D01*
X136315400Y-96638859D01*
X136211967Y-96389151D01*
X136020849Y-96198033D01*
X135771141Y-96094600D01*
X135500859Y-96094600D01*
X135267700Y-96191178D01*
X135267700Y-88176769D01*
X135275412Y-88137999D01*
X135267700Y-88099229D01*
X135267700Y-88099224D01*
X135244857Y-87984386D01*
X135157842Y-87854158D01*
X135124970Y-87832194D01*
X134671808Y-87379033D01*
X134649842Y-87346158D01*
X134519614Y-87259143D01*
X134404776Y-87236300D01*
X134404775Y-87236300D01*
X134366000Y-87228587D01*
X134327225Y-87236300D01*
X133209642Y-87236300D01*
X133214873Y-87210000D01*
X133214873Y-85510000D01*
X133193188Y-85400984D01*
X133131436Y-85308564D01*
X133039016Y-85246812D01*
X132930000Y-85225127D01*
X131230000Y-85225127D01*
X131120984Y-85246812D01*
X131028564Y-85308564D01*
X130966812Y-85400984D01*
X130945127Y-85510000D01*
X130945127Y-87208352D01*
X130861808Y-87125032D01*
X130577265Y-86840489D01*
X130603871Y-86800670D01*
X130691526Y-86360000D01*
X130603871Y-85919330D01*
X130354252Y-85545748D01*
X129980670Y-85296129D01*
X129905582Y-85281193D01*
X130211076Y-84975700D01*
X137758925Y-84975700D01*
X138036300Y-85253076D01*
X138036301Y-87834883D01*
X137854033Y-88017151D01*
X137750600Y-88266859D01*
X137750600Y-88537141D01*
X137854033Y-88786849D01*
X138045151Y-88977967D01*
X138150600Y-89021646D01*
X138150600Y-89052354D01*
X138045151Y-89096033D01*
X137854033Y-89287151D01*
X137750600Y-89536859D01*
X137750600Y-89807141D01*
X137854033Y-90056849D01*
X138045151Y-90247967D01*
X138294859Y-90351400D01*
X138565141Y-90351400D01*
X138814849Y-90247967D01*
X139005967Y-90056849D01*
X139053788Y-89941400D01*
X139076212Y-89941400D01*
X139124033Y-90056849D01*
X139306300Y-90239116D01*
X139306301Y-90893220D01*
X139298587Y-90932000D01*
X139329143Y-91085613D01*
X139361604Y-91134194D01*
X139416159Y-91215842D01*
X139449031Y-91237806D01*
X139902193Y-91690969D01*
X139924158Y-91723842D01*
X140054386Y-91810857D01*
X140169224Y-91833700D01*
X140169229Y-91833700D01*
X140207999Y-91841412D01*
X140246769Y-91833700D01*
X142942884Y-91833700D01*
X143125151Y-92015967D01*
X143374859Y-92119400D01*
X143645141Y-92119400D01*
X143894849Y-92015967D01*
X144085967Y-91824849D01*
X144189400Y-91575141D01*
X144189400Y-91357400D01*
X144407141Y-91357400D01*
X144656849Y-91253967D01*
X144847967Y-91062849D01*
X144951400Y-90813141D01*
X144951400Y-90542859D01*
X144847967Y-90293151D01*
X144656849Y-90102033D01*
X144407141Y-89998600D01*
X144136859Y-89998600D01*
X144104552Y-90011982D01*
X144189400Y-89807141D01*
X144189400Y-89536859D01*
X144085967Y-89287151D01*
X143894849Y-89096033D01*
X143752332Y-89037000D01*
X143894849Y-88977967D01*
X143972816Y-88900000D01*
X151248474Y-88900000D01*
X151336129Y-89340670D01*
X151585748Y-89714252D01*
X151959330Y-89963871D01*
X152288765Y-90029400D01*
X152511235Y-90029400D01*
X152840670Y-89963871D01*
X153214252Y-89714252D01*
X153463871Y-89340670D01*
X153551526Y-88900000D01*
X153788474Y-88900000D01*
X153876129Y-89340670D01*
X154125748Y-89714252D01*
X154499330Y-89963871D01*
X154828765Y-90029400D01*
X155051235Y-90029400D01*
X155380670Y-89963871D01*
X155754252Y-89714252D01*
X156003871Y-89340670D01*
X156091526Y-88900000D01*
X169028474Y-88900000D01*
X169116129Y-89340670D01*
X169365748Y-89714252D01*
X169739330Y-89963871D01*
X170068765Y-90029400D01*
X170291235Y-90029400D01*
X170620670Y-89963871D01*
X170994252Y-89714252D01*
X171243871Y-89340670D01*
X171331526Y-88900000D01*
X171243871Y-88459330D01*
X170994252Y-88085748D01*
X170620670Y-87836129D01*
X170291235Y-87770600D01*
X170068765Y-87770600D01*
X169739330Y-87836129D01*
X169365748Y-88085748D01*
X169116129Y-88459330D01*
X169028474Y-88900000D01*
X156091526Y-88900000D01*
X156003871Y-88459330D01*
X155754252Y-88085748D01*
X155380670Y-87836129D01*
X155051235Y-87770600D01*
X154828765Y-87770600D01*
X154499330Y-87836129D01*
X154125748Y-88085748D01*
X153876129Y-88459330D01*
X153788474Y-88900000D01*
X153551526Y-88900000D01*
X153463871Y-88459330D01*
X153214252Y-88085748D01*
X152840670Y-87836129D01*
X152511235Y-87770600D01*
X152288765Y-87770600D01*
X151959330Y-87836129D01*
X151585748Y-88085748D01*
X151336129Y-88459330D01*
X151248474Y-88900000D01*
X143972816Y-88900000D01*
X144085967Y-88786849D01*
X144189400Y-88537141D01*
X144189400Y-88266859D01*
X144085967Y-88017151D01*
X143894849Y-87826033D01*
X143645141Y-87722600D01*
X143374859Y-87722600D01*
X143125151Y-87826033D01*
X142934033Y-88017151D01*
X142830600Y-88266859D01*
X142830600Y-88537141D01*
X142934033Y-88786849D01*
X143125151Y-88977967D01*
X143267668Y-89037000D01*
X143125151Y-89096033D01*
X142934033Y-89287151D01*
X142875000Y-89429668D01*
X142815967Y-89287151D01*
X142624849Y-89096033D01*
X142375141Y-88992600D01*
X142104859Y-88992600D01*
X141855151Y-89096033D01*
X141664033Y-89287151D01*
X141605000Y-89429668D01*
X141545967Y-89287151D01*
X141354849Y-89096033D01*
X141105141Y-88992600D01*
X140834859Y-88992600D01*
X140585151Y-89096033D01*
X140394033Y-89287151D01*
X140354497Y-89382600D01*
X140315503Y-89382600D01*
X140275967Y-89287151D01*
X140084849Y-89096033D01*
X139979400Y-89052354D01*
X139979400Y-89021646D01*
X140084849Y-88977967D01*
X140275967Y-88786849D01*
X140379400Y-88537141D01*
X140379400Y-88266859D01*
X140275967Y-88017151D01*
X140093700Y-87834884D01*
X140093700Y-86360000D01*
X151248474Y-86360000D01*
X151336129Y-86800670D01*
X151585748Y-87174252D01*
X151959330Y-87423871D01*
X152288765Y-87489400D01*
X152511235Y-87489400D01*
X152840670Y-87423871D01*
X153214252Y-87174252D01*
X153463871Y-86800670D01*
X153551526Y-86360000D01*
X169028474Y-86360000D01*
X169116129Y-86800670D01*
X169365748Y-87174252D01*
X169739330Y-87423871D01*
X170068765Y-87489400D01*
X170291235Y-87489400D01*
X170620670Y-87423871D01*
X170994252Y-87174252D01*
X171243871Y-86800670D01*
X171331526Y-86360000D01*
X184268474Y-86360000D01*
X184356129Y-86800670D01*
X184605748Y-87174252D01*
X184979330Y-87423871D01*
X185308765Y-87489400D01*
X185531235Y-87489400D01*
X185860670Y-87423871D01*
X186234252Y-87174252D01*
X186483871Y-86800670D01*
X186571526Y-86360000D01*
X186483871Y-85919330D01*
X186234252Y-85545748D01*
X186180752Y-85510000D01*
X186825127Y-85510000D01*
X186825127Y-87210000D01*
X186846812Y-87319016D01*
X186908564Y-87411436D01*
X187000984Y-87473188D01*
X187110000Y-87494873D01*
X188810000Y-87494873D01*
X188919016Y-87473188D01*
X189011436Y-87411436D01*
X189073188Y-87319016D01*
X189094873Y-87210000D01*
X189094873Y-85510000D01*
X189073188Y-85400984D01*
X189011436Y-85308564D01*
X188919016Y-85246812D01*
X188810000Y-85225127D01*
X187110000Y-85225127D01*
X187000984Y-85246812D01*
X186908564Y-85308564D01*
X186846812Y-85400984D01*
X186825127Y-85510000D01*
X186180752Y-85510000D01*
X185860670Y-85296129D01*
X185531235Y-85230600D01*
X185308765Y-85230600D01*
X184979330Y-85296129D01*
X184605748Y-85545748D01*
X184356129Y-85919330D01*
X184268474Y-86360000D01*
X171331526Y-86360000D01*
X171243871Y-85919330D01*
X170994252Y-85545748D01*
X170620670Y-85296129D01*
X170291235Y-85230600D01*
X170068765Y-85230600D01*
X169739330Y-85296129D01*
X169365748Y-85545748D01*
X169116129Y-85919330D01*
X169028474Y-86360000D01*
X153551526Y-86360000D01*
X153463871Y-85919330D01*
X153214252Y-85545748D01*
X152840670Y-85296129D01*
X152511235Y-85230600D01*
X152288765Y-85230600D01*
X151959330Y-85296129D01*
X151585748Y-85545748D01*
X151336129Y-85919330D01*
X151248474Y-86360000D01*
X140093700Y-86360000D01*
X140093700Y-84720392D01*
X140140033Y-84832249D01*
X140140033Y-84832249D01*
G37*
X140140033Y-84832249D02*
X140331151Y-85023367D01*
X140580859Y-85126800D01*
X140851141Y-85126800D01*
X141100849Y-85023367D01*
X141206916Y-84917300D01*
X188646762Y-84917300D01*
X189466943Y-85737482D01*
X189522100Y-85870644D01*
X189522101Y-87075720D01*
X189522100Y-87075725D01*
X189522101Y-101287214D01*
X189522100Y-101287219D01*
X189522101Y-104961360D01*
X189289362Y-105194100D01*
X188415293Y-105194100D01*
X188774252Y-104954252D01*
X189023871Y-104580670D01*
X189111526Y-104140000D01*
X189023871Y-103699330D01*
X188774252Y-103325748D01*
X188400670Y-103076129D01*
X188071235Y-103010600D01*
X187848765Y-103010600D01*
X187519330Y-103076129D01*
X187145748Y-103325748D01*
X186896129Y-103699330D01*
X186808474Y-104140000D01*
X186896129Y-104580670D01*
X187145748Y-104954252D01*
X187504707Y-105194100D01*
X185875293Y-105194100D01*
X186234252Y-104954252D01*
X186483871Y-104580670D01*
X186571526Y-104140000D01*
X186483871Y-103699330D01*
X186234252Y-103325748D01*
X185860670Y-103076129D01*
X185531235Y-103010600D01*
X185308765Y-103010600D01*
X184979330Y-103076129D01*
X184939511Y-103102735D01*
X184709809Y-102873034D01*
X184707782Y-102870000D01*
X184709809Y-102866966D01*
X184939511Y-102637265D01*
X184979330Y-102663871D01*
X185308765Y-102729400D01*
X185531235Y-102729400D01*
X185860670Y-102663871D01*
X186234252Y-102414252D01*
X186483871Y-102040670D01*
X186571526Y-101600000D01*
X186808474Y-101600000D01*
X186896129Y-102040670D01*
X187145748Y-102414252D01*
X187519330Y-102663871D01*
X187848765Y-102729400D01*
X188071235Y-102729400D01*
X188400670Y-102663871D01*
X188774252Y-102414252D01*
X189023871Y-102040670D01*
X189111526Y-101600000D01*
X189023871Y-101159330D01*
X188774252Y-100785748D01*
X188400670Y-100536129D01*
X188071235Y-100470600D01*
X187848765Y-100470600D01*
X187519330Y-100536129D01*
X187145748Y-100785748D01*
X186896129Y-101159330D01*
X186808474Y-101600000D01*
X186571526Y-101600000D01*
X186483871Y-101159330D01*
X186234252Y-100785748D01*
X185860670Y-100536129D01*
X185531235Y-100470600D01*
X185308765Y-100470600D01*
X184979330Y-100536129D01*
X184605748Y-100785748D01*
X184356129Y-101159330D01*
X184268474Y-101600000D01*
X184356129Y-102040670D01*
X184382735Y-102080489D01*
X184240925Y-102222300D01*
X182814475Y-102222300D01*
X184939511Y-100097265D01*
X184979330Y-100123871D01*
X185308765Y-100189400D01*
X185531235Y-100189400D01*
X185860670Y-100123871D01*
X186234252Y-99874252D01*
X186483871Y-99500670D01*
X186571526Y-99060000D01*
X186808474Y-99060000D01*
X186896129Y-99500670D01*
X187145748Y-99874252D01*
X187519330Y-100123871D01*
X187848765Y-100189400D01*
X188071235Y-100189400D01*
X188400670Y-100123871D01*
X188774252Y-99874252D01*
X189023871Y-99500670D01*
X189111526Y-99060000D01*
X189023871Y-98619330D01*
X188774252Y-98245748D01*
X188400670Y-97996129D01*
X188071235Y-97930600D01*
X187848765Y-97930600D01*
X187519330Y-97996129D01*
X187145748Y-98245748D01*
X186896129Y-98619330D01*
X186808474Y-99060000D01*
X186571526Y-99060000D01*
X186483871Y-98619330D01*
X186234252Y-98245748D01*
X185860670Y-97996129D01*
X185531235Y-97930600D01*
X185308765Y-97930600D01*
X184979330Y-97996129D01*
X184605748Y-98245748D01*
X184356129Y-98619330D01*
X184268474Y-99060000D01*
X184356129Y-99500670D01*
X184382735Y-99540489D01*
X183781700Y-100141524D01*
X183781700Y-98715075D01*
X184939511Y-97557265D01*
X184979330Y-97583871D01*
X185308765Y-97649400D01*
X185531235Y-97649400D01*
X185860670Y-97583871D01*
X186234252Y-97334252D01*
X186483871Y-96960670D01*
X186571526Y-96520000D01*
X186808474Y-96520000D01*
X186896129Y-96960670D01*
X187145748Y-97334252D01*
X187519330Y-97583871D01*
X187848765Y-97649400D01*
X188071235Y-97649400D01*
X188400670Y-97583871D01*
X188774252Y-97334252D01*
X189023871Y-96960670D01*
X189111526Y-96520000D01*
X189023871Y-96079330D01*
X188774252Y-95705748D01*
X188400670Y-95456129D01*
X188071235Y-95390600D01*
X187848765Y-95390600D01*
X187519330Y-95456129D01*
X187145748Y-95705748D01*
X186896129Y-96079330D01*
X186808474Y-96520000D01*
X186571526Y-96520000D01*
X186483871Y-96079330D01*
X186234252Y-95705748D01*
X185860670Y-95456129D01*
X185531235Y-95390600D01*
X185308765Y-95390600D01*
X184979330Y-95456129D01*
X184605748Y-95705748D01*
X184356129Y-96079330D01*
X184268474Y-96520000D01*
X184356129Y-96960670D01*
X184382735Y-97000489D01*
X183273700Y-98109525D01*
X183273700Y-96683075D01*
X184939511Y-95017265D01*
X184979330Y-95043871D01*
X185308765Y-95109400D01*
X185531235Y-95109400D01*
X185860670Y-95043871D01*
X186234252Y-94794252D01*
X186483871Y-94420670D01*
X186571526Y-93980000D01*
X186808474Y-93980000D01*
X186896129Y-94420670D01*
X187145748Y-94794252D01*
X187519330Y-95043871D01*
X187848765Y-95109400D01*
X188071235Y-95109400D01*
X188400670Y-95043871D01*
X188774252Y-94794252D01*
X189023871Y-94420670D01*
X189111526Y-93980000D01*
X189023871Y-93539330D01*
X188774252Y-93165748D01*
X188400670Y-92916129D01*
X188071235Y-92850600D01*
X187848765Y-92850600D01*
X187519330Y-92916129D01*
X187145748Y-93165748D01*
X186896129Y-93539330D01*
X186808474Y-93980000D01*
X186571526Y-93980000D01*
X186483871Y-93539330D01*
X186234252Y-93165748D01*
X185860670Y-92916129D01*
X185531235Y-92850600D01*
X185308765Y-92850600D01*
X184979330Y-92916129D01*
X184605748Y-93165748D01*
X184356129Y-93539330D01*
X184268474Y-93980000D01*
X184356129Y-94420670D01*
X184382735Y-94460489D01*
X182765700Y-96077525D01*
X182765700Y-94651075D01*
X184939511Y-92477265D01*
X184979330Y-92503871D01*
X185308765Y-92569400D01*
X185531235Y-92569400D01*
X185860670Y-92503871D01*
X186234252Y-92254252D01*
X186483871Y-91880670D01*
X186571526Y-91440000D01*
X186808474Y-91440000D01*
X186896129Y-91880670D01*
X187145748Y-92254252D01*
X187519330Y-92503871D01*
X187848765Y-92569400D01*
X188071235Y-92569400D01*
X188400670Y-92503871D01*
X188774252Y-92254252D01*
X189023871Y-91880670D01*
X189111526Y-91440000D01*
X189023871Y-90999330D01*
X188774252Y-90625748D01*
X188400670Y-90376129D01*
X188071235Y-90310600D01*
X187848765Y-90310600D01*
X187519330Y-90376129D01*
X187145748Y-90625748D01*
X186896129Y-90999330D01*
X186808474Y-91440000D01*
X186571526Y-91440000D01*
X186483871Y-90999330D01*
X186234252Y-90625748D01*
X185860670Y-90376129D01*
X185531235Y-90310600D01*
X185308765Y-90310600D01*
X184979330Y-90376129D01*
X184605748Y-90625748D01*
X184356129Y-90999330D01*
X184268474Y-91440000D01*
X184356129Y-91880670D01*
X184382735Y-91920489D01*
X182257700Y-94045525D01*
X182257700Y-92619075D01*
X184939511Y-89937265D01*
X184979330Y-89963871D01*
X185308765Y-90029400D01*
X185531235Y-90029400D01*
X185860670Y-89963871D01*
X186234252Y-89714252D01*
X186483871Y-89340670D01*
X186571526Y-88900000D01*
X186808474Y-88900000D01*
X186896129Y-89340670D01*
X187145748Y-89714252D01*
X187519330Y-89963871D01*
X187848765Y-90029400D01*
X188071235Y-90029400D01*
X188400670Y-89963871D01*
X188774252Y-89714252D01*
X189023871Y-89340670D01*
X189111526Y-88900000D01*
X189023871Y-88459330D01*
X188774252Y-88085748D01*
X188400670Y-87836129D01*
X188071235Y-87770600D01*
X187848765Y-87770600D01*
X187519330Y-87836129D01*
X187145748Y-88085748D01*
X186896129Y-88459330D01*
X186808474Y-88900000D01*
X186571526Y-88900000D01*
X186483871Y-88459330D01*
X186234252Y-88085748D01*
X185860670Y-87836129D01*
X185531235Y-87770600D01*
X185308765Y-87770600D01*
X184979330Y-87836129D01*
X184605748Y-88085748D01*
X184356129Y-88459330D01*
X184268474Y-88900000D01*
X184356129Y-89340670D01*
X184382735Y-89380489D01*
X181613034Y-92150191D01*
X181580158Y-92172158D01*
X181501421Y-92289998D01*
X181493143Y-92302387D01*
X181462587Y-92456000D01*
X181470300Y-92494775D01*
X181470301Y-99404923D01*
X181192925Y-99682300D01*
X159804776Y-99682300D01*
X159766000Y-99674587D01*
X159727224Y-99682300D01*
X159612386Y-99705143D01*
X159482158Y-99792158D01*
X159460193Y-99825031D01*
X157483034Y-101802191D01*
X157450158Y-101824158D01*
X157363144Y-101954386D01*
X157363143Y-101954387D01*
X157332587Y-102108000D01*
X157340300Y-102146775D01*
X157340301Y-108165219D01*
X157340300Y-108165224D01*
X157340300Y-108548925D01*
X153673034Y-112216191D01*
X153640158Y-112238158D01*
X153569976Y-112343194D01*
X153553143Y-112368387D01*
X153522587Y-112522000D01*
X153530300Y-112560775D01*
X153530301Y-118706220D01*
X153522587Y-118745000D01*
X153530778Y-118786176D01*
X153498600Y-118863859D01*
X153498600Y-119134141D01*
X153602033Y-119383849D01*
X153793151Y-119574967D01*
X154042859Y-119678400D01*
X154313141Y-119678400D01*
X154562849Y-119574967D01*
X154753967Y-119383849D01*
X154857400Y-119134141D01*
X154857400Y-118863859D01*
X154811808Y-118753791D01*
X154975549Y-118685967D01*
X155166667Y-118494849D01*
X155270100Y-118245141D01*
X155270100Y-117974859D01*
X155238465Y-117898485D01*
X155483549Y-117796967D01*
X155674667Y-117605849D01*
X155778100Y-117356141D01*
X155778100Y-117247689D01*
X155820859Y-117265400D01*
X156091141Y-117265400D01*
X156340849Y-117161967D01*
X156531967Y-116970849D01*
X156635400Y-116721141D01*
X156635400Y-116463376D01*
X156661805Y-116436971D01*
X156661807Y-116436968D01*
X157032370Y-116066406D01*
X157065243Y-116044441D01*
X157152258Y-115914213D01*
X157175101Y-115799375D01*
X157175101Y-115799374D01*
X157182814Y-115760600D01*
X157175101Y-115721826D01*
X157175101Y-113510674D01*
X158278076Y-112407700D01*
X173959225Y-112407700D01*
X173998000Y-112415413D01*
X174036775Y-112407700D01*
X174036776Y-112407700D01*
X174151614Y-112384857D01*
X174281842Y-112297842D01*
X174303809Y-112264966D01*
X174625000Y-111943775D01*
X174625000Y-114173000D01*
X165271400Y-114173000D01*
X165271400Y-114164859D01*
X165167967Y-113915151D01*
X164976849Y-113724033D01*
X164727141Y-113620600D01*
X164456859Y-113620600D01*
X164207151Y-113724033D01*
X164016033Y-113915151D01*
X163912600Y-114164859D01*
X163912600Y-114173000D01*
X162560000Y-114173000D01*
X162511399Y-114182667D01*
X162470197Y-114210197D01*
X162442667Y-114251399D01*
X162433000Y-114300000D01*
X162433000Y-120180100D01*
X160595639Y-120180100D01*
X159556400Y-119140862D01*
X159556400Y-118990859D01*
X159452967Y-118741151D01*
X159261849Y-118550033D01*
X159012141Y-118446600D01*
X158741859Y-118446600D01*
X158492151Y-118550033D01*
X158301033Y-118741151D01*
X158197600Y-118990859D01*
X158197600Y-119261141D01*
X158301033Y-119510849D01*
X158492151Y-119701967D01*
X158741859Y-119805400D01*
X158891862Y-119805400D01*
X160036009Y-120949548D01*
X160062222Y-120988778D01*
X160101451Y-121014990D01*
X160101452Y-121014991D01*
X160137595Y-121039141D01*
X160217654Y-121092635D01*
X160354724Y-121119900D01*
X160354727Y-121119900D01*
X160400999Y-121129104D01*
X160447271Y-121119900D01*
X162433000Y-121119900D01*
X162433000Y-128638300D01*
X153833076Y-128638300D01*
X153555700Y-128360925D01*
X153555700Y-128329116D01*
X153737967Y-128146849D01*
X153841400Y-127897141D01*
X153841400Y-127626859D01*
X153737967Y-127377151D01*
X153546849Y-127186033D01*
X153297141Y-127082600D01*
X153026859Y-127082600D01*
X152777151Y-127186033D01*
X152586033Y-127377151D01*
X152482600Y-127626859D01*
X152482600Y-127897141D01*
X152586033Y-128146849D01*
X152768300Y-128329116D01*
X152768300Y-128485224D01*
X152760587Y-128524000D01*
X152768300Y-128562775D01*
X152791143Y-128677613D01*
X152878158Y-128807842D01*
X152911033Y-128829808D01*
X152966731Y-128885506D01*
X152777151Y-128964033D01*
X152586033Y-129155151D01*
X152482600Y-129404859D01*
X152482600Y-129675141D01*
X152586033Y-129924849D01*
X152777151Y-130115967D01*
X153026859Y-130219400D01*
X153206860Y-130219400D01*
X153232654Y-130236635D01*
X153369724Y-130263900D01*
X153369727Y-130263900D01*
X153415999Y-130273104D01*
X153462271Y-130263900D01*
X162433000Y-130263900D01*
X162433000Y-130455600D01*
X129562294Y-130455600D01*
X128997166Y-130384208D01*
X128488434Y-130182787D01*
X128045781Y-129861180D01*
X127697015Y-129439594D01*
X127464050Y-128944517D01*
X127358361Y-128390475D01*
X127354400Y-128264437D01*
X127354400Y-86382293D01*
X127368300Y-86272264D01*
X127368301Y-109181219D01*
X127360587Y-109220000D01*
X127368300Y-109258776D01*
X127368301Y-127723220D01*
X127360587Y-127762000D01*
X127391143Y-127915613D01*
X127400537Y-127929672D01*
X127478159Y-128045842D01*
X127511032Y-128067807D01*
X128472193Y-129028969D01*
X128494158Y-129061842D01*
X128624386Y-129148857D01*
X128702621Y-129164419D01*
X128778000Y-129179413D01*
X128816776Y-129171700D01*
X132803225Y-129171700D01*
X132842000Y-129179413D01*
X132880775Y-129171700D01*
X132880776Y-129171700D01*
X132995614Y-129148857D01*
X133125842Y-129061842D01*
X133147809Y-129028966D01*
X134108970Y-128067806D01*
X134141842Y-128045842D01*
X134228857Y-127915614D01*
X134251700Y-127800776D01*
X134251700Y-127800775D01*
X134259413Y-127762000D01*
X134251700Y-127723224D01*
X134251700Y-125385075D01*
X134529076Y-125107700D01*
X140169225Y-125107700D01*
X140208000Y-125115413D01*
X140246775Y-125107700D01*
X140246776Y-125107700D01*
X140361614Y-125084857D01*
X140491842Y-124997842D01*
X140513809Y-124964966D01*
X141728970Y-123749806D01*
X141761842Y-123727842D01*
X141848857Y-123597614D01*
X141871700Y-123482776D01*
X141871700Y-123482775D01*
X141879413Y-123444001D01*
X141871700Y-123405227D01*
X141871700Y-120057512D01*
X142116849Y-119955967D01*
X142307967Y-119764849D01*
X142411400Y-119515141D01*
X142411400Y-119244859D01*
X142307967Y-118995151D01*
X142116849Y-118804033D01*
X141867141Y-118700600D01*
X141596859Y-118700600D01*
X141347151Y-118804033D01*
X141156033Y-118995151D01*
X141052600Y-119244859D01*
X141052600Y-119292048D01*
X140851141Y-119208600D01*
X140580859Y-119208600D01*
X140347700Y-119305178D01*
X140347700Y-118148773D01*
X140355413Y-118109999D01*
X140347700Y-118071224D01*
X140324857Y-117956386D01*
X140237842Y-117826158D01*
X140204970Y-117804194D01*
X139077700Y-116676925D01*
X139077700Y-106290859D01*
X145370600Y-106290859D01*
X145370600Y-106561141D01*
X145474033Y-106810849D01*
X145665151Y-107001967D01*
X145914859Y-107105400D01*
X146185141Y-107105400D01*
X146434849Y-107001967D01*
X146617116Y-106819700D01*
X146793008Y-106819700D01*
X146681151Y-106866033D01*
X146490033Y-107057151D01*
X146386600Y-107306859D01*
X146386600Y-107577141D01*
X146490033Y-107826849D01*
X146681151Y-108017967D01*
X146930859Y-108121400D01*
X147201141Y-108121400D01*
X147247011Y-108102400D01*
X147808455Y-108102400D01*
X149011033Y-109304980D01*
X149030033Y-109350849D01*
X149221151Y-109541967D01*
X149470859Y-109645400D01*
X149741141Y-109645400D01*
X149787011Y-109626400D01*
X150440989Y-109626400D01*
X150486859Y-109645400D01*
X150757141Y-109645400D01*
X151006849Y-109541967D01*
X151197967Y-109350849D01*
X151301400Y-109101141D01*
X151301400Y-108830859D01*
X151197967Y-108581151D01*
X151006849Y-108390033D01*
X150757141Y-108286600D01*
X150486859Y-108286600D01*
X150440989Y-108305600D01*
X149879547Y-108305600D01*
X148676968Y-107103022D01*
X148657967Y-107057151D01*
X148466849Y-106866033D01*
X148354992Y-106819700D01*
X149313225Y-106819700D01*
X149352000Y-106827413D01*
X149390775Y-106819700D01*
X149390776Y-106819700D01*
X149505614Y-106796857D01*
X149635842Y-106709842D01*
X149657809Y-106676966D01*
X150753376Y-105581400D01*
X151011141Y-105581400D01*
X151260849Y-105477967D01*
X151451967Y-105286849D01*
X151555400Y-105037141D01*
X151555400Y-104766859D01*
X151451967Y-104517151D01*
X151260849Y-104326033D01*
X151011141Y-104222600D01*
X150740859Y-104222600D01*
X150491151Y-104326033D01*
X150300033Y-104517151D01*
X150196600Y-104766859D01*
X150196600Y-105024624D01*
X149188925Y-106032300D01*
X146617116Y-106032300D01*
X146434849Y-105850033D01*
X146185141Y-105746600D01*
X145914859Y-105746600D01*
X145665151Y-105850033D01*
X145474033Y-106041151D01*
X145370600Y-106290859D01*
X139077700Y-106290859D01*
X139077700Y-103541075D01*
X139245088Y-103373688D01*
X139316259Y-103444859D01*
X139565967Y-103548292D01*
X139836249Y-103548292D01*
X140085957Y-103444859D01*
X140277075Y-103253741D01*
X140380508Y-103004033D01*
X140380508Y-102787400D01*
X140597141Y-102787400D01*
X140846849Y-102683967D01*
X141037967Y-102492849D01*
X141141400Y-102243141D01*
X141141400Y-101972859D01*
X141037967Y-101723151D01*
X140846849Y-101532033D01*
X140597141Y-101428600D01*
X140326859Y-101428600D01*
X140077151Y-101532033D01*
X139894884Y-101714300D01*
X139230776Y-101714300D01*
X139192000Y-101706587D01*
X139153224Y-101714300D01*
X139038386Y-101737143D01*
X138908158Y-101824158D01*
X138886193Y-101857031D01*
X137925032Y-102818193D01*
X137892159Y-102840158D01*
X137870194Y-102873031D01*
X137805143Y-102970387D01*
X137774587Y-103124000D01*
X137782301Y-103162780D01*
X137782301Y-109399178D01*
X137549141Y-109302600D01*
X137299700Y-109302600D01*
X137299700Y-105032037D01*
X137449549Y-104969967D01*
X137640667Y-104778849D01*
X137744100Y-104529141D01*
X137744100Y-104258859D01*
X137640667Y-104009151D01*
X137449549Y-103818033D01*
X137199841Y-103714600D01*
X136929559Y-103714600D01*
X136791700Y-103771703D01*
X136791700Y-102531512D01*
X137036849Y-102429967D01*
X137227967Y-102238849D01*
X137331400Y-101989141D01*
X137331400Y-101718859D01*
X137227967Y-101469151D01*
X137036849Y-101278033D01*
X136787141Y-101174600D01*
X136516859Y-101174600D01*
X136283700Y-101271178D01*
X136283700Y-99991512D01*
X136528849Y-99889967D01*
X136719967Y-99698849D01*
X136823400Y-99449141D01*
X136823400Y-99178859D01*
X136719967Y-98929151D01*
X136528849Y-98738033D01*
X136279141Y-98634600D01*
X136008859Y-98634600D01*
X135775700Y-98731178D01*
X135775700Y-97451512D01*
X136020849Y-97349967D01*
X136211967Y-97158849D01*
X136315400Y-96909141D01*
X136315400Y-96638859D01*
X136211967Y-96389151D01*
X136020849Y-96198033D01*
X135771141Y-96094600D01*
X135500859Y-96094600D01*
X135267700Y-96191178D01*
X135267700Y-88176769D01*
X135275412Y-88137999D01*
X135267700Y-88099229D01*
X135267700Y-88099224D01*
X135244857Y-87984386D01*
X135157842Y-87854158D01*
X135124970Y-87832194D01*
X134671808Y-87379033D01*
X134649842Y-87346158D01*
X134519614Y-87259143D01*
X134404776Y-87236300D01*
X134404775Y-87236300D01*
X134366000Y-87228587D01*
X134327225Y-87236300D01*
X133209642Y-87236300D01*
X133214873Y-87210000D01*
X133214873Y-85510000D01*
X133193188Y-85400984D01*
X133131436Y-85308564D01*
X133039016Y-85246812D01*
X132930000Y-85225127D01*
X131230000Y-85225127D01*
X131120984Y-85246812D01*
X131028564Y-85308564D01*
X130966812Y-85400984D01*
X130945127Y-85510000D01*
X130945127Y-87208352D01*
X130861808Y-87125032D01*
X130577265Y-86840489D01*
X130603871Y-86800670D01*
X130691526Y-86360000D01*
X130603871Y-85919330D01*
X130354252Y-85545748D01*
X129980670Y-85296129D01*
X129905582Y-85281193D01*
X130211076Y-84975700D01*
X137758925Y-84975700D01*
X138036300Y-85253076D01*
X138036301Y-87834883D01*
X137854033Y-88017151D01*
X137750600Y-88266859D01*
X137750600Y-88537141D01*
X137854033Y-88786849D01*
X138045151Y-88977967D01*
X138150600Y-89021646D01*
X138150600Y-89052354D01*
X138045151Y-89096033D01*
X137854033Y-89287151D01*
X137750600Y-89536859D01*
X137750600Y-89807141D01*
X137854033Y-90056849D01*
X138045151Y-90247967D01*
X138294859Y-90351400D01*
X138565141Y-90351400D01*
X138814849Y-90247967D01*
X139005967Y-90056849D01*
X139053788Y-89941400D01*
X139076212Y-89941400D01*
X139124033Y-90056849D01*
X139306300Y-90239116D01*
X139306301Y-90893220D01*
X139298587Y-90932000D01*
X139329143Y-91085613D01*
X139361604Y-91134194D01*
X139416159Y-91215842D01*
X139449031Y-91237806D01*
X139902193Y-91690969D01*
X139924158Y-91723842D01*
X140054386Y-91810857D01*
X140169224Y-91833700D01*
X140169229Y-91833700D01*
X140207999Y-91841412D01*
X140246769Y-91833700D01*
X142942884Y-91833700D01*
X143125151Y-92015967D01*
X143374859Y-92119400D01*
X143645141Y-92119400D01*
X143894849Y-92015967D01*
X144085967Y-91824849D01*
X144189400Y-91575141D01*
X144189400Y-91357400D01*
X144407141Y-91357400D01*
X144656849Y-91253967D01*
X144847967Y-91062849D01*
X144951400Y-90813141D01*
X144951400Y-90542859D01*
X144847967Y-90293151D01*
X144656849Y-90102033D01*
X144407141Y-89998600D01*
X144136859Y-89998600D01*
X144104552Y-90011982D01*
X144189400Y-89807141D01*
X144189400Y-89536859D01*
X144085967Y-89287151D01*
X143894849Y-89096033D01*
X143752332Y-89037000D01*
X143894849Y-88977967D01*
X143972816Y-88900000D01*
X151248474Y-88900000D01*
X151336129Y-89340670D01*
X151585748Y-89714252D01*
X151959330Y-89963871D01*
X152288765Y-90029400D01*
X152511235Y-90029400D01*
X152840670Y-89963871D01*
X153214252Y-89714252D01*
X153463871Y-89340670D01*
X153551526Y-88900000D01*
X153788474Y-88900000D01*
X153876129Y-89340670D01*
X154125748Y-89714252D01*
X154499330Y-89963871D01*
X154828765Y-90029400D01*
X155051235Y-90029400D01*
X155380670Y-89963871D01*
X155754252Y-89714252D01*
X156003871Y-89340670D01*
X156091526Y-88900000D01*
X169028474Y-88900000D01*
X169116129Y-89340670D01*
X169365748Y-89714252D01*
X169739330Y-89963871D01*
X170068765Y-90029400D01*
X170291235Y-90029400D01*
X170620670Y-89963871D01*
X170994252Y-89714252D01*
X171243871Y-89340670D01*
X171331526Y-88900000D01*
X171243871Y-88459330D01*
X170994252Y-88085748D01*
X170620670Y-87836129D01*
X170291235Y-87770600D01*
X170068765Y-87770600D01*
X169739330Y-87836129D01*
X169365748Y-88085748D01*
X169116129Y-88459330D01*
X169028474Y-88900000D01*
X156091526Y-88900000D01*
X156003871Y-88459330D01*
X155754252Y-88085748D01*
X155380670Y-87836129D01*
X155051235Y-87770600D01*
X154828765Y-87770600D01*
X154499330Y-87836129D01*
X154125748Y-88085748D01*
X153876129Y-88459330D01*
X153788474Y-88900000D01*
X153551526Y-88900000D01*
X153463871Y-88459330D01*
X153214252Y-88085748D01*
X152840670Y-87836129D01*
X152511235Y-87770600D01*
X152288765Y-87770600D01*
X151959330Y-87836129D01*
X151585748Y-88085748D01*
X151336129Y-88459330D01*
X151248474Y-88900000D01*
X143972816Y-88900000D01*
X144085967Y-88786849D01*
X144189400Y-88537141D01*
X144189400Y-88266859D01*
X144085967Y-88017151D01*
X143894849Y-87826033D01*
X143645141Y-87722600D01*
X143374859Y-87722600D01*
X143125151Y-87826033D01*
X142934033Y-88017151D01*
X142830600Y-88266859D01*
X142830600Y-88537141D01*
X142934033Y-88786849D01*
X143125151Y-88977967D01*
X143267668Y-89037000D01*
X143125151Y-89096033D01*
X142934033Y-89287151D01*
X142875000Y-89429668D01*
X142815967Y-89287151D01*
X142624849Y-89096033D01*
X142375141Y-88992600D01*
X142104859Y-88992600D01*
X141855151Y-89096033D01*
X141664033Y-89287151D01*
X141605000Y-89429668D01*
X141545967Y-89287151D01*
X141354849Y-89096033D01*
X141105141Y-88992600D01*
X140834859Y-88992600D01*
X140585151Y-89096033D01*
X140394033Y-89287151D01*
X140354497Y-89382600D01*
X140315503Y-89382600D01*
X140275967Y-89287151D01*
X140084849Y-89096033D01*
X139979400Y-89052354D01*
X139979400Y-89021646D01*
X140084849Y-88977967D01*
X140275967Y-88786849D01*
X140379400Y-88537141D01*
X140379400Y-88266859D01*
X140275967Y-88017151D01*
X140093700Y-87834884D01*
X140093700Y-86360000D01*
X151248474Y-86360000D01*
X151336129Y-86800670D01*
X151585748Y-87174252D01*
X151959330Y-87423871D01*
X152288765Y-87489400D01*
X152511235Y-87489400D01*
X152840670Y-87423871D01*
X153214252Y-87174252D01*
X153463871Y-86800670D01*
X153551526Y-86360000D01*
X169028474Y-86360000D01*
X169116129Y-86800670D01*
X169365748Y-87174252D01*
X169739330Y-87423871D01*
X170068765Y-87489400D01*
X170291235Y-87489400D01*
X170620670Y-87423871D01*
X170994252Y-87174252D01*
X171243871Y-86800670D01*
X171331526Y-86360000D01*
X184268474Y-86360000D01*
X184356129Y-86800670D01*
X184605748Y-87174252D01*
X184979330Y-87423871D01*
X185308765Y-87489400D01*
X185531235Y-87489400D01*
X185860670Y-87423871D01*
X186234252Y-87174252D01*
X186483871Y-86800670D01*
X186571526Y-86360000D01*
X186483871Y-85919330D01*
X186234252Y-85545748D01*
X186180752Y-85510000D01*
X186825127Y-85510000D01*
X186825127Y-87210000D01*
X186846812Y-87319016D01*
X186908564Y-87411436D01*
X187000984Y-87473188D01*
X187110000Y-87494873D01*
X188810000Y-87494873D01*
X188919016Y-87473188D01*
X189011436Y-87411436D01*
X189073188Y-87319016D01*
X189094873Y-87210000D01*
X189094873Y-85510000D01*
X189073188Y-85400984D01*
X189011436Y-85308564D01*
X188919016Y-85246812D01*
X188810000Y-85225127D01*
X187110000Y-85225127D01*
X187000984Y-85246812D01*
X186908564Y-85308564D01*
X186846812Y-85400984D01*
X186825127Y-85510000D01*
X186180752Y-85510000D01*
X185860670Y-85296129D01*
X185531235Y-85230600D01*
X185308765Y-85230600D01*
X184979330Y-85296129D01*
X184605748Y-85545748D01*
X184356129Y-85919330D01*
X184268474Y-86360000D01*
X171331526Y-86360000D01*
X171243871Y-85919330D01*
X170994252Y-85545748D01*
X170620670Y-85296129D01*
X170291235Y-85230600D01*
X170068765Y-85230600D01*
X169739330Y-85296129D01*
X169365748Y-85545748D01*
X169116129Y-85919330D01*
X169028474Y-86360000D01*
X153551526Y-86360000D01*
X153463871Y-85919330D01*
X153214252Y-85545748D01*
X152840670Y-85296129D01*
X152511235Y-85230600D01*
X152288765Y-85230600D01*
X151959330Y-85296129D01*
X151585748Y-85545748D01*
X151336129Y-85919330D01*
X151248474Y-86360000D01*
X140093700Y-86360000D01*
X140093700Y-84720392D01*
X140140033Y-84832249D01*
G36*
X184382735Y-103659511D02*
X184356129Y-103699330D01*
X184268474Y-104140000D01*
X184356129Y-104580670D01*
X184591567Y-104933029D01*
X184260992Y-104602454D01*
X184234778Y-104563222D01*
X184079346Y-104459365D01*
X183942276Y-104432100D01*
X183942272Y-104432100D01*
X183896000Y-104422896D01*
X183849728Y-104432100D01*
X179306916Y-104432100D01*
X179200849Y-104326033D01*
X178951141Y-104222600D01*
X178680859Y-104222600D01*
X178431151Y-104326033D01*
X178240033Y-104517151D01*
X178136600Y-104766859D01*
X178136600Y-105037141D01*
X178240033Y-105286849D01*
X178431151Y-105477967D01*
X178680859Y-105581400D01*
X178951141Y-105581400D01*
X179200849Y-105477967D01*
X179306916Y-105371900D01*
X180980755Y-105371900D01*
X180653377Y-105699278D01*
X180510174Y-106045000D01*
X174752000Y-106045000D01*
X174703399Y-106054667D01*
X174662197Y-106082197D01*
X174634667Y-106123399D01*
X174625000Y-106172000D01*
X174625000Y-110830225D01*
X173834925Y-111620300D01*
X164074992Y-111620300D01*
X164186849Y-111573967D01*
X164377967Y-111382849D01*
X164481400Y-111133141D01*
X164481400Y-110983139D01*
X164637549Y-110826990D01*
X164676778Y-110800778D01*
X164716742Y-110740969D01*
X164780635Y-110645346D01*
X164795105Y-110572600D01*
X164807900Y-110508276D01*
X164807900Y-110508273D01*
X164817104Y-110462001D01*
X164807900Y-110415729D01*
X164807900Y-105964271D01*
X164817104Y-105917999D01*
X164807900Y-105871727D01*
X164807900Y-105871724D01*
X164780635Y-105734654D01*
X164763400Y-105708860D01*
X164763400Y-105528859D01*
X164659967Y-105279151D01*
X164468849Y-105088033D01*
X164219141Y-104984600D01*
X163948859Y-104984600D01*
X163699151Y-105088033D01*
X163508033Y-105279151D01*
X163404600Y-105528859D01*
X163404600Y-105799141D01*
X163508033Y-106048849D01*
X163699151Y-106239967D01*
X163868101Y-106309949D01*
X163868100Y-110267361D01*
X163816861Y-110318600D01*
X163666859Y-110318600D01*
X163417151Y-110422033D01*
X163226033Y-110613151D01*
X163122600Y-110862859D01*
X163122600Y-111133141D01*
X163226033Y-111382849D01*
X163417151Y-111573967D01*
X163529008Y-111620300D01*
X161364822Y-111620300D01*
X161461400Y-111387141D01*
X161461400Y-111116859D01*
X161357967Y-110867151D01*
X161175700Y-110684884D01*
X161175700Y-103795075D01*
X161453076Y-103517700D01*
X184240925Y-103517700D01*
X184382735Y-103659511D01*
X184382735Y-103659511D01*
G37*
X184382735Y-103659511D02*
X184356129Y-103699330D01*
X184268474Y-104140000D01*
X184356129Y-104580670D01*
X184591567Y-104933029D01*
X184260992Y-104602454D01*
X184234778Y-104563222D01*
X184079346Y-104459365D01*
X183942276Y-104432100D01*
X183942272Y-104432100D01*
X183896000Y-104422896D01*
X183849728Y-104432100D01*
X179306916Y-104432100D01*
X179200849Y-104326033D01*
X178951141Y-104222600D01*
X178680859Y-104222600D01*
X178431151Y-104326033D01*
X178240033Y-104517151D01*
X178136600Y-104766859D01*
X178136600Y-105037141D01*
X178240033Y-105286849D01*
X178431151Y-105477967D01*
X178680859Y-105581400D01*
X178951141Y-105581400D01*
X179200849Y-105477967D01*
X179306916Y-105371900D01*
X180980755Y-105371900D01*
X180653377Y-105699278D01*
X180510174Y-106045000D01*
X174752000Y-106045000D01*
X174703399Y-106054667D01*
X174662197Y-106082197D01*
X174634667Y-106123399D01*
X174625000Y-106172000D01*
X174625000Y-110830225D01*
X173834925Y-111620300D01*
X164074992Y-111620300D01*
X164186849Y-111573967D01*
X164377967Y-111382849D01*
X164481400Y-111133141D01*
X164481400Y-110983139D01*
X164637549Y-110826990D01*
X164676778Y-110800778D01*
X164716742Y-110740969D01*
X164780635Y-110645346D01*
X164795105Y-110572600D01*
X164807900Y-110508276D01*
X164807900Y-110508273D01*
X164817104Y-110462001D01*
X164807900Y-110415729D01*
X164807900Y-105964271D01*
X164817104Y-105917999D01*
X164807900Y-105871727D01*
X164807900Y-105871724D01*
X164780635Y-105734654D01*
X164763400Y-105708860D01*
X164763400Y-105528859D01*
X164659967Y-105279151D01*
X164468849Y-105088033D01*
X164219141Y-104984600D01*
X163948859Y-104984600D01*
X163699151Y-105088033D01*
X163508033Y-105279151D01*
X163404600Y-105528859D01*
X163404600Y-105799141D01*
X163508033Y-106048849D01*
X163699151Y-106239967D01*
X163868101Y-106309949D01*
X163868100Y-110267361D01*
X163816861Y-110318600D01*
X163666859Y-110318600D01*
X163417151Y-110422033D01*
X163226033Y-110613151D01*
X163122600Y-110862859D01*
X163122600Y-111133141D01*
X163226033Y-111382849D01*
X163417151Y-111573967D01*
X163529008Y-111620300D01*
X161364822Y-111620300D01*
X161461400Y-111387141D01*
X161461400Y-111116859D01*
X161357967Y-110867151D01*
X161175700Y-110684884D01*
X161175700Y-103795075D01*
X161453076Y-103517700D01*
X184240925Y-103517700D01*
X184382735Y-103659511D01*
G04 #@! TD*
M02*
