M48
;DRILL file {KiCad (5.0.2)-1} date 12/13/2019 6:48:55 PM
;FORMAT={-:-/ absolute / inch / decimal}
FMAT,2
INCH,TZ
T1C0.0157
T2C0.0197
T3C0.0350
T4C0.0394
T5C0.0618
%
G90
G05
T1
X4.44Y-1.16
X4.44Y-1.38
X4.44Y-1.43
X4.44Y-1.61
X4.46Y-1.71
X4.46Y-2.56
X4.48Y-1.81
X4.48Y-2.16
X4.48Y-2.22
X4.48Y-2.28
X4.48Y-2.34
X4.48Y-2.34
X4.49Y-1.16
X4.49Y-1.38
X4.49Y-1.43
X4.4962Y-1.91
X4.5Y-2.58
X4.51Y-2.13
X4.51Y-2.19
X4.51Y-2.25
X4.51Y-2.31
X4.54Y-2.6
X4.58Y-2.62
X4.59Y-2.8
X4.6Y-1.42
X4.6Y-1.47
X4.6Y-1.52
X4.6Y-1.85
X4.63Y-1.82
X4.64Y-1.1247
X4.64Y-1.18
X4.64Y-2.52
X4.64Y-2.76
X4.64Y-2.84
X4.68Y-2.5
X4.75Y-1.4
X4.76Y-2.49
X4.77Y-2.8
X4.78Y-1.37
X4.79Y-2.13
X4.81Y-1.24
X4.81Y-1.31
X4.81Y-2.8
X4.85Y-1.93
X4.85Y-1.99
X4.85Y-2.18
X4.85Y-2.8
X4.86Y-1.31
X4.86Y-1.38
X4.86Y-1.24
X4.89Y-2.03
X4.93Y-2.03
X4.97Y-2.9
X4.99Y-2.09
X5.03Y-2.09
X5.04Y-1.93
X5.04Y-1.99
X5.05Y-2.18
X5.07Y-2.8
X5.1Y-2.9
X5.11Y-2.8
X5.12Y-2.1
X5.15Y-2.8
X5.16Y-2.07
X5.25Y-2.48
X5.27Y-1.72
X5.27Y-2.58
X5.27Y-2.8
X5.28Y-2.45
X5.31Y-2.42
X5.34Y-2.36
X5.37Y-2.33
X5.37Y-2.39
X5.37Y-2.44
X5.4Y-1.2
X5.4Y-1.3
X5.4Y-1.59
X5.4Y-2.15
X5.4Y-2.47
X5.4Y-2.85
X5.43Y-2.18
X5.43Y-2.44
X5.43Y-2.74
X5.44Y-1.59
X5.46Y-2.47
X5.46Y-2.59
X5.49Y-2.44
X5.49Y-2.5
X5.5Y-1.2
X5.5Y-1.3
X5.5Y-2.89
X5.52Y-2.47
X5.55Y-2.13
X5.6Y-1.2
X5.6Y-1.3
X5.63Y-1.92
X5.63Y-2.41
X5.67Y-2.28
X5.7Y-2.16
X5.76Y-2.19
X5.77Y-2.29
X5.79Y-2.55
X5.81Y-1.95
X5.85Y-2.49
X5.8511Y-2.24
X5.89Y-1.95
X6.03Y-1.89
X6.03Y-2.24
X6.03Y-2.28
X6.12Y-2.8
X6.14Y-1.93
X6.17Y-2.8
X6.24Y-1.89
X6.29Y-1.89
T2
X4.55Y-1.2804
X4.55Y-1.3304
X4.6Y-1.2804
X4.6Y-1.3304
X4.65Y-1.2804
X4.65Y-1.3304
X4.7Y-1.2804
X4.7Y-1.3304
X4.75Y-1.2804
X4.75Y-1.3304
T3
X6.0302Y-2.0399
X6.0302Y-2.1301
X6.0302Y-2.4899
X6.0302Y-2.5801
X6.22Y-2.21
X6.22Y-2.2903
X6.22Y-2.3706
X6.22Y-2.4509
X6.2901Y-2.1698
X6.2901Y-2.2502
X6.2901Y-2.3305
X6.2901Y-2.4108
T4
X6.4Y-1.2
X6.4Y-1.3
X6.4Y-1.4
X6.4Y-1.5
X6.4Y-1.6
X6.4Y-1.7
X6.4Y-1.8
X6.4Y-1.9
X6.5Y-1.2
X6.5Y-1.3
X6.5Y-1.4
X6.5Y-1.5
X6.5Y-1.6
X6.5Y-1.7
X6.5Y-1.8
X6.5Y-1.9
X5.1Y-1.2
X5.1Y-1.3
X5.2Y-1.2
X5.2Y-1.3
X4.2Y-1.2
X4.2Y-1.3
X4.2Y-1.4
X4.2Y-1.5
X4.2Y-1.6
X4.2Y-1.7
X4.2Y-1.8
X4.2Y-1.9
X4.3Y-1.2
X4.3Y-1.3
X4.3Y-1.4
X4.3Y-1.5
X4.3Y-1.6
X4.3Y-1.7
X4.3Y-1.8
X4.3Y-1.9
X4.2Y-2.1
X4.2Y-2.2
X4.2Y-2.3
X4.2Y-2.4
X4.2Y-2.5
X4.2Y-2.6
X4.2Y-2.7
X4.2Y-2.8
X4.3Y-2.1
X4.3Y-2.2
X4.3Y-2.3
X4.3Y-2.4
X4.3Y-2.5
X4.3Y-2.6
X4.3Y-2.7
X4.3Y-2.8
X5.8Y-1.2
X5.8Y-1.3
X5.9Y-1.2
X5.9Y-1.3
T5
X6.255Y-1.9899
X6.255Y-2.6301
T0
M30
