M48
;DRILL file {KiCad (5.0.2)-1} date 3/4/2020 4:34:25 PM
;FORMAT={-:-/ absolute / inch / decimal}
FMAT,2
INCH,TZ
T1C0.0157
T2C0.0197
T3C0.0350
T4C0.0394
T5C0.0618
%
G90
G05
T1
X5.34Y-3.36
X5.34Y-3.58
X5.34Y-3.63
X5.34Y-3.81
X5.36Y-3.91
X5.36Y-4.76
X5.38Y-4.01
X5.38Y-4.36
X5.38Y-4.42
X5.38Y-4.48
X5.38Y-4.54
X5.38Y-4.54
X5.39Y-3.36
X5.39Y-3.58
X5.39Y-3.63
X5.3962Y-4.11
X5.4Y-4.78
X5.41Y-4.33
X5.41Y-4.39
X5.41Y-4.45
X5.41Y-4.51
X5.44Y-4.8
X5.48Y-4.82
X5.49Y-5.
X5.5Y-3.62
X5.5Y-3.67
X5.5Y-3.72
X5.5Y-4.05
X5.53Y-4.02
X5.54Y-3.3247
X5.54Y-3.38
X5.54Y-4.72
X5.54Y-4.96
X5.54Y-5.04
X5.58Y-4.7
X5.65Y-3.6
X5.66Y-4.69
X5.68Y-3.57
X5.69Y-4.33
X5.71Y-3.44
X5.71Y-3.51
X5.75Y-4.13
X5.75Y-4.19
X5.75Y-4.38
X5.76Y-3.51
X5.76Y-3.58
X5.76Y-3.44
X5.79Y-4.23
X5.83Y-4.23
X5.89Y-4.29
X5.93Y-4.29
X5.94Y-4.13
X5.94Y-4.19
X5.95Y-4.38
X6.02Y-4.3
X6.03Y-5.03
X6.03Y-5.1
X6.06Y-4.27
X6.07Y-4.685
X6.0862Y-4.65
X6.1062Y-4.615
X6.13Y-4.55
X6.14Y-4.59
X6.1462Y-4.515
X6.17Y-3.92
X6.255Y-4.69
X6.3Y-3.4
X6.3Y-3.5
X6.3Y-3.79
X6.3Y-4.35
X6.33Y-4.38
X6.34Y-3.79
X6.39Y-4.37
X6.4Y-3.4
X6.4Y-3.5
X6.44Y-4.31
X6.4489Y-4.37
X6.46Y-4.16
X6.48Y-4.5
X6.48Y-4.625
X6.48Y-4.75
X6.48Y-4.875
X6.48Y-5.
X6.5Y-3.4
X6.5Y-3.5
X6.93Y-4.09
X7.04Y-4.13
X7.14Y-4.09
X7.19Y-4.09
T2
X5.45Y-3.4804
X5.45Y-3.5304
X5.5Y-3.4804
X5.5Y-3.5304
X5.55Y-3.4804
X5.55Y-3.5304
X5.6Y-3.4804
X5.6Y-3.5304
X5.65Y-3.4804
X5.65Y-3.5304
T3
X6.9302Y-4.2399
X6.9302Y-4.3301
X6.9302Y-4.6899
X6.9302Y-4.7801
X7.12Y-4.41
X7.12Y-4.4903
X7.12Y-4.5706
X7.12Y-4.6509
X7.1901Y-4.3698
X7.1901Y-4.4502
X7.1901Y-4.5305
X7.1901Y-4.6108
T4
X6.Y-3.4
X6.Y-3.5
X6.1Y-3.4
X6.1Y-3.5
X5.1Y-4.3
X5.1Y-4.4
X5.1Y-4.5
X5.1Y-4.6
X5.1Y-4.7
X5.1Y-4.8
X5.1Y-4.9
X5.1Y-5.
X5.2Y-4.3
X5.2Y-4.4
X5.2Y-4.5
X5.2Y-4.6
X5.2Y-4.7
X5.2Y-4.8
X5.2Y-4.9
X5.2Y-5.
X7.3Y-3.4
X7.3Y-3.5
X7.3Y-3.6
X7.3Y-3.7
X7.3Y-3.8
X7.3Y-3.9
X7.3Y-4.
X7.3Y-4.1
X7.4Y-3.4
X7.4Y-3.5
X7.4Y-3.6
X7.4Y-3.7
X7.4Y-3.8
X7.4Y-3.9
X7.4Y-4.
X7.4Y-4.1
X6.7Y-3.4
X6.7Y-3.5
X6.8Y-3.4
X6.8Y-3.5
X5.1Y-3.4
X5.1Y-3.5
X5.1Y-3.6
X5.1Y-3.7
X5.1Y-3.8
X5.1Y-3.9
X5.1Y-4.
X5.1Y-4.1
X5.2Y-3.4
X5.2Y-3.5
X5.2Y-3.6
X5.2Y-3.7
X5.2Y-3.8
X5.2Y-3.9
X5.2Y-4.
X5.2Y-4.1
T5
X7.155Y-4.1899
X7.155Y-4.8301
T0
M30
