G04 #@! TF.GenerationSoftware,KiCad,Pcbnew,(5.0.2)-1*
G04 #@! TF.CreationDate,2020-01-13T13:35:34-06:00*
G04 #@! TF.ProjectId,TM4C129-Breakout_Hardware,544d3443-3132-4392-9d42-7265616b6f75,rev?*
G04 #@! TF.SameCoordinates,Original*
G04 #@! TF.FileFunction,Soldermask,Bot*
G04 #@! TF.FilePolarity,Negative*
%FSLAX46Y46*%
G04 Gerber Fmt 4.6, Leading zero omitted, Abs format (unit mm)*
G04 Created by KiCad (PCBNEW (5.0.2)-1) date 1/13/2020 1:35:34 PM*
%MOMM*%
%LPD*%
G01*
G04 APERTURE LIST*
%ADD10C,0.100000*%
G04 APERTURE END LIST*
D10*
G36*
X57447357Y-39145087D02*
X57594593Y-39174374D01*
X57871979Y-39289271D01*
X58119938Y-39454953D01*
X58121624Y-39456079D01*
X58333921Y-39668376D01*
X58333923Y-39668379D01*
X58500729Y-39918021D01*
X58615626Y-40195407D01*
X58674200Y-40489879D01*
X58674200Y-40790121D01*
X58615626Y-41084593D01*
X58500729Y-41361979D01*
X58335047Y-41609938D01*
X58333921Y-41611624D01*
X58121624Y-41823921D01*
X58121621Y-41823923D01*
X57871979Y-41990729D01*
X57594593Y-42105626D01*
X57447357Y-42134913D01*
X57300122Y-42164200D01*
X56999878Y-42164200D01*
X56852643Y-42134913D01*
X56705407Y-42105626D01*
X56428021Y-41990729D01*
X56178379Y-41823923D01*
X56178376Y-41823921D01*
X55966079Y-41611624D01*
X55964953Y-41609938D01*
X55799271Y-41361979D01*
X55684374Y-41084593D01*
X55625800Y-40790121D01*
X55625800Y-40489879D01*
X55684374Y-40195407D01*
X55799271Y-39918021D01*
X55966077Y-39668379D01*
X55966079Y-39668376D01*
X56178376Y-39456079D01*
X56180062Y-39454953D01*
X56428021Y-39289271D01*
X56705407Y-39174374D01*
X56852643Y-39145087D01*
X56999878Y-39115800D01*
X57300122Y-39115800D01*
X57447357Y-39145087D01*
X57447357Y-39145087D01*
G37*
G36*
X2650442Y-39745518D02*
X2716627Y-39752037D01*
X2829853Y-39786384D01*
X2886467Y-39803557D01*
X3025087Y-39877652D01*
X3042991Y-39887222D01*
X3078729Y-39916552D01*
X3180186Y-39999814D01*
X3263448Y-40101271D01*
X3292778Y-40137009D01*
X3292779Y-40137011D01*
X3376443Y-40293533D01*
X3376443Y-40293534D01*
X3427963Y-40463373D01*
X3445359Y-40640000D01*
X3427963Y-40816627D01*
X3393616Y-40929853D01*
X3376443Y-40986467D01*
X3323993Y-41084592D01*
X3292778Y-41142991D01*
X3263448Y-41178729D01*
X3180186Y-41280186D01*
X3080521Y-41361978D01*
X3042991Y-41392778D01*
X3042989Y-41392779D01*
X2886467Y-41476443D01*
X2829853Y-41493616D01*
X2716627Y-41527963D01*
X2650442Y-41534482D01*
X2584260Y-41541000D01*
X2495740Y-41541000D01*
X2429558Y-41534482D01*
X2363373Y-41527963D01*
X2250147Y-41493616D01*
X2193533Y-41476443D01*
X2037011Y-41392779D01*
X2037009Y-41392778D01*
X1999479Y-41361978D01*
X1899814Y-41280186D01*
X1816552Y-41178729D01*
X1787222Y-41142991D01*
X1756007Y-41084592D01*
X1703557Y-40986467D01*
X1686384Y-40929853D01*
X1652037Y-40816627D01*
X1634641Y-40640000D01*
X1652037Y-40463373D01*
X1703557Y-40293534D01*
X1703557Y-40293533D01*
X1787221Y-40137011D01*
X1787222Y-40137009D01*
X1816552Y-40101271D01*
X1899814Y-39999814D01*
X2001271Y-39916552D01*
X2037009Y-39887222D01*
X2054913Y-39877652D01*
X2193533Y-39803557D01*
X2250147Y-39786384D01*
X2363373Y-39752037D01*
X2429558Y-39745518D01*
X2495740Y-39739000D01*
X2584260Y-39739000D01*
X2650442Y-39745518D01*
X2650442Y-39745518D01*
G37*
G36*
X110442Y-39745518D02*
X176627Y-39752037D01*
X289853Y-39786384D01*
X346467Y-39803557D01*
X485087Y-39877652D01*
X502991Y-39887222D01*
X538729Y-39916552D01*
X640186Y-39999814D01*
X723448Y-40101271D01*
X752778Y-40137009D01*
X752779Y-40137011D01*
X836443Y-40293533D01*
X836443Y-40293534D01*
X887963Y-40463373D01*
X905359Y-40640000D01*
X887963Y-40816627D01*
X853616Y-40929853D01*
X836443Y-40986467D01*
X783993Y-41084592D01*
X752778Y-41142991D01*
X723448Y-41178729D01*
X640186Y-41280186D01*
X540521Y-41361978D01*
X502991Y-41392778D01*
X502989Y-41392779D01*
X346467Y-41476443D01*
X289853Y-41493616D01*
X176627Y-41527963D01*
X110442Y-41534482D01*
X44260Y-41541000D01*
X-44260Y-41541000D01*
X-110442Y-41534482D01*
X-176627Y-41527963D01*
X-289853Y-41493616D01*
X-346467Y-41476443D01*
X-502989Y-41392779D01*
X-502991Y-41392778D01*
X-540521Y-41361978D01*
X-640186Y-41280186D01*
X-723448Y-41178729D01*
X-752778Y-41142991D01*
X-783993Y-41084592D01*
X-836443Y-40986467D01*
X-853616Y-40929853D01*
X-887963Y-40816627D01*
X-905359Y-40640000D01*
X-887963Y-40463373D01*
X-836443Y-40293534D01*
X-836443Y-40293533D01*
X-752779Y-40137011D01*
X-752778Y-40137009D01*
X-723448Y-40101271D01*
X-640186Y-39999814D01*
X-538729Y-39916552D01*
X-502991Y-39887222D01*
X-485087Y-39877652D01*
X-346467Y-39803557D01*
X-289853Y-39786384D01*
X-176627Y-39752037D01*
X-110442Y-39745518D01*
X-44260Y-39739000D01*
X44260Y-39739000D01*
X110442Y-39745518D01*
X110442Y-39745518D01*
G37*
G36*
X2650442Y-37205518D02*
X2716627Y-37212037D01*
X2829853Y-37246384D01*
X2886467Y-37263557D01*
X3019396Y-37334610D01*
X3042991Y-37347222D01*
X3076838Y-37375000D01*
X3180186Y-37459814D01*
X3263448Y-37561271D01*
X3292778Y-37597009D01*
X3292779Y-37597011D01*
X3376443Y-37753533D01*
X3376443Y-37753534D01*
X3427963Y-37923373D01*
X3445359Y-38100000D01*
X3427963Y-38276627D01*
X3393616Y-38389853D01*
X3376443Y-38446467D01*
X3302348Y-38585087D01*
X3292778Y-38602991D01*
X3263448Y-38638729D01*
X3180186Y-38740186D01*
X3078729Y-38823448D01*
X3042991Y-38852778D01*
X3042989Y-38852779D01*
X2886467Y-38936443D01*
X2829853Y-38953616D01*
X2716627Y-38987963D01*
X2650443Y-38994481D01*
X2584260Y-39001000D01*
X2495740Y-39001000D01*
X2429557Y-38994481D01*
X2363373Y-38987963D01*
X2250147Y-38953616D01*
X2193533Y-38936443D01*
X2037011Y-38852779D01*
X2037009Y-38852778D01*
X2001271Y-38823448D01*
X1899814Y-38740186D01*
X1816552Y-38638729D01*
X1787222Y-38602991D01*
X1777652Y-38585087D01*
X1703557Y-38446467D01*
X1686384Y-38389853D01*
X1652037Y-38276627D01*
X1634641Y-38100000D01*
X1652037Y-37923373D01*
X1703557Y-37753534D01*
X1703557Y-37753533D01*
X1787221Y-37597011D01*
X1787222Y-37597009D01*
X1816552Y-37561271D01*
X1899814Y-37459814D01*
X2003162Y-37375000D01*
X2037009Y-37347222D01*
X2060604Y-37334610D01*
X2193533Y-37263557D01*
X2250147Y-37246384D01*
X2363373Y-37212037D01*
X2429558Y-37205518D01*
X2495740Y-37199000D01*
X2584260Y-37199000D01*
X2650442Y-37205518D01*
X2650442Y-37205518D01*
G37*
G36*
X110442Y-37205518D02*
X176627Y-37212037D01*
X289853Y-37246384D01*
X346467Y-37263557D01*
X479396Y-37334610D01*
X502991Y-37347222D01*
X536838Y-37375000D01*
X640186Y-37459814D01*
X723448Y-37561271D01*
X752778Y-37597009D01*
X752779Y-37597011D01*
X836443Y-37753533D01*
X836443Y-37753534D01*
X887963Y-37923373D01*
X905359Y-38100000D01*
X887963Y-38276627D01*
X853616Y-38389853D01*
X836443Y-38446467D01*
X762348Y-38585087D01*
X752778Y-38602991D01*
X723448Y-38638729D01*
X640186Y-38740186D01*
X538729Y-38823448D01*
X502991Y-38852778D01*
X502989Y-38852779D01*
X346467Y-38936443D01*
X289853Y-38953616D01*
X176627Y-38987963D01*
X110443Y-38994481D01*
X44260Y-39001000D01*
X-44260Y-39001000D01*
X-110443Y-38994481D01*
X-176627Y-38987963D01*
X-289853Y-38953616D01*
X-346467Y-38936443D01*
X-502989Y-38852779D01*
X-502991Y-38852778D01*
X-538729Y-38823448D01*
X-640186Y-38740186D01*
X-723448Y-38638729D01*
X-752778Y-38602991D01*
X-762348Y-38585087D01*
X-836443Y-38446467D01*
X-853616Y-38389853D01*
X-887963Y-38276627D01*
X-905359Y-38100000D01*
X-887963Y-37923373D01*
X-836443Y-37753534D01*
X-836443Y-37753533D01*
X-752779Y-37597011D01*
X-752778Y-37597009D01*
X-723448Y-37561271D01*
X-640186Y-37459814D01*
X-536838Y-37375000D01*
X-502991Y-37347222D01*
X-479396Y-37334610D01*
X-346467Y-37263557D01*
X-289853Y-37246384D01*
X-176627Y-37212037D01*
X-110442Y-37205518D01*
X-44260Y-37199000D01*
X44260Y-37199000D01*
X110442Y-37205518D01*
X110442Y-37205518D01*
G37*
G36*
X52504565Y-35313389D02*
X52695834Y-35392615D01*
X52867976Y-35507637D01*
X53014363Y-35654024D01*
X53129385Y-35826166D01*
X53208611Y-36017435D01*
X53249000Y-36220484D01*
X53249000Y-36427516D01*
X53208611Y-36630565D01*
X53129385Y-36821834D01*
X53014363Y-36993976D01*
X52867976Y-37140363D01*
X52695834Y-37255385D01*
X52504565Y-37334611D01*
X52301516Y-37375000D01*
X52094484Y-37375000D01*
X51891435Y-37334611D01*
X51700166Y-37255385D01*
X51528024Y-37140363D01*
X51381637Y-36993976D01*
X51266615Y-36821834D01*
X51187389Y-36630565D01*
X51147000Y-36427516D01*
X51147000Y-36220484D01*
X51187389Y-36017435D01*
X51266615Y-35826166D01*
X51381637Y-35654024D01*
X51528024Y-35507637D01*
X51700166Y-35392615D01*
X51891435Y-35313389D01*
X52094484Y-35273000D01*
X52301516Y-35273000D01*
X52504565Y-35313389D01*
X52504565Y-35313389D01*
G37*
G36*
X2650443Y-34665519D02*
X2716627Y-34672037D01*
X2829853Y-34706384D01*
X2886467Y-34723557D01*
X3025087Y-34797652D01*
X3042991Y-34807222D01*
X3078729Y-34836552D01*
X3180186Y-34919814D01*
X3263448Y-35021271D01*
X3292778Y-35057009D01*
X3292779Y-35057011D01*
X3376443Y-35213533D01*
X3376443Y-35213534D01*
X3427963Y-35383373D01*
X3445359Y-35560000D01*
X3427963Y-35736627D01*
X3401392Y-35824219D01*
X3376443Y-35906467D01*
X3317128Y-36017435D01*
X3292778Y-36062991D01*
X3263448Y-36098729D01*
X3180186Y-36200186D01*
X3078729Y-36283448D01*
X3042991Y-36312778D01*
X3042989Y-36312779D01*
X2886467Y-36396443D01*
X2829853Y-36413616D01*
X2716627Y-36447963D01*
X2650442Y-36454482D01*
X2584260Y-36461000D01*
X2495740Y-36461000D01*
X2429558Y-36454482D01*
X2363373Y-36447963D01*
X2250147Y-36413616D01*
X2193533Y-36396443D01*
X2037011Y-36312779D01*
X2037009Y-36312778D01*
X2001271Y-36283448D01*
X1899814Y-36200186D01*
X1816552Y-36098729D01*
X1787222Y-36062991D01*
X1762872Y-36017435D01*
X1703557Y-35906467D01*
X1678608Y-35824219D01*
X1652037Y-35736627D01*
X1634641Y-35560000D01*
X1652037Y-35383373D01*
X1703557Y-35213534D01*
X1703557Y-35213533D01*
X1787221Y-35057011D01*
X1787222Y-35057009D01*
X1816552Y-35021271D01*
X1899814Y-34919814D01*
X2001271Y-34836552D01*
X2037009Y-34807222D01*
X2054913Y-34797652D01*
X2193533Y-34723557D01*
X2250147Y-34706384D01*
X2363373Y-34672037D01*
X2429557Y-34665519D01*
X2495740Y-34659000D01*
X2584260Y-34659000D01*
X2650443Y-34665519D01*
X2650443Y-34665519D01*
G37*
G36*
X110443Y-34665519D02*
X176627Y-34672037D01*
X289853Y-34706384D01*
X346467Y-34723557D01*
X485087Y-34797652D01*
X502991Y-34807222D01*
X538729Y-34836552D01*
X640186Y-34919814D01*
X723448Y-35021271D01*
X752778Y-35057009D01*
X752779Y-35057011D01*
X836443Y-35213533D01*
X836443Y-35213534D01*
X887963Y-35383373D01*
X905359Y-35560000D01*
X887963Y-35736627D01*
X861392Y-35824219D01*
X836443Y-35906467D01*
X777128Y-36017435D01*
X752778Y-36062991D01*
X723448Y-36098729D01*
X640186Y-36200186D01*
X538729Y-36283448D01*
X502991Y-36312778D01*
X502989Y-36312779D01*
X346467Y-36396443D01*
X289853Y-36413616D01*
X176627Y-36447963D01*
X110442Y-36454482D01*
X44260Y-36461000D01*
X-44260Y-36461000D01*
X-110442Y-36454482D01*
X-176627Y-36447963D01*
X-289853Y-36413616D01*
X-346467Y-36396443D01*
X-502989Y-36312779D01*
X-502991Y-36312778D01*
X-538729Y-36283448D01*
X-640186Y-36200186D01*
X-723448Y-36098729D01*
X-752778Y-36062991D01*
X-777128Y-36017435D01*
X-836443Y-35906467D01*
X-861392Y-35824219D01*
X-887963Y-35736627D01*
X-905359Y-35560000D01*
X-887963Y-35383373D01*
X-836443Y-35213534D01*
X-836443Y-35213533D01*
X-752779Y-35057011D01*
X-752778Y-35057009D01*
X-723448Y-35021271D01*
X-640186Y-34919814D01*
X-538729Y-34836552D01*
X-502991Y-34807222D01*
X-485087Y-34797652D01*
X-346467Y-34723557D01*
X-289853Y-34706384D01*
X-176627Y-34672037D01*
X-110443Y-34665519D01*
X-44260Y-34659000D01*
X44260Y-34659000D01*
X110443Y-34665519D01*
X110443Y-34665519D01*
G37*
G36*
X56116871Y-32932408D02*
X56421883Y-33058748D01*
X56548597Y-33143416D01*
X56696390Y-33242168D01*
X56929832Y-33475610D01*
X56929834Y-33475613D01*
X57113252Y-33750117D01*
X57239592Y-34055129D01*
X57304000Y-34378928D01*
X57304000Y-34709072D01*
X57239592Y-35032871D01*
X57113252Y-35337883D01*
X56999827Y-35507635D01*
X56929832Y-35612390D01*
X56696390Y-35845832D01*
X56696387Y-35845834D01*
X56421883Y-36029252D01*
X56116871Y-36155592D01*
X55793072Y-36220000D01*
X55462928Y-36220000D01*
X55139129Y-36155592D01*
X54834117Y-36029252D01*
X54559613Y-35845834D01*
X54559610Y-35845832D01*
X54326168Y-35612390D01*
X54256173Y-35507635D01*
X54142748Y-35337883D01*
X54016408Y-35032871D01*
X53952000Y-34709072D01*
X53952000Y-34378928D01*
X54016408Y-34055129D01*
X54142748Y-33750117D01*
X54326166Y-33475613D01*
X54326168Y-33475610D01*
X54559610Y-33242168D01*
X54707403Y-33143416D01*
X54834117Y-33058748D01*
X55139129Y-32932408D01*
X55462928Y-32868000D01*
X55793072Y-32868000D01*
X56116871Y-32932408D01*
X56116871Y-32932408D01*
G37*
G36*
X46721643Y-34283781D02*
X46867415Y-34344162D01*
X46998611Y-34431824D01*
X47110176Y-34543389D01*
X47197838Y-34674585D01*
X47258219Y-34820357D01*
X47289000Y-34975107D01*
X47289000Y-35132893D01*
X47258219Y-35287643D01*
X47197838Y-35433415D01*
X47110176Y-35564611D01*
X46998611Y-35676176D01*
X46867415Y-35763838D01*
X46721643Y-35824219D01*
X46566893Y-35855000D01*
X46409107Y-35855000D01*
X46254357Y-35824219D01*
X46108585Y-35763838D01*
X45977389Y-35676176D01*
X45865824Y-35564611D01*
X45778162Y-35433415D01*
X45717781Y-35287643D01*
X45687000Y-35132893D01*
X45687000Y-34975107D01*
X45717781Y-34820357D01*
X45778162Y-34674585D01*
X45865824Y-34543389D01*
X45977389Y-34431824D01*
X46108585Y-34344162D01*
X46254357Y-34283781D01*
X46409107Y-34253000D01*
X46566893Y-34253000D01*
X46721643Y-34283781D01*
X46721643Y-34283781D01*
G37*
G36*
X2650443Y-32125519D02*
X2716627Y-32132037D01*
X2829853Y-32166384D01*
X2886467Y-32183557D01*
X3017117Y-32253392D01*
X3042991Y-32267222D01*
X3064179Y-32284611D01*
X3180186Y-32379814D01*
X3263448Y-32481271D01*
X3292778Y-32517009D01*
X3292779Y-32517011D01*
X3376443Y-32673533D01*
X3376443Y-32673534D01*
X3427963Y-32843373D01*
X3445359Y-33020000D01*
X3427963Y-33196627D01*
X3414149Y-33242166D01*
X3376443Y-33366467D01*
X3365908Y-33386176D01*
X3292778Y-33522991D01*
X3283564Y-33534218D01*
X3180186Y-33660186D01*
X3078729Y-33743448D01*
X3042991Y-33772778D01*
X3042989Y-33772779D01*
X2886467Y-33856443D01*
X2829853Y-33873616D01*
X2716627Y-33907963D01*
X2650443Y-33914481D01*
X2584260Y-33921000D01*
X2495740Y-33921000D01*
X2429557Y-33914481D01*
X2363373Y-33907963D01*
X2250147Y-33873616D01*
X2193533Y-33856443D01*
X2037011Y-33772779D01*
X2037009Y-33772778D01*
X2001271Y-33743448D01*
X1899814Y-33660186D01*
X1796436Y-33534218D01*
X1787222Y-33522991D01*
X1714092Y-33386176D01*
X1703557Y-33366467D01*
X1665851Y-33242166D01*
X1652037Y-33196627D01*
X1634641Y-33020000D01*
X1652037Y-32843373D01*
X1703557Y-32673534D01*
X1703557Y-32673533D01*
X1787221Y-32517011D01*
X1787222Y-32517009D01*
X1816552Y-32481271D01*
X1899814Y-32379814D01*
X2015821Y-32284611D01*
X2037009Y-32267222D01*
X2062883Y-32253392D01*
X2193533Y-32183557D01*
X2250147Y-32166384D01*
X2363373Y-32132037D01*
X2429557Y-32125519D01*
X2495740Y-32119000D01*
X2584260Y-32119000D01*
X2650443Y-32125519D01*
X2650443Y-32125519D01*
G37*
G36*
X110443Y-32125519D02*
X176627Y-32132037D01*
X289853Y-32166384D01*
X346467Y-32183557D01*
X477117Y-32253392D01*
X502991Y-32267222D01*
X524179Y-32284611D01*
X640186Y-32379814D01*
X723448Y-32481271D01*
X752778Y-32517009D01*
X752779Y-32517011D01*
X836443Y-32673533D01*
X836443Y-32673534D01*
X887963Y-32843373D01*
X905359Y-33020000D01*
X887963Y-33196627D01*
X874149Y-33242166D01*
X836443Y-33366467D01*
X825908Y-33386176D01*
X752778Y-33522991D01*
X743564Y-33534218D01*
X640186Y-33660186D01*
X538729Y-33743448D01*
X502991Y-33772778D01*
X502989Y-33772779D01*
X346467Y-33856443D01*
X289853Y-33873616D01*
X176627Y-33907963D01*
X110443Y-33914481D01*
X44260Y-33921000D01*
X-44260Y-33921000D01*
X-110443Y-33914481D01*
X-176627Y-33907963D01*
X-289853Y-33873616D01*
X-346467Y-33856443D01*
X-502989Y-33772779D01*
X-502991Y-33772778D01*
X-538729Y-33743448D01*
X-640186Y-33660186D01*
X-743564Y-33534218D01*
X-752778Y-33522991D01*
X-825908Y-33386176D01*
X-836443Y-33366467D01*
X-874149Y-33242166D01*
X-887963Y-33196627D01*
X-905359Y-33020000D01*
X-887963Y-32843373D01*
X-836443Y-32673534D01*
X-836443Y-32673533D01*
X-752779Y-32517011D01*
X-752778Y-32517009D01*
X-723448Y-32481271D01*
X-640186Y-32379814D01*
X-524179Y-32284611D01*
X-502991Y-32267222D01*
X-477117Y-32253392D01*
X-346467Y-32183557D01*
X-289853Y-32166384D01*
X-176627Y-32132037D01*
X-110443Y-32125519D01*
X-44260Y-32119000D01*
X44260Y-32119000D01*
X110443Y-32125519D01*
X110443Y-32125519D01*
G37*
G36*
X46721643Y-31993781D02*
X46867415Y-32054162D01*
X46998611Y-32141824D01*
X47110176Y-32253389D01*
X47197838Y-32384585D01*
X47258219Y-32530357D01*
X47289000Y-32685107D01*
X47289000Y-32842893D01*
X47258219Y-32997643D01*
X47197838Y-33143415D01*
X47110176Y-33274611D01*
X46998611Y-33386176D01*
X46867415Y-33473838D01*
X46721643Y-33534219D01*
X46566893Y-33565000D01*
X46409107Y-33565000D01*
X46254357Y-33534219D01*
X46108585Y-33473838D01*
X45977389Y-33386176D01*
X45865824Y-33274611D01*
X45778162Y-33143415D01*
X45717781Y-32997643D01*
X45687000Y-32842893D01*
X45687000Y-32685107D01*
X45717781Y-32530357D01*
X45778162Y-32384585D01*
X45865824Y-32253389D01*
X45977389Y-32141824D01*
X46108585Y-32054162D01*
X46254357Y-31993781D01*
X46409107Y-31963000D01*
X46566893Y-31963000D01*
X46721643Y-31993781D01*
X46721643Y-31993781D01*
G37*
G36*
X51541643Y-31003781D02*
X51687415Y-31064162D01*
X51818611Y-31151824D01*
X51930176Y-31263389D01*
X52017838Y-31394585D01*
X52078219Y-31540357D01*
X52109000Y-31695107D01*
X52109000Y-31852893D01*
X52078219Y-32007643D01*
X52017838Y-32153415D01*
X51930176Y-32284611D01*
X51818611Y-32396176D01*
X51687415Y-32483838D01*
X51541643Y-32544219D01*
X51386893Y-32575000D01*
X51229107Y-32575000D01*
X51074357Y-32544219D01*
X50928585Y-32483838D01*
X50797389Y-32396176D01*
X50685824Y-32284611D01*
X50598162Y-32153415D01*
X50537781Y-32007643D01*
X50507000Y-31852893D01*
X50507000Y-31695107D01*
X50537781Y-31540357D01*
X50598162Y-31394585D01*
X50685824Y-31263389D01*
X50797389Y-31151824D01*
X50928585Y-31064162D01*
X51074357Y-31003781D01*
X51229107Y-30973000D01*
X51386893Y-30973000D01*
X51541643Y-31003781D01*
X51541643Y-31003781D01*
G37*
G36*
X53321643Y-29983781D02*
X53467415Y-30044162D01*
X53598611Y-30131824D01*
X53710176Y-30243389D01*
X53797838Y-30374585D01*
X53858219Y-30520357D01*
X53889000Y-30675107D01*
X53889000Y-30832893D01*
X53858219Y-30987643D01*
X53797838Y-31133415D01*
X53710176Y-31264611D01*
X53598611Y-31376176D01*
X53467415Y-31463838D01*
X53321643Y-31524219D01*
X53166893Y-31555000D01*
X53009107Y-31555000D01*
X52854357Y-31524219D01*
X52708585Y-31463838D01*
X52577389Y-31376176D01*
X52465824Y-31264611D01*
X52378162Y-31133415D01*
X52317781Y-30987643D01*
X52287000Y-30832893D01*
X52287000Y-30675107D01*
X52317781Y-30520357D01*
X52378162Y-30374585D01*
X52465824Y-30243389D01*
X52577389Y-30131824D01*
X52708585Y-30044162D01*
X52854357Y-29983781D01*
X53009107Y-29953000D01*
X53166893Y-29953000D01*
X53321643Y-29983781D01*
X53321643Y-29983781D01*
G37*
G36*
X110443Y-29585519D02*
X176627Y-29592037D01*
X289853Y-29626384D01*
X346467Y-29643557D01*
X485087Y-29717652D01*
X502991Y-29727222D01*
X538729Y-29756552D01*
X640186Y-29839814D01*
X723448Y-29941271D01*
X752778Y-29977009D01*
X752779Y-29977011D01*
X836443Y-30133533D01*
X836443Y-30133534D01*
X887963Y-30303373D01*
X905359Y-30480000D01*
X887963Y-30656627D01*
X853616Y-30769853D01*
X836443Y-30826467D01*
X833008Y-30832893D01*
X752778Y-30982991D01*
X748960Y-30987643D01*
X640186Y-31120186D01*
X538729Y-31203448D01*
X502991Y-31232778D01*
X502989Y-31232779D01*
X346467Y-31316443D01*
X289853Y-31333616D01*
X176627Y-31367963D01*
X110443Y-31374481D01*
X44260Y-31381000D01*
X-44260Y-31381000D01*
X-110443Y-31374481D01*
X-176627Y-31367963D01*
X-289853Y-31333616D01*
X-346467Y-31316443D01*
X-502989Y-31232779D01*
X-502991Y-31232778D01*
X-538729Y-31203448D01*
X-640186Y-31120186D01*
X-748960Y-30987643D01*
X-752778Y-30982991D01*
X-833008Y-30832893D01*
X-836443Y-30826467D01*
X-853616Y-30769853D01*
X-887963Y-30656627D01*
X-905359Y-30480000D01*
X-887963Y-30303373D01*
X-836443Y-30133534D01*
X-836443Y-30133533D01*
X-752779Y-29977011D01*
X-752778Y-29977009D01*
X-723448Y-29941271D01*
X-640186Y-29839814D01*
X-538729Y-29756552D01*
X-502991Y-29727222D01*
X-485087Y-29717652D01*
X-346467Y-29643557D01*
X-289853Y-29626384D01*
X-176627Y-29592037D01*
X-110443Y-29585519D01*
X-44260Y-29579000D01*
X44260Y-29579000D01*
X110443Y-29585519D01*
X110443Y-29585519D01*
G37*
G36*
X2650443Y-29585519D02*
X2716627Y-29592037D01*
X2829853Y-29626384D01*
X2886467Y-29643557D01*
X3025087Y-29717652D01*
X3042991Y-29727222D01*
X3078729Y-29756552D01*
X3180186Y-29839814D01*
X3263448Y-29941271D01*
X3292778Y-29977009D01*
X3292779Y-29977011D01*
X3376443Y-30133533D01*
X3376443Y-30133534D01*
X3427963Y-30303373D01*
X3445359Y-30480000D01*
X3427963Y-30656627D01*
X3393616Y-30769853D01*
X3376443Y-30826467D01*
X3373008Y-30832893D01*
X3292778Y-30982991D01*
X3288960Y-30987643D01*
X3180186Y-31120186D01*
X3078729Y-31203448D01*
X3042991Y-31232778D01*
X3042989Y-31232779D01*
X2886467Y-31316443D01*
X2829853Y-31333616D01*
X2716627Y-31367963D01*
X2650443Y-31374481D01*
X2584260Y-31381000D01*
X2495740Y-31381000D01*
X2429557Y-31374481D01*
X2363373Y-31367963D01*
X2250147Y-31333616D01*
X2193533Y-31316443D01*
X2037011Y-31232779D01*
X2037009Y-31232778D01*
X2001271Y-31203448D01*
X1899814Y-31120186D01*
X1791040Y-30987643D01*
X1787222Y-30982991D01*
X1706992Y-30832893D01*
X1703557Y-30826467D01*
X1686384Y-30769853D01*
X1652037Y-30656627D01*
X1634641Y-30480000D01*
X1652037Y-30303373D01*
X1703557Y-30133534D01*
X1703557Y-30133533D01*
X1787221Y-29977011D01*
X1787222Y-29977009D01*
X1816552Y-29941271D01*
X1899814Y-29839814D01*
X2001271Y-29756552D01*
X2037009Y-29727222D01*
X2054913Y-29717652D01*
X2193533Y-29643557D01*
X2250147Y-29626384D01*
X2363373Y-29592037D01*
X2429557Y-29585519D01*
X2495740Y-29579000D01*
X2584260Y-29579000D01*
X2650443Y-29585519D01*
X2650443Y-29585519D01*
G37*
G36*
X51541643Y-28963781D02*
X51687415Y-29024162D01*
X51818611Y-29111824D01*
X51930176Y-29223389D01*
X52017838Y-29354585D01*
X52078219Y-29500357D01*
X52109000Y-29655107D01*
X52109000Y-29812893D01*
X52078219Y-29967643D01*
X52017838Y-30113415D01*
X51930176Y-30244611D01*
X51818611Y-30356176D01*
X51687415Y-30443838D01*
X51541643Y-30504219D01*
X51386893Y-30535000D01*
X51229107Y-30535000D01*
X51074357Y-30504219D01*
X50928585Y-30443838D01*
X50797389Y-30356176D01*
X50685824Y-30244611D01*
X50598162Y-30113415D01*
X50537781Y-29967643D01*
X50507000Y-29812893D01*
X50507000Y-29655107D01*
X50537781Y-29500357D01*
X50598162Y-29354585D01*
X50685824Y-29223389D01*
X50797389Y-29111824D01*
X50928585Y-29024162D01*
X51074357Y-28963781D01*
X51229107Y-28933000D01*
X51386893Y-28933000D01*
X51541643Y-28963781D01*
X51541643Y-28963781D01*
G37*
G36*
X53321643Y-27943781D02*
X53467415Y-28004162D01*
X53598611Y-28091824D01*
X53710176Y-28203389D01*
X53797838Y-28334585D01*
X53858219Y-28480357D01*
X53889000Y-28635107D01*
X53889000Y-28792893D01*
X53858219Y-28947643D01*
X53797838Y-29093415D01*
X53710176Y-29224611D01*
X53598611Y-29336176D01*
X53467415Y-29423838D01*
X53321643Y-29484219D01*
X53166893Y-29515000D01*
X53009107Y-29515000D01*
X52854357Y-29484219D01*
X52708585Y-29423838D01*
X52577389Y-29336176D01*
X52465824Y-29224611D01*
X52378162Y-29093415D01*
X52317781Y-28947643D01*
X52287000Y-28792893D01*
X52287000Y-28635107D01*
X52317781Y-28480357D01*
X52378162Y-28334585D01*
X52465824Y-28203389D01*
X52577389Y-28091824D01*
X52708585Y-28004162D01*
X52854357Y-27943781D01*
X53009107Y-27913000D01*
X53166893Y-27913000D01*
X53321643Y-27943781D01*
X53321643Y-27943781D01*
G37*
G36*
X2650443Y-27045519D02*
X2716627Y-27052037D01*
X2829853Y-27086384D01*
X2886467Y-27103557D01*
X3025087Y-27177652D01*
X3042991Y-27187222D01*
X3078729Y-27216552D01*
X3180186Y-27299814D01*
X3263448Y-27401271D01*
X3292778Y-27437009D01*
X3292779Y-27437011D01*
X3376443Y-27593533D01*
X3393616Y-27650147D01*
X3427963Y-27763373D01*
X3445359Y-27940000D01*
X3427963Y-28116627D01*
X3401644Y-28203389D01*
X3376443Y-28286467D01*
X3350723Y-28334585D01*
X3292778Y-28442991D01*
X3263448Y-28478729D01*
X3180186Y-28580186D01*
X3113262Y-28635108D01*
X3042991Y-28692778D01*
X3042989Y-28692779D01*
X2886467Y-28776443D01*
X2832241Y-28792892D01*
X2716627Y-28827963D01*
X2650442Y-28834482D01*
X2584260Y-28841000D01*
X2495740Y-28841000D01*
X2429558Y-28834482D01*
X2363373Y-28827963D01*
X2247759Y-28792892D01*
X2193533Y-28776443D01*
X2037011Y-28692779D01*
X2037009Y-28692778D01*
X1966738Y-28635108D01*
X1899814Y-28580186D01*
X1816552Y-28478729D01*
X1787222Y-28442991D01*
X1729277Y-28334585D01*
X1703557Y-28286467D01*
X1678356Y-28203389D01*
X1652037Y-28116627D01*
X1634641Y-27940000D01*
X1652037Y-27763373D01*
X1686384Y-27650147D01*
X1703557Y-27593533D01*
X1787221Y-27437011D01*
X1787222Y-27437009D01*
X1816552Y-27401271D01*
X1899814Y-27299814D01*
X2001271Y-27216552D01*
X2037009Y-27187222D01*
X2054913Y-27177652D01*
X2193533Y-27103557D01*
X2250147Y-27086384D01*
X2363373Y-27052037D01*
X2429557Y-27045519D01*
X2495740Y-27039000D01*
X2584260Y-27039000D01*
X2650443Y-27045519D01*
X2650443Y-27045519D01*
G37*
G36*
X110443Y-27045519D02*
X176627Y-27052037D01*
X289853Y-27086384D01*
X346467Y-27103557D01*
X485087Y-27177652D01*
X502991Y-27187222D01*
X538729Y-27216552D01*
X640186Y-27299814D01*
X723448Y-27401271D01*
X752778Y-27437009D01*
X752779Y-27437011D01*
X836443Y-27593533D01*
X853616Y-27650147D01*
X887963Y-27763373D01*
X905359Y-27940000D01*
X887963Y-28116627D01*
X861644Y-28203389D01*
X836443Y-28286467D01*
X810723Y-28334585D01*
X752778Y-28442991D01*
X723448Y-28478729D01*
X640186Y-28580186D01*
X573262Y-28635108D01*
X502991Y-28692778D01*
X502989Y-28692779D01*
X346467Y-28776443D01*
X292241Y-28792892D01*
X176627Y-28827963D01*
X110442Y-28834482D01*
X44260Y-28841000D01*
X-44260Y-28841000D01*
X-110442Y-28834482D01*
X-176627Y-28827963D01*
X-292241Y-28792892D01*
X-346467Y-28776443D01*
X-502989Y-28692779D01*
X-502991Y-28692778D01*
X-573262Y-28635108D01*
X-640186Y-28580186D01*
X-723448Y-28478729D01*
X-752778Y-28442991D01*
X-810723Y-28334585D01*
X-836443Y-28286467D01*
X-861644Y-28203389D01*
X-887963Y-28116627D01*
X-905359Y-27940000D01*
X-887963Y-27763373D01*
X-853616Y-27650147D01*
X-836443Y-27593533D01*
X-752779Y-27437011D01*
X-752778Y-27437009D01*
X-723448Y-27401271D01*
X-640186Y-27299814D01*
X-538729Y-27216552D01*
X-502991Y-27187222D01*
X-485087Y-27177652D01*
X-346467Y-27103557D01*
X-289853Y-27086384D01*
X-176627Y-27052037D01*
X-110443Y-27045519D01*
X-44260Y-27039000D01*
X44260Y-27039000D01*
X110443Y-27045519D01*
X110443Y-27045519D01*
G37*
G36*
X51541643Y-26923781D02*
X51687415Y-26984162D01*
X51818611Y-27071824D01*
X51930176Y-27183389D01*
X52017838Y-27314585D01*
X52078219Y-27460357D01*
X52109000Y-27615107D01*
X52109000Y-27772893D01*
X52078219Y-27927643D01*
X52017838Y-28073415D01*
X51930176Y-28204611D01*
X51818611Y-28316176D01*
X51687415Y-28403838D01*
X51541643Y-28464219D01*
X51386893Y-28495000D01*
X51229107Y-28495000D01*
X51074357Y-28464219D01*
X50928585Y-28403838D01*
X50797389Y-28316176D01*
X50685824Y-28204611D01*
X50598162Y-28073415D01*
X50537781Y-27927643D01*
X50507000Y-27772893D01*
X50507000Y-27615107D01*
X50537781Y-27460357D01*
X50598162Y-27314585D01*
X50685824Y-27183389D01*
X50797389Y-27071824D01*
X50928585Y-26984162D01*
X51074357Y-26923781D01*
X51229107Y-26893000D01*
X51386893Y-26893000D01*
X51541643Y-26923781D01*
X51541643Y-26923781D01*
G37*
G36*
X53321643Y-25903781D02*
X53467415Y-25964162D01*
X53598611Y-26051824D01*
X53710176Y-26163389D01*
X53797838Y-26294585D01*
X53858219Y-26440357D01*
X53889000Y-26595107D01*
X53889000Y-26752893D01*
X53858219Y-26907643D01*
X53797838Y-27053415D01*
X53710176Y-27184611D01*
X53598611Y-27296176D01*
X53467415Y-27383838D01*
X53321643Y-27444219D01*
X53166893Y-27475000D01*
X53009107Y-27475000D01*
X52854357Y-27444219D01*
X52708585Y-27383838D01*
X52577389Y-27296176D01*
X52465824Y-27184611D01*
X52378162Y-27053415D01*
X52317781Y-26907643D01*
X52287000Y-26752893D01*
X52287000Y-26595107D01*
X52317781Y-26440357D01*
X52378162Y-26294585D01*
X52465824Y-26163389D01*
X52577389Y-26051824D01*
X52708585Y-25964162D01*
X52854357Y-25903781D01*
X53009107Y-25873000D01*
X53166893Y-25873000D01*
X53321643Y-25903781D01*
X53321643Y-25903781D01*
G37*
G36*
X53889000Y-25435000D02*
X52233444Y-25435000D01*
X52209058Y-25437402D01*
X52185609Y-25444515D01*
X52163998Y-25456066D01*
X52145056Y-25471612D01*
X52129510Y-25490554D01*
X52117959Y-25512165D01*
X52110846Y-25535614D01*
X52108444Y-25560000D01*
X52109000Y-25565648D01*
X52109000Y-25732893D01*
X52078219Y-25887643D01*
X52017838Y-26033415D01*
X51930176Y-26164611D01*
X51818611Y-26276176D01*
X51687415Y-26363838D01*
X51541643Y-26424219D01*
X51386893Y-26455000D01*
X51229107Y-26455000D01*
X51074357Y-26424219D01*
X50928585Y-26363838D01*
X50797389Y-26276176D01*
X50685824Y-26164611D01*
X50598162Y-26033415D01*
X50537781Y-25887643D01*
X50507000Y-25732893D01*
X50507000Y-25575107D01*
X50537781Y-25420357D01*
X50598162Y-25274585D01*
X50685824Y-25143389D01*
X50797389Y-25031824D01*
X50928585Y-24944162D01*
X51074357Y-24883781D01*
X51229107Y-24853000D01*
X51386893Y-24853000D01*
X51541643Y-24883781D01*
X51687415Y-24944162D01*
X51818611Y-25031824D01*
X51930176Y-25143389D01*
X52017837Y-25274583D01*
X52046515Y-25343818D01*
X52058066Y-25365428D01*
X52073612Y-25384370D01*
X52092554Y-25399916D01*
X52114165Y-25411467D01*
X52137614Y-25418580D01*
X52162000Y-25420982D01*
X52186386Y-25418580D01*
X52209836Y-25411467D01*
X52231446Y-25399916D01*
X52250388Y-25384370D01*
X52265934Y-25365428D01*
X52277485Y-25343817D01*
X52284598Y-25320368D01*
X52287000Y-25295982D01*
X52287000Y-23833000D01*
X53889000Y-23833000D01*
X53889000Y-25435000D01*
X53889000Y-25435000D01*
G37*
G36*
X2650442Y-24505518D02*
X2716627Y-24512037D01*
X2829853Y-24546384D01*
X2886467Y-24563557D01*
X3025087Y-24637652D01*
X3042991Y-24647222D01*
X3078729Y-24676552D01*
X3180186Y-24759814D01*
X3263448Y-24861271D01*
X3292778Y-24897009D01*
X3292779Y-24897011D01*
X3376443Y-25053533D01*
X3376443Y-25053534D01*
X3427963Y-25223373D01*
X3445359Y-25400000D01*
X3427963Y-25576627D01*
X3393616Y-25689853D01*
X3376443Y-25746467D01*
X3308809Y-25873000D01*
X3292778Y-25902991D01*
X3263448Y-25938729D01*
X3180186Y-26040186D01*
X3078729Y-26123448D01*
X3042991Y-26152778D01*
X3042989Y-26152779D01*
X2886467Y-26236443D01*
X2829853Y-26253616D01*
X2716627Y-26287963D01*
X2650443Y-26294481D01*
X2584260Y-26301000D01*
X2495740Y-26301000D01*
X2429557Y-26294481D01*
X2363373Y-26287963D01*
X2250147Y-26253616D01*
X2193533Y-26236443D01*
X2037011Y-26152779D01*
X2037009Y-26152778D01*
X2001271Y-26123448D01*
X1899814Y-26040186D01*
X1816552Y-25938729D01*
X1787222Y-25902991D01*
X1771191Y-25873000D01*
X1703557Y-25746467D01*
X1686384Y-25689853D01*
X1652037Y-25576627D01*
X1634641Y-25400000D01*
X1652037Y-25223373D01*
X1703557Y-25053534D01*
X1703557Y-25053533D01*
X1787221Y-24897011D01*
X1787222Y-24897009D01*
X1816552Y-24861271D01*
X1899814Y-24759814D01*
X2001271Y-24676552D01*
X2037009Y-24647222D01*
X2054913Y-24637652D01*
X2193533Y-24563557D01*
X2250147Y-24546384D01*
X2363373Y-24512037D01*
X2429558Y-24505518D01*
X2495740Y-24499000D01*
X2584260Y-24499000D01*
X2650442Y-24505518D01*
X2650442Y-24505518D01*
G37*
G36*
X110442Y-24505518D02*
X176627Y-24512037D01*
X289853Y-24546384D01*
X346467Y-24563557D01*
X485087Y-24637652D01*
X502991Y-24647222D01*
X538729Y-24676552D01*
X640186Y-24759814D01*
X723448Y-24861271D01*
X752778Y-24897009D01*
X752779Y-24897011D01*
X836443Y-25053533D01*
X836443Y-25053534D01*
X887963Y-25223373D01*
X905359Y-25400000D01*
X887963Y-25576627D01*
X853616Y-25689853D01*
X836443Y-25746467D01*
X768809Y-25873000D01*
X752778Y-25902991D01*
X723448Y-25938729D01*
X640186Y-26040186D01*
X538729Y-26123448D01*
X502991Y-26152778D01*
X502989Y-26152779D01*
X346467Y-26236443D01*
X289853Y-26253616D01*
X176627Y-26287963D01*
X110443Y-26294481D01*
X44260Y-26301000D01*
X-44260Y-26301000D01*
X-110443Y-26294481D01*
X-176627Y-26287963D01*
X-289853Y-26253616D01*
X-346467Y-26236443D01*
X-502989Y-26152779D01*
X-502991Y-26152778D01*
X-538729Y-26123448D01*
X-640186Y-26040186D01*
X-723448Y-25938729D01*
X-752778Y-25902991D01*
X-768809Y-25873000D01*
X-836443Y-25746467D01*
X-853616Y-25689853D01*
X-887963Y-25576627D01*
X-905359Y-25400000D01*
X-887963Y-25223373D01*
X-836443Y-25053534D01*
X-836443Y-25053533D01*
X-752779Y-24897011D01*
X-752778Y-24897009D01*
X-723448Y-24861271D01*
X-640186Y-24759814D01*
X-538729Y-24676552D01*
X-502991Y-24647222D01*
X-485087Y-24637652D01*
X-346467Y-24563557D01*
X-289853Y-24546384D01*
X-176627Y-24512037D01*
X-110442Y-24505518D01*
X-44260Y-24499000D01*
X44260Y-24499000D01*
X110442Y-24505518D01*
X110442Y-24505518D01*
G37*
G36*
X46721643Y-22853781D02*
X46867415Y-22914162D01*
X46998611Y-23001824D01*
X47110176Y-23113389D01*
X47197838Y-23244585D01*
X47258219Y-23390357D01*
X47289000Y-23545107D01*
X47289000Y-23702893D01*
X47258219Y-23857643D01*
X47197838Y-24003415D01*
X47110176Y-24134611D01*
X46998611Y-24246176D01*
X46867415Y-24333838D01*
X46721643Y-24394219D01*
X46566893Y-24425000D01*
X46409107Y-24425000D01*
X46254357Y-24394219D01*
X46108585Y-24333838D01*
X45977389Y-24246176D01*
X45865824Y-24134611D01*
X45778162Y-24003415D01*
X45717781Y-23857643D01*
X45687000Y-23702893D01*
X45687000Y-23545107D01*
X45717781Y-23390357D01*
X45778162Y-23244585D01*
X45865824Y-23113389D01*
X45977389Y-23001824D01*
X46108585Y-22914162D01*
X46254357Y-22853781D01*
X46409107Y-22823000D01*
X46566893Y-22823000D01*
X46721643Y-22853781D01*
X46721643Y-22853781D01*
G37*
G36*
X110443Y-21965519D02*
X176627Y-21972037D01*
X289853Y-22006384D01*
X346467Y-22023557D01*
X485087Y-22097652D01*
X502991Y-22107222D01*
X536838Y-22135000D01*
X640186Y-22219814D01*
X723448Y-22321271D01*
X752778Y-22357009D01*
X752779Y-22357011D01*
X836443Y-22513533D01*
X836443Y-22513534D01*
X887963Y-22683373D01*
X905359Y-22860000D01*
X887963Y-23036627D01*
X854836Y-23145832D01*
X836443Y-23206467D01*
X816068Y-23244585D01*
X752778Y-23362991D01*
X730319Y-23390357D01*
X640186Y-23500186D01*
X538729Y-23583448D01*
X502991Y-23612778D01*
X502989Y-23612779D01*
X346467Y-23696443D01*
X289853Y-23713616D01*
X176627Y-23747963D01*
X110442Y-23754482D01*
X44260Y-23761000D01*
X-44260Y-23761000D01*
X-110442Y-23754482D01*
X-176627Y-23747963D01*
X-289853Y-23713616D01*
X-346467Y-23696443D01*
X-502989Y-23612779D01*
X-502991Y-23612778D01*
X-538729Y-23583448D01*
X-640186Y-23500186D01*
X-730319Y-23390357D01*
X-752778Y-23362991D01*
X-816068Y-23244585D01*
X-836443Y-23206467D01*
X-854836Y-23145832D01*
X-887963Y-23036627D01*
X-905359Y-22860000D01*
X-887963Y-22683373D01*
X-836443Y-22513534D01*
X-836443Y-22513533D01*
X-752779Y-22357011D01*
X-752778Y-22357009D01*
X-723448Y-22321271D01*
X-640186Y-22219814D01*
X-536838Y-22135000D01*
X-502991Y-22107222D01*
X-485087Y-22097652D01*
X-346467Y-22023557D01*
X-289853Y-22006384D01*
X-176627Y-21972037D01*
X-110443Y-21965519D01*
X-44260Y-21959000D01*
X44260Y-21959000D01*
X110443Y-21965519D01*
X110443Y-21965519D01*
G37*
G36*
X3441000Y-23761000D02*
X1639000Y-23761000D01*
X1639000Y-21959000D01*
X3441000Y-21959000D01*
X3441000Y-23761000D01*
X3441000Y-23761000D01*
G37*
G36*
X56116871Y-20232408D02*
X56421883Y-20358748D01*
X56682669Y-20533000D01*
X56696390Y-20542168D01*
X56929832Y-20775610D01*
X56929834Y-20775613D01*
X57113252Y-21050117D01*
X57239592Y-21355129D01*
X57304000Y-21678928D01*
X57304000Y-22009072D01*
X57239592Y-22332871D01*
X57113252Y-22637883D01*
X56968993Y-22853781D01*
X56929832Y-22912390D01*
X56696390Y-23145832D01*
X56696387Y-23145834D01*
X56421883Y-23329252D01*
X56116871Y-23455592D01*
X55793072Y-23520000D01*
X55462928Y-23520000D01*
X55139129Y-23455592D01*
X54834117Y-23329252D01*
X54559613Y-23145834D01*
X54559610Y-23145832D01*
X54326168Y-22912390D01*
X54287007Y-22853781D01*
X54142748Y-22637883D01*
X54016408Y-22332871D01*
X53952000Y-22009072D01*
X53952000Y-21678928D01*
X54016408Y-21355129D01*
X54142748Y-21050117D01*
X54326166Y-20775613D01*
X54326168Y-20775610D01*
X54559610Y-20542168D01*
X54573331Y-20533000D01*
X54834117Y-20358748D01*
X55139129Y-20232408D01*
X55462928Y-20168000D01*
X55793072Y-20168000D01*
X56116871Y-20232408D01*
X56116871Y-20232408D01*
G37*
G36*
X46721643Y-20563781D02*
X46867415Y-20624162D01*
X46998611Y-20711824D01*
X47110176Y-20823389D01*
X47197838Y-20954585D01*
X47258219Y-21100357D01*
X47289000Y-21255107D01*
X47289000Y-21412893D01*
X47258219Y-21567643D01*
X47197838Y-21713415D01*
X47110176Y-21844611D01*
X46998611Y-21956176D01*
X46867415Y-22043838D01*
X46721643Y-22104219D01*
X46566893Y-22135000D01*
X46409107Y-22135000D01*
X46254357Y-22104219D01*
X46108585Y-22043838D01*
X45977389Y-21956176D01*
X45865824Y-21844611D01*
X45778162Y-21713415D01*
X45717781Y-21567643D01*
X45687000Y-21412893D01*
X45687000Y-21255107D01*
X45717781Y-21100357D01*
X45778162Y-20954585D01*
X45865824Y-20823389D01*
X45977389Y-20711824D01*
X46108585Y-20624162D01*
X46254357Y-20563781D01*
X46409107Y-20533000D01*
X46566893Y-20533000D01*
X46721643Y-20563781D01*
X46721643Y-20563781D01*
G37*
G36*
X52504565Y-19053389D02*
X52695834Y-19132615D01*
X52867976Y-19247637D01*
X53014363Y-19394024D01*
X53129385Y-19566166D01*
X53208611Y-19757435D01*
X53249000Y-19960484D01*
X53249000Y-20167516D01*
X53208611Y-20370565D01*
X53129385Y-20561834D01*
X53014363Y-20733976D01*
X52867976Y-20880363D01*
X52695834Y-20995385D01*
X52504565Y-21074611D01*
X52301516Y-21115000D01*
X52094484Y-21115000D01*
X51891435Y-21074611D01*
X51700166Y-20995385D01*
X51528024Y-20880363D01*
X51381637Y-20733976D01*
X51266615Y-20561834D01*
X51187389Y-20370565D01*
X51147000Y-20167516D01*
X51147000Y-19960484D01*
X51187389Y-19757435D01*
X51266615Y-19566166D01*
X51381637Y-19394024D01*
X51528024Y-19247637D01*
X51700166Y-19132615D01*
X51891435Y-19053389D01*
X52094484Y-19013000D01*
X52301516Y-19013000D01*
X52504565Y-19053389D01*
X52504565Y-19053389D01*
G37*
G36*
X2650443Y-16885519D02*
X2716627Y-16892037D01*
X2829853Y-16926384D01*
X2886467Y-16943557D01*
X3025087Y-17017652D01*
X3042991Y-17027222D01*
X3078729Y-17056552D01*
X3180186Y-17139814D01*
X3263448Y-17241271D01*
X3292778Y-17277009D01*
X3292779Y-17277011D01*
X3376443Y-17433533D01*
X3376443Y-17433534D01*
X3427963Y-17603373D01*
X3445359Y-17780000D01*
X3427963Y-17956627D01*
X3393616Y-18069853D01*
X3376443Y-18126467D01*
X3302348Y-18265087D01*
X3292778Y-18282991D01*
X3263448Y-18318729D01*
X3180186Y-18420186D01*
X3078729Y-18503448D01*
X3042991Y-18532778D01*
X3042989Y-18532779D01*
X2886467Y-18616443D01*
X2829853Y-18633616D01*
X2716627Y-18667963D01*
X2650443Y-18674481D01*
X2584260Y-18681000D01*
X2495740Y-18681000D01*
X2429557Y-18674481D01*
X2363373Y-18667963D01*
X2250147Y-18633616D01*
X2193533Y-18616443D01*
X2037011Y-18532779D01*
X2037009Y-18532778D01*
X2001271Y-18503448D01*
X1899814Y-18420186D01*
X1816552Y-18318729D01*
X1787222Y-18282991D01*
X1777652Y-18265087D01*
X1703557Y-18126467D01*
X1686384Y-18069853D01*
X1652037Y-17956627D01*
X1634641Y-17780000D01*
X1652037Y-17603373D01*
X1703557Y-17433534D01*
X1703557Y-17433533D01*
X1787221Y-17277011D01*
X1787222Y-17277009D01*
X1816552Y-17241271D01*
X1899814Y-17139814D01*
X2001271Y-17056552D01*
X2037009Y-17027222D01*
X2054913Y-17017652D01*
X2193533Y-16943557D01*
X2250147Y-16926384D01*
X2363373Y-16892037D01*
X2429557Y-16885519D01*
X2495740Y-16879000D01*
X2584260Y-16879000D01*
X2650443Y-16885519D01*
X2650443Y-16885519D01*
G37*
G36*
X110443Y-16885519D02*
X176627Y-16892037D01*
X289853Y-16926384D01*
X346467Y-16943557D01*
X485087Y-17017652D01*
X502991Y-17027222D01*
X538729Y-17056552D01*
X640186Y-17139814D01*
X723448Y-17241271D01*
X752778Y-17277009D01*
X752779Y-17277011D01*
X836443Y-17433533D01*
X836443Y-17433534D01*
X887963Y-17603373D01*
X905359Y-17780000D01*
X887963Y-17956627D01*
X853616Y-18069853D01*
X836443Y-18126467D01*
X762348Y-18265087D01*
X752778Y-18282991D01*
X723448Y-18318729D01*
X640186Y-18420186D01*
X538729Y-18503448D01*
X502991Y-18532778D01*
X502989Y-18532779D01*
X346467Y-18616443D01*
X289853Y-18633616D01*
X176627Y-18667963D01*
X110443Y-18674481D01*
X44260Y-18681000D01*
X-44260Y-18681000D01*
X-110443Y-18674481D01*
X-176627Y-18667963D01*
X-289853Y-18633616D01*
X-346467Y-18616443D01*
X-502989Y-18532779D01*
X-502991Y-18532778D01*
X-538729Y-18503448D01*
X-640186Y-18420186D01*
X-723448Y-18318729D01*
X-752778Y-18282991D01*
X-762348Y-18265087D01*
X-836443Y-18126467D01*
X-853616Y-18069853D01*
X-887963Y-17956627D01*
X-905359Y-17780000D01*
X-887963Y-17603373D01*
X-836443Y-17433534D01*
X-836443Y-17433533D01*
X-752779Y-17277011D01*
X-752778Y-17277009D01*
X-723448Y-17241271D01*
X-640186Y-17139814D01*
X-538729Y-17056552D01*
X-502991Y-17027222D01*
X-485087Y-17017652D01*
X-346467Y-16943557D01*
X-289853Y-16926384D01*
X-176627Y-16892037D01*
X-110443Y-16885519D01*
X-44260Y-16879000D01*
X44260Y-16879000D01*
X110443Y-16885519D01*
X110443Y-16885519D01*
G37*
G36*
X55990443Y-16885519D02*
X56056627Y-16892037D01*
X56169853Y-16926384D01*
X56226467Y-16943557D01*
X56365087Y-17017652D01*
X56382991Y-17027222D01*
X56418729Y-17056552D01*
X56520186Y-17139814D01*
X56603448Y-17241271D01*
X56632778Y-17277009D01*
X56632779Y-17277011D01*
X56716443Y-17433533D01*
X56716443Y-17433534D01*
X56767963Y-17603373D01*
X56785359Y-17780000D01*
X56767963Y-17956627D01*
X56733616Y-18069853D01*
X56716443Y-18126467D01*
X56642348Y-18265087D01*
X56632778Y-18282991D01*
X56603448Y-18318729D01*
X56520186Y-18420186D01*
X56418729Y-18503448D01*
X56382991Y-18532778D01*
X56382989Y-18532779D01*
X56226467Y-18616443D01*
X56169853Y-18633616D01*
X56056627Y-18667963D01*
X55990443Y-18674481D01*
X55924260Y-18681000D01*
X55835740Y-18681000D01*
X55769557Y-18674481D01*
X55703373Y-18667963D01*
X55590147Y-18633616D01*
X55533533Y-18616443D01*
X55377011Y-18532779D01*
X55377009Y-18532778D01*
X55341271Y-18503448D01*
X55239814Y-18420186D01*
X55156552Y-18318729D01*
X55127222Y-18282991D01*
X55117652Y-18265087D01*
X55043557Y-18126467D01*
X55026384Y-18069853D01*
X54992037Y-17956627D01*
X54974641Y-17780000D01*
X54992037Y-17603373D01*
X55043557Y-17433534D01*
X55043557Y-17433533D01*
X55127221Y-17277011D01*
X55127222Y-17277009D01*
X55156552Y-17241271D01*
X55239814Y-17139814D01*
X55341271Y-17056552D01*
X55377009Y-17027222D01*
X55394913Y-17017652D01*
X55533533Y-16943557D01*
X55590147Y-16926384D01*
X55703373Y-16892037D01*
X55769557Y-16885519D01*
X55835740Y-16879000D01*
X55924260Y-16879000D01*
X55990443Y-16885519D01*
X55990443Y-16885519D01*
G37*
G36*
X58530443Y-16885519D02*
X58596627Y-16892037D01*
X58709853Y-16926384D01*
X58766467Y-16943557D01*
X58905087Y-17017652D01*
X58922991Y-17027222D01*
X58958729Y-17056552D01*
X59060186Y-17139814D01*
X59143448Y-17241271D01*
X59172778Y-17277009D01*
X59172779Y-17277011D01*
X59256443Y-17433533D01*
X59256443Y-17433534D01*
X59307963Y-17603373D01*
X59325359Y-17780000D01*
X59307963Y-17956627D01*
X59273616Y-18069853D01*
X59256443Y-18126467D01*
X59182348Y-18265087D01*
X59172778Y-18282991D01*
X59143448Y-18318729D01*
X59060186Y-18420186D01*
X58958729Y-18503448D01*
X58922991Y-18532778D01*
X58922989Y-18532779D01*
X58766467Y-18616443D01*
X58709853Y-18633616D01*
X58596627Y-18667963D01*
X58530443Y-18674481D01*
X58464260Y-18681000D01*
X58375740Y-18681000D01*
X58309557Y-18674481D01*
X58243373Y-18667963D01*
X58130147Y-18633616D01*
X58073533Y-18616443D01*
X57917011Y-18532779D01*
X57917009Y-18532778D01*
X57881271Y-18503448D01*
X57779814Y-18420186D01*
X57696552Y-18318729D01*
X57667222Y-18282991D01*
X57657652Y-18265087D01*
X57583557Y-18126467D01*
X57566384Y-18069853D01*
X57532037Y-17956627D01*
X57514641Y-17780000D01*
X57532037Y-17603373D01*
X57583557Y-17433534D01*
X57583557Y-17433533D01*
X57667221Y-17277011D01*
X57667222Y-17277009D01*
X57696552Y-17241271D01*
X57779814Y-17139814D01*
X57881271Y-17056552D01*
X57917009Y-17027222D01*
X57934913Y-17017652D01*
X58073533Y-16943557D01*
X58130147Y-16926384D01*
X58243373Y-16892037D01*
X58309557Y-16885519D01*
X58375740Y-16879000D01*
X58464260Y-16879000D01*
X58530443Y-16885519D01*
X58530443Y-16885519D01*
G37*
G36*
X110443Y-14345519D02*
X176627Y-14352037D01*
X289853Y-14386384D01*
X346467Y-14403557D01*
X485087Y-14477652D01*
X502991Y-14487222D01*
X538729Y-14516552D01*
X640186Y-14599814D01*
X723448Y-14701271D01*
X752778Y-14737009D01*
X752779Y-14737011D01*
X836443Y-14893533D01*
X836443Y-14893534D01*
X887963Y-15063373D01*
X905359Y-15240000D01*
X887963Y-15416627D01*
X853616Y-15529853D01*
X836443Y-15586467D01*
X762348Y-15725087D01*
X752778Y-15742991D01*
X723448Y-15778729D01*
X640186Y-15880186D01*
X538729Y-15963448D01*
X502991Y-15992778D01*
X502989Y-15992779D01*
X346467Y-16076443D01*
X289853Y-16093616D01*
X176627Y-16127963D01*
X110443Y-16134481D01*
X44260Y-16141000D01*
X-44260Y-16141000D01*
X-110443Y-16134481D01*
X-176627Y-16127963D01*
X-289853Y-16093616D01*
X-346467Y-16076443D01*
X-502989Y-15992779D01*
X-502991Y-15992778D01*
X-538729Y-15963448D01*
X-640186Y-15880186D01*
X-723448Y-15778729D01*
X-752778Y-15742991D01*
X-762348Y-15725087D01*
X-836443Y-15586467D01*
X-853616Y-15529853D01*
X-887963Y-15416627D01*
X-905359Y-15240000D01*
X-887963Y-15063373D01*
X-836443Y-14893534D01*
X-836443Y-14893533D01*
X-752779Y-14737011D01*
X-752778Y-14737009D01*
X-723448Y-14701271D01*
X-640186Y-14599814D01*
X-538729Y-14516552D01*
X-502991Y-14487222D01*
X-485087Y-14477652D01*
X-346467Y-14403557D01*
X-289853Y-14386384D01*
X-176627Y-14352037D01*
X-110443Y-14345519D01*
X-44260Y-14339000D01*
X44260Y-14339000D01*
X110443Y-14345519D01*
X110443Y-14345519D01*
G37*
G36*
X2650443Y-14345519D02*
X2716627Y-14352037D01*
X2829853Y-14386384D01*
X2886467Y-14403557D01*
X3025087Y-14477652D01*
X3042991Y-14487222D01*
X3078729Y-14516552D01*
X3180186Y-14599814D01*
X3263448Y-14701271D01*
X3292778Y-14737009D01*
X3292779Y-14737011D01*
X3376443Y-14893533D01*
X3376443Y-14893534D01*
X3427963Y-15063373D01*
X3445359Y-15240000D01*
X3427963Y-15416627D01*
X3393616Y-15529853D01*
X3376443Y-15586467D01*
X3302348Y-15725087D01*
X3292778Y-15742991D01*
X3263448Y-15778729D01*
X3180186Y-15880186D01*
X3078729Y-15963448D01*
X3042991Y-15992778D01*
X3042989Y-15992779D01*
X2886467Y-16076443D01*
X2829853Y-16093616D01*
X2716627Y-16127963D01*
X2650443Y-16134481D01*
X2584260Y-16141000D01*
X2495740Y-16141000D01*
X2429557Y-16134481D01*
X2363373Y-16127963D01*
X2250147Y-16093616D01*
X2193533Y-16076443D01*
X2037011Y-15992779D01*
X2037009Y-15992778D01*
X2001271Y-15963448D01*
X1899814Y-15880186D01*
X1816552Y-15778729D01*
X1787222Y-15742991D01*
X1777652Y-15725087D01*
X1703557Y-15586467D01*
X1686384Y-15529853D01*
X1652037Y-15416627D01*
X1634641Y-15240000D01*
X1652037Y-15063373D01*
X1703557Y-14893534D01*
X1703557Y-14893533D01*
X1787221Y-14737011D01*
X1787222Y-14737009D01*
X1816552Y-14701271D01*
X1899814Y-14599814D01*
X2001271Y-14516552D01*
X2037009Y-14487222D01*
X2054913Y-14477652D01*
X2193533Y-14403557D01*
X2250147Y-14386384D01*
X2363373Y-14352037D01*
X2429557Y-14345519D01*
X2495740Y-14339000D01*
X2584260Y-14339000D01*
X2650443Y-14345519D01*
X2650443Y-14345519D01*
G37*
G36*
X55990443Y-14345519D02*
X56056627Y-14352037D01*
X56169853Y-14386384D01*
X56226467Y-14403557D01*
X56365087Y-14477652D01*
X56382991Y-14487222D01*
X56418729Y-14516552D01*
X56520186Y-14599814D01*
X56603448Y-14701271D01*
X56632778Y-14737009D01*
X56632779Y-14737011D01*
X56716443Y-14893533D01*
X56716443Y-14893534D01*
X56767963Y-15063373D01*
X56785359Y-15240000D01*
X56767963Y-15416627D01*
X56733616Y-15529853D01*
X56716443Y-15586467D01*
X56642348Y-15725087D01*
X56632778Y-15742991D01*
X56603448Y-15778729D01*
X56520186Y-15880186D01*
X56418729Y-15963448D01*
X56382991Y-15992778D01*
X56382989Y-15992779D01*
X56226467Y-16076443D01*
X56169853Y-16093616D01*
X56056627Y-16127963D01*
X55990443Y-16134481D01*
X55924260Y-16141000D01*
X55835740Y-16141000D01*
X55769557Y-16134481D01*
X55703373Y-16127963D01*
X55590147Y-16093616D01*
X55533533Y-16076443D01*
X55377011Y-15992779D01*
X55377009Y-15992778D01*
X55341271Y-15963448D01*
X55239814Y-15880186D01*
X55156552Y-15778729D01*
X55127222Y-15742991D01*
X55117652Y-15725087D01*
X55043557Y-15586467D01*
X55026384Y-15529853D01*
X54992037Y-15416627D01*
X54974641Y-15240000D01*
X54992037Y-15063373D01*
X55043557Y-14893534D01*
X55043557Y-14893533D01*
X55127221Y-14737011D01*
X55127222Y-14737009D01*
X55156552Y-14701271D01*
X55239814Y-14599814D01*
X55341271Y-14516552D01*
X55377009Y-14487222D01*
X55394913Y-14477652D01*
X55533533Y-14403557D01*
X55590147Y-14386384D01*
X55703373Y-14352037D01*
X55769557Y-14345519D01*
X55835740Y-14339000D01*
X55924260Y-14339000D01*
X55990443Y-14345519D01*
X55990443Y-14345519D01*
G37*
G36*
X58530443Y-14345519D02*
X58596627Y-14352037D01*
X58709853Y-14386384D01*
X58766467Y-14403557D01*
X58905087Y-14477652D01*
X58922991Y-14487222D01*
X58958729Y-14516552D01*
X59060186Y-14599814D01*
X59143448Y-14701271D01*
X59172778Y-14737009D01*
X59172779Y-14737011D01*
X59256443Y-14893533D01*
X59256443Y-14893534D01*
X59307963Y-15063373D01*
X59325359Y-15240000D01*
X59307963Y-15416627D01*
X59273616Y-15529853D01*
X59256443Y-15586467D01*
X59182348Y-15725087D01*
X59172778Y-15742991D01*
X59143448Y-15778729D01*
X59060186Y-15880186D01*
X58958729Y-15963448D01*
X58922991Y-15992778D01*
X58922989Y-15992779D01*
X58766467Y-16076443D01*
X58709853Y-16093616D01*
X58596627Y-16127963D01*
X58530443Y-16134481D01*
X58464260Y-16141000D01*
X58375740Y-16141000D01*
X58309557Y-16134481D01*
X58243373Y-16127963D01*
X58130147Y-16093616D01*
X58073533Y-16076443D01*
X57917011Y-15992779D01*
X57917009Y-15992778D01*
X57881271Y-15963448D01*
X57779814Y-15880186D01*
X57696552Y-15778729D01*
X57667222Y-15742991D01*
X57657652Y-15725087D01*
X57583557Y-15586467D01*
X57566384Y-15529853D01*
X57532037Y-15416627D01*
X57514641Y-15240000D01*
X57532037Y-15063373D01*
X57583557Y-14893534D01*
X57583557Y-14893533D01*
X57667221Y-14737011D01*
X57667222Y-14737009D01*
X57696552Y-14701271D01*
X57779814Y-14599814D01*
X57881271Y-14516552D01*
X57917009Y-14487222D01*
X57934913Y-14477652D01*
X58073533Y-14403557D01*
X58130147Y-14386384D01*
X58243373Y-14352037D01*
X58309557Y-14345519D01*
X58375740Y-14339000D01*
X58464260Y-14339000D01*
X58530443Y-14345519D01*
X58530443Y-14345519D01*
G37*
G36*
X55990443Y-11805519D02*
X56056627Y-11812037D01*
X56169853Y-11846384D01*
X56226467Y-11863557D01*
X56365087Y-11937652D01*
X56382991Y-11947222D01*
X56418729Y-11976552D01*
X56520186Y-12059814D01*
X56603448Y-12161271D01*
X56632778Y-12197009D01*
X56632779Y-12197011D01*
X56716443Y-12353533D01*
X56716443Y-12353534D01*
X56767963Y-12523373D01*
X56785359Y-12700000D01*
X56767963Y-12876627D01*
X56733616Y-12989853D01*
X56716443Y-13046467D01*
X56642348Y-13185087D01*
X56632778Y-13202991D01*
X56603448Y-13238729D01*
X56520186Y-13340186D01*
X56418729Y-13423448D01*
X56382991Y-13452778D01*
X56382989Y-13452779D01*
X56226467Y-13536443D01*
X56169853Y-13553616D01*
X56056627Y-13587963D01*
X55990443Y-13594481D01*
X55924260Y-13601000D01*
X55835740Y-13601000D01*
X55769557Y-13594481D01*
X55703373Y-13587963D01*
X55590147Y-13553616D01*
X55533533Y-13536443D01*
X55377011Y-13452779D01*
X55377009Y-13452778D01*
X55341271Y-13423448D01*
X55239814Y-13340186D01*
X55156552Y-13238729D01*
X55127222Y-13202991D01*
X55117652Y-13185087D01*
X55043557Y-13046467D01*
X55026384Y-12989853D01*
X54992037Y-12876627D01*
X54974641Y-12700000D01*
X54992037Y-12523373D01*
X55043557Y-12353534D01*
X55043557Y-12353533D01*
X55127221Y-12197011D01*
X55127222Y-12197009D01*
X55156552Y-12161271D01*
X55239814Y-12059814D01*
X55341271Y-11976552D01*
X55377009Y-11947222D01*
X55394913Y-11937652D01*
X55533533Y-11863557D01*
X55590147Y-11846384D01*
X55703373Y-11812037D01*
X55769557Y-11805519D01*
X55835740Y-11799000D01*
X55924260Y-11799000D01*
X55990443Y-11805519D01*
X55990443Y-11805519D01*
G37*
G36*
X110443Y-11805519D02*
X176627Y-11812037D01*
X289853Y-11846384D01*
X346467Y-11863557D01*
X485087Y-11937652D01*
X502991Y-11947222D01*
X538729Y-11976552D01*
X640186Y-12059814D01*
X723448Y-12161271D01*
X752778Y-12197009D01*
X752779Y-12197011D01*
X836443Y-12353533D01*
X836443Y-12353534D01*
X887963Y-12523373D01*
X905359Y-12700000D01*
X887963Y-12876627D01*
X853616Y-12989853D01*
X836443Y-13046467D01*
X762348Y-13185087D01*
X752778Y-13202991D01*
X723448Y-13238729D01*
X640186Y-13340186D01*
X538729Y-13423448D01*
X502991Y-13452778D01*
X502989Y-13452779D01*
X346467Y-13536443D01*
X289853Y-13553616D01*
X176627Y-13587963D01*
X110443Y-13594481D01*
X44260Y-13601000D01*
X-44260Y-13601000D01*
X-110443Y-13594481D01*
X-176627Y-13587963D01*
X-289853Y-13553616D01*
X-346467Y-13536443D01*
X-502989Y-13452779D01*
X-502991Y-13452778D01*
X-538729Y-13423448D01*
X-640186Y-13340186D01*
X-723448Y-13238729D01*
X-752778Y-13202991D01*
X-762348Y-13185087D01*
X-836443Y-13046467D01*
X-853616Y-12989853D01*
X-887963Y-12876627D01*
X-905359Y-12700000D01*
X-887963Y-12523373D01*
X-836443Y-12353534D01*
X-836443Y-12353533D01*
X-752779Y-12197011D01*
X-752778Y-12197009D01*
X-723448Y-12161271D01*
X-640186Y-12059814D01*
X-538729Y-11976552D01*
X-502991Y-11947222D01*
X-485087Y-11937652D01*
X-346467Y-11863557D01*
X-289853Y-11846384D01*
X-176627Y-11812037D01*
X-110443Y-11805519D01*
X-44260Y-11799000D01*
X44260Y-11799000D01*
X110443Y-11805519D01*
X110443Y-11805519D01*
G37*
G36*
X58530443Y-11805519D02*
X58596627Y-11812037D01*
X58709853Y-11846384D01*
X58766467Y-11863557D01*
X58905087Y-11937652D01*
X58922991Y-11947222D01*
X58958729Y-11976552D01*
X59060186Y-12059814D01*
X59143448Y-12161271D01*
X59172778Y-12197009D01*
X59172779Y-12197011D01*
X59256443Y-12353533D01*
X59256443Y-12353534D01*
X59307963Y-12523373D01*
X59325359Y-12700000D01*
X59307963Y-12876627D01*
X59273616Y-12989853D01*
X59256443Y-13046467D01*
X59182348Y-13185087D01*
X59172778Y-13202991D01*
X59143448Y-13238729D01*
X59060186Y-13340186D01*
X58958729Y-13423448D01*
X58922991Y-13452778D01*
X58922989Y-13452779D01*
X58766467Y-13536443D01*
X58709853Y-13553616D01*
X58596627Y-13587963D01*
X58530443Y-13594481D01*
X58464260Y-13601000D01*
X58375740Y-13601000D01*
X58309557Y-13594481D01*
X58243373Y-13587963D01*
X58130147Y-13553616D01*
X58073533Y-13536443D01*
X57917011Y-13452779D01*
X57917009Y-13452778D01*
X57881271Y-13423448D01*
X57779814Y-13340186D01*
X57696552Y-13238729D01*
X57667222Y-13202991D01*
X57657652Y-13185087D01*
X57583557Y-13046467D01*
X57566384Y-12989853D01*
X57532037Y-12876627D01*
X57514641Y-12700000D01*
X57532037Y-12523373D01*
X57583557Y-12353534D01*
X57583557Y-12353533D01*
X57667221Y-12197011D01*
X57667222Y-12197009D01*
X57696552Y-12161271D01*
X57779814Y-12059814D01*
X57881271Y-11976552D01*
X57917009Y-11947222D01*
X57934913Y-11937652D01*
X58073533Y-11863557D01*
X58130147Y-11846384D01*
X58243373Y-11812037D01*
X58309557Y-11805519D01*
X58375740Y-11799000D01*
X58464260Y-11799000D01*
X58530443Y-11805519D01*
X58530443Y-11805519D01*
G37*
G36*
X2650443Y-11805519D02*
X2716627Y-11812037D01*
X2829853Y-11846384D01*
X2886467Y-11863557D01*
X3025087Y-11937652D01*
X3042991Y-11947222D01*
X3078729Y-11976552D01*
X3180186Y-12059814D01*
X3263448Y-12161271D01*
X3292778Y-12197009D01*
X3292779Y-12197011D01*
X3376443Y-12353533D01*
X3376443Y-12353534D01*
X3427963Y-12523373D01*
X3445359Y-12700000D01*
X3427963Y-12876627D01*
X3393616Y-12989853D01*
X3376443Y-13046467D01*
X3302348Y-13185087D01*
X3292778Y-13202991D01*
X3263448Y-13238729D01*
X3180186Y-13340186D01*
X3078729Y-13423448D01*
X3042991Y-13452778D01*
X3042989Y-13452779D01*
X2886467Y-13536443D01*
X2829853Y-13553616D01*
X2716627Y-13587963D01*
X2650443Y-13594481D01*
X2584260Y-13601000D01*
X2495740Y-13601000D01*
X2429557Y-13594481D01*
X2363373Y-13587963D01*
X2250147Y-13553616D01*
X2193533Y-13536443D01*
X2037011Y-13452779D01*
X2037009Y-13452778D01*
X2001271Y-13423448D01*
X1899814Y-13340186D01*
X1816552Y-13238729D01*
X1787222Y-13202991D01*
X1777652Y-13185087D01*
X1703557Y-13046467D01*
X1686384Y-12989853D01*
X1652037Y-12876627D01*
X1634641Y-12700000D01*
X1652037Y-12523373D01*
X1703557Y-12353534D01*
X1703557Y-12353533D01*
X1787221Y-12197011D01*
X1787222Y-12197009D01*
X1816552Y-12161271D01*
X1899814Y-12059814D01*
X2001271Y-11976552D01*
X2037009Y-11947222D01*
X2054913Y-11937652D01*
X2193533Y-11863557D01*
X2250147Y-11846384D01*
X2363373Y-11812037D01*
X2429557Y-11805519D01*
X2495740Y-11799000D01*
X2584260Y-11799000D01*
X2650443Y-11805519D01*
X2650443Y-11805519D01*
G37*
G36*
X2650442Y-9265518D02*
X2716627Y-9272037D01*
X2829853Y-9306384D01*
X2886467Y-9323557D01*
X3025087Y-9397652D01*
X3042991Y-9407222D01*
X3078729Y-9436552D01*
X3180186Y-9519814D01*
X3263448Y-9621271D01*
X3292778Y-9657009D01*
X3292779Y-9657011D01*
X3376443Y-9813533D01*
X3376443Y-9813534D01*
X3427963Y-9983373D01*
X3445359Y-10160000D01*
X3427963Y-10336627D01*
X3393616Y-10449853D01*
X3376443Y-10506467D01*
X3302348Y-10645087D01*
X3292778Y-10662991D01*
X3263448Y-10698729D01*
X3180186Y-10800186D01*
X3078729Y-10883448D01*
X3042991Y-10912778D01*
X3042989Y-10912779D01*
X2886467Y-10996443D01*
X2829853Y-11013616D01*
X2716627Y-11047963D01*
X2650443Y-11054481D01*
X2584260Y-11061000D01*
X2495740Y-11061000D01*
X2429557Y-11054481D01*
X2363373Y-11047963D01*
X2250147Y-11013616D01*
X2193533Y-10996443D01*
X2037011Y-10912779D01*
X2037009Y-10912778D01*
X2001271Y-10883448D01*
X1899814Y-10800186D01*
X1816552Y-10698729D01*
X1787222Y-10662991D01*
X1777652Y-10645087D01*
X1703557Y-10506467D01*
X1686384Y-10449853D01*
X1652037Y-10336627D01*
X1634641Y-10160000D01*
X1652037Y-9983373D01*
X1703557Y-9813534D01*
X1703557Y-9813533D01*
X1787221Y-9657011D01*
X1787222Y-9657009D01*
X1816552Y-9621271D01*
X1899814Y-9519814D01*
X2001271Y-9436552D01*
X2037009Y-9407222D01*
X2054913Y-9397652D01*
X2193533Y-9323557D01*
X2250147Y-9306384D01*
X2363373Y-9272037D01*
X2429558Y-9265518D01*
X2495740Y-9259000D01*
X2584260Y-9259000D01*
X2650442Y-9265518D01*
X2650442Y-9265518D01*
G37*
G36*
X110442Y-9265518D02*
X176627Y-9272037D01*
X289853Y-9306384D01*
X346467Y-9323557D01*
X485087Y-9397652D01*
X502991Y-9407222D01*
X538729Y-9436552D01*
X640186Y-9519814D01*
X723448Y-9621271D01*
X752778Y-9657009D01*
X752779Y-9657011D01*
X836443Y-9813533D01*
X836443Y-9813534D01*
X887963Y-9983373D01*
X905359Y-10160000D01*
X887963Y-10336627D01*
X853616Y-10449853D01*
X836443Y-10506467D01*
X762348Y-10645087D01*
X752778Y-10662991D01*
X723448Y-10698729D01*
X640186Y-10800186D01*
X538729Y-10883448D01*
X502991Y-10912778D01*
X502989Y-10912779D01*
X346467Y-10996443D01*
X289853Y-11013616D01*
X176627Y-11047963D01*
X110443Y-11054481D01*
X44260Y-11061000D01*
X-44260Y-11061000D01*
X-110443Y-11054481D01*
X-176627Y-11047963D01*
X-289853Y-11013616D01*
X-346467Y-10996443D01*
X-502989Y-10912779D01*
X-502991Y-10912778D01*
X-538729Y-10883448D01*
X-640186Y-10800186D01*
X-723448Y-10698729D01*
X-752778Y-10662991D01*
X-762348Y-10645087D01*
X-836443Y-10506467D01*
X-853616Y-10449853D01*
X-887963Y-10336627D01*
X-905359Y-10160000D01*
X-887963Y-9983373D01*
X-836443Y-9813534D01*
X-836443Y-9813533D01*
X-752779Y-9657011D01*
X-752778Y-9657009D01*
X-723448Y-9621271D01*
X-640186Y-9519814D01*
X-538729Y-9436552D01*
X-502991Y-9407222D01*
X-485087Y-9397652D01*
X-346467Y-9323557D01*
X-289853Y-9306384D01*
X-176627Y-9272037D01*
X-110442Y-9265518D01*
X-44260Y-9259000D01*
X44260Y-9259000D01*
X110442Y-9265518D01*
X110442Y-9265518D01*
G37*
G36*
X55990442Y-9265518D02*
X56056627Y-9272037D01*
X56169853Y-9306384D01*
X56226467Y-9323557D01*
X56365087Y-9397652D01*
X56382991Y-9407222D01*
X56418729Y-9436552D01*
X56520186Y-9519814D01*
X56603448Y-9621271D01*
X56632778Y-9657009D01*
X56632779Y-9657011D01*
X56716443Y-9813533D01*
X56716443Y-9813534D01*
X56767963Y-9983373D01*
X56785359Y-10160000D01*
X56767963Y-10336627D01*
X56733616Y-10449853D01*
X56716443Y-10506467D01*
X56642348Y-10645087D01*
X56632778Y-10662991D01*
X56603448Y-10698729D01*
X56520186Y-10800186D01*
X56418729Y-10883448D01*
X56382991Y-10912778D01*
X56382989Y-10912779D01*
X56226467Y-10996443D01*
X56169853Y-11013616D01*
X56056627Y-11047963D01*
X55990443Y-11054481D01*
X55924260Y-11061000D01*
X55835740Y-11061000D01*
X55769557Y-11054481D01*
X55703373Y-11047963D01*
X55590147Y-11013616D01*
X55533533Y-10996443D01*
X55377011Y-10912779D01*
X55377009Y-10912778D01*
X55341271Y-10883448D01*
X55239814Y-10800186D01*
X55156552Y-10698729D01*
X55127222Y-10662991D01*
X55117652Y-10645087D01*
X55043557Y-10506467D01*
X55026384Y-10449853D01*
X54992037Y-10336627D01*
X54974641Y-10160000D01*
X54992037Y-9983373D01*
X55043557Y-9813534D01*
X55043557Y-9813533D01*
X55127221Y-9657011D01*
X55127222Y-9657009D01*
X55156552Y-9621271D01*
X55239814Y-9519814D01*
X55341271Y-9436552D01*
X55377009Y-9407222D01*
X55394913Y-9397652D01*
X55533533Y-9323557D01*
X55590147Y-9306384D01*
X55703373Y-9272037D01*
X55769558Y-9265518D01*
X55835740Y-9259000D01*
X55924260Y-9259000D01*
X55990442Y-9265518D01*
X55990442Y-9265518D01*
G37*
G36*
X58530442Y-9265518D02*
X58596627Y-9272037D01*
X58709853Y-9306384D01*
X58766467Y-9323557D01*
X58905087Y-9397652D01*
X58922991Y-9407222D01*
X58958729Y-9436552D01*
X59060186Y-9519814D01*
X59143448Y-9621271D01*
X59172778Y-9657009D01*
X59172779Y-9657011D01*
X59256443Y-9813533D01*
X59256443Y-9813534D01*
X59307963Y-9983373D01*
X59325359Y-10160000D01*
X59307963Y-10336627D01*
X59273616Y-10449853D01*
X59256443Y-10506467D01*
X59182348Y-10645087D01*
X59172778Y-10662991D01*
X59143448Y-10698729D01*
X59060186Y-10800186D01*
X58958729Y-10883448D01*
X58922991Y-10912778D01*
X58922989Y-10912779D01*
X58766467Y-10996443D01*
X58709853Y-11013616D01*
X58596627Y-11047963D01*
X58530443Y-11054481D01*
X58464260Y-11061000D01*
X58375740Y-11061000D01*
X58309557Y-11054481D01*
X58243373Y-11047963D01*
X58130147Y-11013616D01*
X58073533Y-10996443D01*
X57917011Y-10912779D01*
X57917009Y-10912778D01*
X57881271Y-10883448D01*
X57779814Y-10800186D01*
X57696552Y-10698729D01*
X57667222Y-10662991D01*
X57657652Y-10645087D01*
X57583557Y-10506467D01*
X57566384Y-10449853D01*
X57532037Y-10336627D01*
X57514641Y-10160000D01*
X57532037Y-9983373D01*
X57583557Y-9813534D01*
X57583557Y-9813533D01*
X57667221Y-9657011D01*
X57667222Y-9657009D01*
X57696552Y-9621271D01*
X57779814Y-9519814D01*
X57881271Y-9436552D01*
X57917009Y-9407222D01*
X57934913Y-9397652D01*
X58073533Y-9323557D01*
X58130147Y-9306384D01*
X58243373Y-9272037D01*
X58309558Y-9265518D01*
X58375740Y-9259000D01*
X58464260Y-9259000D01*
X58530442Y-9265518D01*
X58530442Y-9265518D01*
G37*
G36*
X2650442Y-6725518D02*
X2716627Y-6732037D01*
X2829853Y-6766384D01*
X2886467Y-6783557D01*
X3025087Y-6857652D01*
X3042991Y-6867222D01*
X3078729Y-6896552D01*
X3180186Y-6979814D01*
X3263448Y-7081271D01*
X3292778Y-7117009D01*
X3292779Y-7117011D01*
X3376443Y-7273533D01*
X3376443Y-7273534D01*
X3427963Y-7443373D01*
X3445359Y-7620000D01*
X3427963Y-7796627D01*
X3393616Y-7909853D01*
X3376443Y-7966467D01*
X3302348Y-8105087D01*
X3292778Y-8122991D01*
X3263448Y-8158729D01*
X3180186Y-8260186D01*
X3078729Y-8343448D01*
X3042991Y-8372778D01*
X3042989Y-8372779D01*
X2886467Y-8456443D01*
X2829853Y-8473616D01*
X2716627Y-8507963D01*
X2650443Y-8514481D01*
X2584260Y-8521000D01*
X2495740Y-8521000D01*
X2429557Y-8514481D01*
X2363373Y-8507963D01*
X2250147Y-8473616D01*
X2193533Y-8456443D01*
X2037011Y-8372779D01*
X2037009Y-8372778D01*
X2001271Y-8343448D01*
X1899814Y-8260186D01*
X1816552Y-8158729D01*
X1787222Y-8122991D01*
X1777652Y-8105087D01*
X1703557Y-7966467D01*
X1686384Y-7909853D01*
X1652037Y-7796627D01*
X1634641Y-7620000D01*
X1652037Y-7443373D01*
X1703557Y-7273534D01*
X1703557Y-7273533D01*
X1787221Y-7117011D01*
X1787222Y-7117009D01*
X1816552Y-7081271D01*
X1899814Y-6979814D01*
X2001271Y-6896552D01*
X2037009Y-6867222D01*
X2054913Y-6857652D01*
X2193533Y-6783557D01*
X2250147Y-6766384D01*
X2363373Y-6732037D01*
X2429558Y-6725518D01*
X2495740Y-6719000D01*
X2584260Y-6719000D01*
X2650442Y-6725518D01*
X2650442Y-6725518D01*
G37*
G36*
X110442Y-6725518D02*
X176627Y-6732037D01*
X289853Y-6766384D01*
X346467Y-6783557D01*
X485087Y-6857652D01*
X502991Y-6867222D01*
X538729Y-6896552D01*
X640186Y-6979814D01*
X723448Y-7081271D01*
X752778Y-7117009D01*
X752779Y-7117011D01*
X836443Y-7273533D01*
X836443Y-7273534D01*
X887963Y-7443373D01*
X905359Y-7620000D01*
X887963Y-7796627D01*
X853616Y-7909853D01*
X836443Y-7966467D01*
X762348Y-8105087D01*
X752778Y-8122991D01*
X723448Y-8158729D01*
X640186Y-8260186D01*
X538729Y-8343448D01*
X502991Y-8372778D01*
X502989Y-8372779D01*
X346467Y-8456443D01*
X289853Y-8473616D01*
X176627Y-8507963D01*
X110443Y-8514481D01*
X44260Y-8521000D01*
X-44260Y-8521000D01*
X-110443Y-8514481D01*
X-176627Y-8507963D01*
X-289853Y-8473616D01*
X-346467Y-8456443D01*
X-502989Y-8372779D01*
X-502991Y-8372778D01*
X-538729Y-8343448D01*
X-640186Y-8260186D01*
X-723448Y-8158729D01*
X-752778Y-8122991D01*
X-762348Y-8105087D01*
X-836443Y-7966467D01*
X-853616Y-7909853D01*
X-887963Y-7796627D01*
X-905359Y-7620000D01*
X-887963Y-7443373D01*
X-836443Y-7273534D01*
X-836443Y-7273533D01*
X-752779Y-7117011D01*
X-752778Y-7117009D01*
X-723448Y-7081271D01*
X-640186Y-6979814D01*
X-538729Y-6896552D01*
X-502991Y-6867222D01*
X-485087Y-6857652D01*
X-346467Y-6783557D01*
X-289853Y-6766384D01*
X-176627Y-6732037D01*
X-110442Y-6725518D01*
X-44260Y-6719000D01*
X44260Y-6719000D01*
X110442Y-6725518D01*
X110442Y-6725518D01*
G37*
G36*
X55990442Y-6725518D02*
X56056627Y-6732037D01*
X56169853Y-6766384D01*
X56226467Y-6783557D01*
X56365087Y-6857652D01*
X56382991Y-6867222D01*
X56418729Y-6896552D01*
X56520186Y-6979814D01*
X56603448Y-7081271D01*
X56632778Y-7117009D01*
X56632779Y-7117011D01*
X56716443Y-7273533D01*
X56716443Y-7273534D01*
X56767963Y-7443373D01*
X56785359Y-7620000D01*
X56767963Y-7796627D01*
X56733616Y-7909853D01*
X56716443Y-7966467D01*
X56642348Y-8105087D01*
X56632778Y-8122991D01*
X56603448Y-8158729D01*
X56520186Y-8260186D01*
X56418729Y-8343448D01*
X56382991Y-8372778D01*
X56382989Y-8372779D01*
X56226467Y-8456443D01*
X56169853Y-8473616D01*
X56056627Y-8507963D01*
X55990442Y-8514482D01*
X55924260Y-8521000D01*
X55835740Y-8521000D01*
X55769557Y-8514481D01*
X55703373Y-8507963D01*
X55590147Y-8473616D01*
X55533533Y-8456443D01*
X55377011Y-8372779D01*
X55377009Y-8372778D01*
X55341271Y-8343448D01*
X55239814Y-8260186D01*
X55156552Y-8158729D01*
X55127222Y-8122991D01*
X55117652Y-8105087D01*
X55043557Y-7966467D01*
X55026384Y-7909853D01*
X54992037Y-7796627D01*
X54974641Y-7620000D01*
X54992037Y-7443373D01*
X55043557Y-7273534D01*
X55043557Y-7273533D01*
X55127221Y-7117011D01*
X55127222Y-7117009D01*
X55156552Y-7081271D01*
X55239814Y-6979814D01*
X55341271Y-6896552D01*
X55377009Y-6867222D01*
X55394913Y-6857652D01*
X55533533Y-6783557D01*
X55590147Y-6766384D01*
X55703373Y-6732037D01*
X55769558Y-6725518D01*
X55835740Y-6719000D01*
X55924260Y-6719000D01*
X55990442Y-6725518D01*
X55990442Y-6725518D01*
G37*
G36*
X58530442Y-6725518D02*
X58596627Y-6732037D01*
X58709853Y-6766384D01*
X58766467Y-6783557D01*
X58905087Y-6857652D01*
X58922991Y-6867222D01*
X58958729Y-6896552D01*
X59060186Y-6979814D01*
X59143448Y-7081271D01*
X59172778Y-7117009D01*
X59172779Y-7117011D01*
X59256443Y-7273533D01*
X59256443Y-7273534D01*
X59307963Y-7443373D01*
X59325359Y-7620000D01*
X59307963Y-7796627D01*
X59273616Y-7909853D01*
X59256443Y-7966467D01*
X59182348Y-8105087D01*
X59172778Y-8122991D01*
X59143448Y-8158729D01*
X59060186Y-8260186D01*
X58958729Y-8343448D01*
X58922991Y-8372778D01*
X58922989Y-8372779D01*
X58766467Y-8456443D01*
X58709853Y-8473616D01*
X58596627Y-8507963D01*
X58530442Y-8514482D01*
X58464260Y-8521000D01*
X58375740Y-8521000D01*
X58309557Y-8514481D01*
X58243373Y-8507963D01*
X58130147Y-8473616D01*
X58073533Y-8456443D01*
X57917011Y-8372779D01*
X57917009Y-8372778D01*
X57881271Y-8343448D01*
X57779814Y-8260186D01*
X57696552Y-8158729D01*
X57667222Y-8122991D01*
X57657652Y-8105087D01*
X57583557Y-7966467D01*
X57566384Y-7909853D01*
X57532037Y-7796627D01*
X57514641Y-7620000D01*
X57532037Y-7443373D01*
X57583557Y-7273534D01*
X57583557Y-7273533D01*
X57667221Y-7117011D01*
X57667222Y-7117009D01*
X57696552Y-7081271D01*
X57779814Y-6979814D01*
X57881271Y-6896552D01*
X57917009Y-6867222D01*
X57934913Y-6857652D01*
X58073533Y-6783557D01*
X58130147Y-6766384D01*
X58243373Y-6732037D01*
X58309558Y-6725518D01*
X58375740Y-6719000D01*
X58464260Y-6719000D01*
X58530442Y-6725518D01*
X58530442Y-6725518D01*
G37*
G36*
X55990443Y-4185519D02*
X56056627Y-4192037D01*
X56169853Y-4226384D01*
X56226467Y-4243557D01*
X56365087Y-4317652D01*
X56382991Y-4327222D01*
X56418729Y-4356552D01*
X56520186Y-4439814D01*
X56603448Y-4541271D01*
X56632778Y-4577009D01*
X56632779Y-4577011D01*
X56716443Y-4733533D01*
X56716443Y-4733534D01*
X56767963Y-4903373D01*
X56785359Y-5080000D01*
X56767963Y-5256627D01*
X56733616Y-5369853D01*
X56716443Y-5426467D01*
X56642348Y-5565087D01*
X56632778Y-5582991D01*
X56603448Y-5618729D01*
X56520186Y-5720186D01*
X56418729Y-5803448D01*
X56382991Y-5832778D01*
X56382989Y-5832779D01*
X56226467Y-5916443D01*
X56169853Y-5933616D01*
X56056627Y-5967963D01*
X55990443Y-5974481D01*
X55924260Y-5981000D01*
X55835740Y-5981000D01*
X55769557Y-5974481D01*
X55703373Y-5967963D01*
X55590147Y-5933616D01*
X55533533Y-5916443D01*
X55377011Y-5832779D01*
X55377009Y-5832778D01*
X55341271Y-5803448D01*
X55239814Y-5720186D01*
X55156552Y-5618729D01*
X55127222Y-5582991D01*
X55117652Y-5565087D01*
X55043557Y-5426467D01*
X55026384Y-5369853D01*
X54992037Y-5256627D01*
X54974641Y-5080000D01*
X54992037Y-4903373D01*
X55043557Y-4733534D01*
X55043557Y-4733533D01*
X55127221Y-4577011D01*
X55127222Y-4577009D01*
X55156552Y-4541271D01*
X55239814Y-4439814D01*
X55341271Y-4356552D01*
X55377009Y-4327222D01*
X55394913Y-4317652D01*
X55533533Y-4243557D01*
X55590147Y-4226384D01*
X55703373Y-4192037D01*
X55769558Y-4185518D01*
X55835740Y-4179000D01*
X55924260Y-4179000D01*
X55990443Y-4185519D01*
X55990443Y-4185519D01*
G37*
G36*
X110443Y-4185519D02*
X176627Y-4192037D01*
X289853Y-4226384D01*
X346467Y-4243557D01*
X485087Y-4317652D01*
X502991Y-4327222D01*
X538729Y-4356552D01*
X640186Y-4439814D01*
X723448Y-4541271D01*
X752778Y-4577009D01*
X752779Y-4577011D01*
X836443Y-4733533D01*
X836443Y-4733534D01*
X887963Y-4903373D01*
X905359Y-5080000D01*
X887963Y-5256627D01*
X853616Y-5369853D01*
X836443Y-5426467D01*
X762348Y-5565087D01*
X752778Y-5582991D01*
X723448Y-5618729D01*
X640186Y-5720186D01*
X538729Y-5803448D01*
X502991Y-5832778D01*
X502989Y-5832779D01*
X346467Y-5916443D01*
X289853Y-5933616D01*
X176627Y-5967963D01*
X110443Y-5974481D01*
X44260Y-5981000D01*
X-44260Y-5981000D01*
X-110443Y-5974481D01*
X-176627Y-5967963D01*
X-289853Y-5933616D01*
X-346467Y-5916443D01*
X-502989Y-5832779D01*
X-502991Y-5832778D01*
X-538729Y-5803448D01*
X-640186Y-5720186D01*
X-723448Y-5618729D01*
X-752778Y-5582991D01*
X-762348Y-5565087D01*
X-836443Y-5426467D01*
X-853616Y-5369853D01*
X-887963Y-5256627D01*
X-905359Y-5080000D01*
X-887963Y-4903373D01*
X-836443Y-4733534D01*
X-836443Y-4733533D01*
X-752779Y-4577011D01*
X-752778Y-4577009D01*
X-723448Y-4541271D01*
X-640186Y-4439814D01*
X-538729Y-4356552D01*
X-502991Y-4327222D01*
X-485087Y-4317652D01*
X-346467Y-4243557D01*
X-289853Y-4226384D01*
X-176627Y-4192037D01*
X-110443Y-4185519D01*
X-44260Y-4179000D01*
X44260Y-4179000D01*
X110443Y-4185519D01*
X110443Y-4185519D01*
G37*
G36*
X2650443Y-4185519D02*
X2716627Y-4192037D01*
X2829853Y-4226384D01*
X2886467Y-4243557D01*
X3025087Y-4317652D01*
X3042991Y-4327222D01*
X3078729Y-4356552D01*
X3180186Y-4439814D01*
X3263448Y-4541271D01*
X3292778Y-4577009D01*
X3292779Y-4577011D01*
X3376443Y-4733533D01*
X3376443Y-4733534D01*
X3427963Y-4903373D01*
X3445359Y-5080000D01*
X3427963Y-5256627D01*
X3393616Y-5369853D01*
X3376443Y-5426467D01*
X3302348Y-5565087D01*
X3292778Y-5582991D01*
X3263448Y-5618729D01*
X3180186Y-5720186D01*
X3078729Y-5803448D01*
X3042991Y-5832778D01*
X3042989Y-5832779D01*
X2886467Y-5916443D01*
X2829853Y-5933616D01*
X2716627Y-5967963D01*
X2650443Y-5974481D01*
X2584260Y-5981000D01*
X2495740Y-5981000D01*
X2429557Y-5974481D01*
X2363373Y-5967963D01*
X2250147Y-5933616D01*
X2193533Y-5916443D01*
X2037011Y-5832779D01*
X2037009Y-5832778D01*
X2001271Y-5803448D01*
X1899814Y-5720186D01*
X1816552Y-5618729D01*
X1787222Y-5582991D01*
X1777652Y-5565087D01*
X1703557Y-5426467D01*
X1686384Y-5369853D01*
X1652037Y-5256627D01*
X1634641Y-5080000D01*
X1652037Y-4903373D01*
X1703557Y-4733534D01*
X1703557Y-4733533D01*
X1787221Y-4577011D01*
X1787222Y-4577009D01*
X1816552Y-4541271D01*
X1899814Y-4439814D01*
X2001271Y-4356552D01*
X2037009Y-4327222D01*
X2054913Y-4317652D01*
X2193533Y-4243557D01*
X2250147Y-4226384D01*
X2363373Y-4192037D01*
X2429557Y-4185519D01*
X2495740Y-4179000D01*
X2584260Y-4179000D01*
X2650443Y-4185519D01*
X2650443Y-4185519D01*
G37*
G36*
X58530443Y-4185519D02*
X58596627Y-4192037D01*
X58709853Y-4226384D01*
X58766467Y-4243557D01*
X58905087Y-4317652D01*
X58922991Y-4327222D01*
X58958729Y-4356552D01*
X59060186Y-4439814D01*
X59143448Y-4541271D01*
X59172778Y-4577009D01*
X59172779Y-4577011D01*
X59256443Y-4733533D01*
X59256443Y-4733534D01*
X59307963Y-4903373D01*
X59325359Y-5080000D01*
X59307963Y-5256627D01*
X59273616Y-5369853D01*
X59256443Y-5426467D01*
X59182348Y-5565087D01*
X59172778Y-5582991D01*
X59143448Y-5618729D01*
X59060186Y-5720186D01*
X58958729Y-5803448D01*
X58922991Y-5832778D01*
X58922989Y-5832779D01*
X58766467Y-5916443D01*
X58709853Y-5933616D01*
X58596627Y-5967963D01*
X58530443Y-5974481D01*
X58464260Y-5981000D01*
X58375740Y-5981000D01*
X58309557Y-5974481D01*
X58243373Y-5967963D01*
X58130147Y-5933616D01*
X58073533Y-5916443D01*
X57917011Y-5832779D01*
X57917009Y-5832778D01*
X57881271Y-5803448D01*
X57779814Y-5720186D01*
X57696552Y-5618729D01*
X57667222Y-5582991D01*
X57657652Y-5565087D01*
X57583557Y-5426467D01*
X57566384Y-5369853D01*
X57532037Y-5256627D01*
X57514641Y-5080000D01*
X57532037Y-4903373D01*
X57583557Y-4733534D01*
X57583557Y-4733533D01*
X57667221Y-4577011D01*
X57667222Y-4577009D01*
X57696552Y-4541271D01*
X57779814Y-4439814D01*
X57881271Y-4356552D01*
X57917009Y-4327222D01*
X57934913Y-4317652D01*
X58073533Y-4243557D01*
X58130147Y-4226384D01*
X58243373Y-4192037D01*
X58309558Y-4185518D01*
X58375740Y-4179000D01*
X58464260Y-4179000D01*
X58530443Y-4185519D01*
X58530443Y-4185519D01*
G37*
G36*
X12831552Y-2878331D02*
X12913625Y-2912327D01*
X12913626Y-2912328D01*
X12913629Y-2912329D01*
X12987496Y-2961686D01*
X12987500Y-2961689D01*
X13050311Y-3024500D01*
X13050313Y-3024503D01*
X13050314Y-3024504D01*
X13099671Y-3098371D01*
X13099672Y-3098374D01*
X13099673Y-3098375D01*
X13133669Y-3180448D01*
X13151000Y-3267579D01*
X13151000Y-3356421D01*
X13133669Y-3443552D01*
X13099673Y-3525625D01*
X13099671Y-3525629D01*
X13050314Y-3599496D01*
X13050311Y-3599500D01*
X12987500Y-3662311D01*
X12987497Y-3662313D01*
X12987496Y-3662314D01*
X12913629Y-3711671D01*
X12913626Y-3711672D01*
X12913625Y-3711673D01*
X12831552Y-3745669D01*
X12744421Y-3763000D01*
X12655579Y-3763000D01*
X12568448Y-3745669D01*
X12486375Y-3711673D01*
X12486374Y-3711672D01*
X12486371Y-3711671D01*
X12412504Y-3662314D01*
X12412503Y-3662313D01*
X12412500Y-3662311D01*
X12349689Y-3599500D01*
X12349686Y-3599496D01*
X12300329Y-3525629D01*
X12300327Y-3525625D01*
X12266331Y-3443552D01*
X12249000Y-3356421D01*
X12249000Y-3267579D01*
X12266331Y-3180448D01*
X12300327Y-3098375D01*
X12300328Y-3098374D01*
X12300329Y-3098371D01*
X12349686Y-3024504D01*
X12349687Y-3024503D01*
X12349689Y-3024500D01*
X12412500Y-2961689D01*
X12412504Y-2961686D01*
X12486371Y-2912329D01*
X12486374Y-2912328D01*
X12486375Y-2912327D01*
X12568448Y-2878331D01*
X12655579Y-2861000D01*
X12744421Y-2861000D01*
X12831552Y-2878331D01*
X12831552Y-2878331D01*
G37*
G36*
X11561552Y-2878331D02*
X11643625Y-2912327D01*
X11643626Y-2912328D01*
X11643629Y-2912329D01*
X11717496Y-2961686D01*
X11717500Y-2961689D01*
X11780311Y-3024500D01*
X11780313Y-3024503D01*
X11780314Y-3024504D01*
X11829671Y-3098371D01*
X11829672Y-3098374D01*
X11829673Y-3098375D01*
X11863669Y-3180448D01*
X11881000Y-3267579D01*
X11881000Y-3356421D01*
X11863669Y-3443552D01*
X11829673Y-3525625D01*
X11829671Y-3525629D01*
X11780314Y-3599496D01*
X11780311Y-3599500D01*
X11717500Y-3662311D01*
X11717497Y-3662313D01*
X11717496Y-3662314D01*
X11643629Y-3711671D01*
X11643626Y-3711672D01*
X11643625Y-3711673D01*
X11561552Y-3745669D01*
X11474421Y-3763000D01*
X11385579Y-3763000D01*
X11298448Y-3745669D01*
X11216375Y-3711673D01*
X11216374Y-3711672D01*
X11216371Y-3711671D01*
X11142504Y-3662314D01*
X11142503Y-3662313D01*
X11142500Y-3662311D01*
X11079689Y-3599500D01*
X11079686Y-3599496D01*
X11030329Y-3525629D01*
X11030327Y-3525625D01*
X10996331Y-3443552D01*
X10979000Y-3356421D01*
X10979000Y-3267579D01*
X10996331Y-3180448D01*
X11030327Y-3098375D01*
X11030328Y-3098374D01*
X11030329Y-3098371D01*
X11079686Y-3024504D01*
X11079687Y-3024503D01*
X11079689Y-3024500D01*
X11142500Y-2961689D01*
X11142504Y-2961686D01*
X11216371Y-2912329D01*
X11216374Y-2912328D01*
X11216375Y-2912327D01*
X11298448Y-2878331D01*
X11385579Y-2861000D01*
X11474421Y-2861000D01*
X11561552Y-2878331D01*
X11561552Y-2878331D01*
G37*
G36*
X10291552Y-2878331D02*
X10373625Y-2912327D01*
X10373626Y-2912328D01*
X10373629Y-2912329D01*
X10447496Y-2961686D01*
X10447500Y-2961689D01*
X10510311Y-3024500D01*
X10510313Y-3024503D01*
X10510314Y-3024504D01*
X10559671Y-3098371D01*
X10559672Y-3098374D01*
X10559673Y-3098375D01*
X10593669Y-3180448D01*
X10611000Y-3267579D01*
X10611000Y-3356421D01*
X10593669Y-3443552D01*
X10559673Y-3525625D01*
X10559671Y-3525629D01*
X10510314Y-3599496D01*
X10510311Y-3599500D01*
X10447500Y-3662311D01*
X10447497Y-3662313D01*
X10447496Y-3662314D01*
X10373629Y-3711671D01*
X10373626Y-3711672D01*
X10373625Y-3711673D01*
X10291552Y-3745669D01*
X10204421Y-3763000D01*
X10115579Y-3763000D01*
X10028448Y-3745669D01*
X9946375Y-3711673D01*
X9946374Y-3711672D01*
X9946371Y-3711671D01*
X9872504Y-3662314D01*
X9872503Y-3662313D01*
X9872500Y-3662311D01*
X9809689Y-3599500D01*
X9809686Y-3599496D01*
X9760329Y-3525629D01*
X9760327Y-3525625D01*
X9726331Y-3443552D01*
X9709000Y-3356421D01*
X9709000Y-3267579D01*
X9726331Y-3180448D01*
X9760327Y-3098375D01*
X9760328Y-3098374D01*
X9760329Y-3098371D01*
X9809686Y-3024504D01*
X9809687Y-3024503D01*
X9809689Y-3024500D01*
X9872500Y-2961689D01*
X9872504Y-2961686D01*
X9946371Y-2912329D01*
X9946374Y-2912328D01*
X9946375Y-2912327D01*
X10028448Y-2878331D01*
X10115579Y-2861000D01*
X10204421Y-2861000D01*
X10291552Y-2878331D01*
X10291552Y-2878331D01*
G37*
G36*
X9021552Y-2878331D02*
X9103625Y-2912327D01*
X9103626Y-2912328D01*
X9103629Y-2912329D01*
X9177496Y-2961686D01*
X9177500Y-2961689D01*
X9240311Y-3024500D01*
X9240313Y-3024503D01*
X9240314Y-3024504D01*
X9289671Y-3098371D01*
X9289672Y-3098374D01*
X9289673Y-3098375D01*
X9323669Y-3180448D01*
X9341000Y-3267579D01*
X9341000Y-3356421D01*
X9323669Y-3443552D01*
X9289673Y-3525625D01*
X9289671Y-3525629D01*
X9240314Y-3599496D01*
X9240311Y-3599500D01*
X9177500Y-3662311D01*
X9177497Y-3662313D01*
X9177496Y-3662314D01*
X9103629Y-3711671D01*
X9103626Y-3711672D01*
X9103625Y-3711673D01*
X9021552Y-3745669D01*
X8934421Y-3763000D01*
X8845579Y-3763000D01*
X8758448Y-3745669D01*
X8676375Y-3711673D01*
X8676374Y-3711672D01*
X8676371Y-3711671D01*
X8602504Y-3662314D01*
X8602503Y-3662313D01*
X8602500Y-3662311D01*
X8539689Y-3599500D01*
X8539686Y-3599496D01*
X8490329Y-3525629D01*
X8490327Y-3525625D01*
X8456331Y-3443552D01*
X8439000Y-3356421D01*
X8439000Y-3267579D01*
X8456331Y-3180448D01*
X8490327Y-3098375D01*
X8490328Y-3098374D01*
X8490329Y-3098371D01*
X8539686Y-3024504D01*
X8539687Y-3024503D01*
X8539689Y-3024500D01*
X8602500Y-2961689D01*
X8602504Y-2961686D01*
X8676371Y-2912329D01*
X8676374Y-2912328D01*
X8676375Y-2912327D01*
X8758448Y-2878331D01*
X8845579Y-2861000D01*
X8934421Y-2861000D01*
X9021552Y-2878331D01*
X9021552Y-2878331D01*
G37*
G36*
X14101552Y-2878331D02*
X14183625Y-2912327D01*
X14183626Y-2912328D01*
X14183629Y-2912329D01*
X14257496Y-2961686D01*
X14257500Y-2961689D01*
X14320311Y-3024500D01*
X14320313Y-3024503D01*
X14320314Y-3024504D01*
X14369671Y-3098371D01*
X14369672Y-3098374D01*
X14369673Y-3098375D01*
X14403669Y-3180448D01*
X14421000Y-3267579D01*
X14421000Y-3356421D01*
X14403669Y-3443552D01*
X14369673Y-3525625D01*
X14369671Y-3525629D01*
X14320314Y-3599496D01*
X14320311Y-3599500D01*
X14257500Y-3662311D01*
X14257497Y-3662313D01*
X14257496Y-3662314D01*
X14183629Y-3711671D01*
X14183626Y-3711672D01*
X14183625Y-3711673D01*
X14101552Y-3745669D01*
X14014421Y-3763000D01*
X13925579Y-3763000D01*
X13838448Y-3745669D01*
X13756375Y-3711673D01*
X13756374Y-3711672D01*
X13756371Y-3711671D01*
X13682504Y-3662314D01*
X13682503Y-3662313D01*
X13682500Y-3662311D01*
X13619689Y-3599500D01*
X13619686Y-3599496D01*
X13570329Y-3525629D01*
X13570327Y-3525625D01*
X13536331Y-3443552D01*
X13519000Y-3356421D01*
X13519000Y-3267579D01*
X13536331Y-3180448D01*
X13570327Y-3098375D01*
X13570328Y-3098374D01*
X13570329Y-3098371D01*
X13619686Y-3024504D01*
X13619687Y-3024503D01*
X13619689Y-3024500D01*
X13682500Y-2961689D01*
X13682504Y-2961686D01*
X13756371Y-2912329D01*
X13756374Y-2912328D01*
X13756375Y-2912327D01*
X13838448Y-2878331D01*
X13925579Y-2861000D01*
X14014421Y-2861000D01*
X14101552Y-2878331D01*
X14101552Y-2878331D01*
G37*
G36*
X25510443Y-1645519D02*
X25576627Y-1652037D01*
X25689853Y-1686384D01*
X25746467Y-1703557D01*
X25885087Y-1777652D01*
X25902991Y-1787222D01*
X25938729Y-1816552D01*
X26040186Y-1899814D01*
X26120418Y-1997579D01*
X26152778Y-2037009D01*
X26152779Y-2037011D01*
X26236443Y-2193533D01*
X26236443Y-2193534D01*
X26287963Y-2363373D01*
X26305359Y-2540000D01*
X26287963Y-2716627D01*
X26253616Y-2829853D01*
X26236443Y-2886467D01*
X26222620Y-2912327D01*
X26152778Y-3042991D01*
X26123448Y-3078729D01*
X26040186Y-3180186D01*
X25938729Y-3263448D01*
X25902991Y-3292778D01*
X25902989Y-3292779D01*
X25746467Y-3376443D01*
X25689853Y-3393616D01*
X25576627Y-3427963D01*
X25510443Y-3434481D01*
X25444260Y-3441000D01*
X25355740Y-3441000D01*
X25289557Y-3434481D01*
X25223373Y-3427963D01*
X25110147Y-3393616D01*
X25053533Y-3376443D01*
X24897011Y-3292779D01*
X24897009Y-3292778D01*
X24861271Y-3263448D01*
X24759814Y-3180186D01*
X24676552Y-3078729D01*
X24647222Y-3042991D01*
X24577380Y-2912327D01*
X24563557Y-2886467D01*
X24546384Y-2829853D01*
X24512037Y-2716627D01*
X24494641Y-2540000D01*
X24512037Y-2363373D01*
X24563557Y-2193534D01*
X24563557Y-2193533D01*
X24647221Y-2037011D01*
X24647222Y-2037009D01*
X24679582Y-1997579D01*
X24759814Y-1899814D01*
X24861271Y-1816552D01*
X24897009Y-1787222D01*
X24914913Y-1777652D01*
X25053533Y-1703557D01*
X25110147Y-1686384D01*
X25223373Y-1652037D01*
X25289557Y-1645519D01*
X25355740Y-1639000D01*
X25444260Y-1639000D01*
X25510443Y-1645519D01*
X25510443Y-1645519D01*
G37*
G36*
X110443Y-1645519D02*
X176627Y-1652037D01*
X289853Y-1686384D01*
X346467Y-1703557D01*
X485087Y-1777652D01*
X502991Y-1787222D01*
X538729Y-1816552D01*
X640186Y-1899814D01*
X720418Y-1997579D01*
X752778Y-2037009D01*
X752779Y-2037011D01*
X836443Y-2193533D01*
X836443Y-2193534D01*
X887963Y-2363373D01*
X905359Y-2540000D01*
X887963Y-2716627D01*
X853616Y-2829853D01*
X836443Y-2886467D01*
X822620Y-2912327D01*
X752778Y-3042991D01*
X723448Y-3078729D01*
X640186Y-3180186D01*
X538729Y-3263448D01*
X502991Y-3292778D01*
X502989Y-3292779D01*
X346467Y-3376443D01*
X289853Y-3393616D01*
X176627Y-3427963D01*
X110443Y-3434481D01*
X44260Y-3441000D01*
X-44260Y-3441000D01*
X-110443Y-3434481D01*
X-176627Y-3427963D01*
X-289853Y-3393616D01*
X-346467Y-3376443D01*
X-502989Y-3292779D01*
X-502991Y-3292778D01*
X-538729Y-3263448D01*
X-640186Y-3180186D01*
X-723448Y-3078729D01*
X-752778Y-3042991D01*
X-822620Y-2912327D01*
X-836443Y-2886467D01*
X-853616Y-2829853D01*
X-887963Y-2716627D01*
X-905359Y-2540000D01*
X-887963Y-2363373D01*
X-836443Y-2193534D01*
X-836443Y-2193533D01*
X-752779Y-2037011D01*
X-752778Y-2037009D01*
X-720418Y-1997579D01*
X-640186Y-1899814D01*
X-538729Y-1816552D01*
X-502991Y-1787222D01*
X-485087Y-1777652D01*
X-346467Y-1703557D01*
X-289853Y-1686384D01*
X-176627Y-1652037D01*
X-110443Y-1645519D01*
X-44260Y-1639000D01*
X44260Y-1639000D01*
X110443Y-1645519D01*
X110443Y-1645519D01*
G37*
G36*
X55990443Y-1645519D02*
X56056627Y-1652037D01*
X56169853Y-1686384D01*
X56226467Y-1703557D01*
X56365087Y-1777652D01*
X56382991Y-1787222D01*
X56418729Y-1816552D01*
X56520186Y-1899814D01*
X56600418Y-1997579D01*
X56632778Y-2037009D01*
X56632779Y-2037011D01*
X56716443Y-2193533D01*
X56716443Y-2193534D01*
X56767963Y-2363373D01*
X56785359Y-2540000D01*
X56767963Y-2716627D01*
X56733616Y-2829853D01*
X56716443Y-2886467D01*
X56702620Y-2912327D01*
X56632778Y-3042991D01*
X56603448Y-3078729D01*
X56520186Y-3180186D01*
X56418729Y-3263448D01*
X56382991Y-3292778D01*
X56382989Y-3292779D01*
X56226467Y-3376443D01*
X56169853Y-3393616D01*
X56056627Y-3427963D01*
X55990443Y-3434481D01*
X55924260Y-3441000D01*
X55835740Y-3441000D01*
X55769557Y-3434481D01*
X55703373Y-3427963D01*
X55590147Y-3393616D01*
X55533533Y-3376443D01*
X55377011Y-3292779D01*
X55377009Y-3292778D01*
X55341271Y-3263448D01*
X55239814Y-3180186D01*
X55156552Y-3078729D01*
X55127222Y-3042991D01*
X55057380Y-2912327D01*
X55043557Y-2886467D01*
X55026384Y-2829853D01*
X54992037Y-2716627D01*
X54974641Y-2540000D01*
X54992037Y-2363373D01*
X55043557Y-2193534D01*
X55043557Y-2193533D01*
X55127221Y-2037011D01*
X55127222Y-2037009D01*
X55159582Y-1997579D01*
X55239814Y-1899814D01*
X55341271Y-1816552D01*
X55377009Y-1787222D01*
X55394913Y-1777652D01*
X55533533Y-1703557D01*
X55590147Y-1686384D01*
X55703373Y-1652037D01*
X55769558Y-1645518D01*
X55835740Y-1639000D01*
X55924260Y-1639000D01*
X55990443Y-1645519D01*
X55990443Y-1645519D01*
G37*
G36*
X58530443Y-1645519D02*
X58596627Y-1652037D01*
X58709853Y-1686384D01*
X58766467Y-1703557D01*
X58905087Y-1777652D01*
X58922991Y-1787222D01*
X58958729Y-1816552D01*
X59060186Y-1899814D01*
X59140418Y-1997579D01*
X59172778Y-2037009D01*
X59172779Y-2037011D01*
X59256443Y-2193533D01*
X59256443Y-2193534D01*
X59307963Y-2363373D01*
X59325359Y-2540000D01*
X59307963Y-2716627D01*
X59273616Y-2829853D01*
X59256443Y-2886467D01*
X59242620Y-2912327D01*
X59172778Y-3042991D01*
X59143448Y-3078729D01*
X59060186Y-3180186D01*
X58958729Y-3263448D01*
X58922991Y-3292778D01*
X58922989Y-3292779D01*
X58766467Y-3376443D01*
X58709853Y-3393616D01*
X58596627Y-3427963D01*
X58530443Y-3434481D01*
X58464260Y-3441000D01*
X58375740Y-3441000D01*
X58309557Y-3434481D01*
X58243373Y-3427963D01*
X58130147Y-3393616D01*
X58073533Y-3376443D01*
X57917011Y-3292779D01*
X57917009Y-3292778D01*
X57881271Y-3263448D01*
X57779814Y-3180186D01*
X57696552Y-3078729D01*
X57667222Y-3042991D01*
X57597380Y-2912327D01*
X57583557Y-2886467D01*
X57566384Y-2829853D01*
X57532037Y-2716627D01*
X57514641Y-2540000D01*
X57532037Y-2363373D01*
X57583557Y-2193534D01*
X57583557Y-2193533D01*
X57667221Y-2037011D01*
X57667222Y-2037009D01*
X57699582Y-1997579D01*
X57779814Y-1899814D01*
X57881271Y-1816552D01*
X57917009Y-1787222D01*
X57934913Y-1777652D01*
X58073533Y-1703557D01*
X58130147Y-1686384D01*
X58243373Y-1652037D01*
X58309558Y-1645518D01*
X58375740Y-1639000D01*
X58464260Y-1639000D01*
X58530443Y-1645519D01*
X58530443Y-1645519D01*
G37*
G36*
X40750443Y-1645519D02*
X40816627Y-1652037D01*
X40929853Y-1686384D01*
X40986467Y-1703557D01*
X41125087Y-1777652D01*
X41142991Y-1787222D01*
X41178729Y-1816552D01*
X41280186Y-1899814D01*
X41360418Y-1997579D01*
X41392778Y-2037009D01*
X41392779Y-2037011D01*
X41476443Y-2193533D01*
X41476443Y-2193534D01*
X41527963Y-2363373D01*
X41545359Y-2540000D01*
X41527963Y-2716627D01*
X41493616Y-2829853D01*
X41476443Y-2886467D01*
X41462620Y-2912327D01*
X41392778Y-3042991D01*
X41363448Y-3078729D01*
X41280186Y-3180186D01*
X41178729Y-3263448D01*
X41142991Y-3292778D01*
X41142989Y-3292779D01*
X40986467Y-3376443D01*
X40929853Y-3393616D01*
X40816627Y-3427963D01*
X40750443Y-3434481D01*
X40684260Y-3441000D01*
X40595740Y-3441000D01*
X40529557Y-3434481D01*
X40463373Y-3427963D01*
X40350147Y-3393616D01*
X40293533Y-3376443D01*
X40137011Y-3292779D01*
X40137009Y-3292778D01*
X40101271Y-3263448D01*
X39999814Y-3180186D01*
X39916552Y-3078729D01*
X39887222Y-3042991D01*
X39817380Y-2912327D01*
X39803557Y-2886467D01*
X39786384Y-2829853D01*
X39752037Y-2716627D01*
X39734641Y-2540000D01*
X39752037Y-2363373D01*
X39803557Y-2193534D01*
X39803557Y-2193533D01*
X39887221Y-2037011D01*
X39887222Y-2037009D01*
X39919582Y-1997579D01*
X39999814Y-1899814D01*
X40101271Y-1816552D01*
X40137009Y-1787222D01*
X40154913Y-1777652D01*
X40293533Y-1703557D01*
X40350147Y-1686384D01*
X40463373Y-1652037D01*
X40529557Y-1645519D01*
X40595740Y-1639000D01*
X40684260Y-1639000D01*
X40750443Y-1645519D01*
X40750443Y-1645519D01*
G37*
G36*
X22970443Y-1645519D02*
X23036627Y-1652037D01*
X23149853Y-1686384D01*
X23206467Y-1703557D01*
X23345087Y-1777652D01*
X23362991Y-1787222D01*
X23398729Y-1816552D01*
X23500186Y-1899814D01*
X23580418Y-1997579D01*
X23612778Y-2037009D01*
X23612779Y-2037011D01*
X23696443Y-2193533D01*
X23696443Y-2193534D01*
X23747963Y-2363373D01*
X23765359Y-2540000D01*
X23747963Y-2716627D01*
X23713616Y-2829853D01*
X23696443Y-2886467D01*
X23682620Y-2912327D01*
X23612778Y-3042991D01*
X23583448Y-3078729D01*
X23500186Y-3180186D01*
X23398729Y-3263448D01*
X23362991Y-3292778D01*
X23362989Y-3292779D01*
X23206467Y-3376443D01*
X23149853Y-3393616D01*
X23036627Y-3427963D01*
X22970443Y-3434481D01*
X22904260Y-3441000D01*
X22815740Y-3441000D01*
X22749557Y-3434481D01*
X22683373Y-3427963D01*
X22570147Y-3393616D01*
X22513533Y-3376443D01*
X22357011Y-3292779D01*
X22357009Y-3292778D01*
X22321271Y-3263448D01*
X22219814Y-3180186D01*
X22136552Y-3078729D01*
X22107222Y-3042991D01*
X22037380Y-2912327D01*
X22023557Y-2886467D01*
X22006384Y-2829853D01*
X21972037Y-2716627D01*
X21954641Y-2540000D01*
X21972037Y-2363373D01*
X22023557Y-2193534D01*
X22023557Y-2193533D01*
X22107221Y-2037011D01*
X22107222Y-2037009D01*
X22139582Y-1997579D01*
X22219814Y-1899814D01*
X22321271Y-1816552D01*
X22357009Y-1787222D01*
X22374913Y-1777652D01*
X22513533Y-1703557D01*
X22570147Y-1686384D01*
X22683373Y-1652037D01*
X22749557Y-1645519D01*
X22815740Y-1639000D01*
X22904260Y-1639000D01*
X22970443Y-1645519D01*
X22970443Y-1645519D01*
G37*
G36*
X43290443Y-1645519D02*
X43356627Y-1652037D01*
X43469853Y-1686384D01*
X43526467Y-1703557D01*
X43665087Y-1777652D01*
X43682991Y-1787222D01*
X43718729Y-1816552D01*
X43820186Y-1899814D01*
X43900418Y-1997579D01*
X43932778Y-2037009D01*
X43932779Y-2037011D01*
X44016443Y-2193533D01*
X44016443Y-2193534D01*
X44067963Y-2363373D01*
X44085359Y-2540000D01*
X44067963Y-2716627D01*
X44033616Y-2829853D01*
X44016443Y-2886467D01*
X44002620Y-2912327D01*
X43932778Y-3042991D01*
X43903448Y-3078729D01*
X43820186Y-3180186D01*
X43718729Y-3263448D01*
X43682991Y-3292778D01*
X43682989Y-3292779D01*
X43526467Y-3376443D01*
X43469853Y-3393616D01*
X43356627Y-3427963D01*
X43290443Y-3434481D01*
X43224260Y-3441000D01*
X43135740Y-3441000D01*
X43069557Y-3434481D01*
X43003373Y-3427963D01*
X42890147Y-3393616D01*
X42833533Y-3376443D01*
X42677011Y-3292779D01*
X42677009Y-3292778D01*
X42641271Y-3263448D01*
X42539814Y-3180186D01*
X42456552Y-3078729D01*
X42427222Y-3042991D01*
X42357380Y-2912327D01*
X42343557Y-2886467D01*
X42326384Y-2829853D01*
X42292037Y-2716627D01*
X42274641Y-2540000D01*
X42292037Y-2363373D01*
X42343557Y-2193534D01*
X42343557Y-2193533D01*
X42427221Y-2037011D01*
X42427222Y-2037009D01*
X42459582Y-1997579D01*
X42539814Y-1899814D01*
X42641271Y-1816552D01*
X42677009Y-1787222D01*
X42694913Y-1777652D01*
X42833533Y-1703557D01*
X42890147Y-1686384D01*
X43003373Y-1652037D01*
X43069557Y-1645519D01*
X43135740Y-1639000D01*
X43224260Y-1639000D01*
X43290443Y-1645519D01*
X43290443Y-1645519D01*
G37*
G36*
X2650443Y-1645519D02*
X2716627Y-1652037D01*
X2829853Y-1686384D01*
X2886467Y-1703557D01*
X3025087Y-1777652D01*
X3042991Y-1787222D01*
X3078729Y-1816552D01*
X3180186Y-1899814D01*
X3260418Y-1997579D01*
X3292778Y-2037009D01*
X3292779Y-2037011D01*
X3376443Y-2193533D01*
X3376443Y-2193534D01*
X3427963Y-2363373D01*
X3445359Y-2540000D01*
X3427963Y-2716627D01*
X3393616Y-2829853D01*
X3376443Y-2886467D01*
X3362620Y-2912327D01*
X3292778Y-3042991D01*
X3263448Y-3078729D01*
X3180186Y-3180186D01*
X3078729Y-3263448D01*
X3042991Y-3292778D01*
X3042989Y-3292779D01*
X2886467Y-3376443D01*
X2829853Y-3393616D01*
X2716627Y-3427963D01*
X2650443Y-3434481D01*
X2584260Y-3441000D01*
X2495740Y-3441000D01*
X2429557Y-3434481D01*
X2363373Y-3427963D01*
X2250147Y-3393616D01*
X2193533Y-3376443D01*
X2037011Y-3292779D01*
X2037009Y-3292778D01*
X2001271Y-3263448D01*
X1899814Y-3180186D01*
X1816552Y-3078729D01*
X1787222Y-3042991D01*
X1717380Y-2912327D01*
X1703557Y-2886467D01*
X1686384Y-2829853D01*
X1652037Y-2716627D01*
X1634641Y-2540000D01*
X1652037Y-2363373D01*
X1703557Y-2193534D01*
X1703557Y-2193533D01*
X1787221Y-2037011D01*
X1787222Y-2037009D01*
X1819582Y-1997579D01*
X1899814Y-1899814D01*
X2001271Y-1816552D01*
X2037009Y-1787222D01*
X2054913Y-1777652D01*
X2193533Y-1703557D01*
X2250147Y-1686384D01*
X2363373Y-1652037D01*
X2429557Y-1645519D01*
X2495740Y-1639000D01*
X2584260Y-1639000D01*
X2650443Y-1645519D01*
X2650443Y-1645519D01*
G37*
G36*
X12831552Y-1608331D02*
X12913625Y-1642327D01*
X12913626Y-1642328D01*
X12913629Y-1642329D01*
X12987496Y-1691686D01*
X12987500Y-1691689D01*
X13050311Y-1754500D01*
X13050313Y-1754503D01*
X13050314Y-1754504D01*
X13099671Y-1828371D01*
X13099672Y-1828374D01*
X13099673Y-1828375D01*
X13133669Y-1910448D01*
X13151000Y-1997579D01*
X13151000Y-2086421D01*
X13133669Y-2173552D01*
X13099673Y-2255625D01*
X13099671Y-2255629D01*
X13050314Y-2329496D01*
X13050311Y-2329500D01*
X12987500Y-2392311D01*
X12987497Y-2392313D01*
X12987496Y-2392314D01*
X12913629Y-2441671D01*
X12913626Y-2441672D01*
X12913625Y-2441673D01*
X12831552Y-2475669D01*
X12744421Y-2493000D01*
X12655579Y-2493000D01*
X12568448Y-2475669D01*
X12486375Y-2441673D01*
X12486374Y-2441672D01*
X12486371Y-2441671D01*
X12412504Y-2392314D01*
X12412503Y-2392313D01*
X12412500Y-2392311D01*
X12349689Y-2329500D01*
X12349686Y-2329496D01*
X12300329Y-2255629D01*
X12300327Y-2255625D01*
X12266331Y-2173552D01*
X12249000Y-2086421D01*
X12249000Y-1997579D01*
X12266331Y-1910448D01*
X12300327Y-1828375D01*
X12300328Y-1828374D01*
X12300329Y-1828371D01*
X12349686Y-1754504D01*
X12349687Y-1754503D01*
X12349689Y-1754500D01*
X12412500Y-1691689D01*
X12412504Y-1691686D01*
X12486371Y-1642329D01*
X12486374Y-1642328D01*
X12486375Y-1642327D01*
X12568448Y-1608331D01*
X12655579Y-1591000D01*
X12744421Y-1591000D01*
X12831552Y-1608331D01*
X12831552Y-1608331D01*
G37*
G36*
X14101552Y-1608331D02*
X14183625Y-1642327D01*
X14183626Y-1642328D01*
X14183629Y-1642329D01*
X14257496Y-1691686D01*
X14257500Y-1691689D01*
X14320311Y-1754500D01*
X14320313Y-1754503D01*
X14320314Y-1754504D01*
X14369671Y-1828371D01*
X14369672Y-1828374D01*
X14369673Y-1828375D01*
X14403669Y-1910448D01*
X14421000Y-1997579D01*
X14421000Y-2086421D01*
X14403669Y-2173552D01*
X14369673Y-2255625D01*
X14369671Y-2255629D01*
X14320314Y-2329496D01*
X14320311Y-2329500D01*
X14257500Y-2392311D01*
X14257497Y-2392313D01*
X14257496Y-2392314D01*
X14183629Y-2441671D01*
X14183626Y-2441672D01*
X14183625Y-2441673D01*
X14101552Y-2475669D01*
X14014421Y-2493000D01*
X13925579Y-2493000D01*
X13838448Y-2475669D01*
X13756375Y-2441673D01*
X13756374Y-2441672D01*
X13756371Y-2441671D01*
X13682504Y-2392314D01*
X13682503Y-2392313D01*
X13682500Y-2392311D01*
X13619689Y-2329500D01*
X13619686Y-2329496D01*
X13570329Y-2255629D01*
X13570327Y-2255625D01*
X13536331Y-2173552D01*
X13519000Y-2086421D01*
X13519000Y-1997579D01*
X13536331Y-1910448D01*
X13570327Y-1828375D01*
X13570328Y-1828374D01*
X13570329Y-1828371D01*
X13619686Y-1754504D01*
X13619687Y-1754503D01*
X13619689Y-1754500D01*
X13682500Y-1691689D01*
X13682504Y-1691686D01*
X13756371Y-1642329D01*
X13756374Y-1642328D01*
X13756375Y-1642327D01*
X13838448Y-1608331D01*
X13925579Y-1591000D01*
X14014421Y-1591000D01*
X14101552Y-1608331D01*
X14101552Y-1608331D01*
G37*
G36*
X10291552Y-1608331D02*
X10373625Y-1642327D01*
X10373626Y-1642328D01*
X10373629Y-1642329D01*
X10447496Y-1691686D01*
X10447500Y-1691689D01*
X10510311Y-1754500D01*
X10510313Y-1754503D01*
X10510314Y-1754504D01*
X10559671Y-1828371D01*
X10559672Y-1828374D01*
X10559673Y-1828375D01*
X10593669Y-1910448D01*
X10611000Y-1997579D01*
X10611000Y-2086421D01*
X10593669Y-2173552D01*
X10559673Y-2255625D01*
X10559671Y-2255629D01*
X10510314Y-2329496D01*
X10510311Y-2329500D01*
X10447500Y-2392311D01*
X10447497Y-2392313D01*
X10447496Y-2392314D01*
X10373629Y-2441671D01*
X10373626Y-2441672D01*
X10373625Y-2441673D01*
X10291552Y-2475669D01*
X10204421Y-2493000D01*
X10115579Y-2493000D01*
X10028448Y-2475669D01*
X9946375Y-2441673D01*
X9946374Y-2441672D01*
X9946371Y-2441671D01*
X9872504Y-2392314D01*
X9872503Y-2392313D01*
X9872500Y-2392311D01*
X9809689Y-2329500D01*
X9809686Y-2329496D01*
X9760329Y-2255629D01*
X9760327Y-2255625D01*
X9726331Y-2173552D01*
X9709000Y-2086421D01*
X9709000Y-1997579D01*
X9726331Y-1910448D01*
X9760327Y-1828375D01*
X9760328Y-1828374D01*
X9760329Y-1828371D01*
X9809686Y-1754504D01*
X9809687Y-1754503D01*
X9809689Y-1754500D01*
X9872500Y-1691689D01*
X9872504Y-1691686D01*
X9946371Y-1642329D01*
X9946374Y-1642328D01*
X9946375Y-1642327D01*
X10028448Y-1608331D01*
X10115579Y-1591000D01*
X10204421Y-1591000D01*
X10291552Y-1608331D01*
X10291552Y-1608331D01*
G37*
G36*
X9021552Y-1608331D02*
X9103625Y-1642327D01*
X9103626Y-1642328D01*
X9103629Y-1642329D01*
X9177496Y-1691686D01*
X9177500Y-1691689D01*
X9240311Y-1754500D01*
X9240313Y-1754503D01*
X9240314Y-1754504D01*
X9289671Y-1828371D01*
X9289672Y-1828374D01*
X9289673Y-1828375D01*
X9323669Y-1910448D01*
X9341000Y-1997579D01*
X9341000Y-2086421D01*
X9323669Y-2173552D01*
X9289673Y-2255625D01*
X9289671Y-2255629D01*
X9240314Y-2329496D01*
X9240311Y-2329500D01*
X9177500Y-2392311D01*
X9177497Y-2392313D01*
X9177496Y-2392314D01*
X9103629Y-2441671D01*
X9103626Y-2441672D01*
X9103625Y-2441673D01*
X9021552Y-2475669D01*
X8934421Y-2493000D01*
X8845579Y-2493000D01*
X8758448Y-2475669D01*
X8676375Y-2441673D01*
X8676374Y-2441672D01*
X8676371Y-2441671D01*
X8602504Y-2392314D01*
X8602503Y-2392313D01*
X8602500Y-2392311D01*
X8539689Y-2329500D01*
X8539686Y-2329496D01*
X8490329Y-2255629D01*
X8490327Y-2255625D01*
X8456331Y-2173552D01*
X8439000Y-2086421D01*
X8439000Y-1997579D01*
X8456331Y-1910448D01*
X8490327Y-1828375D01*
X8490328Y-1828374D01*
X8490329Y-1828371D01*
X8539686Y-1754504D01*
X8539687Y-1754503D01*
X8539689Y-1754500D01*
X8602500Y-1691689D01*
X8602504Y-1691686D01*
X8676371Y-1642329D01*
X8676374Y-1642328D01*
X8676375Y-1642327D01*
X8758448Y-1608331D01*
X8845579Y-1591000D01*
X8934421Y-1591000D01*
X9021552Y-1608331D01*
X9021552Y-1608331D01*
G37*
G36*
X11561552Y-1608331D02*
X11643625Y-1642327D01*
X11643626Y-1642328D01*
X11643629Y-1642329D01*
X11717496Y-1691686D01*
X11717500Y-1691689D01*
X11780311Y-1754500D01*
X11780313Y-1754503D01*
X11780314Y-1754504D01*
X11829671Y-1828371D01*
X11829672Y-1828374D01*
X11829673Y-1828375D01*
X11863669Y-1910448D01*
X11881000Y-1997579D01*
X11881000Y-2086421D01*
X11863669Y-2173552D01*
X11829673Y-2255625D01*
X11829671Y-2255629D01*
X11780314Y-2329496D01*
X11780311Y-2329500D01*
X11717500Y-2392311D01*
X11717497Y-2392313D01*
X11717496Y-2392314D01*
X11643629Y-2441671D01*
X11643626Y-2441672D01*
X11643625Y-2441673D01*
X11561552Y-2475669D01*
X11474421Y-2493000D01*
X11385579Y-2493000D01*
X11298448Y-2475669D01*
X11216375Y-2441673D01*
X11216374Y-2441672D01*
X11216371Y-2441671D01*
X11142504Y-2392314D01*
X11142503Y-2392313D01*
X11142500Y-2392311D01*
X11079689Y-2329500D01*
X11079686Y-2329496D01*
X11030329Y-2255629D01*
X11030327Y-2255625D01*
X10996331Y-2173552D01*
X10979000Y-2086421D01*
X10979000Y-1997579D01*
X10996331Y-1910448D01*
X11030327Y-1828375D01*
X11030328Y-1828374D01*
X11030329Y-1828371D01*
X11079686Y-1754504D01*
X11079687Y-1754503D01*
X11079689Y-1754500D01*
X11142500Y-1691689D01*
X11142504Y-1691686D01*
X11216371Y-1642329D01*
X11216374Y-1642328D01*
X11216375Y-1642327D01*
X11298448Y-1608331D01*
X11385579Y-1591000D01*
X11474421Y-1591000D01*
X11561552Y-1608331D01*
X11561552Y-1608331D01*
G37*
G36*
X110442Y894482D02*
X176627Y887963D01*
X289853Y853616D01*
X346467Y836443D01*
X485087Y762348D01*
X502991Y752778D01*
X538729Y723448D01*
X640186Y640186D01*
X723448Y538729D01*
X752778Y502991D01*
X752779Y502989D01*
X836443Y346467D01*
X836443Y346466D01*
X887963Y176627D01*
X905359Y0D01*
X887963Y-176627D01*
X853616Y-289853D01*
X836443Y-346467D01*
X762348Y-485087D01*
X752778Y-502991D01*
X723448Y-538729D01*
X640186Y-640186D01*
X538729Y-723448D01*
X502991Y-752778D01*
X502989Y-752779D01*
X346467Y-836443D01*
X289853Y-853616D01*
X176627Y-887963D01*
X110442Y-894482D01*
X44260Y-901000D01*
X-44260Y-901000D01*
X-110442Y-894482D01*
X-176627Y-887963D01*
X-289853Y-853616D01*
X-346467Y-836443D01*
X-502989Y-752779D01*
X-502991Y-752778D01*
X-538729Y-723448D01*
X-640186Y-640186D01*
X-723448Y-538729D01*
X-752778Y-502991D01*
X-762348Y-485087D01*
X-836443Y-346467D01*
X-853616Y-289853D01*
X-887963Y-176627D01*
X-905359Y0D01*
X-887963Y176627D01*
X-836443Y346466D01*
X-836443Y346467D01*
X-752779Y502989D01*
X-752778Y502991D01*
X-723448Y538729D01*
X-640186Y640186D01*
X-538729Y723448D01*
X-502991Y752778D01*
X-485087Y762348D01*
X-346467Y836443D01*
X-289853Y853616D01*
X-176627Y887963D01*
X-110442Y894482D01*
X-44260Y901000D01*
X44260Y901000D01*
X110442Y894482D01*
X110442Y894482D01*
G37*
G36*
X59321000Y-901000D02*
X57519000Y-901000D01*
X57519000Y901000D01*
X59321000Y901000D01*
X59321000Y-901000D01*
X59321000Y-901000D01*
G37*
G36*
X40750442Y894482D02*
X40816627Y887963D01*
X40929853Y853616D01*
X40986467Y836443D01*
X41125087Y762348D01*
X41142991Y752778D01*
X41178729Y723448D01*
X41280186Y640186D01*
X41363448Y538729D01*
X41392778Y502991D01*
X41392779Y502989D01*
X41476443Y346467D01*
X41476443Y346466D01*
X41527963Y176627D01*
X41545359Y0D01*
X41527963Y-176627D01*
X41493616Y-289853D01*
X41476443Y-346467D01*
X41402348Y-485087D01*
X41392778Y-502991D01*
X41363448Y-538729D01*
X41280186Y-640186D01*
X41178729Y-723448D01*
X41142991Y-752778D01*
X41142989Y-752779D01*
X40986467Y-836443D01*
X40929853Y-853616D01*
X40816627Y-887963D01*
X40750442Y-894482D01*
X40684260Y-901000D01*
X40595740Y-901000D01*
X40529558Y-894482D01*
X40463373Y-887963D01*
X40350147Y-853616D01*
X40293533Y-836443D01*
X40137011Y-752779D01*
X40137009Y-752778D01*
X40101271Y-723448D01*
X39999814Y-640186D01*
X39916552Y-538729D01*
X39887222Y-502991D01*
X39877652Y-485087D01*
X39803557Y-346467D01*
X39786384Y-289853D01*
X39752037Y-176627D01*
X39734641Y0D01*
X39752037Y176627D01*
X39803557Y346466D01*
X39803557Y346467D01*
X39887221Y502989D01*
X39887222Y502991D01*
X39916552Y538729D01*
X39999814Y640186D01*
X40101271Y723448D01*
X40137009Y752778D01*
X40154913Y762348D01*
X40293533Y836443D01*
X40350147Y853616D01*
X40463373Y887963D01*
X40529558Y894482D01*
X40595740Y901000D01*
X40684260Y901000D01*
X40750442Y894482D01*
X40750442Y894482D01*
G37*
G36*
X44081000Y-901000D02*
X42279000Y-901000D01*
X42279000Y901000D01*
X44081000Y901000D01*
X44081000Y-901000D01*
X44081000Y-901000D01*
G37*
G36*
X26301000Y-901000D02*
X24499000Y-901000D01*
X24499000Y901000D01*
X26301000Y901000D01*
X26301000Y-901000D01*
X26301000Y-901000D01*
G37*
G36*
X22970442Y894482D02*
X23036627Y887963D01*
X23149853Y853616D01*
X23206467Y836443D01*
X23345087Y762348D01*
X23362991Y752778D01*
X23398729Y723448D01*
X23500186Y640186D01*
X23583448Y538729D01*
X23612778Y502991D01*
X23612779Y502989D01*
X23696443Y346467D01*
X23696443Y346466D01*
X23747963Y176627D01*
X23765359Y0D01*
X23747963Y-176627D01*
X23713616Y-289853D01*
X23696443Y-346467D01*
X23622348Y-485087D01*
X23612778Y-502991D01*
X23583448Y-538729D01*
X23500186Y-640186D01*
X23398729Y-723448D01*
X23362991Y-752778D01*
X23362989Y-752779D01*
X23206467Y-836443D01*
X23149853Y-853616D01*
X23036627Y-887963D01*
X22970442Y-894482D01*
X22904260Y-901000D01*
X22815740Y-901000D01*
X22749558Y-894482D01*
X22683373Y-887963D01*
X22570147Y-853616D01*
X22513533Y-836443D01*
X22357011Y-752779D01*
X22357009Y-752778D01*
X22321271Y-723448D01*
X22219814Y-640186D01*
X22136552Y-538729D01*
X22107222Y-502991D01*
X22097652Y-485087D01*
X22023557Y-346467D01*
X22006384Y-289853D01*
X21972037Y-176627D01*
X21954641Y0D01*
X21972037Y176627D01*
X22023557Y346466D01*
X22023557Y346467D01*
X22107221Y502989D01*
X22107222Y502991D01*
X22136552Y538729D01*
X22219814Y640186D01*
X22321271Y723448D01*
X22357009Y752778D01*
X22374913Y762348D01*
X22513533Y836443D01*
X22570147Y853616D01*
X22683373Y887963D01*
X22749558Y894482D01*
X22815740Y901000D01*
X22904260Y901000D01*
X22970442Y894482D01*
X22970442Y894482D01*
G37*
G36*
X3441000Y-901000D02*
X1639000Y-901000D01*
X1639000Y901000D01*
X3441000Y901000D01*
X3441000Y-901000D01*
X3441000Y-901000D01*
G37*
G36*
X55990442Y894482D02*
X56056627Y887963D01*
X56169853Y853616D01*
X56226467Y836443D01*
X56365087Y762348D01*
X56382991Y752778D01*
X56418729Y723448D01*
X56520186Y640186D01*
X56603448Y538729D01*
X56632778Y502991D01*
X56632779Y502989D01*
X56716443Y346467D01*
X56716443Y346466D01*
X56767963Y176627D01*
X56785359Y0D01*
X56767963Y-176627D01*
X56733616Y-289853D01*
X56716443Y-346467D01*
X56642348Y-485087D01*
X56632778Y-502991D01*
X56603448Y-538729D01*
X56520186Y-640186D01*
X56418729Y-723448D01*
X56382991Y-752778D01*
X56382989Y-752779D01*
X56226467Y-836443D01*
X56169853Y-853616D01*
X56056627Y-887963D01*
X55990442Y-894482D01*
X55924260Y-901000D01*
X55835740Y-901000D01*
X55769558Y-894482D01*
X55703373Y-887963D01*
X55590147Y-853616D01*
X55533533Y-836443D01*
X55377011Y-752779D01*
X55377009Y-752778D01*
X55341271Y-723448D01*
X55239814Y-640186D01*
X55156552Y-538729D01*
X55127222Y-502991D01*
X55117652Y-485087D01*
X55043557Y-346467D01*
X55026384Y-289853D01*
X54992037Y-176627D01*
X54974641Y0D01*
X54992037Y176627D01*
X55043557Y346466D01*
X55043557Y346467D01*
X55127221Y502989D01*
X55127222Y502991D01*
X55156552Y538729D01*
X55239814Y640186D01*
X55341271Y723448D01*
X55377009Y752778D01*
X55394913Y762348D01*
X55533533Y836443D01*
X55590147Y853616D01*
X55703373Y887963D01*
X55769558Y894482D01*
X55835740Y901000D01*
X55924260Y901000D01*
X55990442Y894482D01*
X55990442Y894482D01*
G37*
M02*
