M48
;DRILL file {KiCad (5.0.2)-1} date 1/13/2020 1:35:59 PM
;FORMAT={-:-/ absolute / inch / decimal}
FMAT,2
INCH,TZ
T1C0.0157
T2C0.0197
T3C0.0350
T4C0.0394
T5C0.0618
%
G90
G05
T1
X0.24Y0.04
X0.24Y-0.18
X0.24Y-0.23
X0.24Y-0.41
X0.26Y-0.51
X0.26Y-1.36
X0.28Y-0.61
X0.28Y-0.96
X0.28Y-1.02
X0.28Y-1.08
X0.28Y-1.14
X0.28Y-1.14
X0.29Y0.04
X0.29Y-0.18
X0.29Y-0.23
X0.2962Y-0.71
X0.3Y-1.38
X0.31Y-0.93
X0.31Y-0.99
X0.31Y-1.05
X0.31Y-1.11
X0.34Y-1.4
X0.38Y-1.42
X0.39Y-1.6
X0.4Y-0.22
X0.4Y-0.27
X0.4Y-0.32
X0.4Y-0.65
X0.43Y-0.62
X0.44Y0.0753
X0.44Y0.02
X0.44Y-1.32
X0.44Y-1.56
X0.44Y-1.64
X0.48Y-1.3
X0.55Y-0.2
X0.56Y-1.29
X0.57Y-1.6
X0.58Y-0.17
X0.59Y-0.93
X0.61Y-0.04
X0.61Y-0.11
X0.61Y-1.6
X0.65Y-0.73
X0.65Y-0.79
X0.65Y-0.98
X0.65Y-1.6
X0.66Y-0.11
X0.66Y-0.18
X0.66Y-0.04
X0.69Y-0.83
X0.73Y-0.83
X0.77Y-1.7
X0.79Y-0.89
X0.83Y-0.89
X0.84Y-0.73
X0.84Y-0.79
X0.85Y-0.98
X0.87Y-1.6
X0.9Y-1.7
X0.91Y-1.6
X0.92Y-0.9
X0.95Y-1.6
X0.96Y-0.87
X1.05Y-1.28
X1.07Y-0.52
X1.07Y-1.38
X1.07Y-1.6
X1.08Y-1.25
X1.11Y-1.22
X1.14Y-1.16
X1.17Y-1.13
X1.17Y-1.19
X1.17Y-1.24
X1.2Y0.
X1.2Y-0.1
X1.2Y-0.39
X1.2Y-0.95
X1.2Y-1.27
X1.2Y-1.65
X1.23Y-0.98
X1.23Y-1.24
X1.23Y-1.54
X1.24Y-0.39
X1.26Y-1.27
X1.26Y-1.39
X1.29Y-1.24
X1.29Y-1.3
X1.3Y0.
X1.3Y-0.1
X1.3Y-1.69
X1.32Y-1.27
X1.35Y-0.93
X1.4Y0.
X1.4Y-0.1
X1.43Y-0.72
X1.43Y-1.21
X1.47Y-1.08
X1.5Y-0.96
X1.56Y-0.99
X1.57Y-1.09
X1.59Y-1.35
X1.61Y-0.75
X1.65Y-1.29
X1.6511Y-1.04
X1.69Y-0.75
X1.83Y-0.69
X1.83Y-1.04
X1.83Y-1.08
X1.92Y-1.6
X1.94Y-0.73
X1.97Y-1.6
X2.04Y-0.69
X2.09Y-0.69
T2
X0.35Y-0.0804
X0.35Y-0.1304
X0.4Y-0.0804
X0.4Y-0.1304
X0.45Y-0.0804
X0.45Y-0.1304
X0.5Y-0.0804
X0.5Y-0.1304
X0.55Y-0.0804
X0.55Y-0.1304
T3
X1.8302Y-0.8399
X1.8302Y-0.9301
X1.8302Y-1.2899
X1.8302Y-1.3801
X2.02Y-1.01
X2.02Y-1.0903
X2.02Y-1.1706
X2.02Y-1.2509
X2.0901Y-0.9698
X2.0901Y-1.0502
X2.0901Y-1.1305
X2.0901Y-1.2108
T4
X0.Y-0.9
X0.Y-1.
X0.Y-1.1
X0.Y-1.2
X0.Y-1.3
X0.Y-1.4
X0.Y-1.5
X0.Y-1.6
X0.1Y-0.9
X0.1Y-1.
X0.1Y-1.1
X0.1Y-1.2
X0.1Y-1.3
X0.1Y-1.4
X0.1Y-1.5
X0.1Y-1.6
X0.Y0.
X0.Y-0.1
X0.Y-0.2
X0.Y-0.3
X0.Y-0.4
X0.Y-0.5
X0.Y-0.6
X0.Y-0.7
X0.1Y0.
X0.1Y-0.1
X0.1Y-0.2
X0.1Y-0.3
X0.1Y-0.4
X0.1Y-0.5
X0.1Y-0.6
X0.1Y-0.7
X2.2Y0.
X2.2Y-0.1
X2.2Y-0.2
X2.2Y-0.3
X2.2Y-0.4
X2.2Y-0.5
X2.2Y-0.6
X2.2Y-0.7
X2.3Y0.
X2.3Y-0.1
X2.3Y-0.2
X2.3Y-0.3
X2.3Y-0.4
X2.3Y-0.5
X2.3Y-0.6
X2.3Y-0.7
X1.6Y0.
X1.6Y-0.1
X1.7Y0.
X1.7Y-0.1
X0.9Y0.
X0.9Y-0.1
X1.Y0.
X1.Y-0.1
T5
X2.055Y-0.7899
X2.055Y-1.4301
T0
M30
