G04 #@! TF.GenerationSoftware,KiCad,Pcbnew,(5.0.2)-1*
G04 #@! TF.CreationDate,2019-12-13T18:48:53-06:00*
G04 #@! TF.ProjectId,TM4C129-Breakout_Hardware,544d3443-3132-4392-9d42-7265616b6f75,rev?*
G04 #@! TF.SameCoordinates,Original*
G04 #@! TF.FileFunction,Legend,Bot*
G04 #@! TF.FilePolarity,Positive*
%FSLAX46Y46*%
G04 Gerber Fmt 4.6, Leading zero omitted, Abs format (unit mm)*
G04 Created by KiCad (PCBNEW (5.0.2)-1) date 12/13/2019 6:48:53 PM*
%MOMM*%
%LPD*%
G01*
G04 APERTURE LIST*
%ADD10C,0.300000*%
%ADD11C,0.120000*%
%ADD12C,0.010000*%
%ADD13C,0.150000*%
G04 APERTURE END LIST*
D10*
X159682142Y-35993571D02*
X158825000Y-35993571D01*
X159253571Y-37493571D02*
X159253571Y-35993571D01*
X158325000Y-37493571D02*
X158325000Y-35993571D01*
X157825000Y-37065000D01*
X157325000Y-35993571D01*
X157325000Y-37493571D01*
X155967857Y-36493571D02*
X155967857Y-37493571D01*
X156325000Y-35922142D02*
X156682142Y-36993571D01*
X155753571Y-36993571D01*
X154325000Y-37350714D02*
X154396428Y-37422142D01*
X154610714Y-37493571D01*
X154753571Y-37493571D01*
X154967857Y-37422142D01*
X155110714Y-37279285D01*
X155182142Y-37136428D01*
X155253571Y-36850714D01*
X155253571Y-36636428D01*
X155182142Y-36350714D01*
X155110714Y-36207857D01*
X154967857Y-36065000D01*
X154753571Y-35993571D01*
X154610714Y-35993571D01*
X154396428Y-36065000D01*
X154325000Y-36136428D01*
X152896428Y-37493571D02*
X153753571Y-37493571D01*
X153325000Y-37493571D02*
X153325000Y-35993571D01*
X153467857Y-36207857D01*
X153610714Y-36350714D01*
X153753571Y-36422142D01*
X152325000Y-36136428D02*
X152253571Y-36065000D01*
X152110714Y-35993571D01*
X151753571Y-35993571D01*
X151610714Y-36065000D01*
X151539285Y-36136428D01*
X151467857Y-36279285D01*
X151467857Y-36422142D01*
X151539285Y-36636428D01*
X152396428Y-37493571D01*
X151467857Y-37493571D01*
X150753571Y-37493571D02*
X150467857Y-37493571D01*
X150325000Y-37422142D01*
X150253571Y-37350714D01*
X150110714Y-37136428D01*
X150039285Y-36850714D01*
X150039285Y-36279285D01*
X150110714Y-36136428D01*
X150182142Y-36065000D01*
X150325000Y-35993571D01*
X150610714Y-35993571D01*
X150753571Y-36065000D01*
X150825000Y-36136428D01*
X150896428Y-36279285D01*
X150896428Y-36636428D01*
X150825000Y-36779285D01*
X150753571Y-36850714D01*
X150610714Y-36922142D01*
X150325000Y-36922142D01*
X150182142Y-36850714D01*
X150110714Y-36779285D01*
X150039285Y-36636428D01*
X147753571Y-36707857D02*
X147539285Y-36779285D01*
X147467857Y-36850714D01*
X147396428Y-36993571D01*
X147396428Y-37207857D01*
X147467857Y-37350714D01*
X147539285Y-37422142D01*
X147682142Y-37493571D01*
X148253571Y-37493571D01*
X148253571Y-35993571D01*
X147753571Y-35993571D01*
X147610714Y-36065000D01*
X147539285Y-36136428D01*
X147467857Y-36279285D01*
X147467857Y-36422142D01*
X147539285Y-36565000D01*
X147610714Y-36636428D01*
X147753571Y-36707857D01*
X148253571Y-36707857D01*
X146753571Y-37493571D02*
X146753571Y-36493571D01*
X146753571Y-36779285D02*
X146682142Y-36636428D01*
X146610714Y-36565000D01*
X146467857Y-36493571D01*
X146325000Y-36493571D01*
X145253571Y-37422142D02*
X145396428Y-37493571D01*
X145682142Y-37493571D01*
X145825000Y-37422142D01*
X145896428Y-37279285D01*
X145896428Y-36707857D01*
X145825000Y-36565000D01*
X145682142Y-36493571D01*
X145396428Y-36493571D01*
X145253571Y-36565000D01*
X145182142Y-36707857D01*
X145182142Y-36850714D01*
X145896428Y-36993571D01*
X143896428Y-37493571D02*
X143896428Y-36707857D01*
X143967857Y-36565000D01*
X144110714Y-36493571D01*
X144396428Y-36493571D01*
X144539285Y-36565000D01*
X143896428Y-37422142D02*
X144039285Y-37493571D01*
X144396428Y-37493571D01*
X144539285Y-37422142D01*
X144610714Y-37279285D01*
X144610714Y-37136428D01*
X144539285Y-36993571D01*
X144396428Y-36922142D01*
X144039285Y-36922142D01*
X143896428Y-36850714D01*
X143182142Y-37493571D02*
X143182142Y-35993571D01*
X143039285Y-36922142D02*
X142610714Y-37493571D01*
X142610714Y-36493571D02*
X143182142Y-37065000D01*
X141753571Y-37493571D02*
X141896428Y-37422142D01*
X141967857Y-37350714D01*
X142039285Y-37207857D01*
X142039285Y-36779285D01*
X141967857Y-36636428D01*
X141896428Y-36565000D01*
X141753571Y-36493571D01*
X141539285Y-36493571D01*
X141396428Y-36565000D01*
X141325000Y-36636428D01*
X141253571Y-36779285D01*
X141253571Y-37207857D01*
X141325000Y-37350714D01*
X141396428Y-37422142D01*
X141539285Y-37493571D01*
X141753571Y-37493571D01*
X139967857Y-36493571D02*
X139967857Y-37493571D01*
X140610714Y-36493571D02*
X140610714Y-37279285D01*
X140539285Y-37422142D01*
X140396428Y-37493571D01*
X140182142Y-37493571D01*
X140039285Y-37422142D01*
X139967857Y-37350714D01*
X139467857Y-36493571D02*
X138896428Y-36493571D01*
X139253571Y-35993571D02*
X139253571Y-37279285D01*
X139182142Y-37422142D01*
X139039285Y-37493571D01*
X138896428Y-37493571D01*
X138325000Y-37422142D02*
X138325000Y-37493571D01*
X138396428Y-37636428D01*
X138467857Y-37707857D01*
X135682142Y-37493571D02*
X136182142Y-36779285D01*
X136539285Y-37493571D02*
X136539285Y-35993571D01*
X135967857Y-35993571D01*
X135825000Y-36065000D01*
X135753571Y-36136428D01*
X135682142Y-36279285D01*
X135682142Y-36493571D01*
X135753571Y-36636428D01*
X135825000Y-36707857D01*
X135967857Y-36779285D01*
X136539285Y-36779285D01*
X134467857Y-37422142D02*
X134610714Y-37493571D01*
X134896428Y-37493571D01*
X135039285Y-37422142D01*
X135110714Y-37279285D01*
X135110714Y-36707857D01*
X135039285Y-36565000D01*
X134896428Y-36493571D01*
X134610714Y-36493571D01*
X134467857Y-36565000D01*
X134396428Y-36707857D01*
X134396428Y-36850714D01*
X135110714Y-36993571D01*
X133896428Y-36493571D02*
X133539285Y-37493571D01*
X133182142Y-36493571D01*
X130682142Y-37493571D02*
X131539285Y-37493571D01*
X131110714Y-37493571D02*
X131110714Y-35993571D01*
X131253571Y-36207857D01*
X131396428Y-36350714D01*
X131539285Y-36422142D01*
X159467857Y-40043571D02*
X159467857Y-38543571D01*
X158967857Y-39615000D01*
X158467857Y-38543571D01*
X158467857Y-40043571D01*
X157110714Y-40043571D02*
X157110714Y-39257857D01*
X157182142Y-39115000D01*
X157325000Y-39043571D01*
X157610714Y-39043571D01*
X157753571Y-39115000D01*
X157110714Y-39972142D02*
X157253571Y-40043571D01*
X157610714Y-40043571D01*
X157753571Y-39972142D01*
X157825000Y-39829285D01*
X157825000Y-39686428D01*
X157753571Y-39543571D01*
X157610714Y-39472142D01*
X157253571Y-39472142D01*
X157110714Y-39400714D01*
X156396428Y-40043571D02*
X156396428Y-39043571D01*
X156396428Y-39329285D02*
X156325000Y-39186428D01*
X156253571Y-39115000D01*
X156110714Y-39043571D01*
X155967857Y-39043571D01*
X155539285Y-39972142D02*
X155396428Y-40043571D01*
X155110714Y-40043571D01*
X154967857Y-39972142D01*
X154896428Y-39829285D01*
X154896428Y-39757857D01*
X154967857Y-39615000D01*
X155110714Y-39543571D01*
X155325000Y-39543571D01*
X155467857Y-39472142D01*
X155539285Y-39329285D01*
X155539285Y-39257857D01*
X155467857Y-39115000D01*
X155325000Y-39043571D01*
X155110714Y-39043571D01*
X154967857Y-39115000D01*
X152253571Y-40043571D02*
X152753571Y-39329285D01*
X153110714Y-40043571D02*
X153110714Y-38543571D01*
X152539285Y-38543571D01*
X152396428Y-38615000D01*
X152325000Y-38686428D01*
X152253571Y-38829285D01*
X152253571Y-39043571D01*
X152325000Y-39186428D01*
X152396428Y-39257857D01*
X152539285Y-39329285D01*
X153110714Y-39329285D01*
X151396428Y-40043571D02*
X151539285Y-39972142D01*
X151610714Y-39900714D01*
X151682142Y-39757857D01*
X151682142Y-39329285D01*
X151610714Y-39186428D01*
X151539285Y-39115000D01*
X151396428Y-39043571D01*
X151182142Y-39043571D01*
X151039285Y-39115000D01*
X150967857Y-39186428D01*
X150896428Y-39329285D01*
X150896428Y-39757857D01*
X150967857Y-39900714D01*
X151039285Y-39972142D01*
X151182142Y-40043571D01*
X151396428Y-40043571D01*
X150396428Y-39043571D02*
X150039285Y-40043571D01*
X149682142Y-39043571D01*
X148539285Y-39972142D02*
X148682142Y-40043571D01*
X148967857Y-40043571D01*
X149110714Y-39972142D01*
X149182142Y-39829285D01*
X149182142Y-39257857D01*
X149110714Y-39115000D01*
X148967857Y-39043571D01*
X148682142Y-39043571D01*
X148539285Y-39115000D01*
X148467857Y-39257857D01*
X148467857Y-39400714D01*
X149182142Y-39543571D01*
X147825000Y-40043571D02*
X147825000Y-39043571D01*
X147825000Y-39329285D02*
X147753571Y-39186428D01*
X147682142Y-39115000D01*
X147539285Y-39043571D01*
X147396428Y-39043571D01*
X145753571Y-40043571D02*
X145753571Y-38543571D01*
X145396428Y-38543571D01*
X145182142Y-38615000D01*
X145039285Y-38757857D01*
X144967857Y-38900714D01*
X144896428Y-39186428D01*
X144896428Y-39400714D01*
X144967857Y-39686428D01*
X145039285Y-39829285D01*
X145182142Y-39972142D01*
X145396428Y-40043571D01*
X145753571Y-40043571D01*
X143682142Y-39972142D02*
X143825000Y-40043571D01*
X144110714Y-40043571D01*
X144253571Y-39972142D01*
X144325000Y-39829285D01*
X144325000Y-39257857D01*
X144253571Y-39115000D01*
X144110714Y-39043571D01*
X143825000Y-39043571D01*
X143682142Y-39115000D01*
X143610714Y-39257857D01*
X143610714Y-39400714D01*
X144325000Y-39543571D01*
X143039285Y-39972142D02*
X142896428Y-40043571D01*
X142610714Y-40043571D01*
X142467857Y-39972142D01*
X142396428Y-39829285D01*
X142396428Y-39757857D01*
X142467857Y-39615000D01*
X142610714Y-39543571D01*
X142825000Y-39543571D01*
X142967857Y-39472142D01*
X143039285Y-39329285D01*
X143039285Y-39257857D01*
X142967857Y-39115000D01*
X142825000Y-39043571D01*
X142610714Y-39043571D01*
X142467857Y-39115000D01*
X141753571Y-40043571D02*
X141753571Y-39043571D01*
X141753571Y-38543571D02*
X141825000Y-38615000D01*
X141753571Y-38686428D01*
X141682142Y-38615000D01*
X141753571Y-38543571D01*
X141753571Y-38686428D01*
X140396428Y-39043571D02*
X140396428Y-40257857D01*
X140467857Y-40400714D01*
X140539285Y-40472142D01*
X140682142Y-40543571D01*
X140896428Y-40543571D01*
X141039285Y-40472142D01*
X140396428Y-39972142D02*
X140539285Y-40043571D01*
X140825000Y-40043571D01*
X140967857Y-39972142D01*
X141039285Y-39900714D01*
X141110714Y-39757857D01*
X141110714Y-39329285D01*
X141039285Y-39186428D01*
X140967857Y-39115000D01*
X140825000Y-39043571D01*
X140539285Y-39043571D01*
X140396428Y-39115000D01*
X139682142Y-39043571D02*
X139682142Y-40043571D01*
X139682142Y-39186428D02*
X139610714Y-39115000D01*
X139467857Y-39043571D01*
X139253571Y-39043571D01*
X139110714Y-39115000D01*
X139039285Y-39257857D01*
X139039285Y-40043571D01*
X137396428Y-38543571D02*
X136539285Y-38543571D01*
X136967857Y-40043571D02*
X136967857Y-38543571D01*
X135467857Y-39972142D02*
X135610714Y-40043571D01*
X135896428Y-40043571D01*
X136039285Y-39972142D01*
X136110714Y-39829285D01*
X136110714Y-39257857D01*
X136039285Y-39115000D01*
X135896428Y-39043571D01*
X135610714Y-39043571D01*
X135467857Y-39115000D01*
X135396428Y-39257857D01*
X135396428Y-39400714D01*
X136110714Y-39543571D01*
X134110714Y-40043571D02*
X134110714Y-39257857D01*
X134182142Y-39115000D01*
X134325000Y-39043571D01*
X134610714Y-39043571D01*
X134753571Y-39115000D01*
X134110714Y-39972142D02*
X134253571Y-40043571D01*
X134610714Y-40043571D01*
X134753571Y-39972142D01*
X134825000Y-39829285D01*
X134825000Y-39686428D01*
X134753571Y-39543571D01*
X134610714Y-39472142D01*
X134253571Y-39472142D01*
X134110714Y-39400714D01*
X133396428Y-40043571D02*
X133396428Y-39043571D01*
X133396428Y-39186428D02*
X133325000Y-39115000D01*
X133182142Y-39043571D01*
X132967857Y-39043571D01*
X132825000Y-39115000D01*
X132753571Y-39257857D01*
X132753571Y-40043571D01*
X132753571Y-39257857D02*
X132682142Y-39115000D01*
X132539285Y-39043571D01*
X132325000Y-39043571D01*
X132182142Y-39115000D01*
X132110714Y-39257857D01*
X132110714Y-40043571D01*
X159467857Y-42593571D02*
X159467857Y-41093571D01*
X158967857Y-42165000D01*
X158467857Y-41093571D01*
X158467857Y-42593571D01*
X157753571Y-42593571D02*
X157753571Y-41593571D01*
X157753571Y-41093571D02*
X157825000Y-41165000D01*
X157753571Y-41236428D01*
X157682142Y-41165000D01*
X157753571Y-41093571D01*
X157753571Y-41236428D01*
X157110714Y-42522142D02*
X156967857Y-42593571D01*
X156682142Y-42593571D01*
X156539285Y-42522142D01*
X156467857Y-42379285D01*
X156467857Y-42307857D01*
X156539285Y-42165000D01*
X156682142Y-42093571D01*
X156896428Y-42093571D01*
X157039285Y-42022142D01*
X157110714Y-41879285D01*
X157110714Y-41807857D01*
X157039285Y-41665000D01*
X156896428Y-41593571D01*
X156682142Y-41593571D01*
X156539285Y-41665000D01*
X155896428Y-42522142D02*
X155753571Y-42593571D01*
X155467857Y-42593571D01*
X155325000Y-42522142D01*
X155253571Y-42379285D01*
X155253571Y-42307857D01*
X155325000Y-42165000D01*
X155467857Y-42093571D01*
X155682142Y-42093571D01*
X155825000Y-42022142D01*
X155896428Y-41879285D01*
X155896428Y-41807857D01*
X155825000Y-41665000D01*
X155682142Y-41593571D01*
X155467857Y-41593571D01*
X155325000Y-41665000D01*
X154396428Y-42593571D02*
X154539285Y-42522142D01*
X154610714Y-42450714D01*
X154682142Y-42307857D01*
X154682142Y-41879285D01*
X154610714Y-41736428D01*
X154539285Y-41665000D01*
X154396428Y-41593571D01*
X154182142Y-41593571D01*
X154039285Y-41665000D01*
X153967857Y-41736428D01*
X153896428Y-41879285D01*
X153896428Y-42307857D01*
X153967857Y-42450714D01*
X154039285Y-42522142D01*
X154182142Y-42593571D01*
X154396428Y-42593571D01*
X152610714Y-41593571D02*
X152610714Y-42593571D01*
X153253571Y-41593571D02*
X153253571Y-42379285D01*
X153182142Y-42522142D01*
X153039285Y-42593571D01*
X152825000Y-42593571D01*
X152682142Y-42522142D01*
X152610714Y-42450714D01*
X151896428Y-42593571D02*
X151896428Y-41593571D01*
X151896428Y-41879285D02*
X151825000Y-41736428D01*
X151753571Y-41665000D01*
X151610714Y-41593571D01*
X151467857Y-41593571D01*
X150967857Y-42593571D02*
X150967857Y-41593571D01*
X150967857Y-41093571D02*
X151039285Y-41165000D01*
X150967857Y-41236428D01*
X150896428Y-41165000D01*
X150967857Y-41093571D01*
X150967857Y-41236428D01*
X149182142Y-42522142D02*
X148967857Y-42593571D01*
X148610714Y-42593571D01*
X148467857Y-42522142D01*
X148396428Y-42450714D01*
X148325000Y-42307857D01*
X148325000Y-42165000D01*
X148396428Y-42022142D01*
X148467857Y-41950714D01*
X148610714Y-41879285D01*
X148896428Y-41807857D01*
X149039285Y-41736428D01*
X149110714Y-41665000D01*
X149182142Y-41522142D01*
X149182142Y-41379285D01*
X149110714Y-41236428D01*
X149039285Y-41165000D01*
X148896428Y-41093571D01*
X148539285Y-41093571D01*
X148325000Y-41165000D01*
X146467857Y-42593571D02*
X146539285Y-42593571D01*
X146682142Y-42522142D01*
X146896428Y-42307857D01*
X147253571Y-41879285D01*
X147396428Y-41665000D01*
X147467857Y-41450714D01*
X147467857Y-41307857D01*
X147396428Y-41165000D01*
X147253571Y-41093571D01*
X147182142Y-41093571D01*
X147039285Y-41165000D01*
X146967857Y-41307857D01*
X146967857Y-41379285D01*
X147039285Y-41522142D01*
X147110714Y-41593571D01*
X147539285Y-41879285D01*
X147610714Y-41950714D01*
X147682142Y-42093571D01*
X147682142Y-42307857D01*
X147610714Y-42450714D01*
X147539285Y-42522142D01*
X147396428Y-42593571D01*
X147182142Y-42593571D01*
X147039285Y-42522142D01*
X146967857Y-42450714D01*
X146753571Y-42165000D01*
X146682142Y-41950714D01*
X146682142Y-41807857D01*
X146039285Y-41093571D02*
X145182142Y-41093571D01*
X145610714Y-42593571D02*
X145610714Y-41093571D01*
X144610714Y-42522142D02*
X144610714Y-42593571D01*
X144682142Y-42736428D01*
X144753571Y-42807857D01*
X142896428Y-41236428D02*
X142825000Y-41165000D01*
X142682142Y-41093571D01*
X142325000Y-41093571D01*
X142182142Y-41165000D01*
X142110714Y-41236428D01*
X142039285Y-41379285D01*
X142039285Y-41522142D01*
X142110714Y-41736428D01*
X142967857Y-42593571D01*
X142039285Y-42593571D01*
X141110714Y-41093571D02*
X140967857Y-41093571D01*
X140825000Y-41165000D01*
X140753571Y-41236428D01*
X140682142Y-41379285D01*
X140610714Y-41665000D01*
X140610714Y-42022142D01*
X140682142Y-42307857D01*
X140753571Y-42450714D01*
X140825000Y-42522142D01*
X140967857Y-42593571D01*
X141110714Y-42593571D01*
X141253571Y-42522142D01*
X141325000Y-42450714D01*
X141396428Y-42307857D01*
X141467857Y-42022142D01*
X141467857Y-41665000D01*
X141396428Y-41379285D01*
X141325000Y-41236428D01*
X141253571Y-41165000D01*
X141110714Y-41093571D01*
X140039285Y-41236428D02*
X139967857Y-41165000D01*
X139825000Y-41093571D01*
X139467857Y-41093571D01*
X139325000Y-41165000D01*
X139253571Y-41236428D01*
X139182142Y-41379285D01*
X139182142Y-41522142D01*
X139253571Y-41736428D01*
X140110714Y-42593571D01*
X139182142Y-42593571D01*
X138253571Y-41093571D02*
X138110714Y-41093571D01*
X137967857Y-41165000D01*
X137896428Y-41236428D01*
X137825000Y-41379285D01*
X137753571Y-41665000D01*
X137753571Y-42022142D01*
X137825000Y-42307857D01*
X137896428Y-42450714D01*
X137967857Y-42522142D01*
X138110714Y-42593571D01*
X138253571Y-42593571D01*
X138396428Y-42522142D01*
X138467857Y-42450714D01*
X138539285Y-42307857D01*
X138610714Y-42022142D01*
X138610714Y-41665000D01*
X138539285Y-41379285D01*
X138467857Y-41236428D01*
X138396428Y-41165000D01*
X138253571Y-41093571D01*
X159539285Y-44715000D02*
X158825000Y-44715000D01*
X159682142Y-45143571D02*
X159182142Y-43643571D01*
X158682142Y-45143571D01*
X158182142Y-44143571D02*
X158182142Y-45143571D01*
X158182142Y-44286428D02*
X158110714Y-44215000D01*
X157967857Y-44143571D01*
X157753571Y-44143571D01*
X157610714Y-44215000D01*
X157539285Y-44357857D01*
X157539285Y-45143571D01*
X156182142Y-45143571D02*
X156182142Y-43643571D01*
X156182142Y-45072142D02*
X156325000Y-45143571D01*
X156610714Y-45143571D01*
X156753571Y-45072142D01*
X156825000Y-45000714D01*
X156896428Y-44857857D01*
X156896428Y-44429285D01*
X156825000Y-44286428D01*
X156753571Y-44215000D01*
X156610714Y-44143571D01*
X156325000Y-44143571D01*
X156182142Y-44215000D01*
X155467857Y-45143571D02*
X155467857Y-44143571D01*
X155467857Y-44429285D02*
X155396428Y-44286428D01*
X155325000Y-44215000D01*
X155182142Y-44143571D01*
X155039285Y-44143571D01*
X153967857Y-45072142D02*
X154110714Y-45143571D01*
X154396428Y-45143571D01*
X154539285Y-45072142D01*
X154610714Y-44929285D01*
X154610714Y-44357857D01*
X154539285Y-44215000D01*
X154396428Y-44143571D01*
X154110714Y-44143571D01*
X153967857Y-44215000D01*
X153896428Y-44357857D01*
X153896428Y-44500714D01*
X154610714Y-44643571D01*
X153396428Y-44143571D02*
X153110714Y-45143571D01*
X152825000Y-44429285D01*
X152539285Y-45143571D01*
X152253571Y-44143571D01*
X150753571Y-43643571D02*
X150253571Y-45143571D01*
X149753571Y-43643571D01*
X148610714Y-45143571D02*
X148610714Y-44357857D01*
X148682142Y-44215000D01*
X148825000Y-44143571D01*
X149110714Y-44143571D01*
X149253571Y-44215000D01*
X148610714Y-45072142D02*
X148753571Y-45143571D01*
X149110714Y-45143571D01*
X149253571Y-45072142D01*
X149325000Y-44929285D01*
X149325000Y-44786428D01*
X149253571Y-44643571D01*
X149110714Y-44572142D01*
X148753571Y-44572142D01*
X148610714Y-44500714D01*
X147896428Y-44143571D02*
X147896428Y-45143571D01*
X147896428Y-44286428D02*
X147825000Y-44215000D01*
X147682142Y-44143571D01*
X147467857Y-44143571D01*
X147325000Y-44215000D01*
X147253571Y-44357857D01*
X147253571Y-45143571D01*
X145396428Y-45143571D02*
X145396428Y-43643571D01*
X145396428Y-44357857D02*
X144539285Y-44357857D01*
X144539285Y-45143571D02*
X144539285Y-43643571D01*
X143610714Y-45143571D02*
X143753571Y-45072142D01*
X143825000Y-45000714D01*
X143896428Y-44857857D01*
X143896428Y-44429285D01*
X143825000Y-44286428D01*
X143753571Y-44215000D01*
X143610714Y-44143571D01*
X143396428Y-44143571D01*
X143253571Y-44215000D01*
X143182142Y-44286428D01*
X143110714Y-44429285D01*
X143110714Y-44857857D01*
X143182142Y-45000714D01*
X143253571Y-45072142D01*
X143396428Y-45143571D01*
X143610714Y-45143571D01*
X142467857Y-45143571D02*
X142467857Y-44143571D01*
X142467857Y-44429285D02*
X142396428Y-44286428D01*
X142325000Y-44215000D01*
X142182142Y-44143571D01*
X142039285Y-44143571D01*
X141539285Y-44143571D02*
X141539285Y-45143571D01*
X141539285Y-44286428D02*
X141467857Y-44215000D01*
X141325000Y-44143571D01*
X141110714Y-44143571D01*
X140967857Y-44215000D01*
X140896428Y-44357857D01*
X140896428Y-45143571D01*
D11*
G04 #@! TO.C,J4*
X166430000Y-49590000D02*
X161230000Y-49590000D01*
X166430000Y-31750000D02*
X166430000Y-49590000D01*
X161230000Y-29150000D02*
X161230000Y-49590000D01*
X166430000Y-31750000D02*
X163830000Y-31750000D01*
X163830000Y-31750000D02*
X163830000Y-29150000D01*
X163830000Y-29150000D02*
X161230000Y-29150000D01*
X166430000Y-30480000D02*
X166430000Y-29150000D01*
X166430000Y-29150000D02*
X165100000Y-29150000D01*
G04 #@! TO.C,J2*
X110550000Y-49590000D02*
X105350000Y-49590000D01*
X110550000Y-31750000D02*
X110550000Y-49590000D01*
X105350000Y-29150000D02*
X105350000Y-49590000D01*
X110550000Y-31750000D02*
X107950000Y-31750000D01*
X107950000Y-31750000D02*
X107950000Y-29150000D01*
X107950000Y-29150000D02*
X105350000Y-29150000D01*
X110550000Y-30480000D02*
X110550000Y-29150000D01*
X110550000Y-29150000D02*
X109220000Y-29150000D01*
G04 #@! TO.C,J3*
X110550000Y-52010000D02*
X109220000Y-52010000D01*
X110550000Y-53340000D02*
X110550000Y-52010000D01*
X107950000Y-52010000D02*
X105350000Y-52010000D01*
X107950000Y-54610000D02*
X107950000Y-52010000D01*
X110550000Y-54610000D02*
X107950000Y-54610000D01*
X105350000Y-52010000D02*
X105350000Y-72450000D01*
X110550000Y-54610000D02*
X110550000Y-72450000D01*
X110550000Y-72450000D02*
X105350000Y-72450000D01*
G04 #@! TO.C,J5*
X133410000Y-29150000D02*
X132080000Y-29150000D01*
X133410000Y-30480000D02*
X133410000Y-29150000D01*
X130810000Y-29150000D02*
X128210000Y-29150000D01*
X130810000Y-31750000D02*
X130810000Y-29150000D01*
X133410000Y-31750000D02*
X130810000Y-31750000D01*
X128210000Y-29150000D02*
X128210000Y-34350000D01*
X133410000Y-31750000D02*
X133410000Y-34350000D01*
X133410000Y-34350000D02*
X128210000Y-34350000D01*
G04 #@! TO.C,J6*
X151190000Y-34350000D02*
X145990000Y-34350000D01*
X151190000Y-31750000D02*
X151190000Y-34350000D01*
X145990000Y-29150000D02*
X145990000Y-34350000D01*
X151190000Y-31750000D02*
X148590000Y-31750000D01*
X148590000Y-31750000D02*
X148590000Y-29150000D01*
X148590000Y-29150000D02*
X145990000Y-29150000D01*
X151190000Y-30480000D02*
X151190000Y-29150000D01*
X151190000Y-29150000D02*
X149860000Y-29150000D01*
D12*
G04 #@! TO.C,G\002A\002A\002A*
G36*
X116798104Y-40217864D02*
X116666883Y-40236790D01*
X116560044Y-40267851D01*
X116543747Y-40274907D01*
X116478345Y-40305215D01*
X116538487Y-40295041D01*
X116747804Y-40271566D01*
X116943863Y-40273129D01*
X117117756Y-40299634D01*
X117124937Y-40301416D01*
X117327576Y-40368055D01*
X117538741Y-40467912D01*
X117759150Y-40601573D01*
X117989524Y-40769623D01*
X118230584Y-40972649D01*
X118483049Y-41211238D01*
X118747640Y-41485976D01*
X119025078Y-41797449D01*
X119163326Y-41960539D01*
X119291405Y-42115226D01*
X119413766Y-42266069D01*
X119532326Y-42415839D01*
X119649003Y-42567310D01*
X119765714Y-42723251D01*
X119884377Y-42886436D01*
X120006908Y-43059636D01*
X120135227Y-43245623D01*
X120271249Y-43447169D01*
X120416893Y-43667045D01*
X120574076Y-43908024D01*
X120744716Y-44172877D01*
X120930730Y-44464376D01*
X121134035Y-44785293D01*
X121304886Y-45056283D01*
X121694496Y-45684557D01*
X122069230Y-46307398D01*
X122423063Y-46914754D01*
X122512114Y-47071042D01*
X122592591Y-47212246D01*
X122685828Y-47374650D01*
X122784147Y-47544958D01*
X122879873Y-47709873D01*
X122963865Y-47853603D01*
X123047523Y-47997010D01*
X123139291Y-48155825D01*
X123232086Y-48317692D01*
X123318827Y-48470254D01*
X123392430Y-48601155D01*
X123394785Y-48605379D01*
X123458262Y-48719071D01*
X123518481Y-48826568D01*
X123571436Y-48920744D01*
X123613118Y-48994474D01*
X123639524Y-49040635D01*
X123640355Y-49042064D01*
X123690785Y-49128635D01*
X123768612Y-48921780D01*
X123809432Y-48819477D01*
X123860182Y-48701982D01*
X123918316Y-48574292D01*
X123981287Y-48441399D01*
X124046550Y-48308301D01*
X124111559Y-48179990D01*
X124173767Y-48061462D01*
X124230629Y-47957712D01*
X124279598Y-47873735D01*
X124318129Y-47814525D01*
X124343676Y-47785077D01*
X124349226Y-47782723D01*
X124362696Y-47799484D01*
X124391612Y-47845961D01*
X124432637Y-47916447D01*
X124482437Y-48005234D01*
X124527888Y-48088445D01*
X124601277Y-48223818D01*
X124679972Y-48368054D01*
X124761578Y-48516846D01*
X124843697Y-48665886D01*
X124923932Y-48810864D01*
X124999887Y-48947474D01*
X125069166Y-49071407D01*
X125129371Y-49178355D01*
X125178106Y-49264010D01*
X125212974Y-49324064D01*
X125231579Y-49354208D01*
X125233291Y-49356440D01*
X125234681Y-49347640D01*
X125224025Y-49308115D01*
X125203348Y-49244684D01*
X125182668Y-49186038D01*
X125132446Y-49048044D01*
X125076620Y-48895817D01*
X125016786Y-48733607D01*
X124954539Y-48565663D01*
X124891474Y-48396236D01*
X124829188Y-48229576D01*
X124769277Y-48069933D01*
X124713335Y-47921557D01*
X124662959Y-47788698D01*
X124619744Y-47675605D01*
X124585287Y-47586530D01*
X124561181Y-47525722D01*
X124549024Y-47497431D01*
X124548164Y-47496046D01*
X124531255Y-47503886D01*
X124499540Y-47538979D01*
X124459093Y-47594349D01*
X124447822Y-47611319D01*
X124406006Y-47673121D01*
X124371924Y-47719124D01*
X124351675Y-47741212D01*
X124349590Y-47742055D01*
X124336897Y-47724989D01*
X124308361Y-47677500D01*
X124266837Y-47604634D01*
X124215177Y-47511439D01*
X124156234Y-47402959D01*
X124126412Y-47347351D01*
X124056180Y-47216587D01*
X123972095Y-47061214D01*
X123879828Y-46891638D01*
X123785051Y-46718270D01*
X123693436Y-46551517D01*
X123637827Y-46450805D01*
X123557104Y-46304717D01*
X123462281Y-46132700D01*
X123358454Y-45944026D01*
X123250721Y-45747965D01*
X123144177Y-45553789D01*
X123043920Y-45370769D01*
X123008968Y-45306875D01*
X122846525Y-45012146D01*
X122686967Y-44727241D01*
X122532024Y-44455059D01*
X122383424Y-44198499D01*
X122242895Y-43960462D01*
X122112166Y-43743846D01*
X121992965Y-43551552D01*
X121887020Y-43386479D01*
X121796059Y-43251526D01*
X121727355Y-43156803D01*
X121631117Y-43040760D01*
X121545286Y-42957327D01*
X121471284Y-42907297D01*
X121410534Y-42891466D01*
X121364458Y-42910626D01*
X121343047Y-42942230D01*
X121323201Y-42995781D01*
X121319785Y-43027265D01*
X121331080Y-43031469D01*
X121355364Y-43003182D01*
X121360488Y-42995050D01*
X121399173Y-42948063D01*
X121435114Y-42934930D01*
X121435590Y-42935015D01*
X121473266Y-42959064D01*
X121525446Y-43019114D01*
X121591496Y-43114041D01*
X121670782Y-43242721D01*
X121762670Y-43404027D01*
X121866526Y-43596835D01*
X121981717Y-43820021D01*
X122107607Y-44072458D01*
X122243564Y-44353022D01*
X122292084Y-44454862D01*
X122339868Y-44556682D01*
X122398191Y-44682805D01*
X122465585Y-44829931D01*
X122540582Y-44994761D01*
X122621716Y-45173996D01*
X122707519Y-45364336D01*
X122796522Y-45562481D01*
X122887260Y-45765134D01*
X122978264Y-45968993D01*
X123068066Y-46170761D01*
X123155200Y-46367137D01*
X123238197Y-46554822D01*
X123315591Y-46730518D01*
X123385914Y-46890924D01*
X123447698Y-47032741D01*
X123499475Y-47152670D01*
X123539779Y-47247411D01*
X123567142Y-47313666D01*
X123580096Y-47348135D01*
X123580856Y-47352379D01*
X123568582Y-47338034D01*
X123537153Y-47294807D01*
X123489676Y-47227160D01*
X123429261Y-47139557D01*
X123359017Y-47036458D01*
X123304470Y-46955687D01*
X123213540Y-46821400D01*
X123105888Y-46663831D01*
X122984261Y-46486905D01*
X122851407Y-46294550D01*
X122710073Y-46090690D01*
X122563008Y-45879251D01*
X122412960Y-45664159D01*
X122262675Y-45449341D01*
X122114903Y-45238721D01*
X121972391Y-45036225D01*
X121837886Y-44845781D01*
X121714137Y-44671312D01*
X121603891Y-44516746D01*
X121509896Y-44386008D01*
X121434900Y-44283023D01*
X121413743Y-44254388D01*
X121047788Y-43767774D01*
X120698793Y-43316339D01*
X120366000Y-42899294D01*
X120048655Y-42515850D01*
X119745998Y-42165218D01*
X119457275Y-41846610D01*
X119181728Y-41559236D01*
X118918601Y-41302307D01*
X118667137Y-41075034D01*
X118426578Y-40876628D01*
X118196170Y-40706301D01*
X117975154Y-40563262D01*
X117762774Y-40446724D01*
X117761376Y-40446029D01*
X117603065Y-40370475D01*
X117468324Y-40313757D01*
X117347285Y-40272591D01*
X117230078Y-40243693D01*
X117106833Y-40223779D01*
X117085659Y-40221179D01*
X116941699Y-40212264D01*
X116798104Y-40217864D01*
X116798104Y-40217864D01*
G37*
X116798104Y-40217864D02*
X116666883Y-40236790D01*
X116560044Y-40267851D01*
X116543747Y-40274907D01*
X116478345Y-40305215D01*
X116538487Y-40295041D01*
X116747804Y-40271566D01*
X116943863Y-40273129D01*
X117117756Y-40299634D01*
X117124937Y-40301416D01*
X117327576Y-40368055D01*
X117538741Y-40467912D01*
X117759150Y-40601573D01*
X117989524Y-40769623D01*
X118230584Y-40972649D01*
X118483049Y-41211238D01*
X118747640Y-41485976D01*
X119025078Y-41797449D01*
X119163326Y-41960539D01*
X119291405Y-42115226D01*
X119413766Y-42266069D01*
X119532326Y-42415839D01*
X119649003Y-42567310D01*
X119765714Y-42723251D01*
X119884377Y-42886436D01*
X120006908Y-43059636D01*
X120135227Y-43245623D01*
X120271249Y-43447169D01*
X120416893Y-43667045D01*
X120574076Y-43908024D01*
X120744716Y-44172877D01*
X120930730Y-44464376D01*
X121134035Y-44785293D01*
X121304886Y-45056283D01*
X121694496Y-45684557D01*
X122069230Y-46307398D01*
X122423063Y-46914754D01*
X122512114Y-47071042D01*
X122592591Y-47212246D01*
X122685828Y-47374650D01*
X122784147Y-47544958D01*
X122879873Y-47709873D01*
X122963865Y-47853603D01*
X123047523Y-47997010D01*
X123139291Y-48155825D01*
X123232086Y-48317692D01*
X123318827Y-48470254D01*
X123392430Y-48601155D01*
X123394785Y-48605379D01*
X123458262Y-48719071D01*
X123518481Y-48826568D01*
X123571436Y-48920744D01*
X123613118Y-48994474D01*
X123639524Y-49040635D01*
X123640355Y-49042064D01*
X123690785Y-49128635D01*
X123768612Y-48921780D01*
X123809432Y-48819477D01*
X123860182Y-48701982D01*
X123918316Y-48574292D01*
X123981287Y-48441399D01*
X124046550Y-48308301D01*
X124111559Y-48179990D01*
X124173767Y-48061462D01*
X124230629Y-47957712D01*
X124279598Y-47873735D01*
X124318129Y-47814525D01*
X124343676Y-47785077D01*
X124349226Y-47782723D01*
X124362696Y-47799484D01*
X124391612Y-47845961D01*
X124432637Y-47916447D01*
X124482437Y-48005234D01*
X124527888Y-48088445D01*
X124601277Y-48223818D01*
X124679972Y-48368054D01*
X124761578Y-48516846D01*
X124843697Y-48665886D01*
X124923932Y-48810864D01*
X124999887Y-48947474D01*
X125069166Y-49071407D01*
X125129371Y-49178355D01*
X125178106Y-49264010D01*
X125212974Y-49324064D01*
X125231579Y-49354208D01*
X125233291Y-49356440D01*
X125234681Y-49347640D01*
X125224025Y-49308115D01*
X125203348Y-49244684D01*
X125182668Y-49186038D01*
X125132446Y-49048044D01*
X125076620Y-48895817D01*
X125016786Y-48733607D01*
X124954539Y-48565663D01*
X124891474Y-48396236D01*
X124829188Y-48229576D01*
X124769277Y-48069933D01*
X124713335Y-47921557D01*
X124662959Y-47788698D01*
X124619744Y-47675605D01*
X124585287Y-47586530D01*
X124561181Y-47525722D01*
X124549024Y-47497431D01*
X124548164Y-47496046D01*
X124531255Y-47503886D01*
X124499540Y-47538979D01*
X124459093Y-47594349D01*
X124447822Y-47611319D01*
X124406006Y-47673121D01*
X124371924Y-47719124D01*
X124351675Y-47741212D01*
X124349590Y-47742055D01*
X124336897Y-47724989D01*
X124308361Y-47677500D01*
X124266837Y-47604634D01*
X124215177Y-47511439D01*
X124156234Y-47402959D01*
X124126412Y-47347351D01*
X124056180Y-47216587D01*
X123972095Y-47061214D01*
X123879828Y-46891638D01*
X123785051Y-46718270D01*
X123693436Y-46551517D01*
X123637827Y-46450805D01*
X123557104Y-46304717D01*
X123462281Y-46132700D01*
X123358454Y-45944026D01*
X123250721Y-45747965D01*
X123144177Y-45553789D01*
X123043920Y-45370769D01*
X123008968Y-45306875D01*
X122846525Y-45012146D01*
X122686967Y-44727241D01*
X122532024Y-44455059D01*
X122383424Y-44198499D01*
X122242895Y-43960462D01*
X122112166Y-43743846D01*
X121992965Y-43551552D01*
X121887020Y-43386479D01*
X121796059Y-43251526D01*
X121727355Y-43156803D01*
X121631117Y-43040760D01*
X121545286Y-42957327D01*
X121471284Y-42907297D01*
X121410534Y-42891466D01*
X121364458Y-42910626D01*
X121343047Y-42942230D01*
X121323201Y-42995781D01*
X121319785Y-43027265D01*
X121331080Y-43031469D01*
X121355364Y-43003182D01*
X121360488Y-42995050D01*
X121399173Y-42948063D01*
X121435114Y-42934930D01*
X121435590Y-42935015D01*
X121473266Y-42959064D01*
X121525446Y-43019114D01*
X121591496Y-43114041D01*
X121670782Y-43242721D01*
X121762670Y-43404027D01*
X121866526Y-43596835D01*
X121981717Y-43820021D01*
X122107607Y-44072458D01*
X122243564Y-44353022D01*
X122292084Y-44454862D01*
X122339868Y-44556682D01*
X122398191Y-44682805D01*
X122465585Y-44829931D01*
X122540582Y-44994761D01*
X122621716Y-45173996D01*
X122707519Y-45364336D01*
X122796522Y-45562481D01*
X122887260Y-45765134D01*
X122978264Y-45968993D01*
X123068066Y-46170761D01*
X123155200Y-46367137D01*
X123238197Y-46554822D01*
X123315591Y-46730518D01*
X123385914Y-46890924D01*
X123447698Y-47032741D01*
X123499475Y-47152670D01*
X123539779Y-47247411D01*
X123567142Y-47313666D01*
X123580096Y-47348135D01*
X123580856Y-47352379D01*
X123568582Y-47338034D01*
X123537153Y-47294807D01*
X123489676Y-47227160D01*
X123429261Y-47139557D01*
X123359017Y-47036458D01*
X123304470Y-46955687D01*
X123213540Y-46821400D01*
X123105888Y-46663831D01*
X122984261Y-46486905D01*
X122851407Y-46294550D01*
X122710073Y-46090690D01*
X122563008Y-45879251D01*
X122412960Y-45664159D01*
X122262675Y-45449341D01*
X122114903Y-45238721D01*
X121972391Y-45036225D01*
X121837886Y-44845781D01*
X121714137Y-44671312D01*
X121603891Y-44516746D01*
X121509896Y-44386008D01*
X121434900Y-44283023D01*
X121413743Y-44254388D01*
X121047788Y-43767774D01*
X120698793Y-43316339D01*
X120366000Y-42899294D01*
X120048655Y-42515850D01*
X119745998Y-42165218D01*
X119457275Y-41846610D01*
X119181728Y-41559236D01*
X118918601Y-41302307D01*
X118667137Y-41075034D01*
X118426578Y-40876628D01*
X118196170Y-40706301D01*
X117975154Y-40563262D01*
X117762774Y-40446724D01*
X117761376Y-40446029D01*
X117603065Y-40370475D01*
X117468324Y-40313757D01*
X117347285Y-40272591D01*
X117230078Y-40243693D01*
X117106833Y-40223779D01*
X117085659Y-40221179D01*
X116941699Y-40212264D01*
X116798104Y-40217864D01*
G36*
X125249063Y-49396535D02*
X125259087Y-49406559D01*
X125269111Y-49396535D01*
X125259087Y-49386512D01*
X125249063Y-49396535D01*
X125249063Y-49396535D01*
G37*
X125249063Y-49396535D02*
X125259087Y-49406559D01*
X125269111Y-49396535D01*
X125259087Y-49386512D01*
X125249063Y-49396535D01*
G36*
X123368230Y-44687311D02*
X123378728Y-44711474D01*
X123412869Y-44762875D01*
X123432457Y-44790609D01*
X123469099Y-44844696D01*
X123505000Y-44904063D01*
X123542413Y-44973459D01*
X123583592Y-45057630D01*
X123630788Y-45161323D01*
X123686255Y-45289288D01*
X123752245Y-45446270D01*
X123810994Y-45588324D01*
X123860959Y-45710983D01*
X123922583Y-45864288D01*
X123993194Y-46041441D01*
X124070120Y-46235642D01*
X124150690Y-46440092D01*
X124232232Y-46647991D01*
X124312074Y-46852541D01*
X124387545Y-47046941D01*
X124455973Y-47224393D01*
X124514687Y-47378096D01*
X124526369Y-47408934D01*
X124548010Y-47466163D01*
X124660456Y-47312188D01*
X124710173Y-47247814D01*
X124752155Y-47200288D01*
X124780592Y-47175835D01*
X124788681Y-47174769D01*
X124799900Y-47195236D01*
X124827016Y-47248787D01*
X124868540Y-47332377D01*
X124922983Y-47442961D01*
X124988854Y-47577494D01*
X125064665Y-47732931D01*
X125148925Y-47906229D01*
X125240145Y-48094341D01*
X125336836Y-48294223D01*
X125375422Y-48374120D01*
X125597572Y-48834054D01*
X125803714Y-49260269D01*
X125995065Y-49655256D01*
X126172843Y-50021502D01*
X126338264Y-50361495D01*
X126492545Y-50677725D01*
X126636904Y-50972679D01*
X126772557Y-51248847D01*
X126900722Y-51508716D01*
X127022615Y-51754775D01*
X127139455Y-51989513D01*
X127252457Y-52215417D01*
X127316781Y-52343497D01*
X127403960Y-52517865D01*
X127478404Y-52667761D01*
X127542759Y-52796626D01*
X127599674Y-52907904D01*
X127651796Y-53005034D01*
X127701772Y-53091460D01*
X127752250Y-53170624D01*
X127805878Y-53245966D01*
X127865304Y-53320929D01*
X127933174Y-53398954D01*
X128012137Y-53483484D01*
X128104840Y-53577961D01*
X128213930Y-53685825D01*
X128342056Y-53810520D01*
X128491864Y-53955487D01*
X128666003Y-54124167D01*
X128747327Y-54203197D01*
X128894012Y-54346727D01*
X129037521Y-54488650D01*
X129174108Y-54625161D01*
X129300029Y-54752453D01*
X129411539Y-54866720D01*
X129504895Y-54964156D01*
X129576351Y-55040953D01*
X129617945Y-55088203D01*
X129731066Y-55221210D01*
X129868239Y-55378484D01*
X130025450Y-55555656D01*
X130198689Y-55748356D01*
X130383943Y-55952216D01*
X130577200Y-56162864D01*
X130774449Y-56375933D01*
X130971678Y-56587052D01*
X131164875Y-56791853D01*
X131350027Y-56985965D01*
X131523124Y-57165019D01*
X131551448Y-57194040D01*
X131647243Y-57292321D01*
X131732778Y-57380609D01*
X131804353Y-57455043D01*
X131858274Y-57511764D01*
X131890843Y-57546913D01*
X131899020Y-57556933D01*
X131874379Y-57565712D01*
X131818550Y-57581774D01*
X131739350Y-57603126D01*
X131644599Y-57627776D01*
X131542114Y-57653729D01*
X131439713Y-57678994D01*
X131345215Y-57701577D01*
X131266439Y-57719486D01*
X131236004Y-57725939D01*
X131107253Y-57750216D01*
X131013684Y-57763002D01*
X130952138Y-57764531D01*
X130919454Y-57755038D01*
X130914614Y-57749774D01*
X130895461Y-57730877D01*
X130852122Y-57693321D01*
X130791872Y-57643305D01*
X130748040Y-57607814D01*
X130591684Y-57482385D01*
X130908104Y-57780825D01*
X130840107Y-57792994D01*
X130719584Y-57810426D01*
X130575129Y-57824547D01*
X130412215Y-57835397D01*
X130236316Y-57843015D01*
X130052904Y-57847442D01*
X129867455Y-57848718D01*
X129685440Y-57846883D01*
X129512333Y-57841977D01*
X129353608Y-57834040D01*
X129214738Y-57823111D01*
X129101197Y-57809233D01*
X129018458Y-57792443D01*
X128982608Y-57779397D01*
X128959685Y-57755744D01*
X128919112Y-57700775D01*
X128863052Y-57618031D01*
X128793667Y-57511053D01*
X128713118Y-57383385D01*
X128623567Y-57238566D01*
X128527178Y-57080140D01*
X128426110Y-56911647D01*
X128322527Y-56736630D01*
X128218589Y-56558630D01*
X128116460Y-56381189D01*
X128018301Y-56207849D01*
X127965046Y-56112399D01*
X127880538Y-55962609D01*
X127789776Y-55806222D01*
X127698051Y-55652049D01*
X127610655Y-55508899D01*
X127532878Y-55385583D01*
X127483428Y-55310505D01*
X127409443Y-55197536D01*
X127323521Y-55060284D01*
X127232426Y-54909931D01*
X127142922Y-54757662D01*
X127061773Y-54614658D01*
X127053654Y-54599985D01*
X126954025Y-54423971D01*
X126856053Y-54261293D01*
X126752693Y-54101014D01*
X126636895Y-53932200D01*
X126504578Y-53747973D01*
X126221233Y-53352087D01*
X125953481Y-52960954D01*
X125695097Y-52564927D01*
X125439856Y-52154360D01*
X125181534Y-51719605D01*
X125061497Y-51511531D01*
X124989468Y-51387758D01*
X124923922Y-51280920D01*
X124858953Y-51182644D01*
X124788651Y-51084558D01*
X124707109Y-50978291D01*
X124608419Y-50855472D01*
X124538043Y-50769779D01*
X124440915Y-50651962D01*
X124344303Y-50534444D01*
X124253685Y-50423912D01*
X124174540Y-50327053D01*
X124112345Y-50250557D01*
X124086456Y-50218477D01*
X124024151Y-50141724D01*
X123945265Y-50045751D01*
X123859171Y-49941900D01*
X123775240Y-49841513D01*
X123761364Y-49825017D01*
X123693026Y-49742271D01*
X123635040Y-49669015D01*
X123591934Y-49611216D01*
X123568239Y-49574836D01*
X123565086Y-49566563D01*
X123570434Y-49536458D01*
X123584196Y-49481747D01*
X123602948Y-49414212D01*
X123623265Y-49345638D01*
X123641723Y-49287808D01*
X123654898Y-49252506D01*
X123657824Y-49247430D01*
X123675328Y-49255548D01*
X123712944Y-49285339D01*
X123759593Y-49327620D01*
X123805858Y-49369311D01*
X123827516Y-49383125D01*
X123823317Y-49368287D01*
X123822212Y-49366464D01*
X123794184Y-49317729D01*
X123759703Y-49253722D01*
X123746099Y-49227415D01*
X123718741Y-49175991D01*
X123701963Y-49156023D01*
X123688752Y-49162936D01*
X123677243Y-49182494D01*
X123666453Y-49198896D01*
X123652827Y-49204517D01*
X123631210Y-49196135D01*
X123596449Y-49170525D01*
X123543391Y-49124468D01*
X123466883Y-49054740D01*
X123454020Y-49042917D01*
X123227118Y-48836048D01*
X123024976Y-48655630D01*
X122844609Y-48499174D01*
X122683030Y-48364187D01*
X122537252Y-48248180D01*
X122404290Y-48148662D01*
X122281156Y-48063141D01*
X122272031Y-48057088D01*
X122108827Y-47956032D01*
X121969174Y-47884096D01*
X121853765Y-47841526D01*
X121763296Y-47828569D01*
X121698462Y-47845470D01*
X121690658Y-47850850D01*
X121669257Y-47869595D01*
X121673241Y-47878750D01*
X121708417Y-47881882D01*
X121741863Y-47882322D01*
X121831238Y-47895578D01*
X121919916Y-47937997D01*
X121923864Y-47940481D01*
X121994081Y-47990093D01*
X122085024Y-48061831D01*
X122189304Y-48149236D01*
X122299533Y-48245848D01*
X122408322Y-48345207D01*
X122508281Y-48440855D01*
X122582765Y-48516499D01*
X122644625Y-48582438D01*
X122722988Y-48666976D01*
X122813742Y-48765582D01*
X122912772Y-48873724D01*
X123015965Y-48986869D01*
X123119208Y-49100485D01*
X123218388Y-49210042D01*
X123309390Y-49311007D01*
X123388102Y-49398847D01*
X123450409Y-49469032D01*
X123492199Y-49517030D01*
X123505908Y-49533539D01*
X123550093Y-49589712D01*
X123495871Y-49833929D01*
X123451330Y-50046050D01*
X123416697Y-50240181D01*
X123390661Y-50427655D01*
X123371912Y-50619805D01*
X123359140Y-50827966D01*
X123351033Y-51063471D01*
X123350348Y-51092484D01*
X123347836Y-51418395D01*
X123356572Y-51715901D01*
X123377596Y-51995367D01*
X123411947Y-52267161D01*
X123460664Y-52541650D01*
X123524125Y-52826474D01*
X123662896Y-53315144D01*
X123838330Y-53789323D01*
X124049016Y-54247086D01*
X124293541Y-54686505D01*
X124570493Y-55105654D01*
X124878461Y-55502608D01*
X125216033Y-55875441D01*
X125581797Y-56222226D01*
X125974341Y-56541037D01*
X126392253Y-56829948D01*
X126514155Y-56905546D01*
X126930195Y-57136505D01*
X127365401Y-57338539D01*
X127813104Y-57509136D01*
X128266636Y-57645782D01*
X128719328Y-57745967D01*
X128767374Y-57754412D01*
X128872759Y-57775862D01*
X128940756Y-57797986D01*
X128973553Y-57820916D01*
X128991739Y-57846849D01*
X129029203Y-57900866D01*
X129082519Y-57978004D01*
X129148258Y-58073300D01*
X129222995Y-58181793D01*
X129281963Y-58267490D01*
X129501966Y-58579828D01*
X129708927Y-58857615D01*
X129905102Y-59103362D01*
X130092750Y-59319579D01*
X130274127Y-59508775D01*
X130451490Y-59673462D01*
X130627098Y-59816149D01*
X130759628Y-59910652D01*
X130876433Y-59981970D01*
X131010900Y-60052652D01*
X131150273Y-60116796D01*
X131281798Y-60168496D01*
X131384578Y-60199916D01*
X131548981Y-60229105D01*
X131726881Y-60242085D01*
X131900802Y-60238257D01*
X132028943Y-60222014D01*
X132266512Y-60156622D01*
X132494200Y-60052447D01*
X132711699Y-59909639D01*
X132786988Y-59849186D01*
X132845101Y-59803932D01*
X132892405Y-59780442D01*
X132946187Y-59771873D01*
X132984411Y-59771042D01*
X133253070Y-59755296D01*
X133525672Y-59709825D01*
X133590504Y-59692229D01*
X132108952Y-59692229D01*
X132081198Y-59709637D01*
X132055141Y-59717775D01*
X132017117Y-59722149D01*
X131951350Y-59724293D01*
X131870143Y-59723888D01*
X131844644Y-59723223D01*
X131727701Y-59714779D01*
X131631206Y-59695355D01*
X131548368Y-59666381D01*
X131412856Y-59604508D01*
X131291583Y-59533652D01*
X131173736Y-59446388D01*
X131048504Y-59335288D01*
X131004107Y-59292513D01*
X130938588Y-59227244D01*
X130889890Y-59176455D01*
X130861620Y-59144108D01*
X130857386Y-59134167D01*
X130862323Y-59136761D01*
X131069531Y-59265454D01*
X131248569Y-59368080D01*
X131400965Y-59445513D01*
X131408259Y-59448899D01*
X131515843Y-59495011D01*
X131639058Y-59542135D01*
X131766759Y-59586521D01*
X131887799Y-59624423D01*
X131991034Y-59652091D01*
X132045367Y-59663147D01*
X132096935Y-59676321D01*
X132108952Y-59692229D01*
X133590504Y-59692229D01*
X133792984Y-59637275D01*
X134045769Y-59540294D01*
X134274790Y-59421530D01*
X134334476Y-59384027D01*
X134403509Y-59343861D01*
X134471365Y-59312641D01*
X134510942Y-59300148D01*
X134563141Y-59284640D01*
X134636507Y-59256628D01*
X134716449Y-59221747D01*
X134728109Y-59216269D01*
X134888479Y-59118273D01*
X134888739Y-59118029D01*
X132936473Y-59118029D01*
X132929823Y-59133923D01*
X132911084Y-59155413D01*
X132906662Y-59160121D01*
X132881582Y-59184852D01*
X132856657Y-59200143D01*
X132824135Y-59206225D01*
X132776264Y-59203335D01*
X132705290Y-59191704D01*
X132603462Y-59171569D01*
X132593614Y-59169570D01*
X132511691Y-59151303D01*
X132417835Y-59127804D01*
X132319304Y-59101220D01*
X132223353Y-59073695D01*
X132137238Y-59047377D01*
X132068214Y-59024411D01*
X132023537Y-59006943D01*
X132010463Y-58997119D01*
X132010479Y-58997104D01*
X132032162Y-58997021D01*
X132083698Y-59003107D01*
X132155532Y-59014148D01*
X132186129Y-59019386D01*
X132273588Y-59032692D01*
X132386336Y-59046882D01*
X132509652Y-59060233D01*
X132625797Y-59070785D01*
X132749273Y-59080862D01*
X132837434Y-59089148D01*
X132894924Y-59097119D01*
X132926388Y-59106254D01*
X132936473Y-59118029D01*
X134888739Y-59118029D01*
X135027532Y-58987786D01*
X135143927Y-58827081D01*
X135236320Y-58638431D01*
X135303371Y-58424110D01*
X135343737Y-58186391D01*
X135345368Y-58170557D01*
X135359474Y-58084351D01*
X135384248Y-57982130D01*
X135414574Y-57884736D01*
X135417530Y-57876567D01*
X135496000Y-57635047D01*
X135506096Y-57595904D01*
X135115438Y-57595904D01*
X135106693Y-57739296D01*
X135097832Y-57826617D01*
X135079788Y-57898208D01*
X135046792Y-57973113D01*
X135021662Y-58019959D01*
X134851074Y-58295885D01*
X134665860Y-58535578D01*
X134464746Y-58740615D01*
X134380634Y-58812411D01*
X134260350Y-58909855D01*
X134130042Y-58897429D01*
X134062165Y-58889928D01*
X134012084Y-58882465D01*
X133991381Y-58876957D01*
X133987086Y-58871560D01*
X133990913Y-58864442D01*
X134009163Y-58851142D01*
X134048139Y-58827196D01*
X134114143Y-58788143D01*
X134130042Y-58778775D01*
X134349146Y-58631140D01*
X134545885Y-58458505D01*
X134723460Y-58257298D01*
X134885075Y-58023948D01*
X135015792Y-57790828D01*
X135115438Y-57595904D01*
X135506096Y-57595904D01*
X135567316Y-57358568D01*
X135630514Y-57051788D01*
X135684630Y-56719362D01*
X135726858Y-56383039D01*
X135736069Y-56278073D01*
X135743797Y-56150361D01*
X135750000Y-56005984D01*
X135754636Y-55851026D01*
X135757661Y-55691566D01*
X135759033Y-55533688D01*
X135758710Y-55383473D01*
X135756648Y-55247003D01*
X135752806Y-55130361D01*
X135747141Y-55039627D01*
X135739610Y-54980885D01*
X135736755Y-54969700D01*
X135725705Y-54939373D01*
X135719566Y-54937837D01*
X135716611Y-54969142D01*
X135715392Y-55019819D01*
X135708884Y-55179094D01*
X135694856Y-55368238D01*
X135674494Y-55577977D01*
X135648983Y-55799043D01*
X135619510Y-56022162D01*
X135587259Y-56238066D01*
X135553416Y-56437481D01*
X135519166Y-56611139D01*
X135502584Y-56684064D01*
X135471953Y-56806159D01*
X135439488Y-56926577D01*
X135407043Y-57039357D01*
X135376470Y-57138541D01*
X135349626Y-57218168D01*
X135328364Y-57272281D01*
X135314539Y-57294918D01*
X135312500Y-57294985D01*
X135294085Y-57262533D01*
X135284880Y-57198783D01*
X135284871Y-57111458D01*
X135294042Y-57008280D01*
X135312379Y-56896970D01*
X135313270Y-56892617D01*
X135342310Y-56743199D01*
X135365907Y-56600185D01*
X135384620Y-56456769D01*
X135399007Y-56306145D01*
X135409627Y-56141506D01*
X135417038Y-55956046D01*
X135421798Y-55742958D01*
X135424129Y-55541050D01*
X135427253Y-55150631D01*
X135311855Y-55150631D01*
X135309930Y-55228529D01*
X135305953Y-55325522D01*
X135300273Y-55434651D01*
X135293240Y-55548957D01*
X135285202Y-55661478D01*
X135276507Y-55765257D01*
X135270986Y-55821713D01*
X135259850Y-55915811D01*
X135245053Y-56023712D01*
X135227912Y-56137544D01*
X135209744Y-56249437D01*
X135191864Y-56351518D01*
X135175589Y-56435918D01*
X135162235Y-56494764D01*
X135154517Y-56518195D01*
X135143693Y-56510053D01*
X135123838Y-56469899D01*
X135097666Y-56404057D01*
X135067890Y-56318851D01*
X135064227Y-56307698D01*
X135019126Y-56173200D01*
X134978793Y-56060257D01*
X134944755Y-55972709D01*
X134918537Y-55914397D01*
X134901665Y-55889161D01*
X134897939Y-55889122D01*
X134898613Y-55910829D01*
X134906598Y-55963927D01*
X134920572Y-56040654D01*
X134939210Y-56133247D01*
X134941089Y-56142178D01*
X134966686Y-56268571D01*
X134993948Y-56411590D01*
X135018912Y-56550076D01*
X135031754Y-56625968D01*
X135070782Y-56865190D01*
X135009863Y-57040097D01*
X134958888Y-57174221D01*
X134895854Y-57321299D01*
X134826071Y-57470283D01*
X134754846Y-57610126D01*
X134687489Y-57729784D01*
X134649885Y-57789155D01*
X134554287Y-57915766D01*
X134438276Y-58046195D01*
X134314007Y-58167821D01*
X134193636Y-58268023D01*
X134176958Y-58280217D01*
X134116283Y-58320115D01*
X134041566Y-58364073D01*
X133960812Y-58408042D01*
X133882028Y-58447974D01*
X133813220Y-58479820D01*
X133762395Y-58499532D01*
X133737558Y-58503059D01*
X133737071Y-58502670D01*
X133740762Y-58481828D01*
X133758097Y-58434244D01*
X133785550Y-58369408D01*
X133791649Y-58355855D01*
X133850836Y-58219649D01*
X133917417Y-58056610D01*
X133987032Y-57878239D01*
X134055323Y-57696037D01*
X134117932Y-57521505D01*
X134170500Y-57366145D01*
X134189821Y-57305217D01*
X134223230Y-57193545D01*
X134259276Y-57067332D01*
X134296337Y-56932878D01*
X134332792Y-56796486D01*
X134367017Y-56664456D01*
X134397391Y-56543089D01*
X134422291Y-56438686D01*
X134440096Y-56357549D01*
X134449183Y-56305979D01*
X134450008Y-56294552D01*
X134442699Y-56302233D01*
X134422310Y-56343210D01*
X134390564Y-56413518D01*
X134349186Y-56509192D01*
X134299898Y-56626266D01*
X134244425Y-56760774D01*
X134202434Y-56864175D01*
X134114396Y-57080539D01*
X134036991Y-57266299D01*
X133966950Y-57428459D01*
X133901001Y-57574021D01*
X133835876Y-57709990D01*
X133768305Y-57843368D01*
X133695017Y-57981160D01*
X133612744Y-58130368D01*
X133603855Y-58146261D01*
X133523896Y-58288027D01*
X133460117Y-58398185D01*
X133409869Y-58480520D01*
X133370500Y-58538822D01*
X133339358Y-58576877D01*
X133313794Y-58598474D01*
X133291156Y-58607400D01*
X133280473Y-58608295D01*
X133244139Y-58597617D01*
X133184271Y-58568795D01*
X133110199Y-58526651D01*
X133054523Y-58491562D01*
X132972805Y-58435336D01*
X132871602Y-58361841D01*
X132762218Y-58279488D01*
X132655959Y-58196688D01*
X132626323Y-58172972D01*
X132607106Y-58157230D01*
X131443696Y-58157230D01*
X131433673Y-58167253D01*
X131423649Y-58157230D01*
X131433673Y-58147206D01*
X131443696Y-58157230D01*
X132607106Y-58157230D01*
X132586415Y-58140281D01*
X131403602Y-58140281D01*
X131388277Y-58136484D01*
X131342470Y-58107112D01*
X131266429Y-58052341D01*
X131160406Y-57972349D01*
X131106638Y-57930997D01*
X131039125Y-57877369D01*
X130986599Y-57832810D01*
X130955228Y-57802739D01*
X130949366Y-57792865D01*
X130967023Y-57801360D01*
X131009010Y-57829693D01*
X131068411Y-57872578D01*
X131138312Y-57924724D01*
X131211798Y-57980844D01*
X131281955Y-58035649D01*
X131341868Y-58083850D01*
X131384621Y-58120159D01*
X131403301Y-58139287D01*
X131403602Y-58140281D01*
X132586415Y-58140281D01*
X132540036Y-58102290D01*
X132445298Y-58022780D01*
X132346700Y-57938508D01*
X132248833Y-57853538D01*
X132156286Y-57771935D01*
X132073650Y-57697765D01*
X132005515Y-57635091D01*
X131956472Y-57587980D01*
X131931111Y-57560496D01*
X131928818Y-57555299D01*
X131948872Y-57546511D01*
X131999129Y-57526871D01*
X132072117Y-57499242D01*
X132160364Y-57466488D01*
X132164874Y-57464830D01*
X132631800Y-57272680D01*
X133082536Y-57046178D01*
X133514373Y-56787323D01*
X133924605Y-56498116D01*
X134310524Y-56180559D01*
X134669422Y-55836652D01*
X134998593Y-55468395D01*
X135181641Y-55235328D01*
X135232264Y-55168888D01*
X135274015Y-55116630D01*
X135301202Y-55085543D01*
X135308157Y-55079961D01*
X135311381Y-55098788D01*
X135311855Y-55150631D01*
X135427253Y-55150631D01*
X135429344Y-54889511D01*
X135563383Y-54668990D01*
X135808043Y-54228215D01*
X136016930Y-53769701D01*
X136190118Y-53293225D01*
X136327683Y-52798565D01*
X136429699Y-52285496D01*
X136478064Y-51932526D01*
X136487410Y-51820882D01*
X136494341Y-51678377D01*
X136498855Y-51514173D01*
X136500953Y-51337432D01*
X136500636Y-51157315D01*
X136497902Y-50982983D01*
X136492752Y-50823598D01*
X136485186Y-50688321D01*
X136478064Y-50609400D01*
X136399398Y-50082919D01*
X136284657Y-49573922D01*
X136133803Y-49082317D01*
X135946800Y-48608014D01*
X135723610Y-48150921D01*
X135464195Y-47710948D01*
X135168518Y-47288003D01*
X135054241Y-47141208D01*
X134952182Y-47019620D01*
X134827863Y-46880938D01*
X134689716Y-46733869D01*
X134546171Y-46587121D01*
X134405659Y-46449401D01*
X134276612Y-46329416D01*
X134220255Y-46279855D01*
X133817062Y-45959804D01*
X133393131Y-45673764D01*
X132949984Y-45422399D01*
X132489140Y-45206372D01*
X132012122Y-45026344D01*
X131520450Y-44882978D01*
X131015644Y-44776938D01*
X130651826Y-44724872D01*
X130502635Y-44711373D01*
X130324800Y-44701402D01*
X130128728Y-44695040D01*
X129924825Y-44692368D01*
X129723497Y-44693465D01*
X129535151Y-44698412D01*
X129370193Y-44707290D01*
X129288606Y-44714346D01*
X128769438Y-44787041D01*
X128266408Y-44896391D01*
X127779088Y-45042572D01*
X127307051Y-45225761D01*
X126849871Y-45446134D01*
X126407119Y-45703868D01*
X125978368Y-45999139D01*
X125750247Y-46176085D01*
X125662741Y-46250193D01*
X125558367Y-46344109D01*
X125443207Y-46451832D01*
X125323346Y-46567360D01*
X125204867Y-46684692D01*
X125093852Y-46797826D01*
X124996386Y-46900761D01*
X124918552Y-46987496D01*
X124878187Y-47036409D01*
X124835774Y-47089245D01*
X124803160Y-47126657D01*
X124787974Y-47140181D01*
X124776886Y-47123092D01*
X124750059Y-47074333D01*
X124709678Y-46998096D01*
X124657931Y-46898575D01*
X124597003Y-46779965D01*
X124529081Y-46646458D01*
X124482682Y-46554600D01*
X124338817Y-46271942D01*
X124200458Y-46005893D01*
X124068804Y-45758527D01*
X123945054Y-45531919D01*
X123830406Y-45328143D01*
X123726059Y-45149274D01*
X123633213Y-44997387D01*
X123553065Y-44874555D01*
X123486814Y-44782854D01*
X123435660Y-44724359D01*
X123415528Y-44707820D01*
X123380716Y-44687166D01*
X123368230Y-44687311D01*
X123368230Y-44687311D01*
G37*
X123368230Y-44687311D02*
X123378728Y-44711474D01*
X123412869Y-44762875D01*
X123432457Y-44790609D01*
X123469099Y-44844696D01*
X123505000Y-44904063D01*
X123542413Y-44973459D01*
X123583592Y-45057630D01*
X123630788Y-45161323D01*
X123686255Y-45289288D01*
X123752245Y-45446270D01*
X123810994Y-45588324D01*
X123860959Y-45710983D01*
X123922583Y-45864288D01*
X123993194Y-46041441D01*
X124070120Y-46235642D01*
X124150690Y-46440092D01*
X124232232Y-46647991D01*
X124312074Y-46852541D01*
X124387545Y-47046941D01*
X124455973Y-47224393D01*
X124514687Y-47378096D01*
X124526369Y-47408934D01*
X124548010Y-47466163D01*
X124660456Y-47312188D01*
X124710173Y-47247814D01*
X124752155Y-47200288D01*
X124780592Y-47175835D01*
X124788681Y-47174769D01*
X124799900Y-47195236D01*
X124827016Y-47248787D01*
X124868540Y-47332377D01*
X124922983Y-47442961D01*
X124988854Y-47577494D01*
X125064665Y-47732931D01*
X125148925Y-47906229D01*
X125240145Y-48094341D01*
X125336836Y-48294223D01*
X125375422Y-48374120D01*
X125597572Y-48834054D01*
X125803714Y-49260269D01*
X125995065Y-49655256D01*
X126172843Y-50021502D01*
X126338264Y-50361495D01*
X126492545Y-50677725D01*
X126636904Y-50972679D01*
X126772557Y-51248847D01*
X126900722Y-51508716D01*
X127022615Y-51754775D01*
X127139455Y-51989513D01*
X127252457Y-52215417D01*
X127316781Y-52343497D01*
X127403960Y-52517865D01*
X127478404Y-52667761D01*
X127542759Y-52796626D01*
X127599674Y-52907904D01*
X127651796Y-53005034D01*
X127701772Y-53091460D01*
X127752250Y-53170624D01*
X127805878Y-53245966D01*
X127865304Y-53320929D01*
X127933174Y-53398954D01*
X128012137Y-53483484D01*
X128104840Y-53577961D01*
X128213930Y-53685825D01*
X128342056Y-53810520D01*
X128491864Y-53955487D01*
X128666003Y-54124167D01*
X128747327Y-54203197D01*
X128894012Y-54346727D01*
X129037521Y-54488650D01*
X129174108Y-54625161D01*
X129300029Y-54752453D01*
X129411539Y-54866720D01*
X129504895Y-54964156D01*
X129576351Y-55040953D01*
X129617945Y-55088203D01*
X129731066Y-55221210D01*
X129868239Y-55378484D01*
X130025450Y-55555656D01*
X130198689Y-55748356D01*
X130383943Y-55952216D01*
X130577200Y-56162864D01*
X130774449Y-56375933D01*
X130971678Y-56587052D01*
X131164875Y-56791853D01*
X131350027Y-56985965D01*
X131523124Y-57165019D01*
X131551448Y-57194040D01*
X131647243Y-57292321D01*
X131732778Y-57380609D01*
X131804353Y-57455043D01*
X131858274Y-57511764D01*
X131890843Y-57546913D01*
X131899020Y-57556933D01*
X131874379Y-57565712D01*
X131818550Y-57581774D01*
X131739350Y-57603126D01*
X131644599Y-57627776D01*
X131542114Y-57653729D01*
X131439713Y-57678994D01*
X131345215Y-57701577D01*
X131266439Y-57719486D01*
X131236004Y-57725939D01*
X131107253Y-57750216D01*
X131013684Y-57763002D01*
X130952138Y-57764531D01*
X130919454Y-57755038D01*
X130914614Y-57749774D01*
X130895461Y-57730877D01*
X130852122Y-57693321D01*
X130791872Y-57643305D01*
X130748040Y-57607814D01*
X130591684Y-57482385D01*
X130908104Y-57780825D01*
X130840107Y-57792994D01*
X130719584Y-57810426D01*
X130575129Y-57824547D01*
X130412215Y-57835397D01*
X130236316Y-57843015D01*
X130052904Y-57847442D01*
X129867455Y-57848718D01*
X129685440Y-57846883D01*
X129512333Y-57841977D01*
X129353608Y-57834040D01*
X129214738Y-57823111D01*
X129101197Y-57809233D01*
X129018458Y-57792443D01*
X128982608Y-57779397D01*
X128959685Y-57755744D01*
X128919112Y-57700775D01*
X128863052Y-57618031D01*
X128793667Y-57511053D01*
X128713118Y-57383385D01*
X128623567Y-57238566D01*
X128527178Y-57080140D01*
X128426110Y-56911647D01*
X128322527Y-56736630D01*
X128218589Y-56558630D01*
X128116460Y-56381189D01*
X128018301Y-56207849D01*
X127965046Y-56112399D01*
X127880538Y-55962609D01*
X127789776Y-55806222D01*
X127698051Y-55652049D01*
X127610655Y-55508899D01*
X127532878Y-55385583D01*
X127483428Y-55310505D01*
X127409443Y-55197536D01*
X127323521Y-55060284D01*
X127232426Y-54909931D01*
X127142922Y-54757662D01*
X127061773Y-54614658D01*
X127053654Y-54599985D01*
X126954025Y-54423971D01*
X126856053Y-54261293D01*
X126752693Y-54101014D01*
X126636895Y-53932200D01*
X126504578Y-53747973D01*
X126221233Y-53352087D01*
X125953481Y-52960954D01*
X125695097Y-52564927D01*
X125439856Y-52154360D01*
X125181534Y-51719605D01*
X125061497Y-51511531D01*
X124989468Y-51387758D01*
X124923922Y-51280920D01*
X124858953Y-51182644D01*
X124788651Y-51084558D01*
X124707109Y-50978291D01*
X124608419Y-50855472D01*
X124538043Y-50769779D01*
X124440915Y-50651962D01*
X124344303Y-50534444D01*
X124253685Y-50423912D01*
X124174540Y-50327053D01*
X124112345Y-50250557D01*
X124086456Y-50218477D01*
X124024151Y-50141724D01*
X123945265Y-50045751D01*
X123859171Y-49941900D01*
X123775240Y-49841513D01*
X123761364Y-49825017D01*
X123693026Y-49742271D01*
X123635040Y-49669015D01*
X123591934Y-49611216D01*
X123568239Y-49574836D01*
X123565086Y-49566563D01*
X123570434Y-49536458D01*
X123584196Y-49481747D01*
X123602948Y-49414212D01*
X123623265Y-49345638D01*
X123641723Y-49287808D01*
X123654898Y-49252506D01*
X123657824Y-49247430D01*
X123675328Y-49255548D01*
X123712944Y-49285339D01*
X123759593Y-49327620D01*
X123805858Y-49369311D01*
X123827516Y-49383125D01*
X123823317Y-49368287D01*
X123822212Y-49366464D01*
X123794184Y-49317729D01*
X123759703Y-49253722D01*
X123746099Y-49227415D01*
X123718741Y-49175991D01*
X123701963Y-49156023D01*
X123688752Y-49162936D01*
X123677243Y-49182494D01*
X123666453Y-49198896D01*
X123652827Y-49204517D01*
X123631210Y-49196135D01*
X123596449Y-49170525D01*
X123543391Y-49124468D01*
X123466883Y-49054740D01*
X123454020Y-49042917D01*
X123227118Y-48836048D01*
X123024976Y-48655630D01*
X122844609Y-48499174D01*
X122683030Y-48364187D01*
X122537252Y-48248180D01*
X122404290Y-48148662D01*
X122281156Y-48063141D01*
X122272031Y-48057088D01*
X122108827Y-47956032D01*
X121969174Y-47884096D01*
X121853765Y-47841526D01*
X121763296Y-47828569D01*
X121698462Y-47845470D01*
X121690658Y-47850850D01*
X121669257Y-47869595D01*
X121673241Y-47878750D01*
X121708417Y-47881882D01*
X121741863Y-47882322D01*
X121831238Y-47895578D01*
X121919916Y-47937997D01*
X121923864Y-47940481D01*
X121994081Y-47990093D01*
X122085024Y-48061831D01*
X122189304Y-48149236D01*
X122299533Y-48245848D01*
X122408322Y-48345207D01*
X122508281Y-48440855D01*
X122582765Y-48516499D01*
X122644625Y-48582438D01*
X122722988Y-48666976D01*
X122813742Y-48765582D01*
X122912772Y-48873724D01*
X123015965Y-48986869D01*
X123119208Y-49100485D01*
X123218388Y-49210042D01*
X123309390Y-49311007D01*
X123388102Y-49398847D01*
X123450409Y-49469032D01*
X123492199Y-49517030D01*
X123505908Y-49533539D01*
X123550093Y-49589712D01*
X123495871Y-49833929D01*
X123451330Y-50046050D01*
X123416697Y-50240181D01*
X123390661Y-50427655D01*
X123371912Y-50619805D01*
X123359140Y-50827966D01*
X123351033Y-51063471D01*
X123350348Y-51092484D01*
X123347836Y-51418395D01*
X123356572Y-51715901D01*
X123377596Y-51995367D01*
X123411947Y-52267161D01*
X123460664Y-52541650D01*
X123524125Y-52826474D01*
X123662896Y-53315144D01*
X123838330Y-53789323D01*
X124049016Y-54247086D01*
X124293541Y-54686505D01*
X124570493Y-55105654D01*
X124878461Y-55502608D01*
X125216033Y-55875441D01*
X125581797Y-56222226D01*
X125974341Y-56541037D01*
X126392253Y-56829948D01*
X126514155Y-56905546D01*
X126930195Y-57136505D01*
X127365401Y-57338539D01*
X127813104Y-57509136D01*
X128266636Y-57645782D01*
X128719328Y-57745967D01*
X128767374Y-57754412D01*
X128872759Y-57775862D01*
X128940756Y-57797986D01*
X128973553Y-57820916D01*
X128991739Y-57846849D01*
X129029203Y-57900866D01*
X129082519Y-57978004D01*
X129148258Y-58073300D01*
X129222995Y-58181793D01*
X129281963Y-58267490D01*
X129501966Y-58579828D01*
X129708927Y-58857615D01*
X129905102Y-59103362D01*
X130092750Y-59319579D01*
X130274127Y-59508775D01*
X130451490Y-59673462D01*
X130627098Y-59816149D01*
X130759628Y-59910652D01*
X130876433Y-59981970D01*
X131010900Y-60052652D01*
X131150273Y-60116796D01*
X131281798Y-60168496D01*
X131384578Y-60199916D01*
X131548981Y-60229105D01*
X131726881Y-60242085D01*
X131900802Y-60238257D01*
X132028943Y-60222014D01*
X132266512Y-60156622D01*
X132494200Y-60052447D01*
X132711699Y-59909639D01*
X132786988Y-59849186D01*
X132845101Y-59803932D01*
X132892405Y-59780442D01*
X132946187Y-59771873D01*
X132984411Y-59771042D01*
X133253070Y-59755296D01*
X133525672Y-59709825D01*
X133590504Y-59692229D01*
X132108952Y-59692229D01*
X132081198Y-59709637D01*
X132055141Y-59717775D01*
X132017117Y-59722149D01*
X131951350Y-59724293D01*
X131870143Y-59723888D01*
X131844644Y-59723223D01*
X131727701Y-59714779D01*
X131631206Y-59695355D01*
X131548368Y-59666381D01*
X131412856Y-59604508D01*
X131291583Y-59533652D01*
X131173736Y-59446388D01*
X131048504Y-59335288D01*
X131004107Y-59292513D01*
X130938588Y-59227244D01*
X130889890Y-59176455D01*
X130861620Y-59144108D01*
X130857386Y-59134167D01*
X130862323Y-59136761D01*
X131069531Y-59265454D01*
X131248569Y-59368080D01*
X131400965Y-59445513D01*
X131408259Y-59448899D01*
X131515843Y-59495011D01*
X131639058Y-59542135D01*
X131766759Y-59586521D01*
X131887799Y-59624423D01*
X131991034Y-59652091D01*
X132045367Y-59663147D01*
X132096935Y-59676321D01*
X132108952Y-59692229D01*
X133590504Y-59692229D01*
X133792984Y-59637275D01*
X134045769Y-59540294D01*
X134274790Y-59421530D01*
X134334476Y-59384027D01*
X134403509Y-59343861D01*
X134471365Y-59312641D01*
X134510942Y-59300148D01*
X134563141Y-59284640D01*
X134636507Y-59256628D01*
X134716449Y-59221747D01*
X134728109Y-59216269D01*
X134888479Y-59118273D01*
X134888739Y-59118029D01*
X132936473Y-59118029D01*
X132929823Y-59133923D01*
X132911084Y-59155413D01*
X132906662Y-59160121D01*
X132881582Y-59184852D01*
X132856657Y-59200143D01*
X132824135Y-59206225D01*
X132776264Y-59203335D01*
X132705290Y-59191704D01*
X132603462Y-59171569D01*
X132593614Y-59169570D01*
X132511691Y-59151303D01*
X132417835Y-59127804D01*
X132319304Y-59101220D01*
X132223353Y-59073695D01*
X132137238Y-59047377D01*
X132068214Y-59024411D01*
X132023537Y-59006943D01*
X132010463Y-58997119D01*
X132010479Y-58997104D01*
X132032162Y-58997021D01*
X132083698Y-59003107D01*
X132155532Y-59014148D01*
X132186129Y-59019386D01*
X132273588Y-59032692D01*
X132386336Y-59046882D01*
X132509652Y-59060233D01*
X132625797Y-59070785D01*
X132749273Y-59080862D01*
X132837434Y-59089148D01*
X132894924Y-59097119D01*
X132926388Y-59106254D01*
X132936473Y-59118029D01*
X134888739Y-59118029D01*
X135027532Y-58987786D01*
X135143927Y-58827081D01*
X135236320Y-58638431D01*
X135303371Y-58424110D01*
X135343737Y-58186391D01*
X135345368Y-58170557D01*
X135359474Y-58084351D01*
X135384248Y-57982130D01*
X135414574Y-57884736D01*
X135417530Y-57876567D01*
X135496000Y-57635047D01*
X135506096Y-57595904D01*
X135115438Y-57595904D01*
X135106693Y-57739296D01*
X135097832Y-57826617D01*
X135079788Y-57898208D01*
X135046792Y-57973113D01*
X135021662Y-58019959D01*
X134851074Y-58295885D01*
X134665860Y-58535578D01*
X134464746Y-58740615D01*
X134380634Y-58812411D01*
X134260350Y-58909855D01*
X134130042Y-58897429D01*
X134062165Y-58889928D01*
X134012084Y-58882465D01*
X133991381Y-58876957D01*
X133987086Y-58871560D01*
X133990913Y-58864442D01*
X134009163Y-58851142D01*
X134048139Y-58827196D01*
X134114143Y-58788143D01*
X134130042Y-58778775D01*
X134349146Y-58631140D01*
X134545885Y-58458505D01*
X134723460Y-58257298D01*
X134885075Y-58023948D01*
X135015792Y-57790828D01*
X135115438Y-57595904D01*
X135506096Y-57595904D01*
X135567316Y-57358568D01*
X135630514Y-57051788D01*
X135684630Y-56719362D01*
X135726858Y-56383039D01*
X135736069Y-56278073D01*
X135743797Y-56150361D01*
X135750000Y-56005984D01*
X135754636Y-55851026D01*
X135757661Y-55691566D01*
X135759033Y-55533688D01*
X135758710Y-55383473D01*
X135756648Y-55247003D01*
X135752806Y-55130361D01*
X135747141Y-55039627D01*
X135739610Y-54980885D01*
X135736755Y-54969700D01*
X135725705Y-54939373D01*
X135719566Y-54937837D01*
X135716611Y-54969142D01*
X135715392Y-55019819D01*
X135708884Y-55179094D01*
X135694856Y-55368238D01*
X135674494Y-55577977D01*
X135648983Y-55799043D01*
X135619510Y-56022162D01*
X135587259Y-56238066D01*
X135553416Y-56437481D01*
X135519166Y-56611139D01*
X135502584Y-56684064D01*
X135471953Y-56806159D01*
X135439488Y-56926577D01*
X135407043Y-57039357D01*
X135376470Y-57138541D01*
X135349626Y-57218168D01*
X135328364Y-57272281D01*
X135314539Y-57294918D01*
X135312500Y-57294985D01*
X135294085Y-57262533D01*
X135284880Y-57198783D01*
X135284871Y-57111458D01*
X135294042Y-57008280D01*
X135312379Y-56896970D01*
X135313270Y-56892617D01*
X135342310Y-56743199D01*
X135365907Y-56600185D01*
X135384620Y-56456769D01*
X135399007Y-56306145D01*
X135409627Y-56141506D01*
X135417038Y-55956046D01*
X135421798Y-55742958D01*
X135424129Y-55541050D01*
X135427253Y-55150631D01*
X135311855Y-55150631D01*
X135309930Y-55228529D01*
X135305953Y-55325522D01*
X135300273Y-55434651D01*
X135293240Y-55548957D01*
X135285202Y-55661478D01*
X135276507Y-55765257D01*
X135270986Y-55821713D01*
X135259850Y-55915811D01*
X135245053Y-56023712D01*
X135227912Y-56137544D01*
X135209744Y-56249437D01*
X135191864Y-56351518D01*
X135175589Y-56435918D01*
X135162235Y-56494764D01*
X135154517Y-56518195D01*
X135143693Y-56510053D01*
X135123838Y-56469899D01*
X135097666Y-56404057D01*
X135067890Y-56318851D01*
X135064227Y-56307698D01*
X135019126Y-56173200D01*
X134978793Y-56060257D01*
X134944755Y-55972709D01*
X134918537Y-55914397D01*
X134901665Y-55889161D01*
X134897939Y-55889122D01*
X134898613Y-55910829D01*
X134906598Y-55963927D01*
X134920572Y-56040654D01*
X134939210Y-56133247D01*
X134941089Y-56142178D01*
X134966686Y-56268571D01*
X134993948Y-56411590D01*
X135018912Y-56550076D01*
X135031754Y-56625968D01*
X135070782Y-56865190D01*
X135009863Y-57040097D01*
X134958888Y-57174221D01*
X134895854Y-57321299D01*
X134826071Y-57470283D01*
X134754846Y-57610126D01*
X134687489Y-57729784D01*
X134649885Y-57789155D01*
X134554287Y-57915766D01*
X134438276Y-58046195D01*
X134314007Y-58167821D01*
X134193636Y-58268023D01*
X134176958Y-58280217D01*
X134116283Y-58320115D01*
X134041566Y-58364073D01*
X133960812Y-58408042D01*
X133882028Y-58447974D01*
X133813220Y-58479820D01*
X133762395Y-58499532D01*
X133737558Y-58503059D01*
X133737071Y-58502670D01*
X133740762Y-58481828D01*
X133758097Y-58434244D01*
X133785550Y-58369408D01*
X133791649Y-58355855D01*
X133850836Y-58219649D01*
X133917417Y-58056610D01*
X133987032Y-57878239D01*
X134055323Y-57696037D01*
X134117932Y-57521505D01*
X134170500Y-57366145D01*
X134189821Y-57305217D01*
X134223230Y-57193545D01*
X134259276Y-57067332D01*
X134296337Y-56932878D01*
X134332792Y-56796486D01*
X134367017Y-56664456D01*
X134397391Y-56543089D01*
X134422291Y-56438686D01*
X134440096Y-56357549D01*
X134449183Y-56305979D01*
X134450008Y-56294552D01*
X134442699Y-56302233D01*
X134422310Y-56343210D01*
X134390564Y-56413518D01*
X134349186Y-56509192D01*
X134299898Y-56626266D01*
X134244425Y-56760774D01*
X134202434Y-56864175D01*
X134114396Y-57080539D01*
X134036991Y-57266299D01*
X133966950Y-57428459D01*
X133901001Y-57574021D01*
X133835876Y-57709990D01*
X133768305Y-57843368D01*
X133695017Y-57981160D01*
X133612744Y-58130368D01*
X133603855Y-58146261D01*
X133523896Y-58288027D01*
X133460117Y-58398185D01*
X133409869Y-58480520D01*
X133370500Y-58538822D01*
X133339358Y-58576877D01*
X133313794Y-58598474D01*
X133291156Y-58607400D01*
X133280473Y-58608295D01*
X133244139Y-58597617D01*
X133184271Y-58568795D01*
X133110199Y-58526651D01*
X133054523Y-58491562D01*
X132972805Y-58435336D01*
X132871602Y-58361841D01*
X132762218Y-58279488D01*
X132655959Y-58196688D01*
X132626323Y-58172972D01*
X132607106Y-58157230D01*
X131443696Y-58157230D01*
X131433673Y-58167253D01*
X131423649Y-58157230D01*
X131433673Y-58147206D01*
X131443696Y-58157230D01*
X132607106Y-58157230D01*
X132586415Y-58140281D01*
X131403602Y-58140281D01*
X131388277Y-58136484D01*
X131342470Y-58107112D01*
X131266429Y-58052341D01*
X131160406Y-57972349D01*
X131106638Y-57930997D01*
X131039125Y-57877369D01*
X130986599Y-57832810D01*
X130955228Y-57802739D01*
X130949366Y-57792865D01*
X130967023Y-57801360D01*
X131009010Y-57829693D01*
X131068411Y-57872578D01*
X131138312Y-57924724D01*
X131211798Y-57980844D01*
X131281955Y-58035649D01*
X131341868Y-58083850D01*
X131384621Y-58120159D01*
X131403301Y-58139287D01*
X131403602Y-58140281D01*
X132586415Y-58140281D01*
X132540036Y-58102290D01*
X132445298Y-58022780D01*
X132346700Y-57938508D01*
X132248833Y-57853538D01*
X132156286Y-57771935D01*
X132073650Y-57697765D01*
X132005515Y-57635091D01*
X131956472Y-57587980D01*
X131931111Y-57560496D01*
X131928818Y-57555299D01*
X131948872Y-57546511D01*
X131999129Y-57526871D01*
X132072117Y-57499242D01*
X132160364Y-57466488D01*
X132164874Y-57464830D01*
X132631800Y-57272680D01*
X133082536Y-57046178D01*
X133514373Y-56787323D01*
X133924605Y-56498116D01*
X134310524Y-56180559D01*
X134669422Y-55836652D01*
X134998593Y-55468395D01*
X135181641Y-55235328D01*
X135232264Y-55168888D01*
X135274015Y-55116630D01*
X135301202Y-55085543D01*
X135308157Y-55079961D01*
X135311381Y-55098788D01*
X135311855Y-55150631D01*
X135427253Y-55150631D01*
X135429344Y-54889511D01*
X135563383Y-54668990D01*
X135808043Y-54228215D01*
X136016930Y-53769701D01*
X136190118Y-53293225D01*
X136327683Y-52798565D01*
X136429699Y-52285496D01*
X136478064Y-51932526D01*
X136487410Y-51820882D01*
X136494341Y-51678377D01*
X136498855Y-51514173D01*
X136500953Y-51337432D01*
X136500636Y-51157315D01*
X136497902Y-50982983D01*
X136492752Y-50823598D01*
X136485186Y-50688321D01*
X136478064Y-50609400D01*
X136399398Y-50082919D01*
X136284657Y-49573922D01*
X136133803Y-49082317D01*
X135946800Y-48608014D01*
X135723610Y-48150921D01*
X135464195Y-47710948D01*
X135168518Y-47288003D01*
X135054241Y-47141208D01*
X134952182Y-47019620D01*
X134827863Y-46880938D01*
X134689716Y-46733869D01*
X134546171Y-46587121D01*
X134405659Y-46449401D01*
X134276612Y-46329416D01*
X134220255Y-46279855D01*
X133817062Y-45959804D01*
X133393131Y-45673764D01*
X132949984Y-45422399D01*
X132489140Y-45206372D01*
X132012122Y-45026344D01*
X131520450Y-44882978D01*
X131015644Y-44776938D01*
X130651826Y-44724872D01*
X130502635Y-44711373D01*
X130324800Y-44701402D01*
X130128728Y-44695040D01*
X129924825Y-44692368D01*
X129723497Y-44693465D01*
X129535151Y-44698412D01*
X129370193Y-44707290D01*
X129288606Y-44714346D01*
X128769438Y-44787041D01*
X128266408Y-44896391D01*
X127779088Y-45042572D01*
X127307051Y-45225761D01*
X126849871Y-45446134D01*
X126407119Y-45703868D01*
X125978368Y-45999139D01*
X125750247Y-46176085D01*
X125662741Y-46250193D01*
X125558367Y-46344109D01*
X125443207Y-46451832D01*
X125323346Y-46567360D01*
X125204867Y-46684692D01*
X125093852Y-46797826D01*
X124996386Y-46900761D01*
X124918552Y-46987496D01*
X124878187Y-47036409D01*
X124835774Y-47089245D01*
X124803160Y-47126657D01*
X124787974Y-47140181D01*
X124776886Y-47123092D01*
X124750059Y-47074333D01*
X124709678Y-46998096D01*
X124657931Y-46898575D01*
X124597003Y-46779965D01*
X124529081Y-46646458D01*
X124482682Y-46554600D01*
X124338817Y-46271942D01*
X124200458Y-46005893D01*
X124068804Y-45758527D01*
X123945054Y-45531919D01*
X123830406Y-45328143D01*
X123726059Y-45149274D01*
X123633213Y-44997387D01*
X123553065Y-44874555D01*
X123486814Y-44782854D01*
X123435660Y-44724359D01*
X123415528Y-44707820D01*
X123380716Y-44687166D01*
X123368230Y-44687311D01*
G36*
X150743691Y-45446561D02*
X150710920Y-45467512D01*
X150663993Y-45504470D01*
X150625058Y-45537615D01*
X150608576Y-45564645D01*
X150610260Y-45593198D01*
X150622593Y-45624693D01*
X150647560Y-45672259D01*
X150682202Y-45731098D01*
X150723563Y-45796413D01*
X150768684Y-45863403D01*
X150814607Y-45927272D01*
X150823394Y-45938941D01*
X150859247Y-45988794D01*
X150896104Y-46044484D01*
X150930922Y-46100857D01*
X150960659Y-46152759D01*
X150982272Y-46195036D01*
X150992719Y-46222533D01*
X150993230Y-46226671D01*
X151003142Y-46244302D01*
X151019282Y-46257541D01*
X151039752Y-46276838D01*
X151045333Y-46290802D01*
X151054114Y-46309764D01*
X151076084Y-46336671D01*
X151085421Y-46346050D01*
X151112084Y-46377723D01*
X151142506Y-46423028D01*
X151168404Y-46468974D01*
X151209186Y-46548566D01*
X151241304Y-46608757D01*
X151267238Y-46653697D01*
X151289465Y-46687535D01*
X151310463Y-46714420D01*
X151324020Y-46729487D01*
X151351557Y-46761399D01*
X151383528Y-46802421D01*
X151415898Y-46846821D01*
X151444630Y-46888862D01*
X151465687Y-46922809D01*
X151475034Y-46942928D01*
X151475179Y-46944263D01*
X151483435Y-46960680D01*
X151503708Y-46985699D01*
X151507714Y-46989970D01*
X151532522Y-47019118D01*
X151563840Y-47060255D01*
X151589125Y-47096097D01*
X151634764Y-47161334D01*
X151686598Y-47231958D01*
X151740059Y-47302044D01*
X151790581Y-47365669D01*
X151833597Y-47416908D01*
X151852461Y-47437724D01*
X151886485Y-47474389D01*
X151917364Y-47508916D01*
X151930291Y-47524051D01*
X151952831Y-47551040D01*
X151984915Y-47589082D01*
X152015766Y-47625435D01*
X152053873Y-47676496D01*
X152072778Y-47716953D01*
X152074596Y-47729640D01*
X152085566Y-47776133D01*
X152118303Y-47829912D01*
X152173408Y-47891667D01*
X152251482Y-47962087D01*
X152336075Y-48029061D01*
X152384344Y-48062057D01*
X152424688Y-48078726D01*
X152467093Y-48081655D01*
X152513529Y-48075019D01*
X152542433Y-48060317D01*
X152573184Y-48031949D01*
X152597823Y-47998818D01*
X152608392Y-47969825D01*
X152608410Y-47968883D01*
X152603909Y-47946934D01*
X152591950Y-47908150D01*
X152574845Y-47859845D01*
X152569333Y-47845309D01*
X152551135Y-47795159D01*
X152537455Y-47751948D01*
X152530624Y-47723227D01*
X152530256Y-47718853D01*
X152524889Y-47694790D01*
X152510837Y-47656001D01*
X152491752Y-47612221D01*
X152467709Y-47558341D01*
X152440632Y-47493309D01*
X152416101Y-47430558D01*
X152414535Y-47426359D01*
X152320624Y-47199022D01*
X152270044Y-47094205D01*
X152244737Y-47039943D01*
X152219027Y-46978057D01*
X152205655Y-46942185D01*
X152185993Y-46893745D01*
X152157615Y-46833507D01*
X152125506Y-46771832D01*
X152112953Y-46749461D01*
X152085550Y-46700798D01*
X152063908Y-46660385D01*
X152050852Y-46633612D01*
X152048307Y-46626148D01*
X152041503Y-46610201D01*
X152023891Y-46580232D01*
X152005383Y-46551846D01*
X151977383Y-46506573D01*
X151946070Y-46450018D01*
X151919633Y-46397333D01*
X151895813Y-46349523D01*
X151872845Y-46308277D01*
X151855314Y-46281775D01*
X151853907Y-46280103D01*
X151836278Y-46255120D01*
X151814189Y-46216982D01*
X151790440Y-46171532D01*
X151767829Y-46124611D01*
X151749156Y-46082064D01*
X151737220Y-46049731D01*
X151734821Y-46033456D01*
X151735414Y-46032787D01*
X151755582Y-46033150D01*
X151789910Y-46045367D01*
X151831277Y-46066263D01*
X151872565Y-46092662D01*
X151877072Y-46095971D01*
X151913986Y-46120554D01*
X151961468Y-46148385D01*
X151991463Y-46164345D01*
X152031927Y-46188261D01*
X152080302Y-46221899D01*
X152130654Y-46260506D01*
X152177051Y-46299330D01*
X152213561Y-46333618D01*
X152234252Y-46358619D01*
X152234478Y-46359017D01*
X152236203Y-46373009D01*
X152216909Y-46377705D01*
X152211128Y-46377795D01*
X152165030Y-46385727D01*
X152126833Y-46406369D01*
X152099633Y-46434984D01*
X152086524Y-46466840D01*
X152090602Y-46497201D01*
X152114961Y-46521332D01*
X152116692Y-46522252D01*
X152146225Y-46542205D01*
X152177796Y-46569931D01*
X152179400Y-46571556D01*
X152214525Y-46601851D01*
X152251943Y-46626581D01*
X152283656Y-46653012D01*
X152312937Y-46693156D01*
X152319096Y-46704735D01*
X152367216Y-46782212D01*
X152424357Y-46837220D01*
X152447202Y-46851354D01*
X152471186Y-46868057D01*
X152508599Y-46898616D01*
X152554276Y-46938646D01*
X152601897Y-46982666D01*
X152649528Y-47026333D01*
X152692957Y-47063345D01*
X152727439Y-47089836D01*
X152748225Y-47101941D01*
X152748435Y-47102001D01*
X152771201Y-47112248D01*
X152777743Y-47120782D01*
X152787706Y-47133384D01*
X152813969Y-47156350D01*
X152851096Y-47185689D01*
X152893647Y-47217407D01*
X152936186Y-47247512D01*
X152973276Y-47272013D01*
X152999477Y-47286915D01*
X153007659Y-47289590D01*
X153021775Y-47278694D01*
X153025230Y-47262770D01*
X153029919Y-47244521D01*
X153037356Y-47243444D01*
X153052908Y-47241419D01*
X153065293Y-47216319D01*
X153073890Y-47170995D01*
X153078076Y-47108300D01*
X153078071Y-47056503D01*
X153067437Y-47013715D01*
X153038439Y-46957531D01*
X152993009Y-46890888D01*
X152933078Y-46816724D01*
X152886500Y-46765063D01*
X152850318Y-46725285D01*
X152822172Y-46692045D01*
X152806074Y-46670195D01*
X152803794Y-46664993D01*
X152793080Y-46651841D01*
X152778770Y-46645146D01*
X152761875Y-46633785D01*
X152730003Y-46606987D01*
X152686534Y-46567799D01*
X152650648Y-46534103D01*
X152421667Y-46534103D01*
X152410583Y-46525606D01*
X152393487Y-46508051D01*
X152380200Y-46489346D01*
X152381822Y-46482000D01*
X152397262Y-46491828D01*
X152410002Y-46508051D01*
X152420790Y-46527954D01*
X152421667Y-46534103D01*
X152650648Y-46534103D01*
X152634848Y-46519268D01*
X152579063Y-46465166D01*
X152479734Y-46368101D01*
X152395136Y-46287346D01*
X152322145Y-46220242D01*
X152257637Y-46164128D01*
X152198487Y-46116347D01*
X152141571Y-46074238D01*
X152083763Y-46035143D01*
X152044633Y-46010338D01*
X151978159Y-45970597D01*
X151903231Y-45928128D01*
X151832393Y-45889971D01*
X151807333Y-45877152D01*
X151753161Y-45850512D01*
X151715387Y-45834151D01*
X151687270Y-45826369D01*
X151662072Y-45825470D01*
X151633056Y-45829753D01*
X151625282Y-45831263D01*
X151573514Y-45845218D01*
X151542006Y-45865746D01*
X151524976Y-45898637D01*
X151517752Y-45938974D01*
X151517148Y-45987421D01*
X151523485Y-46043522D01*
X151534973Y-46097804D01*
X151549818Y-46140796D01*
X151558891Y-46156359D01*
X151574017Y-46180027D01*
X151593334Y-46215531D01*
X151599568Y-46228000D01*
X151622740Y-46270187D01*
X151648014Y-46308819D01*
X151653161Y-46315591D01*
X151674247Y-46346804D01*
X151699601Y-46390794D01*
X151717916Y-46426309D01*
X151742553Y-46474326D01*
X151767933Y-46519651D01*
X151783225Y-46544304D01*
X151804728Y-46582932D01*
X151819282Y-46620801D01*
X151820227Y-46624685D01*
X151834937Y-46660139D01*
X151859619Y-46695819D01*
X151862017Y-46698478D01*
X151885339Y-46729216D01*
X151915681Y-46776849D01*
X151949266Y-46834566D01*
X151982318Y-46895552D01*
X152011059Y-46952995D01*
X152031714Y-47000083D01*
X152036394Y-47013038D01*
X152050516Y-47049655D01*
X152072057Y-47098627D01*
X152095939Y-47148509D01*
X152116962Y-47191453D01*
X152132413Y-47224940D01*
X152139360Y-47242574D01*
X152139487Y-47243445D01*
X152144606Y-47257863D01*
X152158484Y-47290762D01*
X152178899Y-47336998D01*
X152199598Y-47382652D01*
X152226896Y-47446098D01*
X152251175Y-47509699D01*
X152270890Y-47568517D01*
X152284495Y-47617614D01*
X152290447Y-47652051D01*
X152288285Y-47666159D01*
X152276824Y-47660499D01*
X152252575Y-47638077D01*
X152218875Y-47602590D01*
X152179062Y-47557737D01*
X152136474Y-47507214D01*
X152094450Y-47454720D01*
X152077693Y-47432872D01*
X152043898Y-47388694D01*
X152014956Y-47351846D01*
X151995157Y-47327742D01*
X151990017Y-47322154D01*
X151975380Y-47305042D01*
X151951592Y-47274003D01*
X151929730Y-47244000D01*
X151899502Y-47202645D01*
X151870747Y-47164986D01*
X151855646Y-47146308D01*
X151800736Y-47080868D01*
X151755857Y-47025185D01*
X151714837Y-46971157D01*
X151671506Y-46910677D01*
X151624974Y-46843362D01*
X151583033Y-46781972D01*
X151542463Y-46722380D01*
X151507481Y-46670793D01*
X151482303Y-46633418D01*
X151479283Y-46628898D01*
X151446666Y-46581288D01*
X151411426Y-46531767D01*
X151396750Y-46511826D01*
X151373487Y-46476619D01*
X151343696Y-46425690D01*
X151311863Y-46366923D01*
X151291893Y-46327628D01*
X151259217Y-46265529D01*
X151223294Y-46203845D01*
X151189502Y-46151553D01*
X151172529Y-46128469D01*
X151139932Y-46084416D01*
X151111304Y-46040400D01*
X151095428Y-46011187D01*
X151074956Y-45976979D01*
X151038700Y-45927966D01*
X150989467Y-45867591D01*
X150930065Y-45799297D01*
X150863406Y-45726640D01*
X150835728Y-45691131D01*
X150804843Y-45642357D01*
X150778369Y-45592724D01*
X150736115Y-45504271D01*
X150761413Y-45472110D01*
X150777303Y-45449938D01*
X150776678Y-45441270D01*
X150764690Y-45439949D01*
X150743691Y-45446561D01*
X150743691Y-45446561D01*
G37*
X150743691Y-45446561D02*
X150710920Y-45467512D01*
X150663993Y-45504470D01*
X150625058Y-45537615D01*
X150608576Y-45564645D01*
X150610260Y-45593198D01*
X150622593Y-45624693D01*
X150647560Y-45672259D01*
X150682202Y-45731098D01*
X150723563Y-45796413D01*
X150768684Y-45863403D01*
X150814607Y-45927272D01*
X150823394Y-45938941D01*
X150859247Y-45988794D01*
X150896104Y-46044484D01*
X150930922Y-46100857D01*
X150960659Y-46152759D01*
X150982272Y-46195036D01*
X150992719Y-46222533D01*
X150993230Y-46226671D01*
X151003142Y-46244302D01*
X151019282Y-46257541D01*
X151039752Y-46276838D01*
X151045333Y-46290802D01*
X151054114Y-46309764D01*
X151076084Y-46336671D01*
X151085421Y-46346050D01*
X151112084Y-46377723D01*
X151142506Y-46423028D01*
X151168404Y-46468974D01*
X151209186Y-46548566D01*
X151241304Y-46608757D01*
X151267238Y-46653697D01*
X151289465Y-46687535D01*
X151310463Y-46714420D01*
X151324020Y-46729487D01*
X151351557Y-46761399D01*
X151383528Y-46802421D01*
X151415898Y-46846821D01*
X151444630Y-46888862D01*
X151465687Y-46922809D01*
X151475034Y-46942928D01*
X151475179Y-46944263D01*
X151483435Y-46960680D01*
X151503708Y-46985699D01*
X151507714Y-46989970D01*
X151532522Y-47019118D01*
X151563840Y-47060255D01*
X151589125Y-47096097D01*
X151634764Y-47161334D01*
X151686598Y-47231958D01*
X151740059Y-47302044D01*
X151790581Y-47365669D01*
X151833597Y-47416908D01*
X151852461Y-47437724D01*
X151886485Y-47474389D01*
X151917364Y-47508916D01*
X151930291Y-47524051D01*
X151952831Y-47551040D01*
X151984915Y-47589082D01*
X152015766Y-47625435D01*
X152053873Y-47676496D01*
X152072778Y-47716953D01*
X152074596Y-47729640D01*
X152085566Y-47776133D01*
X152118303Y-47829912D01*
X152173408Y-47891667D01*
X152251482Y-47962087D01*
X152336075Y-48029061D01*
X152384344Y-48062057D01*
X152424688Y-48078726D01*
X152467093Y-48081655D01*
X152513529Y-48075019D01*
X152542433Y-48060317D01*
X152573184Y-48031949D01*
X152597823Y-47998818D01*
X152608392Y-47969825D01*
X152608410Y-47968883D01*
X152603909Y-47946934D01*
X152591950Y-47908150D01*
X152574845Y-47859845D01*
X152569333Y-47845309D01*
X152551135Y-47795159D01*
X152537455Y-47751948D01*
X152530624Y-47723227D01*
X152530256Y-47718853D01*
X152524889Y-47694790D01*
X152510837Y-47656001D01*
X152491752Y-47612221D01*
X152467709Y-47558341D01*
X152440632Y-47493309D01*
X152416101Y-47430558D01*
X152414535Y-47426359D01*
X152320624Y-47199022D01*
X152270044Y-47094205D01*
X152244737Y-47039943D01*
X152219027Y-46978057D01*
X152205655Y-46942185D01*
X152185993Y-46893745D01*
X152157615Y-46833507D01*
X152125506Y-46771832D01*
X152112953Y-46749461D01*
X152085550Y-46700798D01*
X152063908Y-46660385D01*
X152050852Y-46633612D01*
X152048307Y-46626148D01*
X152041503Y-46610201D01*
X152023891Y-46580232D01*
X152005383Y-46551846D01*
X151977383Y-46506573D01*
X151946070Y-46450018D01*
X151919633Y-46397333D01*
X151895813Y-46349523D01*
X151872845Y-46308277D01*
X151855314Y-46281775D01*
X151853907Y-46280103D01*
X151836278Y-46255120D01*
X151814189Y-46216982D01*
X151790440Y-46171532D01*
X151767829Y-46124611D01*
X151749156Y-46082064D01*
X151737220Y-46049731D01*
X151734821Y-46033456D01*
X151735414Y-46032787D01*
X151755582Y-46033150D01*
X151789910Y-46045367D01*
X151831277Y-46066263D01*
X151872565Y-46092662D01*
X151877072Y-46095971D01*
X151913986Y-46120554D01*
X151961468Y-46148385D01*
X151991463Y-46164345D01*
X152031927Y-46188261D01*
X152080302Y-46221899D01*
X152130654Y-46260506D01*
X152177051Y-46299330D01*
X152213561Y-46333618D01*
X152234252Y-46358619D01*
X152234478Y-46359017D01*
X152236203Y-46373009D01*
X152216909Y-46377705D01*
X152211128Y-46377795D01*
X152165030Y-46385727D01*
X152126833Y-46406369D01*
X152099633Y-46434984D01*
X152086524Y-46466840D01*
X152090602Y-46497201D01*
X152114961Y-46521332D01*
X152116692Y-46522252D01*
X152146225Y-46542205D01*
X152177796Y-46569931D01*
X152179400Y-46571556D01*
X152214525Y-46601851D01*
X152251943Y-46626581D01*
X152283656Y-46653012D01*
X152312937Y-46693156D01*
X152319096Y-46704735D01*
X152367216Y-46782212D01*
X152424357Y-46837220D01*
X152447202Y-46851354D01*
X152471186Y-46868057D01*
X152508599Y-46898616D01*
X152554276Y-46938646D01*
X152601897Y-46982666D01*
X152649528Y-47026333D01*
X152692957Y-47063345D01*
X152727439Y-47089836D01*
X152748225Y-47101941D01*
X152748435Y-47102001D01*
X152771201Y-47112248D01*
X152777743Y-47120782D01*
X152787706Y-47133384D01*
X152813969Y-47156350D01*
X152851096Y-47185689D01*
X152893647Y-47217407D01*
X152936186Y-47247512D01*
X152973276Y-47272013D01*
X152999477Y-47286915D01*
X153007659Y-47289590D01*
X153021775Y-47278694D01*
X153025230Y-47262770D01*
X153029919Y-47244521D01*
X153037356Y-47243444D01*
X153052908Y-47241419D01*
X153065293Y-47216319D01*
X153073890Y-47170995D01*
X153078076Y-47108300D01*
X153078071Y-47056503D01*
X153067437Y-47013715D01*
X153038439Y-46957531D01*
X152993009Y-46890888D01*
X152933078Y-46816724D01*
X152886500Y-46765063D01*
X152850318Y-46725285D01*
X152822172Y-46692045D01*
X152806074Y-46670195D01*
X152803794Y-46664993D01*
X152793080Y-46651841D01*
X152778770Y-46645146D01*
X152761875Y-46633785D01*
X152730003Y-46606987D01*
X152686534Y-46567799D01*
X152650648Y-46534103D01*
X152421667Y-46534103D01*
X152410583Y-46525606D01*
X152393487Y-46508051D01*
X152380200Y-46489346D01*
X152381822Y-46482000D01*
X152397262Y-46491828D01*
X152410002Y-46508051D01*
X152420790Y-46527954D01*
X152421667Y-46534103D01*
X152650648Y-46534103D01*
X152634848Y-46519268D01*
X152579063Y-46465166D01*
X152479734Y-46368101D01*
X152395136Y-46287346D01*
X152322145Y-46220242D01*
X152257637Y-46164128D01*
X152198487Y-46116347D01*
X152141571Y-46074238D01*
X152083763Y-46035143D01*
X152044633Y-46010338D01*
X151978159Y-45970597D01*
X151903231Y-45928128D01*
X151832393Y-45889971D01*
X151807333Y-45877152D01*
X151753161Y-45850512D01*
X151715387Y-45834151D01*
X151687270Y-45826369D01*
X151662072Y-45825470D01*
X151633056Y-45829753D01*
X151625282Y-45831263D01*
X151573514Y-45845218D01*
X151542006Y-45865746D01*
X151524976Y-45898637D01*
X151517752Y-45938974D01*
X151517148Y-45987421D01*
X151523485Y-46043522D01*
X151534973Y-46097804D01*
X151549818Y-46140796D01*
X151558891Y-46156359D01*
X151574017Y-46180027D01*
X151593334Y-46215531D01*
X151599568Y-46228000D01*
X151622740Y-46270187D01*
X151648014Y-46308819D01*
X151653161Y-46315591D01*
X151674247Y-46346804D01*
X151699601Y-46390794D01*
X151717916Y-46426309D01*
X151742553Y-46474326D01*
X151767933Y-46519651D01*
X151783225Y-46544304D01*
X151804728Y-46582932D01*
X151819282Y-46620801D01*
X151820227Y-46624685D01*
X151834937Y-46660139D01*
X151859619Y-46695819D01*
X151862017Y-46698478D01*
X151885339Y-46729216D01*
X151915681Y-46776849D01*
X151949266Y-46834566D01*
X151982318Y-46895552D01*
X152011059Y-46952995D01*
X152031714Y-47000083D01*
X152036394Y-47013038D01*
X152050516Y-47049655D01*
X152072057Y-47098627D01*
X152095939Y-47148509D01*
X152116962Y-47191453D01*
X152132413Y-47224940D01*
X152139360Y-47242574D01*
X152139487Y-47243445D01*
X152144606Y-47257863D01*
X152158484Y-47290762D01*
X152178899Y-47336998D01*
X152199598Y-47382652D01*
X152226896Y-47446098D01*
X152251175Y-47509699D01*
X152270890Y-47568517D01*
X152284495Y-47617614D01*
X152290447Y-47652051D01*
X152288285Y-47666159D01*
X152276824Y-47660499D01*
X152252575Y-47638077D01*
X152218875Y-47602590D01*
X152179062Y-47557737D01*
X152136474Y-47507214D01*
X152094450Y-47454720D01*
X152077693Y-47432872D01*
X152043898Y-47388694D01*
X152014956Y-47351846D01*
X151995157Y-47327742D01*
X151990017Y-47322154D01*
X151975380Y-47305042D01*
X151951592Y-47274003D01*
X151929730Y-47244000D01*
X151899502Y-47202645D01*
X151870747Y-47164986D01*
X151855646Y-47146308D01*
X151800736Y-47080868D01*
X151755857Y-47025185D01*
X151714837Y-46971157D01*
X151671506Y-46910677D01*
X151624974Y-46843362D01*
X151583033Y-46781972D01*
X151542463Y-46722380D01*
X151507481Y-46670793D01*
X151482303Y-46633418D01*
X151479283Y-46628898D01*
X151446666Y-46581288D01*
X151411426Y-46531767D01*
X151396750Y-46511826D01*
X151373487Y-46476619D01*
X151343696Y-46425690D01*
X151311863Y-46366923D01*
X151291893Y-46327628D01*
X151259217Y-46265529D01*
X151223294Y-46203845D01*
X151189502Y-46151553D01*
X151172529Y-46128469D01*
X151139932Y-46084416D01*
X151111304Y-46040400D01*
X151095428Y-46011187D01*
X151074956Y-45976979D01*
X151038700Y-45927966D01*
X150989467Y-45867591D01*
X150930065Y-45799297D01*
X150863406Y-45726640D01*
X150835728Y-45691131D01*
X150804843Y-45642357D01*
X150778369Y-45592724D01*
X150736115Y-45504271D01*
X150761413Y-45472110D01*
X150777303Y-45449938D01*
X150776678Y-45441270D01*
X150764690Y-45439949D01*
X150743691Y-45446561D01*
G36*
X149803494Y-46987382D02*
X149794871Y-47001431D01*
X149786519Y-47015806D01*
X149765443Y-47040808D01*
X149753820Y-47053094D01*
X149712768Y-47095083D01*
X149728648Y-47169541D01*
X149740041Y-47213542D01*
X149758109Y-47272851D01*
X149780029Y-47338515D01*
X149795750Y-47382377D01*
X149816172Y-47438257D01*
X149832728Y-47484913D01*
X149843586Y-47517091D01*
X149846974Y-47529286D01*
X149852229Y-47544181D01*
X149866242Y-47576532D01*
X149886389Y-47620363D01*
X149894920Y-47638396D01*
X149921749Y-47697300D01*
X149947901Y-47759079D01*
X149968154Y-47811348D01*
X149969818Y-47816042D01*
X149996769Y-47893110D01*
X150086353Y-47923208D01*
X150175936Y-47953306D01*
X150169724Y-47898192D01*
X150167942Y-47857080D01*
X150171215Y-47823234D01*
X150172940Y-47817078D01*
X150174637Y-47784905D01*
X150168184Y-47765026D01*
X150156570Y-47741860D01*
X150153012Y-47732462D01*
X150145744Y-47705107D01*
X150131025Y-47661755D01*
X150111864Y-47610269D01*
X150091272Y-47558509D01*
X150072259Y-47514338D01*
X150059791Y-47488995D01*
X150043342Y-47452359D01*
X150040905Y-47430680D01*
X150050686Y-47426888D01*
X150070893Y-47443916D01*
X150080251Y-47455543D01*
X150102666Y-47484921D01*
X150119870Y-47506619D01*
X150120371Y-47507219D01*
X150132269Y-47528593D01*
X150133538Y-47535442D01*
X150141837Y-47551478D01*
X150143307Y-47552273D01*
X150160731Y-47568753D01*
X150183356Y-47600920D01*
X150206277Y-47640451D01*
X150224587Y-47679022D01*
X150232691Y-47703942D01*
X150247693Y-47742836D01*
X150272795Y-47780422D01*
X150275285Y-47783194D01*
X150313953Y-47829729D01*
X150355314Y-47886952D01*
X150391455Y-47943520D01*
X150407498Y-47972740D01*
X150429610Y-48007634D01*
X150459671Y-48044555D01*
X150465692Y-48050894D01*
X150494940Y-48085376D01*
X150517659Y-48120151D01*
X150520772Y-48126487D01*
X150539448Y-48155073D01*
X150557363Y-48160164D01*
X150571142Y-48141175D01*
X150572828Y-48135520D01*
X150585847Y-48116023D01*
X150599129Y-48116136D01*
X150624593Y-48114492D01*
X150656983Y-48099245D01*
X150686888Y-48076637D01*
X150704898Y-48052913D01*
X150706666Y-48044783D01*
X150712898Y-48020292D01*
X150719692Y-48012513D01*
X150731938Y-47995082D01*
X150720682Y-47970769D01*
X150710374Y-47959466D01*
X150693233Y-47933795D01*
X150673850Y-47892873D01*
X150656201Y-47846751D01*
X150644257Y-47805476D01*
X150641419Y-47785064D01*
X150635861Y-47762716D01*
X150621708Y-47726760D01*
X150609262Y-47699897D01*
X150585710Y-47642974D01*
X150577248Y-47599952D01*
X150584341Y-47573742D01*
X150588625Y-47570142D01*
X150603455Y-47574373D01*
X150622964Y-47594869D01*
X150624446Y-47596979D01*
X150652215Y-47632831D01*
X150677359Y-47660613D01*
X150697785Y-47683706D01*
X150706655Y-47699103D01*
X150706666Y-47699380D01*
X150713548Y-47715587D01*
X150730258Y-47742018D01*
X150731686Y-47744039D01*
X150751408Y-47775039D01*
X150776022Y-47818345D01*
X150802375Y-47867779D01*
X150827319Y-47917161D01*
X150847700Y-47960313D01*
X150860368Y-47991055D01*
X150862974Y-48001479D01*
X150872898Y-48020478D01*
X150893383Y-48038350D01*
X150923131Y-48065258D01*
X150940198Y-48088930D01*
X150960786Y-48113865D01*
X150994478Y-48142455D01*
X151013550Y-48155580D01*
X151051321Y-48183095D01*
X151082070Y-48211758D01*
X151091349Y-48223403D01*
X151109663Y-48244450D01*
X151125643Y-48243713D01*
X151129526Y-48240854D01*
X151140603Y-48217849D01*
X151139705Y-48199162D01*
X151138586Y-48179295D01*
X151150819Y-48178474D01*
X151165330Y-48192480D01*
X151165820Y-48199756D01*
X151170210Y-48213049D01*
X151189918Y-48210580D01*
X151220392Y-48193435D01*
X151233458Y-48183612D01*
X151254504Y-48165531D01*
X151264617Y-48149083D01*
X151265711Y-48125787D01*
X151259699Y-48087160D01*
X151257696Y-48076215D01*
X151249881Y-48025352D01*
X151249869Y-47998460D01*
X151257997Y-47994551D01*
X151274603Y-48012639D01*
X151277858Y-48017206D01*
X151303043Y-48049965D01*
X151328641Y-48079670D01*
X151348654Y-48103184D01*
X151357878Y-48117680D01*
X151357948Y-48118230D01*
X151365709Y-48130951D01*
X151385977Y-48157457D01*
X151412090Y-48189278D01*
X151452420Y-48229528D01*
X151488821Y-48251685D01*
X151517822Y-48254226D01*
X151532715Y-48242208D01*
X151549352Y-48235657D01*
X151570462Y-48236813D01*
X151598144Y-48234134D01*
X151626423Y-48212199D01*
X151635901Y-48201503D01*
X151657797Y-48172072D01*
X151669880Y-48149211D01*
X151670700Y-48145026D01*
X151671276Y-48125786D01*
X151672697Y-48087423D01*
X151674703Y-48036840D01*
X151675654Y-48013709D01*
X151676921Y-47949930D01*
X151673856Y-47903964D01*
X151665539Y-47867796D01*
X151656265Y-47844376D01*
X151640794Y-47800792D01*
X151632307Y-47758435D01*
X151631773Y-47749092D01*
X151626090Y-47710654D01*
X151612227Y-47665363D01*
X151606452Y-47651400D01*
X151606172Y-47650769D01*
X151346916Y-47650769D01*
X151339053Y-47654308D01*
X151325909Y-47647795D01*
X150941128Y-47647795D01*
X150934615Y-47654308D01*
X150928102Y-47647795D01*
X150934615Y-47641282D01*
X150941128Y-47647795D01*
X151325909Y-47647795D01*
X151318170Y-47643961D01*
X151305846Y-47628256D01*
X151297802Y-47608142D01*
X151299333Y-47602205D01*
X151299962Y-47592662D01*
X151292820Y-47576154D01*
X151282655Y-47554145D01*
X151285395Y-47551661D01*
X151298935Y-47566934D01*
X151321170Y-47598196D01*
X151323838Y-47602205D01*
X151343264Y-47634650D01*
X151346916Y-47650769D01*
X151606172Y-47650769D01*
X151585851Y-47605120D01*
X151565759Y-47559327D01*
X151561422Y-47549312D01*
X151542850Y-47518033D01*
X151511466Y-47476536D01*
X151473279Y-47432615D01*
X151463512Y-47422312D01*
X151423102Y-47382015D01*
X151393726Y-47357701D01*
X151369479Y-47345559D01*
X151344457Y-47341780D01*
X151338580Y-47341692D01*
X151295793Y-47347658D01*
X151249330Y-47362421D01*
X151239976Y-47366616D01*
X151188391Y-47391539D01*
X151156570Y-47337240D01*
X151128699Y-47297336D01*
X151091028Y-47252730D01*
X151065109Y-47226101D01*
X151030155Y-47194669D01*
X151005143Y-47178867D01*
X150982486Y-47175051D01*
X150964000Y-47177554D01*
X150925324Y-47192696D01*
X150889172Y-47217820D01*
X150888205Y-47218734D01*
X150867852Y-47241622D01*
X150858880Y-47265425D01*
X150858371Y-47300506D01*
X150859833Y-47319451D01*
X150866447Y-47367189D01*
X150878036Y-47426874D01*
X150891937Y-47484974D01*
X150905453Y-47535502D01*
X150917027Y-47578827D01*
X150924418Y-47606556D01*
X150924991Y-47608718D01*
X150925008Y-47620605D01*
X150914613Y-47612954D01*
X150896195Y-47588915D01*
X150872143Y-47551639D01*
X150844843Y-47504276D01*
X150842328Y-47499662D01*
X150814298Y-47455790D01*
X150775118Y-47404153D01*
X150732561Y-47354892D01*
X150726205Y-47348166D01*
X150681774Y-47304332D01*
X150645272Y-47275739D01*
X150608724Y-47256994D01*
X150574405Y-47245555D01*
X150519392Y-47231194D01*
X150480972Y-47226848D01*
X150451146Y-47233936D01*
X150421914Y-47253873D01*
X150396675Y-47277048D01*
X150364243Y-47311159D01*
X150347719Y-47338994D01*
X150342195Y-47369942D01*
X150341948Y-47381711D01*
X150340651Y-47414241D01*
X150334590Y-47426014D01*
X150320507Y-47422278D01*
X150317696Y-47420809D01*
X150299826Y-47403949D01*
X150274025Y-47370776D01*
X150245149Y-47327674D01*
X150237823Y-47315774D01*
X150182641Y-47238530D01*
X150112563Y-47161410D01*
X150034829Y-47091301D01*
X149956681Y-47035089D01*
X149922311Y-47015654D01*
X149871441Y-46993936D01*
X149830410Y-46984353D01*
X149803494Y-46987382D01*
X149803494Y-46987382D01*
G37*
X149803494Y-46987382D02*
X149794871Y-47001431D01*
X149786519Y-47015806D01*
X149765443Y-47040808D01*
X149753820Y-47053094D01*
X149712768Y-47095083D01*
X149728648Y-47169541D01*
X149740041Y-47213542D01*
X149758109Y-47272851D01*
X149780029Y-47338515D01*
X149795750Y-47382377D01*
X149816172Y-47438257D01*
X149832728Y-47484913D01*
X149843586Y-47517091D01*
X149846974Y-47529286D01*
X149852229Y-47544181D01*
X149866242Y-47576532D01*
X149886389Y-47620363D01*
X149894920Y-47638396D01*
X149921749Y-47697300D01*
X149947901Y-47759079D01*
X149968154Y-47811348D01*
X149969818Y-47816042D01*
X149996769Y-47893110D01*
X150086353Y-47923208D01*
X150175936Y-47953306D01*
X150169724Y-47898192D01*
X150167942Y-47857080D01*
X150171215Y-47823234D01*
X150172940Y-47817078D01*
X150174637Y-47784905D01*
X150168184Y-47765026D01*
X150156570Y-47741860D01*
X150153012Y-47732462D01*
X150145744Y-47705107D01*
X150131025Y-47661755D01*
X150111864Y-47610269D01*
X150091272Y-47558509D01*
X150072259Y-47514338D01*
X150059791Y-47488995D01*
X150043342Y-47452359D01*
X150040905Y-47430680D01*
X150050686Y-47426888D01*
X150070893Y-47443916D01*
X150080251Y-47455543D01*
X150102666Y-47484921D01*
X150119870Y-47506619D01*
X150120371Y-47507219D01*
X150132269Y-47528593D01*
X150133538Y-47535442D01*
X150141837Y-47551478D01*
X150143307Y-47552273D01*
X150160731Y-47568753D01*
X150183356Y-47600920D01*
X150206277Y-47640451D01*
X150224587Y-47679022D01*
X150232691Y-47703942D01*
X150247693Y-47742836D01*
X150272795Y-47780422D01*
X150275285Y-47783194D01*
X150313953Y-47829729D01*
X150355314Y-47886952D01*
X150391455Y-47943520D01*
X150407498Y-47972740D01*
X150429610Y-48007634D01*
X150459671Y-48044555D01*
X150465692Y-48050894D01*
X150494940Y-48085376D01*
X150517659Y-48120151D01*
X150520772Y-48126487D01*
X150539448Y-48155073D01*
X150557363Y-48160164D01*
X150571142Y-48141175D01*
X150572828Y-48135520D01*
X150585847Y-48116023D01*
X150599129Y-48116136D01*
X150624593Y-48114492D01*
X150656983Y-48099245D01*
X150686888Y-48076637D01*
X150704898Y-48052913D01*
X150706666Y-48044783D01*
X150712898Y-48020292D01*
X150719692Y-48012513D01*
X150731938Y-47995082D01*
X150720682Y-47970769D01*
X150710374Y-47959466D01*
X150693233Y-47933795D01*
X150673850Y-47892873D01*
X150656201Y-47846751D01*
X150644257Y-47805476D01*
X150641419Y-47785064D01*
X150635861Y-47762716D01*
X150621708Y-47726760D01*
X150609262Y-47699897D01*
X150585710Y-47642974D01*
X150577248Y-47599952D01*
X150584341Y-47573742D01*
X150588625Y-47570142D01*
X150603455Y-47574373D01*
X150622964Y-47594869D01*
X150624446Y-47596979D01*
X150652215Y-47632831D01*
X150677359Y-47660613D01*
X150697785Y-47683706D01*
X150706655Y-47699103D01*
X150706666Y-47699380D01*
X150713548Y-47715587D01*
X150730258Y-47742018D01*
X150731686Y-47744039D01*
X150751408Y-47775039D01*
X150776022Y-47818345D01*
X150802375Y-47867779D01*
X150827319Y-47917161D01*
X150847700Y-47960313D01*
X150860368Y-47991055D01*
X150862974Y-48001479D01*
X150872898Y-48020478D01*
X150893383Y-48038350D01*
X150923131Y-48065258D01*
X150940198Y-48088930D01*
X150960786Y-48113865D01*
X150994478Y-48142455D01*
X151013550Y-48155580D01*
X151051321Y-48183095D01*
X151082070Y-48211758D01*
X151091349Y-48223403D01*
X151109663Y-48244450D01*
X151125643Y-48243713D01*
X151129526Y-48240854D01*
X151140603Y-48217849D01*
X151139705Y-48199162D01*
X151138586Y-48179295D01*
X151150819Y-48178474D01*
X151165330Y-48192480D01*
X151165820Y-48199756D01*
X151170210Y-48213049D01*
X151189918Y-48210580D01*
X151220392Y-48193435D01*
X151233458Y-48183612D01*
X151254504Y-48165531D01*
X151264617Y-48149083D01*
X151265711Y-48125787D01*
X151259699Y-48087160D01*
X151257696Y-48076215D01*
X151249881Y-48025352D01*
X151249869Y-47998460D01*
X151257997Y-47994551D01*
X151274603Y-48012639D01*
X151277858Y-48017206D01*
X151303043Y-48049965D01*
X151328641Y-48079670D01*
X151348654Y-48103184D01*
X151357878Y-48117680D01*
X151357948Y-48118230D01*
X151365709Y-48130951D01*
X151385977Y-48157457D01*
X151412090Y-48189278D01*
X151452420Y-48229528D01*
X151488821Y-48251685D01*
X151517822Y-48254226D01*
X151532715Y-48242208D01*
X151549352Y-48235657D01*
X151570462Y-48236813D01*
X151598144Y-48234134D01*
X151626423Y-48212199D01*
X151635901Y-48201503D01*
X151657797Y-48172072D01*
X151669880Y-48149211D01*
X151670700Y-48145026D01*
X151671276Y-48125786D01*
X151672697Y-48087423D01*
X151674703Y-48036840D01*
X151675654Y-48013709D01*
X151676921Y-47949930D01*
X151673856Y-47903964D01*
X151665539Y-47867796D01*
X151656265Y-47844376D01*
X151640794Y-47800792D01*
X151632307Y-47758435D01*
X151631773Y-47749092D01*
X151626090Y-47710654D01*
X151612227Y-47665363D01*
X151606452Y-47651400D01*
X151606172Y-47650769D01*
X151346916Y-47650769D01*
X151339053Y-47654308D01*
X151325909Y-47647795D01*
X150941128Y-47647795D01*
X150934615Y-47654308D01*
X150928102Y-47647795D01*
X150934615Y-47641282D01*
X150941128Y-47647795D01*
X151325909Y-47647795D01*
X151318170Y-47643961D01*
X151305846Y-47628256D01*
X151297802Y-47608142D01*
X151299333Y-47602205D01*
X151299962Y-47592662D01*
X151292820Y-47576154D01*
X151282655Y-47554145D01*
X151285395Y-47551661D01*
X151298935Y-47566934D01*
X151321170Y-47598196D01*
X151323838Y-47602205D01*
X151343264Y-47634650D01*
X151346916Y-47650769D01*
X151606172Y-47650769D01*
X151585851Y-47605120D01*
X151565759Y-47559327D01*
X151561422Y-47549312D01*
X151542850Y-47518033D01*
X151511466Y-47476536D01*
X151473279Y-47432615D01*
X151463512Y-47422312D01*
X151423102Y-47382015D01*
X151393726Y-47357701D01*
X151369479Y-47345559D01*
X151344457Y-47341780D01*
X151338580Y-47341692D01*
X151295793Y-47347658D01*
X151249330Y-47362421D01*
X151239976Y-47366616D01*
X151188391Y-47391539D01*
X151156570Y-47337240D01*
X151128699Y-47297336D01*
X151091028Y-47252730D01*
X151065109Y-47226101D01*
X151030155Y-47194669D01*
X151005143Y-47178867D01*
X150982486Y-47175051D01*
X150964000Y-47177554D01*
X150925324Y-47192696D01*
X150889172Y-47217820D01*
X150888205Y-47218734D01*
X150867852Y-47241622D01*
X150858880Y-47265425D01*
X150858371Y-47300506D01*
X150859833Y-47319451D01*
X150866447Y-47367189D01*
X150878036Y-47426874D01*
X150891937Y-47484974D01*
X150905453Y-47535502D01*
X150917027Y-47578827D01*
X150924418Y-47606556D01*
X150924991Y-47608718D01*
X150925008Y-47620605D01*
X150914613Y-47612954D01*
X150896195Y-47588915D01*
X150872143Y-47551639D01*
X150844843Y-47504276D01*
X150842328Y-47499662D01*
X150814298Y-47455790D01*
X150775118Y-47404153D01*
X150732561Y-47354892D01*
X150726205Y-47348166D01*
X150681774Y-47304332D01*
X150645272Y-47275739D01*
X150608724Y-47256994D01*
X150574405Y-47245555D01*
X150519392Y-47231194D01*
X150480972Y-47226848D01*
X150451146Y-47233936D01*
X150421914Y-47253873D01*
X150396675Y-47277048D01*
X150364243Y-47311159D01*
X150347719Y-47338994D01*
X150342195Y-47369942D01*
X150341948Y-47381711D01*
X150340651Y-47414241D01*
X150334590Y-47426014D01*
X150320507Y-47422278D01*
X150317696Y-47420809D01*
X150299826Y-47403949D01*
X150274025Y-47370776D01*
X150245149Y-47327674D01*
X150237823Y-47315774D01*
X150182641Y-47238530D01*
X150112563Y-47161410D01*
X150034829Y-47091301D01*
X149956681Y-47035089D01*
X149922311Y-47015654D01*
X149871441Y-46993936D01*
X149830410Y-46984353D01*
X149803494Y-46987382D01*
G36*
X147939052Y-45518583D02*
X147920772Y-45546037D01*
X147919179Y-45557918D01*
X147911035Y-45578629D01*
X147900099Y-45583231D01*
X147881678Y-45592221D01*
X147865526Y-45612059D01*
X147859072Y-45632040D01*
X147861666Y-45638606D01*
X147865984Y-45653800D01*
X147871656Y-45688446D01*
X147877675Y-45736051D01*
X147879647Y-45754293D01*
X147892264Y-45835706D01*
X147913895Y-45906552D01*
X147934953Y-45954462D01*
X147973023Y-46027970D01*
X148013466Y-46097002D01*
X148051836Y-46154296D01*
X148075487Y-46183986D01*
X148111230Y-46224621D01*
X148147165Y-46267182D01*
X148189529Y-46319130D01*
X148215701Y-46351744D01*
X148254395Y-46398568D01*
X148293791Y-46443703D01*
X148326079Y-46478234D01*
X148329239Y-46481373D01*
X148356017Y-46510847D01*
X148372527Y-46535197D01*
X148375076Y-46543245D01*
X148383044Y-46558819D01*
X148388102Y-46560154D01*
X148398721Y-46571052D01*
X148401128Y-46585940D01*
X148388134Y-46611576D01*
X148349238Y-46638183D01*
X148346585Y-46639552D01*
X148309631Y-46660242D01*
X148280859Y-46679545D01*
X148274014Y-46685407D01*
X148254600Y-46700478D01*
X148246396Y-46703436D01*
X148233195Y-46715068D01*
X148218305Y-46745082D01*
X148204272Y-46786157D01*
X148193643Y-46830969D01*
X148189102Y-46868191D01*
X148185035Y-46904246D01*
X148177873Y-46926151D01*
X148173179Y-46929399D01*
X148159593Y-46917607D01*
X148140902Y-46890332D01*
X148133581Y-46877296D01*
X148096489Y-46808025D01*
X148068216Y-46757200D01*
X148045860Y-46720001D01*
X148026518Y-46691609D01*
X148007287Y-46667204D01*
X148006417Y-46666169D01*
X147976908Y-46625687D01*
X147948528Y-46578406D01*
X147941763Y-46565220D01*
X147922851Y-46531953D01*
X147905840Y-46511339D01*
X147899367Y-46508051D01*
X147886341Y-46497129D01*
X147868325Y-46469013D01*
X147855389Y-46443095D01*
X147832630Y-46401042D01*
X147807171Y-46365890D01*
X147794452Y-46353297D01*
X147772141Y-46332159D01*
X147762871Y-46316249D01*
X147752610Y-46301817D01*
X147730901Y-46286933D01*
X147709760Y-46268936D01*
X147680423Y-46235997D01*
X147648444Y-46195305D01*
X147619374Y-46154046D01*
X147598765Y-46119409D01*
X147594813Y-46110769D01*
X147582628Y-46092582D01*
X147562249Y-46069139D01*
X147519857Y-46024036D01*
X147490792Y-45990914D01*
X147469796Y-45963494D01*
X147455269Y-45941436D01*
X147408226Y-45875002D01*
X147362403Y-45827386D01*
X147319936Y-45800091D01*
X147282959Y-45794622D01*
X147261215Y-45804807D01*
X147244786Y-45826398D01*
X147241846Y-45837739D01*
X147232229Y-45856800D01*
X147209488Y-45878478D01*
X147177130Y-45902359D01*
X147215088Y-45981673D01*
X147239589Y-46026048D01*
X147265709Y-46062852D01*
X147285408Y-46082192D01*
X147307544Y-46102710D01*
X147337930Y-46138614D01*
X147371012Y-46183193D01*
X147380756Y-46197440D01*
X147423842Y-46260549D01*
X147458123Y-46307340D01*
X147488320Y-46343764D01*
X147519153Y-46375770D01*
X147531666Y-46387683D01*
X147555199Y-46414183D01*
X147567123Y-46436408D01*
X147567487Y-46439332D01*
X147573302Y-46451837D01*
X147578270Y-46450822D01*
X147590919Y-46456577D01*
X147613320Y-46476726D01*
X147639645Y-46504784D01*
X147664066Y-46534265D01*
X147680756Y-46558684D01*
X147684717Y-46569271D01*
X147694502Y-46583728D01*
X147710530Y-46596058D01*
X147730983Y-46616606D01*
X147755075Y-46651536D01*
X147768541Y-46675720D01*
X147789767Y-46712536D01*
X147809645Y-46738738D01*
X147819212Y-46746350D01*
X147835651Y-46761520D01*
X147856280Y-46791906D01*
X147866048Y-46809848D01*
X147885322Y-46847542D01*
X147901241Y-46877588D01*
X147905837Y-46885795D01*
X147916035Y-46905898D01*
X147933725Y-46943285D01*
X147955844Y-46991425D01*
X147966962Y-47016051D01*
X147992449Y-47069280D01*
X148018011Y-47116741D01*
X148039455Y-47150849D01*
X148046073Y-47159200D01*
X148066689Y-47182935D01*
X148075336Y-47198631D01*
X148069103Y-47207804D01*
X148045077Y-47211965D01*
X148000346Y-47212628D01*
X147945230Y-47211603D01*
X147884198Y-47206731D01*
X147837265Y-47192298D01*
X147793341Y-47163784D01*
X147763086Y-47137358D01*
X147732601Y-47113774D01*
X147704686Y-47099210D01*
X147704256Y-47099077D01*
X147673770Y-47084342D01*
X147652153Y-47068942D01*
X147624070Y-47050678D01*
X147579844Y-47027826D01*
X147527976Y-47004242D01*
X147476970Y-46983780D01*
X147435325Y-46970297D01*
X147433807Y-46969916D01*
X147367460Y-46965537D01*
X147300612Y-46981513D01*
X147243672Y-47015178D01*
X147238331Y-47019968D01*
X147209466Y-47050386D01*
X147189140Y-47077860D01*
X147185158Y-47085903D01*
X147174741Y-47102248D01*
X147158439Y-47095233D01*
X147156932Y-47094000D01*
X147131407Y-47082903D01*
X147094253Y-47076809D01*
X147088386Y-47076549D01*
X147050448Y-47080404D01*
X147019313Y-47098088D01*
X146999146Y-47117298D01*
X146971131Y-47141498D01*
X146940303Y-47155116D01*
X146901790Y-47158309D01*
X146850722Y-47151229D01*
X146782227Y-47134034D01*
X146751585Y-47125165D01*
X146661630Y-47099719D01*
X146580694Y-47079103D01*
X146513326Y-47064366D01*
X146464076Y-47056556D01*
X146449452Y-47055586D01*
X146422637Y-47064676D01*
X146389664Y-47087835D01*
X146358226Y-47117944D01*
X146336020Y-47147880D01*
X146330051Y-47166083D01*
X146322532Y-47183258D01*
X146316256Y-47185385D01*
X146308193Y-47193229D01*
X146309933Y-47197472D01*
X146306067Y-47210616D01*
X146294379Y-47216868D01*
X146278063Y-47232525D01*
X146260526Y-47264030D01*
X146246078Y-47301775D01*
X146239025Y-47336151D01*
X146238871Y-47340674D01*
X146249379Y-47353337D01*
X146276401Y-47372659D01*
X146300743Y-47387011D01*
X146353831Y-47425107D01*
X146399417Y-47474175D01*
X146430467Y-47526011D01*
X146437451Y-47546504D01*
X146440785Y-47565744D01*
X146432759Y-47567821D01*
X146410152Y-47556187D01*
X146353357Y-47519602D01*
X146302117Y-47478048D01*
X146274156Y-47449154D01*
X146252578Y-47427940D01*
X146236862Y-47419846D01*
X146220180Y-47412147D01*
X146191233Y-47392339D01*
X146168081Y-47374256D01*
X146135728Y-47349074D01*
X146111349Y-47332517D01*
X146102771Y-47328667D01*
X146086397Y-47321802D01*
X146059988Y-47305179D01*
X146058523Y-47304146D01*
X146017882Y-47284139D01*
X145962630Y-47267740D01*
X145903747Y-47257243D01*
X145852207Y-47254941D01*
X145834034Y-47257254D01*
X145797070Y-47276016D01*
X145781924Y-47300565D01*
X145767704Y-47336796D01*
X145756923Y-47361231D01*
X145742993Y-47393350D01*
X145731060Y-47424161D01*
X145717088Y-47445994D01*
X145700507Y-47454863D01*
X145689148Y-47449031D01*
X145688861Y-47433532D01*
X145685034Y-47423770D01*
X145680142Y-47425510D01*
X145662330Y-47423657D01*
X145648185Y-47413453D01*
X145629058Y-47397560D01*
X145620701Y-47393795D01*
X145606770Y-47386087D01*
X145576320Y-47364802D01*
X145533126Y-47332700D01*
X145480961Y-47292540D01*
X145463846Y-47279112D01*
X145417228Y-47252262D01*
X145353376Y-47228410D01*
X145280792Y-47209475D01*
X145207978Y-47197376D01*
X145143436Y-47194033D01*
X145105974Y-47198331D01*
X145078978Y-47214406D01*
X145047237Y-47246988D01*
X145015725Y-47288879D01*
X144989416Y-47332881D01*
X144973282Y-47371795D01*
X144970927Y-47393795D01*
X144980460Y-47433343D01*
X144995360Y-47478446D01*
X145012216Y-47520193D01*
X145027617Y-47549669D01*
X145033232Y-47556615D01*
X145051582Y-47575901D01*
X145077993Y-47607009D01*
X145107758Y-47643940D01*
X145136168Y-47680696D01*
X145158517Y-47711278D01*
X145170097Y-47729687D01*
X145170769Y-47731875D01*
X145177904Y-47746045D01*
X145196635Y-47775350D01*
X145222955Y-47814069D01*
X145252855Y-47856478D01*
X145282326Y-47896853D01*
X145307359Y-47929471D01*
X145318674Y-47943043D01*
X145330886Y-47962989D01*
X145330333Y-47972350D01*
X145332700Y-47979368D01*
X145337931Y-47979949D01*
X145350694Y-47990708D01*
X145353128Y-48003395D01*
X145363947Y-48036172D01*
X145396005Y-48054324D01*
X145430992Y-48058103D01*
X145474691Y-48050862D01*
X145501321Y-48027368D01*
X145512878Y-47984964D01*
X145513365Y-47948393D01*
X145509868Y-47906365D01*
X145504286Y-47873176D01*
X145501322Y-47863726D01*
X145492683Y-47840814D01*
X145491022Y-47833833D01*
X145482509Y-47817632D01*
X145469524Y-47800692D01*
X145449464Y-47772162D01*
X145440625Y-47754680D01*
X145427778Y-47735840D01*
X145420187Y-47732462D01*
X145409348Y-47722287D01*
X145389964Y-47696301D01*
X145366415Y-47661312D01*
X145343081Y-47624128D01*
X145324343Y-47591555D01*
X145314580Y-47570403D01*
X145314051Y-47567506D01*
X145306704Y-47551490D01*
X145289860Y-47530151D01*
X145271316Y-47512039D01*
X145258864Y-47505703D01*
X145258125Y-47506165D01*
X145248633Y-47501001D01*
X145234357Y-47480418D01*
X145220191Y-47453183D01*
X145211031Y-47428063D01*
X145209846Y-47419690D01*
X145220491Y-47411051D01*
X145247236Y-47411312D01*
X145282292Y-47418979D01*
X145317871Y-47432555D01*
X145338321Y-47444352D01*
X145371438Y-47464411D01*
X145399155Y-47476736D01*
X145421468Y-47489832D01*
X145454380Y-47516233D01*
X145490335Y-47549802D01*
X145523783Y-47582005D01*
X145550522Y-47605311D01*
X145565021Y-47614913D01*
X145565344Y-47614947D01*
X145583648Y-47622532D01*
X145591395Y-47628060D01*
X145611234Y-47644100D01*
X145641053Y-47668075D01*
X145649717Y-47675023D01*
X145675556Y-47700967D01*
X145688474Y-47724406D01*
X145688794Y-47730057D01*
X145697458Y-47750550D01*
X145724359Y-47768438D01*
X145765522Y-47787503D01*
X145788158Y-47800322D01*
X145797854Y-47810501D01*
X145799828Y-47817128D01*
X145811023Y-47834468D01*
X145837905Y-47862152D01*
X145874856Y-47895527D01*
X145916259Y-47929942D01*
X145956499Y-47960744D01*
X145989959Y-47983281D01*
X146011021Y-47992901D01*
X146012124Y-47992974D01*
X146033362Y-47982490D01*
X146038427Y-47974346D01*
X146055049Y-47956875D01*
X146082326Y-47942906D01*
X146114475Y-47921229D01*
X146127874Y-47890043D01*
X146137576Y-47859671D01*
X146148619Y-47842607D01*
X146148694Y-47842560D01*
X146160992Y-47821120D01*
X146159853Y-47785955D01*
X146147454Y-47744193D01*
X146125972Y-47702962D01*
X146097584Y-47669392D01*
X146095179Y-47667333D01*
X146084090Y-47653747D01*
X146063595Y-47625437D01*
X146045166Y-47598815D01*
X146021510Y-47557387D01*
X146016724Y-47532980D01*
X146028969Y-47526812D01*
X146056404Y-47540101D01*
X146091138Y-47568385D01*
X146152050Y-47622440D01*
X146206433Y-47664856D01*
X146264923Y-47703594D01*
X146299578Y-47724390D01*
X146340403Y-47750465D01*
X146371731Y-47774465D01*
X146386944Y-47791306D01*
X146387076Y-47791629D01*
X146402044Y-47806517D01*
X146434652Y-47827538D01*
X146478536Y-47850703D01*
X146489914Y-47856081D01*
X146538407Y-47880418D01*
X146579950Y-47904720D01*
X146606703Y-47924334D01*
X146609265Y-47926921D01*
X146628837Y-47946097D01*
X146646083Y-47951633D01*
X146668890Y-47942990D01*
X146703960Y-47920424D01*
X146743919Y-47888473D01*
X146768408Y-47853808D01*
X146780579Y-47809174D01*
X146783584Y-47747315D01*
X146783462Y-47737428D01*
X146780905Y-47684895D01*
X146773688Y-47648686D01*
X146759223Y-47619158D01*
X146747189Y-47602205D01*
X146720518Y-47562350D01*
X146698703Y-47521716D01*
X146695513Y-47514282D01*
X146681293Y-47486060D01*
X146668571Y-47472231D01*
X146667137Y-47471949D01*
X146656833Y-47461445D01*
X146655692Y-47453390D01*
X146646819Y-47434871D01*
X146623889Y-47406313D01*
X146600680Y-47382487D01*
X146572593Y-47353261D01*
X146555958Y-47330946D01*
X146553913Y-47321899D01*
X146569131Y-47322438D01*
X146601239Y-47331706D01*
X146643381Y-47347711D01*
X146644745Y-47348282D01*
X146714527Y-47371691D01*
X146788186Y-47386594D01*
X146858463Y-47392302D01*
X146918103Y-47388126D01*
X146952600Y-47377546D01*
X146982477Y-47366437D01*
X147002636Y-47365619D01*
X147003590Y-47366151D01*
X147015642Y-47380635D01*
X147036535Y-47411438D01*
X147062071Y-47452325D01*
X147066031Y-47458923D01*
X147093914Y-47503243D01*
X147119999Y-47540651D01*
X147138994Y-47563596D01*
X147140133Y-47564656D01*
X147158674Y-47589134D01*
X147163692Y-47606248D01*
X147171712Y-47625119D01*
X147193065Y-47657431D01*
X147223691Y-47697230D01*
X147235188Y-47711049D01*
X147286361Y-47765757D01*
X147331733Y-47801162D01*
X147364607Y-47817445D01*
X147400341Y-47834061D01*
X147424475Y-47850796D01*
X147429314Y-47857243D01*
X147444898Y-47873244D01*
X147475156Y-47890970D01*
X147484465Y-47895130D01*
X147520970Y-47915150D01*
X147548695Y-47938478D01*
X147551886Y-47942541D01*
X147584227Y-47971735D01*
X147632974Y-47996851D01*
X147688483Y-48013802D01*
X147731691Y-48018740D01*
X147771825Y-48014237D01*
X147810083Y-47997445D01*
X147846352Y-47972315D01*
X147916827Y-47914991D01*
X147966569Y-47864357D01*
X147998081Y-47815321D01*
X148013867Y-47762794D01*
X148014595Y-47745415D01*
X147814181Y-47745415D01*
X147808680Y-47770789D01*
X147789977Y-47794454D01*
X147762605Y-47808794D01*
X147751809Y-47810201D01*
X147732533Y-47804021D01*
X147698438Y-47787378D01*
X147656687Y-47763789D01*
X147654117Y-47762243D01*
X147605329Y-47729046D01*
X147550122Y-47685415D01*
X147492059Y-47634891D01*
X147434704Y-47581014D01*
X147381621Y-47527324D01*
X147336375Y-47477360D01*
X147302528Y-47434664D01*
X147283645Y-47402775D01*
X147280923Y-47391556D01*
X147273875Y-47368015D01*
X147260087Y-47343793D01*
X147246738Y-47319423D01*
X147250683Y-47301203D01*
X147257568Y-47292049D01*
X147276203Y-47263765D01*
X147291970Y-47232432D01*
X147302052Y-47211823D01*
X147314562Y-47201383D01*
X147336827Y-47198844D01*
X147376171Y-47201940D01*
X147386881Y-47203051D01*
X147435592Y-47211096D01*
X147485102Y-47224051D01*
X147529298Y-47239657D01*
X147562066Y-47255652D01*
X147577291Y-47269778D01*
X147577469Y-47273504D01*
X147583794Y-47288629D01*
X147603790Y-47313973D01*
X147616333Y-47327247D01*
X147641845Y-47356498D01*
X147656923Y-47380814D01*
X147658666Y-47387637D01*
X147668551Y-47409909D01*
X147675700Y-47415942D01*
X147692347Y-47435599D01*
X147713416Y-47473525D01*
X147736140Y-47522951D01*
X147757753Y-47577106D01*
X147775490Y-47629221D01*
X147786583Y-47672523D01*
X147788923Y-47693071D01*
X147795009Y-47717817D01*
X147801948Y-47725949D01*
X147814181Y-47745415D01*
X148014595Y-47745415D01*
X148016430Y-47701685D01*
X148010106Y-47639361D01*
X148001339Y-47583742D01*
X147991535Y-47530963D01*
X147983056Y-47493429D01*
X147975651Y-47460662D01*
X147973740Y-47440536D01*
X147974471Y-47438366D01*
X147989632Y-47433706D01*
X148022358Y-47427718D01*
X148064402Y-47421498D01*
X148107519Y-47416144D01*
X148143462Y-47412752D01*
X148163986Y-47412419D01*
X148165715Y-47412925D01*
X148175909Y-47427527D01*
X148194015Y-47461128D01*
X148217551Y-47508842D01*
X148244030Y-47565780D01*
X148248703Y-47576154D01*
X148263857Y-47612935D01*
X148282684Y-47662665D01*
X148298257Y-47706410D01*
X148315028Y-47752047D01*
X148330611Y-47789163D01*
X148341260Y-47809124D01*
X148354004Y-47832735D01*
X148356086Y-47841688D01*
X148361388Y-47866440D01*
X148364564Y-47875744D01*
X148372293Y-47899819D01*
X148382873Y-47937416D01*
X148387216Y-47953897D01*
X148399108Y-47995583D01*
X148410903Y-48030192D01*
X148414399Y-48038564D01*
X148423240Y-48063182D01*
X148435835Y-48105035D01*
X148449781Y-48156042D01*
X148452928Y-48168223D01*
X148466611Y-48217806D01*
X148479508Y-48257704D01*
X148489339Y-48281042D01*
X148491226Y-48283668D01*
X148510023Y-48289544D01*
X148525906Y-48275719D01*
X148531384Y-48252718D01*
X148535544Y-48231287D01*
X148549836Y-48231434D01*
X148572828Y-48249117D01*
X148590710Y-48262247D01*
X148606146Y-48259788D01*
X148629213Y-48240333D01*
X148652734Y-48210878D01*
X148659666Y-48178120D01*
X148650277Y-48135556D01*
X148635054Y-48098456D01*
X148619740Y-48054501D01*
X148616374Y-48020024D01*
X148617619Y-48014086D01*
X148627360Y-47955099D01*
X148625180Y-47886913D01*
X148612462Y-47819914D01*
X148590592Y-47764489D01*
X148582690Y-47752000D01*
X148575631Y-47734227D01*
X148564544Y-47697527D01*
X148551311Y-47648345D01*
X148544638Y-47621744D01*
X148528147Y-47557737D01*
X148509971Y-47492341D01*
X148493435Y-47437411D01*
X148489832Y-47426359D01*
X148468582Y-47361361D01*
X148455635Y-47315973D01*
X148450620Y-47285240D01*
X148453168Y-47264207D01*
X148462910Y-47247918D01*
X148475561Y-47235041D01*
X148505520Y-47200478D01*
X148527649Y-47165846D01*
X148549899Y-47131919D01*
X148581287Y-47094810D01*
X148591540Y-47084464D01*
X148617912Y-47055216D01*
X148633646Y-47030197D01*
X148635589Y-47022593D01*
X148641009Y-47004405D01*
X148653979Y-47006445D01*
X148669566Y-47026075D01*
X148678179Y-47045359D01*
X148687727Y-47076416D01*
X148690862Y-47095983D01*
X148690682Y-47096996D01*
X148695317Y-47112419D01*
X148710398Y-47145848D01*
X148733477Y-47192650D01*
X148762106Y-47248197D01*
X148793837Y-47307855D01*
X148826220Y-47366995D01*
X148856807Y-47420986D01*
X148883150Y-47465196D01*
X148895816Y-47484974D01*
X148916102Y-47520444D01*
X148935062Y-47561226D01*
X148935603Y-47562569D01*
X148953216Y-47598532D01*
X148972100Y-47626011D01*
X148973798Y-47627799D01*
X148986606Y-47646631D01*
X149008645Y-47685610D01*
X149038148Y-47741263D01*
X149073347Y-47810120D01*
X149112475Y-47888712D01*
X149153765Y-47973568D01*
X149195451Y-48061217D01*
X149206191Y-48084154D01*
X149240850Y-48165003D01*
X149272262Y-48250536D01*
X149298418Y-48334177D01*
X149317304Y-48409348D01*
X149326909Y-48469475D01*
X149327618Y-48481161D01*
X149329689Y-48521400D01*
X149336494Y-48543330D01*
X149353895Y-48551025D01*
X149387754Y-48548565D01*
X149417948Y-48543982D01*
X149452246Y-48529786D01*
X149475682Y-48498153D01*
X149489114Y-48446846D01*
X149493403Y-48373629D01*
X149493075Y-48348599D01*
X149480460Y-48232761D01*
X149450145Y-48112212D01*
X149405156Y-47998026D01*
X149388328Y-47964959D01*
X149302623Y-47805528D01*
X149217529Y-47644448D01*
X149195446Y-47602226D01*
X149164405Y-47544806D01*
X149134530Y-47493106D01*
X149109471Y-47453243D01*
X149094376Y-47432892D01*
X149078213Y-47410074D01*
X149053383Y-47368840D01*
X149022711Y-47314152D01*
X148989022Y-47250974D01*
X148972028Y-47217949D01*
X148932576Y-47138235D01*
X148904913Y-47076974D01*
X148887495Y-47030240D01*
X148878774Y-46994107D01*
X148877111Y-46976974D01*
X148873063Y-46944269D01*
X148861735Y-46909994D01*
X148840448Y-46868111D01*
X148806527Y-46812581D01*
X148799168Y-46801128D01*
X148767404Y-46752514D01*
X148740521Y-46712447D01*
X148721812Y-46685767D01*
X148715036Y-46677385D01*
X148704472Y-46664316D01*
X148683242Y-46634768D01*
X148655066Y-46593980D01*
X148639959Y-46571639D01*
X148606581Y-46518456D01*
X148587104Y-46479500D01*
X148582838Y-46457461D01*
X148583534Y-46455872D01*
X148595760Y-46448305D01*
X148615679Y-46460029D01*
X148622943Y-46466532D01*
X148656120Y-46491739D01*
X148694169Y-46513674D01*
X148728124Y-46533404D01*
X148753113Y-46554031D01*
X148754030Y-46555098D01*
X148780979Y-46576293D01*
X148826435Y-46600522D01*
X148884686Y-46625840D01*
X148950017Y-46650301D01*
X149016718Y-46671960D01*
X149079076Y-46688870D01*
X149131379Y-46699087D01*
X149167914Y-46700665D01*
X149175946Y-46698805D01*
X149190854Y-46680646D01*
X149195692Y-46651742D01*
X149201199Y-46620829D01*
X149215650Y-46612256D01*
X149235977Y-46600680D01*
X149249508Y-46571193D01*
X149253241Y-46531660D01*
X149251794Y-46517646D01*
X149230759Y-46447697D01*
X149211630Y-46416024D01*
X148554242Y-46416024D01*
X148552460Y-46416872D01*
X148540573Y-46407702D01*
X148537897Y-46403846D01*
X148534578Y-46391669D01*
X148536360Y-46390820D01*
X148548247Y-46399990D01*
X148550923Y-46403846D01*
X148554242Y-46416024D01*
X149211630Y-46416024D01*
X149188583Y-46377867D01*
X149183684Y-46372409D01*
X148909128Y-46372409D01*
X148905433Y-46377132D01*
X148891369Y-46372514D01*
X148862466Y-46356648D01*
X148838018Y-46342069D01*
X148799334Y-46316126D01*
X148780120Y-46297361D01*
X148781976Y-46287595D01*
X148789331Y-46286615D01*
X148804321Y-46293566D01*
X148831243Y-46310768D01*
X148862452Y-46332749D01*
X148890307Y-46354034D01*
X148907164Y-46369150D01*
X148909128Y-46372409D01*
X149183684Y-46372409D01*
X149123428Y-46305289D01*
X149103590Y-46286615D01*
X149052177Y-46239215D01*
X148735292Y-46239215D01*
X148730544Y-46242177D01*
X148707471Y-46230575D01*
X148704855Y-46229153D01*
X148679691Y-46211754D01*
X148641909Y-46181224D01*
X148597571Y-46142589D01*
X148570461Y-46117719D01*
X148515598Y-46068411D01*
X148473622Y-46037459D01*
X148439987Y-46023860D01*
X148410145Y-46026613D01*
X148379548Y-46044716D01*
X148351551Y-46069502D01*
X148308486Y-46110769D01*
X148251758Y-46045641D01*
X148200187Y-45979264D01*
X148159524Y-45912563D01*
X148131536Y-45849797D01*
X148117988Y-45795225D01*
X148120644Y-45753108D01*
X148125869Y-45741876D01*
X148143689Y-45736439D01*
X148177664Y-45744825D01*
X148223632Y-45764556D01*
X148277430Y-45793150D01*
X148334895Y-45828128D01*
X148391864Y-45867009D01*
X148444174Y-45907312D01*
X148487663Y-45946558D01*
X148509178Y-45970264D01*
X148529293Y-45993335D01*
X148561363Y-46028250D01*
X148599134Y-46068225D01*
X148606871Y-46076279D01*
X148650719Y-46122175D01*
X148680471Y-46154674D01*
X148700362Y-46178884D01*
X148714629Y-46199918D01*
X148725888Y-46219841D01*
X148735292Y-46239215D01*
X149052177Y-46239215D01*
X149032485Y-46221061D01*
X148975983Y-46167654D01*
X148929085Y-46121386D01*
X148886790Y-46077249D01*
X148844097Y-46030235D01*
X148817948Y-46000553D01*
X148748481Y-45923836D01*
X148675872Y-45848492D01*
X148604447Y-45778682D01*
X148538535Y-45718565D01*
X148482463Y-45672300D01*
X148458356Y-45654913D01*
X148379147Y-45607506D01*
X148296240Y-45567688D01*
X148216175Y-45538026D01*
X148145489Y-45521089D01*
X148110045Y-45518103D01*
X148063186Y-45515917D01*
X148022455Y-45510331D01*
X148006274Y-45506000D01*
X147970574Y-45503437D01*
X147939052Y-45518583D01*
X147939052Y-45518583D01*
G37*
X147939052Y-45518583D02*
X147920772Y-45546037D01*
X147919179Y-45557918D01*
X147911035Y-45578629D01*
X147900099Y-45583231D01*
X147881678Y-45592221D01*
X147865526Y-45612059D01*
X147859072Y-45632040D01*
X147861666Y-45638606D01*
X147865984Y-45653800D01*
X147871656Y-45688446D01*
X147877675Y-45736051D01*
X147879647Y-45754293D01*
X147892264Y-45835706D01*
X147913895Y-45906552D01*
X147934953Y-45954462D01*
X147973023Y-46027970D01*
X148013466Y-46097002D01*
X148051836Y-46154296D01*
X148075487Y-46183986D01*
X148111230Y-46224621D01*
X148147165Y-46267182D01*
X148189529Y-46319130D01*
X148215701Y-46351744D01*
X148254395Y-46398568D01*
X148293791Y-46443703D01*
X148326079Y-46478234D01*
X148329239Y-46481373D01*
X148356017Y-46510847D01*
X148372527Y-46535197D01*
X148375076Y-46543245D01*
X148383044Y-46558819D01*
X148388102Y-46560154D01*
X148398721Y-46571052D01*
X148401128Y-46585940D01*
X148388134Y-46611576D01*
X148349238Y-46638183D01*
X148346585Y-46639552D01*
X148309631Y-46660242D01*
X148280859Y-46679545D01*
X148274014Y-46685407D01*
X148254600Y-46700478D01*
X148246396Y-46703436D01*
X148233195Y-46715068D01*
X148218305Y-46745082D01*
X148204272Y-46786157D01*
X148193643Y-46830969D01*
X148189102Y-46868191D01*
X148185035Y-46904246D01*
X148177873Y-46926151D01*
X148173179Y-46929399D01*
X148159593Y-46917607D01*
X148140902Y-46890332D01*
X148133581Y-46877296D01*
X148096489Y-46808025D01*
X148068216Y-46757200D01*
X148045860Y-46720001D01*
X148026518Y-46691609D01*
X148007287Y-46667204D01*
X148006417Y-46666169D01*
X147976908Y-46625687D01*
X147948528Y-46578406D01*
X147941763Y-46565220D01*
X147922851Y-46531953D01*
X147905840Y-46511339D01*
X147899367Y-46508051D01*
X147886341Y-46497129D01*
X147868325Y-46469013D01*
X147855389Y-46443095D01*
X147832630Y-46401042D01*
X147807171Y-46365890D01*
X147794452Y-46353297D01*
X147772141Y-46332159D01*
X147762871Y-46316249D01*
X147752610Y-46301817D01*
X147730901Y-46286933D01*
X147709760Y-46268936D01*
X147680423Y-46235997D01*
X147648444Y-46195305D01*
X147619374Y-46154046D01*
X147598765Y-46119409D01*
X147594813Y-46110769D01*
X147582628Y-46092582D01*
X147562249Y-46069139D01*
X147519857Y-46024036D01*
X147490792Y-45990914D01*
X147469796Y-45963494D01*
X147455269Y-45941436D01*
X147408226Y-45875002D01*
X147362403Y-45827386D01*
X147319936Y-45800091D01*
X147282959Y-45794622D01*
X147261215Y-45804807D01*
X147244786Y-45826398D01*
X147241846Y-45837739D01*
X147232229Y-45856800D01*
X147209488Y-45878478D01*
X147177130Y-45902359D01*
X147215088Y-45981673D01*
X147239589Y-46026048D01*
X147265709Y-46062852D01*
X147285408Y-46082192D01*
X147307544Y-46102710D01*
X147337930Y-46138614D01*
X147371012Y-46183193D01*
X147380756Y-46197440D01*
X147423842Y-46260549D01*
X147458123Y-46307340D01*
X147488320Y-46343764D01*
X147519153Y-46375770D01*
X147531666Y-46387683D01*
X147555199Y-46414183D01*
X147567123Y-46436408D01*
X147567487Y-46439332D01*
X147573302Y-46451837D01*
X147578270Y-46450822D01*
X147590919Y-46456577D01*
X147613320Y-46476726D01*
X147639645Y-46504784D01*
X147664066Y-46534265D01*
X147680756Y-46558684D01*
X147684717Y-46569271D01*
X147694502Y-46583728D01*
X147710530Y-46596058D01*
X147730983Y-46616606D01*
X147755075Y-46651536D01*
X147768541Y-46675720D01*
X147789767Y-46712536D01*
X147809645Y-46738738D01*
X147819212Y-46746350D01*
X147835651Y-46761520D01*
X147856280Y-46791906D01*
X147866048Y-46809848D01*
X147885322Y-46847542D01*
X147901241Y-46877588D01*
X147905837Y-46885795D01*
X147916035Y-46905898D01*
X147933725Y-46943285D01*
X147955844Y-46991425D01*
X147966962Y-47016051D01*
X147992449Y-47069280D01*
X148018011Y-47116741D01*
X148039455Y-47150849D01*
X148046073Y-47159200D01*
X148066689Y-47182935D01*
X148075336Y-47198631D01*
X148069103Y-47207804D01*
X148045077Y-47211965D01*
X148000346Y-47212628D01*
X147945230Y-47211603D01*
X147884198Y-47206731D01*
X147837265Y-47192298D01*
X147793341Y-47163784D01*
X147763086Y-47137358D01*
X147732601Y-47113774D01*
X147704686Y-47099210D01*
X147704256Y-47099077D01*
X147673770Y-47084342D01*
X147652153Y-47068942D01*
X147624070Y-47050678D01*
X147579844Y-47027826D01*
X147527976Y-47004242D01*
X147476970Y-46983780D01*
X147435325Y-46970297D01*
X147433807Y-46969916D01*
X147367460Y-46965537D01*
X147300612Y-46981513D01*
X147243672Y-47015178D01*
X147238331Y-47019968D01*
X147209466Y-47050386D01*
X147189140Y-47077860D01*
X147185158Y-47085903D01*
X147174741Y-47102248D01*
X147158439Y-47095233D01*
X147156932Y-47094000D01*
X147131407Y-47082903D01*
X147094253Y-47076809D01*
X147088386Y-47076549D01*
X147050448Y-47080404D01*
X147019313Y-47098088D01*
X146999146Y-47117298D01*
X146971131Y-47141498D01*
X146940303Y-47155116D01*
X146901790Y-47158309D01*
X146850722Y-47151229D01*
X146782227Y-47134034D01*
X146751585Y-47125165D01*
X146661630Y-47099719D01*
X146580694Y-47079103D01*
X146513326Y-47064366D01*
X146464076Y-47056556D01*
X146449452Y-47055586D01*
X146422637Y-47064676D01*
X146389664Y-47087835D01*
X146358226Y-47117944D01*
X146336020Y-47147880D01*
X146330051Y-47166083D01*
X146322532Y-47183258D01*
X146316256Y-47185385D01*
X146308193Y-47193229D01*
X146309933Y-47197472D01*
X146306067Y-47210616D01*
X146294379Y-47216868D01*
X146278063Y-47232525D01*
X146260526Y-47264030D01*
X146246078Y-47301775D01*
X146239025Y-47336151D01*
X146238871Y-47340674D01*
X146249379Y-47353337D01*
X146276401Y-47372659D01*
X146300743Y-47387011D01*
X146353831Y-47425107D01*
X146399417Y-47474175D01*
X146430467Y-47526011D01*
X146437451Y-47546504D01*
X146440785Y-47565744D01*
X146432759Y-47567821D01*
X146410152Y-47556187D01*
X146353357Y-47519602D01*
X146302117Y-47478048D01*
X146274156Y-47449154D01*
X146252578Y-47427940D01*
X146236862Y-47419846D01*
X146220180Y-47412147D01*
X146191233Y-47392339D01*
X146168081Y-47374256D01*
X146135728Y-47349074D01*
X146111349Y-47332517D01*
X146102771Y-47328667D01*
X146086397Y-47321802D01*
X146059988Y-47305179D01*
X146058523Y-47304146D01*
X146017882Y-47284139D01*
X145962630Y-47267740D01*
X145903747Y-47257243D01*
X145852207Y-47254941D01*
X145834034Y-47257254D01*
X145797070Y-47276016D01*
X145781924Y-47300565D01*
X145767704Y-47336796D01*
X145756923Y-47361231D01*
X145742993Y-47393350D01*
X145731060Y-47424161D01*
X145717088Y-47445994D01*
X145700507Y-47454863D01*
X145689148Y-47449031D01*
X145688861Y-47433532D01*
X145685034Y-47423770D01*
X145680142Y-47425510D01*
X145662330Y-47423657D01*
X145648185Y-47413453D01*
X145629058Y-47397560D01*
X145620701Y-47393795D01*
X145606770Y-47386087D01*
X145576320Y-47364802D01*
X145533126Y-47332700D01*
X145480961Y-47292540D01*
X145463846Y-47279112D01*
X145417228Y-47252262D01*
X145353376Y-47228410D01*
X145280792Y-47209475D01*
X145207978Y-47197376D01*
X145143436Y-47194033D01*
X145105974Y-47198331D01*
X145078978Y-47214406D01*
X145047237Y-47246988D01*
X145015725Y-47288879D01*
X144989416Y-47332881D01*
X144973282Y-47371795D01*
X144970927Y-47393795D01*
X144980460Y-47433343D01*
X144995360Y-47478446D01*
X145012216Y-47520193D01*
X145027617Y-47549669D01*
X145033232Y-47556615D01*
X145051582Y-47575901D01*
X145077993Y-47607009D01*
X145107758Y-47643940D01*
X145136168Y-47680696D01*
X145158517Y-47711278D01*
X145170097Y-47729687D01*
X145170769Y-47731875D01*
X145177904Y-47746045D01*
X145196635Y-47775350D01*
X145222955Y-47814069D01*
X145252855Y-47856478D01*
X145282326Y-47896853D01*
X145307359Y-47929471D01*
X145318674Y-47943043D01*
X145330886Y-47962989D01*
X145330333Y-47972350D01*
X145332700Y-47979368D01*
X145337931Y-47979949D01*
X145350694Y-47990708D01*
X145353128Y-48003395D01*
X145363947Y-48036172D01*
X145396005Y-48054324D01*
X145430992Y-48058103D01*
X145474691Y-48050862D01*
X145501321Y-48027368D01*
X145512878Y-47984964D01*
X145513365Y-47948393D01*
X145509868Y-47906365D01*
X145504286Y-47873176D01*
X145501322Y-47863726D01*
X145492683Y-47840814D01*
X145491022Y-47833833D01*
X145482509Y-47817632D01*
X145469524Y-47800692D01*
X145449464Y-47772162D01*
X145440625Y-47754680D01*
X145427778Y-47735840D01*
X145420187Y-47732462D01*
X145409348Y-47722287D01*
X145389964Y-47696301D01*
X145366415Y-47661312D01*
X145343081Y-47624128D01*
X145324343Y-47591555D01*
X145314580Y-47570403D01*
X145314051Y-47567506D01*
X145306704Y-47551490D01*
X145289860Y-47530151D01*
X145271316Y-47512039D01*
X145258864Y-47505703D01*
X145258125Y-47506165D01*
X145248633Y-47501001D01*
X145234357Y-47480418D01*
X145220191Y-47453183D01*
X145211031Y-47428063D01*
X145209846Y-47419690D01*
X145220491Y-47411051D01*
X145247236Y-47411312D01*
X145282292Y-47418979D01*
X145317871Y-47432555D01*
X145338321Y-47444352D01*
X145371438Y-47464411D01*
X145399155Y-47476736D01*
X145421468Y-47489832D01*
X145454380Y-47516233D01*
X145490335Y-47549802D01*
X145523783Y-47582005D01*
X145550522Y-47605311D01*
X145565021Y-47614913D01*
X145565344Y-47614947D01*
X145583648Y-47622532D01*
X145591395Y-47628060D01*
X145611234Y-47644100D01*
X145641053Y-47668075D01*
X145649717Y-47675023D01*
X145675556Y-47700967D01*
X145688474Y-47724406D01*
X145688794Y-47730057D01*
X145697458Y-47750550D01*
X145724359Y-47768438D01*
X145765522Y-47787503D01*
X145788158Y-47800322D01*
X145797854Y-47810501D01*
X145799828Y-47817128D01*
X145811023Y-47834468D01*
X145837905Y-47862152D01*
X145874856Y-47895527D01*
X145916259Y-47929942D01*
X145956499Y-47960744D01*
X145989959Y-47983281D01*
X146011021Y-47992901D01*
X146012124Y-47992974D01*
X146033362Y-47982490D01*
X146038427Y-47974346D01*
X146055049Y-47956875D01*
X146082326Y-47942906D01*
X146114475Y-47921229D01*
X146127874Y-47890043D01*
X146137576Y-47859671D01*
X146148619Y-47842607D01*
X146148694Y-47842560D01*
X146160992Y-47821120D01*
X146159853Y-47785955D01*
X146147454Y-47744193D01*
X146125972Y-47702962D01*
X146097584Y-47669392D01*
X146095179Y-47667333D01*
X146084090Y-47653747D01*
X146063595Y-47625437D01*
X146045166Y-47598815D01*
X146021510Y-47557387D01*
X146016724Y-47532980D01*
X146028969Y-47526812D01*
X146056404Y-47540101D01*
X146091138Y-47568385D01*
X146152050Y-47622440D01*
X146206433Y-47664856D01*
X146264923Y-47703594D01*
X146299578Y-47724390D01*
X146340403Y-47750465D01*
X146371731Y-47774465D01*
X146386944Y-47791306D01*
X146387076Y-47791629D01*
X146402044Y-47806517D01*
X146434652Y-47827538D01*
X146478536Y-47850703D01*
X146489914Y-47856081D01*
X146538407Y-47880418D01*
X146579950Y-47904720D01*
X146606703Y-47924334D01*
X146609265Y-47926921D01*
X146628837Y-47946097D01*
X146646083Y-47951633D01*
X146668890Y-47942990D01*
X146703960Y-47920424D01*
X146743919Y-47888473D01*
X146768408Y-47853808D01*
X146780579Y-47809174D01*
X146783584Y-47747315D01*
X146783462Y-47737428D01*
X146780905Y-47684895D01*
X146773688Y-47648686D01*
X146759223Y-47619158D01*
X146747189Y-47602205D01*
X146720518Y-47562350D01*
X146698703Y-47521716D01*
X146695513Y-47514282D01*
X146681293Y-47486060D01*
X146668571Y-47472231D01*
X146667137Y-47471949D01*
X146656833Y-47461445D01*
X146655692Y-47453390D01*
X146646819Y-47434871D01*
X146623889Y-47406313D01*
X146600680Y-47382487D01*
X146572593Y-47353261D01*
X146555958Y-47330946D01*
X146553913Y-47321899D01*
X146569131Y-47322438D01*
X146601239Y-47331706D01*
X146643381Y-47347711D01*
X146644745Y-47348282D01*
X146714527Y-47371691D01*
X146788186Y-47386594D01*
X146858463Y-47392302D01*
X146918103Y-47388126D01*
X146952600Y-47377546D01*
X146982477Y-47366437D01*
X147002636Y-47365619D01*
X147003590Y-47366151D01*
X147015642Y-47380635D01*
X147036535Y-47411438D01*
X147062071Y-47452325D01*
X147066031Y-47458923D01*
X147093914Y-47503243D01*
X147119999Y-47540651D01*
X147138994Y-47563596D01*
X147140133Y-47564656D01*
X147158674Y-47589134D01*
X147163692Y-47606248D01*
X147171712Y-47625119D01*
X147193065Y-47657431D01*
X147223691Y-47697230D01*
X147235188Y-47711049D01*
X147286361Y-47765757D01*
X147331733Y-47801162D01*
X147364607Y-47817445D01*
X147400341Y-47834061D01*
X147424475Y-47850796D01*
X147429314Y-47857243D01*
X147444898Y-47873244D01*
X147475156Y-47890970D01*
X147484465Y-47895130D01*
X147520970Y-47915150D01*
X147548695Y-47938478D01*
X147551886Y-47942541D01*
X147584227Y-47971735D01*
X147632974Y-47996851D01*
X147688483Y-48013802D01*
X147731691Y-48018740D01*
X147771825Y-48014237D01*
X147810083Y-47997445D01*
X147846352Y-47972315D01*
X147916827Y-47914991D01*
X147966569Y-47864357D01*
X147998081Y-47815321D01*
X148013867Y-47762794D01*
X148014595Y-47745415D01*
X147814181Y-47745415D01*
X147808680Y-47770789D01*
X147789977Y-47794454D01*
X147762605Y-47808794D01*
X147751809Y-47810201D01*
X147732533Y-47804021D01*
X147698438Y-47787378D01*
X147656687Y-47763789D01*
X147654117Y-47762243D01*
X147605329Y-47729046D01*
X147550122Y-47685415D01*
X147492059Y-47634891D01*
X147434704Y-47581014D01*
X147381621Y-47527324D01*
X147336375Y-47477360D01*
X147302528Y-47434664D01*
X147283645Y-47402775D01*
X147280923Y-47391556D01*
X147273875Y-47368015D01*
X147260087Y-47343793D01*
X147246738Y-47319423D01*
X147250683Y-47301203D01*
X147257568Y-47292049D01*
X147276203Y-47263765D01*
X147291970Y-47232432D01*
X147302052Y-47211823D01*
X147314562Y-47201383D01*
X147336827Y-47198844D01*
X147376171Y-47201940D01*
X147386881Y-47203051D01*
X147435592Y-47211096D01*
X147485102Y-47224051D01*
X147529298Y-47239657D01*
X147562066Y-47255652D01*
X147577291Y-47269778D01*
X147577469Y-47273504D01*
X147583794Y-47288629D01*
X147603790Y-47313973D01*
X147616333Y-47327247D01*
X147641845Y-47356498D01*
X147656923Y-47380814D01*
X147658666Y-47387637D01*
X147668551Y-47409909D01*
X147675700Y-47415942D01*
X147692347Y-47435599D01*
X147713416Y-47473525D01*
X147736140Y-47522951D01*
X147757753Y-47577106D01*
X147775490Y-47629221D01*
X147786583Y-47672523D01*
X147788923Y-47693071D01*
X147795009Y-47717817D01*
X147801948Y-47725949D01*
X147814181Y-47745415D01*
X148014595Y-47745415D01*
X148016430Y-47701685D01*
X148010106Y-47639361D01*
X148001339Y-47583742D01*
X147991535Y-47530963D01*
X147983056Y-47493429D01*
X147975651Y-47460662D01*
X147973740Y-47440536D01*
X147974471Y-47438366D01*
X147989632Y-47433706D01*
X148022358Y-47427718D01*
X148064402Y-47421498D01*
X148107519Y-47416144D01*
X148143462Y-47412752D01*
X148163986Y-47412419D01*
X148165715Y-47412925D01*
X148175909Y-47427527D01*
X148194015Y-47461128D01*
X148217551Y-47508842D01*
X148244030Y-47565780D01*
X148248703Y-47576154D01*
X148263857Y-47612935D01*
X148282684Y-47662665D01*
X148298257Y-47706410D01*
X148315028Y-47752047D01*
X148330611Y-47789163D01*
X148341260Y-47809124D01*
X148354004Y-47832735D01*
X148356086Y-47841688D01*
X148361388Y-47866440D01*
X148364564Y-47875744D01*
X148372293Y-47899819D01*
X148382873Y-47937416D01*
X148387216Y-47953897D01*
X148399108Y-47995583D01*
X148410903Y-48030192D01*
X148414399Y-48038564D01*
X148423240Y-48063182D01*
X148435835Y-48105035D01*
X148449781Y-48156042D01*
X148452928Y-48168223D01*
X148466611Y-48217806D01*
X148479508Y-48257704D01*
X148489339Y-48281042D01*
X148491226Y-48283668D01*
X148510023Y-48289544D01*
X148525906Y-48275719D01*
X148531384Y-48252718D01*
X148535544Y-48231287D01*
X148549836Y-48231434D01*
X148572828Y-48249117D01*
X148590710Y-48262247D01*
X148606146Y-48259788D01*
X148629213Y-48240333D01*
X148652734Y-48210878D01*
X148659666Y-48178120D01*
X148650277Y-48135556D01*
X148635054Y-48098456D01*
X148619740Y-48054501D01*
X148616374Y-48020024D01*
X148617619Y-48014086D01*
X148627360Y-47955099D01*
X148625180Y-47886913D01*
X148612462Y-47819914D01*
X148590592Y-47764489D01*
X148582690Y-47752000D01*
X148575631Y-47734227D01*
X148564544Y-47697527D01*
X148551311Y-47648345D01*
X148544638Y-47621744D01*
X148528147Y-47557737D01*
X148509971Y-47492341D01*
X148493435Y-47437411D01*
X148489832Y-47426359D01*
X148468582Y-47361361D01*
X148455635Y-47315973D01*
X148450620Y-47285240D01*
X148453168Y-47264207D01*
X148462910Y-47247918D01*
X148475561Y-47235041D01*
X148505520Y-47200478D01*
X148527649Y-47165846D01*
X148549899Y-47131919D01*
X148581287Y-47094810D01*
X148591540Y-47084464D01*
X148617912Y-47055216D01*
X148633646Y-47030197D01*
X148635589Y-47022593D01*
X148641009Y-47004405D01*
X148653979Y-47006445D01*
X148669566Y-47026075D01*
X148678179Y-47045359D01*
X148687727Y-47076416D01*
X148690862Y-47095983D01*
X148690682Y-47096996D01*
X148695317Y-47112419D01*
X148710398Y-47145848D01*
X148733477Y-47192650D01*
X148762106Y-47248197D01*
X148793837Y-47307855D01*
X148826220Y-47366995D01*
X148856807Y-47420986D01*
X148883150Y-47465196D01*
X148895816Y-47484974D01*
X148916102Y-47520444D01*
X148935062Y-47561226D01*
X148935603Y-47562569D01*
X148953216Y-47598532D01*
X148972100Y-47626011D01*
X148973798Y-47627799D01*
X148986606Y-47646631D01*
X149008645Y-47685610D01*
X149038148Y-47741263D01*
X149073347Y-47810120D01*
X149112475Y-47888712D01*
X149153765Y-47973568D01*
X149195451Y-48061217D01*
X149206191Y-48084154D01*
X149240850Y-48165003D01*
X149272262Y-48250536D01*
X149298418Y-48334177D01*
X149317304Y-48409348D01*
X149326909Y-48469475D01*
X149327618Y-48481161D01*
X149329689Y-48521400D01*
X149336494Y-48543330D01*
X149353895Y-48551025D01*
X149387754Y-48548565D01*
X149417948Y-48543982D01*
X149452246Y-48529786D01*
X149475682Y-48498153D01*
X149489114Y-48446846D01*
X149493403Y-48373629D01*
X149493075Y-48348599D01*
X149480460Y-48232761D01*
X149450145Y-48112212D01*
X149405156Y-47998026D01*
X149388328Y-47964959D01*
X149302623Y-47805528D01*
X149217529Y-47644448D01*
X149195446Y-47602226D01*
X149164405Y-47544806D01*
X149134530Y-47493106D01*
X149109471Y-47453243D01*
X149094376Y-47432892D01*
X149078213Y-47410074D01*
X149053383Y-47368840D01*
X149022711Y-47314152D01*
X148989022Y-47250974D01*
X148972028Y-47217949D01*
X148932576Y-47138235D01*
X148904913Y-47076974D01*
X148887495Y-47030240D01*
X148878774Y-46994107D01*
X148877111Y-46976974D01*
X148873063Y-46944269D01*
X148861735Y-46909994D01*
X148840448Y-46868111D01*
X148806527Y-46812581D01*
X148799168Y-46801128D01*
X148767404Y-46752514D01*
X148740521Y-46712447D01*
X148721812Y-46685767D01*
X148715036Y-46677385D01*
X148704472Y-46664316D01*
X148683242Y-46634768D01*
X148655066Y-46593980D01*
X148639959Y-46571639D01*
X148606581Y-46518456D01*
X148587104Y-46479500D01*
X148582838Y-46457461D01*
X148583534Y-46455872D01*
X148595760Y-46448305D01*
X148615679Y-46460029D01*
X148622943Y-46466532D01*
X148656120Y-46491739D01*
X148694169Y-46513674D01*
X148728124Y-46533404D01*
X148753113Y-46554031D01*
X148754030Y-46555098D01*
X148780979Y-46576293D01*
X148826435Y-46600522D01*
X148884686Y-46625840D01*
X148950017Y-46650301D01*
X149016718Y-46671960D01*
X149079076Y-46688870D01*
X149131379Y-46699087D01*
X149167914Y-46700665D01*
X149175946Y-46698805D01*
X149190854Y-46680646D01*
X149195692Y-46651742D01*
X149201199Y-46620829D01*
X149215650Y-46612256D01*
X149235977Y-46600680D01*
X149249508Y-46571193D01*
X149253241Y-46531660D01*
X149251794Y-46517646D01*
X149230759Y-46447697D01*
X149211630Y-46416024D01*
X148554242Y-46416024D01*
X148552460Y-46416872D01*
X148540573Y-46407702D01*
X148537897Y-46403846D01*
X148534578Y-46391669D01*
X148536360Y-46390820D01*
X148548247Y-46399990D01*
X148550923Y-46403846D01*
X148554242Y-46416024D01*
X149211630Y-46416024D01*
X149188583Y-46377867D01*
X149183684Y-46372409D01*
X148909128Y-46372409D01*
X148905433Y-46377132D01*
X148891369Y-46372514D01*
X148862466Y-46356648D01*
X148838018Y-46342069D01*
X148799334Y-46316126D01*
X148780120Y-46297361D01*
X148781976Y-46287595D01*
X148789331Y-46286615D01*
X148804321Y-46293566D01*
X148831243Y-46310768D01*
X148862452Y-46332749D01*
X148890307Y-46354034D01*
X148907164Y-46369150D01*
X148909128Y-46372409D01*
X149183684Y-46372409D01*
X149123428Y-46305289D01*
X149103590Y-46286615D01*
X149052177Y-46239215D01*
X148735292Y-46239215D01*
X148730544Y-46242177D01*
X148707471Y-46230575D01*
X148704855Y-46229153D01*
X148679691Y-46211754D01*
X148641909Y-46181224D01*
X148597571Y-46142589D01*
X148570461Y-46117719D01*
X148515598Y-46068411D01*
X148473622Y-46037459D01*
X148439987Y-46023860D01*
X148410145Y-46026613D01*
X148379548Y-46044716D01*
X148351551Y-46069502D01*
X148308486Y-46110769D01*
X148251758Y-46045641D01*
X148200187Y-45979264D01*
X148159524Y-45912563D01*
X148131536Y-45849797D01*
X148117988Y-45795225D01*
X148120644Y-45753108D01*
X148125869Y-45741876D01*
X148143689Y-45736439D01*
X148177664Y-45744825D01*
X148223632Y-45764556D01*
X148277430Y-45793150D01*
X148334895Y-45828128D01*
X148391864Y-45867009D01*
X148444174Y-45907312D01*
X148487663Y-45946558D01*
X148509178Y-45970264D01*
X148529293Y-45993335D01*
X148561363Y-46028250D01*
X148599134Y-46068225D01*
X148606871Y-46076279D01*
X148650719Y-46122175D01*
X148680471Y-46154674D01*
X148700362Y-46178884D01*
X148714629Y-46199918D01*
X148725888Y-46219841D01*
X148735292Y-46239215D01*
X149052177Y-46239215D01*
X149032485Y-46221061D01*
X148975983Y-46167654D01*
X148929085Y-46121386D01*
X148886790Y-46077249D01*
X148844097Y-46030235D01*
X148817948Y-46000553D01*
X148748481Y-45923836D01*
X148675872Y-45848492D01*
X148604447Y-45778682D01*
X148538535Y-45718565D01*
X148482463Y-45672300D01*
X148458356Y-45654913D01*
X148379147Y-45607506D01*
X148296240Y-45567688D01*
X148216175Y-45538026D01*
X148145489Y-45521089D01*
X148110045Y-45518103D01*
X148063186Y-45515917D01*
X148022455Y-45510331D01*
X148006274Y-45506000D01*
X147970574Y-45503437D01*
X147939052Y-45518583D01*
G36*
X158552213Y-46112291D02*
X158444741Y-46123168D01*
X158359846Y-46144606D01*
X158295850Y-46177655D01*
X158251076Y-46223368D01*
X158223846Y-46282795D01*
X158215508Y-46323390D01*
X158205353Y-46384562D01*
X158194700Y-46420204D01*
X158183116Y-46430838D01*
X158170164Y-46416986D01*
X158159285Y-46390820D01*
X158143018Y-46361568D01*
X158117791Y-46351902D01*
X158112421Y-46351744D01*
X158086396Y-46357727D01*
X158079179Y-46377026D01*
X158071484Y-46404808D01*
X158051458Y-46411093D01*
X158026176Y-46396518D01*
X158004589Y-46380998D01*
X157994263Y-46384925D01*
X157994799Y-46409774D01*
X158005797Y-46457019D01*
X158007816Y-46464319D01*
X158031906Y-46550966D01*
X158050492Y-46619505D01*
X158065362Y-46676835D01*
X158078306Y-46729859D01*
X158091110Y-46785477D01*
X158091701Y-46788103D01*
X158121729Y-46911725D01*
X158155691Y-47030307D01*
X158195831Y-47152820D01*
X158216913Y-47219627D01*
X158237722Y-47294539D01*
X158253729Y-47361231D01*
X158268739Y-47420525D01*
X158287560Y-47478914D01*
X158306320Y-47524492D01*
X158307746Y-47527314D01*
X158325907Y-47566059D01*
X158337479Y-47597606D01*
X158339692Y-47609183D01*
X158346241Y-47635264D01*
X158357485Y-47658022D01*
X158365319Y-47676632D01*
X158375185Y-47711089D01*
X158387438Y-47763072D01*
X158402435Y-47834260D01*
X158420531Y-47926331D01*
X158442080Y-48040964D01*
X158464269Y-48162308D01*
X158475126Y-48217688D01*
X158486262Y-48267024D01*
X158495696Y-48301728D01*
X158497825Y-48307816D01*
X158506203Y-48341999D01*
X158506188Y-48366431D01*
X158497916Y-48374215D01*
X158482702Y-48360222D01*
X158462250Y-48327248D01*
X158438265Y-48278091D01*
X158412453Y-48215548D01*
X158409548Y-48207897D01*
X158389538Y-48159310D01*
X158369348Y-48117654D01*
X158353171Y-48091534D01*
X158352435Y-48090667D01*
X158330525Y-48057079D01*
X158320044Y-48032051D01*
X158309570Y-48003127D01*
X158292013Y-47960691D01*
X158274528Y-47921333D01*
X158248649Y-47864826D01*
X158220807Y-47803787D01*
X158205230Y-47769506D01*
X158186017Y-47729719D01*
X158169672Y-47700405D01*
X158160997Y-47689136D01*
X158151148Y-47674640D01*
X158134893Y-47642333D01*
X158115411Y-47598629D01*
X158111415Y-47589104D01*
X158084372Y-47531269D01*
X158055857Y-47489116D01*
X158018929Y-47452855D01*
X158009093Y-47444781D01*
X157972674Y-47417895D01*
X157942115Y-47399420D01*
X157926395Y-47393795D01*
X157901541Y-47399285D01*
X157861920Y-47413631D01*
X157815864Y-47433644D01*
X157792615Y-47444988D01*
X157778964Y-47464220D01*
X157767358Y-47503891D01*
X157762626Y-47531827D01*
X157754377Y-47582613D01*
X157744485Y-47629996D01*
X157738496Y-47652411D01*
X157732451Y-47690350D01*
X157730538Y-47749689D01*
X157732867Y-47826090D01*
X157733743Y-47841283D01*
X157737336Y-47903699D01*
X157738683Y-47943618D01*
X157737445Y-47964523D01*
X157733278Y-47969901D01*
X157725842Y-47963234D01*
X157722251Y-47958492D01*
X157701888Y-47924958D01*
X157677232Y-47876501D01*
X157652247Y-47821905D01*
X157630897Y-47769954D01*
X157617144Y-47729433D01*
X157615152Y-47721123D01*
X157601016Y-47683073D01*
X157582757Y-47655754D01*
X157564546Y-47632041D01*
X157558153Y-47616698D01*
X157548172Y-47603059D01*
X157522405Y-47581076D01*
X157496976Y-47562762D01*
X157438400Y-47533339D01*
X157383776Y-47528547D01*
X157329008Y-47548239D01*
X157315801Y-47556320D01*
X157303457Y-47565294D01*
X157294561Y-47576112D01*
X157288889Y-47592421D01*
X157286214Y-47617869D01*
X157286310Y-47656104D01*
X157288950Y-47710774D01*
X157293910Y-47785526D01*
X157298023Y-47843179D01*
X157305302Y-47944498D01*
X157310796Y-48022795D01*
X157314555Y-48081036D01*
X157316632Y-48122185D01*
X157317076Y-48149208D01*
X157315941Y-48165069D01*
X157313277Y-48172734D01*
X157309135Y-48175167D01*
X157303776Y-48175333D01*
X157285990Y-48164543D01*
X157278528Y-48150625D01*
X157265128Y-48126591D01*
X157240345Y-48094460D01*
X157227382Y-48080001D01*
X157194441Y-48040312D01*
X157160694Y-47992473D01*
X157147546Y-47971196D01*
X157121612Y-47930454D01*
X157095564Y-47895584D01*
X157083315Y-47882153D01*
X157066323Y-47861377D01*
X157039643Y-47823252D01*
X157017533Y-47789447D01*
X156786466Y-47789447D01*
X156769172Y-47816198D01*
X156735364Y-47836477D01*
X156702345Y-47831740D01*
X156673450Y-47802896D01*
X156665187Y-47787820D01*
X156645973Y-47733800D01*
X156636734Y-47678216D01*
X156638126Y-47629409D01*
X156650165Y-47596544D01*
X156662184Y-47583216D01*
X156671853Y-47584880D01*
X156683880Y-47604953D01*
X156695019Y-47629108D01*
X156718430Y-47671573D01*
X156746059Y-47708899D01*
X156755307Y-47718450D01*
X156783805Y-47755189D01*
X156786466Y-47789447D01*
X157017533Y-47789447D01*
X157006724Y-47772922D01*
X156971018Y-47715534D01*
X156965437Y-47706307D01*
X156914993Y-47625627D01*
X156872137Y-47564727D01*
X156833551Y-47519724D01*
X156795922Y-47486738D01*
X156757313Y-47462610D01*
X156714465Y-47447562D01*
X156670957Y-47444012D01*
X156636832Y-47452313D01*
X156628943Y-47458103D01*
X156602869Y-47472593D01*
X156580188Y-47461873D01*
X156562164Y-47426696D01*
X156559175Y-47416590D01*
X156532279Y-47327905D01*
X156500566Y-47240605D01*
X156467593Y-47164009D01*
X156448519Y-47126769D01*
X156425645Y-47084145D01*
X156394328Y-47023388D01*
X156357252Y-46949923D01*
X156317101Y-46869172D01*
X156276558Y-46786559D01*
X156238308Y-46707507D01*
X156205035Y-46637439D01*
X156185838Y-46595974D01*
X156162963Y-46550094D01*
X156141774Y-46515115D01*
X156125789Y-46496594D01*
X156121929Y-46495026D01*
X156099908Y-46502966D01*
X156068743Y-46522790D01*
X156035947Y-46548503D01*
X156009032Y-46574110D01*
X155995512Y-46593616D01*
X155995076Y-46596250D01*
X155998384Y-46622512D01*
X156006685Y-46663341D01*
X156017551Y-46708335D01*
X156028551Y-46747091D01*
X156033807Y-46762051D01*
X156043671Y-46790569D01*
X156055886Y-46831038D01*
X156060201Y-46846490D01*
X156075895Y-46894221D01*
X156097267Y-46947622D01*
X156107225Y-46969415D01*
X156124747Y-47009206D01*
X156136130Y-47041699D01*
X156138555Y-47054310D01*
X156143067Y-47080537D01*
X156153791Y-47117120D01*
X156167011Y-47153122D01*
X156179012Y-47177608D01*
X156181534Y-47180799D01*
X156188651Y-47199711D01*
X156190461Y-47219351D01*
X156195601Y-47246065D01*
X156203487Y-47257026D01*
X156212382Y-47274390D01*
X156216481Y-47305795D01*
X156216512Y-47308841D01*
X156222292Y-47352258D01*
X156234868Y-47389483D01*
X156248170Y-47420558D01*
X156265394Y-47466571D01*
X156282805Y-47517538D01*
X156303040Y-47573183D01*
X156330373Y-47639578D01*
X156359692Y-47704459D01*
X156366945Y-47719436D01*
X156395997Y-47778873D01*
X156416203Y-47822258D01*
X156430429Y-47856807D01*
X156441541Y-47889738D01*
X156452404Y-47928269D01*
X156457459Y-47947385D01*
X156465625Y-47985316D01*
X156474336Y-48036837D01*
X156482918Y-48096254D01*
X156490696Y-48157876D01*
X156496997Y-48216012D01*
X156501148Y-48264968D01*
X156502473Y-48299055D01*
X156500668Y-48312340D01*
X156482170Y-48313323D01*
X156451638Y-48291986D01*
X156409560Y-48248852D01*
X156356423Y-48184445D01*
X156292717Y-48099290D01*
X156262102Y-48056292D01*
X156225295Y-48005218D01*
X156182594Y-47947811D01*
X156150180Y-47905462D01*
X156116031Y-47857087D01*
X156085490Y-47805950D01*
X156066362Y-47765908D01*
X156043473Y-47720697D01*
X156012766Y-47691023D01*
X155969752Y-47674970D01*
X155909938Y-47670620D01*
X155850901Y-47673925D01*
X155779172Y-47676678D01*
X155728148Y-47669583D01*
X155694067Y-47651747D01*
X155678557Y-47632867D01*
X155647394Y-47603099D01*
X155602177Y-47586309D01*
X155553075Y-47585892D01*
X155544023Y-47587978D01*
X155494331Y-47611436D01*
X155466989Y-47646316D01*
X155462654Y-47689619D01*
X155481982Y-47738343D01*
X155504596Y-47768244D01*
X155545572Y-47832537D01*
X155567696Y-47908406D01*
X155568675Y-47984828D01*
X155562001Y-48035298D01*
X155498245Y-48027746D01*
X155446468Y-48015676D01*
X155392583Y-47993545D01*
X155343215Y-47965236D01*
X155304987Y-47934635D01*
X155284521Y-47905623D01*
X155283425Y-47901795D01*
X155257928Y-47803851D01*
X155225738Y-47706477D01*
X155189177Y-47615161D01*
X155150562Y-47535390D01*
X155112215Y-47472652D01*
X155090701Y-47445897D01*
X155064517Y-47413791D01*
X155045338Y-47384026D01*
X155028388Y-47362135D01*
X155004851Y-47356475D01*
X154969311Y-47366888D01*
X154939671Y-47380937D01*
X154895938Y-47407602D01*
X154868431Y-47437833D01*
X154854366Y-47477754D01*
X154850959Y-47533490D01*
X154852584Y-47572524D01*
X154859459Y-47638760D01*
X154872935Y-47692692D01*
X154896568Y-47747888D01*
X154900713Y-47756142D01*
X154920283Y-47797650D01*
X154932533Y-47829717D01*
X154935021Y-47845871D01*
X154934721Y-47846287D01*
X154924025Y-47846464D01*
X154904731Y-47832406D01*
X154875556Y-47802703D01*
X154835218Y-47755944D01*
X154782436Y-47690720D01*
X154715927Y-47605620D01*
X154715694Y-47605319D01*
X154656527Y-47530215D01*
X154609745Y-47474788D01*
X154573088Y-47437172D01*
X154544296Y-47415497D01*
X154521108Y-47407896D01*
X154501265Y-47412502D01*
X154490950Y-47419568D01*
X154470754Y-47445421D01*
X154464190Y-47460099D01*
X154449576Y-47480588D01*
X154437635Y-47484974D01*
X154423329Y-47487996D01*
X154421731Y-47499773D01*
X154433933Y-47524374D01*
X154458288Y-47561832D01*
X154480321Y-47597465D01*
X154494396Y-47626215D01*
X154497128Y-47636693D01*
X154502825Y-47654911D01*
X154518243Y-47690577D01*
X154540869Y-47738140D01*
X154562114Y-47780329D01*
X154588015Y-47831669D01*
X154608194Y-47873763D01*
X154620381Y-47901731D01*
X154622802Y-47910719D01*
X154611226Y-47905456D01*
X154584255Y-47887669D01*
X154547056Y-47860828D01*
X154535021Y-47851792D01*
X154447198Y-47775600D01*
X154367128Y-47687842D01*
X154303017Y-47597610D01*
X154298020Y-47589179D01*
X154272824Y-47552235D01*
X154235796Y-47505531D01*
X154193740Y-47457509D01*
X154180888Y-47443824D01*
X154141099Y-47403010D01*
X154113629Y-47378108D01*
X154093145Y-47365872D01*
X154074315Y-47363054D01*
X154053257Y-47366113D01*
X154016422Y-47380831D01*
X153989133Y-47411964D01*
X153982820Y-47422969D01*
X153956974Y-47470798D01*
X153994694Y-47542895D01*
X154019765Y-47584843D01*
X154045769Y-47619083D01*
X154062415Y-47634650D01*
X154090727Y-47659415D01*
X154106359Y-47680359D01*
X154113978Y-47701209D01*
X154107068Y-47705860D01*
X154088946Y-47697091D01*
X154062930Y-47677679D01*
X154032335Y-47650406D01*
X154000480Y-47618048D01*
X153970681Y-47583386D01*
X153946255Y-47549198D01*
X153942601Y-47543166D01*
X153905910Y-47494456D01*
X153865044Y-47469848D01*
X153815845Y-47467394D01*
X153791819Y-47472467D01*
X153763353Y-47478635D01*
X153739023Y-47477988D01*
X153710908Y-47468592D01*
X153671086Y-47448517D01*
X153652871Y-47438585D01*
X153603207Y-47409376D01*
X153556594Y-47378730D01*
X153523094Y-47353264D01*
X153523008Y-47353189D01*
X153478991Y-47323321D01*
X153442801Y-47315933D01*
X153416962Y-47330379D01*
X153404001Y-47366017D01*
X153402974Y-47383816D01*
X153412263Y-47414376D01*
X153436287Y-47453654D01*
X153469281Y-47494294D01*
X153505480Y-47528939D01*
X153529974Y-47545869D01*
X153557553Y-47563118D01*
X153571781Y-47576210D01*
X153572307Y-47577887D01*
X153583187Y-47587454D01*
X153611451Y-47604065D01*
X153650535Y-47624511D01*
X153693874Y-47645581D01*
X153734904Y-47664066D01*
X153767061Y-47676756D01*
X153782318Y-47680587D01*
X153800161Y-47689083D01*
X153830286Y-47711233D01*
X153866429Y-47742394D01*
X153869338Y-47745086D01*
X153917099Y-47788283D01*
X153969785Y-47834097D01*
X154006107Y-47864476D01*
X154051256Y-47903295D01*
X154102533Y-47950413D01*
X154145251Y-47992059D01*
X154181033Y-48025912D01*
X154211395Y-48050254D01*
X154230801Y-48060750D01*
X154233026Y-48060776D01*
X154256664Y-48063512D01*
X154276418Y-48071517D01*
X154311196Y-48078280D01*
X154340989Y-48063142D01*
X154361039Y-48030251D01*
X154366871Y-47992674D01*
X154368287Y-47964523D01*
X154373811Y-47946579D01*
X154385361Y-47939962D01*
X154404853Y-47945790D01*
X154434206Y-47965183D01*
X154475335Y-47999257D01*
X154530157Y-48049133D01*
X154600590Y-48115928D01*
X154635313Y-48149321D01*
X154665001Y-48173602D01*
X154690437Y-48187263D01*
X154696416Y-48188359D01*
X154719379Y-48195625D01*
X154725076Y-48201385D01*
X154744787Y-48212205D01*
X154776213Y-48213524D01*
X154807102Y-48206056D01*
X154822048Y-48195740D01*
X154830437Y-48172206D01*
X154831692Y-48128572D01*
X154828473Y-48085022D01*
X154825066Y-48030716D01*
X154828397Y-48000534D01*
X154839060Y-47993281D01*
X154857648Y-48007767D01*
X154863507Y-48014531D01*
X154888013Y-48035411D01*
X154920461Y-48054388D01*
X154978161Y-48083446D01*
X155014578Y-48107032D01*
X155033289Y-48127464D01*
X155033342Y-48127559D01*
X155051854Y-48140466D01*
X155087116Y-48151699D01*
X155110266Y-48155923D01*
X155152284Y-48159896D01*
X155179108Y-48155875D01*
X155200908Y-48141822D01*
X155206669Y-48136591D01*
X155229492Y-48118156D01*
X155248806Y-48116294D01*
X155275602Y-48128159D01*
X155308133Y-48147607D01*
X155349474Y-48175712D01*
X155374737Y-48194309D01*
X155410807Y-48219436D01*
X155440909Y-48236198D01*
X155454625Y-48240462D01*
X155471895Y-48246978D01*
X155474051Y-48252452D01*
X155485507Y-48266187D01*
X155515198Y-48273101D01*
X155556114Y-48272791D01*
X155601239Y-48264852D01*
X155615484Y-48260614D01*
X155680260Y-48228524D01*
X155726561Y-48180806D01*
X155754830Y-48116389D01*
X155765510Y-48034206D01*
X155759046Y-47933185D01*
X155757068Y-47919271D01*
X155747009Y-47852080D01*
X155798426Y-47843393D01*
X155844103Y-47841754D01*
X155880681Y-47851474D01*
X155901472Y-47870182D01*
X155903897Y-47880783D01*
X155912092Y-47900678D01*
X155932487Y-47929010D01*
X155939717Y-47937314D01*
X155963712Y-47967330D01*
X155994967Y-48011326D01*
X156027522Y-48060836D01*
X156034153Y-48071444D01*
X156073508Y-48130001D01*
X156120644Y-48192926D01*
X156165445Y-48246721D01*
X156165992Y-48247328D01*
X156203534Y-48290566D01*
X156236774Y-48331737D01*
X156259582Y-48363185D01*
X156262461Y-48367817D01*
X156287951Y-48398904D01*
X156324850Y-48430978D01*
X156340699Y-48441930D01*
X156382621Y-48471680D01*
X156421724Y-48504545D01*
X156432282Y-48514883D01*
X156453924Y-48539063D01*
X156458002Y-48550211D01*
X156446007Y-48553065D01*
X156444293Y-48553077D01*
X156428196Y-48556470D01*
X156434791Y-48568156D01*
X156453138Y-48576474D01*
X156468096Y-48568108D01*
X156494287Y-48559332D01*
X156525459Y-48560810D01*
X156578756Y-48559370D01*
X156625818Y-48533202D01*
X156665434Y-48483141D01*
X156679879Y-48454470D01*
X156697465Y-48416872D01*
X156711295Y-48391221D01*
X156717377Y-48383744D01*
X156727500Y-48393769D01*
X156738595Y-48411770D01*
X156747201Y-48431522D01*
X156740090Y-48434283D01*
X156732541Y-48431717D01*
X156716133Y-48427148D01*
X156713205Y-48434775D01*
X156722909Y-48459631D01*
X156726499Y-48467570D01*
X156738622Y-48489285D01*
X156748840Y-48489088D01*
X156756689Y-48479763D01*
X156768218Y-48469261D01*
X156781437Y-48474340D01*
X156802376Y-48497796D01*
X156806329Y-48502785D01*
X156833184Y-48536281D01*
X156856610Y-48564505D01*
X156860806Y-48569359D01*
X156876956Y-48597088D01*
X156880820Y-48614862D01*
X156873919Y-48620249D01*
X156853007Y-48604482D01*
X156822409Y-48572529D01*
X156793365Y-48541981D01*
X156772385Y-48523333D01*
X156763818Y-48520427D01*
X156763794Y-48520745D01*
X156772277Y-48545179D01*
X156793998Y-48578637D01*
X156822563Y-48613017D01*
X156851581Y-48640218D01*
X156864912Y-48648928D01*
X156906365Y-48660553D01*
X156960759Y-48663940D01*
X157017201Y-48659564D01*
X157064802Y-48647902D01*
X157081964Y-48639435D01*
X157122112Y-48598934D01*
X157151160Y-48540641D01*
X157166063Y-48471536D01*
X157167384Y-48443647D01*
X157169242Y-48402976D01*
X157174022Y-48374096D01*
X157178417Y-48365437D01*
X157193308Y-48369704D01*
X157217490Y-48388552D01*
X157227263Y-48398200D01*
X157250150Y-48423831D01*
X157256251Y-48438798D01*
X157247538Y-48450509D01*
X157242282Y-48454532D01*
X157222431Y-48473150D01*
X157226195Y-48483800D01*
X157254453Y-48487821D01*
X157264229Y-48487949D01*
X157304936Y-48491325D01*
X157339126Y-48499312D01*
X157374724Y-48504108D01*
X157397907Y-48499984D01*
X157424812Y-48479464D01*
X157449504Y-48444528D01*
X157464930Y-48406355D01*
X157466974Y-48390485D01*
X157472144Y-48365873D01*
X157481348Y-48340568D01*
X156956654Y-48340568D01*
X156951614Y-48367358D01*
X156938265Y-48370038D01*
X156917154Y-48349925D01*
X156899753Y-48330106D01*
X156870679Y-48298618D01*
X156838275Y-48264426D01*
X156801594Y-48222174D01*
X156765356Y-48173680D01*
X156733528Y-48125092D01*
X156710079Y-48082555D01*
X156698975Y-48052216D01*
X156698583Y-48048011D01*
X156709272Y-48031193D01*
X156728503Y-48019985D01*
X156758014Y-48004135D01*
X156792987Y-47979389D01*
X156800336Y-47973397D01*
X156830175Y-47952928D01*
X156854247Y-47944275D01*
X156859374Y-47944850D01*
X156878028Y-47962625D01*
X156899034Y-47998279D01*
X156919255Y-48044223D01*
X156935556Y-48092870D01*
X156944802Y-48136631D01*
X156945806Y-48154002D01*
X156946657Y-48197497D01*
X156950113Y-48252289D01*
X156953603Y-48289308D01*
X156956654Y-48340568D01*
X157481348Y-48340568D01*
X157484967Y-48330621D01*
X157488976Y-48321453D01*
X157503287Y-48287717D01*
X157511710Y-48263611D01*
X157512458Y-48260000D01*
X157517322Y-48240165D01*
X157527590Y-48206953D01*
X157531011Y-48196709D01*
X157540198Y-48160387D01*
X157540752Y-48123378D01*
X157532738Y-48074178D01*
X157531720Y-48069327D01*
X157521305Y-48027284D01*
X157510909Y-47996561D01*
X157504190Y-47985311D01*
X157495182Y-47968163D01*
X157493025Y-47950234D01*
X157494121Y-47930929D01*
X157501538Y-47931979D01*
X157516843Y-47947746D01*
X157533432Y-47972336D01*
X157554699Y-48012896D01*
X157576241Y-48060981D01*
X157577729Y-48064615D01*
X157602003Y-48120664D01*
X157632926Y-48187034D01*
X157664628Y-48251203D01*
X157671142Y-48263815D01*
X157695769Y-48312383D01*
X157714936Y-48352757D01*
X157725916Y-48379068D01*
X157727487Y-48385211D01*
X157735855Y-48410285D01*
X157756813Y-48443215D01*
X157784136Y-48476482D01*
X157811602Y-48502566D01*
X157832988Y-48513948D01*
X157834063Y-48514000D01*
X157868047Y-48509946D01*
X157909080Y-48499804D01*
X157947452Y-48486607D01*
X157973453Y-48473386D01*
X157978031Y-48469044D01*
X157984013Y-48446032D01*
X157986611Y-48402736D01*
X157985982Y-48344683D01*
X157982282Y-48277399D01*
X157975668Y-48206410D01*
X157969145Y-48155795D01*
X157961378Y-48099841D01*
X157958100Y-48063800D01*
X157959589Y-48041874D01*
X157966123Y-48028266D01*
X157975712Y-48019026D01*
X157987594Y-48006318D01*
X157993273Y-47988867D01*
X157993388Y-47960108D01*
X157988578Y-47913474D01*
X157987128Y-47901795D01*
X157979359Y-47844703D01*
X157970876Y-47789500D01*
X157963630Y-47748744D01*
X157958352Y-47711756D01*
X157962382Y-47695226D01*
X157967887Y-47693385D01*
X157981397Y-47704236D01*
X158002854Y-47733114D01*
X158029048Y-47774502D01*
X158056771Y-47822883D01*
X158082816Y-47872741D01*
X158103973Y-47918560D01*
X158113855Y-47944365D01*
X158127361Y-47979308D01*
X158149166Y-48029842D01*
X158175878Y-48088280D01*
X158195666Y-48129744D01*
X158222454Y-48185972D01*
X158245514Y-48236527D01*
X158262002Y-48275047D01*
X158268448Y-48292564D01*
X158279503Y-48319593D01*
X158299887Y-48360538D01*
X158325414Y-48407044D01*
X158328314Y-48412067D01*
X158352323Y-48454584D01*
X158370135Y-48488311D01*
X158378511Y-48507061D01*
X158378769Y-48508461D01*
X158384092Y-48524400D01*
X158397891Y-48556035D01*
X158412861Y-48587599D01*
X158439712Y-48633774D01*
X158462948Y-48655577D01*
X158470391Y-48657282D01*
X158492622Y-48664047D01*
X158498541Y-48671420D01*
X158512616Y-48674975D01*
X158546190Y-48665596D01*
X158575387Y-48653656D01*
X158618579Y-48632173D01*
X158627796Y-48624718D01*
X158482974Y-48624718D01*
X158476461Y-48631231D01*
X158469948Y-48624718D01*
X158476461Y-48618205D01*
X158482974Y-48624718D01*
X158627796Y-48624718D01*
X158643602Y-48611934D01*
X158657289Y-48586873D01*
X158659878Y-48578668D01*
X158672150Y-48548186D01*
X158685615Y-48531262D01*
X158686915Y-48530686D01*
X158702776Y-48536621D01*
X158731745Y-48556740D01*
X158768253Y-48587060D01*
X158777899Y-48595762D01*
X158861555Y-48662680D01*
X158941888Y-48705716D01*
X159022340Y-48726147D01*
X159106352Y-48725249D01*
X159121230Y-48723068D01*
X159222316Y-48693793D01*
X159317904Y-48641816D01*
X159402570Y-48570487D01*
X159441916Y-48525002D01*
X159470486Y-48483616D01*
X159498072Y-48436475D01*
X159521882Y-48389428D01*
X159539122Y-48348325D01*
X159546998Y-48319016D01*
X159545298Y-48308495D01*
X159547039Y-48294643D01*
X159557283Y-48264990D01*
X159566610Y-48242522D01*
X159585961Y-48187851D01*
X159605870Y-48112376D01*
X159606327Y-48110205D01*
X159423706Y-48110205D01*
X159418302Y-48172972D01*
X159400769Y-48243073D01*
X159374195Y-48312892D01*
X159341669Y-48374813D01*
X159306278Y-48421218D01*
X159292778Y-48433156D01*
X159254749Y-48464217D01*
X159218786Y-48497471D01*
X159190309Y-48527464D01*
X159174738Y-48548738D01*
X159173333Y-48553382D01*
X159162562Y-48565212D01*
X159136568Y-48580657D01*
X159104831Y-48595058D01*
X159076831Y-48603756D01*
X159069128Y-48604597D01*
X159045754Y-48599459D01*
X159010464Y-48586556D01*
X158996691Y-48580581D01*
X158954680Y-48555742D01*
X158912962Y-48521724D01*
X158877416Y-48484497D01*
X158853925Y-48450034D01*
X158847750Y-48429333D01*
X158841935Y-48403343D01*
X158827215Y-48365003D01*
X158815073Y-48339203D01*
X158796938Y-48300708D01*
X158785137Y-48270384D01*
X158782564Y-48259067D01*
X158777178Y-48242208D01*
X158762344Y-48206457D01*
X158740042Y-48156329D01*
X158712257Y-48096342D01*
X158697401Y-48065050D01*
X158666125Y-47997284D01*
X158638295Y-47932503D01*
X158616359Y-47876739D01*
X158602766Y-47836019D01*
X158600357Y-47826058D01*
X158588921Y-47780856D01*
X158571237Y-47725201D01*
X158554699Y-47680359D01*
X158540276Y-47643064D01*
X158526374Y-47604191D01*
X158511835Y-47559920D01*
X158495498Y-47506432D01*
X158476203Y-47439910D01*
X158452791Y-47356533D01*
X158424101Y-47252483D01*
X158418208Y-47230974D01*
X158384960Y-47109772D01*
X158357685Y-47010916D01*
X158335584Y-46931596D01*
X158317857Y-46869002D01*
X158303705Y-46820326D01*
X158292328Y-46782758D01*
X158282926Y-46753488D01*
X158279209Y-46742513D01*
X158263683Y-46694088D01*
X158247244Y-46637847D01*
X158240314Y-46612256D01*
X158228695Y-46568408D01*
X158218844Y-46532381D01*
X158214647Y-46517820D01*
X158216393Y-46498626D01*
X158228355Y-46495026D01*
X158252732Y-46487949D01*
X158286843Y-46470419D01*
X158321850Y-46447987D01*
X158348914Y-46426204D01*
X158358880Y-46413059D01*
X158363527Y-46391199D01*
X158369407Y-46354789D01*
X158371664Y-46338718D01*
X158380490Y-46289794D01*
X158394249Y-46261361D01*
X158418428Y-46247866D01*
X158458512Y-46243753D01*
X158465598Y-46243611D01*
X158504835Y-46245908D01*
X158543252Y-46255907D01*
X158589230Y-46276348D01*
X158626756Y-46296322D01*
X158666601Y-46321258D01*
X158713981Y-46355359D01*
X158764500Y-46394884D01*
X158813761Y-46436091D01*
X158857370Y-46475240D01*
X158890930Y-46508589D01*
X158910047Y-46532399D01*
X158912820Y-46539786D01*
X158920498Y-46555403D01*
X158939533Y-46581463D01*
X158945384Y-46588581D01*
X158966512Y-46617646D01*
X158977505Y-46640494D01*
X158977948Y-46643727D01*
X158986927Y-46661577D01*
X159009719Y-46688228D01*
X159024519Y-46702551D01*
X159044659Y-46722339D01*
X159062285Y-46744159D01*
X159079216Y-46771761D01*
X159097269Y-46808894D01*
X159118261Y-46859307D01*
X159144010Y-46926751D01*
X159176334Y-47014975D01*
X159177445Y-47018038D01*
X159203611Y-47089009D01*
X159230837Y-47160821D01*
X159255817Y-47224863D01*
X159274436Y-47270622D01*
X159324670Y-47399928D01*
X159363989Y-47523074D01*
X159391703Y-47636781D01*
X159407120Y-47737770D01*
X159409550Y-47822760D01*
X159402007Y-47875744D01*
X159399871Y-47904928D01*
X159402248Y-47949833D01*
X159408446Y-47999487D01*
X159415873Y-48047777D01*
X159421345Y-48087419D01*
X159423699Y-48109977D01*
X159423706Y-48110205D01*
X159606327Y-48110205D01*
X159625082Y-48021282D01*
X159638071Y-47947121D01*
X159636253Y-47909357D01*
X159617280Y-47883230D01*
X159597999Y-47855758D01*
X159590464Y-47814773D01*
X159590077Y-47798827D01*
X159586903Y-47738824D01*
X159578474Y-47665703D01*
X159566233Y-47587999D01*
X159551620Y-47514248D01*
X159536079Y-47452986D01*
X159527138Y-47426359D01*
X159511733Y-47380639D01*
X159495052Y-47321527D01*
X159480527Y-47261252D01*
X159479621Y-47257026D01*
X159459586Y-47166082D01*
X159442602Y-47097662D01*
X159427559Y-47048571D01*
X159413347Y-47015614D01*
X159398859Y-46995598D01*
X159385646Y-46986441D01*
X159358086Y-46960293D01*
X159340982Y-46919470D01*
X159328561Y-46874522D01*
X159316668Y-46832589D01*
X159314960Y-46826708D01*
X159301048Y-46795681D01*
X159276276Y-46754130D01*
X159249618Y-46715990D01*
X159217169Y-46671572D01*
X159177585Y-46615248D01*
X159137850Y-46557005D01*
X159125468Y-46538421D01*
X159089775Y-46487981D01*
X159049653Y-46436872D01*
X159009006Y-46389440D01*
X158971738Y-46350034D01*
X158941754Y-46322998D01*
X158922959Y-46312680D01*
X158922680Y-46312674D01*
X158909692Y-46304531D01*
X158881474Y-46282365D01*
X158842177Y-46249555D01*
X158795956Y-46209485D01*
X158795780Y-46209329D01*
X158678558Y-46105992D01*
X158552213Y-46112291D01*
X158552213Y-46112291D01*
G37*
X158552213Y-46112291D02*
X158444741Y-46123168D01*
X158359846Y-46144606D01*
X158295850Y-46177655D01*
X158251076Y-46223368D01*
X158223846Y-46282795D01*
X158215508Y-46323390D01*
X158205353Y-46384562D01*
X158194700Y-46420204D01*
X158183116Y-46430838D01*
X158170164Y-46416986D01*
X158159285Y-46390820D01*
X158143018Y-46361568D01*
X158117791Y-46351902D01*
X158112421Y-46351744D01*
X158086396Y-46357727D01*
X158079179Y-46377026D01*
X158071484Y-46404808D01*
X158051458Y-46411093D01*
X158026176Y-46396518D01*
X158004589Y-46380998D01*
X157994263Y-46384925D01*
X157994799Y-46409774D01*
X158005797Y-46457019D01*
X158007816Y-46464319D01*
X158031906Y-46550966D01*
X158050492Y-46619505D01*
X158065362Y-46676835D01*
X158078306Y-46729859D01*
X158091110Y-46785477D01*
X158091701Y-46788103D01*
X158121729Y-46911725D01*
X158155691Y-47030307D01*
X158195831Y-47152820D01*
X158216913Y-47219627D01*
X158237722Y-47294539D01*
X158253729Y-47361231D01*
X158268739Y-47420525D01*
X158287560Y-47478914D01*
X158306320Y-47524492D01*
X158307746Y-47527314D01*
X158325907Y-47566059D01*
X158337479Y-47597606D01*
X158339692Y-47609183D01*
X158346241Y-47635264D01*
X158357485Y-47658022D01*
X158365319Y-47676632D01*
X158375185Y-47711089D01*
X158387438Y-47763072D01*
X158402435Y-47834260D01*
X158420531Y-47926331D01*
X158442080Y-48040964D01*
X158464269Y-48162308D01*
X158475126Y-48217688D01*
X158486262Y-48267024D01*
X158495696Y-48301728D01*
X158497825Y-48307816D01*
X158506203Y-48341999D01*
X158506188Y-48366431D01*
X158497916Y-48374215D01*
X158482702Y-48360222D01*
X158462250Y-48327248D01*
X158438265Y-48278091D01*
X158412453Y-48215548D01*
X158409548Y-48207897D01*
X158389538Y-48159310D01*
X158369348Y-48117654D01*
X158353171Y-48091534D01*
X158352435Y-48090667D01*
X158330525Y-48057079D01*
X158320044Y-48032051D01*
X158309570Y-48003127D01*
X158292013Y-47960691D01*
X158274528Y-47921333D01*
X158248649Y-47864826D01*
X158220807Y-47803787D01*
X158205230Y-47769506D01*
X158186017Y-47729719D01*
X158169672Y-47700405D01*
X158160997Y-47689136D01*
X158151148Y-47674640D01*
X158134893Y-47642333D01*
X158115411Y-47598629D01*
X158111415Y-47589104D01*
X158084372Y-47531269D01*
X158055857Y-47489116D01*
X158018929Y-47452855D01*
X158009093Y-47444781D01*
X157972674Y-47417895D01*
X157942115Y-47399420D01*
X157926395Y-47393795D01*
X157901541Y-47399285D01*
X157861920Y-47413631D01*
X157815864Y-47433644D01*
X157792615Y-47444988D01*
X157778964Y-47464220D01*
X157767358Y-47503891D01*
X157762626Y-47531827D01*
X157754377Y-47582613D01*
X157744485Y-47629996D01*
X157738496Y-47652411D01*
X157732451Y-47690350D01*
X157730538Y-47749689D01*
X157732867Y-47826090D01*
X157733743Y-47841283D01*
X157737336Y-47903699D01*
X157738683Y-47943618D01*
X157737445Y-47964523D01*
X157733278Y-47969901D01*
X157725842Y-47963234D01*
X157722251Y-47958492D01*
X157701888Y-47924958D01*
X157677232Y-47876501D01*
X157652247Y-47821905D01*
X157630897Y-47769954D01*
X157617144Y-47729433D01*
X157615152Y-47721123D01*
X157601016Y-47683073D01*
X157582757Y-47655754D01*
X157564546Y-47632041D01*
X157558153Y-47616698D01*
X157548172Y-47603059D01*
X157522405Y-47581076D01*
X157496976Y-47562762D01*
X157438400Y-47533339D01*
X157383776Y-47528547D01*
X157329008Y-47548239D01*
X157315801Y-47556320D01*
X157303457Y-47565294D01*
X157294561Y-47576112D01*
X157288889Y-47592421D01*
X157286214Y-47617869D01*
X157286310Y-47656104D01*
X157288950Y-47710774D01*
X157293910Y-47785526D01*
X157298023Y-47843179D01*
X157305302Y-47944498D01*
X157310796Y-48022795D01*
X157314555Y-48081036D01*
X157316632Y-48122185D01*
X157317076Y-48149208D01*
X157315941Y-48165069D01*
X157313277Y-48172734D01*
X157309135Y-48175167D01*
X157303776Y-48175333D01*
X157285990Y-48164543D01*
X157278528Y-48150625D01*
X157265128Y-48126591D01*
X157240345Y-48094460D01*
X157227382Y-48080001D01*
X157194441Y-48040312D01*
X157160694Y-47992473D01*
X157147546Y-47971196D01*
X157121612Y-47930454D01*
X157095564Y-47895584D01*
X157083315Y-47882153D01*
X157066323Y-47861377D01*
X157039643Y-47823252D01*
X157017533Y-47789447D01*
X156786466Y-47789447D01*
X156769172Y-47816198D01*
X156735364Y-47836477D01*
X156702345Y-47831740D01*
X156673450Y-47802896D01*
X156665187Y-47787820D01*
X156645973Y-47733800D01*
X156636734Y-47678216D01*
X156638126Y-47629409D01*
X156650165Y-47596544D01*
X156662184Y-47583216D01*
X156671853Y-47584880D01*
X156683880Y-47604953D01*
X156695019Y-47629108D01*
X156718430Y-47671573D01*
X156746059Y-47708899D01*
X156755307Y-47718450D01*
X156783805Y-47755189D01*
X156786466Y-47789447D01*
X157017533Y-47789447D01*
X157006724Y-47772922D01*
X156971018Y-47715534D01*
X156965437Y-47706307D01*
X156914993Y-47625627D01*
X156872137Y-47564727D01*
X156833551Y-47519724D01*
X156795922Y-47486738D01*
X156757313Y-47462610D01*
X156714465Y-47447562D01*
X156670957Y-47444012D01*
X156636832Y-47452313D01*
X156628943Y-47458103D01*
X156602869Y-47472593D01*
X156580188Y-47461873D01*
X156562164Y-47426696D01*
X156559175Y-47416590D01*
X156532279Y-47327905D01*
X156500566Y-47240605D01*
X156467593Y-47164009D01*
X156448519Y-47126769D01*
X156425645Y-47084145D01*
X156394328Y-47023388D01*
X156357252Y-46949923D01*
X156317101Y-46869172D01*
X156276558Y-46786559D01*
X156238308Y-46707507D01*
X156205035Y-46637439D01*
X156185838Y-46595974D01*
X156162963Y-46550094D01*
X156141774Y-46515115D01*
X156125789Y-46496594D01*
X156121929Y-46495026D01*
X156099908Y-46502966D01*
X156068743Y-46522790D01*
X156035947Y-46548503D01*
X156009032Y-46574110D01*
X155995512Y-46593616D01*
X155995076Y-46596250D01*
X155998384Y-46622512D01*
X156006685Y-46663341D01*
X156017551Y-46708335D01*
X156028551Y-46747091D01*
X156033807Y-46762051D01*
X156043671Y-46790569D01*
X156055886Y-46831038D01*
X156060201Y-46846490D01*
X156075895Y-46894221D01*
X156097267Y-46947622D01*
X156107225Y-46969415D01*
X156124747Y-47009206D01*
X156136130Y-47041699D01*
X156138555Y-47054310D01*
X156143067Y-47080537D01*
X156153791Y-47117120D01*
X156167011Y-47153122D01*
X156179012Y-47177608D01*
X156181534Y-47180799D01*
X156188651Y-47199711D01*
X156190461Y-47219351D01*
X156195601Y-47246065D01*
X156203487Y-47257026D01*
X156212382Y-47274390D01*
X156216481Y-47305795D01*
X156216512Y-47308841D01*
X156222292Y-47352258D01*
X156234868Y-47389483D01*
X156248170Y-47420558D01*
X156265394Y-47466571D01*
X156282805Y-47517538D01*
X156303040Y-47573183D01*
X156330373Y-47639578D01*
X156359692Y-47704459D01*
X156366945Y-47719436D01*
X156395997Y-47778873D01*
X156416203Y-47822258D01*
X156430429Y-47856807D01*
X156441541Y-47889738D01*
X156452404Y-47928269D01*
X156457459Y-47947385D01*
X156465625Y-47985316D01*
X156474336Y-48036837D01*
X156482918Y-48096254D01*
X156490696Y-48157876D01*
X156496997Y-48216012D01*
X156501148Y-48264968D01*
X156502473Y-48299055D01*
X156500668Y-48312340D01*
X156482170Y-48313323D01*
X156451638Y-48291986D01*
X156409560Y-48248852D01*
X156356423Y-48184445D01*
X156292717Y-48099290D01*
X156262102Y-48056292D01*
X156225295Y-48005218D01*
X156182594Y-47947811D01*
X156150180Y-47905462D01*
X156116031Y-47857087D01*
X156085490Y-47805950D01*
X156066362Y-47765908D01*
X156043473Y-47720697D01*
X156012766Y-47691023D01*
X155969752Y-47674970D01*
X155909938Y-47670620D01*
X155850901Y-47673925D01*
X155779172Y-47676678D01*
X155728148Y-47669583D01*
X155694067Y-47651747D01*
X155678557Y-47632867D01*
X155647394Y-47603099D01*
X155602177Y-47586309D01*
X155553075Y-47585892D01*
X155544023Y-47587978D01*
X155494331Y-47611436D01*
X155466989Y-47646316D01*
X155462654Y-47689619D01*
X155481982Y-47738343D01*
X155504596Y-47768244D01*
X155545572Y-47832537D01*
X155567696Y-47908406D01*
X155568675Y-47984828D01*
X155562001Y-48035298D01*
X155498245Y-48027746D01*
X155446468Y-48015676D01*
X155392583Y-47993545D01*
X155343215Y-47965236D01*
X155304987Y-47934635D01*
X155284521Y-47905623D01*
X155283425Y-47901795D01*
X155257928Y-47803851D01*
X155225738Y-47706477D01*
X155189177Y-47615161D01*
X155150562Y-47535390D01*
X155112215Y-47472652D01*
X155090701Y-47445897D01*
X155064517Y-47413791D01*
X155045338Y-47384026D01*
X155028388Y-47362135D01*
X155004851Y-47356475D01*
X154969311Y-47366888D01*
X154939671Y-47380937D01*
X154895938Y-47407602D01*
X154868431Y-47437833D01*
X154854366Y-47477754D01*
X154850959Y-47533490D01*
X154852584Y-47572524D01*
X154859459Y-47638760D01*
X154872935Y-47692692D01*
X154896568Y-47747888D01*
X154900713Y-47756142D01*
X154920283Y-47797650D01*
X154932533Y-47829717D01*
X154935021Y-47845871D01*
X154934721Y-47846287D01*
X154924025Y-47846464D01*
X154904731Y-47832406D01*
X154875556Y-47802703D01*
X154835218Y-47755944D01*
X154782436Y-47690720D01*
X154715927Y-47605620D01*
X154715694Y-47605319D01*
X154656527Y-47530215D01*
X154609745Y-47474788D01*
X154573088Y-47437172D01*
X154544296Y-47415497D01*
X154521108Y-47407896D01*
X154501265Y-47412502D01*
X154490950Y-47419568D01*
X154470754Y-47445421D01*
X154464190Y-47460099D01*
X154449576Y-47480588D01*
X154437635Y-47484974D01*
X154423329Y-47487996D01*
X154421731Y-47499773D01*
X154433933Y-47524374D01*
X154458288Y-47561832D01*
X154480321Y-47597465D01*
X154494396Y-47626215D01*
X154497128Y-47636693D01*
X154502825Y-47654911D01*
X154518243Y-47690577D01*
X154540869Y-47738140D01*
X154562114Y-47780329D01*
X154588015Y-47831669D01*
X154608194Y-47873763D01*
X154620381Y-47901731D01*
X154622802Y-47910719D01*
X154611226Y-47905456D01*
X154584255Y-47887669D01*
X154547056Y-47860828D01*
X154535021Y-47851792D01*
X154447198Y-47775600D01*
X154367128Y-47687842D01*
X154303017Y-47597610D01*
X154298020Y-47589179D01*
X154272824Y-47552235D01*
X154235796Y-47505531D01*
X154193740Y-47457509D01*
X154180888Y-47443824D01*
X154141099Y-47403010D01*
X154113629Y-47378108D01*
X154093145Y-47365872D01*
X154074315Y-47363054D01*
X154053257Y-47366113D01*
X154016422Y-47380831D01*
X153989133Y-47411964D01*
X153982820Y-47422969D01*
X153956974Y-47470798D01*
X153994694Y-47542895D01*
X154019765Y-47584843D01*
X154045769Y-47619083D01*
X154062415Y-47634650D01*
X154090727Y-47659415D01*
X154106359Y-47680359D01*
X154113978Y-47701209D01*
X154107068Y-47705860D01*
X154088946Y-47697091D01*
X154062930Y-47677679D01*
X154032335Y-47650406D01*
X154000480Y-47618048D01*
X153970681Y-47583386D01*
X153946255Y-47549198D01*
X153942601Y-47543166D01*
X153905910Y-47494456D01*
X153865044Y-47469848D01*
X153815845Y-47467394D01*
X153791819Y-47472467D01*
X153763353Y-47478635D01*
X153739023Y-47477988D01*
X153710908Y-47468592D01*
X153671086Y-47448517D01*
X153652871Y-47438585D01*
X153603207Y-47409376D01*
X153556594Y-47378730D01*
X153523094Y-47353264D01*
X153523008Y-47353189D01*
X153478991Y-47323321D01*
X153442801Y-47315933D01*
X153416962Y-47330379D01*
X153404001Y-47366017D01*
X153402974Y-47383816D01*
X153412263Y-47414376D01*
X153436287Y-47453654D01*
X153469281Y-47494294D01*
X153505480Y-47528939D01*
X153529974Y-47545869D01*
X153557553Y-47563118D01*
X153571781Y-47576210D01*
X153572307Y-47577887D01*
X153583187Y-47587454D01*
X153611451Y-47604065D01*
X153650535Y-47624511D01*
X153693874Y-47645581D01*
X153734904Y-47664066D01*
X153767061Y-47676756D01*
X153782318Y-47680587D01*
X153800161Y-47689083D01*
X153830286Y-47711233D01*
X153866429Y-47742394D01*
X153869338Y-47745086D01*
X153917099Y-47788283D01*
X153969785Y-47834097D01*
X154006107Y-47864476D01*
X154051256Y-47903295D01*
X154102533Y-47950413D01*
X154145251Y-47992059D01*
X154181033Y-48025912D01*
X154211395Y-48050254D01*
X154230801Y-48060750D01*
X154233026Y-48060776D01*
X154256664Y-48063512D01*
X154276418Y-48071517D01*
X154311196Y-48078280D01*
X154340989Y-48063142D01*
X154361039Y-48030251D01*
X154366871Y-47992674D01*
X154368287Y-47964523D01*
X154373811Y-47946579D01*
X154385361Y-47939962D01*
X154404853Y-47945790D01*
X154434206Y-47965183D01*
X154475335Y-47999257D01*
X154530157Y-48049133D01*
X154600590Y-48115928D01*
X154635313Y-48149321D01*
X154665001Y-48173602D01*
X154690437Y-48187263D01*
X154696416Y-48188359D01*
X154719379Y-48195625D01*
X154725076Y-48201385D01*
X154744787Y-48212205D01*
X154776213Y-48213524D01*
X154807102Y-48206056D01*
X154822048Y-48195740D01*
X154830437Y-48172206D01*
X154831692Y-48128572D01*
X154828473Y-48085022D01*
X154825066Y-48030716D01*
X154828397Y-48000534D01*
X154839060Y-47993281D01*
X154857648Y-48007767D01*
X154863507Y-48014531D01*
X154888013Y-48035411D01*
X154920461Y-48054388D01*
X154978161Y-48083446D01*
X155014578Y-48107032D01*
X155033289Y-48127464D01*
X155033342Y-48127559D01*
X155051854Y-48140466D01*
X155087116Y-48151699D01*
X155110266Y-48155923D01*
X155152284Y-48159896D01*
X155179108Y-48155875D01*
X155200908Y-48141822D01*
X155206669Y-48136591D01*
X155229492Y-48118156D01*
X155248806Y-48116294D01*
X155275602Y-48128159D01*
X155308133Y-48147607D01*
X155349474Y-48175712D01*
X155374737Y-48194309D01*
X155410807Y-48219436D01*
X155440909Y-48236198D01*
X155454625Y-48240462D01*
X155471895Y-48246978D01*
X155474051Y-48252452D01*
X155485507Y-48266187D01*
X155515198Y-48273101D01*
X155556114Y-48272791D01*
X155601239Y-48264852D01*
X155615484Y-48260614D01*
X155680260Y-48228524D01*
X155726561Y-48180806D01*
X155754830Y-48116389D01*
X155765510Y-48034206D01*
X155759046Y-47933185D01*
X155757068Y-47919271D01*
X155747009Y-47852080D01*
X155798426Y-47843393D01*
X155844103Y-47841754D01*
X155880681Y-47851474D01*
X155901472Y-47870182D01*
X155903897Y-47880783D01*
X155912092Y-47900678D01*
X155932487Y-47929010D01*
X155939717Y-47937314D01*
X155963712Y-47967330D01*
X155994967Y-48011326D01*
X156027522Y-48060836D01*
X156034153Y-48071444D01*
X156073508Y-48130001D01*
X156120644Y-48192926D01*
X156165445Y-48246721D01*
X156165992Y-48247328D01*
X156203534Y-48290566D01*
X156236774Y-48331737D01*
X156259582Y-48363185D01*
X156262461Y-48367817D01*
X156287951Y-48398904D01*
X156324850Y-48430978D01*
X156340699Y-48441930D01*
X156382621Y-48471680D01*
X156421724Y-48504545D01*
X156432282Y-48514883D01*
X156453924Y-48539063D01*
X156458002Y-48550211D01*
X156446007Y-48553065D01*
X156444293Y-48553077D01*
X156428196Y-48556470D01*
X156434791Y-48568156D01*
X156453138Y-48576474D01*
X156468096Y-48568108D01*
X156494287Y-48559332D01*
X156525459Y-48560810D01*
X156578756Y-48559370D01*
X156625818Y-48533202D01*
X156665434Y-48483141D01*
X156679879Y-48454470D01*
X156697465Y-48416872D01*
X156711295Y-48391221D01*
X156717377Y-48383744D01*
X156727500Y-48393769D01*
X156738595Y-48411770D01*
X156747201Y-48431522D01*
X156740090Y-48434283D01*
X156732541Y-48431717D01*
X156716133Y-48427148D01*
X156713205Y-48434775D01*
X156722909Y-48459631D01*
X156726499Y-48467570D01*
X156738622Y-48489285D01*
X156748840Y-48489088D01*
X156756689Y-48479763D01*
X156768218Y-48469261D01*
X156781437Y-48474340D01*
X156802376Y-48497796D01*
X156806329Y-48502785D01*
X156833184Y-48536281D01*
X156856610Y-48564505D01*
X156860806Y-48569359D01*
X156876956Y-48597088D01*
X156880820Y-48614862D01*
X156873919Y-48620249D01*
X156853007Y-48604482D01*
X156822409Y-48572529D01*
X156793365Y-48541981D01*
X156772385Y-48523333D01*
X156763818Y-48520427D01*
X156763794Y-48520745D01*
X156772277Y-48545179D01*
X156793998Y-48578637D01*
X156822563Y-48613017D01*
X156851581Y-48640218D01*
X156864912Y-48648928D01*
X156906365Y-48660553D01*
X156960759Y-48663940D01*
X157017201Y-48659564D01*
X157064802Y-48647902D01*
X157081964Y-48639435D01*
X157122112Y-48598934D01*
X157151160Y-48540641D01*
X157166063Y-48471536D01*
X157167384Y-48443647D01*
X157169242Y-48402976D01*
X157174022Y-48374096D01*
X157178417Y-48365437D01*
X157193308Y-48369704D01*
X157217490Y-48388552D01*
X157227263Y-48398200D01*
X157250150Y-48423831D01*
X157256251Y-48438798D01*
X157247538Y-48450509D01*
X157242282Y-48454532D01*
X157222431Y-48473150D01*
X157226195Y-48483800D01*
X157254453Y-48487821D01*
X157264229Y-48487949D01*
X157304936Y-48491325D01*
X157339126Y-48499312D01*
X157374724Y-48504108D01*
X157397907Y-48499984D01*
X157424812Y-48479464D01*
X157449504Y-48444528D01*
X157464930Y-48406355D01*
X157466974Y-48390485D01*
X157472144Y-48365873D01*
X157481348Y-48340568D01*
X156956654Y-48340568D01*
X156951614Y-48367358D01*
X156938265Y-48370038D01*
X156917154Y-48349925D01*
X156899753Y-48330106D01*
X156870679Y-48298618D01*
X156838275Y-48264426D01*
X156801594Y-48222174D01*
X156765356Y-48173680D01*
X156733528Y-48125092D01*
X156710079Y-48082555D01*
X156698975Y-48052216D01*
X156698583Y-48048011D01*
X156709272Y-48031193D01*
X156728503Y-48019985D01*
X156758014Y-48004135D01*
X156792987Y-47979389D01*
X156800336Y-47973397D01*
X156830175Y-47952928D01*
X156854247Y-47944275D01*
X156859374Y-47944850D01*
X156878028Y-47962625D01*
X156899034Y-47998279D01*
X156919255Y-48044223D01*
X156935556Y-48092870D01*
X156944802Y-48136631D01*
X156945806Y-48154002D01*
X156946657Y-48197497D01*
X156950113Y-48252289D01*
X156953603Y-48289308D01*
X156956654Y-48340568D01*
X157481348Y-48340568D01*
X157484967Y-48330621D01*
X157488976Y-48321453D01*
X157503287Y-48287717D01*
X157511710Y-48263611D01*
X157512458Y-48260000D01*
X157517322Y-48240165D01*
X157527590Y-48206953D01*
X157531011Y-48196709D01*
X157540198Y-48160387D01*
X157540752Y-48123378D01*
X157532738Y-48074178D01*
X157531720Y-48069327D01*
X157521305Y-48027284D01*
X157510909Y-47996561D01*
X157504190Y-47985311D01*
X157495182Y-47968163D01*
X157493025Y-47950234D01*
X157494121Y-47930929D01*
X157501538Y-47931979D01*
X157516843Y-47947746D01*
X157533432Y-47972336D01*
X157554699Y-48012896D01*
X157576241Y-48060981D01*
X157577729Y-48064615D01*
X157602003Y-48120664D01*
X157632926Y-48187034D01*
X157664628Y-48251203D01*
X157671142Y-48263815D01*
X157695769Y-48312383D01*
X157714936Y-48352757D01*
X157725916Y-48379068D01*
X157727487Y-48385211D01*
X157735855Y-48410285D01*
X157756813Y-48443215D01*
X157784136Y-48476482D01*
X157811602Y-48502566D01*
X157832988Y-48513948D01*
X157834063Y-48514000D01*
X157868047Y-48509946D01*
X157909080Y-48499804D01*
X157947452Y-48486607D01*
X157973453Y-48473386D01*
X157978031Y-48469044D01*
X157984013Y-48446032D01*
X157986611Y-48402736D01*
X157985982Y-48344683D01*
X157982282Y-48277399D01*
X157975668Y-48206410D01*
X157969145Y-48155795D01*
X157961378Y-48099841D01*
X157958100Y-48063800D01*
X157959589Y-48041874D01*
X157966123Y-48028266D01*
X157975712Y-48019026D01*
X157987594Y-48006318D01*
X157993273Y-47988867D01*
X157993388Y-47960108D01*
X157988578Y-47913474D01*
X157987128Y-47901795D01*
X157979359Y-47844703D01*
X157970876Y-47789500D01*
X157963630Y-47748744D01*
X157958352Y-47711756D01*
X157962382Y-47695226D01*
X157967887Y-47693385D01*
X157981397Y-47704236D01*
X158002854Y-47733114D01*
X158029048Y-47774502D01*
X158056771Y-47822883D01*
X158082816Y-47872741D01*
X158103973Y-47918560D01*
X158113855Y-47944365D01*
X158127361Y-47979308D01*
X158149166Y-48029842D01*
X158175878Y-48088280D01*
X158195666Y-48129744D01*
X158222454Y-48185972D01*
X158245514Y-48236527D01*
X158262002Y-48275047D01*
X158268448Y-48292564D01*
X158279503Y-48319593D01*
X158299887Y-48360538D01*
X158325414Y-48407044D01*
X158328314Y-48412067D01*
X158352323Y-48454584D01*
X158370135Y-48488311D01*
X158378511Y-48507061D01*
X158378769Y-48508461D01*
X158384092Y-48524400D01*
X158397891Y-48556035D01*
X158412861Y-48587599D01*
X158439712Y-48633774D01*
X158462948Y-48655577D01*
X158470391Y-48657282D01*
X158492622Y-48664047D01*
X158498541Y-48671420D01*
X158512616Y-48674975D01*
X158546190Y-48665596D01*
X158575387Y-48653656D01*
X158618579Y-48632173D01*
X158627796Y-48624718D01*
X158482974Y-48624718D01*
X158476461Y-48631231D01*
X158469948Y-48624718D01*
X158476461Y-48618205D01*
X158482974Y-48624718D01*
X158627796Y-48624718D01*
X158643602Y-48611934D01*
X158657289Y-48586873D01*
X158659878Y-48578668D01*
X158672150Y-48548186D01*
X158685615Y-48531262D01*
X158686915Y-48530686D01*
X158702776Y-48536621D01*
X158731745Y-48556740D01*
X158768253Y-48587060D01*
X158777899Y-48595762D01*
X158861555Y-48662680D01*
X158941888Y-48705716D01*
X159022340Y-48726147D01*
X159106352Y-48725249D01*
X159121230Y-48723068D01*
X159222316Y-48693793D01*
X159317904Y-48641816D01*
X159402570Y-48570487D01*
X159441916Y-48525002D01*
X159470486Y-48483616D01*
X159498072Y-48436475D01*
X159521882Y-48389428D01*
X159539122Y-48348325D01*
X159546998Y-48319016D01*
X159545298Y-48308495D01*
X159547039Y-48294643D01*
X159557283Y-48264990D01*
X159566610Y-48242522D01*
X159585961Y-48187851D01*
X159605870Y-48112376D01*
X159606327Y-48110205D01*
X159423706Y-48110205D01*
X159418302Y-48172972D01*
X159400769Y-48243073D01*
X159374195Y-48312892D01*
X159341669Y-48374813D01*
X159306278Y-48421218D01*
X159292778Y-48433156D01*
X159254749Y-48464217D01*
X159218786Y-48497471D01*
X159190309Y-48527464D01*
X159174738Y-48548738D01*
X159173333Y-48553382D01*
X159162562Y-48565212D01*
X159136568Y-48580657D01*
X159104831Y-48595058D01*
X159076831Y-48603756D01*
X159069128Y-48604597D01*
X159045754Y-48599459D01*
X159010464Y-48586556D01*
X158996691Y-48580581D01*
X158954680Y-48555742D01*
X158912962Y-48521724D01*
X158877416Y-48484497D01*
X158853925Y-48450034D01*
X158847750Y-48429333D01*
X158841935Y-48403343D01*
X158827215Y-48365003D01*
X158815073Y-48339203D01*
X158796938Y-48300708D01*
X158785137Y-48270384D01*
X158782564Y-48259067D01*
X158777178Y-48242208D01*
X158762344Y-48206457D01*
X158740042Y-48156329D01*
X158712257Y-48096342D01*
X158697401Y-48065050D01*
X158666125Y-47997284D01*
X158638295Y-47932503D01*
X158616359Y-47876739D01*
X158602766Y-47836019D01*
X158600357Y-47826058D01*
X158588921Y-47780856D01*
X158571237Y-47725201D01*
X158554699Y-47680359D01*
X158540276Y-47643064D01*
X158526374Y-47604191D01*
X158511835Y-47559920D01*
X158495498Y-47506432D01*
X158476203Y-47439910D01*
X158452791Y-47356533D01*
X158424101Y-47252483D01*
X158418208Y-47230974D01*
X158384960Y-47109772D01*
X158357685Y-47010916D01*
X158335584Y-46931596D01*
X158317857Y-46869002D01*
X158303705Y-46820326D01*
X158292328Y-46782758D01*
X158282926Y-46753488D01*
X158279209Y-46742513D01*
X158263683Y-46694088D01*
X158247244Y-46637847D01*
X158240314Y-46612256D01*
X158228695Y-46568408D01*
X158218844Y-46532381D01*
X158214647Y-46517820D01*
X158216393Y-46498626D01*
X158228355Y-46495026D01*
X158252732Y-46487949D01*
X158286843Y-46470419D01*
X158321850Y-46447987D01*
X158348914Y-46426204D01*
X158358880Y-46413059D01*
X158363527Y-46391199D01*
X158369407Y-46354789D01*
X158371664Y-46338718D01*
X158380490Y-46289794D01*
X158394249Y-46261361D01*
X158418428Y-46247866D01*
X158458512Y-46243753D01*
X158465598Y-46243611D01*
X158504835Y-46245908D01*
X158543252Y-46255907D01*
X158589230Y-46276348D01*
X158626756Y-46296322D01*
X158666601Y-46321258D01*
X158713981Y-46355359D01*
X158764500Y-46394884D01*
X158813761Y-46436091D01*
X158857370Y-46475240D01*
X158890930Y-46508589D01*
X158910047Y-46532399D01*
X158912820Y-46539786D01*
X158920498Y-46555403D01*
X158939533Y-46581463D01*
X158945384Y-46588581D01*
X158966512Y-46617646D01*
X158977505Y-46640494D01*
X158977948Y-46643727D01*
X158986927Y-46661577D01*
X159009719Y-46688228D01*
X159024519Y-46702551D01*
X159044659Y-46722339D01*
X159062285Y-46744159D01*
X159079216Y-46771761D01*
X159097269Y-46808894D01*
X159118261Y-46859307D01*
X159144010Y-46926751D01*
X159176334Y-47014975D01*
X159177445Y-47018038D01*
X159203611Y-47089009D01*
X159230837Y-47160821D01*
X159255817Y-47224863D01*
X159274436Y-47270622D01*
X159324670Y-47399928D01*
X159363989Y-47523074D01*
X159391703Y-47636781D01*
X159407120Y-47737770D01*
X159409550Y-47822760D01*
X159402007Y-47875744D01*
X159399871Y-47904928D01*
X159402248Y-47949833D01*
X159408446Y-47999487D01*
X159415873Y-48047777D01*
X159421345Y-48087419D01*
X159423699Y-48109977D01*
X159423706Y-48110205D01*
X159606327Y-48110205D01*
X159625082Y-48021282D01*
X159638071Y-47947121D01*
X159636253Y-47909357D01*
X159617280Y-47883230D01*
X159597999Y-47855758D01*
X159590464Y-47814773D01*
X159590077Y-47798827D01*
X159586903Y-47738824D01*
X159578474Y-47665703D01*
X159566233Y-47587999D01*
X159551620Y-47514248D01*
X159536079Y-47452986D01*
X159527138Y-47426359D01*
X159511733Y-47380639D01*
X159495052Y-47321527D01*
X159480527Y-47261252D01*
X159479621Y-47257026D01*
X159459586Y-47166082D01*
X159442602Y-47097662D01*
X159427559Y-47048571D01*
X159413347Y-47015614D01*
X159398859Y-46995598D01*
X159385646Y-46986441D01*
X159358086Y-46960293D01*
X159340982Y-46919470D01*
X159328561Y-46874522D01*
X159316668Y-46832589D01*
X159314960Y-46826708D01*
X159301048Y-46795681D01*
X159276276Y-46754130D01*
X159249618Y-46715990D01*
X159217169Y-46671572D01*
X159177585Y-46615248D01*
X159137850Y-46557005D01*
X159125468Y-46538421D01*
X159089775Y-46487981D01*
X159049653Y-46436872D01*
X159009006Y-46389440D01*
X158971738Y-46350034D01*
X158941754Y-46322998D01*
X158922959Y-46312680D01*
X158922680Y-46312674D01*
X158909692Y-46304531D01*
X158881474Y-46282365D01*
X158842177Y-46249555D01*
X158795956Y-46209485D01*
X158795780Y-46209329D01*
X158678558Y-46105992D01*
X158552213Y-46112291D01*
G04 #@! TO.C,J4*
D13*
X160607333Y-48474380D02*
X160607333Y-49188666D01*
X160654952Y-49331523D01*
X160750190Y-49426761D01*
X160893047Y-49474380D01*
X160988285Y-49474380D01*
X159702571Y-48807714D02*
X159702571Y-49474380D01*
X159940666Y-48426761D02*
X160178761Y-49141047D01*
X159559714Y-49141047D01*
G04 #@! TO.C,J2*
X111839333Y-47712380D02*
X111839333Y-48426666D01*
X111886952Y-48569523D01*
X111982190Y-48664761D01*
X112125047Y-48712380D01*
X112220285Y-48712380D01*
X111410761Y-47807619D02*
X111363142Y-47760000D01*
X111267904Y-47712380D01*
X111029809Y-47712380D01*
X110934571Y-47760000D01*
X110886952Y-47807619D01*
X110839333Y-47902857D01*
X110839333Y-47998095D01*
X110886952Y-48140952D01*
X111458380Y-48712380D01*
X110839333Y-48712380D01*
G04 #@! TO.C,J3*
X111839333Y-70572380D02*
X111839333Y-71286666D01*
X111886952Y-71429523D01*
X111982190Y-71524761D01*
X112125047Y-71572380D01*
X112220285Y-71572380D01*
X111458380Y-70572380D02*
X110839333Y-70572380D01*
X111172666Y-70953333D01*
X111029809Y-70953333D01*
X110934571Y-71000952D01*
X110886952Y-71048571D01*
X110839333Y-71143809D01*
X110839333Y-71381904D01*
X110886952Y-71477142D01*
X110934571Y-71524761D01*
X111029809Y-71572380D01*
X111315523Y-71572380D01*
X111410761Y-71524761D01*
X111458380Y-71477142D01*
G04 #@! TO.C,J5*
X127587333Y-33107380D02*
X127587333Y-33821666D01*
X127634952Y-33964523D01*
X127730190Y-34059761D01*
X127873047Y-34107380D01*
X127968285Y-34107380D01*
X126634952Y-33107380D02*
X127111142Y-33107380D01*
X127158761Y-33583571D01*
X127111142Y-33535952D01*
X127015904Y-33488333D01*
X126777809Y-33488333D01*
X126682571Y-33535952D01*
X126634952Y-33583571D01*
X126587333Y-33678809D01*
X126587333Y-33916904D01*
X126634952Y-34012142D01*
X126682571Y-34059761D01*
X126777809Y-34107380D01*
X127015904Y-34107380D01*
X127111142Y-34059761D01*
X127158761Y-34012142D01*
G04 #@! TO.C,J6*
X152733333Y-32472380D02*
X152733333Y-33186666D01*
X152780952Y-33329523D01*
X152876190Y-33424761D01*
X153019047Y-33472380D01*
X153114285Y-33472380D01*
X151828571Y-32472380D02*
X152019047Y-32472380D01*
X152114285Y-32520000D01*
X152161904Y-32567619D01*
X152257142Y-32710476D01*
X152304761Y-32900952D01*
X152304761Y-33281904D01*
X152257142Y-33377142D01*
X152209523Y-33424761D01*
X152114285Y-33472380D01*
X151923809Y-33472380D01*
X151828571Y-33424761D01*
X151780952Y-33377142D01*
X151733333Y-33281904D01*
X151733333Y-33043809D01*
X151780952Y-32948571D01*
X151828571Y-32900952D01*
X151923809Y-32853333D01*
X152114285Y-32853333D01*
X152209523Y-32900952D01*
X152257142Y-32948571D01*
X152304761Y-33043809D01*
G04 #@! TD*
M02*
