G04 #@! TF.GenerationSoftware,KiCad,Pcbnew,(5.0.2)-1*
G04 #@! TF.CreationDate,2020-03-04T16:34:23-06:00*
G04 #@! TF.ProjectId,TM4C129-Breakout_Hardware,544d3443-3132-4392-9d42-7265616b6f75,rev?*
G04 #@! TF.SameCoordinates,Original*
G04 #@! TF.FileFunction,Paste,Top*
G04 #@! TF.FilePolarity,Positive*
%FSLAX46Y46*%
G04 Gerber Fmt 4.6, Leading zero omitted, Abs format (unit mm)*
G04 Created by KiCad (PCBNEW (5.0.2)-1) date 3/4/2020 4:34:23 PM*
%MOMM*%
%LPD*%
G01*
G04 APERTURE LIST*
%ADD10C,0.100000*%
%ADD11C,0.950000*%
%ADD12R,1.651000X0.762000*%
%ADD13R,1.270000X1.905000*%
%ADD14C,0.230000*%
%ADD15R,1.400000X1.200000*%
%ADD16R,1.600000X1.400000*%
G04 APERTURE END LIST*
D10*
G04 #@! TO.C,R10*
G36*
X177044779Y-129016144D02*
X177067834Y-129019563D01*
X177090443Y-129025227D01*
X177112387Y-129033079D01*
X177133457Y-129043044D01*
X177153448Y-129055026D01*
X177172168Y-129068910D01*
X177189438Y-129084562D01*
X177205090Y-129101832D01*
X177218974Y-129120552D01*
X177230956Y-129140543D01*
X177240921Y-129161613D01*
X177248773Y-129183557D01*
X177254437Y-129206166D01*
X177257856Y-129229221D01*
X177259000Y-129252500D01*
X177259000Y-129827500D01*
X177257856Y-129850779D01*
X177254437Y-129873834D01*
X177248773Y-129896443D01*
X177240921Y-129918387D01*
X177230956Y-129939457D01*
X177218974Y-129959448D01*
X177205090Y-129978168D01*
X177189438Y-129995438D01*
X177172168Y-130011090D01*
X177153448Y-130024974D01*
X177133457Y-130036956D01*
X177112387Y-130046921D01*
X177090443Y-130054773D01*
X177067834Y-130060437D01*
X177044779Y-130063856D01*
X177021500Y-130065000D01*
X176546500Y-130065000D01*
X176523221Y-130063856D01*
X176500166Y-130060437D01*
X176477557Y-130054773D01*
X176455613Y-130046921D01*
X176434543Y-130036956D01*
X176414552Y-130024974D01*
X176395832Y-130011090D01*
X176378562Y-129995438D01*
X176362910Y-129978168D01*
X176349026Y-129959448D01*
X176337044Y-129939457D01*
X176327079Y-129918387D01*
X176319227Y-129896443D01*
X176313563Y-129873834D01*
X176310144Y-129850779D01*
X176309000Y-129827500D01*
X176309000Y-129252500D01*
X176310144Y-129229221D01*
X176313563Y-129206166D01*
X176319227Y-129183557D01*
X176327079Y-129161613D01*
X176337044Y-129140543D01*
X176349026Y-129120552D01*
X176362910Y-129101832D01*
X176378562Y-129084562D01*
X176395832Y-129068910D01*
X176414552Y-129055026D01*
X176434543Y-129043044D01*
X176455613Y-129033079D01*
X176477557Y-129025227D01*
X176500166Y-129019563D01*
X176523221Y-129016144D01*
X176546500Y-129015000D01*
X177021500Y-129015000D01*
X177044779Y-129016144D01*
X177044779Y-129016144D01*
G37*
D11*
X176784000Y-129540000D03*
D10*
G36*
X177044779Y-127266144D02*
X177067834Y-127269563D01*
X177090443Y-127275227D01*
X177112387Y-127283079D01*
X177133457Y-127293044D01*
X177153448Y-127305026D01*
X177172168Y-127318910D01*
X177189438Y-127334562D01*
X177205090Y-127351832D01*
X177218974Y-127370552D01*
X177230956Y-127390543D01*
X177240921Y-127411613D01*
X177248773Y-127433557D01*
X177254437Y-127456166D01*
X177257856Y-127479221D01*
X177259000Y-127502500D01*
X177259000Y-128077500D01*
X177257856Y-128100779D01*
X177254437Y-128123834D01*
X177248773Y-128146443D01*
X177240921Y-128168387D01*
X177230956Y-128189457D01*
X177218974Y-128209448D01*
X177205090Y-128228168D01*
X177189438Y-128245438D01*
X177172168Y-128261090D01*
X177153448Y-128274974D01*
X177133457Y-128286956D01*
X177112387Y-128296921D01*
X177090443Y-128304773D01*
X177067834Y-128310437D01*
X177044779Y-128313856D01*
X177021500Y-128315000D01*
X176546500Y-128315000D01*
X176523221Y-128313856D01*
X176500166Y-128310437D01*
X176477557Y-128304773D01*
X176455613Y-128296921D01*
X176434543Y-128286956D01*
X176414552Y-128274974D01*
X176395832Y-128261090D01*
X176378562Y-128245438D01*
X176362910Y-128228168D01*
X176349026Y-128209448D01*
X176337044Y-128189457D01*
X176327079Y-128168387D01*
X176319227Y-128146443D01*
X176313563Y-128123834D01*
X176310144Y-128100779D01*
X176309000Y-128077500D01*
X176309000Y-127502500D01*
X176310144Y-127479221D01*
X176313563Y-127456166D01*
X176319227Y-127433557D01*
X176327079Y-127411613D01*
X176337044Y-127390543D01*
X176349026Y-127370552D01*
X176362910Y-127351832D01*
X176378562Y-127334562D01*
X176395832Y-127318910D01*
X176414552Y-127305026D01*
X176434543Y-127293044D01*
X176455613Y-127283079D01*
X176477557Y-127275227D01*
X176500166Y-127269563D01*
X176523221Y-127266144D01*
X176546500Y-127265000D01*
X177021500Y-127265000D01*
X177044779Y-127266144D01*
X177044779Y-127266144D01*
G37*
D11*
X176784000Y-127790000D03*
G04 #@! TD*
D10*
G04 #@! TO.C,R9*
G36*
X178822779Y-127238144D02*
X178845834Y-127241563D01*
X178868443Y-127247227D01*
X178890387Y-127255079D01*
X178911457Y-127265044D01*
X178931448Y-127277026D01*
X178950168Y-127290910D01*
X178967438Y-127306562D01*
X178983090Y-127323832D01*
X178996974Y-127342552D01*
X179008956Y-127362543D01*
X179018921Y-127383613D01*
X179026773Y-127405557D01*
X179032437Y-127428166D01*
X179035856Y-127451221D01*
X179037000Y-127474500D01*
X179037000Y-128049500D01*
X179035856Y-128072779D01*
X179032437Y-128095834D01*
X179026773Y-128118443D01*
X179018921Y-128140387D01*
X179008956Y-128161457D01*
X178996974Y-128181448D01*
X178983090Y-128200168D01*
X178967438Y-128217438D01*
X178950168Y-128233090D01*
X178931448Y-128246974D01*
X178911457Y-128258956D01*
X178890387Y-128268921D01*
X178868443Y-128276773D01*
X178845834Y-128282437D01*
X178822779Y-128285856D01*
X178799500Y-128287000D01*
X178324500Y-128287000D01*
X178301221Y-128285856D01*
X178278166Y-128282437D01*
X178255557Y-128276773D01*
X178233613Y-128268921D01*
X178212543Y-128258956D01*
X178192552Y-128246974D01*
X178173832Y-128233090D01*
X178156562Y-128217438D01*
X178140910Y-128200168D01*
X178127026Y-128181448D01*
X178115044Y-128161457D01*
X178105079Y-128140387D01*
X178097227Y-128118443D01*
X178091563Y-128095834D01*
X178088144Y-128072779D01*
X178087000Y-128049500D01*
X178087000Y-127474500D01*
X178088144Y-127451221D01*
X178091563Y-127428166D01*
X178097227Y-127405557D01*
X178105079Y-127383613D01*
X178115044Y-127362543D01*
X178127026Y-127342552D01*
X178140910Y-127323832D01*
X178156562Y-127306562D01*
X178173832Y-127290910D01*
X178192552Y-127277026D01*
X178212543Y-127265044D01*
X178233613Y-127255079D01*
X178255557Y-127247227D01*
X178278166Y-127241563D01*
X178301221Y-127238144D01*
X178324500Y-127237000D01*
X178799500Y-127237000D01*
X178822779Y-127238144D01*
X178822779Y-127238144D01*
G37*
D11*
X178562000Y-127762000D03*
D10*
G36*
X178822779Y-128988144D02*
X178845834Y-128991563D01*
X178868443Y-128997227D01*
X178890387Y-129005079D01*
X178911457Y-129015044D01*
X178931448Y-129027026D01*
X178950168Y-129040910D01*
X178967438Y-129056562D01*
X178983090Y-129073832D01*
X178996974Y-129092552D01*
X179008956Y-129112543D01*
X179018921Y-129133613D01*
X179026773Y-129155557D01*
X179032437Y-129178166D01*
X179035856Y-129201221D01*
X179037000Y-129224500D01*
X179037000Y-129799500D01*
X179035856Y-129822779D01*
X179032437Y-129845834D01*
X179026773Y-129868443D01*
X179018921Y-129890387D01*
X179008956Y-129911457D01*
X178996974Y-129931448D01*
X178983090Y-129950168D01*
X178967438Y-129967438D01*
X178950168Y-129983090D01*
X178931448Y-129996974D01*
X178911457Y-130008956D01*
X178890387Y-130018921D01*
X178868443Y-130026773D01*
X178845834Y-130032437D01*
X178822779Y-130035856D01*
X178799500Y-130037000D01*
X178324500Y-130037000D01*
X178301221Y-130035856D01*
X178278166Y-130032437D01*
X178255557Y-130026773D01*
X178233613Y-130018921D01*
X178212543Y-130008956D01*
X178192552Y-129996974D01*
X178173832Y-129983090D01*
X178156562Y-129967438D01*
X178140910Y-129950168D01*
X178127026Y-129931448D01*
X178115044Y-129911457D01*
X178105079Y-129890387D01*
X178097227Y-129868443D01*
X178091563Y-129845834D01*
X178088144Y-129822779D01*
X178087000Y-129799500D01*
X178087000Y-129224500D01*
X178088144Y-129201221D01*
X178091563Y-129178166D01*
X178097227Y-129155557D01*
X178105079Y-129133613D01*
X178115044Y-129112543D01*
X178127026Y-129092552D01*
X178140910Y-129073832D01*
X178156562Y-129056562D01*
X178173832Y-129040910D01*
X178192552Y-129027026D01*
X178212543Y-129015044D01*
X178233613Y-129005079D01*
X178255557Y-128997227D01*
X178278166Y-128991563D01*
X178301221Y-128988144D01*
X178324500Y-128987000D01*
X178799500Y-128987000D01*
X178822779Y-128988144D01*
X178822779Y-128988144D01*
G37*
D11*
X178562000Y-129512000D03*
G04 #@! TD*
D10*
G04 #@! TO.C,R7*
G36*
X173234779Y-128988144D02*
X173257834Y-128991563D01*
X173280443Y-128997227D01*
X173302387Y-129005079D01*
X173323457Y-129015044D01*
X173343448Y-129027026D01*
X173362168Y-129040910D01*
X173379438Y-129056562D01*
X173395090Y-129073832D01*
X173408974Y-129092552D01*
X173420956Y-129112543D01*
X173430921Y-129133613D01*
X173438773Y-129155557D01*
X173444437Y-129178166D01*
X173447856Y-129201221D01*
X173449000Y-129224500D01*
X173449000Y-129799500D01*
X173447856Y-129822779D01*
X173444437Y-129845834D01*
X173438773Y-129868443D01*
X173430921Y-129890387D01*
X173420956Y-129911457D01*
X173408974Y-129931448D01*
X173395090Y-129950168D01*
X173379438Y-129967438D01*
X173362168Y-129983090D01*
X173343448Y-129996974D01*
X173323457Y-130008956D01*
X173302387Y-130018921D01*
X173280443Y-130026773D01*
X173257834Y-130032437D01*
X173234779Y-130035856D01*
X173211500Y-130037000D01*
X172736500Y-130037000D01*
X172713221Y-130035856D01*
X172690166Y-130032437D01*
X172667557Y-130026773D01*
X172645613Y-130018921D01*
X172624543Y-130008956D01*
X172604552Y-129996974D01*
X172585832Y-129983090D01*
X172568562Y-129967438D01*
X172552910Y-129950168D01*
X172539026Y-129931448D01*
X172527044Y-129911457D01*
X172517079Y-129890387D01*
X172509227Y-129868443D01*
X172503563Y-129845834D01*
X172500144Y-129822779D01*
X172499000Y-129799500D01*
X172499000Y-129224500D01*
X172500144Y-129201221D01*
X172503563Y-129178166D01*
X172509227Y-129155557D01*
X172517079Y-129133613D01*
X172527044Y-129112543D01*
X172539026Y-129092552D01*
X172552910Y-129073832D01*
X172568562Y-129056562D01*
X172585832Y-129040910D01*
X172604552Y-129027026D01*
X172624543Y-129015044D01*
X172645613Y-129005079D01*
X172667557Y-128997227D01*
X172690166Y-128991563D01*
X172713221Y-128988144D01*
X172736500Y-128987000D01*
X173211500Y-128987000D01*
X173234779Y-128988144D01*
X173234779Y-128988144D01*
G37*
D11*
X172974000Y-129512000D03*
D10*
G36*
X173234779Y-127238144D02*
X173257834Y-127241563D01*
X173280443Y-127247227D01*
X173302387Y-127255079D01*
X173323457Y-127265044D01*
X173343448Y-127277026D01*
X173362168Y-127290910D01*
X173379438Y-127306562D01*
X173395090Y-127323832D01*
X173408974Y-127342552D01*
X173420956Y-127362543D01*
X173430921Y-127383613D01*
X173438773Y-127405557D01*
X173444437Y-127428166D01*
X173447856Y-127451221D01*
X173449000Y-127474500D01*
X173449000Y-128049500D01*
X173447856Y-128072779D01*
X173444437Y-128095834D01*
X173438773Y-128118443D01*
X173430921Y-128140387D01*
X173420956Y-128161457D01*
X173408974Y-128181448D01*
X173395090Y-128200168D01*
X173379438Y-128217438D01*
X173362168Y-128233090D01*
X173343448Y-128246974D01*
X173323457Y-128258956D01*
X173302387Y-128268921D01*
X173280443Y-128276773D01*
X173257834Y-128282437D01*
X173234779Y-128285856D01*
X173211500Y-128287000D01*
X172736500Y-128287000D01*
X172713221Y-128285856D01*
X172690166Y-128282437D01*
X172667557Y-128276773D01*
X172645613Y-128268921D01*
X172624543Y-128258956D01*
X172604552Y-128246974D01*
X172585832Y-128233090D01*
X172568562Y-128217438D01*
X172552910Y-128200168D01*
X172539026Y-128181448D01*
X172527044Y-128161457D01*
X172517079Y-128140387D01*
X172509227Y-128118443D01*
X172503563Y-128095834D01*
X172500144Y-128072779D01*
X172499000Y-128049500D01*
X172499000Y-127474500D01*
X172500144Y-127451221D01*
X172503563Y-127428166D01*
X172509227Y-127405557D01*
X172517079Y-127383613D01*
X172527044Y-127362543D01*
X172539026Y-127342552D01*
X172552910Y-127323832D01*
X172568562Y-127306562D01*
X172585832Y-127290910D01*
X172604552Y-127277026D01*
X172624543Y-127265044D01*
X172645613Y-127255079D01*
X172667557Y-127247227D01*
X172690166Y-127241563D01*
X172713221Y-127238144D01*
X172736500Y-127237000D01*
X173211500Y-127237000D01*
X173234779Y-127238144D01*
X173234779Y-127238144D01*
G37*
D11*
X172974000Y-127762000D03*
G04 #@! TD*
D10*
G04 #@! TO.C,R8*
G36*
X175012779Y-127238144D02*
X175035834Y-127241563D01*
X175058443Y-127247227D01*
X175080387Y-127255079D01*
X175101457Y-127265044D01*
X175121448Y-127277026D01*
X175140168Y-127290910D01*
X175157438Y-127306562D01*
X175173090Y-127323832D01*
X175186974Y-127342552D01*
X175198956Y-127362543D01*
X175208921Y-127383613D01*
X175216773Y-127405557D01*
X175222437Y-127428166D01*
X175225856Y-127451221D01*
X175227000Y-127474500D01*
X175227000Y-128049500D01*
X175225856Y-128072779D01*
X175222437Y-128095834D01*
X175216773Y-128118443D01*
X175208921Y-128140387D01*
X175198956Y-128161457D01*
X175186974Y-128181448D01*
X175173090Y-128200168D01*
X175157438Y-128217438D01*
X175140168Y-128233090D01*
X175121448Y-128246974D01*
X175101457Y-128258956D01*
X175080387Y-128268921D01*
X175058443Y-128276773D01*
X175035834Y-128282437D01*
X175012779Y-128285856D01*
X174989500Y-128287000D01*
X174514500Y-128287000D01*
X174491221Y-128285856D01*
X174468166Y-128282437D01*
X174445557Y-128276773D01*
X174423613Y-128268921D01*
X174402543Y-128258956D01*
X174382552Y-128246974D01*
X174363832Y-128233090D01*
X174346562Y-128217438D01*
X174330910Y-128200168D01*
X174317026Y-128181448D01*
X174305044Y-128161457D01*
X174295079Y-128140387D01*
X174287227Y-128118443D01*
X174281563Y-128095834D01*
X174278144Y-128072779D01*
X174277000Y-128049500D01*
X174277000Y-127474500D01*
X174278144Y-127451221D01*
X174281563Y-127428166D01*
X174287227Y-127405557D01*
X174295079Y-127383613D01*
X174305044Y-127362543D01*
X174317026Y-127342552D01*
X174330910Y-127323832D01*
X174346562Y-127306562D01*
X174363832Y-127290910D01*
X174382552Y-127277026D01*
X174402543Y-127265044D01*
X174423613Y-127255079D01*
X174445557Y-127247227D01*
X174468166Y-127241563D01*
X174491221Y-127238144D01*
X174514500Y-127237000D01*
X174989500Y-127237000D01*
X175012779Y-127238144D01*
X175012779Y-127238144D01*
G37*
D11*
X174752000Y-127762000D03*
D10*
G36*
X175012779Y-128988144D02*
X175035834Y-128991563D01*
X175058443Y-128997227D01*
X175080387Y-129005079D01*
X175101457Y-129015044D01*
X175121448Y-129027026D01*
X175140168Y-129040910D01*
X175157438Y-129056562D01*
X175173090Y-129073832D01*
X175186974Y-129092552D01*
X175198956Y-129112543D01*
X175208921Y-129133613D01*
X175216773Y-129155557D01*
X175222437Y-129178166D01*
X175225856Y-129201221D01*
X175227000Y-129224500D01*
X175227000Y-129799500D01*
X175225856Y-129822779D01*
X175222437Y-129845834D01*
X175216773Y-129868443D01*
X175208921Y-129890387D01*
X175198956Y-129911457D01*
X175186974Y-129931448D01*
X175173090Y-129950168D01*
X175157438Y-129967438D01*
X175140168Y-129983090D01*
X175121448Y-129996974D01*
X175101457Y-130008956D01*
X175080387Y-130018921D01*
X175058443Y-130026773D01*
X175035834Y-130032437D01*
X175012779Y-130035856D01*
X174989500Y-130037000D01*
X174514500Y-130037000D01*
X174491221Y-130035856D01*
X174468166Y-130032437D01*
X174445557Y-130026773D01*
X174423613Y-130018921D01*
X174402543Y-130008956D01*
X174382552Y-129996974D01*
X174363832Y-129983090D01*
X174346562Y-129967438D01*
X174330910Y-129950168D01*
X174317026Y-129931448D01*
X174305044Y-129911457D01*
X174295079Y-129890387D01*
X174287227Y-129868443D01*
X174281563Y-129845834D01*
X174278144Y-129822779D01*
X174277000Y-129799500D01*
X174277000Y-129224500D01*
X174278144Y-129201221D01*
X174281563Y-129178166D01*
X174287227Y-129155557D01*
X174295079Y-129133613D01*
X174305044Y-129112543D01*
X174317026Y-129092552D01*
X174330910Y-129073832D01*
X174346562Y-129056562D01*
X174363832Y-129040910D01*
X174382552Y-129027026D01*
X174402543Y-129015044D01*
X174423613Y-129005079D01*
X174445557Y-128997227D01*
X174468166Y-128991563D01*
X174491221Y-128988144D01*
X174514500Y-128987000D01*
X174989500Y-128987000D01*
X175012779Y-128988144D01*
X175012779Y-128988144D01*
G37*
D11*
X174752000Y-129512000D03*
G04 #@! TD*
D10*
G04 #@! TO.C,R16*
G36*
X151898779Y-129016144D02*
X151921834Y-129019563D01*
X151944443Y-129025227D01*
X151966387Y-129033079D01*
X151987457Y-129043044D01*
X152007448Y-129055026D01*
X152026168Y-129068910D01*
X152043438Y-129084562D01*
X152059090Y-129101832D01*
X152072974Y-129120552D01*
X152084956Y-129140543D01*
X152094921Y-129161613D01*
X152102773Y-129183557D01*
X152108437Y-129206166D01*
X152111856Y-129229221D01*
X152113000Y-129252500D01*
X152113000Y-129827500D01*
X152111856Y-129850779D01*
X152108437Y-129873834D01*
X152102773Y-129896443D01*
X152094921Y-129918387D01*
X152084956Y-129939457D01*
X152072974Y-129959448D01*
X152059090Y-129978168D01*
X152043438Y-129995438D01*
X152026168Y-130011090D01*
X152007448Y-130024974D01*
X151987457Y-130036956D01*
X151966387Y-130046921D01*
X151944443Y-130054773D01*
X151921834Y-130060437D01*
X151898779Y-130063856D01*
X151875500Y-130065000D01*
X151400500Y-130065000D01*
X151377221Y-130063856D01*
X151354166Y-130060437D01*
X151331557Y-130054773D01*
X151309613Y-130046921D01*
X151288543Y-130036956D01*
X151268552Y-130024974D01*
X151249832Y-130011090D01*
X151232562Y-129995438D01*
X151216910Y-129978168D01*
X151203026Y-129959448D01*
X151191044Y-129939457D01*
X151181079Y-129918387D01*
X151173227Y-129896443D01*
X151167563Y-129873834D01*
X151164144Y-129850779D01*
X151163000Y-129827500D01*
X151163000Y-129252500D01*
X151164144Y-129229221D01*
X151167563Y-129206166D01*
X151173227Y-129183557D01*
X151181079Y-129161613D01*
X151191044Y-129140543D01*
X151203026Y-129120552D01*
X151216910Y-129101832D01*
X151232562Y-129084562D01*
X151249832Y-129068910D01*
X151268552Y-129055026D01*
X151288543Y-129043044D01*
X151309613Y-129033079D01*
X151331557Y-129025227D01*
X151354166Y-129019563D01*
X151377221Y-129016144D01*
X151400500Y-129015000D01*
X151875500Y-129015000D01*
X151898779Y-129016144D01*
X151898779Y-129016144D01*
G37*
D11*
X151638000Y-129540000D03*
D10*
G36*
X151898779Y-127266144D02*
X151921834Y-127269563D01*
X151944443Y-127275227D01*
X151966387Y-127283079D01*
X151987457Y-127293044D01*
X152007448Y-127305026D01*
X152026168Y-127318910D01*
X152043438Y-127334562D01*
X152059090Y-127351832D01*
X152072974Y-127370552D01*
X152084956Y-127390543D01*
X152094921Y-127411613D01*
X152102773Y-127433557D01*
X152108437Y-127456166D01*
X152111856Y-127479221D01*
X152113000Y-127502500D01*
X152113000Y-128077500D01*
X152111856Y-128100779D01*
X152108437Y-128123834D01*
X152102773Y-128146443D01*
X152094921Y-128168387D01*
X152084956Y-128189457D01*
X152072974Y-128209448D01*
X152059090Y-128228168D01*
X152043438Y-128245438D01*
X152026168Y-128261090D01*
X152007448Y-128274974D01*
X151987457Y-128286956D01*
X151966387Y-128296921D01*
X151944443Y-128304773D01*
X151921834Y-128310437D01*
X151898779Y-128313856D01*
X151875500Y-128315000D01*
X151400500Y-128315000D01*
X151377221Y-128313856D01*
X151354166Y-128310437D01*
X151331557Y-128304773D01*
X151309613Y-128296921D01*
X151288543Y-128286956D01*
X151268552Y-128274974D01*
X151249832Y-128261090D01*
X151232562Y-128245438D01*
X151216910Y-128228168D01*
X151203026Y-128209448D01*
X151191044Y-128189457D01*
X151181079Y-128168387D01*
X151173227Y-128146443D01*
X151167563Y-128123834D01*
X151164144Y-128100779D01*
X151163000Y-128077500D01*
X151163000Y-127502500D01*
X151164144Y-127479221D01*
X151167563Y-127456166D01*
X151173227Y-127433557D01*
X151181079Y-127411613D01*
X151191044Y-127390543D01*
X151203026Y-127370552D01*
X151216910Y-127351832D01*
X151232562Y-127334562D01*
X151249832Y-127318910D01*
X151268552Y-127305026D01*
X151288543Y-127293044D01*
X151309613Y-127283079D01*
X151331557Y-127275227D01*
X151354166Y-127269563D01*
X151377221Y-127266144D01*
X151400500Y-127265000D01*
X151875500Y-127265000D01*
X151898779Y-127266144D01*
X151898779Y-127266144D01*
G37*
D11*
X151638000Y-127790000D03*
G04 #@! TD*
D12*
G04 #@! TO.C,U1*
X162687000Y-116205000D03*
X162687000Y-117475000D03*
X162687000Y-118745000D03*
X162687000Y-120015000D03*
X162687000Y-121285000D03*
X162687000Y-122555000D03*
X162687000Y-123825000D03*
X162687000Y-125095000D03*
X171196000Y-125095000D03*
X171196000Y-123825000D03*
X171196000Y-122555000D03*
X171196000Y-121285000D03*
X171196000Y-120015000D03*
X171196000Y-118745000D03*
X171196000Y-117475000D03*
X171196000Y-116205000D03*
G04 #@! TD*
D10*
G04 #@! TO.C,R15*
G36*
X164366779Y-103412144D02*
X164389834Y-103415563D01*
X164412443Y-103421227D01*
X164434387Y-103429079D01*
X164455457Y-103439044D01*
X164475448Y-103451026D01*
X164494168Y-103464910D01*
X164511438Y-103480562D01*
X164527090Y-103497832D01*
X164540974Y-103516552D01*
X164552956Y-103536543D01*
X164562921Y-103557613D01*
X164570773Y-103579557D01*
X164576437Y-103602166D01*
X164579856Y-103625221D01*
X164581000Y-103648500D01*
X164581000Y-104123500D01*
X164579856Y-104146779D01*
X164576437Y-104169834D01*
X164570773Y-104192443D01*
X164562921Y-104214387D01*
X164552956Y-104235457D01*
X164540974Y-104255448D01*
X164527090Y-104274168D01*
X164511438Y-104291438D01*
X164494168Y-104307090D01*
X164475448Y-104320974D01*
X164455457Y-104332956D01*
X164434387Y-104342921D01*
X164412443Y-104350773D01*
X164389834Y-104356437D01*
X164366779Y-104359856D01*
X164343500Y-104361000D01*
X163768500Y-104361000D01*
X163745221Y-104359856D01*
X163722166Y-104356437D01*
X163699557Y-104350773D01*
X163677613Y-104342921D01*
X163656543Y-104332956D01*
X163636552Y-104320974D01*
X163617832Y-104307090D01*
X163600562Y-104291438D01*
X163584910Y-104274168D01*
X163571026Y-104255448D01*
X163559044Y-104235457D01*
X163549079Y-104214387D01*
X163541227Y-104192443D01*
X163535563Y-104169834D01*
X163532144Y-104146779D01*
X163531000Y-104123500D01*
X163531000Y-103648500D01*
X163532144Y-103625221D01*
X163535563Y-103602166D01*
X163541227Y-103579557D01*
X163549079Y-103557613D01*
X163559044Y-103536543D01*
X163571026Y-103516552D01*
X163584910Y-103497832D01*
X163600562Y-103480562D01*
X163617832Y-103464910D01*
X163636552Y-103451026D01*
X163656543Y-103439044D01*
X163677613Y-103429079D01*
X163699557Y-103421227D01*
X163722166Y-103415563D01*
X163745221Y-103412144D01*
X163768500Y-103411000D01*
X164343500Y-103411000D01*
X164366779Y-103412144D01*
X164366779Y-103412144D01*
G37*
D11*
X164056000Y-103886000D03*
D10*
G36*
X162616779Y-103412144D02*
X162639834Y-103415563D01*
X162662443Y-103421227D01*
X162684387Y-103429079D01*
X162705457Y-103439044D01*
X162725448Y-103451026D01*
X162744168Y-103464910D01*
X162761438Y-103480562D01*
X162777090Y-103497832D01*
X162790974Y-103516552D01*
X162802956Y-103536543D01*
X162812921Y-103557613D01*
X162820773Y-103579557D01*
X162826437Y-103602166D01*
X162829856Y-103625221D01*
X162831000Y-103648500D01*
X162831000Y-104123500D01*
X162829856Y-104146779D01*
X162826437Y-104169834D01*
X162820773Y-104192443D01*
X162812921Y-104214387D01*
X162802956Y-104235457D01*
X162790974Y-104255448D01*
X162777090Y-104274168D01*
X162761438Y-104291438D01*
X162744168Y-104307090D01*
X162725448Y-104320974D01*
X162705457Y-104332956D01*
X162684387Y-104342921D01*
X162662443Y-104350773D01*
X162639834Y-104356437D01*
X162616779Y-104359856D01*
X162593500Y-104361000D01*
X162018500Y-104361000D01*
X161995221Y-104359856D01*
X161972166Y-104356437D01*
X161949557Y-104350773D01*
X161927613Y-104342921D01*
X161906543Y-104332956D01*
X161886552Y-104320974D01*
X161867832Y-104307090D01*
X161850562Y-104291438D01*
X161834910Y-104274168D01*
X161821026Y-104255448D01*
X161809044Y-104235457D01*
X161799079Y-104214387D01*
X161791227Y-104192443D01*
X161785563Y-104169834D01*
X161782144Y-104146779D01*
X161781000Y-104123500D01*
X161781000Y-103648500D01*
X161782144Y-103625221D01*
X161785563Y-103602166D01*
X161791227Y-103579557D01*
X161799079Y-103557613D01*
X161809044Y-103536543D01*
X161821026Y-103516552D01*
X161834910Y-103497832D01*
X161850562Y-103480562D01*
X161867832Y-103464910D01*
X161886552Y-103451026D01*
X161906543Y-103439044D01*
X161927613Y-103429079D01*
X161949557Y-103421227D01*
X161972166Y-103415563D01*
X161995221Y-103412144D01*
X162018500Y-103411000D01*
X162593500Y-103411000D01*
X162616779Y-103412144D01*
X162616779Y-103412144D01*
G37*
D11*
X162306000Y-103886000D03*
G04 #@! TD*
D10*
G04 #@! TO.C,C13*
G36*
X164366779Y-101634144D02*
X164389834Y-101637563D01*
X164412443Y-101643227D01*
X164434387Y-101651079D01*
X164455457Y-101661044D01*
X164475448Y-101673026D01*
X164494168Y-101686910D01*
X164511438Y-101702562D01*
X164527090Y-101719832D01*
X164540974Y-101738552D01*
X164552956Y-101758543D01*
X164562921Y-101779613D01*
X164570773Y-101801557D01*
X164576437Y-101824166D01*
X164579856Y-101847221D01*
X164581000Y-101870500D01*
X164581000Y-102345500D01*
X164579856Y-102368779D01*
X164576437Y-102391834D01*
X164570773Y-102414443D01*
X164562921Y-102436387D01*
X164552956Y-102457457D01*
X164540974Y-102477448D01*
X164527090Y-102496168D01*
X164511438Y-102513438D01*
X164494168Y-102529090D01*
X164475448Y-102542974D01*
X164455457Y-102554956D01*
X164434387Y-102564921D01*
X164412443Y-102572773D01*
X164389834Y-102578437D01*
X164366779Y-102581856D01*
X164343500Y-102583000D01*
X163768500Y-102583000D01*
X163745221Y-102581856D01*
X163722166Y-102578437D01*
X163699557Y-102572773D01*
X163677613Y-102564921D01*
X163656543Y-102554956D01*
X163636552Y-102542974D01*
X163617832Y-102529090D01*
X163600562Y-102513438D01*
X163584910Y-102496168D01*
X163571026Y-102477448D01*
X163559044Y-102457457D01*
X163549079Y-102436387D01*
X163541227Y-102414443D01*
X163535563Y-102391834D01*
X163532144Y-102368779D01*
X163531000Y-102345500D01*
X163531000Y-101870500D01*
X163532144Y-101847221D01*
X163535563Y-101824166D01*
X163541227Y-101801557D01*
X163549079Y-101779613D01*
X163559044Y-101758543D01*
X163571026Y-101738552D01*
X163584910Y-101719832D01*
X163600562Y-101702562D01*
X163617832Y-101686910D01*
X163636552Y-101673026D01*
X163656543Y-101661044D01*
X163677613Y-101651079D01*
X163699557Y-101643227D01*
X163722166Y-101637563D01*
X163745221Y-101634144D01*
X163768500Y-101633000D01*
X164343500Y-101633000D01*
X164366779Y-101634144D01*
X164366779Y-101634144D01*
G37*
D11*
X164056000Y-102108000D03*
D10*
G36*
X162616779Y-101634144D02*
X162639834Y-101637563D01*
X162662443Y-101643227D01*
X162684387Y-101651079D01*
X162705457Y-101661044D01*
X162725448Y-101673026D01*
X162744168Y-101686910D01*
X162761438Y-101702562D01*
X162777090Y-101719832D01*
X162790974Y-101738552D01*
X162802956Y-101758543D01*
X162812921Y-101779613D01*
X162820773Y-101801557D01*
X162826437Y-101824166D01*
X162829856Y-101847221D01*
X162831000Y-101870500D01*
X162831000Y-102345500D01*
X162829856Y-102368779D01*
X162826437Y-102391834D01*
X162820773Y-102414443D01*
X162812921Y-102436387D01*
X162802956Y-102457457D01*
X162790974Y-102477448D01*
X162777090Y-102496168D01*
X162761438Y-102513438D01*
X162744168Y-102529090D01*
X162725448Y-102542974D01*
X162705457Y-102554956D01*
X162684387Y-102564921D01*
X162662443Y-102572773D01*
X162639834Y-102578437D01*
X162616779Y-102581856D01*
X162593500Y-102583000D01*
X162018500Y-102583000D01*
X161995221Y-102581856D01*
X161972166Y-102578437D01*
X161949557Y-102572773D01*
X161927613Y-102564921D01*
X161906543Y-102554956D01*
X161886552Y-102542974D01*
X161867832Y-102529090D01*
X161850562Y-102513438D01*
X161834910Y-102496168D01*
X161821026Y-102477448D01*
X161809044Y-102457457D01*
X161799079Y-102436387D01*
X161791227Y-102414443D01*
X161785563Y-102391834D01*
X161782144Y-102368779D01*
X161781000Y-102345500D01*
X161781000Y-101870500D01*
X161782144Y-101847221D01*
X161785563Y-101824166D01*
X161791227Y-101801557D01*
X161799079Y-101779613D01*
X161809044Y-101758543D01*
X161821026Y-101738552D01*
X161834910Y-101719832D01*
X161850562Y-101702562D01*
X161867832Y-101686910D01*
X161886552Y-101673026D01*
X161906543Y-101661044D01*
X161927613Y-101651079D01*
X161949557Y-101643227D01*
X161972166Y-101637563D01*
X161995221Y-101634144D01*
X162018500Y-101633000D01*
X162593500Y-101633000D01*
X162616779Y-101634144D01*
X162616779Y-101634144D01*
G37*
D11*
X162306000Y-102108000D03*
G04 #@! TD*
D13*
G04 #@! TO.C,Y2*
X165354000Y-106680000D03*
X170942000Y-106680000D03*
X165354000Y-109855000D03*
X170942000Y-109855000D03*
G04 #@! TD*
D10*
G04 #@! TO.C,R1*
G36*
X160788779Y-115554144D02*
X160811834Y-115557563D01*
X160834443Y-115563227D01*
X160856387Y-115571079D01*
X160877457Y-115581044D01*
X160897448Y-115593026D01*
X160916168Y-115606910D01*
X160933438Y-115622562D01*
X160949090Y-115639832D01*
X160962974Y-115658552D01*
X160974956Y-115678543D01*
X160984921Y-115699613D01*
X160992773Y-115721557D01*
X160998437Y-115744166D01*
X161001856Y-115767221D01*
X161003000Y-115790500D01*
X161003000Y-116365500D01*
X161001856Y-116388779D01*
X160998437Y-116411834D01*
X160992773Y-116434443D01*
X160984921Y-116456387D01*
X160974956Y-116477457D01*
X160962974Y-116497448D01*
X160949090Y-116516168D01*
X160933438Y-116533438D01*
X160916168Y-116549090D01*
X160897448Y-116562974D01*
X160877457Y-116574956D01*
X160856387Y-116584921D01*
X160834443Y-116592773D01*
X160811834Y-116598437D01*
X160788779Y-116601856D01*
X160765500Y-116603000D01*
X160290500Y-116603000D01*
X160267221Y-116601856D01*
X160244166Y-116598437D01*
X160221557Y-116592773D01*
X160199613Y-116584921D01*
X160178543Y-116574956D01*
X160158552Y-116562974D01*
X160139832Y-116549090D01*
X160122562Y-116533438D01*
X160106910Y-116516168D01*
X160093026Y-116497448D01*
X160081044Y-116477457D01*
X160071079Y-116456387D01*
X160063227Y-116434443D01*
X160057563Y-116411834D01*
X160054144Y-116388779D01*
X160053000Y-116365500D01*
X160053000Y-115790500D01*
X160054144Y-115767221D01*
X160057563Y-115744166D01*
X160063227Y-115721557D01*
X160071079Y-115699613D01*
X160081044Y-115678543D01*
X160093026Y-115658552D01*
X160106910Y-115639832D01*
X160122562Y-115622562D01*
X160139832Y-115606910D01*
X160158552Y-115593026D01*
X160178543Y-115581044D01*
X160199613Y-115571079D01*
X160221557Y-115563227D01*
X160244166Y-115557563D01*
X160267221Y-115554144D01*
X160290500Y-115553000D01*
X160765500Y-115553000D01*
X160788779Y-115554144D01*
X160788779Y-115554144D01*
G37*
D11*
X160528000Y-116078000D03*
D10*
G36*
X160788779Y-113804144D02*
X160811834Y-113807563D01*
X160834443Y-113813227D01*
X160856387Y-113821079D01*
X160877457Y-113831044D01*
X160897448Y-113843026D01*
X160916168Y-113856910D01*
X160933438Y-113872562D01*
X160949090Y-113889832D01*
X160962974Y-113908552D01*
X160974956Y-113928543D01*
X160984921Y-113949613D01*
X160992773Y-113971557D01*
X160998437Y-113994166D01*
X161001856Y-114017221D01*
X161003000Y-114040500D01*
X161003000Y-114615500D01*
X161001856Y-114638779D01*
X160998437Y-114661834D01*
X160992773Y-114684443D01*
X160984921Y-114706387D01*
X160974956Y-114727457D01*
X160962974Y-114747448D01*
X160949090Y-114766168D01*
X160933438Y-114783438D01*
X160916168Y-114799090D01*
X160897448Y-114812974D01*
X160877457Y-114824956D01*
X160856387Y-114834921D01*
X160834443Y-114842773D01*
X160811834Y-114848437D01*
X160788779Y-114851856D01*
X160765500Y-114853000D01*
X160290500Y-114853000D01*
X160267221Y-114851856D01*
X160244166Y-114848437D01*
X160221557Y-114842773D01*
X160199613Y-114834921D01*
X160178543Y-114824956D01*
X160158552Y-114812974D01*
X160139832Y-114799090D01*
X160122562Y-114783438D01*
X160106910Y-114766168D01*
X160093026Y-114747448D01*
X160081044Y-114727457D01*
X160071079Y-114706387D01*
X160063227Y-114684443D01*
X160057563Y-114661834D01*
X160054144Y-114638779D01*
X160053000Y-114615500D01*
X160053000Y-114040500D01*
X160054144Y-114017221D01*
X160057563Y-113994166D01*
X160063227Y-113971557D01*
X160071079Y-113949613D01*
X160081044Y-113928543D01*
X160093026Y-113908552D01*
X160106910Y-113889832D01*
X160122562Y-113872562D01*
X160139832Y-113856910D01*
X160158552Y-113843026D01*
X160178543Y-113831044D01*
X160199613Y-113821079D01*
X160221557Y-113813227D01*
X160244166Y-113807563D01*
X160267221Y-113804144D01*
X160290500Y-113803000D01*
X160765500Y-113803000D01*
X160788779Y-113804144D01*
X160788779Y-113804144D01*
G37*
D11*
X160528000Y-114328000D03*
G04 #@! TD*
D10*
G04 #@! TO.C,R2*
G36*
X160788779Y-120098144D02*
X160811834Y-120101563D01*
X160834443Y-120107227D01*
X160856387Y-120115079D01*
X160877457Y-120125044D01*
X160897448Y-120137026D01*
X160916168Y-120150910D01*
X160933438Y-120166562D01*
X160949090Y-120183832D01*
X160962974Y-120202552D01*
X160974956Y-120222543D01*
X160984921Y-120243613D01*
X160992773Y-120265557D01*
X160998437Y-120288166D01*
X161001856Y-120311221D01*
X161003000Y-120334500D01*
X161003000Y-120909500D01*
X161001856Y-120932779D01*
X160998437Y-120955834D01*
X160992773Y-120978443D01*
X160984921Y-121000387D01*
X160974956Y-121021457D01*
X160962974Y-121041448D01*
X160949090Y-121060168D01*
X160933438Y-121077438D01*
X160916168Y-121093090D01*
X160897448Y-121106974D01*
X160877457Y-121118956D01*
X160856387Y-121128921D01*
X160834443Y-121136773D01*
X160811834Y-121142437D01*
X160788779Y-121145856D01*
X160765500Y-121147000D01*
X160290500Y-121147000D01*
X160267221Y-121145856D01*
X160244166Y-121142437D01*
X160221557Y-121136773D01*
X160199613Y-121128921D01*
X160178543Y-121118956D01*
X160158552Y-121106974D01*
X160139832Y-121093090D01*
X160122562Y-121077438D01*
X160106910Y-121060168D01*
X160093026Y-121041448D01*
X160081044Y-121021457D01*
X160071079Y-121000387D01*
X160063227Y-120978443D01*
X160057563Y-120955834D01*
X160054144Y-120932779D01*
X160053000Y-120909500D01*
X160053000Y-120334500D01*
X160054144Y-120311221D01*
X160057563Y-120288166D01*
X160063227Y-120265557D01*
X160071079Y-120243613D01*
X160081044Y-120222543D01*
X160093026Y-120202552D01*
X160106910Y-120183832D01*
X160122562Y-120166562D01*
X160139832Y-120150910D01*
X160158552Y-120137026D01*
X160178543Y-120125044D01*
X160199613Y-120115079D01*
X160221557Y-120107227D01*
X160244166Y-120101563D01*
X160267221Y-120098144D01*
X160290500Y-120097000D01*
X160765500Y-120097000D01*
X160788779Y-120098144D01*
X160788779Y-120098144D01*
G37*
D11*
X160528000Y-120622000D03*
D10*
G36*
X160788779Y-118348144D02*
X160811834Y-118351563D01*
X160834443Y-118357227D01*
X160856387Y-118365079D01*
X160877457Y-118375044D01*
X160897448Y-118387026D01*
X160916168Y-118400910D01*
X160933438Y-118416562D01*
X160949090Y-118433832D01*
X160962974Y-118452552D01*
X160974956Y-118472543D01*
X160984921Y-118493613D01*
X160992773Y-118515557D01*
X160998437Y-118538166D01*
X161001856Y-118561221D01*
X161003000Y-118584500D01*
X161003000Y-119159500D01*
X161001856Y-119182779D01*
X160998437Y-119205834D01*
X160992773Y-119228443D01*
X160984921Y-119250387D01*
X160974956Y-119271457D01*
X160962974Y-119291448D01*
X160949090Y-119310168D01*
X160933438Y-119327438D01*
X160916168Y-119343090D01*
X160897448Y-119356974D01*
X160877457Y-119368956D01*
X160856387Y-119378921D01*
X160834443Y-119386773D01*
X160811834Y-119392437D01*
X160788779Y-119395856D01*
X160765500Y-119397000D01*
X160290500Y-119397000D01*
X160267221Y-119395856D01*
X160244166Y-119392437D01*
X160221557Y-119386773D01*
X160199613Y-119378921D01*
X160178543Y-119368956D01*
X160158552Y-119356974D01*
X160139832Y-119343090D01*
X160122562Y-119327438D01*
X160106910Y-119310168D01*
X160093026Y-119291448D01*
X160081044Y-119271457D01*
X160071079Y-119250387D01*
X160063227Y-119228443D01*
X160057563Y-119205834D01*
X160054144Y-119182779D01*
X160053000Y-119159500D01*
X160053000Y-118584500D01*
X160054144Y-118561221D01*
X160057563Y-118538166D01*
X160063227Y-118515557D01*
X160071079Y-118493613D01*
X160081044Y-118472543D01*
X160093026Y-118452552D01*
X160106910Y-118433832D01*
X160122562Y-118416562D01*
X160139832Y-118400910D01*
X160158552Y-118387026D01*
X160178543Y-118375044D01*
X160199613Y-118365079D01*
X160221557Y-118357227D01*
X160244166Y-118351563D01*
X160267221Y-118348144D01*
X160290500Y-118347000D01*
X160765500Y-118347000D01*
X160788779Y-118348144D01*
X160788779Y-118348144D01*
G37*
D11*
X160528000Y-118872000D03*
G04 #@! TD*
D10*
G04 #@! TO.C,C2*
G36*
X156216779Y-122892144D02*
X156239834Y-122895563D01*
X156262443Y-122901227D01*
X156284387Y-122909079D01*
X156305457Y-122919044D01*
X156325448Y-122931026D01*
X156344168Y-122944910D01*
X156361438Y-122960562D01*
X156377090Y-122977832D01*
X156390974Y-122996552D01*
X156402956Y-123016543D01*
X156412921Y-123037613D01*
X156420773Y-123059557D01*
X156426437Y-123082166D01*
X156429856Y-123105221D01*
X156431000Y-123128500D01*
X156431000Y-123703500D01*
X156429856Y-123726779D01*
X156426437Y-123749834D01*
X156420773Y-123772443D01*
X156412921Y-123794387D01*
X156402956Y-123815457D01*
X156390974Y-123835448D01*
X156377090Y-123854168D01*
X156361438Y-123871438D01*
X156344168Y-123887090D01*
X156325448Y-123900974D01*
X156305457Y-123912956D01*
X156284387Y-123922921D01*
X156262443Y-123930773D01*
X156239834Y-123936437D01*
X156216779Y-123939856D01*
X156193500Y-123941000D01*
X155718500Y-123941000D01*
X155695221Y-123939856D01*
X155672166Y-123936437D01*
X155649557Y-123930773D01*
X155627613Y-123922921D01*
X155606543Y-123912956D01*
X155586552Y-123900974D01*
X155567832Y-123887090D01*
X155550562Y-123871438D01*
X155534910Y-123854168D01*
X155521026Y-123835448D01*
X155509044Y-123815457D01*
X155499079Y-123794387D01*
X155491227Y-123772443D01*
X155485563Y-123749834D01*
X155482144Y-123726779D01*
X155481000Y-123703500D01*
X155481000Y-123128500D01*
X155482144Y-123105221D01*
X155485563Y-123082166D01*
X155491227Y-123059557D01*
X155499079Y-123037613D01*
X155509044Y-123016543D01*
X155521026Y-122996552D01*
X155534910Y-122977832D01*
X155550562Y-122960562D01*
X155567832Y-122944910D01*
X155586552Y-122931026D01*
X155606543Y-122919044D01*
X155627613Y-122909079D01*
X155649557Y-122901227D01*
X155672166Y-122895563D01*
X155695221Y-122892144D01*
X155718500Y-122891000D01*
X156193500Y-122891000D01*
X156216779Y-122892144D01*
X156216779Y-122892144D01*
G37*
D11*
X155956000Y-123416000D03*
D10*
G36*
X156216779Y-121142144D02*
X156239834Y-121145563D01*
X156262443Y-121151227D01*
X156284387Y-121159079D01*
X156305457Y-121169044D01*
X156325448Y-121181026D01*
X156344168Y-121194910D01*
X156361438Y-121210562D01*
X156377090Y-121227832D01*
X156390974Y-121246552D01*
X156402956Y-121266543D01*
X156412921Y-121287613D01*
X156420773Y-121309557D01*
X156426437Y-121332166D01*
X156429856Y-121355221D01*
X156431000Y-121378500D01*
X156431000Y-121953500D01*
X156429856Y-121976779D01*
X156426437Y-121999834D01*
X156420773Y-122022443D01*
X156412921Y-122044387D01*
X156402956Y-122065457D01*
X156390974Y-122085448D01*
X156377090Y-122104168D01*
X156361438Y-122121438D01*
X156344168Y-122137090D01*
X156325448Y-122150974D01*
X156305457Y-122162956D01*
X156284387Y-122172921D01*
X156262443Y-122180773D01*
X156239834Y-122186437D01*
X156216779Y-122189856D01*
X156193500Y-122191000D01*
X155718500Y-122191000D01*
X155695221Y-122189856D01*
X155672166Y-122186437D01*
X155649557Y-122180773D01*
X155627613Y-122172921D01*
X155606543Y-122162956D01*
X155586552Y-122150974D01*
X155567832Y-122137090D01*
X155550562Y-122121438D01*
X155534910Y-122104168D01*
X155521026Y-122085448D01*
X155509044Y-122065457D01*
X155499079Y-122044387D01*
X155491227Y-122022443D01*
X155485563Y-121999834D01*
X155482144Y-121976779D01*
X155481000Y-121953500D01*
X155481000Y-121378500D01*
X155482144Y-121355221D01*
X155485563Y-121332166D01*
X155491227Y-121309557D01*
X155499079Y-121287613D01*
X155509044Y-121266543D01*
X155521026Y-121246552D01*
X155534910Y-121227832D01*
X155550562Y-121210562D01*
X155567832Y-121194910D01*
X155586552Y-121181026D01*
X155606543Y-121169044D01*
X155627613Y-121159079D01*
X155649557Y-121151227D01*
X155672166Y-121145563D01*
X155695221Y-121142144D01*
X155718500Y-121141000D01*
X156193500Y-121141000D01*
X156216779Y-121142144D01*
X156216779Y-121142144D01*
G37*
D11*
X155956000Y-121666000D03*
G04 #@! TD*
D10*
G04 #@! TO.C,C1*
G36*
X155024779Y-125510144D02*
X155047834Y-125513563D01*
X155070443Y-125519227D01*
X155092387Y-125527079D01*
X155113457Y-125537044D01*
X155133448Y-125549026D01*
X155152168Y-125562910D01*
X155169438Y-125578562D01*
X155185090Y-125595832D01*
X155198974Y-125614552D01*
X155210956Y-125634543D01*
X155220921Y-125655613D01*
X155228773Y-125677557D01*
X155234437Y-125700166D01*
X155237856Y-125723221D01*
X155239000Y-125746500D01*
X155239000Y-126221500D01*
X155237856Y-126244779D01*
X155234437Y-126267834D01*
X155228773Y-126290443D01*
X155220921Y-126312387D01*
X155210956Y-126333457D01*
X155198974Y-126353448D01*
X155185090Y-126372168D01*
X155169438Y-126389438D01*
X155152168Y-126405090D01*
X155133448Y-126418974D01*
X155113457Y-126430956D01*
X155092387Y-126440921D01*
X155070443Y-126448773D01*
X155047834Y-126454437D01*
X155024779Y-126457856D01*
X155001500Y-126459000D01*
X154426500Y-126459000D01*
X154403221Y-126457856D01*
X154380166Y-126454437D01*
X154357557Y-126448773D01*
X154335613Y-126440921D01*
X154314543Y-126430956D01*
X154294552Y-126418974D01*
X154275832Y-126405090D01*
X154258562Y-126389438D01*
X154242910Y-126372168D01*
X154229026Y-126353448D01*
X154217044Y-126333457D01*
X154207079Y-126312387D01*
X154199227Y-126290443D01*
X154193563Y-126267834D01*
X154190144Y-126244779D01*
X154189000Y-126221500D01*
X154189000Y-125746500D01*
X154190144Y-125723221D01*
X154193563Y-125700166D01*
X154199227Y-125677557D01*
X154207079Y-125655613D01*
X154217044Y-125634543D01*
X154229026Y-125614552D01*
X154242910Y-125595832D01*
X154258562Y-125578562D01*
X154275832Y-125562910D01*
X154294552Y-125549026D01*
X154314543Y-125537044D01*
X154335613Y-125527079D01*
X154357557Y-125519227D01*
X154380166Y-125513563D01*
X154403221Y-125510144D01*
X154426500Y-125509000D01*
X155001500Y-125509000D01*
X155024779Y-125510144D01*
X155024779Y-125510144D01*
G37*
D11*
X154714000Y-125984000D03*
D10*
G36*
X156774779Y-125510144D02*
X156797834Y-125513563D01*
X156820443Y-125519227D01*
X156842387Y-125527079D01*
X156863457Y-125537044D01*
X156883448Y-125549026D01*
X156902168Y-125562910D01*
X156919438Y-125578562D01*
X156935090Y-125595832D01*
X156948974Y-125614552D01*
X156960956Y-125634543D01*
X156970921Y-125655613D01*
X156978773Y-125677557D01*
X156984437Y-125700166D01*
X156987856Y-125723221D01*
X156989000Y-125746500D01*
X156989000Y-126221500D01*
X156987856Y-126244779D01*
X156984437Y-126267834D01*
X156978773Y-126290443D01*
X156970921Y-126312387D01*
X156960956Y-126333457D01*
X156948974Y-126353448D01*
X156935090Y-126372168D01*
X156919438Y-126389438D01*
X156902168Y-126405090D01*
X156883448Y-126418974D01*
X156863457Y-126430956D01*
X156842387Y-126440921D01*
X156820443Y-126448773D01*
X156797834Y-126454437D01*
X156774779Y-126457856D01*
X156751500Y-126459000D01*
X156176500Y-126459000D01*
X156153221Y-126457856D01*
X156130166Y-126454437D01*
X156107557Y-126448773D01*
X156085613Y-126440921D01*
X156064543Y-126430956D01*
X156044552Y-126418974D01*
X156025832Y-126405090D01*
X156008562Y-126389438D01*
X155992910Y-126372168D01*
X155979026Y-126353448D01*
X155967044Y-126333457D01*
X155957079Y-126312387D01*
X155949227Y-126290443D01*
X155943563Y-126267834D01*
X155940144Y-126244779D01*
X155939000Y-126221500D01*
X155939000Y-125746500D01*
X155940144Y-125723221D01*
X155943563Y-125700166D01*
X155949227Y-125677557D01*
X155957079Y-125655613D01*
X155967044Y-125634543D01*
X155979026Y-125614552D01*
X155992910Y-125595832D01*
X156008562Y-125578562D01*
X156025832Y-125562910D01*
X156044552Y-125549026D01*
X156064543Y-125537044D01*
X156085613Y-125527079D01*
X156107557Y-125519227D01*
X156130166Y-125513563D01*
X156153221Y-125510144D01*
X156176500Y-125509000D01*
X156751500Y-125509000D01*
X156774779Y-125510144D01*
X156774779Y-125510144D01*
G37*
D11*
X156464000Y-125984000D03*
G04 #@! TD*
D10*
G04 #@! TO.C,R13*
G36*
X154946779Y-127266144D02*
X154969834Y-127269563D01*
X154992443Y-127275227D01*
X155014387Y-127283079D01*
X155035457Y-127293044D01*
X155055448Y-127305026D01*
X155074168Y-127318910D01*
X155091438Y-127334562D01*
X155107090Y-127351832D01*
X155120974Y-127370552D01*
X155132956Y-127390543D01*
X155142921Y-127411613D01*
X155150773Y-127433557D01*
X155156437Y-127456166D01*
X155159856Y-127479221D01*
X155161000Y-127502500D01*
X155161000Y-128077500D01*
X155159856Y-128100779D01*
X155156437Y-128123834D01*
X155150773Y-128146443D01*
X155142921Y-128168387D01*
X155132956Y-128189457D01*
X155120974Y-128209448D01*
X155107090Y-128228168D01*
X155091438Y-128245438D01*
X155074168Y-128261090D01*
X155055448Y-128274974D01*
X155035457Y-128286956D01*
X155014387Y-128296921D01*
X154992443Y-128304773D01*
X154969834Y-128310437D01*
X154946779Y-128313856D01*
X154923500Y-128315000D01*
X154448500Y-128315000D01*
X154425221Y-128313856D01*
X154402166Y-128310437D01*
X154379557Y-128304773D01*
X154357613Y-128296921D01*
X154336543Y-128286956D01*
X154316552Y-128274974D01*
X154297832Y-128261090D01*
X154280562Y-128245438D01*
X154264910Y-128228168D01*
X154251026Y-128209448D01*
X154239044Y-128189457D01*
X154229079Y-128168387D01*
X154221227Y-128146443D01*
X154215563Y-128123834D01*
X154212144Y-128100779D01*
X154211000Y-128077500D01*
X154211000Y-127502500D01*
X154212144Y-127479221D01*
X154215563Y-127456166D01*
X154221227Y-127433557D01*
X154229079Y-127411613D01*
X154239044Y-127390543D01*
X154251026Y-127370552D01*
X154264910Y-127351832D01*
X154280562Y-127334562D01*
X154297832Y-127318910D01*
X154316552Y-127305026D01*
X154336543Y-127293044D01*
X154357613Y-127283079D01*
X154379557Y-127275227D01*
X154402166Y-127269563D01*
X154425221Y-127266144D01*
X154448500Y-127265000D01*
X154923500Y-127265000D01*
X154946779Y-127266144D01*
X154946779Y-127266144D01*
G37*
D11*
X154686000Y-127790000D03*
D10*
G36*
X154946779Y-129016144D02*
X154969834Y-129019563D01*
X154992443Y-129025227D01*
X155014387Y-129033079D01*
X155035457Y-129043044D01*
X155055448Y-129055026D01*
X155074168Y-129068910D01*
X155091438Y-129084562D01*
X155107090Y-129101832D01*
X155120974Y-129120552D01*
X155132956Y-129140543D01*
X155142921Y-129161613D01*
X155150773Y-129183557D01*
X155156437Y-129206166D01*
X155159856Y-129229221D01*
X155161000Y-129252500D01*
X155161000Y-129827500D01*
X155159856Y-129850779D01*
X155156437Y-129873834D01*
X155150773Y-129896443D01*
X155142921Y-129918387D01*
X155132956Y-129939457D01*
X155120974Y-129959448D01*
X155107090Y-129978168D01*
X155091438Y-129995438D01*
X155074168Y-130011090D01*
X155055448Y-130024974D01*
X155035457Y-130036956D01*
X155014387Y-130046921D01*
X154992443Y-130054773D01*
X154969834Y-130060437D01*
X154946779Y-130063856D01*
X154923500Y-130065000D01*
X154448500Y-130065000D01*
X154425221Y-130063856D01*
X154402166Y-130060437D01*
X154379557Y-130054773D01*
X154357613Y-130046921D01*
X154336543Y-130036956D01*
X154316552Y-130024974D01*
X154297832Y-130011090D01*
X154280562Y-129995438D01*
X154264910Y-129978168D01*
X154251026Y-129959448D01*
X154239044Y-129939457D01*
X154229079Y-129918387D01*
X154221227Y-129896443D01*
X154215563Y-129873834D01*
X154212144Y-129850779D01*
X154211000Y-129827500D01*
X154211000Y-129252500D01*
X154212144Y-129229221D01*
X154215563Y-129206166D01*
X154221227Y-129183557D01*
X154229079Y-129161613D01*
X154239044Y-129140543D01*
X154251026Y-129120552D01*
X154264910Y-129101832D01*
X154280562Y-129084562D01*
X154297832Y-129068910D01*
X154316552Y-129055026D01*
X154336543Y-129043044D01*
X154357613Y-129033079D01*
X154379557Y-129025227D01*
X154402166Y-129019563D01*
X154425221Y-129016144D01*
X154448500Y-129015000D01*
X154923500Y-129015000D01*
X154946779Y-129016144D01*
X154946779Y-129016144D01*
G37*
D11*
X154686000Y-129540000D03*
G04 #@! TD*
D10*
G04 #@! TO.C,R17*
G36*
X174582779Y-104682144D02*
X174605834Y-104685563D01*
X174628443Y-104691227D01*
X174650387Y-104699079D01*
X174671457Y-104709044D01*
X174691448Y-104721026D01*
X174710168Y-104734910D01*
X174727438Y-104750562D01*
X174743090Y-104767832D01*
X174756974Y-104786552D01*
X174768956Y-104806543D01*
X174778921Y-104827613D01*
X174786773Y-104849557D01*
X174792437Y-104872166D01*
X174795856Y-104895221D01*
X174797000Y-104918500D01*
X174797000Y-105393500D01*
X174795856Y-105416779D01*
X174792437Y-105439834D01*
X174786773Y-105462443D01*
X174778921Y-105484387D01*
X174768956Y-105505457D01*
X174756974Y-105525448D01*
X174743090Y-105544168D01*
X174727438Y-105561438D01*
X174710168Y-105577090D01*
X174691448Y-105590974D01*
X174671457Y-105602956D01*
X174650387Y-105612921D01*
X174628443Y-105620773D01*
X174605834Y-105626437D01*
X174582779Y-105629856D01*
X174559500Y-105631000D01*
X173984500Y-105631000D01*
X173961221Y-105629856D01*
X173938166Y-105626437D01*
X173915557Y-105620773D01*
X173893613Y-105612921D01*
X173872543Y-105602956D01*
X173852552Y-105590974D01*
X173833832Y-105577090D01*
X173816562Y-105561438D01*
X173800910Y-105544168D01*
X173787026Y-105525448D01*
X173775044Y-105505457D01*
X173765079Y-105484387D01*
X173757227Y-105462443D01*
X173751563Y-105439834D01*
X173748144Y-105416779D01*
X173747000Y-105393500D01*
X173747000Y-104918500D01*
X173748144Y-104895221D01*
X173751563Y-104872166D01*
X173757227Y-104849557D01*
X173765079Y-104827613D01*
X173775044Y-104806543D01*
X173787026Y-104786552D01*
X173800910Y-104767832D01*
X173816562Y-104750562D01*
X173833832Y-104734910D01*
X173852552Y-104721026D01*
X173872543Y-104709044D01*
X173893613Y-104699079D01*
X173915557Y-104691227D01*
X173938166Y-104685563D01*
X173961221Y-104682144D01*
X173984500Y-104681000D01*
X174559500Y-104681000D01*
X174582779Y-104682144D01*
X174582779Y-104682144D01*
G37*
D11*
X174272000Y-105156000D03*
D10*
G36*
X176332779Y-104682144D02*
X176355834Y-104685563D01*
X176378443Y-104691227D01*
X176400387Y-104699079D01*
X176421457Y-104709044D01*
X176441448Y-104721026D01*
X176460168Y-104734910D01*
X176477438Y-104750562D01*
X176493090Y-104767832D01*
X176506974Y-104786552D01*
X176518956Y-104806543D01*
X176528921Y-104827613D01*
X176536773Y-104849557D01*
X176542437Y-104872166D01*
X176545856Y-104895221D01*
X176547000Y-104918500D01*
X176547000Y-105393500D01*
X176545856Y-105416779D01*
X176542437Y-105439834D01*
X176536773Y-105462443D01*
X176528921Y-105484387D01*
X176518956Y-105505457D01*
X176506974Y-105525448D01*
X176493090Y-105544168D01*
X176477438Y-105561438D01*
X176460168Y-105577090D01*
X176441448Y-105590974D01*
X176421457Y-105602956D01*
X176400387Y-105612921D01*
X176378443Y-105620773D01*
X176355834Y-105626437D01*
X176332779Y-105629856D01*
X176309500Y-105631000D01*
X175734500Y-105631000D01*
X175711221Y-105629856D01*
X175688166Y-105626437D01*
X175665557Y-105620773D01*
X175643613Y-105612921D01*
X175622543Y-105602956D01*
X175602552Y-105590974D01*
X175583832Y-105577090D01*
X175566562Y-105561438D01*
X175550910Y-105544168D01*
X175537026Y-105525448D01*
X175525044Y-105505457D01*
X175515079Y-105484387D01*
X175507227Y-105462443D01*
X175501563Y-105439834D01*
X175498144Y-105416779D01*
X175497000Y-105393500D01*
X175497000Y-104918500D01*
X175498144Y-104895221D01*
X175501563Y-104872166D01*
X175507227Y-104849557D01*
X175515079Y-104827613D01*
X175525044Y-104806543D01*
X175537026Y-104786552D01*
X175550910Y-104767832D01*
X175566562Y-104750562D01*
X175583832Y-104734910D01*
X175602552Y-104721026D01*
X175622543Y-104709044D01*
X175643613Y-104699079D01*
X175665557Y-104691227D01*
X175688166Y-104685563D01*
X175711221Y-104682144D01*
X175734500Y-104681000D01*
X176309500Y-104681000D01*
X176332779Y-104682144D01*
X176332779Y-104682144D01*
G37*
D11*
X176022000Y-105156000D03*
G04 #@! TD*
D10*
G04 #@! TO.C,C8*
G36*
X169502779Y-129066144D02*
X169525834Y-129069563D01*
X169548443Y-129075227D01*
X169570387Y-129083079D01*
X169591457Y-129093044D01*
X169611448Y-129105026D01*
X169630168Y-129118910D01*
X169647438Y-129134562D01*
X169663090Y-129151832D01*
X169676974Y-129170552D01*
X169688956Y-129190543D01*
X169698921Y-129211613D01*
X169706773Y-129233557D01*
X169712437Y-129256166D01*
X169715856Y-129279221D01*
X169717000Y-129302500D01*
X169717000Y-129777500D01*
X169715856Y-129800779D01*
X169712437Y-129823834D01*
X169706773Y-129846443D01*
X169698921Y-129868387D01*
X169688956Y-129889457D01*
X169676974Y-129909448D01*
X169663090Y-129928168D01*
X169647438Y-129945438D01*
X169630168Y-129961090D01*
X169611448Y-129974974D01*
X169591457Y-129986956D01*
X169570387Y-129996921D01*
X169548443Y-130004773D01*
X169525834Y-130010437D01*
X169502779Y-130013856D01*
X169479500Y-130015000D01*
X168904500Y-130015000D01*
X168881221Y-130013856D01*
X168858166Y-130010437D01*
X168835557Y-130004773D01*
X168813613Y-129996921D01*
X168792543Y-129986956D01*
X168772552Y-129974974D01*
X168753832Y-129961090D01*
X168736562Y-129945438D01*
X168720910Y-129928168D01*
X168707026Y-129909448D01*
X168695044Y-129889457D01*
X168685079Y-129868387D01*
X168677227Y-129846443D01*
X168671563Y-129823834D01*
X168668144Y-129800779D01*
X168667000Y-129777500D01*
X168667000Y-129302500D01*
X168668144Y-129279221D01*
X168671563Y-129256166D01*
X168677227Y-129233557D01*
X168685079Y-129211613D01*
X168695044Y-129190543D01*
X168707026Y-129170552D01*
X168720910Y-129151832D01*
X168736562Y-129134562D01*
X168753832Y-129118910D01*
X168772552Y-129105026D01*
X168792543Y-129093044D01*
X168813613Y-129083079D01*
X168835557Y-129075227D01*
X168858166Y-129069563D01*
X168881221Y-129066144D01*
X168904500Y-129065000D01*
X169479500Y-129065000D01*
X169502779Y-129066144D01*
X169502779Y-129066144D01*
G37*
D11*
X169192000Y-129540000D03*
D10*
G36*
X171252779Y-129066144D02*
X171275834Y-129069563D01*
X171298443Y-129075227D01*
X171320387Y-129083079D01*
X171341457Y-129093044D01*
X171361448Y-129105026D01*
X171380168Y-129118910D01*
X171397438Y-129134562D01*
X171413090Y-129151832D01*
X171426974Y-129170552D01*
X171438956Y-129190543D01*
X171448921Y-129211613D01*
X171456773Y-129233557D01*
X171462437Y-129256166D01*
X171465856Y-129279221D01*
X171467000Y-129302500D01*
X171467000Y-129777500D01*
X171465856Y-129800779D01*
X171462437Y-129823834D01*
X171456773Y-129846443D01*
X171448921Y-129868387D01*
X171438956Y-129889457D01*
X171426974Y-129909448D01*
X171413090Y-129928168D01*
X171397438Y-129945438D01*
X171380168Y-129961090D01*
X171361448Y-129974974D01*
X171341457Y-129986956D01*
X171320387Y-129996921D01*
X171298443Y-130004773D01*
X171275834Y-130010437D01*
X171252779Y-130013856D01*
X171229500Y-130015000D01*
X170654500Y-130015000D01*
X170631221Y-130013856D01*
X170608166Y-130010437D01*
X170585557Y-130004773D01*
X170563613Y-129996921D01*
X170542543Y-129986956D01*
X170522552Y-129974974D01*
X170503832Y-129961090D01*
X170486562Y-129945438D01*
X170470910Y-129928168D01*
X170457026Y-129909448D01*
X170445044Y-129889457D01*
X170435079Y-129868387D01*
X170427227Y-129846443D01*
X170421563Y-129823834D01*
X170418144Y-129800779D01*
X170417000Y-129777500D01*
X170417000Y-129302500D01*
X170418144Y-129279221D01*
X170421563Y-129256166D01*
X170427227Y-129233557D01*
X170435079Y-129211613D01*
X170445044Y-129190543D01*
X170457026Y-129170552D01*
X170470910Y-129151832D01*
X170486562Y-129134562D01*
X170503832Y-129118910D01*
X170522552Y-129105026D01*
X170542543Y-129093044D01*
X170563613Y-129083079D01*
X170585557Y-129075227D01*
X170608166Y-129069563D01*
X170631221Y-129066144D01*
X170654500Y-129065000D01*
X171229500Y-129065000D01*
X171252779Y-129066144D01*
X171252779Y-129066144D01*
G37*
D11*
X170942000Y-129540000D03*
G04 #@! TD*
D10*
G04 #@! TO.C,C10*
G36*
X156724779Y-129016144D02*
X156747834Y-129019563D01*
X156770443Y-129025227D01*
X156792387Y-129033079D01*
X156813457Y-129043044D01*
X156833448Y-129055026D01*
X156852168Y-129068910D01*
X156869438Y-129084562D01*
X156885090Y-129101832D01*
X156898974Y-129120552D01*
X156910956Y-129140543D01*
X156920921Y-129161613D01*
X156928773Y-129183557D01*
X156934437Y-129206166D01*
X156937856Y-129229221D01*
X156939000Y-129252500D01*
X156939000Y-129827500D01*
X156937856Y-129850779D01*
X156934437Y-129873834D01*
X156928773Y-129896443D01*
X156920921Y-129918387D01*
X156910956Y-129939457D01*
X156898974Y-129959448D01*
X156885090Y-129978168D01*
X156869438Y-129995438D01*
X156852168Y-130011090D01*
X156833448Y-130024974D01*
X156813457Y-130036956D01*
X156792387Y-130046921D01*
X156770443Y-130054773D01*
X156747834Y-130060437D01*
X156724779Y-130063856D01*
X156701500Y-130065000D01*
X156226500Y-130065000D01*
X156203221Y-130063856D01*
X156180166Y-130060437D01*
X156157557Y-130054773D01*
X156135613Y-130046921D01*
X156114543Y-130036956D01*
X156094552Y-130024974D01*
X156075832Y-130011090D01*
X156058562Y-129995438D01*
X156042910Y-129978168D01*
X156029026Y-129959448D01*
X156017044Y-129939457D01*
X156007079Y-129918387D01*
X155999227Y-129896443D01*
X155993563Y-129873834D01*
X155990144Y-129850779D01*
X155989000Y-129827500D01*
X155989000Y-129252500D01*
X155990144Y-129229221D01*
X155993563Y-129206166D01*
X155999227Y-129183557D01*
X156007079Y-129161613D01*
X156017044Y-129140543D01*
X156029026Y-129120552D01*
X156042910Y-129101832D01*
X156058562Y-129084562D01*
X156075832Y-129068910D01*
X156094552Y-129055026D01*
X156114543Y-129043044D01*
X156135613Y-129033079D01*
X156157557Y-129025227D01*
X156180166Y-129019563D01*
X156203221Y-129016144D01*
X156226500Y-129015000D01*
X156701500Y-129015000D01*
X156724779Y-129016144D01*
X156724779Y-129016144D01*
G37*
D11*
X156464000Y-129540000D03*
D10*
G36*
X156724779Y-127266144D02*
X156747834Y-127269563D01*
X156770443Y-127275227D01*
X156792387Y-127283079D01*
X156813457Y-127293044D01*
X156833448Y-127305026D01*
X156852168Y-127318910D01*
X156869438Y-127334562D01*
X156885090Y-127351832D01*
X156898974Y-127370552D01*
X156910956Y-127390543D01*
X156920921Y-127411613D01*
X156928773Y-127433557D01*
X156934437Y-127456166D01*
X156937856Y-127479221D01*
X156939000Y-127502500D01*
X156939000Y-128077500D01*
X156937856Y-128100779D01*
X156934437Y-128123834D01*
X156928773Y-128146443D01*
X156920921Y-128168387D01*
X156910956Y-128189457D01*
X156898974Y-128209448D01*
X156885090Y-128228168D01*
X156869438Y-128245438D01*
X156852168Y-128261090D01*
X156833448Y-128274974D01*
X156813457Y-128286956D01*
X156792387Y-128296921D01*
X156770443Y-128304773D01*
X156747834Y-128310437D01*
X156724779Y-128313856D01*
X156701500Y-128315000D01*
X156226500Y-128315000D01*
X156203221Y-128313856D01*
X156180166Y-128310437D01*
X156157557Y-128304773D01*
X156135613Y-128296921D01*
X156114543Y-128286956D01*
X156094552Y-128274974D01*
X156075832Y-128261090D01*
X156058562Y-128245438D01*
X156042910Y-128228168D01*
X156029026Y-128209448D01*
X156017044Y-128189457D01*
X156007079Y-128168387D01*
X155999227Y-128146443D01*
X155993563Y-128123834D01*
X155990144Y-128100779D01*
X155989000Y-128077500D01*
X155989000Y-127502500D01*
X155990144Y-127479221D01*
X155993563Y-127456166D01*
X155999227Y-127433557D01*
X156007079Y-127411613D01*
X156017044Y-127390543D01*
X156029026Y-127370552D01*
X156042910Y-127351832D01*
X156058562Y-127334562D01*
X156075832Y-127318910D01*
X156094552Y-127305026D01*
X156114543Y-127293044D01*
X156135613Y-127283079D01*
X156157557Y-127275227D01*
X156180166Y-127269563D01*
X156203221Y-127266144D01*
X156226500Y-127265000D01*
X156701500Y-127265000D01*
X156724779Y-127266144D01*
X156724779Y-127266144D01*
G37*
D11*
X156464000Y-127790000D03*
G04 #@! TD*
D14*
G04 #@! TO.C,U2*
X138761216Y-109518660D03*
D10*
G36*
X138488980Y-109953531D02*
X138326345Y-109790896D01*
X139033452Y-109083789D01*
X139196087Y-109246424D01*
X138488980Y-109953531D01*
X138488980Y-109953531D01*
G37*
D14*
X139044058Y-109801503D03*
D10*
G36*
X138771822Y-110236374D02*
X138609187Y-110073739D01*
X139316294Y-109366632D01*
X139478929Y-109529267D01*
X138771822Y-110236374D01*
X138771822Y-110236374D01*
G37*
D14*
X139326901Y-110084346D03*
D10*
G36*
X139054665Y-110519217D02*
X138892030Y-110356582D01*
X139599137Y-109649475D01*
X139761772Y-109812110D01*
X139054665Y-110519217D01*
X139054665Y-110519217D01*
G37*
D14*
X139609744Y-110367188D03*
D10*
G36*
X139337508Y-110802059D02*
X139174873Y-110639424D01*
X139881980Y-109932317D01*
X140044615Y-110094952D01*
X139337508Y-110802059D01*
X139337508Y-110802059D01*
G37*
D14*
X139892587Y-110650031D03*
D10*
G36*
X139620351Y-111084902D02*
X139457716Y-110922267D01*
X140164823Y-110215160D01*
X140327458Y-110377795D01*
X139620351Y-111084902D01*
X139620351Y-111084902D01*
G37*
D14*
X140175429Y-110932874D03*
D10*
G36*
X139903193Y-111367745D02*
X139740558Y-111205110D01*
X140447665Y-110498003D01*
X140610300Y-110660638D01*
X139903193Y-111367745D01*
X139903193Y-111367745D01*
G37*
D14*
X140458272Y-111215716D03*
D10*
G36*
X140186036Y-111650587D02*
X140023401Y-111487952D01*
X140730508Y-110780845D01*
X140893143Y-110943480D01*
X140186036Y-111650587D01*
X140186036Y-111650587D01*
G37*
D14*
X140741115Y-111498559D03*
D10*
G36*
X140468879Y-111933430D02*
X140306244Y-111770795D01*
X141013351Y-111063688D01*
X141175986Y-111226323D01*
X140468879Y-111933430D01*
X140468879Y-111933430D01*
G37*
D14*
X141023957Y-111781402D03*
D10*
G36*
X140751721Y-112216273D02*
X140589086Y-112053638D01*
X141296193Y-111346531D01*
X141458828Y-111509166D01*
X140751721Y-112216273D01*
X140751721Y-112216273D01*
G37*
D14*
X141306800Y-112064245D03*
D10*
G36*
X141034564Y-112499116D02*
X140871929Y-112336481D01*
X141579036Y-111629374D01*
X141741671Y-111792009D01*
X141034564Y-112499116D01*
X141034564Y-112499116D01*
G37*
D14*
X141589643Y-112347087D03*
D10*
G36*
X141317407Y-112781958D02*
X141154772Y-112619323D01*
X141861879Y-111912216D01*
X142024514Y-112074851D01*
X141317407Y-112781958D01*
X141317407Y-112781958D01*
G37*
D14*
X141872486Y-112629930D03*
D10*
G36*
X141600250Y-113064801D02*
X141437615Y-112902166D01*
X142144722Y-112195059D01*
X142307357Y-112357694D01*
X141600250Y-113064801D01*
X141600250Y-113064801D01*
G37*
D14*
X142155328Y-112912773D03*
D10*
G36*
X141883092Y-113347644D02*
X141720457Y-113185009D01*
X142427564Y-112477902D01*
X142590199Y-112640537D01*
X141883092Y-113347644D01*
X141883092Y-113347644D01*
G37*
D14*
X142438171Y-113195615D03*
D10*
G36*
X142165935Y-113630486D02*
X142003300Y-113467851D01*
X142710407Y-112760744D01*
X142873042Y-112923379D01*
X142165935Y-113630486D01*
X142165935Y-113630486D01*
G37*
D14*
X142721014Y-113478458D03*
D10*
G36*
X142448778Y-113913329D02*
X142286143Y-113750694D01*
X142993250Y-113043587D01*
X143155885Y-113206222D01*
X142448778Y-113913329D01*
X142448778Y-113913329D01*
G37*
D14*
X143003856Y-113761301D03*
D10*
G36*
X142731620Y-114196172D02*
X142568985Y-114033537D01*
X143276092Y-113326430D01*
X143438727Y-113489065D01*
X142731620Y-114196172D01*
X142731620Y-114196172D01*
G37*
D14*
X143286699Y-114044144D03*
D10*
G36*
X143014463Y-114479015D02*
X142851828Y-114316380D01*
X143558935Y-113609273D01*
X143721570Y-113771908D01*
X143014463Y-114479015D01*
X143014463Y-114479015D01*
G37*
D14*
X143569542Y-114326986D03*
D10*
G36*
X143297306Y-114761857D02*
X143134671Y-114599222D01*
X143841778Y-113892115D01*
X144004413Y-114054750D01*
X143297306Y-114761857D01*
X143297306Y-114761857D01*
G37*
D14*
X143852385Y-114609829D03*
D10*
G36*
X143580149Y-115044700D02*
X143417514Y-114882065D01*
X144124621Y-114174958D01*
X144287256Y-114337593D01*
X143580149Y-115044700D01*
X143580149Y-115044700D01*
G37*
D14*
X144135227Y-114892672D03*
D10*
G36*
X143862991Y-115327543D02*
X143700356Y-115164908D01*
X144407463Y-114457801D01*
X144570098Y-114620436D01*
X143862991Y-115327543D01*
X143862991Y-115327543D01*
G37*
D14*
X144418070Y-115175514D03*
D10*
G36*
X144145834Y-115610385D02*
X143983199Y-115447750D01*
X144690306Y-114740643D01*
X144852941Y-114903278D01*
X144145834Y-115610385D01*
X144145834Y-115610385D01*
G37*
D14*
X144700913Y-115458357D03*
D10*
G36*
X144428677Y-115893228D02*
X144266042Y-115730593D01*
X144973149Y-115023486D01*
X145135784Y-115186121D01*
X144428677Y-115893228D01*
X144428677Y-115893228D01*
G37*
D14*
X144983755Y-115741200D03*
D10*
G36*
X144711519Y-116176071D02*
X144548884Y-116013436D01*
X145255991Y-115306329D01*
X145418626Y-115468964D01*
X144711519Y-116176071D01*
X144711519Y-116176071D01*
G37*
D14*
X145266598Y-116024043D03*
D10*
G36*
X144994362Y-116458914D02*
X144831727Y-116296279D01*
X145538834Y-115589172D01*
X145701469Y-115751807D01*
X144994362Y-116458914D01*
X144994362Y-116458914D01*
G37*
D14*
X145549441Y-116306885D03*
D10*
G36*
X145277205Y-116741756D02*
X145114570Y-116579121D01*
X145821677Y-115872014D01*
X145984312Y-116034649D01*
X145277205Y-116741756D01*
X145277205Y-116741756D01*
G37*
D14*
X145832284Y-116589728D03*
D10*
G36*
X145560048Y-117024599D02*
X145397413Y-116861964D01*
X146104520Y-116154857D01*
X146267155Y-116317492D01*
X145560048Y-117024599D01*
X145560048Y-117024599D01*
G37*
D14*
X146115126Y-116872571D03*
D10*
G36*
X145842890Y-117307442D02*
X145680255Y-117144807D01*
X146387362Y-116437700D01*
X146549997Y-116600335D01*
X145842890Y-117307442D01*
X145842890Y-117307442D01*
G37*
D14*
X146397969Y-117155413D03*
D10*
G36*
X146125733Y-117590284D02*
X145963098Y-117427649D01*
X146670205Y-116720542D01*
X146832840Y-116883177D01*
X146125733Y-117590284D01*
X146125733Y-117590284D01*
G37*
D14*
X146680812Y-117438256D03*
D10*
G36*
X146408576Y-117873127D02*
X146245941Y-117710492D01*
X146953048Y-117003385D01*
X147115683Y-117166020D01*
X146408576Y-117873127D01*
X146408576Y-117873127D01*
G37*
D14*
X146963654Y-117721099D03*
D10*
G36*
X146691418Y-118155970D02*
X146528783Y-117993335D01*
X147235890Y-117286228D01*
X147398525Y-117448863D01*
X146691418Y-118155970D01*
X146691418Y-118155970D01*
G37*
D14*
X147246497Y-118003942D03*
D10*
G36*
X146974261Y-118438813D02*
X146811626Y-118276178D01*
X147518733Y-117569071D01*
X147681368Y-117731706D01*
X146974261Y-118438813D01*
X146974261Y-118438813D01*
G37*
D14*
X147529340Y-118286784D03*
D10*
G36*
X147257104Y-118721655D02*
X147094469Y-118559020D01*
X147801576Y-117851913D01*
X147964211Y-118014548D01*
X147257104Y-118721655D01*
X147257104Y-118721655D01*
G37*
D14*
X149650660Y-118286784D03*
D10*
G36*
X150085531Y-118559020D02*
X149922896Y-118721655D01*
X149215789Y-118014548D01*
X149378424Y-117851913D01*
X150085531Y-118559020D01*
X150085531Y-118559020D01*
G37*
D14*
X149933503Y-118003942D03*
D10*
G36*
X150368374Y-118276178D02*
X150205739Y-118438813D01*
X149498632Y-117731706D01*
X149661267Y-117569071D01*
X150368374Y-118276178D01*
X150368374Y-118276178D01*
G37*
D14*
X150216346Y-117721099D03*
D10*
G36*
X150651217Y-117993335D02*
X150488582Y-118155970D01*
X149781475Y-117448863D01*
X149944110Y-117286228D01*
X150651217Y-117993335D01*
X150651217Y-117993335D01*
G37*
D14*
X150499188Y-117438256D03*
D10*
G36*
X150934059Y-117710492D02*
X150771424Y-117873127D01*
X150064317Y-117166020D01*
X150226952Y-117003385D01*
X150934059Y-117710492D01*
X150934059Y-117710492D01*
G37*
D14*
X150782031Y-117155413D03*
D10*
G36*
X151216902Y-117427649D02*
X151054267Y-117590284D01*
X150347160Y-116883177D01*
X150509795Y-116720542D01*
X151216902Y-117427649D01*
X151216902Y-117427649D01*
G37*
D14*
X151064874Y-116872571D03*
D10*
G36*
X151499745Y-117144807D02*
X151337110Y-117307442D01*
X150630003Y-116600335D01*
X150792638Y-116437700D01*
X151499745Y-117144807D01*
X151499745Y-117144807D01*
G37*
D14*
X151347716Y-116589728D03*
D10*
G36*
X151782587Y-116861964D02*
X151619952Y-117024599D01*
X150912845Y-116317492D01*
X151075480Y-116154857D01*
X151782587Y-116861964D01*
X151782587Y-116861964D01*
G37*
D14*
X151630559Y-116306885D03*
D10*
G36*
X152065430Y-116579121D02*
X151902795Y-116741756D01*
X151195688Y-116034649D01*
X151358323Y-115872014D01*
X152065430Y-116579121D01*
X152065430Y-116579121D01*
G37*
D14*
X151913402Y-116024043D03*
D10*
G36*
X152348273Y-116296279D02*
X152185638Y-116458914D01*
X151478531Y-115751807D01*
X151641166Y-115589172D01*
X152348273Y-116296279D01*
X152348273Y-116296279D01*
G37*
D14*
X152196245Y-115741200D03*
D10*
G36*
X152631116Y-116013436D02*
X152468481Y-116176071D01*
X151761374Y-115468964D01*
X151924009Y-115306329D01*
X152631116Y-116013436D01*
X152631116Y-116013436D01*
G37*
D14*
X152479087Y-115458357D03*
D10*
G36*
X152913958Y-115730593D02*
X152751323Y-115893228D01*
X152044216Y-115186121D01*
X152206851Y-115023486D01*
X152913958Y-115730593D01*
X152913958Y-115730593D01*
G37*
D14*
X152761930Y-115175514D03*
D10*
G36*
X153196801Y-115447750D02*
X153034166Y-115610385D01*
X152327059Y-114903278D01*
X152489694Y-114740643D01*
X153196801Y-115447750D01*
X153196801Y-115447750D01*
G37*
D14*
X153044773Y-114892672D03*
D10*
G36*
X153479644Y-115164908D02*
X153317009Y-115327543D01*
X152609902Y-114620436D01*
X152772537Y-114457801D01*
X153479644Y-115164908D01*
X153479644Y-115164908D01*
G37*
D14*
X153327615Y-114609829D03*
D10*
G36*
X153762486Y-114882065D02*
X153599851Y-115044700D01*
X152892744Y-114337593D01*
X153055379Y-114174958D01*
X153762486Y-114882065D01*
X153762486Y-114882065D01*
G37*
D14*
X153610458Y-114326986D03*
D10*
G36*
X154045329Y-114599222D02*
X153882694Y-114761857D01*
X153175587Y-114054750D01*
X153338222Y-113892115D01*
X154045329Y-114599222D01*
X154045329Y-114599222D01*
G37*
D14*
X153893301Y-114044144D03*
D10*
G36*
X154328172Y-114316380D02*
X154165537Y-114479015D01*
X153458430Y-113771908D01*
X153621065Y-113609273D01*
X154328172Y-114316380D01*
X154328172Y-114316380D01*
G37*
D14*
X154176144Y-113761301D03*
D10*
G36*
X154611015Y-114033537D02*
X154448380Y-114196172D01*
X153741273Y-113489065D01*
X153903908Y-113326430D01*
X154611015Y-114033537D01*
X154611015Y-114033537D01*
G37*
D14*
X154458986Y-113478458D03*
D10*
G36*
X154893857Y-113750694D02*
X154731222Y-113913329D01*
X154024115Y-113206222D01*
X154186750Y-113043587D01*
X154893857Y-113750694D01*
X154893857Y-113750694D01*
G37*
D14*
X154741829Y-113195615D03*
D10*
G36*
X155176700Y-113467851D02*
X155014065Y-113630486D01*
X154306958Y-112923379D01*
X154469593Y-112760744D01*
X155176700Y-113467851D01*
X155176700Y-113467851D01*
G37*
D14*
X155024672Y-112912773D03*
D10*
G36*
X155459543Y-113185009D02*
X155296908Y-113347644D01*
X154589801Y-112640537D01*
X154752436Y-112477902D01*
X155459543Y-113185009D01*
X155459543Y-113185009D01*
G37*
D14*
X155307514Y-112629930D03*
D10*
G36*
X155742385Y-112902166D02*
X155579750Y-113064801D01*
X154872643Y-112357694D01*
X155035278Y-112195059D01*
X155742385Y-112902166D01*
X155742385Y-112902166D01*
G37*
D14*
X155590357Y-112347087D03*
D10*
G36*
X156025228Y-112619323D02*
X155862593Y-112781958D01*
X155155486Y-112074851D01*
X155318121Y-111912216D01*
X156025228Y-112619323D01*
X156025228Y-112619323D01*
G37*
D14*
X155873200Y-112064245D03*
D10*
G36*
X156308071Y-112336481D02*
X156145436Y-112499116D01*
X155438329Y-111792009D01*
X155600964Y-111629374D01*
X156308071Y-112336481D01*
X156308071Y-112336481D01*
G37*
D14*
X156156043Y-111781402D03*
D10*
G36*
X156590914Y-112053638D02*
X156428279Y-112216273D01*
X155721172Y-111509166D01*
X155883807Y-111346531D01*
X156590914Y-112053638D01*
X156590914Y-112053638D01*
G37*
D14*
X156438885Y-111498559D03*
D10*
G36*
X156873756Y-111770795D02*
X156711121Y-111933430D01*
X156004014Y-111226323D01*
X156166649Y-111063688D01*
X156873756Y-111770795D01*
X156873756Y-111770795D01*
G37*
D14*
X156721728Y-111215716D03*
D10*
G36*
X157156599Y-111487952D02*
X156993964Y-111650587D01*
X156286857Y-110943480D01*
X156449492Y-110780845D01*
X157156599Y-111487952D01*
X157156599Y-111487952D01*
G37*
D14*
X157004571Y-110932874D03*
D10*
G36*
X157439442Y-111205110D02*
X157276807Y-111367745D01*
X156569700Y-110660638D01*
X156732335Y-110498003D01*
X157439442Y-111205110D01*
X157439442Y-111205110D01*
G37*
D14*
X157287413Y-110650031D03*
D10*
G36*
X157722284Y-110922267D02*
X157559649Y-111084902D01*
X156852542Y-110377795D01*
X157015177Y-110215160D01*
X157722284Y-110922267D01*
X157722284Y-110922267D01*
G37*
D14*
X157570256Y-110367188D03*
D10*
G36*
X158005127Y-110639424D02*
X157842492Y-110802059D01*
X157135385Y-110094952D01*
X157298020Y-109932317D01*
X158005127Y-110639424D01*
X158005127Y-110639424D01*
G37*
D14*
X157853099Y-110084346D03*
D10*
G36*
X158287970Y-110356582D02*
X158125335Y-110519217D01*
X157418228Y-109812110D01*
X157580863Y-109649475D01*
X158287970Y-110356582D01*
X158287970Y-110356582D01*
G37*
D14*
X158135942Y-109801503D03*
D10*
G36*
X158570813Y-110073739D02*
X158408178Y-110236374D01*
X157701071Y-109529267D01*
X157863706Y-109366632D01*
X158570813Y-110073739D01*
X158570813Y-110073739D01*
G37*
D14*
X158418784Y-109518660D03*
D10*
G36*
X158853655Y-109790896D02*
X158691020Y-109953531D01*
X157983913Y-109246424D01*
X158146548Y-109083789D01*
X158853655Y-109790896D01*
X158853655Y-109790896D01*
G37*
D14*
X158418784Y-107397340D03*
D10*
G36*
X158146548Y-107832211D02*
X157983913Y-107669576D01*
X158691020Y-106962469D01*
X158853655Y-107125104D01*
X158146548Y-107832211D01*
X158146548Y-107832211D01*
G37*
D14*
X158135942Y-107114497D03*
D10*
G36*
X157863706Y-107549368D02*
X157701071Y-107386733D01*
X158408178Y-106679626D01*
X158570813Y-106842261D01*
X157863706Y-107549368D01*
X157863706Y-107549368D01*
G37*
D14*
X157853099Y-106831654D03*
D10*
G36*
X157580863Y-107266525D02*
X157418228Y-107103890D01*
X158125335Y-106396783D01*
X158287970Y-106559418D01*
X157580863Y-107266525D01*
X157580863Y-107266525D01*
G37*
D14*
X157570256Y-106548812D03*
D10*
G36*
X157298020Y-106983683D02*
X157135385Y-106821048D01*
X157842492Y-106113941D01*
X158005127Y-106276576D01*
X157298020Y-106983683D01*
X157298020Y-106983683D01*
G37*
D14*
X157287413Y-106265969D03*
D10*
G36*
X157015177Y-106700840D02*
X156852542Y-106538205D01*
X157559649Y-105831098D01*
X157722284Y-105993733D01*
X157015177Y-106700840D01*
X157015177Y-106700840D01*
G37*
D14*
X157004571Y-105983126D03*
D10*
G36*
X156732335Y-106417997D02*
X156569700Y-106255362D01*
X157276807Y-105548255D01*
X157439442Y-105710890D01*
X156732335Y-106417997D01*
X156732335Y-106417997D01*
G37*
D14*
X156721728Y-105700284D03*
D10*
G36*
X156449492Y-106135155D02*
X156286857Y-105972520D01*
X156993964Y-105265413D01*
X157156599Y-105428048D01*
X156449492Y-106135155D01*
X156449492Y-106135155D01*
G37*
D14*
X156438885Y-105417441D03*
D10*
G36*
X156166649Y-105852312D02*
X156004014Y-105689677D01*
X156711121Y-104982570D01*
X156873756Y-105145205D01*
X156166649Y-105852312D01*
X156166649Y-105852312D01*
G37*
D14*
X156156043Y-105134598D03*
D10*
G36*
X155883807Y-105569469D02*
X155721172Y-105406834D01*
X156428279Y-104699727D01*
X156590914Y-104862362D01*
X155883807Y-105569469D01*
X155883807Y-105569469D01*
G37*
D14*
X155873200Y-104851755D03*
D10*
G36*
X155600964Y-105286626D02*
X155438329Y-105123991D01*
X156145436Y-104416884D01*
X156308071Y-104579519D01*
X155600964Y-105286626D01*
X155600964Y-105286626D01*
G37*
D14*
X155590357Y-104568913D03*
D10*
G36*
X155318121Y-105003784D02*
X155155486Y-104841149D01*
X155862593Y-104134042D01*
X156025228Y-104296677D01*
X155318121Y-105003784D01*
X155318121Y-105003784D01*
G37*
D14*
X155307514Y-104286070D03*
D10*
G36*
X155035278Y-104720941D02*
X154872643Y-104558306D01*
X155579750Y-103851199D01*
X155742385Y-104013834D01*
X155035278Y-104720941D01*
X155035278Y-104720941D01*
G37*
D14*
X155024672Y-104003227D03*
D10*
G36*
X154752436Y-104438098D02*
X154589801Y-104275463D01*
X155296908Y-103568356D01*
X155459543Y-103730991D01*
X154752436Y-104438098D01*
X154752436Y-104438098D01*
G37*
D14*
X154741829Y-103720385D03*
D10*
G36*
X154469593Y-104155256D02*
X154306958Y-103992621D01*
X155014065Y-103285514D01*
X155176700Y-103448149D01*
X154469593Y-104155256D01*
X154469593Y-104155256D01*
G37*
D14*
X154458986Y-103437542D03*
D10*
G36*
X154186750Y-103872413D02*
X154024115Y-103709778D01*
X154731222Y-103002671D01*
X154893857Y-103165306D01*
X154186750Y-103872413D01*
X154186750Y-103872413D01*
G37*
D14*
X154176144Y-103154699D03*
D10*
G36*
X153903908Y-103589570D02*
X153741273Y-103426935D01*
X154448380Y-102719828D01*
X154611015Y-102882463D01*
X153903908Y-103589570D01*
X153903908Y-103589570D01*
G37*
D14*
X153893301Y-102871856D03*
D10*
G36*
X153621065Y-103306727D02*
X153458430Y-103144092D01*
X154165537Y-102436985D01*
X154328172Y-102599620D01*
X153621065Y-103306727D01*
X153621065Y-103306727D01*
G37*
D14*
X153610458Y-102589014D03*
D10*
G36*
X153338222Y-103023885D02*
X153175587Y-102861250D01*
X153882694Y-102154143D01*
X154045329Y-102316778D01*
X153338222Y-103023885D01*
X153338222Y-103023885D01*
G37*
D14*
X153327615Y-102306171D03*
D10*
G36*
X153055379Y-102741042D02*
X152892744Y-102578407D01*
X153599851Y-101871300D01*
X153762486Y-102033935D01*
X153055379Y-102741042D01*
X153055379Y-102741042D01*
G37*
D14*
X153044773Y-102023328D03*
D10*
G36*
X152772537Y-102458199D02*
X152609902Y-102295564D01*
X153317009Y-101588457D01*
X153479644Y-101751092D01*
X152772537Y-102458199D01*
X152772537Y-102458199D01*
G37*
D14*
X152761930Y-101740486D03*
D10*
G36*
X152489694Y-102175357D02*
X152327059Y-102012722D01*
X153034166Y-101305615D01*
X153196801Y-101468250D01*
X152489694Y-102175357D01*
X152489694Y-102175357D01*
G37*
D14*
X152479087Y-101457643D03*
D10*
G36*
X152206851Y-101892514D02*
X152044216Y-101729879D01*
X152751323Y-101022772D01*
X152913958Y-101185407D01*
X152206851Y-101892514D01*
X152206851Y-101892514D01*
G37*
D14*
X152196245Y-101174800D03*
D10*
G36*
X151924009Y-101609671D02*
X151761374Y-101447036D01*
X152468481Y-100739929D01*
X152631116Y-100902564D01*
X151924009Y-101609671D01*
X151924009Y-101609671D01*
G37*
D14*
X151913402Y-100891957D03*
D10*
G36*
X151641166Y-101326828D02*
X151478531Y-101164193D01*
X152185638Y-100457086D01*
X152348273Y-100619721D01*
X151641166Y-101326828D01*
X151641166Y-101326828D01*
G37*
D14*
X151630559Y-100609115D03*
D10*
G36*
X151358323Y-101043986D02*
X151195688Y-100881351D01*
X151902795Y-100174244D01*
X152065430Y-100336879D01*
X151358323Y-101043986D01*
X151358323Y-101043986D01*
G37*
D14*
X151347716Y-100326272D03*
D10*
G36*
X151075480Y-100761143D02*
X150912845Y-100598508D01*
X151619952Y-99891401D01*
X151782587Y-100054036D01*
X151075480Y-100761143D01*
X151075480Y-100761143D01*
G37*
D14*
X151064874Y-100043429D03*
D10*
G36*
X150792638Y-100478300D02*
X150630003Y-100315665D01*
X151337110Y-99608558D01*
X151499745Y-99771193D01*
X150792638Y-100478300D01*
X150792638Y-100478300D01*
G37*
D14*
X150782031Y-99760587D03*
D10*
G36*
X150509795Y-100195458D02*
X150347160Y-100032823D01*
X151054267Y-99325716D01*
X151216902Y-99488351D01*
X150509795Y-100195458D01*
X150509795Y-100195458D01*
G37*
D14*
X150499188Y-99477744D03*
D10*
G36*
X150226952Y-99912615D02*
X150064317Y-99749980D01*
X150771424Y-99042873D01*
X150934059Y-99205508D01*
X150226952Y-99912615D01*
X150226952Y-99912615D01*
G37*
D14*
X150216346Y-99194901D03*
D10*
G36*
X149944110Y-99629772D02*
X149781475Y-99467137D01*
X150488582Y-98760030D01*
X150651217Y-98922665D01*
X149944110Y-99629772D01*
X149944110Y-99629772D01*
G37*
D14*
X149933503Y-98912058D03*
D10*
G36*
X149661267Y-99346929D02*
X149498632Y-99184294D01*
X150205739Y-98477187D01*
X150368374Y-98639822D01*
X149661267Y-99346929D01*
X149661267Y-99346929D01*
G37*
D14*
X149650660Y-98629216D03*
D10*
G36*
X149378424Y-99064087D02*
X149215789Y-98901452D01*
X149922896Y-98194345D01*
X150085531Y-98356980D01*
X149378424Y-99064087D01*
X149378424Y-99064087D01*
G37*
D14*
X147529340Y-98629216D03*
D10*
G36*
X147964211Y-98901452D02*
X147801576Y-99064087D01*
X147094469Y-98356980D01*
X147257104Y-98194345D01*
X147964211Y-98901452D01*
X147964211Y-98901452D01*
G37*
D14*
X147246497Y-98912058D03*
D10*
G36*
X147681368Y-99184294D02*
X147518733Y-99346929D01*
X146811626Y-98639822D01*
X146974261Y-98477187D01*
X147681368Y-99184294D01*
X147681368Y-99184294D01*
G37*
D14*
X146963654Y-99194901D03*
D10*
G36*
X147398525Y-99467137D02*
X147235890Y-99629772D01*
X146528783Y-98922665D01*
X146691418Y-98760030D01*
X147398525Y-99467137D01*
X147398525Y-99467137D01*
G37*
D14*
X146680812Y-99477744D03*
D10*
G36*
X147115683Y-99749980D02*
X146953048Y-99912615D01*
X146245941Y-99205508D01*
X146408576Y-99042873D01*
X147115683Y-99749980D01*
X147115683Y-99749980D01*
G37*
D14*
X146397969Y-99760587D03*
D10*
G36*
X146832840Y-100032823D02*
X146670205Y-100195458D01*
X145963098Y-99488351D01*
X146125733Y-99325716D01*
X146832840Y-100032823D01*
X146832840Y-100032823D01*
G37*
D14*
X146115126Y-100043429D03*
D10*
G36*
X146549997Y-100315665D02*
X146387362Y-100478300D01*
X145680255Y-99771193D01*
X145842890Y-99608558D01*
X146549997Y-100315665D01*
X146549997Y-100315665D01*
G37*
D14*
X145832284Y-100326272D03*
D10*
G36*
X146267155Y-100598508D02*
X146104520Y-100761143D01*
X145397413Y-100054036D01*
X145560048Y-99891401D01*
X146267155Y-100598508D01*
X146267155Y-100598508D01*
G37*
D14*
X145549441Y-100609115D03*
D10*
G36*
X145984312Y-100881351D02*
X145821677Y-101043986D01*
X145114570Y-100336879D01*
X145277205Y-100174244D01*
X145984312Y-100881351D01*
X145984312Y-100881351D01*
G37*
D14*
X145266598Y-100891957D03*
D10*
G36*
X145701469Y-101164193D02*
X145538834Y-101326828D01*
X144831727Y-100619721D01*
X144994362Y-100457086D01*
X145701469Y-101164193D01*
X145701469Y-101164193D01*
G37*
D14*
X144983755Y-101174800D03*
D10*
G36*
X145418626Y-101447036D02*
X145255991Y-101609671D01*
X144548884Y-100902564D01*
X144711519Y-100739929D01*
X145418626Y-101447036D01*
X145418626Y-101447036D01*
G37*
D14*
X144700913Y-101457643D03*
D10*
G36*
X145135784Y-101729879D02*
X144973149Y-101892514D01*
X144266042Y-101185407D01*
X144428677Y-101022772D01*
X145135784Y-101729879D01*
X145135784Y-101729879D01*
G37*
D14*
X144418070Y-101740486D03*
D10*
G36*
X144852941Y-102012722D02*
X144690306Y-102175357D01*
X143983199Y-101468250D01*
X144145834Y-101305615D01*
X144852941Y-102012722D01*
X144852941Y-102012722D01*
G37*
D14*
X144135227Y-102023328D03*
D10*
G36*
X144570098Y-102295564D02*
X144407463Y-102458199D01*
X143700356Y-101751092D01*
X143862991Y-101588457D01*
X144570098Y-102295564D01*
X144570098Y-102295564D01*
G37*
D14*
X143852385Y-102306171D03*
D10*
G36*
X144287256Y-102578407D02*
X144124621Y-102741042D01*
X143417514Y-102033935D01*
X143580149Y-101871300D01*
X144287256Y-102578407D01*
X144287256Y-102578407D01*
G37*
D14*
X143569542Y-102589014D03*
D10*
G36*
X144004413Y-102861250D02*
X143841778Y-103023885D01*
X143134671Y-102316778D01*
X143297306Y-102154143D01*
X144004413Y-102861250D01*
X144004413Y-102861250D01*
G37*
D14*
X143286699Y-102871856D03*
D10*
G36*
X143721570Y-103144092D02*
X143558935Y-103306727D01*
X142851828Y-102599620D01*
X143014463Y-102436985D01*
X143721570Y-103144092D01*
X143721570Y-103144092D01*
G37*
D14*
X143003856Y-103154699D03*
D10*
G36*
X143438727Y-103426935D02*
X143276092Y-103589570D01*
X142568985Y-102882463D01*
X142731620Y-102719828D01*
X143438727Y-103426935D01*
X143438727Y-103426935D01*
G37*
D14*
X142721014Y-103437542D03*
D10*
G36*
X143155885Y-103709778D02*
X142993250Y-103872413D01*
X142286143Y-103165306D01*
X142448778Y-103002671D01*
X143155885Y-103709778D01*
X143155885Y-103709778D01*
G37*
D14*
X142438171Y-103720385D03*
D10*
G36*
X142873042Y-103992621D02*
X142710407Y-104155256D01*
X142003300Y-103448149D01*
X142165935Y-103285514D01*
X142873042Y-103992621D01*
X142873042Y-103992621D01*
G37*
D14*
X142155328Y-104003227D03*
D10*
G36*
X142590199Y-104275463D02*
X142427564Y-104438098D01*
X141720457Y-103730991D01*
X141883092Y-103568356D01*
X142590199Y-104275463D01*
X142590199Y-104275463D01*
G37*
D14*
X141872486Y-104286070D03*
D10*
G36*
X142307357Y-104558306D02*
X142144722Y-104720941D01*
X141437615Y-104013834D01*
X141600250Y-103851199D01*
X142307357Y-104558306D01*
X142307357Y-104558306D01*
G37*
D14*
X141589643Y-104568913D03*
D10*
G36*
X142024514Y-104841149D02*
X141861879Y-105003784D01*
X141154772Y-104296677D01*
X141317407Y-104134042D01*
X142024514Y-104841149D01*
X142024514Y-104841149D01*
G37*
D14*
X141306800Y-104851755D03*
D10*
G36*
X141741671Y-105123991D02*
X141579036Y-105286626D01*
X140871929Y-104579519D01*
X141034564Y-104416884D01*
X141741671Y-105123991D01*
X141741671Y-105123991D01*
G37*
D14*
X141023957Y-105134598D03*
D10*
G36*
X141458828Y-105406834D02*
X141296193Y-105569469D01*
X140589086Y-104862362D01*
X140751721Y-104699727D01*
X141458828Y-105406834D01*
X141458828Y-105406834D01*
G37*
D14*
X140741115Y-105417441D03*
D10*
G36*
X141175986Y-105689677D02*
X141013351Y-105852312D01*
X140306244Y-105145205D01*
X140468879Y-104982570D01*
X141175986Y-105689677D01*
X141175986Y-105689677D01*
G37*
D14*
X140458272Y-105700284D03*
D10*
G36*
X140893143Y-105972520D02*
X140730508Y-106135155D01*
X140023401Y-105428048D01*
X140186036Y-105265413D01*
X140893143Y-105972520D01*
X140893143Y-105972520D01*
G37*
D14*
X140175429Y-105983126D03*
D10*
G36*
X140610300Y-106255362D02*
X140447665Y-106417997D01*
X139740558Y-105710890D01*
X139903193Y-105548255D01*
X140610300Y-106255362D01*
X140610300Y-106255362D01*
G37*
D14*
X139892587Y-106265969D03*
D10*
G36*
X140327458Y-106538205D02*
X140164823Y-106700840D01*
X139457716Y-105993733D01*
X139620351Y-105831098D01*
X140327458Y-106538205D01*
X140327458Y-106538205D01*
G37*
D14*
X139609744Y-106548812D03*
D10*
G36*
X140044615Y-106821048D02*
X139881980Y-106983683D01*
X139174873Y-106276576D01*
X139337508Y-106113941D01*
X140044615Y-106821048D01*
X140044615Y-106821048D01*
G37*
D14*
X139326901Y-106831654D03*
D10*
G36*
X139761772Y-107103890D02*
X139599137Y-107266525D01*
X138892030Y-106559418D01*
X139054665Y-106396783D01*
X139761772Y-107103890D01*
X139761772Y-107103890D01*
G37*
D14*
X139044058Y-107114497D03*
D10*
G36*
X139478929Y-107386733D02*
X139316294Y-107549368D01*
X138609187Y-106842261D01*
X138771822Y-106679626D01*
X139478929Y-107386733D01*
X139478929Y-107386733D01*
G37*
D14*
X138761216Y-107397340D03*
D10*
G36*
X139196087Y-107669576D02*
X139033452Y-107832211D01*
X138326345Y-107125104D01*
X138488980Y-106962469D01*
X139196087Y-107669576D01*
X139196087Y-107669576D01*
G37*
G04 #@! TD*
D15*
G04 #@! TO.C,Y1*
X156794200Y-94564000D03*
X154594200Y-94564000D03*
X154594200Y-92964000D03*
X156794200Y-92964000D03*
G04 #@! TD*
D10*
G04 #@! TO.C,C3*
G36*
X163152779Y-112810144D02*
X163175834Y-112813563D01*
X163198443Y-112819227D01*
X163220387Y-112827079D01*
X163241457Y-112837044D01*
X163261448Y-112849026D01*
X163280168Y-112862910D01*
X163297438Y-112878562D01*
X163313090Y-112895832D01*
X163326974Y-112914552D01*
X163338956Y-112934543D01*
X163348921Y-112955613D01*
X163356773Y-112977557D01*
X163362437Y-113000166D01*
X163365856Y-113023221D01*
X163367000Y-113046500D01*
X163367000Y-113521500D01*
X163365856Y-113544779D01*
X163362437Y-113567834D01*
X163356773Y-113590443D01*
X163348921Y-113612387D01*
X163338956Y-113633457D01*
X163326974Y-113653448D01*
X163313090Y-113672168D01*
X163297438Y-113689438D01*
X163280168Y-113705090D01*
X163261448Y-113718974D01*
X163241457Y-113730956D01*
X163220387Y-113740921D01*
X163198443Y-113748773D01*
X163175834Y-113754437D01*
X163152779Y-113757856D01*
X163129500Y-113759000D01*
X162554500Y-113759000D01*
X162531221Y-113757856D01*
X162508166Y-113754437D01*
X162485557Y-113748773D01*
X162463613Y-113740921D01*
X162442543Y-113730956D01*
X162422552Y-113718974D01*
X162403832Y-113705090D01*
X162386562Y-113689438D01*
X162370910Y-113672168D01*
X162357026Y-113653448D01*
X162345044Y-113633457D01*
X162335079Y-113612387D01*
X162327227Y-113590443D01*
X162321563Y-113567834D01*
X162318144Y-113544779D01*
X162317000Y-113521500D01*
X162317000Y-113046500D01*
X162318144Y-113023221D01*
X162321563Y-113000166D01*
X162327227Y-112977557D01*
X162335079Y-112955613D01*
X162345044Y-112934543D01*
X162357026Y-112914552D01*
X162370910Y-112895832D01*
X162386562Y-112878562D01*
X162403832Y-112862910D01*
X162422552Y-112849026D01*
X162442543Y-112837044D01*
X162463613Y-112827079D01*
X162485557Y-112819227D01*
X162508166Y-112813563D01*
X162531221Y-112810144D01*
X162554500Y-112809000D01*
X163129500Y-112809000D01*
X163152779Y-112810144D01*
X163152779Y-112810144D01*
G37*
D11*
X162842000Y-113284000D03*
D10*
G36*
X164902779Y-112810144D02*
X164925834Y-112813563D01*
X164948443Y-112819227D01*
X164970387Y-112827079D01*
X164991457Y-112837044D01*
X165011448Y-112849026D01*
X165030168Y-112862910D01*
X165047438Y-112878562D01*
X165063090Y-112895832D01*
X165076974Y-112914552D01*
X165088956Y-112934543D01*
X165098921Y-112955613D01*
X165106773Y-112977557D01*
X165112437Y-113000166D01*
X165115856Y-113023221D01*
X165117000Y-113046500D01*
X165117000Y-113521500D01*
X165115856Y-113544779D01*
X165112437Y-113567834D01*
X165106773Y-113590443D01*
X165098921Y-113612387D01*
X165088956Y-113633457D01*
X165076974Y-113653448D01*
X165063090Y-113672168D01*
X165047438Y-113689438D01*
X165030168Y-113705090D01*
X165011448Y-113718974D01*
X164991457Y-113730956D01*
X164970387Y-113740921D01*
X164948443Y-113748773D01*
X164925834Y-113754437D01*
X164902779Y-113757856D01*
X164879500Y-113759000D01*
X164304500Y-113759000D01*
X164281221Y-113757856D01*
X164258166Y-113754437D01*
X164235557Y-113748773D01*
X164213613Y-113740921D01*
X164192543Y-113730956D01*
X164172552Y-113718974D01*
X164153832Y-113705090D01*
X164136562Y-113689438D01*
X164120910Y-113672168D01*
X164107026Y-113653448D01*
X164095044Y-113633457D01*
X164085079Y-113612387D01*
X164077227Y-113590443D01*
X164071563Y-113567834D01*
X164068144Y-113544779D01*
X164067000Y-113521500D01*
X164067000Y-113046500D01*
X164068144Y-113023221D01*
X164071563Y-113000166D01*
X164077227Y-112977557D01*
X164085079Y-112955613D01*
X164095044Y-112934543D01*
X164107026Y-112914552D01*
X164120910Y-112895832D01*
X164136562Y-112878562D01*
X164153832Y-112862910D01*
X164172552Y-112849026D01*
X164192543Y-112837044D01*
X164213613Y-112827079D01*
X164235557Y-112819227D01*
X164258166Y-112813563D01*
X164281221Y-112810144D01*
X164304500Y-112809000D01*
X164879500Y-112809000D01*
X164902779Y-112810144D01*
X164902779Y-112810144D01*
G37*
D11*
X164592000Y-113284000D03*
G04 #@! TD*
D10*
G04 #@! TO.C,C4*
G36*
X164902779Y-127542144D02*
X164925834Y-127545563D01*
X164948443Y-127551227D01*
X164970387Y-127559079D01*
X164991457Y-127569044D01*
X165011448Y-127581026D01*
X165030168Y-127594910D01*
X165047438Y-127610562D01*
X165063090Y-127627832D01*
X165076974Y-127646552D01*
X165088956Y-127666543D01*
X165098921Y-127687613D01*
X165106773Y-127709557D01*
X165112437Y-127732166D01*
X165115856Y-127755221D01*
X165117000Y-127778500D01*
X165117000Y-128253500D01*
X165115856Y-128276779D01*
X165112437Y-128299834D01*
X165106773Y-128322443D01*
X165098921Y-128344387D01*
X165088956Y-128365457D01*
X165076974Y-128385448D01*
X165063090Y-128404168D01*
X165047438Y-128421438D01*
X165030168Y-128437090D01*
X165011448Y-128450974D01*
X164991457Y-128462956D01*
X164970387Y-128472921D01*
X164948443Y-128480773D01*
X164925834Y-128486437D01*
X164902779Y-128489856D01*
X164879500Y-128491000D01*
X164304500Y-128491000D01*
X164281221Y-128489856D01*
X164258166Y-128486437D01*
X164235557Y-128480773D01*
X164213613Y-128472921D01*
X164192543Y-128462956D01*
X164172552Y-128450974D01*
X164153832Y-128437090D01*
X164136562Y-128421438D01*
X164120910Y-128404168D01*
X164107026Y-128385448D01*
X164095044Y-128365457D01*
X164085079Y-128344387D01*
X164077227Y-128322443D01*
X164071563Y-128299834D01*
X164068144Y-128276779D01*
X164067000Y-128253500D01*
X164067000Y-127778500D01*
X164068144Y-127755221D01*
X164071563Y-127732166D01*
X164077227Y-127709557D01*
X164085079Y-127687613D01*
X164095044Y-127666543D01*
X164107026Y-127646552D01*
X164120910Y-127627832D01*
X164136562Y-127610562D01*
X164153832Y-127594910D01*
X164172552Y-127581026D01*
X164192543Y-127569044D01*
X164213613Y-127559079D01*
X164235557Y-127551227D01*
X164258166Y-127545563D01*
X164281221Y-127542144D01*
X164304500Y-127541000D01*
X164879500Y-127541000D01*
X164902779Y-127542144D01*
X164902779Y-127542144D01*
G37*
D11*
X164592000Y-128016000D03*
D10*
G36*
X163152779Y-127542144D02*
X163175834Y-127545563D01*
X163198443Y-127551227D01*
X163220387Y-127559079D01*
X163241457Y-127569044D01*
X163261448Y-127581026D01*
X163280168Y-127594910D01*
X163297438Y-127610562D01*
X163313090Y-127627832D01*
X163326974Y-127646552D01*
X163338956Y-127666543D01*
X163348921Y-127687613D01*
X163356773Y-127709557D01*
X163362437Y-127732166D01*
X163365856Y-127755221D01*
X163367000Y-127778500D01*
X163367000Y-128253500D01*
X163365856Y-128276779D01*
X163362437Y-128299834D01*
X163356773Y-128322443D01*
X163348921Y-128344387D01*
X163338956Y-128365457D01*
X163326974Y-128385448D01*
X163313090Y-128404168D01*
X163297438Y-128421438D01*
X163280168Y-128437090D01*
X163261448Y-128450974D01*
X163241457Y-128462956D01*
X163220387Y-128472921D01*
X163198443Y-128480773D01*
X163175834Y-128486437D01*
X163152779Y-128489856D01*
X163129500Y-128491000D01*
X162554500Y-128491000D01*
X162531221Y-128489856D01*
X162508166Y-128486437D01*
X162485557Y-128480773D01*
X162463613Y-128472921D01*
X162442543Y-128462956D01*
X162422552Y-128450974D01*
X162403832Y-128437090D01*
X162386562Y-128421438D01*
X162370910Y-128404168D01*
X162357026Y-128385448D01*
X162345044Y-128365457D01*
X162335079Y-128344387D01*
X162327227Y-128322443D01*
X162321563Y-128299834D01*
X162318144Y-128276779D01*
X162317000Y-128253500D01*
X162317000Y-127778500D01*
X162318144Y-127755221D01*
X162321563Y-127732166D01*
X162327227Y-127709557D01*
X162335079Y-127687613D01*
X162345044Y-127666543D01*
X162357026Y-127646552D01*
X162370910Y-127627832D01*
X162386562Y-127610562D01*
X162403832Y-127594910D01*
X162422552Y-127581026D01*
X162442543Y-127569044D01*
X162463613Y-127559079D01*
X162485557Y-127551227D01*
X162508166Y-127545563D01*
X162531221Y-127542144D01*
X162554500Y-127541000D01*
X163129500Y-127541000D01*
X163152779Y-127542144D01*
X163152779Y-127542144D01*
G37*
D11*
X162842000Y-128016000D03*
G04 #@! TD*
D10*
G04 #@! TO.C,C5*
G36*
X169678779Y-103334144D02*
X169701834Y-103337563D01*
X169724443Y-103343227D01*
X169746387Y-103351079D01*
X169767457Y-103361044D01*
X169787448Y-103373026D01*
X169806168Y-103386910D01*
X169823438Y-103402562D01*
X169839090Y-103419832D01*
X169852974Y-103438552D01*
X169864956Y-103458543D01*
X169874921Y-103479613D01*
X169882773Y-103501557D01*
X169888437Y-103524166D01*
X169891856Y-103547221D01*
X169893000Y-103570500D01*
X169893000Y-104145500D01*
X169891856Y-104168779D01*
X169888437Y-104191834D01*
X169882773Y-104214443D01*
X169874921Y-104236387D01*
X169864956Y-104257457D01*
X169852974Y-104277448D01*
X169839090Y-104296168D01*
X169823438Y-104313438D01*
X169806168Y-104329090D01*
X169787448Y-104342974D01*
X169767457Y-104354956D01*
X169746387Y-104364921D01*
X169724443Y-104372773D01*
X169701834Y-104378437D01*
X169678779Y-104381856D01*
X169655500Y-104383000D01*
X169180500Y-104383000D01*
X169157221Y-104381856D01*
X169134166Y-104378437D01*
X169111557Y-104372773D01*
X169089613Y-104364921D01*
X169068543Y-104354956D01*
X169048552Y-104342974D01*
X169029832Y-104329090D01*
X169012562Y-104313438D01*
X168996910Y-104296168D01*
X168983026Y-104277448D01*
X168971044Y-104257457D01*
X168961079Y-104236387D01*
X168953227Y-104214443D01*
X168947563Y-104191834D01*
X168944144Y-104168779D01*
X168943000Y-104145500D01*
X168943000Y-103570500D01*
X168944144Y-103547221D01*
X168947563Y-103524166D01*
X168953227Y-103501557D01*
X168961079Y-103479613D01*
X168971044Y-103458543D01*
X168983026Y-103438552D01*
X168996910Y-103419832D01*
X169012562Y-103402562D01*
X169029832Y-103386910D01*
X169048552Y-103373026D01*
X169068543Y-103361044D01*
X169089613Y-103351079D01*
X169111557Y-103343227D01*
X169134166Y-103337563D01*
X169157221Y-103334144D01*
X169180500Y-103333000D01*
X169655500Y-103333000D01*
X169678779Y-103334144D01*
X169678779Y-103334144D01*
G37*
D11*
X169418000Y-103858000D03*
D10*
G36*
X169678779Y-101584144D02*
X169701834Y-101587563D01*
X169724443Y-101593227D01*
X169746387Y-101601079D01*
X169767457Y-101611044D01*
X169787448Y-101623026D01*
X169806168Y-101636910D01*
X169823438Y-101652562D01*
X169839090Y-101669832D01*
X169852974Y-101688552D01*
X169864956Y-101708543D01*
X169874921Y-101729613D01*
X169882773Y-101751557D01*
X169888437Y-101774166D01*
X169891856Y-101797221D01*
X169893000Y-101820500D01*
X169893000Y-102395500D01*
X169891856Y-102418779D01*
X169888437Y-102441834D01*
X169882773Y-102464443D01*
X169874921Y-102486387D01*
X169864956Y-102507457D01*
X169852974Y-102527448D01*
X169839090Y-102546168D01*
X169823438Y-102563438D01*
X169806168Y-102579090D01*
X169787448Y-102592974D01*
X169767457Y-102604956D01*
X169746387Y-102614921D01*
X169724443Y-102622773D01*
X169701834Y-102628437D01*
X169678779Y-102631856D01*
X169655500Y-102633000D01*
X169180500Y-102633000D01*
X169157221Y-102631856D01*
X169134166Y-102628437D01*
X169111557Y-102622773D01*
X169089613Y-102614921D01*
X169068543Y-102604956D01*
X169048552Y-102592974D01*
X169029832Y-102579090D01*
X169012562Y-102563438D01*
X168996910Y-102546168D01*
X168983026Y-102527448D01*
X168971044Y-102507457D01*
X168961079Y-102486387D01*
X168953227Y-102464443D01*
X168947563Y-102441834D01*
X168944144Y-102418779D01*
X168943000Y-102395500D01*
X168943000Y-101820500D01*
X168944144Y-101797221D01*
X168947563Y-101774166D01*
X168953227Y-101751557D01*
X168961079Y-101729613D01*
X168971044Y-101708543D01*
X168983026Y-101688552D01*
X168996910Y-101669832D01*
X169012562Y-101652562D01*
X169029832Y-101636910D01*
X169048552Y-101623026D01*
X169068543Y-101611044D01*
X169089613Y-101601079D01*
X169111557Y-101593227D01*
X169134166Y-101587563D01*
X169157221Y-101584144D01*
X169180500Y-101583000D01*
X169655500Y-101583000D01*
X169678779Y-101584144D01*
X169678779Y-101584144D01*
G37*
D11*
X169418000Y-102108000D03*
G04 #@! TD*
D10*
G04 #@! TO.C,C6*
G36*
X155137779Y-95792144D02*
X155160834Y-95795563D01*
X155183443Y-95801227D01*
X155205387Y-95809079D01*
X155226457Y-95819044D01*
X155246448Y-95831026D01*
X155265168Y-95844910D01*
X155282438Y-95860562D01*
X155298090Y-95877832D01*
X155311974Y-95896552D01*
X155323956Y-95916543D01*
X155333921Y-95937613D01*
X155341773Y-95959557D01*
X155347437Y-95982166D01*
X155350856Y-96005221D01*
X155352000Y-96028500D01*
X155352000Y-96503500D01*
X155350856Y-96526779D01*
X155347437Y-96549834D01*
X155341773Y-96572443D01*
X155333921Y-96594387D01*
X155323956Y-96615457D01*
X155311974Y-96635448D01*
X155298090Y-96654168D01*
X155282438Y-96671438D01*
X155265168Y-96687090D01*
X155246448Y-96700974D01*
X155226457Y-96712956D01*
X155205387Y-96722921D01*
X155183443Y-96730773D01*
X155160834Y-96736437D01*
X155137779Y-96739856D01*
X155114500Y-96741000D01*
X154539500Y-96741000D01*
X154516221Y-96739856D01*
X154493166Y-96736437D01*
X154470557Y-96730773D01*
X154448613Y-96722921D01*
X154427543Y-96712956D01*
X154407552Y-96700974D01*
X154388832Y-96687090D01*
X154371562Y-96671438D01*
X154355910Y-96654168D01*
X154342026Y-96635448D01*
X154330044Y-96615457D01*
X154320079Y-96594387D01*
X154312227Y-96572443D01*
X154306563Y-96549834D01*
X154303144Y-96526779D01*
X154302000Y-96503500D01*
X154302000Y-96028500D01*
X154303144Y-96005221D01*
X154306563Y-95982166D01*
X154312227Y-95959557D01*
X154320079Y-95937613D01*
X154330044Y-95916543D01*
X154342026Y-95896552D01*
X154355910Y-95877832D01*
X154371562Y-95860562D01*
X154388832Y-95844910D01*
X154407552Y-95831026D01*
X154427543Y-95819044D01*
X154448613Y-95809079D01*
X154470557Y-95801227D01*
X154493166Y-95795563D01*
X154516221Y-95792144D01*
X154539500Y-95791000D01*
X155114500Y-95791000D01*
X155137779Y-95792144D01*
X155137779Y-95792144D01*
G37*
D11*
X154827000Y-96266000D03*
D10*
G36*
X156887779Y-95792144D02*
X156910834Y-95795563D01*
X156933443Y-95801227D01*
X156955387Y-95809079D01*
X156976457Y-95819044D01*
X156996448Y-95831026D01*
X157015168Y-95844910D01*
X157032438Y-95860562D01*
X157048090Y-95877832D01*
X157061974Y-95896552D01*
X157073956Y-95916543D01*
X157083921Y-95937613D01*
X157091773Y-95959557D01*
X157097437Y-95982166D01*
X157100856Y-96005221D01*
X157102000Y-96028500D01*
X157102000Y-96503500D01*
X157100856Y-96526779D01*
X157097437Y-96549834D01*
X157091773Y-96572443D01*
X157083921Y-96594387D01*
X157073956Y-96615457D01*
X157061974Y-96635448D01*
X157048090Y-96654168D01*
X157032438Y-96671438D01*
X157015168Y-96687090D01*
X156996448Y-96700974D01*
X156976457Y-96712956D01*
X156955387Y-96722921D01*
X156933443Y-96730773D01*
X156910834Y-96736437D01*
X156887779Y-96739856D01*
X156864500Y-96741000D01*
X156289500Y-96741000D01*
X156266221Y-96739856D01*
X156243166Y-96736437D01*
X156220557Y-96730773D01*
X156198613Y-96722921D01*
X156177543Y-96712956D01*
X156157552Y-96700974D01*
X156138832Y-96687090D01*
X156121562Y-96671438D01*
X156105910Y-96654168D01*
X156092026Y-96635448D01*
X156080044Y-96615457D01*
X156070079Y-96594387D01*
X156062227Y-96572443D01*
X156056563Y-96549834D01*
X156053144Y-96526779D01*
X156052000Y-96503500D01*
X156052000Y-96028500D01*
X156053144Y-96005221D01*
X156056563Y-95982166D01*
X156062227Y-95959557D01*
X156070079Y-95937613D01*
X156080044Y-95916543D01*
X156092026Y-95896552D01*
X156105910Y-95877832D01*
X156121562Y-95860562D01*
X156138832Y-95844910D01*
X156157552Y-95831026D01*
X156177543Y-95819044D01*
X156198613Y-95809079D01*
X156220557Y-95801227D01*
X156243166Y-95795563D01*
X156266221Y-95792144D01*
X156289500Y-95791000D01*
X156864500Y-95791000D01*
X156887779Y-95792144D01*
X156887779Y-95792144D01*
G37*
D11*
X156577000Y-96266000D03*
G04 #@! TD*
D10*
G04 #@! TO.C,C7*
G36*
X169192779Y-104936144D02*
X169215834Y-104939563D01*
X169238443Y-104945227D01*
X169260387Y-104953079D01*
X169281457Y-104963044D01*
X169301448Y-104975026D01*
X169320168Y-104988910D01*
X169337438Y-105004562D01*
X169353090Y-105021832D01*
X169366974Y-105040552D01*
X169378956Y-105060543D01*
X169388921Y-105081613D01*
X169396773Y-105103557D01*
X169402437Y-105126166D01*
X169405856Y-105149221D01*
X169407000Y-105172500D01*
X169407000Y-105647500D01*
X169405856Y-105670779D01*
X169402437Y-105693834D01*
X169396773Y-105716443D01*
X169388921Y-105738387D01*
X169378956Y-105759457D01*
X169366974Y-105779448D01*
X169353090Y-105798168D01*
X169337438Y-105815438D01*
X169320168Y-105831090D01*
X169301448Y-105844974D01*
X169281457Y-105856956D01*
X169260387Y-105866921D01*
X169238443Y-105874773D01*
X169215834Y-105880437D01*
X169192779Y-105883856D01*
X169169500Y-105885000D01*
X168594500Y-105885000D01*
X168571221Y-105883856D01*
X168548166Y-105880437D01*
X168525557Y-105874773D01*
X168503613Y-105866921D01*
X168482543Y-105856956D01*
X168462552Y-105844974D01*
X168443832Y-105831090D01*
X168426562Y-105815438D01*
X168410910Y-105798168D01*
X168397026Y-105779448D01*
X168385044Y-105759457D01*
X168375079Y-105738387D01*
X168367227Y-105716443D01*
X168361563Y-105693834D01*
X168358144Y-105670779D01*
X168357000Y-105647500D01*
X168357000Y-105172500D01*
X168358144Y-105149221D01*
X168361563Y-105126166D01*
X168367227Y-105103557D01*
X168375079Y-105081613D01*
X168385044Y-105060543D01*
X168397026Y-105040552D01*
X168410910Y-105021832D01*
X168426562Y-105004562D01*
X168443832Y-104988910D01*
X168462552Y-104975026D01*
X168482543Y-104963044D01*
X168503613Y-104953079D01*
X168525557Y-104945227D01*
X168548166Y-104939563D01*
X168571221Y-104936144D01*
X168594500Y-104935000D01*
X169169500Y-104935000D01*
X169192779Y-104936144D01*
X169192779Y-104936144D01*
G37*
D11*
X168882000Y-105410000D03*
D10*
G36*
X167442779Y-104936144D02*
X167465834Y-104939563D01*
X167488443Y-104945227D01*
X167510387Y-104953079D01*
X167531457Y-104963044D01*
X167551448Y-104975026D01*
X167570168Y-104988910D01*
X167587438Y-105004562D01*
X167603090Y-105021832D01*
X167616974Y-105040552D01*
X167628956Y-105060543D01*
X167638921Y-105081613D01*
X167646773Y-105103557D01*
X167652437Y-105126166D01*
X167655856Y-105149221D01*
X167657000Y-105172500D01*
X167657000Y-105647500D01*
X167655856Y-105670779D01*
X167652437Y-105693834D01*
X167646773Y-105716443D01*
X167638921Y-105738387D01*
X167628956Y-105759457D01*
X167616974Y-105779448D01*
X167603090Y-105798168D01*
X167587438Y-105815438D01*
X167570168Y-105831090D01*
X167551448Y-105844974D01*
X167531457Y-105856956D01*
X167510387Y-105866921D01*
X167488443Y-105874773D01*
X167465834Y-105880437D01*
X167442779Y-105883856D01*
X167419500Y-105885000D01*
X166844500Y-105885000D01*
X166821221Y-105883856D01*
X166798166Y-105880437D01*
X166775557Y-105874773D01*
X166753613Y-105866921D01*
X166732543Y-105856956D01*
X166712552Y-105844974D01*
X166693832Y-105831090D01*
X166676562Y-105815438D01*
X166660910Y-105798168D01*
X166647026Y-105779448D01*
X166635044Y-105759457D01*
X166625079Y-105738387D01*
X166617227Y-105716443D01*
X166611563Y-105693834D01*
X166608144Y-105670779D01*
X166607000Y-105647500D01*
X166607000Y-105172500D01*
X166608144Y-105149221D01*
X166611563Y-105126166D01*
X166617227Y-105103557D01*
X166625079Y-105081613D01*
X166635044Y-105060543D01*
X166647026Y-105040552D01*
X166660910Y-105021832D01*
X166676562Y-105004562D01*
X166693832Y-104988910D01*
X166712552Y-104975026D01*
X166732543Y-104963044D01*
X166753613Y-104953079D01*
X166775557Y-104945227D01*
X166798166Y-104939563D01*
X166821221Y-104936144D01*
X166844500Y-104935000D01*
X167419500Y-104935000D01*
X167442779Y-104936144D01*
X167442779Y-104936144D01*
G37*
D11*
X167132000Y-105410000D03*
G04 #@! TD*
D10*
G04 #@! TO.C,C9*
G36*
X167442779Y-110651144D02*
X167465834Y-110654563D01*
X167488443Y-110660227D01*
X167510387Y-110668079D01*
X167531457Y-110678044D01*
X167551448Y-110690026D01*
X167570168Y-110703910D01*
X167587438Y-110719562D01*
X167603090Y-110736832D01*
X167616974Y-110755552D01*
X167628956Y-110775543D01*
X167638921Y-110796613D01*
X167646773Y-110818557D01*
X167652437Y-110841166D01*
X167655856Y-110864221D01*
X167657000Y-110887500D01*
X167657000Y-111362500D01*
X167655856Y-111385779D01*
X167652437Y-111408834D01*
X167646773Y-111431443D01*
X167638921Y-111453387D01*
X167628956Y-111474457D01*
X167616974Y-111494448D01*
X167603090Y-111513168D01*
X167587438Y-111530438D01*
X167570168Y-111546090D01*
X167551448Y-111559974D01*
X167531457Y-111571956D01*
X167510387Y-111581921D01*
X167488443Y-111589773D01*
X167465834Y-111595437D01*
X167442779Y-111598856D01*
X167419500Y-111600000D01*
X166844500Y-111600000D01*
X166821221Y-111598856D01*
X166798166Y-111595437D01*
X166775557Y-111589773D01*
X166753613Y-111581921D01*
X166732543Y-111571956D01*
X166712552Y-111559974D01*
X166693832Y-111546090D01*
X166676562Y-111530438D01*
X166660910Y-111513168D01*
X166647026Y-111494448D01*
X166635044Y-111474457D01*
X166625079Y-111453387D01*
X166617227Y-111431443D01*
X166611563Y-111408834D01*
X166608144Y-111385779D01*
X166607000Y-111362500D01*
X166607000Y-110887500D01*
X166608144Y-110864221D01*
X166611563Y-110841166D01*
X166617227Y-110818557D01*
X166625079Y-110796613D01*
X166635044Y-110775543D01*
X166647026Y-110755552D01*
X166660910Y-110736832D01*
X166676562Y-110719562D01*
X166693832Y-110703910D01*
X166712552Y-110690026D01*
X166732543Y-110678044D01*
X166753613Y-110668079D01*
X166775557Y-110660227D01*
X166798166Y-110654563D01*
X166821221Y-110651144D01*
X166844500Y-110650000D01*
X167419500Y-110650000D01*
X167442779Y-110651144D01*
X167442779Y-110651144D01*
G37*
D11*
X167132000Y-111125000D03*
D10*
G36*
X169192779Y-110651144D02*
X169215834Y-110654563D01*
X169238443Y-110660227D01*
X169260387Y-110668079D01*
X169281457Y-110678044D01*
X169301448Y-110690026D01*
X169320168Y-110703910D01*
X169337438Y-110719562D01*
X169353090Y-110736832D01*
X169366974Y-110755552D01*
X169378956Y-110775543D01*
X169388921Y-110796613D01*
X169396773Y-110818557D01*
X169402437Y-110841166D01*
X169405856Y-110864221D01*
X169407000Y-110887500D01*
X169407000Y-111362500D01*
X169405856Y-111385779D01*
X169402437Y-111408834D01*
X169396773Y-111431443D01*
X169388921Y-111453387D01*
X169378956Y-111474457D01*
X169366974Y-111494448D01*
X169353090Y-111513168D01*
X169337438Y-111530438D01*
X169320168Y-111546090D01*
X169301448Y-111559974D01*
X169281457Y-111571956D01*
X169260387Y-111581921D01*
X169238443Y-111589773D01*
X169215834Y-111595437D01*
X169192779Y-111598856D01*
X169169500Y-111600000D01*
X168594500Y-111600000D01*
X168571221Y-111598856D01*
X168548166Y-111595437D01*
X168525557Y-111589773D01*
X168503613Y-111581921D01*
X168482543Y-111571956D01*
X168462552Y-111559974D01*
X168443832Y-111546090D01*
X168426562Y-111530438D01*
X168410910Y-111513168D01*
X168397026Y-111494448D01*
X168385044Y-111474457D01*
X168375079Y-111453387D01*
X168367227Y-111431443D01*
X168361563Y-111408834D01*
X168358144Y-111385779D01*
X168357000Y-111362500D01*
X168357000Y-110887500D01*
X168358144Y-110864221D01*
X168361563Y-110841166D01*
X168367227Y-110818557D01*
X168375079Y-110796613D01*
X168385044Y-110775543D01*
X168397026Y-110755552D01*
X168410910Y-110736832D01*
X168426562Y-110719562D01*
X168443832Y-110703910D01*
X168462552Y-110690026D01*
X168482543Y-110678044D01*
X168503613Y-110668079D01*
X168525557Y-110660227D01*
X168548166Y-110654563D01*
X168571221Y-110651144D01*
X168594500Y-110650000D01*
X169169500Y-110650000D01*
X169192779Y-110651144D01*
X169192779Y-110651144D01*
G37*
D11*
X168882000Y-111125000D03*
G04 #@! TD*
D10*
G04 #@! TO.C,C11*
G36*
X142266070Y-96452977D02*
X142289125Y-96456396D01*
X142311734Y-96462060D01*
X142333678Y-96469912D01*
X142354748Y-96479877D01*
X142374739Y-96491859D01*
X142393459Y-96505743D01*
X142410729Y-96521395D01*
X142746605Y-96857271D01*
X142762257Y-96874541D01*
X142776141Y-96893261D01*
X142788123Y-96913252D01*
X142798088Y-96934322D01*
X142805940Y-96956266D01*
X142811604Y-96978875D01*
X142815023Y-97001930D01*
X142816167Y-97025209D01*
X142815023Y-97048488D01*
X142811604Y-97071543D01*
X142805940Y-97094152D01*
X142798088Y-97116096D01*
X142788123Y-97137166D01*
X142776141Y-97157157D01*
X142762257Y-97175877D01*
X142746605Y-97193147D01*
X142340019Y-97599733D01*
X142322749Y-97615385D01*
X142304029Y-97629269D01*
X142284038Y-97641251D01*
X142262968Y-97651216D01*
X142241024Y-97659068D01*
X142218415Y-97664732D01*
X142195360Y-97668151D01*
X142172081Y-97669295D01*
X142148802Y-97668151D01*
X142125747Y-97664732D01*
X142103138Y-97659068D01*
X142081194Y-97651216D01*
X142060124Y-97641251D01*
X142040133Y-97629269D01*
X142021413Y-97615385D01*
X142004143Y-97599733D01*
X141668267Y-97263857D01*
X141652615Y-97246587D01*
X141638731Y-97227867D01*
X141626749Y-97207876D01*
X141616784Y-97186806D01*
X141608932Y-97164862D01*
X141603268Y-97142253D01*
X141599849Y-97119198D01*
X141598705Y-97095919D01*
X141599849Y-97072640D01*
X141603268Y-97049585D01*
X141608932Y-97026976D01*
X141616784Y-97005032D01*
X141626749Y-96983962D01*
X141638731Y-96963971D01*
X141652615Y-96945251D01*
X141668267Y-96927981D01*
X142074853Y-96521395D01*
X142092123Y-96505743D01*
X142110843Y-96491859D01*
X142130834Y-96479877D01*
X142151904Y-96469912D01*
X142173848Y-96462060D01*
X142196457Y-96456396D01*
X142219512Y-96452977D01*
X142242791Y-96451833D01*
X142266070Y-96452977D01*
X142266070Y-96452977D01*
G37*
D11*
X142207436Y-97060564D03*
D10*
G36*
X141028634Y-97690413D02*
X141051689Y-97693832D01*
X141074298Y-97699496D01*
X141096242Y-97707348D01*
X141117312Y-97717313D01*
X141137303Y-97729295D01*
X141156023Y-97743179D01*
X141173293Y-97758831D01*
X141509169Y-98094707D01*
X141524821Y-98111977D01*
X141538705Y-98130697D01*
X141550687Y-98150688D01*
X141560652Y-98171758D01*
X141568504Y-98193702D01*
X141574168Y-98216311D01*
X141577587Y-98239366D01*
X141578731Y-98262645D01*
X141577587Y-98285924D01*
X141574168Y-98308979D01*
X141568504Y-98331588D01*
X141560652Y-98353532D01*
X141550687Y-98374602D01*
X141538705Y-98394593D01*
X141524821Y-98413313D01*
X141509169Y-98430583D01*
X141102583Y-98837169D01*
X141085313Y-98852821D01*
X141066593Y-98866705D01*
X141046602Y-98878687D01*
X141025532Y-98888652D01*
X141003588Y-98896504D01*
X140980979Y-98902168D01*
X140957924Y-98905587D01*
X140934645Y-98906731D01*
X140911366Y-98905587D01*
X140888311Y-98902168D01*
X140865702Y-98896504D01*
X140843758Y-98888652D01*
X140822688Y-98878687D01*
X140802697Y-98866705D01*
X140783977Y-98852821D01*
X140766707Y-98837169D01*
X140430831Y-98501293D01*
X140415179Y-98484023D01*
X140401295Y-98465303D01*
X140389313Y-98445312D01*
X140379348Y-98424242D01*
X140371496Y-98402298D01*
X140365832Y-98379689D01*
X140362413Y-98356634D01*
X140361269Y-98333355D01*
X140362413Y-98310076D01*
X140365832Y-98287021D01*
X140371496Y-98264412D01*
X140379348Y-98242468D01*
X140389313Y-98221398D01*
X140401295Y-98201407D01*
X140415179Y-98182687D01*
X140430831Y-98165417D01*
X140837417Y-97758831D01*
X140854687Y-97743179D01*
X140873407Y-97729295D01*
X140893398Y-97717313D01*
X140914468Y-97707348D01*
X140936412Y-97699496D01*
X140959021Y-97693832D01*
X140982076Y-97690413D01*
X141005355Y-97689269D01*
X141028634Y-97690413D01*
X141028634Y-97690413D01*
G37*
D11*
X140970000Y-98298000D03*
G04 #@! TD*
D10*
G04 #@! TO.C,C12*
G36*
X142298634Y-98960413D02*
X142321689Y-98963832D01*
X142344298Y-98969496D01*
X142366242Y-98977348D01*
X142387312Y-98987313D01*
X142407303Y-98999295D01*
X142426023Y-99013179D01*
X142443293Y-99028831D01*
X142779169Y-99364707D01*
X142794821Y-99381977D01*
X142808705Y-99400697D01*
X142820687Y-99420688D01*
X142830652Y-99441758D01*
X142838504Y-99463702D01*
X142844168Y-99486311D01*
X142847587Y-99509366D01*
X142848731Y-99532645D01*
X142847587Y-99555924D01*
X142844168Y-99578979D01*
X142838504Y-99601588D01*
X142830652Y-99623532D01*
X142820687Y-99644602D01*
X142808705Y-99664593D01*
X142794821Y-99683313D01*
X142779169Y-99700583D01*
X142372583Y-100107169D01*
X142355313Y-100122821D01*
X142336593Y-100136705D01*
X142316602Y-100148687D01*
X142295532Y-100158652D01*
X142273588Y-100166504D01*
X142250979Y-100172168D01*
X142227924Y-100175587D01*
X142204645Y-100176731D01*
X142181366Y-100175587D01*
X142158311Y-100172168D01*
X142135702Y-100166504D01*
X142113758Y-100158652D01*
X142092688Y-100148687D01*
X142072697Y-100136705D01*
X142053977Y-100122821D01*
X142036707Y-100107169D01*
X141700831Y-99771293D01*
X141685179Y-99754023D01*
X141671295Y-99735303D01*
X141659313Y-99715312D01*
X141649348Y-99694242D01*
X141641496Y-99672298D01*
X141635832Y-99649689D01*
X141632413Y-99626634D01*
X141631269Y-99603355D01*
X141632413Y-99580076D01*
X141635832Y-99557021D01*
X141641496Y-99534412D01*
X141649348Y-99512468D01*
X141659313Y-99491398D01*
X141671295Y-99471407D01*
X141685179Y-99452687D01*
X141700831Y-99435417D01*
X142107417Y-99028831D01*
X142124687Y-99013179D01*
X142143407Y-98999295D01*
X142163398Y-98987313D01*
X142184468Y-98977348D01*
X142206412Y-98969496D01*
X142229021Y-98963832D01*
X142252076Y-98960413D01*
X142275355Y-98959269D01*
X142298634Y-98960413D01*
X142298634Y-98960413D01*
G37*
D11*
X142240000Y-99568000D03*
D10*
G36*
X143536070Y-97722977D02*
X143559125Y-97726396D01*
X143581734Y-97732060D01*
X143603678Y-97739912D01*
X143624748Y-97749877D01*
X143644739Y-97761859D01*
X143663459Y-97775743D01*
X143680729Y-97791395D01*
X144016605Y-98127271D01*
X144032257Y-98144541D01*
X144046141Y-98163261D01*
X144058123Y-98183252D01*
X144068088Y-98204322D01*
X144075940Y-98226266D01*
X144081604Y-98248875D01*
X144085023Y-98271930D01*
X144086167Y-98295209D01*
X144085023Y-98318488D01*
X144081604Y-98341543D01*
X144075940Y-98364152D01*
X144068088Y-98386096D01*
X144058123Y-98407166D01*
X144046141Y-98427157D01*
X144032257Y-98445877D01*
X144016605Y-98463147D01*
X143610019Y-98869733D01*
X143592749Y-98885385D01*
X143574029Y-98899269D01*
X143554038Y-98911251D01*
X143532968Y-98921216D01*
X143511024Y-98929068D01*
X143488415Y-98934732D01*
X143465360Y-98938151D01*
X143442081Y-98939295D01*
X143418802Y-98938151D01*
X143395747Y-98934732D01*
X143373138Y-98929068D01*
X143351194Y-98921216D01*
X143330124Y-98911251D01*
X143310133Y-98899269D01*
X143291413Y-98885385D01*
X143274143Y-98869733D01*
X142938267Y-98533857D01*
X142922615Y-98516587D01*
X142908731Y-98497867D01*
X142896749Y-98477876D01*
X142886784Y-98456806D01*
X142878932Y-98434862D01*
X142873268Y-98412253D01*
X142869849Y-98389198D01*
X142868705Y-98365919D01*
X142869849Y-98342640D01*
X142873268Y-98319585D01*
X142878932Y-98296976D01*
X142886784Y-98275032D01*
X142896749Y-98253962D01*
X142908731Y-98233971D01*
X142922615Y-98215251D01*
X142938267Y-98197981D01*
X143344853Y-97791395D01*
X143362123Y-97775743D01*
X143380843Y-97761859D01*
X143400834Y-97749877D01*
X143421904Y-97739912D01*
X143443848Y-97732060D01*
X143466457Y-97726396D01*
X143489512Y-97722977D01*
X143512791Y-97721833D01*
X143536070Y-97722977D01*
X143536070Y-97722977D01*
G37*
D11*
X143477436Y-98330564D03*
G04 #@! TD*
D10*
G04 #@! TO.C,C14*
G36*
X155137780Y-97570144D02*
X155160835Y-97573563D01*
X155183444Y-97579227D01*
X155205388Y-97587079D01*
X155226458Y-97597044D01*
X155246449Y-97609026D01*
X155265169Y-97622910D01*
X155282439Y-97638562D01*
X155298091Y-97655832D01*
X155311975Y-97674552D01*
X155323957Y-97694543D01*
X155333922Y-97715613D01*
X155341774Y-97737557D01*
X155347438Y-97760166D01*
X155350857Y-97783221D01*
X155352001Y-97806500D01*
X155352001Y-98281500D01*
X155350857Y-98304779D01*
X155347438Y-98327834D01*
X155341774Y-98350443D01*
X155333922Y-98372387D01*
X155323957Y-98393457D01*
X155311975Y-98413448D01*
X155298091Y-98432168D01*
X155282439Y-98449438D01*
X155265169Y-98465090D01*
X155246449Y-98478974D01*
X155226458Y-98490956D01*
X155205388Y-98500921D01*
X155183444Y-98508773D01*
X155160835Y-98514437D01*
X155137780Y-98517856D01*
X155114501Y-98519000D01*
X154539501Y-98519000D01*
X154516222Y-98517856D01*
X154493167Y-98514437D01*
X154470558Y-98508773D01*
X154448614Y-98500921D01*
X154427544Y-98490956D01*
X154407553Y-98478974D01*
X154388833Y-98465090D01*
X154371563Y-98449438D01*
X154355911Y-98432168D01*
X154342027Y-98413448D01*
X154330045Y-98393457D01*
X154320080Y-98372387D01*
X154312228Y-98350443D01*
X154306564Y-98327834D01*
X154303145Y-98304779D01*
X154302001Y-98281500D01*
X154302001Y-97806500D01*
X154303145Y-97783221D01*
X154306564Y-97760166D01*
X154312228Y-97737557D01*
X154320080Y-97715613D01*
X154330045Y-97694543D01*
X154342027Y-97674552D01*
X154355911Y-97655832D01*
X154371563Y-97638562D01*
X154388833Y-97622910D01*
X154407553Y-97609026D01*
X154427544Y-97597044D01*
X154448614Y-97587079D01*
X154470558Y-97579227D01*
X154493167Y-97573563D01*
X154516222Y-97570144D01*
X154539501Y-97569000D01*
X155114501Y-97569000D01*
X155137780Y-97570144D01*
X155137780Y-97570144D01*
G37*
D11*
X154827001Y-98044000D03*
D10*
G36*
X156887778Y-97570144D02*
X156910833Y-97573563D01*
X156933442Y-97579227D01*
X156955386Y-97587079D01*
X156976456Y-97597044D01*
X156996447Y-97609026D01*
X157015167Y-97622910D01*
X157032437Y-97638562D01*
X157048089Y-97655832D01*
X157061973Y-97674552D01*
X157073955Y-97694543D01*
X157083920Y-97715613D01*
X157091772Y-97737557D01*
X157097436Y-97760166D01*
X157100855Y-97783221D01*
X157101999Y-97806500D01*
X157101999Y-98281500D01*
X157100855Y-98304779D01*
X157097436Y-98327834D01*
X157091772Y-98350443D01*
X157083920Y-98372387D01*
X157073955Y-98393457D01*
X157061973Y-98413448D01*
X157048089Y-98432168D01*
X157032437Y-98449438D01*
X157015167Y-98465090D01*
X156996447Y-98478974D01*
X156976456Y-98490956D01*
X156955386Y-98500921D01*
X156933442Y-98508773D01*
X156910833Y-98514437D01*
X156887778Y-98517856D01*
X156864499Y-98519000D01*
X156289499Y-98519000D01*
X156266220Y-98517856D01*
X156243165Y-98514437D01*
X156220556Y-98508773D01*
X156198612Y-98500921D01*
X156177542Y-98490956D01*
X156157551Y-98478974D01*
X156138831Y-98465090D01*
X156121561Y-98449438D01*
X156105909Y-98432168D01*
X156092025Y-98413448D01*
X156080043Y-98393457D01*
X156070078Y-98372387D01*
X156062226Y-98350443D01*
X156056562Y-98327834D01*
X156053143Y-98304779D01*
X156051999Y-98281500D01*
X156051999Y-97806500D01*
X156053143Y-97783221D01*
X156056562Y-97760166D01*
X156062226Y-97737557D01*
X156070078Y-97715613D01*
X156080043Y-97694543D01*
X156092025Y-97674552D01*
X156105909Y-97655832D01*
X156121561Y-97638562D01*
X156138831Y-97622910D01*
X156157551Y-97609026D01*
X156177542Y-97597044D01*
X156198612Y-97587079D01*
X156220556Y-97579227D01*
X156243165Y-97573563D01*
X156266220Y-97570144D01*
X156289499Y-97569000D01*
X156864499Y-97569000D01*
X156887778Y-97570144D01*
X156887778Y-97570144D01*
G37*
D11*
X156576999Y-98044000D03*
G04 #@! TD*
D10*
G04 #@! TO.C,C15*
G36*
X145021924Y-118518413D02*
X145044979Y-118521832D01*
X145067588Y-118527496D01*
X145089532Y-118535348D01*
X145110602Y-118545313D01*
X145130593Y-118557295D01*
X145149313Y-118571179D01*
X145166583Y-118586831D01*
X145573169Y-118993417D01*
X145588821Y-119010687D01*
X145602705Y-119029407D01*
X145614687Y-119049398D01*
X145624652Y-119070468D01*
X145632504Y-119092412D01*
X145638168Y-119115021D01*
X145641587Y-119138076D01*
X145642731Y-119161355D01*
X145641587Y-119184634D01*
X145638168Y-119207689D01*
X145632504Y-119230298D01*
X145624652Y-119252242D01*
X145614687Y-119273312D01*
X145602705Y-119293303D01*
X145588821Y-119312023D01*
X145573169Y-119329293D01*
X145237293Y-119665169D01*
X145220023Y-119680821D01*
X145201303Y-119694705D01*
X145181312Y-119706687D01*
X145160242Y-119716652D01*
X145138298Y-119724504D01*
X145115689Y-119730168D01*
X145092634Y-119733587D01*
X145069355Y-119734731D01*
X145046076Y-119733587D01*
X145023021Y-119730168D01*
X145000412Y-119724504D01*
X144978468Y-119716652D01*
X144957398Y-119706687D01*
X144937407Y-119694705D01*
X144918687Y-119680821D01*
X144901417Y-119665169D01*
X144494831Y-119258583D01*
X144479179Y-119241313D01*
X144465295Y-119222593D01*
X144453313Y-119202602D01*
X144443348Y-119181532D01*
X144435496Y-119159588D01*
X144429832Y-119136979D01*
X144426413Y-119113924D01*
X144425269Y-119090645D01*
X144426413Y-119067366D01*
X144429832Y-119044311D01*
X144435496Y-119021702D01*
X144443348Y-118999758D01*
X144453313Y-118978688D01*
X144465295Y-118958697D01*
X144479179Y-118939977D01*
X144494831Y-118922707D01*
X144830707Y-118586831D01*
X144847977Y-118571179D01*
X144866697Y-118557295D01*
X144886688Y-118545313D01*
X144907758Y-118535348D01*
X144929702Y-118527496D01*
X144952311Y-118521832D01*
X144975366Y-118518413D01*
X144998645Y-118517269D01*
X145021924Y-118518413D01*
X145021924Y-118518413D01*
G37*
D11*
X145034000Y-119126000D03*
D10*
G36*
X146259360Y-119755849D02*
X146282415Y-119759268D01*
X146305024Y-119764932D01*
X146326968Y-119772784D01*
X146348038Y-119782749D01*
X146368029Y-119794731D01*
X146386749Y-119808615D01*
X146404019Y-119824267D01*
X146810605Y-120230853D01*
X146826257Y-120248123D01*
X146840141Y-120266843D01*
X146852123Y-120286834D01*
X146862088Y-120307904D01*
X146869940Y-120329848D01*
X146875604Y-120352457D01*
X146879023Y-120375512D01*
X146880167Y-120398791D01*
X146879023Y-120422070D01*
X146875604Y-120445125D01*
X146869940Y-120467734D01*
X146862088Y-120489678D01*
X146852123Y-120510748D01*
X146840141Y-120530739D01*
X146826257Y-120549459D01*
X146810605Y-120566729D01*
X146474729Y-120902605D01*
X146457459Y-120918257D01*
X146438739Y-120932141D01*
X146418748Y-120944123D01*
X146397678Y-120954088D01*
X146375734Y-120961940D01*
X146353125Y-120967604D01*
X146330070Y-120971023D01*
X146306791Y-120972167D01*
X146283512Y-120971023D01*
X146260457Y-120967604D01*
X146237848Y-120961940D01*
X146215904Y-120954088D01*
X146194834Y-120944123D01*
X146174843Y-120932141D01*
X146156123Y-120918257D01*
X146138853Y-120902605D01*
X145732267Y-120496019D01*
X145716615Y-120478749D01*
X145702731Y-120460029D01*
X145690749Y-120440038D01*
X145680784Y-120418968D01*
X145672932Y-120397024D01*
X145667268Y-120374415D01*
X145663849Y-120351360D01*
X145662705Y-120328081D01*
X145663849Y-120304802D01*
X145667268Y-120281747D01*
X145672932Y-120259138D01*
X145680784Y-120237194D01*
X145690749Y-120216124D01*
X145702731Y-120196133D01*
X145716615Y-120177413D01*
X145732267Y-120160143D01*
X146068143Y-119824267D01*
X146085413Y-119808615D01*
X146104133Y-119794731D01*
X146124124Y-119782749D01*
X146145194Y-119772784D01*
X146167138Y-119764932D01*
X146189747Y-119759268D01*
X146212802Y-119755849D01*
X146236081Y-119754705D01*
X146259360Y-119755849D01*
X146259360Y-119755849D01*
G37*
D11*
X146271436Y-120363436D03*
G04 #@! TD*
D10*
G04 #@! TO.C,C16*
G36*
X140996070Y-95182977D02*
X141019125Y-95186396D01*
X141041734Y-95192060D01*
X141063678Y-95199912D01*
X141084748Y-95209877D01*
X141104739Y-95221859D01*
X141123459Y-95235743D01*
X141140729Y-95251395D01*
X141476605Y-95587271D01*
X141492257Y-95604541D01*
X141506141Y-95623261D01*
X141518123Y-95643252D01*
X141528088Y-95664322D01*
X141535940Y-95686266D01*
X141541604Y-95708875D01*
X141545023Y-95731930D01*
X141546167Y-95755209D01*
X141545023Y-95778488D01*
X141541604Y-95801543D01*
X141535940Y-95824152D01*
X141528088Y-95846096D01*
X141518123Y-95867166D01*
X141506141Y-95887157D01*
X141492257Y-95905877D01*
X141476605Y-95923147D01*
X141070019Y-96329733D01*
X141052749Y-96345385D01*
X141034029Y-96359269D01*
X141014038Y-96371251D01*
X140992968Y-96381216D01*
X140971024Y-96389068D01*
X140948415Y-96394732D01*
X140925360Y-96398151D01*
X140902081Y-96399295D01*
X140878802Y-96398151D01*
X140855747Y-96394732D01*
X140833138Y-96389068D01*
X140811194Y-96381216D01*
X140790124Y-96371251D01*
X140770133Y-96359269D01*
X140751413Y-96345385D01*
X140734143Y-96329733D01*
X140398267Y-95993857D01*
X140382615Y-95976587D01*
X140368731Y-95957867D01*
X140356749Y-95937876D01*
X140346784Y-95916806D01*
X140338932Y-95894862D01*
X140333268Y-95872253D01*
X140329849Y-95849198D01*
X140328705Y-95825919D01*
X140329849Y-95802640D01*
X140333268Y-95779585D01*
X140338932Y-95756976D01*
X140346784Y-95735032D01*
X140356749Y-95713962D01*
X140368731Y-95693971D01*
X140382615Y-95675251D01*
X140398267Y-95657981D01*
X140804853Y-95251395D01*
X140822123Y-95235743D01*
X140840843Y-95221859D01*
X140860834Y-95209877D01*
X140881904Y-95199912D01*
X140903848Y-95192060D01*
X140926457Y-95186396D01*
X140949512Y-95182977D01*
X140972791Y-95181833D01*
X140996070Y-95182977D01*
X140996070Y-95182977D01*
G37*
D11*
X140937436Y-95790564D03*
D10*
G36*
X139758634Y-96420413D02*
X139781689Y-96423832D01*
X139804298Y-96429496D01*
X139826242Y-96437348D01*
X139847312Y-96447313D01*
X139867303Y-96459295D01*
X139886023Y-96473179D01*
X139903293Y-96488831D01*
X140239169Y-96824707D01*
X140254821Y-96841977D01*
X140268705Y-96860697D01*
X140280687Y-96880688D01*
X140290652Y-96901758D01*
X140298504Y-96923702D01*
X140304168Y-96946311D01*
X140307587Y-96969366D01*
X140308731Y-96992645D01*
X140307587Y-97015924D01*
X140304168Y-97038979D01*
X140298504Y-97061588D01*
X140290652Y-97083532D01*
X140280687Y-97104602D01*
X140268705Y-97124593D01*
X140254821Y-97143313D01*
X140239169Y-97160583D01*
X139832583Y-97567169D01*
X139815313Y-97582821D01*
X139796593Y-97596705D01*
X139776602Y-97608687D01*
X139755532Y-97618652D01*
X139733588Y-97626504D01*
X139710979Y-97632168D01*
X139687924Y-97635587D01*
X139664645Y-97636731D01*
X139641366Y-97635587D01*
X139618311Y-97632168D01*
X139595702Y-97626504D01*
X139573758Y-97618652D01*
X139552688Y-97608687D01*
X139532697Y-97596705D01*
X139513977Y-97582821D01*
X139496707Y-97567169D01*
X139160831Y-97231293D01*
X139145179Y-97214023D01*
X139131295Y-97195303D01*
X139119313Y-97175312D01*
X139109348Y-97154242D01*
X139101496Y-97132298D01*
X139095832Y-97109689D01*
X139092413Y-97086634D01*
X139091269Y-97063355D01*
X139092413Y-97040076D01*
X139095832Y-97017021D01*
X139101496Y-96994412D01*
X139109348Y-96972468D01*
X139119313Y-96951398D01*
X139131295Y-96931407D01*
X139145179Y-96912687D01*
X139160831Y-96895417D01*
X139567417Y-96488831D01*
X139584687Y-96473179D01*
X139603407Y-96459295D01*
X139623398Y-96447313D01*
X139644468Y-96437348D01*
X139666412Y-96429496D01*
X139689021Y-96423832D01*
X139712076Y-96420413D01*
X139735355Y-96419269D01*
X139758634Y-96420413D01*
X139758634Y-96420413D01*
G37*
D11*
X139700000Y-97028000D03*
G04 #@! TD*
D10*
G04 #@! TO.C,C17*
G36*
X148850779Y-96250144D02*
X148873834Y-96253563D01*
X148896443Y-96259227D01*
X148918387Y-96267079D01*
X148939457Y-96277044D01*
X148959448Y-96289026D01*
X148978168Y-96302910D01*
X148995438Y-96318562D01*
X149011090Y-96335832D01*
X149024974Y-96354552D01*
X149036956Y-96374543D01*
X149046921Y-96395613D01*
X149054773Y-96417557D01*
X149060437Y-96440166D01*
X149063856Y-96463221D01*
X149065000Y-96486500D01*
X149065000Y-97061500D01*
X149063856Y-97084779D01*
X149060437Y-97107834D01*
X149054773Y-97130443D01*
X149046921Y-97152387D01*
X149036956Y-97173457D01*
X149024974Y-97193448D01*
X149011090Y-97212168D01*
X148995438Y-97229438D01*
X148978168Y-97245090D01*
X148959448Y-97258974D01*
X148939457Y-97270956D01*
X148918387Y-97280921D01*
X148896443Y-97288773D01*
X148873834Y-97294437D01*
X148850779Y-97297856D01*
X148827500Y-97299000D01*
X148352500Y-97299000D01*
X148329221Y-97297856D01*
X148306166Y-97294437D01*
X148283557Y-97288773D01*
X148261613Y-97280921D01*
X148240543Y-97270956D01*
X148220552Y-97258974D01*
X148201832Y-97245090D01*
X148184562Y-97229438D01*
X148168910Y-97212168D01*
X148155026Y-97193448D01*
X148143044Y-97173457D01*
X148133079Y-97152387D01*
X148125227Y-97130443D01*
X148119563Y-97107834D01*
X148116144Y-97084779D01*
X148115000Y-97061500D01*
X148115000Y-96486500D01*
X148116144Y-96463221D01*
X148119563Y-96440166D01*
X148125227Y-96417557D01*
X148133079Y-96395613D01*
X148143044Y-96374543D01*
X148155026Y-96354552D01*
X148168910Y-96335832D01*
X148184562Y-96318562D01*
X148201832Y-96302910D01*
X148220552Y-96289026D01*
X148240543Y-96277044D01*
X148261613Y-96267079D01*
X148283557Y-96259227D01*
X148306166Y-96253563D01*
X148329221Y-96250144D01*
X148352500Y-96249000D01*
X148827500Y-96249000D01*
X148850779Y-96250144D01*
X148850779Y-96250144D01*
G37*
D11*
X148590000Y-96774000D03*
D10*
G36*
X148850779Y-94500144D02*
X148873834Y-94503563D01*
X148896443Y-94509227D01*
X148918387Y-94517079D01*
X148939457Y-94527044D01*
X148959448Y-94539026D01*
X148978168Y-94552910D01*
X148995438Y-94568562D01*
X149011090Y-94585832D01*
X149024974Y-94604552D01*
X149036956Y-94624543D01*
X149046921Y-94645613D01*
X149054773Y-94667557D01*
X149060437Y-94690166D01*
X149063856Y-94713221D01*
X149065000Y-94736500D01*
X149065000Y-95311500D01*
X149063856Y-95334779D01*
X149060437Y-95357834D01*
X149054773Y-95380443D01*
X149046921Y-95402387D01*
X149036956Y-95423457D01*
X149024974Y-95443448D01*
X149011090Y-95462168D01*
X148995438Y-95479438D01*
X148978168Y-95495090D01*
X148959448Y-95508974D01*
X148939457Y-95520956D01*
X148918387Y-95530921D01*
X148896443Y-95538773D01*
X148873834Y-95544437D01*
X148850779Y-95547856D01*
X148827500Y-95549000D01*
X148352500Y-95549000D01*
X148329221Y-95547856D01*
X148306166Y-95544437D01*
X148283557Y-95538773D01*
X148261613Y-95530921D01*
X148240543Y-95520956D01*
X148220552Y-95508974D01*
X148201832Y-95495090D01*
X148184562Y-95479438D01*
X148168910Y-95462168D01*
X148155026Y-95443448D01*
X148143044Y-95423457D01*
X148133079Y-95402387D01*
X148125227Y-95380443D01*
X148119563Y-95357834D01*
X148116144Y-95334779D01*
X148115000Y-95311500D01*
X148115000Y-94736500D01*
X148116144Y-94713221D01*
X148119563Y-94690166D01*
X148125227Y-94667557D01*
X148133079Y-94645613D01*
X148143044Y-94624543D01*
X148155026Y-94604552D01*
X148168910Y-94585832D01*
X148184562Y-94568562D01*
X148201832Y-94552910D01*
X148220552Y-94539026D01*
X148240543Y-94527044D01*
X148261613Y-94517079D01*
X148283557Y-94509227D01*
X148306166Y-94503563D01*
X148329221Y-94500144D01*
X148352500Y-94499000D01*
X148827500Y-94499000D01*
X148850779Y-94500144D01*
X148850779Y-94500144D01*
G37*
D11*
X148590000Y-95024000D03*
G04 #@! TD*
D10*
G04 #@! TO.C,C18*
G36*
X160584779Y-106968144D02*
X160607834Y-106971563D01*
X160630443Y-106977227D01*
X160652387Y-106985079D01*
X160673457Y-106995044D01*
X160693448Y-107007026D01*
X160712168Y-107020910D01*
X160729438Y-107036562D01*
X160745090Y-107053832D01*
X160758974Y-107072552D01*
X160770956Y-107092543D01*
X160780921Y-107113613D01*
X160788773Y-107135557D01*
X160794437Y-107158166D01*
X160797856Y-107181221D01*
X160799000Y-107204500D01*
X160799000Y-107679500D01*
X160797856Y-107702779D01*
X160794437Y-107725834D01*
X160788773Y-107748443D01*
X160780921Y-107770387D01*
X160770956Y-107791457D01*
X160758974Y-107811448D01*
X160745090Y-107830168D01*
X160729438Y-107847438D01*
X160712168Y-107863090D01*
X160693448Y-107876974D01*
X160673457Y-107888956D01*
X160652387Y-107898921D01*
X160630443Y-107906773D01*
X160607834Y-107912437D01*
X160584779Y-107915856D01*
X160561500Y-107917000D01*
X159986500Y-107917000D01*
X159963221Y-107915856D01*
X159940166Y-107912437D01*
X159917557Y-107906773D01*
X159895613Y-107898921D01*
X159874543Y-107888956D01*
X159854552Y-107876974D01*
X159835832Y-107863090D01*
X159818562Y-107847438D01*
X159802910Y-107830168D01*
X159789026Y-107811448D01*
X159777044Y-107791457D01*
X159767079Y-107770387D01*
X159759227Y-107748443D01*
X159753563Y-107725834D01*
X159750144Y-107702779D01*
X159749000Y-107679500D01*
X159749000Y-107204500D01*
X159750144Y-107181221D01*
X159753563Y-107158166D01*
X159759227Y-107135557D01*
X159767079Y-107113613D01*
X159777044Y-107092543D01*
X159789026Y-107072552D01*
X159802910Y-107053832D01*
X159818562Y-107036562D01*
X159835832Y-107020910D01*
X159854552Y-107007026D01*
X159874543Y-106995044D01*
X159895613Y-106985079D01*
X159917557Y-106977227D01*
X159940166Y-106971563D01*
X159963221Y-106968144D01*
X159986500Y-106967000D01*
X160561500Y-106967000D01*
X160584779Y-106968144D01*
X160584779Y-106968144D01*
G37*
D11*
X160274000Y-107442000D03*
D10*
G36*
X162334779Y-106968144D02*
X162357834Y-106971563D01*
X162380443Y-106977227D01*
X162402387Y-106985079D01*
X162423457Y-106995044D01*
X162443448Y-107007026D01*
X162462168Y-107020910D01*
X162479438Y-107036562D01*
X162495090Y-107053832D01*
X162508974Y-107072552D01*
X162520956Y-107092543D01*
X162530921Y-107113613D01*
X162538773Y-107135557D01*
X162544437Y-107158166D01*
X162547856Y-107181221D01*
X162549000Y-107204500D01*
X162549000Y-107679500D01*
X162547856Y-107702779D01*
X162544437Y-107725834D01*
X162538773Y-107748443D01*
X162530921Y-107770387D01*
X162520956Y-107791457D01*
X162508974Y-107811448D01*
X162495090Y-107830168D01*
X162479438Y-107847438D01*
X162462168Y-107863090D01*
X162443448Y-107876974D01*
X162423457Y-107888956D01*
X162402387Y-107898921D01*
X162380443Y-107906773D01*
X162357834Y-107912437D01*
X162334779Y-107915856D01*
X162311500Y-107917000D01*
X161736500Y-107917000D01*
X161713221Y-107915856D01*
X161690166Y-107912437D01*
X161667557Y-107906773D01*
X161645613Y-107898921D01*
X161624543Y-107888956D01*
X161604552Y-107876974D01*
X161585832Y-107863090D01*
X161568562Y-107847438D01*
X161552910Y-107830168D01*
X161539026Y-107811448D01*
X161527044Y-107791457D01*
X161517079Y-107770387D01*
X161509227Y-107748443D01*
X161503563Y-107725834D01*
X161500144Y-107702779D01*
X161499000Y-107679500D01*
X161499000Y-107204500D01*
X161500144Y-107181221D01*
X161503563Y-107158166D01*
X161509227Y-107135557D01*
X161517079Y-107113613D01*
X161527044Y-107092543D01*
X161539026Y-107072552D01*
X161552910Y-107053832D01*
X161568562Y-107036562D01*
X161585832Y-107020910D01*
X161604552Y-107007026D01*
X161624543Y-106995044D01*
X161645613Y-106985079D01*
X161667557Y-106977227D01*
X161690166Y-106971563D01*
X161713221Y-106968144D01*
X161736500Y-106967000D01*
X162311500Y-106967000D01*
X162334779Y-106968144D01*
X162334779Y-106968144D01*
G37*
D11*
X162024000Y-107442000D03*
G04 #@! TD*
D10*
G04 #@! TO.C,R3*
G36*
X159010779Y-121904144D02*
X159033834Y-121907563D01*
X159056443Y-121913227D01*
X159078387Y-121921079D01*
X159099457Y-121931044D01*
X159119448Y-121943026D01*
X159138168Y-121956910D01*
X159155438Y-121972562D01*
X159171090Y-121989832D01*
X159184974Y-122008552D01*
X159196956Y-122028543D01*
X159206921Y-122049613D01*
X159214773Y-122071557D01*
X159220437Y-122094166D01*
X159223856Y-122117221D01*
X159225000Y-122140500D01*
X159225000Y-122715500D01*
X159223856Y-122738779D01*
X159220437Y-122761834D01*
X159214773Y-122784443D01*
X159206921Y-122806387D01*
X159196956Y-122827457D01*
X159184974Y-122847448D01*
X159171090Y-122866168D01*
X159155438Y-122883438D01*
X159138168Y-122899090D01*
X159119448Y-122912974D01*
X159099457Y-122924956D01*
X159078387Y-122934921D01*
X159056443Y-122942773D01*
X159033834Y-122948437D01*
X159010779Y-122951856D01*
X158987500Y-122953000D01*
X158512500Y-122953000D01*
X158489221Y-122951856D01*
X158466166Y-122948437D01*
X158443557Y-122942773D01*
X158421613Y-122934921D01*
X158400543Y-122924956D01*
X158380552Y-122912974D01*
X158361832Y-122899090D01*
X158344562Y-122883438D01*
X158328910Y-122866168D01*
X158315026Y-122847448D01*
X158303044Y-122827457D01*
X158293079Y-122806387D01*
X158285227Y-122784443D01*
X158279563Y-122761834D01*
X158276144Y-122738779D01*
X158275000Y-122715500D01*
X158275000Y-122140500D01*
X158276144Y-122117221D01*
X158279563Y-122094166D01*
X158285227Y-122071557D01*
X158293079Y-122049613D01*
X158303044Y-122028543D01*
X158315026Y-122008552D01*
X158328910Y-121989832D01*
X158344562Y-121972562D01*
X158361832Y-121956910D01*
X158380552Y-121943026D01*
X158400543Y-121931044D01*
X158421613Y-121921079D01*
X158443557Y-121913227D01*
X158466166Y-121907563D01*
X158489221Y-121904144D01*
X158512500Y-121903000D01*
X158987500Y-121903000D01*
X159010779Y-121904144D01*
X159010779Y-121904144D01*
G37*
D11*
X158750000Y-122428000D03*
D10*
G36*
X159010779Y-120154144D02*
X159033834Y-120157563D01*
X159056443Y-120163227D01*
X159078387Y-120171079D01*
X159099457Y-120181044D01*
X159119448Y-120193026D01*
X159138168Y-120206910D01*
X159155438Y-120222562D01*
X159171090Y-120239832D01*
X159184974Y-120258552D01*
X159196956Y-120278543D01*
X159206921Y-120299613D01*
X159214773Y-120321557D01*
X159220437Y-120344166D01*
X159223856Y-120367221D01*
X159225000Y-120390500D01*
X159225000Y-120965500D01*
X159223856Y-120988779D01*
X159220437Y-121011834D01*
X159214773Y-121034443D01*
X159206921Y-121056387D01*
X159196956Y-121077457D01*
X159184974Y-121097448D01*
X159171090Y-121116168D01*
X159155438Y-121133438D01*
X159138168Y-121149090D01*
X159119448Y-121162974D01*
X159099457Y-121174956D01*
X159078387Y-121184921D01*
X159056443Y-121192773D01*
X159033834Y-121198437D01*
X159010779Y-121201856D01*
X158987500Y-121203000D01*
X158512500Y-121203000D01*
X158489221Y-121201856D01*
X158466166Y-121198437D01*
X158443557Y-121192773D01*
X158421613Y-121184921D01*
X158400543Y-121174956D01*
X158380552Y-121162974D01*
X158361832Y-121149090D01*
X158344562Y-121133438D01*
X158328910Y-121116168D01*
X158315026Y-121097448D01*
X158303044Y-121077457D01*
X158293079Y-121056387D01*
X158285227Y-121034443D01*
X158279563Y-121011834D01*
X158276144Y-120988779D01*
X158275000Y-120965500D01*
X158275000Y-120390500D01*
X158276144Y-120367221D01*
X158279563Y-120344166D01*
X158285227Y-120321557D01*
X158293079Y-120299613D01*
X158303044Y-120278543D01*
X158315026Y-120258552D01*
X158328910Y-120239832D01*
X158344562Y-120222562D01*
X158361832Y-120206910D01*
X158380552Y-120193026D01*
X158400543Y-120181044D01*
X158421613Y-120171079D01*
X158443557Y-120163227D01*
X158466166Y-120157563D01*
X158489221Y-120154144D01*
X158512500Y-120153000D01*
X158987500Y-120153000D01*
X159010779Y-120154144D01*
X159010779Y-120154144D01*
G37*
D11*
X158750000Y-120678000D03*
G04 #@! TD*
D10*
G04 #@! TO.C,R4*
G36*
X159010779Y-126448144D02*
X159033834Y-126451563D01*
X159056443Y-126457227D01*
X159078387Y-126465079D01*
X159099457Y-126475044D01*
X159119448Y-126487026D01*
X159138168Y-126500910D01*
X159155438Y-126516562D01*
X159171090Y-126533832D01*
X159184974Y-126552552D01*
X159196956Y-126572543D01*
X159206921Y-126593613D01*
X159214773Y-126615557D01*
X159220437Y-126638166D01*
X159223856Y-126661221D01*
X159225000Y-126684500D01*
X159225000Y-127259500D01*
X159223856Y-127282779D01*
X159220437Y-127305834D01*
X159214773Y-127328443D01*
X159206921Y-127350387D01*
X159196956Y-127371457D01*
X159184974Y-127391448D01*
X159171090Y-127410168D01*
X159155438Y-127427438D01*
X159138168Y-127443090D01*
X159119448Y-127456974D01*
X159099457Y-127468956D01*
X159078387Y-127478921D01*
X159056443Y-127486773D01*
X159033834Y-127492437D01*
X159010779Y-127495856D01*
X158987500Y-127497000D01*
X158512500Y-127497000D01*
X158489221Y-127495856D01*
X158466166Y-127492437D01*
X158443557Y-127486773D01*
X158421613Y-127478921D01*
X158400543Y-127468956D01*
X158380552Y-127456974D01*
X158361832Y-127443090D01*
X158344562Y-127427438D01*
X158328910Y-127410168D01*
X158315026Y-127391448D01*
X158303044Y-127371457D01*
X158293079Y-127350387D01*
X158285227Y-127328443D01*
X158279563Y-127305834D01*
X158276144Y-127282779D01*
X158275000Y-127259500D01*
X158275000Y-126684500D01*
X158276144Y-126661221D01*
X158279563Y-126638166D01*
X158285227Y-126615557D01*
X158293079Y-126593613D01*
X158303044Y-126572543D01*
X158315026Y-126552552D01*
X158328910Y-126533832D01*
X158344562Y-126516562D01*
X158361832Y-126500910D01*
X158380552Y-126487026D01*
X158400543Y-126475044D01*
X158421613Y-126465079D01*
X158443557Y-126457227D01*
X158466166Y-126451563D01*
X158489221Y-126448144D01*
X158512500Y-126447000D01*
X158987500Y-126447000D01*
X159010779Y-126448144D01*
X159010779Y-126448144D01*
G37*
D11*
X158750000Y-126972000D03*
D10*
G36*
X159010779Y-124698144D02*
X159033834Y-124701563D01*
X159056443Y-124707227D01*
X159078387Y-124715079D01*
X159099457Y-124725044D01*
X159119448Y-124737026D01*
X159138168Y-124750910D01*
X159155438Y-124766562D01*
X159171090Y-124783832D01*
X159184974Y-124802552D01*
X159196956Y-124822543D01*
X159206921Y-124843613D01*
X159214773Y-124865557D01*
X159220437Y-124888166D01*
X159223856Y-124911221D01*
X159225000Y-124934500D01*
X159225000Y-125509500D01*
X159223856Y-125532779D01*
X159220437Y-125555834D01*
X159214773Y-125578443D01*
X159206921Y-125600387D01*
X159196956Y-125621457D01*
X159184974Y-125641448D01*
X159171090Y-125660168D01*
X159155438Y-125677438D01*
X159138168Y-125693090D01*
X159119448Y-125706974D01*
X159099457Y-125718956D01*
X159078387Y-125728921D01*
X159056443Y-125736773D01*
X159033834Y-125742437D01*
X159010779Y-125745856D01*
X158987500Y-125747000D01*
X158512500Y-125747000D01*
X158489221Y-125745856D01*
X158466166Y-125742437D01*
X158443557Y-125736773D01*
X158421613Y-125728921D01*
X158400543Y-125718956D01*
X158380552Y-125706974D01*
X158361832Y-125693090D01*
X158344562Y-125677438D01*
X158328910Y-125660168D01*
X158315026Y-125641448D01*
X158303044Y-125621457D01*
X158293079Y-125600387D01*
X158285227Y-125578443D01*
X158279563Y-125555834D01*
X158276144Y-125532779D01*
X158275000Y-125509500D01*
X158275000Y-124934500D01*
X158276144Y-124911221D01*
X158279563Y-124888166D01*
X158285227Y-124865557D01*
X158293079Y-124843613D01*
X158303044Y-124822543D01*
X158315026Y-124802552D01*
X158328910Y-124783832D01*
X158344562Y-124766562D01*
X158361832Y-124750910D01*
X158380552Y-124737026D01*
X158400543Y-124725044D01*
X158421613Y-124715079D01*
X158443557Y-124707227D01*
X158466166Y-124701563D01*
X158489221Y-124698144D01*
X158512500Y-124697000D01*
X158987500Y-124697000D01*
X159010779Y-124698144D01*
X159010779Y-124698144D01*
G37*
D11*
X158750000Y-125222000D03*
G04 #@! TD*
D10*
G04 #@! TO.C,R5*
G36*
X167950779Y-99856144D02*
X167973834Y-99859563D01*
X167996443Y-99865227D01*
X168018387Y-99873079D01*
X168039457Y-99883044D01*
X168059448Y-99895026D01*
X168078168Y-99908910D01*
X168095438Y-99924562D01*
X168111090Y-99941832D01*
X168124974Y-99960552D01*
X168136956Y-99980543D01*
X168146921Y-100001613D01*
X168154773Y-100023557D01*
X168160437Y-100046166D01*
X168163856Y-100069221D01*
X168165000Y-100092500D01*
X168165000Y-100567500D01*
X168163856Y-100590779D01*
X168160437Y-100613834D01*
X168154773Y-100636443D01*
X168146921Y-100658387D01*
X168136956Y-100679457D01*
X168124974Y-100699448D01*
X168111090Y-100718168D01*
X168095438Y-100735438D01*
X168078168Y-100751090D01*
X168059448Y-100764974D01*
X168039457Y-100776956D01*
X168018387Y-100786921D01*
X167996443Y-100794773D01*
X167973834Y-100800437D01*
X167950779Y-100803856D01*
X167927500Y-100805000D01*
X167352500Y-100805000D01*
X167329221Y-100803856D01*
X167306166Y-100800437D01*
X167283557Y-100794773D01*
X167261613Y-100786921D01*
X167240543Y-100776956D01*
X167220552Y-100764974D01*
X167201832Y-100751090D01*
X167184562Y-100735438D01*
X167168910Y-100718168D01*
X167155026Y-100699448D01*
X167143044Y-100679457D01*
X167133079Y-100658387D01*
X167125227Y-100636443D01*
X167119563Y-100613834D01*
X167116144Y-100590779D01*
X167115000Y-100567500D01*
X167115000Y-100092500D01*
X167116144Y-100069221D01*
X167119563Y-100046166D01*
X167125227Y-100023557D01*
X167133079Y-100001613D01*
X167143044Y-99980543D01*
X167155026Y-99960552D01*
X167168910Y-99941832D01*
X167184562Y-99924562D01*
X167201832Y-99908910D01*
X167220552Y-99895026D01*
X167240543Y-99883044D01*
X167261613Y-99873079D01*
X167283557Y-99865227D01*
X167306166Y-99859563D01*
X167329221Y-99856144D01*
X167352500Y-99855000D01*
X167927500Y-99855000D01*
X167950779Y-99856144D01*
X167950779Y-99856144D01*
G37*
D11*
X167640000Y-100330000D03*
D10*
G36*
X169700779Y-99856144D02*
X169723834Y-99859563D01*
X169746443Y-99865227D01*
X169768387Y-99873079D01*
X169789457Y-99883044D01*
X169809448Y-99895026D01*
X169828168Y-99908910D01*
X169845438Y-99924562D01*
X169861090Y-99941832D01*
X169874974Y-99960552D01*
X169886956Y-99980543D01*
X169896921Y-100001613D01*
X169904773Y-100023557D01*
X169910437Y-100046166D01*
X169913856Y-100069221D01*
X169915000Y-100092500D01*
X169915000Y-100567500D01*
X169913856Y-100590779D01*
X169910437Y-100613834D01*
X169904773Y-100636443D01*
X169896921Y-100658387D01*
X169886956Y-100679457D01*
X169874974Y-100699448D01*
X169861090Y-100718168D01*
X169845438Y-100735438D01*
X169828168Y-100751090D01*
X169809448Y-100764974D01*
X169789457Y-100776956D01*
X169768387Y-100786921D01*
X169746443Y-100794773D01*
X169723834Y-100800437D01*
X169700779Y-100803856D01*
X169677500Y-100805000D01*
X169102500Y-100805000D01*
X169079221Y-100803856D01*
X169056166Y-100800437D01*
X169033557Y-100794773D01*
X169011613Y-100786921D01*
X168990543Y-100776956D01*
X168970552Y-100764974D01*
X168951832Y-100751090D01*
X168934562Y-100735438D01*
X168918910Y-100718168D01*
X168905026Y-100699448D01*
X168893044Y-100679457D01*
X168883079Y-100658387D01*
X168875227Y-100636443D01*
X168869563Y-100613834D01*
X168866144Y-100590779D01*
X168865000Y-100567500D01*
X168865000Y-100092500D01*
X168866144Y-100069221D01*
X168869563Y-100046166D01*
X168875227Y-100023557D01*
X168883079Y-100001613D01*
X168893044Y-99980543D01*
X168905026Y-99960552D01*
X168918910Y-99941832D01*
X168934562Y-99924562D01*
X168951832Y-99908910D01*
X168970552Y-99895026D01*
X168990543Y-99883044D01*
X169011613Y-99873079D01*
X169033557Y-99865227D01*
X169056166Y-99859563D01*
X169079221Y-99856144D01*
X169102500Y-99855000D01*
X169677500Y-99855000D01*
X169700779Y-99856144D01*
X169700779Y-99856144D01*
G37*
D11*
X169390000Y-100330000D03*
G04 #@! TD*
D10*
G04 #@! TO.C,R6*
G36*
X167900779Y-101584144D02*
X167923834Y-101587563D01*
X167946443Y-101593227D01*
X167968387Y-101601079D01*
X167989457Y-101611044D01*
X168009448Y-101623026D01*
X168028168Y-101636910D01*
X168045438Y-101652562D01*
X168061090Y-101669832D01*
X168074974Y-101688552D01*
X168086956Y-101708543D01*
X168096921Y-101729613D01*
X168104773Y-101751557D01*
X168110437Y-101774166D01*
X168113856Y-101797221D01*
X168115000Y-101820500D01*
X168115000Y-102395500D01*
X168113856Y-102418779D01*
X168110437Y-102441834D01*
X168104773Y-102464443D01*
X168096921Y-102486387D01*
X168086956Y-102507457D01*
X168074974Y-102527448D01*
X168061090Y-102546168D01*
X168045438Y-102563438D01*
X168028168Y-102579090D01*
X168009448Y-102592974D01*
X167989457Y-102604956D01*
X167968387Y-102614921D01*
X167946443Y-102622773D01*
X167923834Y-102628437D01*
X167900779Y-102631856D01*
X167877500Y-102633000D01*
X167402500Y-102633000D01*
X167379221Y-102631856D01*
X167356166Y-102628437D01*
X167333557Y-102622773D01*
X167311613Y-102614921D01*
X167290543Y-102604956D01*
X167270552Y-102592974D01*
X167251832Y-102579090D01*
X167234562Y-102563438D01*
X167218910Y-102546168D01*
X167205026Y-102527448D01*
X167193044Y-102507457D01*
X167183079Y-102486387D01*
X167175227Y-102464443D01*
X167169563Y-102441834D01*
X167166144Y-102418779D01*
X167165000Y-102395500D01*
X167165000Y-101820500D01*
X167166144Y-101797221D01*
X167169563Y-101774166D01*
X167175227Y-101751557D01*
X167183079Y-101729613D01*
X167193044Y-101708543D01*
X167205026Y-101688552D01*
X167218910Y-101669832D01*
X167234562Y-101652562D01*
X167251832Y-101636910D01*
X167270552Y-101623026D01*
X167290543Y-101611044D01*
X167311613Y-101601079D01*
X167333557Y-101593227D01*
X167356166Y-101587563D01*
X167379221Y-101584144D01*
X167402500Y-101583000D01*
X167877500Y-101583000D01*
X167900779Y-101584144D01*
X167900779Y-101584144D01*
G37*
D11*
X167640000Y-102108000D03*
D10*
G36*
X167900779Y-103334144D02*
X167923834Y-103337563D01*
X167946443Y-103343227D01*
X167968387Y-103351079D01*
X167989457Y-103361044D01*
X168009448Y-103373026D01*
X168028168Y-103386910D01*
X168045438Y-103402562D01*
X168061090Y-103419832D01*
X168074974Y-103438552D01*
X168086956Y-103458543D01*
X168096921Y-103479613D01*
X168104773Y-103501557D01*
X168110437Y-103524166D01*
X168113856Y-103547221D01*
X168115000Y-103570500D01*
X168115000Y-104145500D01*
X168113856Y-104168779D01*
X168110437Y-104191834D01*
X168104773Y-104214443D01*
X168096921Y-104236387D01*
X168086956Y-104257457D01*
X168074974Y-104277448D01*
X168061090Y-104296168D01*
X168045438Y-104313438D01*
X168028168Y-104329090D01*
X168009448Y-104342974D01*
X167989457Y-104354956D01*
X167968387Y-104364921D01*
X167946443Y-104372773D01*
X167923834Y-104378437D01*
X167900779Y-104381856D01*
X167877500Y-104383000D01*
X167402500Y-104383000D01*
X167379221Y-104381856D01*
X167356166Y-104378437D01*
X167333557Y-104372773D01*
X167311613Y-104364921D01*
X167290543Y-104354956D01*
X167270552Y-104342974D01*
X167251832Y-104329090D01*
X167234562Y-104313438D01*
X167218910Y-104296168D01*
X167205026Y-104277448D01*
X167193044Y-104257457D01*
X167183079Y-104236387D01*
X167175227Y-104214443D01*
X167169563Y-104191834D01*
X167166144Y-104168779D01*
X167165000Y-104145500D01*
X167165000Y-103570500D01*
X167166144Y-103547221D01*
X167169563Y-103524166D01*
X167175227Y-103501557D01*
X167183079Y-103479613D01*
X167193044Y-103458543D01*
X167205026Y-103438552D01*
X167218910Y-103419832D01*
X167234562Y-103402562D01*
X167251832Y-103386910D01*
X167270552Y-103373026D01*
X167290543Y-103361044D01*
X167311613Y-103351079D01*
X167333557Y-103343227D01*
X167356166Y-103337563D01*
X167379221Y-103334144D01*
X167402500Y-103333000D01*
X167877500Y-103333000D01*
X167900779Y-103334144D01*
X167900779Y-103334144D01*
G37*
D11*
X167640000Y-103858000D03*
G04 #@! TD*
D10*
G04 #@! TO.C,R11*
G36*
X156887779Y-90712144D02*
X156910834Y-90715563D01*
X156933443Y-90721227D01*
X156955387Y-90729079D01*
X156976457Y-90739044D01*
X156996448Y-90751026D01*
X157015168Y-90764910D01*
X157032438Y-90780562D01*
X157048090Y-90797832D01*
X157061974Y-90816552D01*
X157073956Y-90836543D01*
X157083921Y-90857613D01*
X157091773Y-90879557D01*
X157097437Y-90902166D01*
X157100856Y-90925221D01*
X157102000Y-90948500D01*
X157102000Y-91423500D01*
X157100856Y-91446779D01*
X157097437Y-91469834D01*
X157091773Y-91492443D01*
X157083921Y-91514387D01*
X157073956Y-91535457D01*
X157061974Y-91555448D01*
X157048090Y-91574168D01*
X157032438Y-91591438D01*
X157015168Y-91607090D01*
X156996448Y-91620974D01*
X156976457Y-91632956D01*
X156955387Y-91642921D01*
X156933443Y-91650773D01*
X156910834Y-91656437D01*
X156887779Y-91659856D01*
X156864500Y-91661000D01*
X156289500Y-91661000D01*
X156266221Y-91659856D01*
X156243166Y-91656437D01*
X156220557Y-91650773D01*
X156198613Y-91642921D01*
X156177543Y-91632956D01*
X156157552Y-91620974D01*
X156138832Y-91607090D01*
X156121562Y-91591438D01*
X156105910Y-91574168D01*
X156092026Y-91555448D01*
X156080044Y-91535457D01*
X156070079Y-91514387D01*
X156062227Y-91492443D01*
X156056563Y-91469834D01*
X156053144Y-91446779D01*
X156052000Y-91423500D01*
X156052000Y-90948500D01*
X156053144Y-90925221D01*
X156056563Y-90902166D01*
X156062227Y-90879557D01*
X156070079Y-90857613D01*
X156080044Y-90836543D01*
X156092026Y-90816552D01*
X156105910Y-90797832D01*
X156121562Y-90780562D01*
X156138832Y-90764910D01*
X156157552Y-90751026D01*
X156177543Y-90739044D01*
X156198613Y-90729079D01*
X156220557Y-90721227D01*
X156243166Y-90715563D01*
X156266221Y-90712144D01*
X156289500Y-90711000D01*
X156864500Y-90711000D01*
X156887779Y-90712144D01*
X156887779Y-90712144D01*
G37*
D11*
X156577000Y-91186000D03*
D10*
G36*
X155137779Y-90712144D02*
X155160834Y-90715563D01*
X155183443Y-90721227D01*
X155205387Y-90729079D01*
X155226457Y-90739044D01*
X155246448Y-90751026D01*
X155265168Y-90764910D01*
X155282438Y-90780562D01*
X155298090Y-90797832D01*
X155311974Y-90816552D01*
X155323956Y-90836543D01*
X155333921Y-90857613D01*
X155341773Y-90879557D01*
X155347437Y-90902166D01*
X155350856Y-90925221D01*
X155352000Y-90948500D01*
X155352000Y-91423500D01*
X155350856Y-91446779D01*
X155347437Y-91469834D01*
X155341773Y-91492443D01*
X155333921Y-91514387D01*
X155323956Y-91535457D01*
X155311974Y-91555448D01*
X155298090Y-91574168D01*
X155282438Y-91591438D01*
X155265168Y-91607090D01*
X155246448Y-91620974D01*
X155226457Y-91632956D01*
X155205387Y-91642921D01*
X155183443Y-91650773D01*
X155160834Y-91656437D01*
X155137779Y-91659856D01*
X155114500Y-91661000D01*
X154539500Y-91661000D01*
X154516221Y-91659856D01*
X154493166Y-91656437D01*
X154470557Y-91650773D01*
X154448613Y-91642921D01*
X154427543Y-91632956D01*
X154407552Y-91620974D01*
X154388832Y-91607090D01*
X154371562Y-91591438D01*
X154355910Y-91574168D01*
X154342026Y-91555448D01*
X154330044Y-91535457D01*
X154320079Y-91514387D01*
X154312227Y-91492443D01*
X154306563Y-91469834D01*
X154303144Y-91446779D01*
X154302000Y-91423500D01*
X154302000Y-90948500D01*
X154303144Y-90925221D01*
X154306563Y-90902166D01*
X154312227Y-90879557D01*
X154320079Y-90857613D01*
X154330044Y-90836543D01*
X154342026Y-90816552D01*
X154355910Y-90797832D01*
X154371562Y-90780562D01*
X154388832Y-90764910D01*
X154407552Y-90751026D01*
X154427543Y-90739044D01*
X154448613Y-90729079D01*
X154470557Y-90721227D01*
X154493166Y-90715563D01*
X154516221Y-90712144D01*
X154539500Y-90711000D01*
X155114500Y-90711000D01*
X155137779Y-90712144D01*
X155137779Y-90712144D01*
G37*
D11*
X154827000Y-91186000D03*
G04 #@! TD*
D10*
G04 #@! TO.C,R12*
G36*
X159568779Y-112048144D02*
X159591834Y-112051563D01*
X159614443Y-112057227D01*
X159636387Y-112065079D01*
X159657457Y-112075044D01*
X159677448Y-112087026D01*
X159696168Y-112100910D01*
X159713438Y-112116562D01*
X159729090Y-112133832D01*
X159742974Y-112152552D01*
X159754956Y-112172543D01*
X159764921Y-112193613D01*
X159772773Y-112215557D01*
X159778437Y-112238166D01*
X159781856Y-112261221D01*
X159783000Y-112284500D01*
X159783000Y-112759500D01*
X159781856Y-112782779D01*
X159778437Y-112805834D01*
X159772773Y-112828443D01*
X159764921Y-112850387D01*
X159754956Y-112871457D01*
X159742974Y-112891448D01*
X159729090Y-112910168D01*
X159713438Y-112927438D01*
X159696168Y-112943090D01*
X159677448Y-112956974D01*
X159657457Y-112968956D01*
X159636387Y-112978921D01*
X159614443Y-112986773D01*
X159591834Y-112992437D01*
X159568779Y-112995856D01*
X159545500Y-112997000D01*
X158970500Y-112997000D01*
X158947221Y-112995856D01*
X158924166Y-112992437D01*
X158901557Y-112986773D01*
X158879613Y-112978921D01*
X158858543Y-112968956D01*
X158838552Y-112956974D01*
X158819832Y-112943090D01*
X158802562Y-112927438D01*
X158786910Y-112910168D01*
X158773026Y-112891448D01*
X158761044Y-112871457D01*
X158751079Y-112850387D01*
X158743227Y-112828443D01*
X158737563Y-112805834D01*
X158734144Y-112782779D01*
X158733000Y-112759500D01*
X158733000Y-112284500D01*
X158734144Y-112261221D01*
X158737563Y-112238166D01*
X158743227Y-112215557D01*
X158751079Y-112193613D01*
X158761044Y-112172543D01*
X158773026Y-112152552D01*
X158786910Y-112133832D01*
X158802562Y-112116562D01*
X158819832Y-112100910D01*
X158838552Y-112087026D01*
X158858543Y-112075044D01*
X158879613Y-112065079D01*
X158901557Y-112057227D01*
X158924166Y-112051563D01*
X158947221Y-112048144D01*
X158970500Y-112047000D01*
X159545500Y-112047000D01*
X159568779Y-112048144D01*
X159568779Y-112048144D01*
G37*
D11*
X159258000Y-112522000D03*
D10*
G36*
X161318779Y-112048144D02*
X161341834Y-112051563D01*
X161364443Y-112057227D01*
X161386387Y-112065079D01*
X161407457Y-112075044D01*
X161427448Y-112087026D01*
X161446168Y-112100910D01*
X161463438Y-112116562D01*
X161479090Y-112133832D01*
X161492974Y-112152552D01*
X161504956Y-112172543D01*
X161514921Y-112193613D01*
X161522773Y-112215557D01*
X161528437Y-112238166D01*
X161531856Y-112261221D01*
X161533000Y-112284500D01*
X161533000Y-112759500D01*
X161531856Y-112782779D01*
X161528437Y-112805834D01*
X161522773Y-112828443D01*
X161514921Y-112850387D01*
X161504956Y-112871457D01*
X161492974Y-112891448D01*
X161479090Y-112910168D01*
X161463438Y-112927438D01*
X161446168Y-112943090D01*
X161427448Y-112956974D01*
X161407457Y-112968956D01*
X161386387Y-112978921D01*
X161364443Y-112986773D01*
X161341834Y-112992437D01*
X161318779Y-112995856D01*
X161295500Y-112997000D01*
X160720500Y-112997000D01*
X160697221Y-112995856D01*
X160674166Y-112992437D01*
X160651557Y-112986773D01*
X160629613Y-112978921D01*
X160608543Y-112968956D01*
X160588552Y-112956974D01*
X160569832Y-112943090D01*
X160552562Y-112927438D01*
X160536910Y-112910168D01*
X160523026Y-112891448D01*
X160511044Y-112871457D01*
X160501079Y-112850387D01*
X160493227Y-112828443D01*
X160487563Y-112805834D01*
X160484144Y-112782779D01*
X160483000Y-112759500D01*
X160483000Y-112284500D01*
X160484144Y-112261221D01*
X160487563Y-112238166D01*
X160493227Y-112215557D01*
X160501079Y-112193613D01*
X160511044Y-112172543D01*
X160523026Y-112152552D01*
X160536910Y-112133832D01*
X160552562Y-112116562D01*
X160569832Y-112100910D01*
X160588552Y-112087026D01*
X160608543Y-112075044D01*
X160629613Y-112065079D01*
X160651557Y-112057227D01*
X160674166Y-112051563D01*
X160697221Y-112048144D01*
X160720500Y-112047000D01*
X161295500Y-112047000D01*
X161318779Y-112048144D01*
X161318779Y-112048144D01*
G37*
D11*
X161008000Y-112522000D03*
G04 #@! TD*
D10*
G04 #@! TO.C,R14*
G36*
X162334779Y-108746144D02*
X162357834Y-108749563D01*
X162380443Y-108755227D01*
X162402387Y-108763079D01*
X162423457Y-108773044D01*
X162443448Y-108785026D01*
X162462168Y-108798910D01*
X162479438Y-108814562D01*
X162495090Y-108831832D01*
X162508974Y-108850552D01*
X162520956Y-108870543D01*
X162530921Y-108891613D01*
X162538773Y-108913557D01*
X162544437Y-108936166D01*
X162547856Y-108959221D01*
X162549000Y-108982500D01*
X162549000Y-109457500D01*
X162547856Y-109480779D01*
X162544437Y-109503834D01*
X162538773Y-109526443D01*
X162530921Y-109548387D01*
X162520956Y-109569457D01*
X162508974Y-109589448D01*
X162495090Y-109608168D01*
X162479438Y-109625438D01*
X162462168Y-109641090D01*
X162443448Y-109654974D01*
X162423457Y-109666956D01*
X162402387Y-109676921D01*
X162380443Y-109684773D01*
X162357834Y-109690437D01*
X162334779Y-109693856D01*
X162311500Y-109695000D01*
X161736500Y-109695000D01*
X161713221Y-109693856D01*
X161690166Y-109690437D01*
X161667557Y-109684773D01*
X161645613Y-109676921D01*
X161624543Y-109666956D01*
X161604552Y-109654974D01*
X161585832Y-109641090D01*
X161568562Y-109625438D01*
X161552910Y-109608168D01*
X161539026Y-109589448D01*
X161527044Y-109569457D01*
X161517079Y-109548387D01*
X161509227Y-109526443D01*
X161503563Y-109503834D01*
X161500144Y-109480779D01*
X161499000Y-109457500D01*
X161499000Y-108982500D01*
X161500144Y-108959221D01*
X161503563Y-108936166D01*
X161509227Y-108913557D01*
X161517079Y-108891613D01*
X161527044Y-108870543D01*
X161539026Y-108850552D01*
X161552910Y-108831832D01*
X161568562Y-108814562D01*
X161585832Y-108798910D01*
X161604552Y-108785026D01*
X161624543Y-108773044D01*
X161645613Y-108763079D01*
X161667557Y-108755227D01*
X161690166Y-108749563D01*
X161713221Y-108746144D01*
X161736500Y-108745000D01*
X162311500Y-108745000D01*
X162334779Y-108746144D01*
X162334779Y-108746144D01*
G37*
D11*
X162024000Y-109220000D03*
D10*
G36*
X160584779Y-108746144D02*
X160607834Y-108749563D01*
X160630443Y-108755227D01*
X160652387Y-108763079D01*
X160673457Y-108773044D01*
X160693448Y-108785026D01*
X160712168Y-108798910D01*
X160729438Y-108814562D01*
X160745090Y-108831832D01*
X160758974Y-108850552D01*
X160770956Y-108870543D01*
X160780921Y-108891613D01*
X160788773Y-108913557D01*
X160794437Y-108936166D01*
X160797856Y-108959221D01*
X160799000Y-108982500D01*
X160799000Y-109457500D01*
X160797856Y-109480779D01*
X160794437Y-109503834D01*
X160788773Y-109526443D01*
X160780921Y-109548387D01*
X160770956Y-109569457D01*
X160758974Y-109589448D01*
X160745090Y-109608168D01*
X160729438Y-109625438D01*
X160712168Y-109641090D01*
X160693448Y-109654974D01*
X160673457Y-109666956D01*
X160652387Y-109676921D01*
X160630443Y-109684773D01*
X160607834Y-109690437D01*
X160584779Y-109693856D01*
X160561500Y-109695000D01*
X159986500Y-109695000D01*
X159963221Y-109693856D01*
X159940166Y-109690437D01*
X159917557Y-109684773D01*
X159895613Y-109676921D01*
X159874543Y-109666956D01*
X159854552Y-109654974D01*
X159835832Y-109641090D01*
X159818562Y-109625438D01*
X159802910Y-109608168D01*
X159789026Y-109589448D01*
X159777044Y-109569457D01*
X159767079Y-109548387D01*
X159759227Y-109526443D01*
X159753563Y-109503834D01*
X159750144Y-109480779D01*
X159749000Y-109457500D01*
X159749000Y-108982500D01*
X159750144Y-108959221D01*
X159753563Y-108936166D01*
X159759227Y-108913557D01*
X159767079Y-108891613D01*
X159777044Y-108870543D01*
X159789026Y-108850552D01*
X159802910Y-108831832D01*
X159818562Y-108814562D01*
X159835832Y-108798910D01*
X159854552Y-108785026D01*
X159874543Y-108773044D01*
X159895613Y-108763079D01*
X159917557Y-108755227D01*
X159940166Y-108749563D01*
X159963221Y-108746144D01*
X159986500Y-108745000D01*
X160561500Y-108745000D01*
X160584779Y-108746144D01*
X160584779Y-108746144D01*
G37*
D11*
X160274000Y-109220000D03*
G04 #@! TD*
D16*
G04 #@! TO.C,SW1*
X179666000Y-100330000D03*
X172466000Y-100330000D03*
X179666000Y-103330000D03*
X172466000Y-103330000D03*
G04 #@! TD*
D10*
G04 #@! TO.C,C19*
G36*
X158756779Y-94190144D02*
X158779834Y-94193563D01*
X158802443Y-94199227D01*
X158824387Y-94207079D01*
X158845457Y-94217044D01*
X158865448Y-94229026D01*
X158884168Y-94242910D01*
X158901438Y-94258562D01*
X158917090Y-94275832D01*
X158930974Y-94294552D01*
X158942956Y-94314543D01*
X158952921Y-94335613D01*
X158960773Y-94357557D01*
X158966437Y-94380166D01*
X158969856Y-94403221D01*
X158971000Y-94426500D01*
X158971000Y-95001500D01*
X158969856Y-95024779D01*
X158966437Y-95047834D01*
X158960773Y-95070443D01*
X158952921Y-95092387D01*
X158942956Y-95113457D01*
X158930974Y-95133448D01*
X158917090Y-95152168D01*
X158901438Y-95169438D01*
X158884168Y-95185090D01*
X158865448Y-95198974D01*
X158845457Y-95210956D01*
X158824387Y-95220921D01*
X158802443Y-95228773D01*
X158779834Y-95234437D01*
X158756779Y-95237856D01*
X158733500Y-95239000D01*
X158258500Y-95239000D01*
X158235221Y-95237856D01*
X158212166Y-95234437D01*
X158189557Y-95228773D01*
X158167613Y-95220921D01*
X158146543Y-95210956D01*
X158126552Y-95198974D01*
X158107832Y-95185090D01*
X158090562Y-95169438D01*
X158074910Y-95152168D01*
X158061026Y-95133448D01*
X158049044Y-95113457D01*
X158039079Y-95092387D01*
X158031227Y-95070443D01*
X158025563Y-95047834D01*
X158022144Y-95024779D01*
X158021000Y-95001500D01*
X158021000Y-94426500D01*
X158022144Y-94403221D01*
X158025563Y-94380166D01*
X158031227Y-94357557D01*
X158039079Y-94335613D01*
X158049044Y-94314543D01*
X158061026Y-94294552D01*
X158074910Y-94275832D01*
X158090562Y-94258562D01*
X158107832Y-94242910D01*
X158126552Y-94229026D01*
X158146543Y-94217044D01*
X158167613Y-94207079D01*
X158189557Y-94199227D01*
X158212166Y-94193563D01*
X158235221Y-94190144D01*
X158258500Y-94189000D01*
X158733500Y-94189000D01*
X158756779Y-94190144D01*
X158756779Y-94190144D01*
G37*
D11*
X158496000Y-94714000D03*
D10*
G36*
X158756779Y-92440144D02*
X158779834Y-92443563D01*
X158802443Y-92449227D01*
X158824387Y-92457079D01*
X158845457Y-92467044D01*
X158865448Y-92479026D01*
X158884168Y-92492910D01*
X158901438Y-92508562D01*
X158917090Y-92525832D01*
X158930974Y-92544552D01*
X158942956Y-92564543D01*
X158952921Y-92585613D01*
X158960773Y-92607557D01*
X158966437Y-92630166D01*
X158969856Y-92653221D01*
X158971000Y-92676500D01*
X158971000Y-93251500D01*
X158969856Y-93274779D01*
X158966437Y-93297834D01*
X158960773Y-93320443D01*
X158952921Y-93342387D01*
X158942956Y-93363457D01*
X158930974Y-93383448D01*
X158917090Y-93402168D01*
X158901438Y-93419438D01*
X158884168Y-93435090D01*
X158865448Y-93448974D01*
X158845457Y-93460956D01*
X158824387Y-93470921D01*
X158802443Y-93478773D01*
X158779834Y-93484437D01*
X158756779Y-93487856D01*
X158733500Y-93489000D01*
X158258500Y-93489000D01*
X158235221Y-93487856D01*
X158212166Y-93484437D01*
X158189557Y-93478773D01*
X158167613Y-93470921D01*
X158146543Y-93460956D01*
X158126552Y-93448974D01*
X158107832Y-93435090D01*
X158090562Y-93419438D01*
X158074910Y-93402168D01*
X158061026Y-93383448D01*
X158049044Y-93363457D01*
X158039079Y-93342387D01*
X158031227Y-93320443D01*
X158025563Y-93297834D01*
X158022144Y-93274779D01*
X158021000Y-93251500D01*
X158021000Y-92676500D01*
X158022144Y-92653221D01*
X158025563Y-92630166D01*
X158031227Y-92607557D01*
X158039079Y-92585613D01*
X158049044Y-92564543D01*
X158061026Y-92544552D01*
X158074910Y-92525832D01*
X158090562Y-92508562D01*
X158107832Y-92492910D01*
X158126552Y-92479026D01*
X158146543Y-92467044D01*
X158167613Y-92457079D01*
X158189557Y-92449227D01*
X158212166Y-92443563D01*
X158235221Y-92440144D01*
X158258500Y-92439000D01*
X158733500Y-92439000D01*
X158756779Y-92440144D01*
X158756779Y-92440144D01*
G37*
D11*
X158496000Y-92964000D03*
G04 #@! TD*
D10*
G04 #@! TO.C,D1*
G36*
X161374779Y-90966144D02*
X161397834Y-90969563D01*
X161420443Y-90975227D01*
X161442387Y-90983079D01*
X161463457Y-90993044D01*
X161483448Y-91005026D01*
X161502168Y-91018910D01*
X161519438Y-91034562D01*
X161535090Y-91051832D01*
X161548974Y-91070552D01*
X161560956Y-91090543D01*
X161570921Y-91111613D01*
X161578773Y-91133557D01*
X161584437Y-91156166D01*
X161587856Y-91179221D01*
X161589000Y-91202500D01*
X161589000Y-91677500D01*
X161587856Y-91700779D01*
X161584437Y-91723834D01*
X161578773Y-91746443D01*
X161570921Y-91768387D01*
X161560956Y-91789457D01*
X161548974Y-91809448D01*
X161535090Y-91828168D01*
X161519438Y-91845438D01*
X161502168Y-91861090D01*
X161483448Y-91874974D01*
X161463457Y-91886956D01*
X161442387Y-91896921D01*
X161420443Y-91904773D01*
X161397834Y-91910437D01*
X161374779Y-91913856D01*
X161351500Y-91915000D01*
X160776500Y-91915000D01*
X160753221Y-91913856D01*
X160730166Y-91910437D01*
X160707557Y-91904773D01*
X160685613Y-91896921D01*
X160664543Y-91886956D01*
X160644552Y-91874974D01*
X160625832Y-91861090D01*
X160608562Y-91845438D01*
X160592910Y-91828168D01*
X160579026Y-91809448D01*
X160567044Y-91789457D01*
X160557079Y-91768387D01*
X160549227Y-91746443D01*
X160543563Y-91723834D01*
X160540144Y-91700779D01*
X160539000Y-91677500D01*
X160539000Y-91202500D01*
X160540144Y-91179221D01*
X160543563Y-91156166D01*
X160549227Y-91133557D01*
X160557079Y-91111613D01*
X160567044Y-91090543D01*
X160579026Y-91070552D01*
X160592910Y-91051832D01*
X160608562Y-91034562D01*
X160625832Y-91018910D01*
X160644552Y-91005026D01*
X160664543Y-90993044D01*
X160685613Y-90983079D01*
X160707557Y-90975227D01*
X160730166Y-90969563D01*
X160753221Y-90966144D01*
X160776500Y-90965000D01*
X161351500Y-90965000D01*
X161374779Y-90966144D01*
X161374779Y-90966144D01*
G37*
D11*
X161064000Y-91440000D03*
D10*
G36*
X163124779Y-90966144D02*
X163147834Y-90969563D01*
X163170443Y-90975227D01*
X163192387Y-90983079D01*
X163213457Y-90993044D01*
X163233448Y-91005026D01*
X163252168Y-91018910D01*
X163269438Y-91034562D01*
X163285090Y-91051832D01*
X163298974Y-91070552D01*
X163310956Y-91090543D01*
X163320921Y-91111613D01*
X163328773Y-91133557D01*
X163334437Y-91156166D01*
X163337856Y-91179221D01*
X163339000Y-91202500D01*
X163339000Y-91677500D01*
X163337856Y-91700779D01*
X163334437Y-91723834D01*
X163328773Y-91746443D01*
X163320921Y-91768387D01*
X163310956Y-91789457D01*
X163298974Y-91809448D01*
X163285090Y-91828168D01*
X163269438Y-91845438D01*
X163252168Y-91861090D01*
X163233448Y-91874974D01*
X163213457Y-91886956D01*
X163192387Y-91896921D01*
X163170443Y-91904773D01*
X163147834Y-91910437D01*
X163124779Y-91913856D01*
X163101500Y-91915000D01*
X162526500Y-91915000D01*
X162503221Y-91913856D01*
X162480166Y-91910437D01*
X162457557Y-91904773D01*
X162435613Y-91896921D01*
X162414543Y-91886956D01*
X162394552Y-91874974D01*
X162375832Y-91861090D01*
X162358562Y-91845438D01*
X162342910Y-91828168D01*
X162329026Y-91809448D01*
X162317044Y-91789457D01*
X162307079Y-91768387D01*
X162299227Y-91746443D01*
X162293563Y-91723834D01*
X162290144Y-91700779D01*
X162289000Y-91677500D01*
X162289000Y-91202500D01*
X162290144Y-91179221D01*
X162293563Y-91156166D01*
X162299227Y-91133557D01*
X162307079Y-91111613D01*
X162317044Y-91090543D01*
X162329026Y-91070552D01*
X162342910Y-91051832D01*
X162358562Y-91034562D01*
X162375832Y-91018910D01*
X162394552Y-91005026D01*
X162414543Y-90993044D01*
X162435613Y-90983079D01*
X162457557Y-90975227D01*
X162480166Y-90969563D01*
X162503221Y-90966144D01*
X162526500Y-90965000D01*
X163101500Y-90965000D01*
X163124779Y-90966144D01*
X163124779Y-90966144D01*
G37*
D11*
X162814000Y-91440000D03*
G04 #@! TD*
D10*
G04 #@! TO.C,R18*
G36*
X166906779Y-90966144D02*
X166929834Y-90969563D01*
X166952443Y-90975227D01*
X166974387Y-90983079D01*
X166995457Y-90993044D01*
X167015448Y-91005026D01*
X167034168Y-91018910D01*
X167051438Y-91034562D01*
X167067090Y-91051832D01*
X167080974Y-91070552D01*
X167092956Y-91090543D01*
X167102921Y-91111613D01*
X167110773Y-91133557D01*
X167116437Y-91156166D01*
X167119856Y-91179221D01*
X167121000Y-91202500D01*
X167121000Y-91677500D01*
X167119856Y-91700779D01*
X167116437Y-91723834D01*
X167110773Y-91746443D01*
X167102921Y-91768387D01*
X167092956Y-91789457D01*
X167080974Y-91809448D01*
X167067090Y-91828168D01*
X167051438Y-91845438D01*
X167034168Y-91861090D01*
X167015448Y-91874974D01*
X166995457Y-91886956D01*
X166974387Y-91896921D01*
X166952443Y-91904773D01*
X166929834Y-91910437D01*
X166906779Y-91913856D01*
X166883500Y-91915000D01*
X166308500Y-91915000D01*
X166285221Y-91913856D01*
X166262166Y-91910437D01*
X166239557Y-91904773D01*
X166217613Y-91896921D01*
X166196543Y-91886956D01*
X166176552Y-91874974D01*
X166157832Y-91861090D01*
X166140562Y-91845438D01*
X166124910Y-91828168D01*
X166111026Y-91809448D01*
X166099044Y-91789457D01*
X166089079Y-91768387D01*
X166081227Y-91746443D01*
X166075563Y-91723834D01*
X166072144Y-91700779D01*
X166071000Y-91677500D01*
X166071000Y-91202500D01*
X166072144Y-91179221D01*
X166075563Y-91156166D01*
X166081227Y-91133557D01*
X166089079Y-91111613D01*
X166099044Y-91090543D01*
X166111026Y-91070552D01*
X166124910Y-91051832D01*
X166140562Y-91034562D01*
X166157832Y-91018910D01*
X166176552Y-91005026D01*
X166196543Y-90993044D01*
X166217613Y-90983079D01*
X166239557Y-90975227D01*
X166262166Y-90969563D01*
X166285221Y-90966144D01*
X166308500Y-90965000D01*
X166883500Y-90965000D01*
X166906779Y-90966144D01*
X166906779Y-90966144D01*
G37*
D11*
X166596000Y-91440000D03*
D10*
G36*
X165156779Y-90966144D02*
X165179834Y-90969563D01*
X165202443Y-90975227D01*
X165224387Y-90983079D01*
X165245457Y-90993044D01*
X165265448Y-91005026D01*
X165284168Y-91018910D01*
X165301438Y-91034562D01*
X165317090Y-91051832D01*
X165330974Y-91070552D01*
X165342956Y-91090543D01*
X165352921Y-91111613D01*
X165360773Y-91133557D01*
X165366437Y-91156166D01*
X165369856Y-91179221D01*
X165371000Y-91202500D01*
X165371000Y-91677500D01*
X165369856Y-91700779D01*
X165366437Y-91723834D01*
X165360773Y-91746443D01*
X165352921Y-91768387D01*
X165342956Y-91789457D01*
X165330974Y-91809448D01*
X165317090Y-91828168D01*
X165301438Y-91845438D01*
X165284168Y-91861090D01*
X165265448Y-91874974D01*
X165245457Y-91886956D01*
X165224387Y-91896921D01*
X165202443Y-91904773D01*
X165179834Y-91910437D01*
X165156779Y-91913856D01*
X165133500Y-91915000D01*
X164558500Y-91915000D01*
X164535221Y-91913856D01*
X164512166Y-91910437D01*
X164489557Y-91904773D01*
X164467613Y-91896921D01*
X164446543Y-91886956D01*
X164426552Y-91874974D01*
X164407832Y-91861090D01*
X164390562Y-91845438D01*
X164374910Y-91828168D01*
X164361026Y-91809448D01*
X164349044Y-91789457D01*
X164339079Y-91768387D01*
X164331227Y-91746443D01*
X164325563Y-91723834D01*
X164322144Y-91700779D01*
X164321000Y-91677500D01*
X164321000Y-91202500D01*
X164322144Y-91179221D01*
X164325563Y-91156166D01*
X164331227Y-91133557D01*
X164339079Y-91111613D01*
X164349044Y-91090543D01*
X164361026Y-91070552D01*
X164374910Y-91051832D01*
X164390562Y-91034562D01*
X164407832Y-91018910D01*
X164426552Y-91005026D01*
X164446543Y-90993044D01*
X164467613Y-90983079D01*
X164489557Y-90975227D01*
X164512166Y-90969563D01*
X164535221Y-90966144D01*
X164558500Y-90965000D01*
X165133500Y-90965000D01*
X165156779Y-90966144D01*
X165156779Y-90966144D01*
G37*
D11*
X164846000Y-91440000D03*
G04 #@! TD*
M02*
