G04 #@! TF.GenerationSoftware,KiCad,Pcbnew,(5.0.2)-1*
G04 #@! TF.CreationDate,2019-12-13T18:48:53-06:00*
G04 #@! TF.ProjectId,TM4C129-Breakout_Hardware,544d3443-3132-4392-9d42-7265616b6f75,rev?*
G04 #@! TF.SameCoordinates,Original*
G04 #@! TF.FileFunction,Soldermask,Bot*
G04 #@! TF.FilePolarity,Negative*
%FSLAX46Y46*%
G04 Gerber Fmt 4.6, Leading zero omitted, Abs format (unit mm)*
G04 Created by KiCad (PCBNEW (5.0.2)-1) date 12/13/2019 6:48:53 PM*
%MOMM*%
%LPD*%
G01*
G04 APERTURE LIST*
%ADD10C,0.100000*%
G04 APERTURE END LIST*
D10*
G36*
X164127357Y-69625087D02*
X164274593Y-69654374D01*
X164551979Y-69769271D01*
X164799938Y-69934953D01*
X164801624Y-69936079D01*
X165013921Y-70148376D01*
X165013923Y-70148379D01*
X165180729Y-70398021D01*
X165295626Y-70675407D01*
X165354200Y-70969879D01*
X165354200Y-71270121D01*
X165295626Y-71564593D01*
X165180729Y-71841979D01*
X165015047Y-72089938D01*
X165013921Y-72091624D01*
X164801624Y-72303921D01*
X164801621Y-72303923D01*
X164551979Y-72470729D01*
X164274593Y-72585626D01*
X164127357Y-72614913D01*
X163980122Y-72644200D01*
X163679878Y-72644200D01*
X163532643Y-72614913D01*
X163385407Y-72585626D01*
X163108021Y-72470729D01*
X162858379Y-72303923D01*
X162858376Y-72303921D01*
X162646079Y-72091624D01*
X162644953Y-72089938D01*
X162479271Y-71841979D01*
X162364374Y-71564593D01*
X162305800Y-71270121D01*
X162305800Y-70969879D01*
X162364374Y-70675407D01*
X162479271Y-70398021D01*
X162646077Y-70148379D01*
X162646079Y-70148376D01*
X162858376Y-69936079D01*
X162860062Y-69934953D01*
X163108021Y-69769271D01*
X163385407Y-69654374D01*
X163532643Y-69625087D01*
X163679878Y-69595800D01*
X163980122Y-69595800D01*
X164127357Y-69625087D01*
X164127357Y-69625087D01*
G37*
G36*
X109330442Y-70225518D02*
X109396627Y-70232037D01*
X109509853Y-70266384D01*
X109566467Y-70283557D01*
X109705087Y-70357652D01*
X109722991Y-70367222D01*
X109758729Y-70396552D01*
X109860186Y-70479814D01*
X109943448Y-70581271D01*
X109972778Y-70617009D01*
X109972779Y-70617011D01*
X110056443Y-70773533D01*
X110056443Y-70773534D01*
X110107963Y-70943373D01*
X110125359Y-71120000D01*
X110107963Y-71296627D01*
X110073616Y-71409853D01*
X110056443Y-71466467D01*
X110003993Y-71564592D01*
X109972778Y-71622991D01*
X109943448Y-71658729D01*
X109860186Y-71760186D01*
X109760521Y-71841978D01*
X109722991Y-71872778D01*
X109722989Y-71872779D01*
X109566467Y-71956443D01*
X109509853Y-71973616D01*
X109396627Y-72007963D01*
X109330443Y-72014481D01*
X109264260Y-72021000D01*
X109175740Y-72021000D01*
X109109557Y-72014481D01*
X109043373Y-72007963D01*
X108930147Y-71973616D01*
X108873533Y-71956443D01*
X108717011Y-71872779D01*
X108717009Y-71872778D01*
X108679479Y-71841978D01*
X108579814Y-71760186D01*
X108496552Y-71658729D01*
X108467222Y-71622991D01*
X108436007Y-71564592D01*
X108383557Y-71466467D01*
X108366384Y-71409853D01*
X108332037Y-71296627D01*
X108314641Y-71120000D01*
X108332037Y-70943373D01*
X108383557Y-70773534D01*
X108383557Y-70773533D01*
X108467221Y-70617011D01*
X108467222Y-70617009D01*
X108496552Y-70581271D01*
X108579814Y-70479814D01*
X108681271Y-70396552D01*
X108717009Y-70367222D01*
X108734913Y-70357652D01*
X108873533Y-70283557D01*
X108930147Y-70266384D01*
X109043373Y-70232037D01*
X109109558Y-70225518D01*
X109175740Y-70219000D01*
X109264260Y-70219000D01*
X109330442Y-70225518D01*
X109330442Y-70225518D01*
G37*
G36*
X106790442Y-70225518D02*
X106856627Y-70232037D01*
X106969853Y-70266384D01*
X107026467Y-70283557D01*
X107165087Y-70357652D01*
X107182991Y-70367222D01*
X107218729Y-70396552D01*
X107320186Y-70479814D01*
X107403448Y-70581271D01*
X107432778Y-70617009D01*
X107432779Y-70617011D01*
X107516443Y-70773533D01*
X107516443Y-70773534D01*
X107567963Y-70943373D01*
X107585359Y-71120000D01*
X107567963Y-71296627D01*
X107533616Y-71409853D01*
X107516443Y-71466467D01*
X107463993Y-71564592D01*
X107432778Y-71622991D01*
X107403448Y-71658729D01*
X107320186Y-71760186D01*
X107220521Y-71841978D01*
X107182991Y-71872778D01*
X107182989Y-71872779D01*
X107026467Y-71956443D01*
X106969853Y-71973616D01*
X106856627Y-72007963D01*
X106790443Y-72014481D01*
X106724260Y-72021000D01*
X106635740Y-72021000D01*
X106569557Y-72014481D01*
X106503373Y-72007963D01*
X106390147Y-71973616D01*
X106333533Y-71956443D01*
X106177011Y-71872779D01*
X106177009Y-71872778D01*
X106139479Y-71841978D01*
X106039814Y-71760186D01*
X105956552Y-71658729D01*
X105927222Y-71622991D01*
X105896007Y-71564592D01*
X105843557Y-71466467D01*
X105826384Y-71409853D01*
X105792037Y-71296627D01*
X105774641Y-71120000D01*
X105792037Y-70943373D01*
X105843557Y-70773534D01*
X105843557Y-70773533D01*
X105927221Y-70617011D01*
X105927222Y-70617009D01*
X105956552Y-70581271D01*
X106039814Y-70479814D01*
X106141271Y-70396552D01*
X106177009Y-70367222D01*
X106194913Y-70357652D01*
X106333533Y-70283557D01*
X106390147Y-70266384D01*
X106503373Y-70232037D01*
X106569558Y-70225518D01*
X106635740Y-70219000D01*
X106724260Y-70219000D01*
X106790442Y-70225518D01*
X106790442Y-70225518D01*
G37*
G36*
X109330443Y-67685519D02*
X109396627Y-67692037D01*
X109509853Y-67726384D01*
X109566467Y-67743557D01*
X109699396Y-67814610D01*
X109722991Y-67827222D01*
X109756838Y-67855000D01*
X109860186Y-67939814D01*
X109943448Y-68041271D01*
X109972778Y-68077009D01*
X109972779Y-68077011D01*
X110056443Y-68233533D01*
X110056443Y-68233534D01*
X110107963Y-68403373D01*
X110125359Y-68580000D01*
X110107963Y-68756627D01*
X110073616Y-68869853D01*
X110056443Y-68926467D01*
X109982348Y-69065087D01*
X109972778Y-69082991D01*
X109943448Y-69118729D01*
X109860186Y-69220186D01*
X109758729Y-69303448D01*
X109722991Y-69332778D01*
X109722989Y-69332779D01*
X109566467Y-69416443D01*
X109509853Y-69433616D01*
X109396627Y-69467963D01*
X109330442Y-69474482D01*
X109264260Y-69481000D01*
X109175740Y-69481000D01*
X109109558Y-69474482D01*
X109043373Y-69467963D01*
X108930147Y-69433616D01*
X108873533Y-69416443D01*
X108717011Y-69332779D01*
X108717009Y-69332778D01*
X108681271Y-69303448D01*
X108579814Y-69220186D01*
X108496552Y-69118729D01*
X108467222Y-69082991D01*
X108457652Y-69065087D01*
X108383557Y-68926467D01*
X108366384Y-68869853D01*
X108332037Y-68756627D01*
X108314641Y-68580000D01*
X108332037Y-68403373D01*
X108383557Y-68233534D01*
X108383557Y-68233533D01*
X108467221Y-68077011D01*
X108467222Y-68077009D01*
X108496552Y-68041271D01*
X108579814Y-67939814D01*
X108683162Y-67855000D01*
X108717009Y-67827222D01*
X108740604Y-67814610D01*
X108873533Y-67743557D01*
X108930147Y-67726384D01*
X109043373Y-67692037D01*
X109109557Y-67685519D01*
X109175740Y-67679000D01*
X109264260Y-67679000D01*
X109330443Y-67685519D01*
X109330443Y-67685519D01*
G37*
G36*
X106790443Y-67685519D02*
X106856627Y-67692037D01*
X106969853Y-67726384D01*
X107026467Y-67743557D01*
X107159396Y-67814610D01*
X107182991Y-67827222D01*
X107216838Y-67855000D01*
X107320186Y-67939814D01*
X107403448Y-68041271D01*
X107432778Y-68077009D01*
X107432779Y-68077011D01*
X107516443Y-68233533D01*
X107516443Y-68233534D01*
X107567963Y-68403373D01*
X107585359Y-68580000D01*
X107567963Y-68756627D01*
X107533616Y-68869853D01*
X107516443Y-68926467D01*
X107442348Y-69065087D01*
X107432778Y-69082991D01*
X107403448Y-69118729D01*
X107320186Y-69220186D01*
X107218729Y-69303448D01*
X107182991Y-69332778D01*
X107182989Y-69332779D01*
X107026467Y-69416443D01*
X106969853Y-69433616D01*
X106856627Y-69467963D01*
X106790442Y-69474482D01*
X106724260Y-69481000D01*
X106635740Y-69481000D01*
X106569558Y-69474482D01*
X106503373Y-69467963D01*
X106390147Y-69433616D01*
X106333533Y-69416443D01*
X106177011Y-69332779D01*
X106177009Y-69332778D01*
X106141271Y-69303448D01*
X106039814Y-69220186D01*
X105956552Y-69118729D01*
X105927222Y-69082991D01*
X105917652Y-69065087D01*
X105843557Y-68926467D01*
X105826384Y-68869853D01*
X105792037Y-68756627D01*
X105774641Y-68580000D01*
X105792037Y-68403373D01*
X105843557Y-68233534D01*
X105843557Y-68233533D01*
X105927221Y-68077011D01*
X105927222Y-68077009D01*
X105956552Y-68041271D01*
X106039814Y-67939814D01*
X106143162Y-67855000D01*
X106177009Y-67827222D01*
X106200604Y-67814610D01*
X106333533Y-67743557D01*
X106390147Y-67726384D01*
X106503373Y-67692037D01*
X106569557Y-67685519D01*
X106635740Y-67679000D01*
X106724260Y-67679000D01*
X106790443Y-67685519D01*
X106790443Y-67685519D01*
G37*
G36*
X159184565Y-65793389D02*
X159375834Y-65872615D01*
X159547976Y-65987637D01*
X159694363Y-66134024D01*
X159809385Y-66306166D01*
X159888611Y-66497435D01*
X159929000Y-66700484D01*
X159929000Y-66907516D01*
X159888611Y-67110565D01*
X159809385Y-67301834D01*
X159694363Y-67473976D01*
X159547976Y-67620363D01*
X159375834Y-67735385D01*
X159184565Y-67814611D01*
X158981516Y-67855000D01*
X158774484Y-67855000D01*
X158571435Y-67814611D01*
X158380166Y-67735385D01*
X158208024Y-67620363D01*
X158061637Y-67473976D01*
X157946615Y-67301834D01*
X157867389Y-67110565D01*
X157827000Y-66907516D01*
X157827000Y-66700484D01*
X157867389Y-66497435D01*
X157946615Y-66306166D01*
X158061637Y-66134024D01*
X158208024Y-65987637D01*
X158380166Y-65872615D01*
X158571435Y-65793389D01*
X158774484Y-65753000D01*
X158981516Y-65753000D01*
X159184565Y-65793389D01*
X159184565Y-65793389D01*
G37*
G36*
X109330442Y-65145518D02*
X109396627Y-65152037D01*
X109509853Y-65186384D01*
X109566467Y-65203557D01*
X109705087Y-65277652D01*
X109722991Y-65287222D01*
X109758729Y-65316552D01*
X109860186Y-65399814D01*
X109943448Y-65501271D01*
X109972778Y-65537009D01*
X109972779Y-65537011D01*
X110056443Y-65693533D01*
X110056443Y-65693534D01*
X110107963Y-65863373D01*
X110125359Y-66040000D01*
X110107963Y-66216627D01*
X110081392Y-66304219D01*
X110056443Y-66386467D01*
X109997128Y-66497435D01*
X109972778Y-66542991D01*
X109943448Y-66578729D01*
X109860186Y-66680186D01*
X109758729Y-66763448D01*
X109722991Y-66792778D01*
X109722989Y-66792779D01*
X109566467Y-66876443D01*
X109509853Y-66893616D01*
X109396627Y-66927963D01*
X109330442Y-66934482D01*
X109264260Y-66941000D01*
X109175740Y-66941000D01*
X109109558Y-66934482D01*
X109043373Y-66927963D01*
X108930147Y-66893616D01*
X108873533Y-66876443D01*
X108717011Y-66792779D01*
X108717009Y-66792778D01*
X108681271Y-66763448D01*
X108579814Y-66680186D01*
X108496552Y-66578729D01*
X108467222Y-66542991D01*
X108442872Y-66497435D01*
X108383557Y-66386467D01*
X108358608Y-66304219D01*
X108332037Y-66216627D01*
X108314641Y-66040000D01*
X108332037Y-65863373D01*
X108383557Y-65693534D01*
X108383557Y-65693533D01*
X108467221Y-65537011D01*
X108467222Y-65537009D01*
X108496552Y-65501271D01*
X108579814Y-65399814D01*
X108681271Y-65316552D01*
X108717009Y-65287222D01*
X108734913Y-65277652D01*
X108873533Y-65203557D01*
X108930147Y-65186384D01*
X109043373Y-65152037D01*
X109109558Y-65145518D01*
X109175740Y-65139000D01*
X109264260Y-65139000D01*
X109330442Y-65145518D01*
X109330442Y-65145518D01*
G37*
G36*
X106790442Y-65145518D02*
X106856627Y-65152037D01*
X106969853Y-65186384D01*
X107026467Y-65203557D01*
X107165087Y-65277652D01*
X107182991Y-65287222D01*
X107218729Y-65316552D01*
X107320186Y-65399814D01*
X107403448Y-65501271D01*
X107432778Y-65537009D01*
X107432779Y-65537011D01*
X107516443Y-65693533D01*
X107516443Y-65693534D01*
X107567963Y-65863373D01*
X107585359Y-66040000D01*
X107567963Y-66216627D01*
X107541392Y-66304219D01*
X107516443Y-66386467D01*
X107457128Y-66497435D01*
X107432778Y-66542991D01*
X107403448Y-66578729D01*
X107320186Y-66680186D01*
X107218729Y-66763448D01*
X107182991Y-66792778D01*
X107182989Y-66792779D01*
X107026467Y-66876443D01*
X106969853Y-66893616D01*
X106856627Y-66927963D01*
X106790442Y-66934482D01*
X106724260Y-66941000D01*
X106635740Y-66941000D01*
X106569558Y-66934482D01*
X106503373Y-66927963D01*
X106390147Y-66893616D01*
X106333533Y-66876443D01*
X106177011Y-66792779D01*
X106177009Y-66792778D01*
X106141271Y-66763448D01*
X106039814Y-66680186D01*
X105956552Y-66578729D01*
X105927222Y-66542991D01*
X105902872Y-66497435D01*
X105843557Y-66386467D01*
X105818608Y-66304219D01*
X105792037Y-66216627D01*
X105774641Y-66040000D01*
X105792037Y-65863373D01*
X105843557Y-65693534D01*
X105843557Y-65693533D01*
X105927221Y-65537011D01*
X105927222Y-65537009D01*
X105956552Y-65501271D01*
X106039814Y-65399814D01*
X106141271Y-65316552D01*
X106177009Y-65287222D01*
X106194913Y-65277652D01*
X106333533Y-65203557D01*
X106390147Y-65186384D01*
X106503373Y-65152037D01*
X106569558Y-65145518D01*
X106635740Y-65139000D01*
X106724260Y-65139000D01*
X106790442Y-65145518D01*
X106790442Y-65145518D01*
G37*
G36*
X162796871Y-63412408D02*
X163101883Y-63538748D01*
X163228597Y-63623416D01*
X163376390Y-63722168D01*
X163609832Y-63955610D01*
X163609834Y-63955613D01*
X163793252Y-64230117D01*
X163919592Y-64535129D01*
X163984000Y-64858928D01*
X163984000Y-65189072D01*
X163919592Y-65512871D01*
X163793252Y-65817883D01*
X163679827Y-65987635D01*
X163609832Y-66092390D01*
X163376390Y-66325832D01*
X163376387Y-66325834D01*
X163101883Y-66509252D01*
X162796871Y-66635592D01*
X162473072Y-66700000D01*
X162142928Y-66700000D01*
X161819129Y-66635592D01*
X161514117Y-66509252D01*
X161239613Y-66325834D01*
X161239610Y-66325832D01*
X161006168Y-66092390D01*
X160936173Y-65987635D01*
X160822748Y-65817883D01*
X160696408Y-65512871D01*
X160632000Y-65189072D01*
X160632000Y-64858928D01*
X160696408Y-64535129D01*
X160822748Y-64230117D01*
X161006166Y-63955613D01*
X161006168Y-63955610D01*
X161239610Y-63722168D01*
X161387403Y-63623416D01*
X161514117Y-63538748D01*
X161819129Y-63412408D01*
X162142928Y-63348000D01*
X162473072Y-63348000D01*
X162796871Y-63412408D01*
X162796871Y-63412408D01*
G37*
G36*
X153401643Y-64763781D02*
X153547415Y-64824162D01*
X153678611Y-64911824D01*
X153790176Y-65023389D01*
X153877838Y-65154585D01*
X153938219Y-65300357D01*
X153969000Y-65455107D01*
X153969000Y-65612893D01*
X153938219Y-65767643D01*
X153877838Y-65913415D01*
X153790176Y-66044611D01*
X153678611Y-66156176D01*
X153547415Y-66243838D01*
X153401643Y-66304219D01*
X153246893Y-66335000D01*
X153089107Y-66335000D01*
X152934357Y-66304219D01*
X152788585Y-66243838D01*
X152657389Y-66156176D01*
X152545824Y-66044611D01*
X152458162Y-65913415D01*
X152397781Y-65767643D01*
X152367000Y-65612893D01*
X152367000Y-65455107D01*
X152397781Y-65300357D01*
X152458162Y-65154585D01*
X152545824Y-65023389D01*
X152657389Y-64911824D01*
X152788585Y-64824162D01*
X152934357Y-64763781D01*
X153089107Y-64733000D01*
X153246893Y-64733000D01*
X153401643Y-64763781D01*
X153401643Y-64763781D01*
G37*
G36*
X109330442Y-62605518D02*
X109396627Y-62612037D01*
X109509853Y-62646384D01*
X109566467Y-62663557D01*
X109697117Y-62733392D01*
X109722991Y-62747222D01*
X109744179Y-62764611D01*
X109860186Y-62859814D01*
X109943448Y-62961271D01*
X109972778Y-62997009D01*
X109972779Y-62997011D01*
X110056443Y-63153533D01*
X110056443Y-63153534D01*
X110107963Y-63323373D01*
X110125359Y-63500000D01*
X110107963Y-63676627D01*
X110094149Y-63722166D01*
X110056443Y-63846467D01*
X110045908Y-63866176D01*
X109972778Y-64002991D01*
X109963564Y-64014218D01*
X109860186Y-64140186D01*
X109758729Y-64223448D01*
X109722991Y-64252778D01*
X109722989Y-64252779D01*
X109566467Y-64336443D01*
X109509853Y-64353616D01*
X109396627Y-64387963D01*
X109330442Y-64394482D01*
X109264260Y-64401000D01*
X109175740Y-64401000D01*
X109109558Y-64394482D01*
X109043373Y-64387963D01*
X108930147Y-64353616D01*
X108873533Y-64336443D01*
X108717011Y-64252779D01*
X108717009Y-64252778D01*
X108681271Y-64223448D01*
X108579814Y-64140186D01*
X108476436Y-64014218D01*
X108467222Y-64002991D01*
X108394092Y-63866176D01*
X108383557Y-63846467D01*
X108345851Y-63722166D01*
X108332037Y-63676627D01*
X108314641Y-63500000D01*
X108332037Y-63323373D01*
X108383557Y-63153534D01*
X108383557Y-63153533D01*
X108467221Y-62997011D01*
X108467222Y-62997009D01*
X108496552Y-62961271D01*
X108579814Y-62859814D01*
X108695821Y-62764611D01*
X108717009Y-62747222D01*
X108742883Y-62733392D01*
X108873533Y-62663557D01*
X108930147Y-62646384D01*
X109043373Y-62612037D01*
X109109558Y-62605518D01*
X109175740Y-62599000D01*
X109264260Y-62599000D01*
X109330442Y-62605518D01*
X109330442Y-62605518D01*
G37*
G36*
X106790442Y-62605518D02*
X106856627Y-62612037D01*
X106969853Y-62646384D01*
X107026467Y-62663557D01*
X107157117Y-62733392D01*
X107182991Y-62747222D01*
X107204179Y-62764611D01*
X107320186Y-62859814D01*
X107403448Y-62961271D01*
X107432778Y-62997009D01*
X107432779Y-62997011D01*
X107516443Y-63153533D01*
X107516443Y-63153534D01*
X107567963Y-63323373D01*
X107585359Y-63500000D01*
X107567963Y-63676627D01*
X107554149Y-63722166D01*
X107516443Y-63846467D01*
X107505908Y-63866176D01*
X107432778Y-64002991D01*
X107423564Y-64014218D01*
X107320186Y-64140186D01*
X107218729Y-64223448D01*
X107182991Y-64252778D01*
X107182989Y-64252779D01*
X107026467Y-64336443D01*
X106969853Y-64353616D01*
X106856627Y-64387963D01*
X106790442Y-64394482D01*
X106724260Y-64401000D01*
X106635740Y-64401000D01*
X106569558Y-64394482D01*
X106503373Y-64387963D01*
X106390147Y-64353616D01*
X106333533Y-64336443D01*
X106177011Y-64252779D01*
X106177009Y-64252778D01*
X106141271Y-64223448D01*
X106039814Y-64140186D01*
X105936436Y-64014218D01*
X105927222Y-64002991D01*
X105854092Y-63866176D01*
X105843557Y-63846467D01*
X105805851Y-63722166D01*
X105792037Y-63676627D01*
X105774641Y-63500000D01*
X105792037Y-63323373D01*
X105843557Y-63153534D01*
X105843557Y-63153533D01*
X105927221Y-62997011D01*
X105927222Y-62997009D01*
X105956552Y-62961271D01*
X106039814Y-62859814D01*
X106155821Y-62764611D01*
X106177009Y-62747222D01*
X106202883Y-62733392D01*
X106333533Y-62663557D01*
X106390147Y-62646384D01*
X106503373Y-62612037D01*
X106569558Y-62605518D01*
X106635740Y-62599000D01*
X106724260Y-62599000D01*
X106790442Y-62605518D01*
X106790442Y-62605518D01*
G37*
G36*
X153401643Y-62473781D02*
X153547415Y-62534162D01*
X153678611Y-62621824D01*
X153790176Y-62733389D01*
X153877838Y-62864585D01*
X153938219Y-63010357D01*
X153969000Y-63165107D01*
X153969000Y-63322893D01*
X153938219Y-63477643D01*
X153877838Y-63623415D01*
X153790176Y-63754611D01*
X153678611Y-63866176D01*
X153547415Y-63953838D01*
X153401643Y-64014219D01*
X153246893Y-64045000D01*
X153089107Y-64045000D01*
X152934357Y-64014219D01*
X152788585Y-63953838D01*
X152657389Y-63866176D01*
X152545824Y-63754611D01*
X152458162Y-63623415D01*
X152397781Y-63477643D01*
X152367000Y-63322893D01*
X152367000Y-63165107D01*
X152397781Y-63010357D01*
X152458162Y-62864585D01*
X152545824Y-62733389D01*
X152657389Y-62621824D01*
X152788585Y-62534162D01*
X152934357Y-62473781D01*
X153089107Y-62443000D01*
X153246893Y-62443000D01*
X153401643Y-62473781D01*
X153401643Y-62473781D01*
G37*
G36*
X158221643Y-61483781D02*
X158367415Y-61544162D01*
X158498611Y-61631824D01*
X158610176Y-61743389D01*
X158697838Y-61874585D01*
X158758219Y-62020357D01*
X158789000Y-62175107D01*
X158789000Y-62332893D01*
X158758219Y-62487643D01*
X158697838Y-62633415D01*
X158610176Y-62764611D01*
X158498611Y-62876176D01*
X158367415Y-62963838D01*
X158221643Y-63024219D01*
X158066893Y-63055000D01*
X157909107Y-63055000D01*
X157754357Y-63024219D01*
X157608585Y-62963838D01*
X157477389Y-62876176D01*
X157365824Y-62764611D01*
X157278162Y-62633415D01*
X157217781Y-62487643D01*
X157187000Y-62332893D01*
X157187000Y-62175107D01*
X157217781Y-62020357D01*
X157278162Y-61874585D01*
X157365824Y-61743389D01*
X157477389Y-61631824D01*
X157608585Y-61544162D01*
X157754357Y-61483781D01*
X157909107Y-61453000D01*
X158066893Y-61453000D01*
X158221643Y-61483781D01*
X158221643Y-61483781D01*
G37*
G36*
X160001643Y-60463781D02*
X160147415Y-60524162D01*
X160278611Y-60611824D01*
X160390176Y-60723389D01*
X160477838Y-60854585D01*
X160538219Y-61000357D01*
X160569000Y-61155107D01*
X160569000Y-61312893D01*
X160538219Y-61467643D01*
X160477838Y-61613415D01*
X160390176Y-61744611D01*
X160278611Y-61856176D01*
X160147415Y-61943838D01*
X160001643Y-62004219D01*
X159846893Y-62035000D01*
X159689107Y-62035000D01*
X159534357Y-62004219D01*
X159388585Y-61943838D01*
X159257389Y-61856176D01*
X159145824Y-61744611D01*
X159058162Y-61613415D01*
X158997781Y-61467643D01*
X158967000Y-61312893D01*
X158967000Y-61155107D01*
X158997781Y-61000357D01*
X159058162Y-60854585D01*
X159145824Y-60723389D01*
X159257389Y-60611824D01*
X159388585Y-60524162D01*
X159534357Y-60463781D01*
X159689107Y-60433000D01*
X159846893Y-60433000D01*
X160001643Y-60463781D01*
X160001643Y-60463781D01*
G37*
G36*
X106790442Y-60065518D02*
X106856627Y-60072037D01*
X106969853Y-60106384D01*
X107026467Y-60123557D01*
X107165087Y-60197652D01*
X107182991Y-60207222D01*
X107218729Y-60236552D01*
X107320186Y-60319814D01*
X107403448Y-60421271D01*
X107432778Y-60457009D01*
X107432779Y-60457011D01*
X107516443Y-60613533D01*
X107516443Y-60613534D01*
X107567963Y-60783373D01*
X107585359Y-60960000D01*
X107567963Y-61136627D01*
X107533616Y-61249853D01*
X107516443Y-61306467D01*
X107513008Y-61312893D01*
X107432778Y-61462991D01*
X107428960Y-61467643D01*
X107320186Y-61600186D01*
X107218729Y-61683448D01*
X107182991Y-61712778D01*
X107182989Y-61712779D01*
X107026467Y-61796443D01*
X106969853Y-61813616D01*
X106856627Y-61847963D01*
X106790443Y-61854481D01*
X106724260Y-61861000D01*
X106635740Y-61861000D01*
X106569557Y-61854481D01*
X106503373Y-61847963D01*
X106390147Y-61813616D01*
X106333533Y-61796443D01*
X106177011Y-61712779D01*
X106177009Y-61712778D01*
X106141271Y-61683448D01*
X106039814Y-61600186D01*
X105931040Y-61467643D01*
X105927222Y-61462991D01*
X105846992Y-61312893D01*
X105843557Y-61306467D01*
X105826384Y-61249853D01*
X105792037Y-61136627D01*
X105774641Y-60960000D01*
X105792037Y-60783373D01*
X105843557Y-60613534D01*
X105843557Y-60613533D01*
X105927221Y-60457011D01*
X105927222Y-60457009D01*
X105956552Y-60421271D01*
X106039814Y-60319814D01*
X106141271Y-60236552D01*
X106177009Y-60207222D01*
X106194913Y-60197652D01*
X106333533Y-60123557D01*
X106390147Y-60106384D01*
X106503373Y-60072037D01*
X106569558Y-60065518D01*
X106635740Y-60059000D01*
X106724260Y-60059000D01*
X106790442Y-60065518D01*
X106790442Y-60065518D01*
G37*
G36*
X109330442Y-60065518D02*
X109396627Y-60072037D01*
X109509853Y-60106384D01*
X109566467Y-60123557D01*
X109705087Y-60197652D01*
X109722991Y-60207222D01*
X109758729Y-60236552D01*
X109860186Y-60319814D01*
X109943448Y-60421271D01*
X109972778Y-60457009D01*
X109972779Y-60457011D01*
X110056443Y-60613533D01*
X110056443Y-60613534D01*
X110107963Y-60783373D01*
X110125359Y-60960000D01*
X110107963Y-61136627D01*
X110073616Y-61249853D01*
X110056443Y-61306467D01*
X110053008Y-61312893D01*
X109972778Y-61462991D01*
X109968960Y-61467643D01*
X109860186Y-61600186D01*
X109758729Y-61683448D01*
X109722991Y-61712778D01*
X109722989Y-61712779D01*
X109566467Y-61796443D01*
X109509853Y-61813616D01*
X109396627Y-61847963D01*
X109330443Y-61854481D01*
X109264260Y-61861000D01*
X109175740Y-61861000D01*
X109109557Y-61854481D01*
X109043373Y-61847963D01*
X108930147Y-61813616D01*
X108873533Y-61796443D01*
X108717011Y-61712779D01*
X108717009Y-61712778D01*
X108681271Y-61683448D01*
X108579814Y-61600186D01*
X108471040Y-61467643D01*
X108467222Y-61462991D01*
X108386992Y-61312893D01*
X108383557Y-61306467D01*
X108366384Y-61249853D01*
X108332037Y-61136627D01*
X108314641Y-60960000D01*
X108332037Y-60783373D01*
X108383557Y-60613534D01*
X108383557Y-60613533D01*
X108467221Y-60457011D01*
X108467222Y-60457009D01*
X108496552Y-60421271D01*
X108579814Y-60319814D01*
X108681271Y-60236552D01*
X108717009Y-60207222D01*
X108734913Y-60197652D01*
X108873533Y-60123557D01*
X108930147Y-60106384D01*
X109043373Y-60072037D01*
X109109558Y-60065518D01*
X109175740Y-60059000D01*
X109264260Y-60059000D01*
X109330442Y-60065518D01*
X109330442Y-60065518D01*
G37*
G36*
X158221643Y-59443781D02*
X158367415Y-59504162D01*
X158498611Y-59591824D01*
X158610176Y-59703389D01*
X158697838Y-59834585D01*
X158758219Y-59980357D01*
X158789000Y-60135107D01*
X158789000Y-60292893D01*
X158758219Y-60447643D01*
X158697838Y-60593415D01*
X158610176Y-60724611D01*
X158498611Y-60836176D01*
X158367415Y-60923838D01*
X158221643Y-60984219D01*
X158066893Y-61015000D01*
X157909107Y-61015000D01*
X157754357Y-60984219D01*
X157608585Y-60923838D01*
X157477389Y-60836176D01*
X157365824Y-60724611D01*
X157278162Y-60593415D01*
X157217781Y-60447643D01*
X157187000Y-60292893D01*
X157187000Y-60135107D01*
X157217781Y-59980357D01*
X157278162Y-59834585D01*
X157365824Y-59703389D01*
X157477389Y-59591824D01*
X157608585Y-59504162D01*
X157754357Y-59443781D01*
X157909107Y-59413000D01*
X158066893Y-59413000D01*
X158221643Y-59443781D01*
X158221643Y-59443781D01*
G37*
G36*
X160001643Y-58423781D02*
X160147415Y-58484162D01*
X160278611Y-58571824D01*
X160390176Y-58683389D01*
X160477838Y-58814585D01*
X160538219Y-58960357D01*
X160569000Y-59115107D01*
X160569000Y-59272893D01*
X160538219Y-59427643D01*
X160477838Y-59573415D01*
X160390176Y-59704611D01*
X160278611Y-59816176D01*
X160147415Y-59903838D01*
X160001643Y-59964219D01*
X159846893Y-59995000D01*
X159689107Y-59995000D01*
X159534357Y-59964219D01*
X159388585Y-59903838D01*
X159257389Y-59816176D01*
X159145824Y-59704611D01*
X159058162Y-59573415D01*
X158997781Y-59427643D01*
X158967000Y-59272893D01*
X158967000Y-59115107D01*
X158997781Y-58960357D01*
X159058162Y-58814585D01*
X159145824Y-58683389D01*
X159257389Y-58571824D01*
X159388585Y-58484162D01*
X159534357Y-58423781D01*
X159689107Y-58393000D01*
X159846893Y-58393000D01*
X160001643Y-58423781D01*
X160001643Y-58423781D01*
G37*
G36*
X109330443Y-57525519D02*
X109396627Y-57532037D01*
X109509853Y-57566384D01*
X109566467Y-57583557D01*
X109705087Y-57657652D01*
X109722991Y-57667222D01*
X109758729Y-57696552D01*
X109860186Y-57779814D01*
X109943448Y-57881271D01*
X109972778Y-57917009D01*
X109972779Y-57917011D01*
X110056443Y-58073533D01*
X110073616Y-58130147D01*
X110107963Y-58243373D01*
X110125359Y-58420000D01*
X110107963Y-58596627D01*
X110081644Y-58683389D01*
X110056443Y-58766467D01*
X110030723Y-58814585D01*
X109972778Y-58922991D01*
X109943448Y-58958729D01*
X109860186Y-59060186D01*
X109793262Y-59115108D01*
X109722991Y-59172778D01*
X109722989Y-59172779D01*
X109566467Y-59256443D01*
X109512241Y-59272892D01*
X109396627Y-59307963D01*
X109330442Y-59314482D01*
X109264260Y-59321000D01*
X109175740Y-59321000D01*
X109109558Y-59314482D01*
X109043373Y-59307963D01*
X108927759Y-59272892D01*
X108873533Y-59256443D01*
X108717011Y-59172779D01*
X108717009Y-59172778D01*
X108646738Y-59115108D01*
X108579814Y-59060186D01*
X108496552Y-58958729D01*
X108467222Y-58922991D01*
X108409277Y-58814585D01*
X108383557Y-58766467D01*
X108358356Y-58683389D01*
X108332037Y-58596627D01*
X108314641Y-58420000D01*
X108332037Y-58243373D01*
X108366384Y-58130147D01*
X108383557Y-58073533D01*
X108467221Y-57917011D01*
X108467222Y-57917009D01*
X108496552Y-57881271D01*
X108579814Y-57779814D01*
X108681271Y-57696552D01*
X108717009Y-57667222D01*
X108734913Y-57657652D01*
X108873533Y-57583557D01*
X108930147Y-57566384D01*
X109043373Y-57532037D01*
X109109557Y-57525519D01*
X109175740Y-57519000D01*
X109264260Y-57519000D01*
X109330443Y-57525519D01*
X109330443Y-57525519D01*
G37*
G36*
X106790443Y-57525519D02*
X106856627Y-57532037D01*
X106969853Y-57566384D01*
X107026467Y-57583557D01*
X107165087Y-57657652D01*
X107182991Y-57667222D01*
X107218729Y-57696552D01*
X107320186Y-57779814D01*
X107403448Y-57881271D01*
X107432778Y-57917009D01*
X107432779Y-57917011D01*
X107516443Y-58073533D01*
X107533616Y-58130147D01*
X107567963Y-58243373D01*
X107585359Y-58420000D01*
X107567963Y-58596627D01*
X107541644Y-58683389D01*
X107516443Y-58766467D01*
X107490723Y-58814585D01*
X107432778Y-58922991D01*
X107403448Y-58958729D01*
X107320186Y-59060186D01*
X107253262Y-59115108D01*
X107182991Y-59172778D01*
X107182989Y-59172779D01*
X107026467Y-59256443D01*
X106972241Y-59272892D01*
X106856627Y-59307963D01*
X106790442Y-59314482D01*
X106724260Y-59321000D01*
X106635740Y-59321000D01*
X106569558Y-59314482D01*
X106503373Y-59307963D01*
X106387759Y-59272892D01*
X106333533Y-59256443D01*
X106177011Y-59172779D01*
X106177009Y-59172778D01*
X106106738Y-59115108D01*
X106039814Y-59060186D01*
X105956552Y-58958729D01*
X105927222Y-58922991D01*
X105869277Y-58814585D01*
X105843557Y-58766467D01*
X105818356Y-58683389D01*
X105792037Y-58596627D01*
X105774641Y-58420000D01*
X105792037Y-58243373D01*
X105826384Y-58130147D01*
X105843557Y-58073533D01*
X105927221Y-57917011D01*
X105927222Y-57917009D01*
X105956552Y-57881271D01*
X106039814Y-57779814D01*
X106141271Y-57696552D01*
X106177009Y-57667222D01*
X106194913Y-57657652D01*
X106333533Y-57583557D01*
X106390147Y-57566384D01*
X106503373Y-57532037D01*
X106569557Y-57525519D01*
X106635740Y-57519000D01*
X106724260Y-57519000D01*
X106790443Y-57525519D01*
X106790443Y-57525519D01*
G37*
G36*
X158221643Y-57403781D02*
X158367415Y-57464162D01*
X158498611Y-57551824D01*
X158610176Y-57663389D01*
X158697838Y-57794585D01*
X158758219Y-57940357D01*
X158789000Y-58095107D01*
X158789000Y-58252893D01*
X158758219Y-58407643D01*
X158697838Y-58553415D01*
X158610176Y-58684611D01*
X158498611Y-58796176D01*
X158367415Y-58883838D01*
X158221643Y-58944219D01*
X158066893Y-58975000D01*
X157909107Y-58975000D01*
X157754357Y-58944219D01*
X157608585Y-58883838D01*
X157477389Y-58796176D01*
X157365824Y-58684611D01*
X157278162Y-58553415D01*
X157217781Y-58407643D01*
X157187000Y-58252893D01*
X157187000Y-58095107D01*
X157217781Y-57940357D01*
X157278162Y-57794585D01*
X157365824Y-57663389D01*
X157477389Y-57551824D01*
X157608585Y-57464162D01*
X157754357Y-57403781D01*
X157909107Y-57373000D01*
X158066893Y-57373000D01*
X158221643Y-57403781D01*
X158221643Y-57403781D01*
G37*
G36*
X160001643Y-56383781D02*
X160147415Y-56444162D01*
X160278611Y-56531824D01*
X160390176Y-56643389D01*
X160477838Y-56774585D01*
X160538219Y-56920357D01*
X160569000Y-57075107D01*
X160569000Y-57232893D01*
X160538219Y-57387643D01*
X160477838Y-57533415D01*
X160390176Y-57664611D01*
X160278611Y-57776176D01*
X160147415Y-57863838D01*
X160001643Y-57924219D01*
X159846893Y-57955000D01*
X159689107Y-57955000D01*
X159534357Y-57924219D01*
X159388585Y-57863838D01*
X159257389Y-57776176D01*
X159145824Y-57664611D01*
X159058162Y-57533415D01*
X158997781Y-57387643D01*
X158967000Y-57232893D01*
X158967000Y-57075107D01*
X158997781Y-56920357D01*
X159058162Y-56774585D01*
X159145824Y-56643389D01*
X159257389Y-56531824D01*
X159388585Y-56444162D01*
X159534357Y-56383781D01*
X159689107Y-56353000D01*
X159846893Y-56353000D01*
X160001643Y-56383781D01*
X160001643Y-56383781D01*
G37*
G36*
X160569000Y-55915000D02*
X158913444Y-55915000D01*
X158889058Y-55917402D01*
X158865609Y-55924515D01*
X158843998Y-55936066D01*
X158825056Y-55951612D01*
X158809510Y-55970554D01*
X158797959Y-55992165D01*
X158790846Y-56015614D01*
X158788444Y-56040000D01*
X158789000Y-56045648D01*
X158789000Y-56212893D01*
X158758219Y-56367643D01*
X158697838Y-56513415D01*
X158610176Y-56644611D01*
X158498611Y-56756176D01*
X158367415Y-56843838D01*
X158221643Y-56904219D01*
X158066893Y-56935000D01*
X157909107Y-56935000D01*
X157754357Y-56904219D01*
X157608585Y-56843838D01*
X157477389Y-56756176D01*
X157365824Y-56644611D01*
X157278162Y-56513415D01*
X157217781Y-56367643D01*
X157187000Y-56212893D01*
X157187000Y-56055107D01*
X157217781Y-55900357D01*
X157278162Y-55754585D01*
X157365824Y-55623389D01*
X157477389Y-55511824D01*
X157608585Y-55424162D01*
X157754357Y-55363781D01*
X157909107Y-55333000D01*
X158066893Y-55333000D01*
X158221643Y-55363781D01*
X158367415Y-55424162D01*
X158498611Y-55511824D01*
X158610176Y-55623389D01*
X158697837Y-55754583D01*
X158726515Y-55823818D01*
X158738066Y-55845428D01*
X158753612Y-55864370D01*
X158772554Y-55879916D01*
X158794165Y-55891467D01*
X158817614Y-55898580D01*
X158842000Y-55900982D01*
X158866386Y-55898580D01*
X158889836Y-55891467D01*
X158911446Y-55879916D01*
X158930388Y-55864370D01*
X158945934Y-55845428D01*
X158957485Y-55823817D01*
X158964598Y-55800368D01*
X158967000Y-55775982D01*
X158967000Y-54313000D01*
X160569000Y-54313000D01*
X160569000Y-55915000D01*
X160569000Y-55915000D01*
G37*
G36*
X109330443Y-54985519D02*
X109396627Y-54992037D01*
X109509853Y-55026384D01*
X109566467Y-55043557D01*
X109705087Y-55117652D01*
X109722991Y-55127222D01*
X109758729Y-55156552D01*
X109860186Y-55239814D01*
X109943448Y-55341271D01*
X109972778Y-55377009D01*
X109972779Y-55377011D01*
X110056443Y-55533533D01*
X110056443Y-55533534D01*
X110107963Y-55703373D01*
X110125359Y-55880000D01*
X110107963Y-56056627D01*
X110073616Y-56169853D01*
X110056443Y-56226467D01*
X109988809Y-56353000D01*
X109972778Y-56382991D01*
X109943448Y-56418729D01*
X109860186Y-56520186D01*
X109758729Y-56603448D01*
X109722991Y-56632778D01*
X109722989Y-56632779D01*
X109566467Y-56716443D01*
X109509853Y-56733616D01*
X109396627Y-56767963D01*
X109330443Y-56774481D01*
X109264260Y-56781000D01*
X109175740Y-56781000D01*
X109109557Y-56774481D01*
X109043373Y-56767963D01*
X108930147Y-56733616D01*
X108873533Y-56716443D01*
X108717011Y-56632779D01*
X108717009Y-56632778D01*
X108681271Y-56603448D01*
X108579814Y-56520186D01*
X108496552Y-56418729D01*
X108467222Y-56382991D01*
X108451191Y-56353000D01*
X108383557Y-56226467D01*
X108366384Y-56169853D01*
X108332037Y-56056627D01*
X108314641Y-55880000D01*
X108332037Y-55703373D01*
X108383557Y-55533534D01*
X108383557Y-55533533D01*
X108467221Y-55377011D01*
X108467222Y-55377009D01*
X108496552Y-55341271D01*
X108579814Y-55239814D01*
X108681271Y-55156552D01*
X108717009Y-55127222D01*
X108734913Y-55117652D01*
X108873533Y-55043557D01*
X108930147Y-55026384D01*
X109043373Y-54992037D01*
X109109557Y-54985519D01*
X109175740Y-54979000D01*
X109264260Y-54979000D01*
X109330443Y-54985519D01*
X109330443Y-54985519D01*
G37*
G36*
X106790443Y-54985519D02*
X106856627Y-54992037D01*
X106969853Y-55026384D01*
X107026467Y-55043557D01*
X107165087Y-55117652D01*
X107182991Y-55127222D01*
X107218729Y-55156552D01*
X107320186Y-55239814D01*
X107403448Y-55341271D01*
X107432778Y-55377009D01*
X107432779Y-55377011D01*
X107516443Y-55533533D01*
X107516443Y-55533534D01*
X107567963Y-55703373D01*
X107585359Y-55880000D01*
X107567963Y-56056627D01*
X107533616Y-56169853D01*
X107516443Y-56226467D01*
X107448809Y-56353000D01*
X107432778Y-56382991D01*
X107403448Y-56418729D01*
X107320186Y-56520186D01*
X107218729Y-56603448D01*
X107182991Y-56632778D01*
X107182989Y-56632779D01*
X107026467Y-56716443D01*
X106969853Y-56733616D01*
X106856627Y-56767963D01*
X106790443Y-56774481D01*
X106724260Y-56781000D01*
X106635740Y-56781000D01*
X106569557Y-56774481D01*
X106503373Y-56767963D01*
X106390147Y-56733616D01*
X106333533Y-56716443D01*
X106177011Y-56632779D01*
X106177009Y-56632778D01*
X106141271Y-56603448D01*
X106039814Y-56520186D01*
X105956552Y-56418729D01*
X105927222Y-56382991D01*
X105911191Y-56353000D01*
X105843557Y-56226467D01*
X105826384Y-56169853D01*
X105792037Y-56056627D01*
X105774641Y-55880000D01*
X105792037Y-55703373D01*
X105843557Y-55533534D01*
X105843557Y-55533533D01*
X105927221Y-55377011D01*
X105927222Y-55377009D01*
X105956552Y-55341271D01*
X106039814Y-55239814D01*
X106141271Y-55156552D01*
X106177009Y-55127222D01*
X106194913Y-55117652D01*
X106333533Y-55043557D01*
X106390147Y-55026384D01*
X106503373Y-54992037D01*
X106569557Y-54985519D01*
X106635740Y-54979000D01*
X106724260Y-54979000D01*
X106790443Y-54985519D01*
X106790443Y-54985519D01*
G37*
G36*
X153401643Y-53333781D02*
X153547415Y-53394162D01*
X153678611Y-53481824D01*
X153790176Y-53593389D01*
X153877838Y-53724585D01*
X153938219Y-53870357D01*
X153969000Y-54025107D01*
X153969000Y-54182893D01*
X153938219Y-54337643D01*
X153877838Y-54483415D01*
X153790176Y-54614611D01*
X153678611Y-54726176D01*
X153547415Y-54813838D01*
X153401643Y-54874219D01*
X153246893Y-54905000D01*
X153089107Y-54905000D01*
X152934357Y-54874219D01*
X152788585Y-54813838D01*
X152657389Y-54726176D01*
X152545824Y-54614611D01*
X152458162Y-54483415D01*
X152397781Y-54337643D01*
X152367000Y-54182893D01*
X152367000Y-54025107D01*
X152397781Y-53870357D01*
X152458162Y-53724585D01*
X152545824Y-53593389D01*
X152657389Y-53481824D01*
X152788585Y-53394162D01*
X152934357Y-53333781D01*
X153089107Y-53303000D01*
X153246893Y-53303000D01*
X153401643Y-53333781D01*
X153401643Y-53333781D01*
G37*
G36*
X106790443Y-52445519D02*
X106856627Y-52452037D01*
X106969853Y-52486384D01*
X107026467Y-52503557D01*
X107165087Y-52577652D01*
X107182991Y-52587222D01*
X107216838Y-52615000D01*
X107320186Y-52699814D01*
X107403448Y-52801271D01*
X107432778Y-52837009D01*
X107432779Y-52837011D01*
X107516443Y-52993533D01*
X107516443Y-52993534D01*
X107567963Y-53163373D01*
X107585359Y-53340000D01*
X107567963Y-53516627D01*
X107534836Y-53625832D01*
X107516443Y-53686467D01*
X107496068Y-53724585D01*
X107432778Y-53842991D01*
X107410319Y-53870357D01*
X107320186Y-53980186D01*
X107218729Y-54063448D01*
X107182991Y-54092778D01*
X107182989Y-54092779D01*
X107026467Y-54176443D01*
X106969853Y-54193616D01*
X106856627Y-54227963D01*
X106790442Y-54234482D01*
X106724260Y-54241000D01*
X106635740Y-54241000D01*
X106569558Y-54234482D01*
X106503373Y-54227963D01*
X106390147Y-54193616D01*
X106333533Y-54176443D01*
X106177011Y-54092779D01*
X106177009Y-54092778D01*
X106141271Y-54063448D01*
X106039814Y-53980186D01*
X105949681Y-53870357D01*
X105927222Y-53842991D01*
X105863932Y-53724585D01*
X105843557Y-53686467D01*
X105825164Y-53625832D01*
X105792037Y-53516627D01*
X105774641Y-53340000D01*
X105792037Y-53163373D01*
X105843557Y-52993534D01*
X105843557Y-52993533D01*
X105927221Y-52837011D01*
X105927222Y-52837009D01*
X105956552Y-52801271D01*
X106039814Y-52699814D01*
X106143162Y-52615000D01*
X106177009Y-52587222D01*
X106194913Y-52577652D01*
X106333533Y-52503557D01*
X106390147Y-52486384D01*
X106503373Y-52452037D01*
X106569558Y-52445518D01*
X106635740Y-52439000D01*
X106724260Y-52439000D01*
X106790443Y-52445519D01*
X106790443Y-52445519D01*
G37*
G36*
X110121000Y-54241000D02*
X108319000Y-54241000D01*
X108319000Y-52439000D01*
X110121000Y-52439000D01*
X110121000Y-54241000D01*
X110121000Y-54241000D01*
G37*
G36*
X162796871Y-50712408D02*
X163101883Y-50838748D01*
X163362669Y-51013000D01*
X163376390Y-51022168D01*
X163609832Y-51255610D01*
X163609834Y-51255613D01*
X163793252Y-51530117D01*
X163919592Y-51835129D01*
X163984000Y-52158928D01*
X163984000Y-52489072D01*
X163919592Y-52812871D01*
X163793252Y-53117883D01*
X163648993Y-53333781D01*
X163609832Y-53392390D01*
X163376390Y-53625832D01*
X163376387Y-53625834D01*
X163101883Y-53809252D01*
X162796871Y-53935592D01*
X162473072Y-54000000D01*
X162142928Y-54000000D01*
X161819129Y-53935592D01*
X161514117Y-53809252D01*
X161239613Y-53625834D01*
X161239610Y-53625832D01*
X161006168Y-53392390D01*
X160967007Y-53333781D01*
X160822748Y-53117883D01*
X160696408Y-52812871D01*
X160632000Y-52489072D01*
X160632000Y-52158928D01*
X160696408Y-51835129D01*
X160822748Y-51530117D01*
X161006166Y-51255613D01*
X161006168Y-51255610D01*
X161239610Y-51022168D01*
X161253331Y-51013000D01*
X161514117Y-50838748D01*
X161819129Y-50712408D01*
X162142928Y-50648000D01*
X162473072Y-50648000D01*
X162796871Y-50712408D01*
X162796871Y-50712408D01*
G37*
G36*
X153401643Y-51043781D02*
X153547415Y-51104162D01*
X153678611Y-51191824D01*
X153790176Y-51303389D01*
X153877838Y-51434585D01*
X153938219Y-51580357D01*
X153969000Y-51735107D01*
X153969000Y-51892893D01*
X153938219Y-52047643D01*
X153877838Y-52193415D01*
X153790176Y-52324611D01*
X153678611Y-52436176D01*
X153547415Y-52523838D01*
X153401643Y-52584219D01*
X153246893Y-52615000D01*
X153089107Y-52615000D01*
X152934357Y-52584219D01*
X152788585Y-52523838D01*
X152657389Y-52436176D01*
X152545824Y-52324611D01*
X152458162Y-52193415D01*
X152397781Y-52047643D01*
X152367000Y-51892893D01*
X152367000Y-51735107D01*
X152397781Y-51580357D01*
X152458162Y-51434585D01*
X152545824Y-51303389D01*
X152657389Y-51191824D01*
X152788585Y-51104162D01*
X152934357Y-51043781D01*
X153089107Y-51013000D01*
X153246893Y-51013000D01*
X153401643Y-51043781D01*
X153401643Y-51043781D01*
G37*
G36*
X159184565Y-49533389D02*
X159375834Y-49612615D01*
X159547976Y-49727637D01*
X159694363Y-49874024D01*
X159809385Y-50046166D01*
X159888611Y-50237435D01*
X159929000Y-50440484D01*
X159929000Y-50647516D01*
X159888611Y-50850565D01*
X159809385Y-51041834D01*
X159694363Y-51213976D01*
X159547976Y-51360363D01*
X159375834Y-51475385D01*
X159184565Y-51554611D01*
X158981516Y-51595000D01*
X158774484Y-51595000D01*
X158571435Y-51554611D01*
X158380166Y-51475385D01*
X158208024Y-51360363D01*
X158061637Y-51213976D01*
X157946615Y-51041834D01*
X157867389Y-50850565D01*
X157827000Y-50647516D01*
X157827000Y-50440484D01*
X157867389Y-50237435D01*
X157946615Y-50046166D01*
X158061637Y-49874024D01*
X158208024Y-49727637D01*
X158380166Y-49612615D01*
X158571435Y-49533389D01*
X158774484Y-49493000D01*
X158981516Y-49493000D01*
X159184565Y-49533389D01*
X159184565Y-49533389D01*
G37*
G36*
X109330443Y-47365519D02*
X109396627Y-47372037D01*
X109509853Y-47406384D01*
X109566467Y-47423557D01*
X109705087Y-47497652D01*
X109722991Y-47507222D01*
X109758729Y-47536552D01*
X109860186Y-47619814D01*
X109943448Y-47721271D01*
X109972778Y-47757009D01*
X109972779Y-47757011D01*
X110056443Y-47913533D01*
X110056443Y-47913534D01*
X110107963Y-48083373D01*
X110125359Y-48260000D01*
X110107963Y-48436627D01*
X110073616Y-48549853D01*
X110056443Y-48606467D01*
X109982348Y-48745087D01*
X109972778Y-48762991D01*
X109943448Y-48798729D01*
X109860186Y-48900186D01*
X109758729Y-48983448D01*
X109722991Y-49012778D01*
X109722989Y-49012779D01*
X109566467Y-49096443D01*
X109509853Y-49113616D01*
X109396627Y-49147963D01*
X109330443Y-49154481D01*
X109264260Y-49161000D01*
X109175740Y-49161000D01*
X109109557Y-49154481D01*
X109043373Y-49147963D01*
X108930147Y-49113616D01*
X108873533Y-49096443D01*
X108717011Y-49012779D01*
X108717009Y-49012778D01*
X108681271Y-48983448D01*
X108579814Y-48900186D01*
X108496552Y-48798729D01*
X108467222Y-48762991D01*
X108457652Y-48745087D01*
X108383557Y-48606467D01*
X108366384Y-48549853D01*
X108332037Y-48436627D01*
X108314641Y-48260000D01*
X108332037Y-48083373D01*
X108383557Y-47913534D01*
X108383557Y-47913533D01*
X108467221Y-47757011D01*
X108467222Y-47757009D01*
X108496552Y-47721271D01*
X108579814Y-47619814D01*
X108681271Y-47536552D01*
X108717009Y-47507222D01*
X108734913Y-47497652D01*
X108873533Y-47423557D01*
X108930147Y-47406384D01*
X109043373Y-47372037D01*
X109109557Y-47365519D01*
X109175740Y-47359000D01*
X109264260Y-47359000D01*
X109330443Y-47365519D01*
X109330443Y-47365519D01*
G37*
G36*
X106790443Y-47365519D02*
X106856627Y-47372037D01*
X106969853Y-47406384D01*
X107026467Y-47423557D01*
X107165087Y-47497652D01*
X107182991Y-47507222D01*
X107218729Y-47536552D01*
X107320186Y-47619814D01*
X107403448Y-47721271D01*
X107432778Y-47757009D01*
X107432779Y-47757011D01*
X107516443Y-47913533D01*
X107516443Y-47913534D01*
X107567963Y-48083373D01*
X107585359Y-48260000D01*
X107567963Y-48436627D01*
X107533616Y-48549853D01*
X107516443Y-48606467D01*
X107442348Y-48745087D01*
X107432778Y-48762991D01*
X107403448Y-48798729D01*
X107320186Y-48900186D01*
X107218729Y-48983448D01*
X107182991Y-49012778D01*
X107182989Y-49012779D01*
X107026467Y-49096443D01*
X106969853Y-49113616D01*
X106856627Y-49147963D01*
X106790443Y-49154481D01*
X106724260Y-49161000D01*
X106635740Y-49161000D01*
X106569557Y-49154481D01*
X106503373Y-49147963D01*
X106390147Y-49113616D01*
X106333533Y-49096443D01*
X106177011Y-49012779D01*
X106177009Y-49012778D01*
X106141271Y-48983448D01*
X106039814Y-48900186D01*
X105956552Y-48798729D01*
X105927222Y-48762991D01*
X105917652Y-48745087D01*
X105843557Y-48606467D01*
X105826384Y-48549853D01*
X105792037Y-48436627D01*
X105774641Y-48260000D01*
X105792037Y-48083373D01*
X105843557Y-47913534D01*
X105843557Y-47913533D01*
X105927221Y-47757011D01*
X105927222Y-47757009D01*
X105956552Y-47721271D01*
X106039814Y-47619814D01*
X106141271Y-47536552D01*
X106177009Y-47507222D01*
X106194913Y-47497652D01*
X106333533Y-47423557D01*
X106390147Y-47406384D01*
X106503373Y-47372037D01*
X106569557Y-47365519D01*
X106635740Y-47359000D01*
X106724260Y-47359000D01*
X106790443Y-47365519D01*
X106790443Y-47365519D01*
G37*
G36*
X162670443Y-47365519D02*
X162736627Y-47372037D01*
X162849853Y-47406384D01*
X162906467Y-47423557D01*
X163045087Y-47497652D01*
X163062991Y-47507222D01*
X163098729Y-47536552D01*
X163200186Y-47619814D01*
X163283448Y-47721271D01*
X163312778Y-47757009D01*
X163312779Y-47757011D01*
X163396443Y-47913533D01*
X163396443Y-47913534D01*
X163447963Y-48083373D01*
X163465359Y-48260000D01*
X163447963Y-48436627D01*
X163413616Y-48549853D01*
X163396443Y-48606467D01*
X163322348Y-48745087D01*
X163312778Y-48762991D01*
X163283448Y-48798729D01*
X163200186Y-48900186D01*
X163098729Y-48983448D01*
X163062991Y-49012778D01*
X163062989Y-49012779D01*
X162906467Y-49096443D01*
X162849853Y-49113616D01*
X162736627Y-49147963D01*
X162670443Y-49154481D01*
X162604260Y-49161000D01*
X162515740Y-49161000D01*
X162449557Y-49154481D01*
X162383373Y-49147963D01*
X162270147Y-49113616D01*
X162213533Y-49096443D01*
X162057011Y-49012779D01*
X162057009Y-49012778D01*
X162021271Y-48983448D01*
X161919814Y-48900186D01*
X161836552Y-48798729D01*
X161807222Y-48762991D01*
X161797652Y-48745087D01*
X161723557Y-48606467D01*
X161706384Y-48549853D01*
X161672037Y-48436627D01*
X161654641Y-48260000D01*
X161672037Y-48083373D01*
X161723557Y-47913534D01*
X161723557Y-47913533D01*
X161807221Y-47757011D01*
X161807222Y-47757009D01*
X161836552Y-47721271D01*
X161919814Y-47619814D01*
X162021271Y-47536552D01*
X162057009Y-47507222D01*
X162074913Y-47497652D01*
X162213533Y-47423557D01*
X162270147Y-47406384D01*
X162383373Y-47372037D01*
X162449557Y-47365519D01*
X162515740Y-47359000D01*
X162604260Y-47359000D01*
X162670443Y-47365519D01*
X162670443Y-47365519D01*
G37*
G36*
X165210443Y-47365519D02*
X165276627Y-47372037D01*
X165389853Y-47406384D01*
X165446467Y-47423557D01*
X165585087Y-47497652D01*
X165602991Y-47507222D01*
X165638729Y-47536552D01*
X165740186Y-47619814D01*
X165823448Y-47721271D01*
X165852778Y-47757009D01*
X165852779Y-47757011D01*
X165936443Y-47913533D01*
X165936443Y-47913534D01*
X165987963Y-48083373D01*
X166005359Y-48260000D01*
X165987963Y-48436627D01*
X165953616Y-48549853D01*
X165936443Y-48606467D01*
X165862348Y-48745087D01*
X165852778Y-48762991D01*
X165823448Y-48798729D01*
X165740186Y-48900186D01*
X165638729Y-48983448D01*
X165602991Y-49012778D01*
X165602989Y-49012779D01*
X165446467Y-49096443D01*
X165389853Y-49113616D01*
X165276627Y-49147963D01*
X165210443Y-49154481D01*
X165144260Y-49161000D01*
X165055740Y-49161000D01*
X164989557Y-49154481D01*
X164923373Y-49147963D01*
X164810147Y-49113616D01*
X164753533Y-49096443D01*
X164597011Y-49012779D01*
X164597009Y-49012778D01*
X164561271Y-48983448D01*
X164459814Y-48900186D01*
X164376552Y-48798729D01*
X164347222Y-48762991D01*
X164337652Y-48745087D01*
X164263557Y-48606467D01*
X164246384Y-48549853D01*
X164212037Y-48436627D01*
X164194641Y-48260000D01*
X164212037Y-48083373D01*
X164263557Y-47913534D01*
X164263557Y-47913533D01*
X164347221Y-47757011D01*
X164347222Y-47757009D01*
X164376552Y-47721271D01*
X164459814Y-47619814D01*
X164561271Y-47536552D01*
X164597009Y-47507222D01*
X164614913Y-47497652D01*
X164753533Y-47423557D01*
X164810147Y-47406384D01*
X164923373Y-47372037D01*
X164989557Y-47365519D01*
X165055740Y-47359000D01*
X165144260Y-47359000D01*
X165210443Y-47365519D01*
X165210443Y-47365519D01*
G37*
G36*
X106790442Y-44825518D02*
X106856627Y-44832037D01*
X106969853Y-44866384D01*
X107026467Y-44883557D01*
X107165087Y-44957652D01*
X107182991Y-44967222D01*
X107218729Y-44996552D01*
X107320186Y-45079814D01*
X107403448Y-45181271D01*
X107432778Y-45217009D01*
X107432779Y-45217011D01*
X107516443Y-45373533D01*
X107516443Y-45373534D01*
X107567963Y-45543373D01*
X107585359Y-45720000D01*
X107567963Y-45896627D01*
X107533616Y-46009853D01*
X107516443Y-46066467D01*
X107442348Y-46205087D01*
X107432778Y-46222991D01*
X107403448Y-46258729D01*
X107320186Y-46360186D01*
X107218729Y-46443448D01*
X107182991Y-46472778D01*
X107182989Y-46472779D01*
X107026467Y-46556443D01*
X106969853Y-46573616D01*
X106856627Y-46607963D01*
X106790443Y-46614481D01*
X106724260Y-46621000D01*
X106635740Y-46621000D01*
X106569558Y-46614482D01*
X106503373Y-46607963D01*
X106390147Y-46573616D01*
X106333533Y-46556443D01*
X106177011Y-46472779D01*
X106177009Y-46472778D01*
X106141271Y-46443448D01*
X106039814Y-46360186D01*
X105956552Y-46258729D01*
X105927222Y-46222991D01*
X105917652Y-46205087D01*
X105843557Y-46066467D01*
X105826384Y-46009853D01*
X105792037Y-45896627D01*
X105774641Y-45720000D01*
X105792037Y-45543373D01*
X105843557Y-45373534D01*
X105843557Y-45373533D01*
X105927221Y-45217011D01*
X105927222Y-45217009D01*
X105956552Y-45181271D01*
X106039814Y-45079814D01*
X106141271Y-44996552D01*
X106177009Y-44967222D01*
X106194913Y-44957652D01*
X106333533Y-44883557D01*
X106390147Y-44866384D01*
X106503373Y-44832037D01*
X106569558Y-44825518D01*
X106635740Y-44819000D01*
X106724260Y-44819000D01*
X106790442Y-44825518D01*
X106790442Y-44825518D01*
G37*
G36*
X109330442Y-44825518D02*
X109396627Y-44832037D01*
X109509853Y-44866384D01*
X109566467Y-44883557D01*
X109705087Y-44957652D01*
X109722991Y-44967222D01*
X109758729Y-44996552D01*
X109860186Y-45079814D01*
X109943448Y-45181271D01*
X109972778Y-45217009D01*
X109972779Y-45217011D01*
X110056443Y-45373533D01*
X110056443Y-45373534D01*
X110107963Y-45543373D01*
X110125359Y-45720000D01*
X110107963Y-45896627D01*
X110073616Y-46009853D01*
X110056443Y-46066467D01*
X109982348Y-46205087D01*
X109972778Y-46222991D01*
X109943448Y-46258729D01*
X109860186Y-46360186D01*
X109758729Y-46443448D01*
X109722991Y-46472778D01*
X109722989Y-46472779D01*
X109566467Y-46556443D01*
X109509853Y-46573616D01*
X109396627Y-46607963D01*
X109330443Y-46614481D01*
X109264260Y-46621000D01*
X109175740Y-46621000D01*
X109109558Y-46614482D01*
X109043373Y-46607963D01*
X108930147Y-46573616D01*
X108873533Y-46556443D01*
X108717011Y-46472779D01*
X108717009Y-46472778D01*
X108681271Y-46443448D01*
X108579814Y-46360186D01*
X108496552Y-46258729D01*
X108467222Y-46222991D01*
X108457652Y-46205087D01*
X108383557Y-46066467D01*
X108366384Y-46009853D01*
X108332037Y-45896627D01*
X108314641Y-45720000D01*
X108332037Y-45543373D01*
X108383557Y-45373534D01*
X108383557Y-45373533D01*
X108467221Y-45217011D01*
X108467222Y-45217009D01*
X108496552Y-45181271D01*
X108579814Y-45079814D01*
X108681271Y-44996552D01*
X108717009Y-44967222D01*
X108734913Y-44957652D01*
X108873533Y-44883557D01*
X108930147Y-44866384D01*
X109043373Y-44832037D01*
X109109558Y-44825518D01*
X109175740Y-44819000D01*
X109264260Y-44819000D01*
X109330442Y-44825518D01*
X109330442Y-44825518D01*
G37*
G36*
X162670442Y-44825518D02*
X162736627Y-44832037D01*
X162849853Y-44866384D01*
X162906467Y-44883557D01*
X163045087Y-44957652D01*
X163062991Y-44967222D01*
X163098729Y-44996552D01*
X163200186Y-45079814D01*
X163283448Y-45181271D01*
X163312778Y-45217009D01*
X163312779Y-45217011D01*
X163396443Y-45373533D01*
X163396443Y-45373534D01*
X163447963Y-45543373D01*
X163465359Y-45720000D01*
X163447963Y-45896627D01*
X163413616Y-46009853D01*
X163396443Y-46066467D01*
X163322348Y-46205087D01*
X163312778Y-46222991D01*
X163283448Y-46258729D01*
X163200186Y-46360186D01*
X163098729Y-46443448D01*
X163062991Y-46472778D01*
X163062989Y-46472779D01*
X162906467Y-46556443D01*
X162849853Y-46573616D01*
X162736627Y-46607963D01*
X162670443Y-46614481D01*
X162604260Y-46621000D01*
X162515740Y-46621000D01*
X162449558Y-46614482D01*
X162383373Y-46607963D01*
X162270147Y-46573616D01*
X162213533Y-46556443D01*
X162057011Y-46472779D01*
X162057009Y-46472778D01*
X162021271Y-46443448D01*
X161919814Y-46360186D01*
X161836552Y-46258729D01*
X161807222Y-46222991D01*
X161797652Y-46205087D01*
X161723557Y-46066467D01*
X161706384Y-46009853D01*
X161672037Y-45896627D01*
X161654641Y-45720000D01*
X161672037Y-45543373D01*
X161723557Y-45373534D01*
X161723557Y-45373533D01*
X161807221Y-45217011D01*
X161807222Y-45217009D01*
X161836552Y-45181271D01*
X161919814Y-45079814D01*
X162021271Y-44996552D01*
X162057009Y-44967222D01*
X162074913Y-44957652D01*
X162213533Y-44883557D01*
X162270147Y-44866384D01*
X162383373Y-44832037D01*
X162449558Y-44825518D01*
X162515740Y-44819000D01*
X162604260Y-44819000D01*
X162670442Y-44825518D01*
X162670442Y-44825518D01*
G37*
G36*
X165210442Y-44825518D02*
X165276627Y-44832037D01*
X165389853Y-44866384D01*
X165446467Y-44883557D01*
X165585087Y-44957652D01*
X165602991Y-44967222D01*
X165638729Y-44996552D01*
X165740186Y-45079814D01*
X165823448Y-45181271D01*
X165852778Y-45217009D01*
X165852779Y-45217011D01*
X165936443Y-45373533D01*
X165936443Y-45373534D01*
X165987963Y-45543373D01*
X166005359Y-45720000D01*
X165987963Y-45896627D01*
X165953616Y-46009853D01*
X165936443Y-46066467D01*
X165862348Y-46205087D01*
X165852778Y-46222991D01*
X165823448Y-46258729D01*
X165740186Y-46360186D01*
X165638729Y-46443448D01*
X165602991Y-46472778D01*
X165602989Y-46472779D01*
X165446467Y-46556443D01*
X165389853Y-46573616D01*
X165276627Y-46607963D01*
X165210443Y-46614481D01*
X165144260Y-46621000D01*
X165055740Y-46621000D01*
X164989558Y-46614482D01*
X164923373Y-46607963D01*
X164810147Y-46573616D01*
X164753533Y-46556443D01*
X164597011Y-46472779D01*
X164597009Y-46472778D01*
X164561271Y-46443448D01*
X164459814Y-46360186D01*
X164376552Y-46258729D01*
X164347222Y-46222991D01*
X164337652Y-46205087D01*
X164263557Y-46066467D01*
X164246384Y-46009853D01*
X164212037Y-45896627D01*
X164194641Y-45720000D01*
X164212037Y-45543373D01*
X164263557Y-45373534D01*
X164263557Y-45373533D01*
X164347221Y-45217011D01*
X164347222Y-45217009D01*
X164376552Y-45181271D01*
X164459814Y-45079814D01*
X164561271Y-44996552D01*
X164597009Y-44967222D01*
X164614913Y-44957652D01*
X164753533Y-44883557D01*
X164810147Y-44866384D01*
X164923373Y-44832037D01*
X164989558Y-44825518D01*
X165055740Y-44819000D01*
X165144260Y-44819000D01*
X165210442Y-44825518D01*
X165210442Y-44825518D01*
G37*
G36*
X162670442Y-42285518D02*
X162736627Y-42292037D01*
X162849853Y-42326384D01*
X162906467Y-42343557D01*
X163045087Y-42417652D01*
X163062991Y-42427222D01*
X163098729Y-42456552D01*
X163200186Y-42539814D01*
X163283448Y-42641271D01*
X163312778Y-42677009D01*
X163312779Y-42677011D01*
X163396443Y-42833533D01*
X163396443Y-42833534D01*
X163447963Y-43003373D01*
X163465359Y-43180000D01*
X163447963Y-43356627D01*
X163413616Y-43469853D01*
X163396443Y-43526467D01*
X163322348Y-43665087D01*
X163312778Y-43682991D01*
X163283448Y-43718729D01*
X163200186Y-43820186D01*
X163098729Y-43903448D01*
X163062991Y-43932778D01*
X163062989Y-43932779D01*
X162906467Y-44016443D01*
X162849853Y-44033616D01*
X162736627Y-44067963D01*
X162670443Y-44074481D01*
X162604260Y-44081000D01*
X162515740Y-44081000D01*
X162449557Y-44074481D01*
X162383373Y-44067963D01*
X162270147Y-44033616D01*
X162213533Y-44016443D01*
X162057011Y-43932779D01*
X162057009Y-43932778D01*
X162021271Y-43903448D01*
X161919814Y-43820186D01*
X161836552Y-43718729D01*
X161807222Y-43682991D01*
X161797652Y-43665087D01*
X161723557Y-43526467D01*
X161706384Y-43469853D01*
X161672037Y-43356627D01*
X161654641Y-43180000D01*
X161672037Y-43003373D01*
X161723557Y-42833534D01*
X161723557Y-42833533D01*
X161807221Y-42677011D01*
X161807222Y-42677009D01*
X161836552Y-42641271D01*
X161919814Y-42539814D01*
X162021271Y-42456552D01*
X162057009Y-42427222D01*
X162074913Y-42417652D01*
X162213533Y-42343557D01*
X162270147Y-42326384D01*
X162383373Y-42292037D01*
X162449557Y-42285519D01*
X162515740Y-42279000D01*
X162604260Y-42279000D01*
X162670442Y-42285518D01*
X162670442Y-42285518D01*
G37*
G36*
X106790442Y-42285518D02*
X106856627Y-42292037D01*
X106969853Y-42326384D01*
X107026467Y-42343557D01*
X107165087Y-42417652D01*
X107182991Y-42427222D01*
X107218729Y-42456552D01*
X107320186Y-42539814D01*
X107403448Y-42641271D01*
X107432778Y-42677009D01*
X107432779Y-42677011D01*
X107516443Y-42833533D01*
X107516443Y-42833534D01*
X107567963Y-43003373D01*
X107585359Y-43180000D01*
X107567963Y-43356627D01*
X107533616Y-43469853D01*
X107516443Y-43526467D01*
X107442348Y-43665087D01*
X107432778Y-43682991D01*
X107403448Y-43718729D01*
X107320186Y-43820186D01*
X107218729Y-43903448D01*
X107182991Y-43932778D01*
X107182989Y-43932779D01*
X107026467Y-44016443D01*
X106969853Y-44033616D01*
X106856627Y-44067963D01*
X106790443Y-44074481D01*
X106724260Y-44081000D01*
X106635740Y-44081000D01*
X106569557Y-44074481D01*
X106503373Y-44067963D01*
X106390147Y-44033616D01*
X106333533Y-44016443D01*
X106177011Y-43932779D01*
X106177009Y-43932778D01*
X106141271Y-43903448D01*
X106039814Y-43820186D01*
X105956552Y-43718729D01*
X105927222Y-43682991D01*
X105917652Y-43665087D01*
X105843557Y-43526467D01*
X105826384Y-43469853D01*
X105792037Y-43356627D01*
X105774641Y-43180000D01*
X105792037Y-43003373D01*
X105843557Y-42833534D01*
X105843557Y-42833533D01*
X105927221Y-42677011D01*
X105927222Y-42677009D01*
X105956552Y-42641271D01*
X106039814Y-42539814D01*
X106141271Y-42456552D01*
X106177009Y-42427222D01*
X106194913Y-42417652D01*
X106333533Y-42343557D01*
X106390147Y-42326384D01*
X106503373Y-42292037D01*
X106569558Y-42285518D01*
X106635740Y-42279000D01*
X106724260Y-42279000D01*
X106790442Y-42285518D01*
X106790442Y-42285518D01*
G37*
G36*
X165210442Y-42285518D02*
X165276627Y-42292037D01*
X165389853Y-42326384D01*
X165446467Y-42343557D01*
X165585087Y-42417652D01*
X165602991Y-42427222D01*
X165638729Y-42456552D01*
X165740186Y-42539814D01*
X165823448Y-42641271D01*
X165852778Y-42677009D01*
X165852779Y-42677011D01*
X165936443Y-42833533D01*
X165936443Y-42833534D01*
X165987963Y-43003373D01*
X166005359Y-43180000D01*
X165987963Y-43356627D01*
X165953616Y-43469853D01*
X165936443Y-43526467D01*
X165862348Y-43665087D01*
X165852778Y-43682991D01*
X165823448Y-43718729D01*
X165740186Y-43820186D01*
X165638729Y-43903448D01*
X165602991Y-43932778D01*
X165602989Y-43932779D01*
X165446467Y-44016443D01*
X165389853Y-44033616D01*
X165276627Y-44067963D01*
X165210443Y-44074481D01*
X165144260Y-44081000D01*
X165055740Y-44081000D01*
X164989557Y-44074481D01*
X164923373Y-44067963D01*
X164810147Y-44033616D01*
X164753533Y-44016443D01*
X164597011Y-43932779D01*
X164597009Y-43932778D01*
X164561271Y-43903448D01*
X164459814Y-43820186D01*
X164376552Y-43718729D01*
X164347222Y-43682991D01*
X164337652Y-43665087D01*
X164263557Y-43526467D01*
X164246384Y-43469853D01*
X164212037Y-43356627D01*
X164194641Y-43180000D01*
X164212037Y-43003373D01*
X164263557Y-42833534D01*
X164263557Y-42833533D01*
X164347221Y-42677011D01*
X164347222Y-42677009D01*
X164376552Y-42641271D01*
X164459814Y-42539814D01*
X164561271Y-42456552D01*
X164597009Y-42427222D01*
X164614913Y-42417652D01*
X164753533Y-42343557D01*
X164810147Y-42326384D01*
X164923373Y-42292037D01*
X164989557Y-42285519D01*
X165055740Y-42279000D01*
X165144260Y-42279000D01*
X165210442Y-42285518D01*
X165210442Y-42285518D01*
G37*
G36*
X109330442Y-42285518D02*
X109396627Y-42292037D01*
X109509853Y-42326384D01*
X109566467Y-42343557D01*
X109705087Y-42417652D01*
X109722991Y-42427222D01*
X109758729Y-42456552D01*
X109860186Y-42539814D01*
X109943448Y-42641271D01*
X109972778Y-42677009D01*
X109972779Y-42677011D01*
X110056443Y-42833533D01*
X110056443Y-42833534D01*
X110107963Y-43003373D01*
X110125359Y-43180000D01*
X110107963Y-43356627D01*
X110073616Y-43469853D01*
X110056443Y-43526467D01*
X109982348Y-43665087D01*
X109972778Y-43682991D01*
X109943448Y-43718729D01*
X109860186Y-43820186D01*
X109758729Y-43903448D01*
X109722991Y-43932778D01*
X109722989Y-43932779D01*
X109566467Y-44016443D01*
X109509853Y-44033616D01*
X109396627Y-44067963D01*
X109330443Y-44074481D01*
X109264260Y-44081000D01*
X109175740Y-44081000D01*
X109109557Y-44074481D01*
X109043373Y-44067963D01*
X108930147Y-44033616D01*
X108873533Y-44016443D01*
X108717011Y-43932779D01*
X108717009Y-43932778D01*
X108681271Y-43903448D01*
X108579814Y-43820186D01*
X108496552Y-43718729D01*
X108467222Y-43682991D01*
X108457652Y-43665087D01*
X108383557Y-43526467D01*
X108366384Y-43469853D01*
X108332037Y-43356627D01*
X108314641Y-43180000D01*
X108332037Y-43003373D01*
X108383557Y-42833534D01*
X108383557Y-42833533D01*
X108467221Y-42677011D01*
X108467222Y-42677009D01*
X108496552Y-42641271D01*
X108579814Y-42539814D01*
X108681271Y-42456552D01*
X108717009Y-42427222D01*
X108734913Y-42417652D01*
X108873533Y-42343557D01*
X108930147Y-42326384D01*
X109043373Y-42292037D01*
X109109557Y-42285519D01*
X109175740Y-42279000D01*
X109264260Y-42279000D01*
X109330442Y-42285518D01*
X109330442Y-42285518D01*
G37*
G36*
X109330442Y-39745518D02*
X109396627Y-39752037D01*
X109509853Y-39786384D01*
X109566467Y-39803557D01*
X109705087Y-39877652D01*
X109722991Y-39887222D01*
X109758729Y-39916552D01*
X109860186Y-39999814D01*
X109943448Y-40101271D01*
X109972778Y-40137009D01*
X109972779Y-40137011D01*
X110056443Y-40293533D01*
X110056443Y-40293534D01*
X110107963Y-40463373D01*
X110125359Y-40640000D01*
X110107963Y-40816627D01*
X110073616Y-40929853D01*
X110056443Y-40986467D01*
X109982348Y-41125087D01*
X109972778Y-41142991D01*
X109943448Y-41178729D01*
X109860186Y-41280186D01*
X109758729Y-41363448D01*
X109722991Y-41392778D01*
X109722989Y-41392779D01*
X109566467Y-41476443D01*
X109509853Y-41493616D01*
X109396627Y-41527963D01*
X109330442Y-41534482D01*
X109264260Y-41541000D01*
X109175740Y-41541000D01*
X109109558Y-41534482D01*
X109043373Y-41527963D01*
X108930147Y-41493616D01*
X108873533Y-41476443D01*
X108717011Y-41392779D01*
X108717009Y-41392778D01*
X108681271Y-41363448D01*
X108579814Y-41280186D01*
X108496552Y-41178729D01*
X108467222Y-41142991D01*
X108457652Y-41125087D01*
X108383557Y-40986467D01*
X108366384Y-40929853D01*
X108332037Y-40816627D01*
X108314641Y-40640000D01*
X108332037Y-40463373D01*
X108383557Y-40293534D01*
X108383557Y-40293533D01*
X108467221Y-40137011D01*
X108467222Y-40137009D01*
X108496552Y-40101271D01*
X108579814Y-39999814D01*
X108681271Y-39916552D01*
X108717009Y-39887222D01*
X108734913Y-39877652D01*
X108873533Y-39803557D01*
X108930147Y-39786384D01*
X109043373Y-39752037D01*
X109109558Y-39745518D01*
X109175740Y-39739000D01*
X109264260Y-39739000D01*
X109330442Y-39745518D01*
X109330442Y-39745518D01*
G37*
G36*
X106790442Y-39745518D02*
X106856627Y-39752037D01*
X106969853Y-39786384D01*
X107026467Y-39803557D01*
X107165087Y-39877652D01*
X107182991Y-39887222D01*
X107218729Y-39916552D01*
X107320186Y-39999814D01*
X107403448Y-40101271D01*
X107432778Y-40137009D01*
X107432779Y-40137011D01*
X107516443Y-40293533D01*
X107516443Y-40293534D01*
X107567963Y-40463373D01*
X107585359Y-40640000D01*
X107567963Y-40816627D01*
X107533616Y-40929853D01*
X107516443Y-40986467D01*
X107442348Y-41125087D01*
X107432778Y-41142991D01*
X107403448Y-41178729D01*
X107320186Y-41280186D01*
X107218729Y-41363448D01*
X107182991Y-41392778D01*
X107182989Y-41392779D01*
X107026467Y-41476443D01*
X106969853Y-41493616D01*
X106856627Y-41527963D01*
X106790442Y-41534482D01*
X106724260Y-41541000D01*
X106635740Y-41541000D01*
X106569558Y-41534482D01*
X106503373Y-41527963D01*
X106390147Y-41493616D01*
X106333533Y-41476443D01*
X106177011Y-41392779D01*
X106177009Y-41392778D01*
X106141271Y-41363448D01*
X106039814Y-41280186D01*
X105956552Y-41178729D01*
X105927222Y-41142991D01*
X105917652Y-41125087D01*
X105843557Y-40986467D01*
X105826384Y-40929853D01*
X105792037Y-40816627D01*
X105774641Y-40640000D01*
X105792037Y-40463373D01*
X105843557Y-40293534D01*
X105843557Y-40293533D01*
X105927221Y-40137011D01*
X105927222Y-40137009D01*
X105956552Y-40101271D01*
X106039814Y-39999814D01*
X106141271Y-39916552D01*
X106177009Y-39887222D01*
X106194913Y-39877652D01*
X106333533Y-39803557D01*
X106390147Y-39786384D01*
X106503373Y-39752037D01*
X106569558Y-39745518D01*
X106635740Y-39739000D01*
X106724260Y-39739000D01*
X106790442Y-39745518D01*
X106790442Y-39745518D01*
G37*
G36*
X162670442Y-39745518D02*
X162736627Y-39752037D01*
X162849853Y-39786384D01*
X162906467Y-39803557D01*
X163045087Y-39877652D01*
X163062991Y-39887222D01*
X163098729Y-39916552D01*
X163200186Y-39999814D01*
X163283448Y-40101271D01*
X163312778Y-40137009D01*
X163312779Y-40137011D01*
X163396443Y-40293533D01*
X163396443Y-40293534D01*
X163447963Y-40463373D01*
X163465359Y-40640000D01*
X163447963Y-40816627D01*
X163413616Y-40929853D01*
X163396443Y-40986467D01*
X163322348Y-41125087D01*
X163312778Y-41142991D01*
X163283448Y-41178729D01*
X163200186Y-41280186D01*
X163098729Y-41363448D01*
X163062991Y-41392778D01*
X163062989Y-41392779D01*
X162906467Y-41476443D01*
X162849853Y-41493616D01*
X162736627Y-41527963D01*
X162670442Y-41534482D01*
X162604260Y-41541000D01*
X162515740Y-41541000D01*
X162449558Y-41534482D01*
X162383373Y-41527963D01*
X162270147Y-41493616D01*
X162213533Y-41476443D01*
X162057011Y-41392779D01*
X162057009Y-41392778D01*
X162021271Y-41363448D01*
X161919814Y-41280186D01*
X161836552Y-41178729D01*
X161807222Y-41142991D01*
X161797652Y-41125087D01*
X161723557Y-40986467D01*
X161706384Y-40929853D01*
X161672037Y-40816627D01*
X161654641Y-40640000D01*
X161672037Y-40463373D01*
X161723557Y-40293534D01*
X161723557Y-40293533D01*
X161807221Y-40137011D01*
X161807222Y-40137009D01*
X161836552Y-40101271D01*
X161919814Y-39999814D01*
X162021271Y-39916552D01*
X162057009Y-39887222D01*
X162074913Y-39877652D01*
X162213533Y-39803557D01*
X162270147Y-39786384D01*
X162383373Y-39752037D01*
X162449557Y-39745519D01*
X162515740Y-39739000D01*
X162604260Y-39739000D01*
X162670442Y-39745518D01*
X162670442Y-39745518D01*
G37*
G36*
X165210442Y-39745518D02*
X165276627Y-39752037D01*
X165389853Y-39786384D01*
X165446467Y-39803557D01*
X165585087Y-39877652D01*
X165602991Y-39887222D01*
X165638729Y-39916552D01*
X165740186Y-39999814D01*
X165823448Y-40101271D01*
X165852778Y-40137009D01*
X165852779Y-40137011D01*
X165936443Y-40293533D01*
X165936443Y-40293534D01*
X165987963Y-40463373D01*
X166005359Y-40640000D01*
X165987963Y-40816627D01*
X165953616Y-40929853D01*
X165936443Y-40986467D01*
X165862348Y-41125087D01*
X165852778Y-41142991D01*
X165823448Y-41178729D01*
X165740186Y-41280186D01*
X165638729Y-41363448D01*
X165602991Y-41392778D01*
X165602989Y-41392779D01*
X165446467Y-41476443D01*
X165389853Y-41493616D01*
X165276627Y-41527963D01*
X165210442Y-41534482D01*
X165144260Y-41541000D01*
X165055740Y-41541000D01*
X164989558Y-41534482D01*
X164923373Y-41527963D01*
X164810147Y-41493616D01*
X164753533Y-41476443D01*
X164597011Y-41392779D01*
X164597009Y-41392778D01*
X164561271Y-41363448D01*
X164459814Y-41280186D01*
X164376552Y-41178729D01*
X164347222Y-41142991D01*
X164337652Y-41125087D01*
X164263557Y-40986467D01*
X164246384Y-40929853D01*
X164212037Y-40816627D01*
X164194641Y-40640000D01*
X164212037Y-40463373D01*
X164263557Y-40293534D01*
X164263557Y-40293533D01*
X164347221Y-40137011D01*
X164347222Y-40137009D01*
X164376552Y-40101271D01*
X164459814Y-39999814D01*
X164561271Y-39916552D01*
X164597009Y-39887222D01*
X164614913Y-39877652D01*
X164753533Y-39803557D01*
X164810147Y-39786384D01*
X164923373Y-39752037D01*
X164989557Y-39745519D01*
X165055740Y-39739000D01*
X165144260Y-39739000D01*
X165210442Y-39745518D01*
X165210442Y-39745518D01*
G37*
G36*
X109330442Y-37205518D02*
X109396627Y-37212037D01*
X109509853Y-37246384D01*
X109566467Y-37263557D01*
X109705087Y-37337652D01*
X109722991Y-37347222D01*
X109758729Y-37376552D01*
X109860186Y-37459814D01*
X109943448Y-37561271D01*
X109972778Y-37597009D01*
X109972779Y-37597011D01*
X110056443Y-37753533D01*
X110056443Y-37753534D01*
X110107963Y-37923373D01*
X110125359Y-38100000D01*
X110107963Y-38276627D01*
X110073616Y-38389853D01*
X110056443Y-38446467D01*
X109982348Y-38585087D01*
X109972778Y-38602991D01*
X109943448Y-38638729D01*
X109860186Y-38740186D01*
X109758729Y-38823448D01*
X109722991Y-38852778D01*
X109722989Y-38852779D01*
X109566467Y-38936443D01*
X109509853Y-38953616D01*
X109396627Y-38987963D01*
X109330443Y-38994481D01*
X109264260Y-39001000D01*
X109175740Y-39001000D01*
X109109557Y-38994481D01*
X109043373Y-38987963D01*
X108930147Y-38953616D01*
X108873533Y-38936443D01*
X108717011Y-38852779D01*
X108717009Y-38852778D01*
X108681271Y-38823448D01*
X108579814Y-38740186D01*
X108496552Y-38638729D01*
X108467222Y-38602991D01*
X108457652Y-38585087D01*
X108383557Y-38446467D01*
X108366384Y-38389853D01*
X108332037Y-38276627D01*
X108314641Y-38100000D01*
X108332037Y-37923373D01*
X108383557Y-37753534D01*
X108383557Y-37753533D01*
X108467221Y-37597011D01*
X108467222Y-37597009D01*
X108496552Y-37561271D01*
X108579814Y-37459814D01*
X108681271Y-37376552D01*
X108717009Y-37347222D01*
X108734913Y-37337652D01*
X108873533Y-37263557D01*
X108930147Y-37246384D01*
X109043373Y-37212037D01*
X109109558Y-37205518D01*
X109175740Y-37199000D01*
X109264260Y-37199000D01*
X109330442Y-37205518D01*
X109330442Y-37205518D01*
G37*
G36*
X106790442Y-37205518D02*
X106856627Y-37212037D01*
X106969853Y-37246384D01*
X107026467Y-37263557D01*
X107165087Y-37337652D01*
X107182991Y-37347222D01*
X107218729Y-37376552D01*
X107320186Y-37459814D01*
X107403448Y-37561271D01*
X107432778Y-37597009D01*
X107432779Y-37597011D01*
X107516443Y-37753533D01*
X107516443Y-37753534D01*
X107567963Y-37923373D01*
X107585359Y-38100000D01*
X107567963Y-38276627D01*
X107533616Y-38389853D01*
X107516443Y-38446467D01*
X107442348Y-38585087D01*
X107432778Y-38602991D01*
X107403448Y-38638729D01*
X107320186Y-38740186D01*
X107218729Y-38823448D01*
X107182991Y-38852778D01*
X107182989Y-38852779D01*
X107026467Y-38936443D01*
X106969853Y-38953616D01*
X106856627Y-38987963D01*
X106790443Y-38994481D01*
X106724260Y-39001000D01*
X106635740Y-39001000D01*
X106569557Y-38994481D01*
X106503373Y-38987963D01*
X106390147Y-38953616D01*
X106333533Y-38936443D01*
X106177011Y-38852779D01*
X106177009Y-38852778D01*
X106141271Y-38823448D01*
X106039814Y-38740186D01*
X105956552Y-38638729D01*
X105927222Y-38602991D01*
X105917652Y-38585087D01*
X105843557Y-38446467D01*
X105826384Y-38389853D01*
X105792037Y-38276627D01*
X105774641Y-38100000D01*
X105792037Y-37923373D01*
X105843557Y-37753534D01*
X105843557Y-37753533D01*
X105927221Y-37597011D01*
X105927222Y-37597009D01*
X105956552Y-37561271D01*
X106039814Y-37459814D01*
X106141271Y-37376552D01*
X106177009Y-37347222D01*
X106194913Y-37337652D01*
X106333533Y-37263557D01*
X106390147Y-37246384D01*
X106503373Y-37212037D01*
X106569558Y-37205518D01*
X106635740Y-37199000D01*
X106724260Y-37199000D01*
X106790442Y-37205518D01*
X106790442Y-37205518D01*
G37*
G36*
X162670442Y-37205518D02*
X162736627Y-37212037D01*
X162849853Y-37246384D01*
X162906467Y-37263557D01*
X163045087Y-37337652D01*
X163062991Y-37347222D01*
X163098729Y-37376552D01*
X163200186Y-37459814D01*
X163283448Y-37561271D01*
X163312778Y-37597009D01*
X163312779Y-37597011D01*
X163396443Y-37753533D01*
X163396443Y-37753534D01*
X163447963Y-37923373D01*
X163465359Y-38100000D01*
X163447963Y-38276627D01*
X163413616Y-38389853D01*
X163396443Y-38446467D01*
X163322348Y-38585087D01*
X163312778Y-38602991D01*
X163283448Y-38638729D01*
X163200186Y-38740186D01*
X163098729Y-38823448D01*
X163062991Y-38852778D01*
X163062989Y-38852779D01*
X162906467Y-38936443D01*
X162849853Y-38953616D01*
X162736627Y-38987963D01*
X162670443Y-38994481D01*
X162604260Y-39001000D01*
X162515740Y-39001000D01*
X162449557Y-38994481D01*
X162383373Y-38987963D01*
X162270147Y-38953616D01*
X162213533Y-38936443D01*
X162057011Y-38852779D01*
X162057009Y-38852778D01*
X162021271Y-38823448D01*
X161919814Y-38740186D01*
X161836552Y-38638729D01*
X161807222Y-38602991D01*
X161797652Y-38585087D01*
X161723557Y-38446467D01*
X161706384Y-38389853D01*
X161672037Y-38276627D01*
X161654641Y-38100000D01*
X161672037Y-37923373D01*
X161723557Y-37753534D01*
X161723557Y-37753533D01*
X161807221Y-37597011D01*
X161807222Y-37597009D01*
X161836552Y-37561271D01*
X161919814Y-37459814D01*
X162021271Y-37376552D01*
X162057009Y-37347222D01*
X162074913Y-37337652D01*
X162213533Y-37263557D01*
X162270147Y-37246384D01*
X162383373Y-37212037D01*
X162449558Y-37205518D01*
X162515740Y-37199000D01*
X162604260Y-37199000D01*
X162670442Y-37205518D01*
X162670442Y-37205518D01*
G37*
G36*
X165210442Y-37205518D02*
X165276627Y-37212037D01*
X165389853Y-37246384D01*
X165446467Y-37263557D01*
X165585087Y-37337652D01*
X165602991Y-37347222D01*
X165638729Y-37376552D01*
X165740186Y-37459814D01*
X165823448Y-37561271D01*
X165852778Y-37597009D01*
X165852779Y-37597011D01*
X165936443Y-37753533D01*
X165936443Y-37753534D01*
X165987963Y-37923373D01*
X166005359Y-38100000D01*
X165987963Y-38276627D01*
X165953616Y-38389853D01*
X165936443Y-38446467D01*
X165862348Y-38585087D01*
X165852778Y-38602991D01*
X165823448Y-38638729D01*
X165740186Y-38740186D01*
X165638729Y-38823448D01*
X165602991Y-38852778D01*
X165602989Y-38852779D01*
X165446467Y-38936443D01*
X165389853Y-38953616D01*
X165276627Y-38987963D01*
X165210443Y-38994481D01*
X165144260Y-39001000D01*
X165055740Y-39001000D01*
X164989557Y-38994481D01*
X164923373Y-38987963D01*
X164810147Y-38953616D01*
X164753533Y-38936443D01*
X164597011Y-38852779D01*
X164597009Y-38852778D01*
X164561271Y-38823448D01*
X164459814Y-38740186D01*
X164376552Y-38638729D01*
X164347222Y-38602991D01*
X164337652Y-38585087D01*
X164263557Y-38446467D01*
X164246384Y-38389853D01*
X164212037Y-38276627D01*
X164194641Y-38100000D01*
X164212037Y-37923373D01*
X164263557Y-37753534D01*
X164263557Y-37753533D01*
X164347221Y-37597011D01*
X164347222Y-37597009D01*
X164376552Y-37561271D01*
X164459814Y-37459814D01*
X164561271Y-37376552D01*
X164597009Y-37347222D01*
X164614913Y-37337652D01*
X164753533Y-37263557D01*
X164810147Y-37246384D01*
X164923373Y-37212037D01*
X164989558Y-37205518D01*
X165055740Y-37199000D01*
X165144260Y-37199000D01*
X165210442Y-37205518D01*
X165210442Y-37205518D01*
G37*
G36*
X162670443Y-34665519D02*
X162736627Y-34672037D01*
X162849853Y-34706384D01*
X162906467Y-34723557D01*
X163045087Y-34797652D01*
X163062991Y-34807222D01*
X163098729Y-34836552D01*
X163200186Y-34919814D01*
X163283448Y-35021271D01*
X163312778Y-35057009D01*
X163312779Y-35057011D01*
X163396443Y-35213533D01*
X163396443Y-35213534D01*
X163447963Y-35383373D01*
X163465359Y-35560000D01*
X163447963Y-35736627D01*
X163413616Y-35849853D01*
X163396443Y-35906467D01*
X163322348Y-36045087D01*
X163312778Y-36062991D01*
X163283448Y-36098729D01*
X163200186Y-36200186D01*
X163098729Y-36283448D01*
X163062991Y-36312778D01*
X163062989Y-36312779D01*
X162906467Y-36396443D01*
X162849853Y-36413616D01*
X162736627Y-36447963D01*
X162670442Y-36454482D01*
X162604260Y-36461000D01*
X162515740Y-36461000D01*
X162449558Y-36454482D01*
X162383373Y-36447963D01*
X162270147Y-36413616D01*
X162213533Y-36396443D01*
X162057011Y-36312779D01*
X162057009Y-36312778D01*
X162021271Y-36283448D01*
X161919814Y-36200186D01*
X161836552Y-36098729D01*
X161807222Y-36062991D01*
X161797652Y-36045087D01*
X161723557Y-35906467D01*
X161706384Y-35849853D01*
X161672037Y-35736627D01*
X161654641Y-35560000D01*
X161672037Y-35383373D01*
X161723557Y-35213534D01*
X161723557Y-35213533D01*
X161807221Y-35057011D01*
X161807222Y-35057009D01*
X161836552Y-35021271D01*
X161919814Y-34919814D01*
X162021271Y-34836552D01*
X162057009Y-34807222D01*
X162074913Y-34797652D01*
X162213533Y-34723557D01*
X162270147Y-34706384D01*
X162383373Y-34672037D01*
X162449557Y-34665519D01*
X162515740Y-34659000D01*
X162604260Y-34659000D01*
X162670443Y-34665519D01*
X162670443Y-34665519D01*
G37*
G36*
X106790443Y-34665519D02*
X106856627Y-34672037D01*
X106969853Y-34706384D01*
X107026467Y-34723557D01*
X107165087Y-34797652D01*
X107182991Y-34807222D01*
X107218729Y-34836552D01*
X107320186Y-34919814D01*
X107403448Y-35021271D01*
X107432778Y-35057009D01*
X107432779Y-35057011D01*
X107516443Y-35213533D01*
X107516443Y-35213534D01*
X107567963Y-35383373D01*
X107585359Y-35560000D01*
X107567963Y-35736627D01*
X107533616Y-35849853D01*
X107516443Y-35906467D01*
X107442348Y-36045087D01*
X107432778Y-36062991D01*
X107403448Y-36098729D01*
X107320186Y-36200186D01*
X107218729Y-36283448D01*
X107182991Y-36312778D01*
X107182989Y-36312779D01*
X107026467Y-36396443D01*
X106969853Y-36413616D01*
X106856627Y-36447963D01*
X106790442Y-36454482D01*
X106724260Y-36461000D01*
X106635740Y-36461000D01*
X106569558Y-36454482D01*
X106503373Y-36447963D01*
X106390147Y-36413616D01*
X106333533Y-36396443D01*
X106177011Y-36312779D01*
X106177009Y-36312778D01*
X106141271Y-36283448D01*
X106039814Y-36200186D01*
X105956552Y-36098729D01*
X105927222Y-36062991D01*
X105917652Y-36045087D01*
X105843557Y-35906467D01*
X105826384Y-35849853D01*
X105792037Y-35736627D01*
X105774641Y-35560000D01*
X105792037Y-35383373D01*
X105843557Y-35213534D01*
X105843557Y-35213533D01*
X105927221Y-35057011D01*
X105927222Y-35057009D01*
X105956552Y-35021271D01*
X106039814Y-34919814D01*
X106141271Y-34836552D01*
X106177009Y-34807222D01*
X106194913Y-34797652D01*
X106333533Y-34723557D01*
X106390147Y-34706384D01*
X106503373Y-34672037D01*
X106569557Y-34665519D01*
X106635740Y-34659000D01*
X106724260Y-34659000D01*
X106790443Y-34665519D01*
X106790443Y-34665519D01*
G37*
G36*
X109330443Y-34665519D02*
X109396627Y-34672037D01*
X109509853Y-34706384D01*
X109566467Y-34723557D01*
X109705087Y-34797652D01*
X109722991Y-34807222D01*
X109758729Y-34836552D01*
X109860186Y-34919814D01*
X109943448Y-35021271D01*
X109972778Y-35057009D01*
X109972779Y-35057011D01*
X110056443Y-35213533D01*
X110056443Y-35213534D01*
X110107963Y-35383373D01*
X110125359Y-35560000D01*
X110107963Y-35736627D01*
X110073616Y-35849853D01*
X110056443Y-35906467D01*
X109982348Y-36045087D01*
X109972778Y-36062991D01*
X109943448Y-36098729D01*
X109860186Y-36200186D01*
X109758729Y-36283448D01*
X109722991Y-36312778D01*
X109722989Y-36312779D01*
X109566467Y-36396443D01*
X109509853Y-36413616D01*
X109396627Y-36447963D01*
X109330442Y-36454482D01*
X109264260Y-36461000D01*
X109175740Y-36461000D01*
X109109558Y-36454482D01*
X109043373Y-36447963D01*
X108930147Y-36413616D01*
X108873533Y-36396443D01*
X108717011Y-36312779D01*
X108717009Y-36312778D01*
X108681271Y-36283448D01*
X108579814Y-36200186D01*
X108496552Y-36098729D01*
X108467222Y-36062991D01*
X108457652Y-36045087D01*
X108383557Y-35906467D01*
X108366384Y-35849853D01*
X108332037Y-35736627D01*
X108314641Y-35560000D01*
X108332037Y-35383373D01*
X108383557Y-35213534D01*
X108383557Y-35213533D01*
X108467221Y-35057011D01*
X108467222Y-35057009D01*
X108496552Y-35021271D01*
X108579814Y-34919814D01*
X108681271Y-34836552D01*
X108717009Y-34807222D01*
X108734913Y-34797652D01*
X108873533Y-34723557D01*
X108930147Y-34706384D01*
X109043373Y-34672037D01*
X109109557Y-34665519D01*
X109175740Y-34659000D01*
X109264260Y-34659000D01*
X109330443Y-34665519D01*
X109330443Y-34665519D01*
G37*
G36*
X165210443Y-34665519D02*
X165276627Y-34672037D01*
X165389853Y-34706384D01*
X165446467Y-34723557D01*
X165585087Y-34797652D01*
X165602991Y-34807222D01*
X165638729Y-34836552D01*
X165740186Y-34919814D01*
X165823448Y-35021271D01*
X165852778Y-35057009D01*
X165852779Y-35057011D01*
X165936443Y-35213533D01*
X165936443Y-35213534D01*
X165987963Y-35383373D01*
X166005359Y-35560000D01*
X165987963Y-35736627D01*
X165953616Y-35849853D01*
X165936443Y-35906467D01*
X165862348Y-36045087D01*
X165852778Y-36062991D01*
X165823448Y-36098729D01*
X165740186Y-36200186D01*
X165638729Y-36283448D01*
X165602991Y-36312778D01*
X165602989Y-36312779D01*
X165446467Y-36396443D01*
X165389853Y-36413616D01*
X165276627Y-36447963D01*
X165210442Y-36454482D01*
X165144260Y-36461000D01*
X165055740Y-36461000D01*
X164989558Y-36454482D01*
X164923373Y-36447963D01*
X164810147Y-36413616D01*
X164753533Y-36396443D01*
X164597011Y-36312779D01*
X164597009Y-36312778D01*
X164561271Y-36283448D01*
X164459814Y-36200186D01*
X164376552Y-36098729D01*
X164347222Y-36062991D01*
X164337652Y-36045087D01*
X164263557Y-35906467D01*
X164246384Y-35849853D01*
X164212037Y-35736627D01*
X164194641Y-35560000D01*
X164212037Y-35383373D01*
X164263557Y-35213534D01*
X164263557Y-35213533D01*
X164347221Y-35057011D01*
X164347222Y-35057009D01*
X164376552Y-35021271D01*
X164459814Y-34919814D01*
X164561271Y-34836552D01*
X164597009Y-34807222D01*
X164614913Y-34797652D01*
X164753533Y-34723557D01*
X164810147Y-34706384D01*
X164923373Y-34672037D01*
X164989557Y-34665519D01*
X165055740Y-34659000D01*
X165144260Y-34659000D01*
X165210443Y-34665519D01*
X165210443Y-34665519D01*
G37*
G36*
X119511552Y-33358331D02*
X119593625Y-33392327D01*
X119593626Y-33392328D01*
X119593629Y-33392329D01*
X119667496Y-33441686D01*
X119667500Y-33441689D01*
X119730311Y-33504500D01*
X119730313Y-33504503D01*
X119730314Y-33504504D01*
X119779671Y-33578371D01*
X119779672Y-33578374D01*
X119779673Y-33578375D01*
X119813669Y-33660448D01*
X119831000Y-33747579D01*
X119831000Y-33836421D01*
X119813669Y-33923552D01*
X119779673Y-34005625D01*
X119779671Y-34005629D01*
X119730314Y-34079496D01*
X119730311Y-34079500D01*
X119667500Y-34142311D01*
X119667497Y-34142313D01*
X119667496Y-34142314D01*
X119593629Y-34191671D01*
X119593626Y-34191672D01*
X119593625Y-34191673D01*
X119511552Y-34225669D01*
X119424421Y-34243000D01*
X119335579Y-34243000D01*
X119248448Y-34225669D01*
X119166375Y-34191673D01*
X119166374Y-34191672D01*
X119166371Y-34191671D01*
X119092504Y-34142314D01*
X119092503Y-34142313D01*
X119092500Y-34142311D01*
X119029689Y-34079500D01*
X119029686Y-34079496D01*
X118980329Y-34005629D01*
X118980327Y-34005625D01*
X118946331Y-33923552D01*
X118929000Y-33836421D01*
X118929000Y-33747579D01*
X118946331Y-33660448D01*
X118980327Y-33578375D01*
X118980328Y-33578374D01*
X118980329Y-33578371D01*
X119029686Y-33504504D01*
X119029687Y-33504503D01*
X119029689Y-33504500D01*
X119092500Y-33441689D01*
X119092504Y-33441686D01*
X119166371Y-33392329D01*
X119166374Y-33392328D01*
X119166375Y-33392327D01*
X119248448Y-33358331D01*
X119335579Y-33341000D01*
X119424421Y-33341000D01*
X119511552Y-33358331D01*
X119511552Y-33358331D01*
G37*
G36*
X118241552Y-33358331D02*
X118323625Y-33392327D01*
X118323626Y-33392328D01*
X118323629Y-33392329D01*
X118397496Y-33441686D01*
X118397500Y-33441689D01*
X118460311Y-33504500D01*
X118460313Y-33504503D01*
X118460314Y-33504504D01*
X118509671Y-33578371D01*
X118509672Y-33578374D01*
X118509673Y-33578375D01*
X118543669Y-33660448D01*
X118561000Y-33747579D01*
X118561000Y-33836421D01*
X118543669Y-33923552D01*
X118509673Y-34005625D01*
X118509671Y-34005629D01*
X118460314Y-34079496D01*
X118460311Y-34079500D01*
X118397500Y-34142311D01*
X118397497Y-34142313D01*
X118397496Y-34142314D01*
X118323629Y-34191671D01*
X118323626Y-34191672D01*
X118323625Y-34191673D01*
X118241552Y-34225669D01*
X118154421Y-34243000D01*
X118065579Y-34243000D01*
X117978448Y-34225669D01*
X117896375Y-34191673D01*
X117896374Y-34191672D01*
X117896371Y-34191671D01*
X117822504Y-34142314D01*
X117822503Y-34142313D01*
X117822500Y-34142311D01*
X117759689Y-34079500D01*
X117759686Y-34079496D01*
X117710329Y-34005629D01*
X117710327Y-34005625D01*
X117676331Y-33923552D01*
X117659000Y-33836421D01*
X117659000Y-33747579D01*
X117676331Y-33660448D01*
X117710327Y-33578375D01*
X117710328Y-33578374D01*
X117710329Y-33578371D01*
X117759686Y-33504504D01*
X117759687Y-33504503D01*
X117759689Y-33504500D01*
X117822500Y-33441689D01*
X117822504Y-33441686D01*
X117896371Y-33392329D01*
X117896374Y-33392328D01*
X117896375Y-33392327D01*
X117978448Y-33358331D01*
X118065579Y-33341000D01*
X118154421Y-33341000D01*
X118241552Y-33358331D01*
X118241552Y-33358331D01*
G37*
G36*
X116971552Y-33358331D02*
X117053625Y-33392327D01*
X117053626Y-33392328D01*
X117053629Y-33392329D01*
X117127496Y-33441686D01*
X117127500Y-33441689D01*
X117190311Y-33504500D01*
X117190313Y-33504503D01*
X117190314Y-33504504D01*
X117239671Y-33578371D01*
X117239672Y-33578374D01*
X117239673Y-33578375D01*
X117273669Y-33660448D01*
X117291000Y-33747579D01*
X117291000Y-33836421D01*
X117273669Y-33923552D01*
X117239673Y-34005625D01*
X117239671Y-34005629D01*
X117190314Y-34079496D01*
X117190311Y-34079500D01*
X117127500Y-34142311D01*
X117127497Y-34142313D01*
X117127496Y-34142314D01*
X117053629Y-34191671D01*
X117053626Y-34191672D01*
X117053625Y-34191673D01*
X116971552Y-34225669D01*
X116884421Y-34243000D01*
X116795579Y-34243000D01*
X116708448Y-34225669D01*
X116626375Y-34191673D01*
X116626374Y-34191672D01*
X116626371Y-34191671D01*
X116552504Y-34142314D01*
X116552503Y-34142313D01*
X116552500Y-34142311D01*
X116489689Y-34079500D01*
X116489686Y-34079496D01*
X116440329Y-34005629D01*
X116440327Y-34005625D01*
X116406331Y-33923552D01*
X116389000Y-33836421D01*
X116389000Y-33747579D01*
X116406331Y-33660448D01*
X116440327Y-33578375D01*
X116440328Y-33578374D01*
X116440329Y-33578371D01*
X116489686Y-33504504D01*
X116489687Y-33504503D01*
X116489689Y-33504500D01*
X116552500Y-33441689D01*
X116552504Y-33441686D01*
X116626371Y-33392329D01*
X116626374Y-33392328D01*
X116626375Y-33392327D01*
X116708448Y-33358331D01*
X116795579Y-33341000D01*
X116884421Y-33341000D01*
X116971552Y-33358331D01*
X116971552Y-33358331D01*
G37*
G36*
X115701552Y-33358331D02*
X115783625Y-33392327D01*
X115783626Y-33392328D01*
X115783629Y-33392329D01*
X115857496Y-33441686D01*
X115857500Y-33441689D01*
X115920311Y-33504500D01*
X115920313Y-33504503D01*
X115920314Y-33504504D01*
X115969671Y-33578371D01*
X115969672Y-33578374D01*
X115969673Y-33578375D01*
X116003669Y-33660448D01*
X116021000Y-33747579D01*
X116021000Y-33836421D01*
X116003669Y-33923552D01*
X115969673Y-34005625D01*
X115969671Y-34005629D01*
X115920314Y-34079496D01*
X115920311Y-34079500D01*
X115857500Y-34142311D01*
X115857497Y-34142313D01*
X115857496Y-34142314D01*
X115783629Y-34191671D01*
X115783626Y-34191672D01*
X115783625Y-34191673D01*
X115701552Y-34225669D01*
X115614421Y-34243000D01*
X115525579Y-34243000D01*
X115438448Y-34225669D01*
X115356375Y-34191673D01*
X115356374Y-34191672D01*
X115356371Y-34191671D01*
X115282504Y-34142314D01*
X115282503Y-34142313D01*
X115282500Y-34142311D01*
X115219689Y-34079500D01*
X115219686Y-34079496D01*
X115170329Y-34005629D01*
X115170327Y-34005625D01*
X115136331Y-33923552D01*
X115119000Y-33836421D01*
X115119000Y-33747579D01*
X115136331Y-33660448D01*
X115170327Y-33578375D01*
X115170328Y-33578374D01*
X115170329Y-33578371D01*
X115219686Y-33504504D01*
X115219687Y-33504503D01*
X115219689Y-33504500D01*
X115282500Y-33441689D01*
X115282504Y-33441686D01*
X115356371Y-33392329D01*
X115356374Y-33392328D01*
X115356375Y-33392327D01*
X115438448Y-33358331D01*
X115525579Y-33341000D01*
X115614421Y-33341000D01*
X115701552Y-33358331D01*
X115701552Y-33358331D01*
G37*
G36*
X120781552Y-33358331D02*
X120863625Y-33392327D01*
X120863626Y-33392328D01*
X120863629Y-33392329D01*
X120937496Y-33441686D01*
X120937500Y-33441689D01*
X121000311Y-33504500D01*
X121000313Y-33504503D01*
X121000314Y-33504504D01*
X121049671Y-33578371D01*
X121049672Y-33578374D01*
X121049673Y-33578375D01*
X121083669Y-33660448D01*
X121101000Y-33747579D01*
X121101000Y-33836421D01*
X121083669Y-33923552D01*
X121049673Y-34005625D01*
X121049671Y-34005629D01*
X121000314Y-34079496D01*
X121000311Y-34079500D01*
X120937500Y-34142311D01*
X120937497Y-34142313D01*
X120937496Y-34142314D01*
X120863629Y-34191671D01*
X120863626Y-34191672D01*
X120863625Y-34191673D01*
X120781552Y-34225669D01*
X120694421Y-34243000D01*
X120605579Y-34243000D01*
X120518448Y-34225669D01*
X120436375Y-34191673D01*
X120436374Y-34191672D01*
X120436371Y-34191671D01*
X120362504Y-34142314D01*
X120362503Y-34142313D01*
X120362500Y-34142311D01*
X120299689Y-34079500D01*
X120299686Y-34079496D01*
X120250329Y-34005629D01*
X120250327Y-34005625D01*
X120216331Y-33923552D01*
X120199000Y-33836421D01*
X120199000Y-33747579D01*
X120216331Y-33660448D01*
X120250327Y-33578375D01*
X120250328Y-33578374D01*
X120250329Y-33578371D01*
X120299686Y-33504504D01*
X120299687Y-33504503D01*
X120299689Y-33504500D01*
X120362500Y-33441689D01*
X120362504Y-33441686D01*
X120436371Y-33392329D01*
X120436374Y-33392328D01*
X120436375Y-33392327D01*
X120518448Y-33358331D01*
X120605579Y-33341000D01*
X120694421Y-33341000D01*
X120781552Y-33358331D01*
X120781552Y-33358331D01*
G37*
G36*
X132190443Y-32125519D02*
X132256627Y-32132037D01*
X132369853Y-32166384D01*
X132426467Y-32183557D01*
X132565087Y-32257652D01*
X132582991Y-32267222D01*
X132618729Y-32296552D01*
X132720186Y-32379814D01*
X132800418Y-32477579D01*
X132832778Y-32517009D01*
X132832779Y-32517011D01*
X132916443Y-32673533D01*
X132916443Y-32673534D01*
X132967963Y-32843373D01*
X132985359Y-33020000D01*
X132967963Y-33196627D01*
X132933616Y-33309853D01*
X132916443Y-33366467D01*
X132902620Y-33392327D01*
X132832778Y-33522991D01*
X132803448Y-33558729D01*
X132720186Y-33660186D01*
X132618729Y-33743448D01*
X132582991Y-33772778D01*
X132582989Y-33772779D01*
X132426467Y-33856443D01*
X132369853Y-33873616D01*
X132256627Y-33907963D01*
X132190443Y-33914481D01*
X132124260Y-33921000D01*
X132035740Y-33921000D01*
X131969557Y-33914481D01*
X131903373Y-33907963D01*
X131790147Y-33873616D01*
X131733533Y-33856443D01*
X131577011Y-33772779D01*
X131577009Y-33772778D01*
X131541271Y-33743448D01*
X131439814Y-33660186D01*
X131356552Y-33558729D01*
X131327222Y-33522991D01*
X131257380Y-33392327D01*
X131243557Y-33366467D01*
X131226384Y-33309853D01*
X131192037Y-33196627D01*
X131174641Y-33020000D01*
X131192037Y-32843373D01*
X131243557Y-32673534D01*
X131243557Y-32673533D01*
X131327221Y-32517011D01*
X131327222Y-32517009D01*
X131359582Y-32477579D01*
X131439814Y-32379814D01*
X131541271Y-32296552D01*
X131577009Y-32267222D01*
X131594913Y-32257652D01*
X131733533Y-32183557D01*
X131790147Y-32166384D01*
X131903373Y-32132037D01*
X131969557Y-32125519D01*
X132035740Y-32119000D01*
X132124260Y-32119000D01*
X132190443Y-32125519D01*
X132190443Y-32125519D01*
G37*
G36*
X106790443Y-32125519D02*
X106856627Y-32132037D01*
X106969853Y-32166384D01*
X107026467Y-32183557D01*
X107165087Y-32257652D01*
X107182991Y-32267222D01*
X107218729Y-32296552D01*
X107320186Y-32379814D01*
X107400418Y-32477579D01*
X107432778Y-32517009D01*
X107432779Y-32517011D01*
X107516443Y-32673533D01*
X107516443Y-32673534D01*
X107567963Y-32843373D01*
X107585359Y-33020000D01*
X107567963Y-33196627D01*
X107533616Y-33309853D01*
X107516443Y-33366467D01*
X107502620Y-33392327D01*
X107432778Y-33522991D01*
X107403448Y-33558729D01*
X107320186Y-33660186D01*
X107218729Y-33743448D01*
X107182991Y-33772778D01*
X107182989Y-33772779D01*
X107026467Y-33856443D01*
X106969853Y-33873616D01*
X106856627Y-33907963D01*
X106790443Y-33914481D01*
X106724260Y-33921000D01*
X106635740Y-33921000D01*
X106569557Y-33914481D01*
X106503373Y-33907963D01*
X106390147Y-33873616D01*
X106333533Y-33856443D01*
X106177011Y-33772779D01*
X106177009Y-33772778D01*
X106141271Y-33743448D01*
X106039814Y-33660186D01*
X105956552Y-33558729D01*
X105927222Y-33522991D01*
X105857380Y-33392327D01*
X105843557Y-33366467D01*
X105826384Y-33309853D01*
X105792037Y-33196627D01*
X105774641Y-33020000D01*
X105792037Y-32843373D01*
X105843557Y-32673534D01*
X105843557Y-32673533D01*
X105927221Y-32517011D01*
X105927222Y-32517009D01*
X105959582Y-32477579D01*
X106039814Y-32379814D01*
X106141271Y-32296552D01*
X106177009Y-32267222D01*
X106194913Y-32257652D01*
X106333533Y-32183557D01*
X106390147Y-32166384D01*
X106503373Y-32132037D01*
X106569557Y-32125519D01*
X106635740Y-32119000D01*
X106724260Y-32119000D01*
X106790443Y-32125519D01*
X106790443Y-32125519D01*
G37*
G36*
X162670443Y-32125519D02*
X162736627Y-32132037D01*
X162849853Y-32166384D01*
X162906467Y-32183557D01*
X163045087Y-32257652D01*
X163062991Y-32267222D01*
X163098729Y-32296552D01*
X163200186Y-32379814D01*
X163280418Y-32477579D01*
X163312778Y-32517009D01*
X163312779Y-32517011D01*
X163396443Y-32673533D01*
X163396443Y-32673534D01*
X163447963Y-32843373D01*
X163465359Y-33020000D01*
X163447963Y-33196627D01*
X163413616Y-33309853D01*
X163396443Y-33366467D01*
X163382620Y-33392327D01*
X163312778Y-33522991D01*
X163283448Y-33558729D01*
X163200186Y-33660186D01*
X163098729Y-33743448D01*
X163062991Y-33772778D01*
X163062989Y-33772779D01*
X162906467Y-33856443D01*
X162849853Y-33873616D01*
X162736627Y-33907963D01*
X162670443Y-33914481D01*
X162604260Y-33921000D01*
X162515740Y-33921000D01*
X162449557Y-33914481D01*
X162383373Y-33907963D01*
X162270147Y-33873616D01*
X162213533Y-33856443D01*
X162057011Y-33772779D01*
X162057009Y-33772778D01*
X162021271Y-33743448D01*
X161919814Y-33660186D01*
X161836552Y-33558729D01*
X161807222Y-33522991D01*
X161737380Y-33392327D01*
X161723557Y-33366467D01*
X161706384Y-33309853D01*
X161672037Y-33196627D01*
X161654641Y-33020000D01*
X161672037Y-32843373D01*
X161723557Y-32673534D01*
X161723557Y-32673533D01*
X161807221Y-32517011D01*
X161807222Y-32517009D01*
X161839582Y-32477579D01*
X161919814Y-32379814D01*
X162021271Y-32296552D01*
X162057009Y-32267222D01*
X162074913Y-32257652D01*
X162213533Y-32183557D01*
X162270147Y-32166384D01*
X162383373Y-32132037D01*
X162449557Y-32125519D01*
X162515740Y-32119000D01*
X162604260Y-32119000D01*
X162670443Y-32125519D01*
X162670443Y-32125519D01*
G37*
G36*
X165210443Y-32125519D02*
X165276627Y-32132037D01*
X165389853Y-32166384D01*
X165446467Y-32183557D01*
X165585087Y-32257652D01*
X165602991Y-32267222D01*
X165638729Y-32296552D01*
X165740186Y-32379814D01*
X165820418Y-32477579D01*
X165852778Y-32517009D01*
X165852779Y-32517011D01*
X165936443Y-32673533D01*
X165936443Y-32673534D01*
X165987963Y-32843373D01*
X166005359Y-33020000D01*
X165987963Y-33196627D01*
X165953616Y-33309853D01*
X165936443Y-33366467D01*
X165922620Y-33392327D01*
X165852778Y-33522991D01*
X165823448Y-33558729D01*
X165740186Y-33660186D01*
X165638729Y-33743448D01*
X165602991Y-33772778D01*
X165602989Y-33772779D01*
X165446467Y-33856443D01*
X165389853Y-33873616D01*
X165276627Y-33907963D01*
X165210443Y-33914481D01*
X165144260Y-33921000D01*
X165055740Y-33921000D01*
X164989557Y-33914481D01*
X164923373Y-33907963D01*
X164810147Y-33873616D01*
X164753533Y-33856443D01*
X164597011Y-33772779D01*
X164597009Y-33772778D01*
X164561271Y-33743448D01*
X164459814Y-33660186D01*
X164376552Y-33558729D01*
X164347222Y-33522991D01*
X164277380Y-33392327D01*
X164263557Y-33366467D01*
X164246384Y-33309853D01*
X164212037Y-33196627D01*
X164194641Y-33020000D01*
X164212037Y-32843373D01*
X164263557Y-32673534D01*
X164263557Y-32673533D01*
X164347221Y-32517011D01*
X164347222Y-32517009D01*
X164379582Y-32477579D01*
X164459814Y-32379814D01*
X164561271Y-32296552D01*
X164597009Y-32267222D01*
X164614913Y-32257652D01*
X164753533Y-32183557D01*
X164810147Y-32166384D01*
X164923373Y-32132037D01*
X164989557Y-32125519D01*
X165055740Y-32119000D01*
X165144260Y-32119000D01*
X165210443Y-32125519D01*
X165210443Y-32125519D01*
G37*
G36*
X147430443Y-32125519D02*
X147496627Y-32132037D01*
X147609853Y-32166384D01*
X147666467Y-32183557D01*
X147805087Y-32257652D01*
X147822991Y-32267222D01*
X147858729Y-32296552D01*
X147960186Y-32379814D01*
X148040418Y-32477579D01*
X148072778Y-32517009D01*
X148072779Y-32517011D01*
X148156443Y-32673533D01*
X148156443Y-32673534D01*
X148207963Y-32843373D01*
X148225359Y-33020000D01*
X148207963Y-33196627D01*
X148173616Y-33309853D01*
X148156443Y-33366467D01*
X148142620Y-33392327D01*
X148072778Y-33522991D01*
X148043448Y-33558729D01*
X147960186Y-33660186D01*
X147858729Y-33743448D01*
X147822991Y-33772778D01*
X147822989Y-33772779D01*
X147666467Y-33856443D01*
X147609853Y-33873616D01*
X147496627Y-33907963D01*
X147430443Y-33914481D01*
X147364260Y-33921000D01*
X147275740Y-33921000D01*
X147209557Y-33914481D01*
X147143373Y-33907963D01*
X147030147Y-33873616D01*
X146973533Y-33856443D01*
X146817011Y-33772779D01*
X146817009Y-33772778D01*
X146781271Y-33743448D01*
X146679814Y-33660186D01*
X146596552Y-33558729D01*
X146567222Y-33522991D01*
X146497380Y-33392327D01*
X146483557Y-33366467D01*
X146466384Y-33309853D01*
X146432037Y-33196627D01*
X146414641Y-33020000D01*
X146432037Y-32843373D01*
X146483557Y-32673534D01*
X146483557Y-32673533D01*
X146567221Y-32517011D01*
X146567222Y-32517009D01*
X146599582Y-32477579D01*
X146679814Y-32379814D01*
X146781271Y-32296552D01*
X146817009Y-32267222D01*
X146834913Y-32257652D01*
X146973533Y-32183557D01*
X147030147Y-32166384D01*
X147143373Y-32132037D01*
X147209557Y-32125519D01*
X147275740Y-32119000D01*
X147364260Y-32119000D01*
X147430443Y-32125519D01*
X147430443Y-32125519D01*
G37*
G36*
X129650443Y-32125519D02*
X129716627Y-32132037D01*
X129829853Y-32166384D01*
X129886467Y-32183557D01*
X130025087Y-32257652D01*
X130042991Y-32267222D01*
X130078729Y-32296552D01*
X130180186Y-32379814D01*
X130260418Y-32477579D01*
X130292778Y-32517009D01*
X130292779Y-32517011D01*
X130376443Y-32673533D01*
X130376443Y-32673534D01*
X130427963Y-32843373D01*
X130445359Y-33020000D01*
X130427963Y-33196627D01*
X130393616Y-33309853D01*
X130376443Y-33366467D01*
X130362620Y-33392327D01*
X130292778Y-33522991D01*
X130263448Y-33558729D01*
X130180186Y-33660186D01*
X130078729Y-33743448D01*
X130042991Y-33772778D01*
X130042989Y-33772779D01*
X129886467Y-33856443D01*
X129829853Y-33873616D01*
X129716627Y-33907963D01*
X129650443Y-33914481D01*
X129584260Y-33921000D01*
X129495740Y-33921000D01*
X129429557Y-33914481D01*
X129363373Y-33907963D01*
X129250147Y-33873616D01*
X129193533Y-33856443D01*
X129037011Y-33772779D01*
X129037009Y-33772778D01*
X129001271Y-33743448D01*
X128899814Y-33660186D01*
X128816552Y-33558729D01*
X128787222Y-33522991D01*
X128717380Y-33392327D01*
X128703557Y-33366467D01*
X128686384Y-33309853D01*
X128652037Y-33196627D01*
X128634641Y-33020000D01*
X128652037Y-32843373D01*
X128703557Y-32673534D01*
X128703557Y-32673533D01*
X128787221Y-32517011D01*
X128787222Y-32517009D01*
X128819582Y-32477579D01*
X128899814Y-32379814D01*
X129001271Y-32296552D01*
X129037009Y-32267222D01*
X129054913Y-32257652D01*
X129193533Y-32183557D01*
X129250147Y-32166384D01*
X129363373Y-32132037D01*
X129429557Y-32125519D01*
X129495740Y-32119000D01*
X129584260Y-32119000D01*
X129650443Y-32125519D01*
X129650443Y-32125519D01*
G37*
G36*
X149970443Y-32125519D02*
X150036627Y-32132037D01*
X150149853Y-32166384D01*
X150206467Y-32183557D01*
X150345087Y-32257652D01*
X150362991Y-32267222D01*
X150398729Y-32296552D01*
X150500186Y-32379814D01*
X150580418Y-32477579D01*
X150612778Y-32517009D01*
X150612779Y-32517011D01*
X150696443Y-32673533D01*
X150696443Y-32673534D01*
X150747963Y-32843373D01*
X150765359Y-33020000D01*
X150747963Y-33196627D01*
X150713616Y-33309853D01*
X150696443Y-33366467D01*
X150682620Y-33392327D01*
X150612778Y-33522991D01*
X150583448Y-33558729D01*
X150500186Y-33660186D01*
X150398729Y-33743448D01*
X150362991Y-33772778D01*
X150362989Y-33772779D01*
X150206467Y-33856443D01*
X150149853Y-33873616D01*
X150036627Y-33907963D01*
X149970443Y-33914481D01*
X149904260Y-33921000D01*
X149815740Y-33921000D01*
X149749557Y-33914481D01*
X149683373Y-33907963D01*
X149570147Y-33873616D01*
X149513533Y-33856443D01*
X149357011Y-33772779D01*
X149357009Y-33772778D01*
X149321271Y-33743448D01*
X149219814Y-33660186D01*
X149136552Y-33558729D01*
X149107222Y-33522991D01*
X149037380Y-33392327D01*
X149023557Y-33366467D01*
X149006384Y-33309853D01*
X148972037Y-33196627D01*
X148954641Y-33020000D01*
X148972037Y-32843373D01*
X149023557Y-32673534D01*
X149023557Y-32673533D01*
X149107221Y-32517011D01*
X149107222Y-32517009D01*
X149139582Y-32477579D01*
X149219814Y-32379814D01*
X149321271Y-32296552D01*
X149357009Y-32267222D01*
X149374913Y-32257652D01*
X149513533Y-32183557D01*
X149570147Y-32166384D01*
X149683373Y-32132037D01*
X149749557Y-32125519D01*
X149815740Y-32119000D01*
X149904260Y-32119000D01*
X149970443Y-32125519D01*
X149970443Y-32125519D01*
G37*
G36*
X109330443Y-32125519D02*
X109396627Y-32132037D01*
X109509853Y-32166384D01*
X109566467Y-32183557D01*
X109705087Y-32257652D01*
X109722991Y-32267222D01*
X109758729Y-32296552D01*
X109860186Y-32379814D01*
X109940418Y-32477579D01*
X109972778Y-32517009D01*
X109972779Y-32517011D01*
X110056443Y-32673533D01*
X110056443Y-32673534D01*
X110107963Y-32843373D01*
X110125359Y-33020000D01*
X110107963Y-33196627D01*
X110073616Y-33309853D01*
X110056443Y-33366467D01*
X110042620Y-33392327D01*
X109972778Y-33522991D01*
X109943448Y-33558729D01*
X109860186Y-33660186D01*
X109758729Y-33743448D01*
X109722991Y-33772778D01*
X109722989Y-33772779D01*
X109566467Y-33856443D01*
X109509853Y-33873616D01*
X109396627Y-33907963D01*
X109330443Y-33914481D01*
X109264260Y-33921000D01*
X109175740Y-33921000D01*
X109109557Y-33914481D01*
X109043373Y-33907963D01*
X108930147Y-33873616D01*
X108873533Y-33856443D01*
X108717011Y-33772779D01*
X108717009Y-33772778D01*
X108681271Y-33743448D01*
X108579814Y-33660186D01*
X108496552Y-33558729D01*
X108467222Y-33522991D01*
X108397380Y-33392327D01*
X108383557Y-33366467D01*
X108366384Y-33309853D01*
X108332037Y-33196627D01*
X108314641Y-33020000D01*
X108332037Y-32843373D01*
X108383557Y-32673534D01*
X108383557Y-32673533D01*
X108467221Y-32517011D01*
X108467222Y-32517009D01*
X108499582Y-32477579D01*
X108579814Y-32379814D01*
X108681271Y-32296552D01*
X108717009Y-32267222D01*
X108734913Y-32257652D01*
X108873533Y-32183557D01*
X108930147Y-32166384D01*
X109043373Y-32132037D01*
X109109557Y-32125519D01*
X109175740Y-32119000D01*
X109264260Y-32119000D01*
X109330443Y-32125519D01*
X109330443Y-32125519D01*
G37*
G36*
X119511552Y-32088331D02*
X119593625Y-32122327D01*
X119593626Y-32122328D01*
X119593629Y-32122329D01*
X119667496Y-32171686D01*
X119667500Y-32171689D01*
X119730311Y-32234500D01*
X119730313Y-32234503D01*
X119730314Y-32234504D01*
X119779671Y-32308371D01*
X119779672Y-32308374D01*
X119779673Y-32308375D01*
X119813669Y-32390448D01*
X119831000Y-32477579D01*
X119831000Y-32566421D01*
X119813669Y-32653552D01*
X119779673Y-32735625D01*
X119779671Y-32735629D01*
X119730314Y-32809496D01*
X119730311Y-32809500D01*
X119667500Y-32872311D01*
X119667497Y-32872313D01*
X119667496Y-32872314D01*
X119593629Y-32921671D01*
X119593626Y-32921672D01*
X119593625Y-32921673D01*
X119511552Y-32955669D01*
X119424421Y-32973000D01*
X119335579Y-32973000D01*
X119248448Y-32955669D01*
X119166375Y-32921673D01*
X119166374Y-32921672D01*
X119166371Y-32921671D01*
X119092504Y-32872314D01*
X119092503Y-32872313D01*
X119092500Y-32872311D01*
X119029689Y-32809500D01*
X119029686Y-32809496D01*
X118980329Y-32735629D01*
X118980327Y-32735625D01*
X118946331Y-32653552D01*
X118929000Y-32566421D01*
X118929000Y-32477579D01*
X118946331Y-32390448D01*
X118980327Y-32308375D01*
X118980328Y-32308374D01*
X118980329Y-32308371D01*
X119029686Y-32234504D01*
X119029687Y-32234503D01*
X119029689Y-32234500D01*
X119092500Y-32171689D01*
X119092504Y-32171686D01*
X119166371Y-32122329D01*
X119166374Y-32122328D01*
X119166375Y-32122327D01*
X119248448Y-32088331D01*
X119335579Y-32071000D01*
X119424421Y-32071000D01*
X119511552Y-32088331D01*
X119511552Y-32088331D01*
G37*
G36*
X120781552Y-32088331D02*
X120863625Y-32122327D01*
X120863626Y-32122328D01*
X120863629Y-32122329D01*
X120937496Y-32171686D01*
X120937500Y-32171689D01*
X121000311Y-32234500D01*
X121000313Y-32234503D01*
X121000314Y-32234504D01*
X121049671Y-32308371D01*
X121049672Y-32308374D01*
X121049673Y-32308375D01*
X121083669Y-32390448D01*
X121101000Y-32477579D01*
X121101000Y-32566421D01*
X121083669Y-32653552D01*
X121049673Y-32735625D01*
X121049671Y-32735629D01*
X121000314Y-32809496D01*
X121000311Y-32809500D01*
X120937500Y-32872311D01*
X120937497Y-32872313D01*
X120937496Y-32872314D01*
X120863629Y-32921671D01*
X120863626Y-32921672D01*
X120863625Y-32921673D01*
X120781552Y-32955669D01*
X120694421Y-32973000D01*
X120605579Y-32973000D01*
X120518448Y-32955669D01*
X120436375Y-32921673D01*
X120436374Y-32921672D01*
X120436371Y-32921671D01*
X120362504Y-32872314D01*
X120362503Y-32872313D01*
X120362500Y-32872311D01*
X120299689Y-32809500D01*
X120299686Y-32809496D01*
X120250329Y-32735629D01*
X120250327Y-32735625D01*
X120216331Y-32653552D01*
X120199000Y-32566421D01*
X120199000Y-32477579D01*
X120216331Y-32390448D01*
X120250327Y-32308375D01*
X120250328Y-32308374D01*
X120250329Y-32308371D01*
X120299686Y-32234504D01*
X120299687Y-32234503D01*
X120299689Y-32234500D01*
X120362500Y-32171689D01*
X120362504Y-32171686D01*
X120436371Y-32122329D01*
X120436374Y-32122328D01*
X120436375Y-32122327D01*
X120518448Y-32088331D01*
X120605579Y-32071000D01*
X120694421Y-32071000D01*
X120781552Y-32088331D01*
X120781552Y-32088331D01*
G37*
G36*
X116971552Y-32088331D02*
X117053625Y-32122327D01*
X117053626Y-32122328D01*
X117053629Y-32122329D01*
X117127496Y-32171686D01*
X117127500Y-32171689D01*
X117190311Y-32234500D01*
X117190313Y-32234503D01*
X117190314Y-32234504D01*
X117239671Y-32308371D01*
X117239672Y-32308374D01*
X117239673Y-32308375D01*
X117273669Y-32390448D01*
X117291000Y-32477579D01*
X117291000Y-32566421D01*
X117273669Y-32653552D01*
X117239673Y-32735625D01*
X117239671Y-32735629D01*
X117190314Y-32809496D01*
X117190311Y-32809500D01*
X117127500Y-32872311D01*
X117127497Y-32872313D01*
X117127496Y-32872314D01*
X117053629Y-32921671D01*
X117053626Y-32921672D01*
X117053625Y-32921673D01*
X116971552Y-32955669D01*
X116884421Y-32973000D01*
X116795579Y-32973000D01*
X116708448Y-32955669D01*
X116626375Y-32921673D01*
X116626374Y-32921672D01*
X116626371Y-32921671D01*
X116552504Y-32872314D01*
X116552503Y-32872313D01*
X116552500Y-32872311D01*
X116489689Y-32809500D01*
X116489686Y-32809496D01*
X116440329Y-32735629D01*
X116440327Y-32735625D01*
X116406331Y-32653552D01*
X116389000Y-32566421D01*
X116389000Y-32477579D01*
X116406331Y-32390448D01*
X116440327Y-32308375D01*
X116440328Y-32308374D01*
X116440329Y-32308371D01*
X116489686Y-32234504D01*
X116489687Y-32234503D01*
X116489689Y-32234500D01*
X116552500Y-32171689D01*
X116552504Y-32171686D01*
X116626371Y-32122329D01*
X116626374Y-32122328D01*
X116626375Y-32122327D01*
X116708448Y-32088331D01*
X116795579Y-32071000D01*
X116884421Y-32071000D01*
X116971552Y-32088331D01*
X116971552Y-32088331D01*
G37*
G36*
X115701552Y-32088331D02*
X115783625Y-32122327D01*
X115783626Y-32122328D01*
X115783629Y-32122329D01*
X115857496Y-32171686D01*
X115857500Y-32171689D01*
X115920311Y-32234500D01*
X115920313Y-32234503D01*
X115920314Y-32234504D01*
X115969671Y-32308371D01*
X115969672Y-32308374D01*
X115969673Y-32308375D01*
X116003669Y-32390448D01*
X116021000Y-32477579D01*
X116021000Y-32566421D01*
X116003669Y-32653552D01*
X115969673Y-32735625D01*
X115969671Y-32735629D01*
X115920314Y-32809496D01*
X115920311Y-32809500D01*
X115857500Y-32872311D01*
X115857497Y-32872313D01*
X115857496Y-32872314D01*
X115783629Y-32921671D01*
X115783626Y-32921672D01*
X115783625Y-32921673D01*
X115701552Y-32955669D01*
X115614421Y-32973000D01*
X115525579Y-32973000D01*
X115438448Y-32955669D01*
X115356375Y-32921673D01*
X115356374Y-32921672D01*
X115356371Y-32921671D01*
X115282504Y-32872314D01*
X115282503Y-32872313D01*
X115282500Y-32872311D01*
X115219689Y-32809500D01*
X115219686Y-32809496D01*
X115170329Y-32735629D01*
X115170327Y-32735625D01*
X115136331Y-32653552D01*
X115119000Y-32566421D01*
X115119000Y-32477579D01*
X115136331Y-32390448D01*
X115170327Y-32308375D01*
X115170328Y-32308374D01*
X115170329Y-32308371D01*
X115219686Y-32234504D01*
X115219687Y-32234503D01*
X115219689Y-32234500D01*
X115282500Y-32171689D01*
X115282504Y-32171686D01*
X115356371Y-32122329D01*
X115356374Y-32122328D01*
X115356375Y-32122327D01*
X115438448Y-32088331D01*
X115525579Y-32071000D01*
X115614421Y-32071000D01*
X115701552Y-32088331D01*
X115701552Y-32088331D01*
G37*
G36*
X118241552Y-32088331D02*
X118323625Y-32122327D01*
X118323626Y-32122328D01*
X118323629Y-32122329D01*
X118397496Y-32171686D01*
X118397500Y-32171689D01*
X118460311Y-32234500D01*
X118460313Y-32234503D01*
X118460314Y-32234504D01*
X118509671Y-32308371D01*
X118509672Y-32308374D01*
X118509673Y-32308375D01*
X118543669Y-32390448D01*
X118561000Y-32477579D01*
X118561000Y-32566421D01*
X118543669Y-32653552D01*
X118509673Y-32735625D01*
X118509671Y-32735629D01*
X118460314Y-32809496D01*
X118460311Y-32809500D01*
X118397500Y-32872311D01*
X118397497Y-32872313D01*
X118397496Y-32872314D01*
X118323629Y-32921671D01*
X118323626Y-32921672D01*
X118323625Y-32921673D01*
X118241552Y-32955669D01*
X118154421Y-32973000D01*
X118065579Y-32973000D01*
X117978448Y-32955669D01*
X117896375Y-32921673D01*
X117896374Y-32921672D01*
X117896371Y-32921671D01*
X117822504Y-32872314D01*
X117822503Y-32872313D01*
X117822500Y-32872311D01*
X117759689Y-32809500D01*
X117759686Y-32809496D01*
X117710329Y-32735629D01*
X117710327Y-32735625D01*
X117676331Y-32653552D01*
X117659000Y-32566421D01*
X117659000Y-32477579D01*
X117676331Y-32390448D01*
X117710327Y-32308375D01*
X117710328Y-32308374D01*
X117710329Y-32308371D01*
X117759686Y-32234504D01*
X117759687Y-32234503D01*
X117759689Y-32234500D01*
X117822500Y-32171689D01*
X117822504Y-32171686D01*
X117896371Y-32122329D01*
X117896374Y-32122328D01*
X117896375Y-32122327D01*
X117978448Y-32088331D01*
X118065579Y-32071000D01*
X118154421Y-32071000D01*
X118241552Y-32088331D01*
X118241552Y-32088331D01*
G37*
G36*
X106790443Y-29585519D02*
X106856627Y-29592037D01*
X106969853Y-29626384D01*
X107026467Y-29643557D01*
X107165087Y-29717652D01*
X107182991Y-29727222D01*
X107218729Y-29756552D01*
X107320186Y-29839814D01*
X107403448Y-29941271D01*
X107432778Y-29977009D01*
X107432779Y-29977011D01*
X107516443Y-30133533D01*
X107516443Y-30133534D01*
X107567963Y-30303373D01*
X107585359Y-30480000D01*
X107567963Y-30656627D01*
X107533616Y-30769853D01*
X107516443Y-30826467D01*
X107442348Y-30965087D01*
X107432778Y-30982991D01*
X107403448Y-31018729D01*
X107320186Y-31120186D01*
X107218729Y-31203448D01*
X107182991Y-31232778D01*
X107182989Y-31232779D01*
X107026467Y-31316443D01*
X106969853Y-31333616D01*
X106856627Y-31367963D01*
X106790443Y-31374481D01*
X106724260Y-31381000D01*
X106635740Y-31381000D01*
X106569557Y-31374481D01*
X106503373Y-31367963D01*
X106390147Y-31333616D01*
X106333533Y-31316443D01*
X106177011Y-31232779D01*
X106177009Y-31232778D01*
X106141271Y-31203448D01*
X106039814Y-31120186D01*
X105956552Y-31018729D01*
X105927222Y-30982991D01*
X105917652Y-30965087D01*
X105843557Y-30826467D01*
X105826384Y-30769853D01*
X105792037Y-30656627D01*
X105774641Y-30480000D01*
X105792037Y-30303373D01*
X105843557Y-30133534D01*
X105843557Y-30133533D01*
X105927221Y-29977011D01*
X105927222Y-29977009D01*
X105956552Y-29941271D01*
X106039814Y-29839814D01*
X106141271Y-29756552D01*
X106177009Y-29727222D01*
X106194913Y-29717652D01*
X106333533Y-29643557D01*
X106390147Y-29626384D01*
X106503373Y-29592037D01*
X106569557Y-29585519D01*
X106635740Y-29579000D01*
X106724260Y-29579000D01*
X106790443Y-29585519D01*
X106790443Y-29585519D01*
G37*
G36*
X166001000Y-31381000D02*
X164199000Y-31381000D01*
X164199000Y-29579000D01*
X166001000Y-29579000D01*
X166001000Y-31381000D01*
X166001000Y-31381000D01*
G37*
G36*
X147430443Y-29585519D02*
X147496627Y-29592037D01*
X147609853Y-29626384D01*
X147666467Y-29643557D01*
X147805087Y-29717652D01*
X147822991Y-29727222D01*
X147858729Y-29756552D01*
X147960186Y-29839814D01*
X148043448Y-29941271D01*
X148072778Y-29977009D01*
X148072779Y-29977011D01*
X148156443Y-30133533D01*
X148156443Y-30133534D01*
X148207963Y-30303373D01*
X148225359Y-30480000D01*
X148207963Y-30656627D01*
X148173616Y-30769853D01*
X148156443Y-30826467D01*
X148082348Y-30965087D01*
X148072778Y-30982991D01*
X148043448Y-31018729D01*
X147960186Y-31120186D01*
X147858729Y-31203448D01*
X147822991Y-31232778D01*
X147822989Y-31232779D01*
X147666467Y-31316443D01*
X147609853Y-31333616D01*
X147496627Y-31367963D01*
X147430443Y-31374481D01*
X147364260Y-31381000D01*
X147275740Y-31381000D01*
X147209557Y-31374481D01*
X147143373Y-31367963D01*
X147030147Y-31333616D01*
X146973533Y-31316443D01*
X146817011Y-31232779D01*
X146817009Y-31232778D01*
X146781271Y-31203448D01*
X146679814Y-31120186D01*
X146596552Y-31018729D01*
X146567222Y-30982991D01*
X146557652Y-30965087D01*
X146483557Y-30826467D01*
X146466384Y-30769853D01*
X146432037Y-30656627D01*
X146414641Y-30480000D01*
X146432037Y-30303373D01*
X146483557Y-30133534D01*
X146483557Y-30133533D01*
X146567221Y-29977011D01*
X146567222Y-29977009D01*
X146596552Y-29941271D01*
X146679814Y-29839814D01*
X146781271Y-29756552D01*
X146817009Y-29727222D01*
X146834913Y-29717652D01*
X146973533Y-29643557D01*
X147030147Y-29626384D01*
X147143373Y-29592037D01*
X147209557Y-29585519D01*
X147275740Y-29579000D01*
X147364260Y-29579000D01*
X147430443Y-29585519D01*
X147430443Y-29585519D01*
G37*
G36*
X150761000Y-31381000D02*
X148959000Y-31381000D01*
X148959000Y-29579000D01*
X150761000Y-29579000D01*
X150761000Y-31381000D01*
X150761000Y-31381000D01*
G37*
G36*
X132981000Y-31381000D02*
X131179000Y-31381000D01*
X131179000Y-29579000D01*
X132981000Y-29579000D01*
X132981000Y-31381000D01*
X132981000Y-31381000D01*
G37*
G36*
X129650443Y-29585519D02*
X129716627Y-29592037D01*
X129829853Y-29626384D01*
X129886467Y-29643557D01*
X130025087Y-29717652D01*
X130042991Y-29727222D01*
X130078729Y-29756552D01*
X130180186Y-29839814D01*
X130263448Y-29941271D01*
X130292778Y-29977009D01*
X130292779Y-29977011D01*
X130376443Y-30133533D01*
X130376443Y-30133534D01*
X130427963Y-30303373D01*
X130445359Y-30480000D01*
X130427963Y-30656627D01*
X130393616Y-30769853D01*
X130376443Y-30826467D01*
X130302348Y-30965087D01*
X130292778Y-30982991D01*
X130263448Y-31018729D01*
X130180186Y-31120186D01*
X130078729Y-31203448D01*
X130042991Y-31232778D01*
X130042989Y-31232779D01*
X129886467Y-31316443D01*
X129829853Y-31333616D01*
X129716627Y-31367963D01*
X129650443Y-31374481D01*
X129584260Y-31381000D01*
X129495740Y-31381000D01*
X129429557Y-31374481D01*
X129363373Y-31367963D01*
X129250147Y-31333616D01*
X129193533Y-31316443D01*
X129037011Y-31232779D01*
X129037009Y-31232778D01*
X129001271Y-31203448D01*
X128899814Y-31120186D01*
X128816552Y-31018729D01*
X128787222Y-30982991D01*
X128777652Y-30965087D01*
X128703557Y-30826467D01*
X128686384Y-30769853D01*
X128652037Y-30656627D01*
X128634641Y-30480000D01*
X128652037Y-30303373D01*
X128703557Y-30133534D01*
X128703557Y-30133533D01*
X128787221Y-29977011D01*
X128787222Y-29977009D01*
X128816552Y-29941271D01*
X128899814Y-29839814D01*
X129001271Y-29756552D01*
X129037009Y-29727222D01*
X129054913Y-29717652D01*
X129193533Y-29643557D01*
X129250147Y-29626384D01*
X129363373Y-29592037D01*
X129429557Y-29585519D01*
X129495740Y-29579000D01*
X129584260Y-29579000D01*
X129650443Y-29585519D01*
X129650443Y-29585519D01*
G37*
G36*
X110121000Y-31381000D02*
X108319000Y-31381000D01*
X108319000Y-29579000D01*
X110121000Y-29579000D01*
X110121000Y-31381000D01*
X110121000Y-31381000D01*
G37*
G36*
X162670443Y-29585519D02*
X162736627Y-29592037D01*
X162849853Y-29626384D01*
X162906467Y-29643557D01*
X163045087Y-29717652D01*
X163062991Y-29727222D01*
X163098729Y-29756552D01*
X163200186Y-29839814D01*
X163283448Y-29941271D01*
X163312778Y-29977009D01*
X163312779Y-29977011D01*
X163396443Y-30133533D01*
X163396443Y-30133534D01*
X163447963Y-30303373D01*
X163465359Y-30480000D01*
X163447963Y-30656627D01*
X163413616Y-30769853D01*
X163396443Y-30826467D01*
X163322348Y-30965087D01*
X163312778Y-30982991D01*
X163283448Y-31018729D01*
X163200186Y-31120186D01*
X163098729Y-31203448D01*
X163062991Y-31232778D01*
X163062989Y-31232779D01*
X162906467Y-31316443D01*
X162849853Y-31333616D01*
X162736627Y-31367963D01*
X162670443Y-31374481D01*
X162604260Y-31381000D01*
X162515740Y-31381000D01*
X162449557Y-31374481D01*
X162383373Y-31367963D01*
X162270147Y-31333616D01*
X162213533Y-31316443D01*
X162057011Y-31232779D01*
X162057009Y-31232778D01*
X162021271Y-31203448D01*
X161919814Y-31120186D01*
X161836552Y-31018729D01*
X161807222Y-30982991D01*
X161797652Y-30965087D01*
X161723557Y-30826467D01*
X161706384Y-30769853D01*
X161672037Y-30656627D01*
X161654641Y-30480000D01*
X161672037Y-30303373D01*
X161723557Y-30133534D01*
X161723557Y-30133533D01*
X161807221Y-29977011D01*
X161807222Y-29977009D01*
X161836552Y-29941271D01*
X161919814Y-29839814D01*
X162021271Y-29756552D01*
X162057009Y-29727222D01*
X162074913Y-29717652D01*
X162213533Y-29643557D01*
X162270147Y-29626384D01*
X162383373Y-29592037D01*
X162449557Y-29585519D01*
X162515740Y-29579000D01*
X162604260Y-29579000D01*
X162670443Y-29585519D01*
X162670443Y-29585519D01*
G37*
M02*
