G04 #@! TF.GenerationSoftware,KiCad,Pcbnew,(5.0.2)-1*
G04 #@! TF.CreationDate,2019-12-13T18:48:53-06:00*
G04 #@! TF.ProjectId,TM4C129-Breakout_Hardware,544d3443-3132-4392-9d42-7265616b6f75,rev?*
G04 #@! TF.SameCoordinates,Original*
G04 #@! TF.FileFunction,Legend,Top*
G04 #@! TF.FilePolarity,Positive*
%FSLAX46Y46*%
G04 Gerber Fmt 4.6, Leading zero omitted, Abs format (unit mm)*
G04 Created by KiCad (PCBNEW (5.0.2)-1) date 12/13/2019 6:48:53 PM*
%MOMM*%
%LPD*%
G01*
G04 APERTURE LIST*
%ADD10C,0.300000*%
%ADD11C,0.150000*%
%ADD12C,0.120000*%
G04 APERTURE END LIST*
D10*
X151050857Y-43096571D02*
X150550857Y-42382285D01*
X150193714Y-43096571D02*
X150193714Y-41596571D01*
X150765142Y-41596571D01*
X150908000Y-41668000D01*
X150979428Y-41739428D01*
X151050857Y-41882285D01*
X151050857Y-42096571D01*
X150979428Y-42239428D01*
X150908000Y-42310857D01*
X150765142Y-42382285D01*
X150193714Y-42382285D01*
X152265142Y-43025142D02*
X152122285Y-43096571D01*
X151836571Y-43096571D01*
X151693714Y-43025142D01*
X151622285Y-42882285D01*
X151622285Y-42310857D01*
X151693714Y-42168000D01*
X151836571Y-42096571D01*
X152122285Y-42096571D01*
X152265142Y-42168000D01*
X152336571Y-42310857D01*
X152336571Y-42453714D01*
X151622285Y-42596571D01*
X152908000Y-43025142D02*
X153050857Y-43096571D01*
X153336571Y-43096571D01*
X153479428Y-43025142D01*
X153550857Y-42882285D01*
X153550857Y-42810857D01*
X153479428Y-42668000D01*
X153336571Y-42596571D01*
X153122285Y-42596571D01*
X152979428Y-42525142D01*
X152908000Y-42382285D01*
X152908000Y-42310857D01*
X152979428Y-42168000D01*
X153122285Y-42096571D01*
X153336571Y-42096571D01*
X153479428Y-42168000D01*
X154765142Y-43025142D02*
X154622285Y-43096571D01*
X154336571Y-43096571D01*
X154193714Y-43025142D01*
X154122285Y-42882285D01*
X154122285Y-42310857D01*
X154193714Y-42168000D01*
X154336571Y-42096571D01*
X154622285Y-42096571D01*
X154765142Y-42168000D01*
X154836571Y-42310857D01*
X154836571Y-42453714D01*
X154122285Y-42596571D01*
X155265142Y-42096571D02*
X155836571Y-42096571D01*
X155479428Y-41596571D02*
X155479428Y-42882285D01*
X155550857Y-43025142D01*
X155693714Y-43096571D01*
X155836571Y-43096571D01*
X106537142Y-51732571D02*
X106037142Y-51018285D01*
X105680000Y-51732571D02*
X105680000Y-50232571D01*
X106251428Y-50232571D01*
X106394285Y-50304000D01*
X106465714Y-50375428D01*
X106537142Y-50518285D01*
X106537142Y-50732571D01*
X106465714Y-50875428D01*
X106394285Y-50946857D01*
X106251428Y-51018285D01*
X105680000Y-51018285D01*
X107037142Y-51732571D02*
X107822857Y-50732571D01*
X107037142Y-50732571D02*
X107822857Y-51732571D01*
X108184285Y-50232571D02*
X109041428Y-50232571D01*
X108612857Y-51732571D02*
X108612857Y-50232571D01*
X109398571Y-51732571D02*
X110184285Y-50732571D01*
X109398571Y-50732571D02*
X110184285Y-51732571D01*
X111085357Y-29396500D02*
X111799642Y-29396500D01*
X110942500Y-29825071D02*
X111442500Y-28325071D01*
X111942500Y-29825071D01*
X120297000Y-28515571D02*
X120297000Y-29587000D01*
X120225571Y-29801285D01*
X120082714Y-29944142D01*
X119868428Y-30015571D01*
X119725571Y-30015571D01*
X120797000Y-28515571D02*
X121654142Y-28515571D01*
X121225571Y-30015571D02*
X121225571Y-28515571D01*
X122082714Y-29587000D02*
X122797000Y-29587000D01*
X121939857Y-30015571D02*
X122439857Y-28515571D01*
X122939857Y-30015571D01*
X124225571Y-28587000D02*
X124082714Y-28515571D01*
X123868428Y-28515571D01*
X123654142Y-28587000D01*
X123511285Y-28729857D01*
X123439857Y-28872714D01*
X123368428Y-29158428D01*
X123368428Y-29372714D01*
X123439857Y-29658428D01*
X123511285Y-29801285D01*
X123654142Y-29944142D01*
X123868428Y-30015571D01*
X124011285Y-30015571D01*
X124225571Y-29944142D01*
X124297000Y-29872714D01*
X124297000Y-29372714D01*
X124011285Y-29372714D01*
X127440714Y-36111571D02*
X127440714Y-34611571D01*
X128083571Y-34754428D02*
X128155000Y-34683000D01*
X128297857Y-34611571D01*
X128655000Y-34611571D01*
X128797857Y-34683000D01*
X128869285Y-34754428D01*
X128940714Y-34897285D01*
X128940714Y-35040142D01*
X128869285Y-35254428D01*
X128012142Y-36111571D01*
X128940714Y-36111571D01*
X130440714Y-35968714D02*
X130369285Y-36040142D01*
X130155000Y-36111571D01*
X130012142Y-36111571D01*
X129797857Y-36040142D01*
X129655000Y-35897285D01*
X129583571Y-35754428D01*
X129512142Y-35468714D01*
X129512142Y-35254428D01*
X129583571Y-34968714D01*
X129655000Y-34825857D01*
X129797857Y-34683000D01*
X130012142Y-34611571D01*
X130155000Y-34611571D01*
X130369285Y-34683000D01*
X130440714Y-34754428D01*
X147427142Y-40107857D02*
X147427142Y-38965000D01*
X147998571Y-39536428D02*
X146855714Y-39536428D01*
X146498571Y-38393571D02*
X146498571Y-37465000D01*
X147070000Y-37965000D01*
X147070000Y-37750714D01*
X147141428Y-37607857D01*
X147212857Y-37536428D01*
X147355714Y-37465000D01*
X147712857Y-37465000D01*
X147855714Y-37536428D01*
X147927142Y-37607857D01*
X147998571Y-37750714D01*
X147998571Y-38179285D01*
X147927142Y-38322142D01*
X147855714Y-38393571D01*
X146498571Y-37036428D02*
X147998571Y-36536428D01*
X146498571Y-36036428D01*
X146498571Y-35679285D02*
X146498571Y-34750714D01*
X147070000Y-35250714D01*
X147070000Y-35036428D01*
X147141428Y-34893571D01*
X147212857Y-34822142D01*
X147355714Y-34750714D01*
X147712857Y-34750714D01*
X147855714Y-34822142D01*
X147927142Y-34893571D01*
X147998571Y-35036428D01*
X147998571Y-35465000D01*
X147927142Y-35607857D01*
X147855714Y-35679285D01*
X149110000Y-37972857D02*
X149038571Y-38115714D01*
X149038571Y-38330000D01*
X149110000Y-38544285D01*
X149252857Y-38687142D01*
X149395714Y-38758571D01*
X149681428Y-38830000D01*
X149895714Y-38830000D01*
X150181428Y-38758571D01*
X150324285Y-38687142D01*
X150467142Y-38544285D01*
X150538571Y-38330000D01*
X150538571Y-38187142D01*
X150467142Y-37972857D01*
X150395714Y-37901428D01*
X149895714Y-37901428D01*
X149895714Y-38187142D01*
X150538571Y-37258571D02*
X149038571Y-37258571D01*
X150538571Y-36401428D01*
X149038571Y-36401428D01*
X150538571Y-35687142D02*
X149038571Y-35687142D01*
X149038571Y-35330000D01*
X149110000Y-35115714D01*
X149252857Y-34972857D01*
X149395714Y-34901428D01*
X149681428Y-34830000D01*
X149895714Y-34830000D01*
X150181428Y-34901428D01*
X150324285Y-34972857D01*
X150467142Y-35115714D01*
X150538571Y-35330000D01*
X150538571Y-35687142D01*
X166576428Y-30928571D02*
X167433571Y-30928571D01*
X167005000Y-32428571D02*
X167005000Y-30928571D01*
X156642857Y-32555571D02*
X156642857Y-31055571D01*
X157214285Y-31055571D01*
X157357142Y-31127000D01*
X157428571Y-31198428D01*
X157500000Y-31341285D01*
X157500000Y-31555571D01*
X157428571Y-31698428D01*
X157357142Y-31769857D01*
X157214285Y-31841285D01*
X156642857Y-31841285D01*
X158000000Y-31055571D02*
X158357142Y-32555571D01*
X158642857Y-31484142D01*
X158928571Y-32555571D01*
X159285714Y-31055571D01*
X159857142Y-32555571D02*
X159857142Y-31055571D01*
X160357142Y-32127000D01*
X160857142Y-31055571D01*
X160857142Y-32555571D01*
D11*
G04 #@! TO.C,U1*
X135940800Y-61849000D02*
X144272000Y-61849000D01*
X135178800Y-74549000D02*
X135178800Y-62611000D01*
X144272000Y-74549000D02*
X144272000Y-61849000D01*
X135178800Y-74549000D02*
X144272000Y-74549000D01*
X135178800Y-62611000D02*
X135940800Y-61849000D01*
G04 #@! TO.C,REF\002A\002A*
X167848283Y-71120000D02*
G75*
G03X167848283Y-71120000I-4018283J0D01*
G01*
D12*
G04 #@! TO.C,R15*
X140492267Y-48516000D02*
X140149733Y-48516000D01*
X140492267Y-47496000D02*
X140149733Y-47496000D01*
G04 #@! TO.C,C13*
X140492267Y-46738000D02*
X140149733Y-46738000D01*
X140492267Y-45718000D02*
X140149733Y-45718000D01*
D11*
G04 #@! TO.C,Y2*
X143573500Y-49085500D02*
X139763500Y-49085500D01*
X143573500Y-49085500D02*
X143573500Y-57086500D01*
X139763500Y-49085500D02*
X139763500Y-57086500D01*
X143573500Y-57086500D02*
X139763500Y-57086500D01*
D12*
G04 #@! TO.C,R1*
X123921733Y-70614000D02*
X124264267Y-70614000D01*
X123921733Y-69594000D02*
X124264267Y-69594000D01*
G04 #@! TO.C,R2*
X123921733Y-71626000D02*
X124264267Y-71626000D01*
X123921733Y-72646000D02*
X124264267Y-72646000D01*
G04 #@! TO.C,C2*
X120454267Y-72646000D02*
X120111733Y-72646000D01*
X120454267Y-71626000D02*
X120111733Y-71626000D01*
G04 #@! TO.C,C1*
X120454267Y-69594000D02*
X120111733Y-69594000D01*
X120454267Y-70614000D02*
X120111733Y-70614000D01*
G04 #@! TO.C,R9*
X149321733Y-56390000D02*
X149664267Y-56390000D01*
X149321733Y-55370000D02*
X149664267Y-55370000D01*
G04 #@! TO.C,J1*
X160768000Y-49614000D02*
X160268000Y-50114000D01*
X159768000Y-49614000D02*
X160768000Y-49614000D01*
X160268000Y-50114000D02*
X159768000Y-49614000D01*
X151953000Y-66994000D02*
X157628000Y-66994000D01*
X151953000Y-50354000D02*
X157628000Y-50354000D01*
X151953000Y-50354000D02*
X151953000Y-66994000D01*
X167833000Y-66994000D02*
X160128000Y-66994000D01*
X167833000Y-50354000D02*
X160128000Y-50354000D01*
X167833000Y-50354000D02*
X167833000Y-66994000D01*
G04 #@! TO.C,R7*
X149664267Y-54358000D02*
X149321733Y-54358000D01*
X149664267Y-53338000D02*
X149321733Y-53338000D01*
G04 #@! TO.C,R8*
X149321733Y-60454000D02*
X149664267Y-60454000D01*
X149321733Y-59434000D02*
X149664267Y-59434000D01*
G04 #@! TO.C,R16*
X149664267Y-62486000D02*
X149321733Y-62486000D01*
X149664267Y-61466000D02*
X149321733Y-61466000D01*
G04 #@! TO.C,R10*
X149321733Y-57402000D02*
X149664267Y-57402000D01*
X149321733Y-58422000D02*
X149664267Y-58422000D01*
G04 #@! TO.C,R13*
X153160000Y-70388267D02*
X153160000Y-70045733D01*
X154180000Y-70388267D02*
X154180000Y-70045733D01*
G04 #@! TO.C,R17*
X149664267Y-51306000D02*
X149321733Y-51306000D01*
X149664267Y-52326000D02*
X149321733Y-52326000D01*
G04 #@! TO.C,C8*
X150624000Y-70045733D02*
X150624000Y-70388267D01*
X149604000Y-70045733D02*
X149604000Y-70388267D01*
G04 #@! TO.C,C10*
X152402000Y-70388267D02*
X152402000Y-70045733D01*
X151382000Y-70388267D02*
X151382000Y-70045733D01*
D11*
G04 #@! TO.C,U2*
X115653728Y-52578000D02*
X116007282Y-52931553D01*
X125730000Y-42501728D02*
X126143657Y-42915386D01*
X135806272Y-52578000D02*
X135392614Y-52164343D01*
X125730000Y-62654272D02*
X125316343Y-62240614D01*
X115653728Y-52578000D02*
X116067386Y-52164343D01*
X125730000Y-62654272D02*
X126143657Y-62240614D01*
X135806272Y-52578000D02*
X135392614Y-52991657D01*
X125730000Y-42501728D02*
X125316343Y-42915386D01*
X116007282Y-52931553D02*
X115247142Y-53691693D01*
G04 #@! TO.C,Conn1*
X119354600Y-30556200D02*
X119354600Y-29286200D01*
X119354600Y-29286200D02*
X116814600Y-29286200D01*
X116814600Y-29286200D02*
X116814600Y-30556200D01*
X124587000Y-35687000D02*
X124587000Y-30607000D01*
X124587000Y-30607000D02*
X111887000Y-30607000D01*
X124537000Y-35707000D02*
X111887000Y-35707000D01*
X111887000Y-30607000D02*
X111887000Y-35707000D01*
G04 #@! TO.C,Y1*
X134441800Y-36641400D02*
X131241800Y-36641400D01*
X131241800Y-39141400D02*
X131241800Y-36641400D01*
X134442200Y-39141400D02*
X131242200Y-39141400D01*
X134442200Y-39141400D02*
X134442200Y-36641400D01*
D12*
G04 #@! TO.C,C3*
X128074267Y-69594000D02*
X127731733Y-69594000D01*
X128074267Y-70614000D02*
X127731733Y-70614000D01*
G04 #@! TO.C,C4*
X128074267Y-72646000D02*
X127731733Y-72646000D01*
X128074267Y-71626000D02*
X127731733Y-71626000D01*
G04 #@! TO.C,C5*
X146048000Y-47274267D02*
X146048000Y-46931733D01*
X147068000Y-47274267D02*
X147068000Y-46931733D01*
G04 #@! TO.C,C6*
X133013267Y-39876000D02*
X132670733Y-39876000D01*
X133013267Y-40896000D02*
X132670733Y-40896000D01*
G04 #@! TO.C,C7*
X145826267Y-52326000D02*
X145483733Y-52326000D01*
X145826267Y-51306000D02*
X145483733Y-51306000D01*
G04 #@! TO.C,C9*
X145854267Y-53084000D02*
X145511733Y-53084000D01*
X145854267Y-54104000D02*
X145511733Y-54104000D01*
G04 #@! TO.C,C11*
X118968238Y-42281011D02*
X119210447Y-42038802D01*
X118246989Y-41559762D02*
X118489198Y-41317553D01*
G04 #@! TO.C,C12*
X119516989Y-42829762D02*
X119759198Y-42587553D01*
X120238238Y-43551011D02*
X120480447Y-43308802D01*
G04 #@! TO.C,C14*
X132670732Y-41654000D02*
X133013268Y-41654000D01*
X132670732Y-42674000D02*
X133013268Y-42674000D01*
G04 #@! TO.C,C15*
X123274447Y-63625198D02*
X123032238Y-63382989D01*
X122553198Y-64346447D02*
X122310989Y-64104238D01*
G04 #@! TO.C,C16*
X117698238Y-41011011D02*
X117940447Y-40768802D01*
X116976989Y-40289762D02*
X117219198Y-40047553D01*
G04 #@! TO.C,C17*
X125220000Y-40190267D02*
X125220000Y-39847733D01*
X126240000Y-40190267D02*
X126240000Y-39847733D01*
G04 #@! TO.C,C18*
X137609733Y-51814000D02*
X137952267Y-51814000D01*
X137609733Y-52834000D02*
X137952267Y-52834000D01*
G04 #@! TO.C,R3*
X131541733Y-70614000D02*
X131884267Y-70614000D01*
X131541733Y-69594000D02*
X131884267Y-69594000D01*
G04 #@! TO.C,R4*
X131541733Y-71626000D02*
X131884267Y-71626000D01*
X131541733Y-72646000D02*
X131884267Y-72646000D01*
G04 #@! TO.C,R5*
X145483733Y-43940000D02*
X145826267Y-43940000D01*
X145483733Y-44960000D02*
X145826267Y-44960000D01*
G04 #@! TO.C,R6*
X145290000Y-46931733D02*
X145290000Y-47274267D01*
X144270000Y-46931733D02*
X144270000Y-47274267D01*
G04 #@! TO.C,R11*
X132670733Y-35816000D02*
X133013267Y-35816000D01*
X132670733Y-34796000D02*
X133013267Y-34796000D01*
G04 #@! TO.C,R12*
X140210000Y-59466267D02*
X140210000Y-59123733D01*
X139190000Y-59466267D02*
X139190000Y-59123733D01*
G04 #@! TO.C,R14*
X140968000Y-59466267D02*
X140968000Y-59123733D01*
X141988000Y-59466267D02*
X141988000Y-59123733D01*
G04 #@! TO.C,SW1*
X155576000Y-44920000D02*
X155576000Y-46980000D01*
X150836000Y-44920000D02*
X150836000Y-46980000D01*
X150836000Y-43580000D02*
X150836000Y-43980000D01*
X155576000Y-43580000D02*
X150836000Y-43580000D01*
X155576000Y-43580000D02*
X155576000Y-43980000D01*
X150836000Y-48320000D02*
X150836000Y-47920000D01*
X155576000Y-48320000D02*
X155576000Y-47920000D01*
X155576000Y-48320000D02*
X150836000Y-48320000D01*
G04 #@! TO.C,C19*
X135126000Y-38130267D02*
X135126000Y-37787733D01*
X136146000Y-38130267D02*
X136146000Y-37787733D01*
G04 #@! TO.C,U1*
D11*
X144526095Y-73366380D02*
X144526095Y-74175904D01*
X144573714Y-74271142D01*
X144621333Y-74318761D01*
X144716571Y-74366380D01*
X144907047Y-74366380D01*
X145002285Y-74318761D01*
X145049904Y-74271142D01*
X145097523Y-74175904D01*
X145097523Y-73366380D01*
X146097523Y-74366380D02*
X145526095Y-74366380D01*
X145811809Y-74366380D02*
X145811809Y-73366380D01*
X145716571Y-73509238D01*
X145621333Y-73604476D01*
X145526095Y-73652095D01*
G04 #@! TO.C,R15*
X136517142Y-48585380D02*
X136183809Y-48109190D01*
X135945714Y-48585380D02*
X135945714Y-47585380D01*
X136326666Y-47585380D01*
X136421904Y-47633000D01*
X136469523Y-47680619D01*
X136517142Y-47775857D01*
X136517142Y-47918714D01*
X136469523Y-48013952D01*
X136421904Y-48061571D01*
X136326666Y-48109190D01*
X135945714Y-48109190D01*
X137469523Y-48585380D02*
X136898095Y-48585380D01*
X137183809Y-48585380D02*
X137183809Y-47585380D01*
X137088571Y-47728238D01*
X136993333Y-47823476D01*
X136898095Y-47871095D01*
X138374285Y-47585380D02*
X137898095Y-47585380D01*
X137850476Y-48061571D01*
X137898095Y-48013952D01*
X137993333Y-47966333D01*
X138231428Y-47966333D01*
X138326666Y-48013952D01*
X138374285Y-48061571D01*
X138421904Y-48156809D01*
X138421904Y-48394904D01*
X138374285Y-48490142D01*
X138326666Y-48537761D01*
X138231428Y-48585380D01*
X137993333Y-48585380D01*
X137898095Y-48537761D01*
X137850476Y-48490142D01*
G04 #@! TO.C,C13*
X136517142Y-46585142D02*
X136469523Y-46632761D01*
X136326666Y-46680380D01*
X136231428Y-46680380D01*
X136088571Y-46632761D01*
X135993333Y-46537523D01*
X135945714Y-46442285D01*
X135898095Y-46251809D01*
X135898095Y-46108952D01*
X135945714Y-45918476D01*
X135993333Y-45823238D01*
X136088571Y-45728000D01*
X136231428Y-45680380D01*
X136326666Y-45680380D01*
X136469523Y-45728000D01*
X136517142Y-45775619D01*
X137469523Y-46680380D02*
X136898095Y-46680380D01*
X137183809Y-46680380D02*
X137183809Y-45680380D01*
X137088571Y-45823238D01*
X136993333Y-45918476D01*
X136898095Y-45966095D01*
X137802857Y-45680380D02*
X138421904Y-45680380D01*
X138088571Y-46061333D01*
X138231428Y-46061333D01*
X138326666Y-46108952D01*
X138374285Y-46156571D01*
X138421904Y-46251809D01*
X138421904Y-46489904D01*
X138374285Y-46585142D01*
X138326666Y-46632761D01*
X138231428Y-46680380D01*
X137945714Y-46680380D01*
X137850476Y-46632761D01*
X137802857Y-46585142D01*
G04 #@! TO.C,Y2*
X137699809Y-56364190D02*
X137699809Y-56840380D01*
X137366476Y-55840380D02*
X137699809Y-56364190D01*
X138033142Y-55840380D01*
X138318857Y-55935619D02*
X138366476Y-55888000D01*
X138461714Y-55840380D01*
X138699809Y-55840380D01*
X138795047Y-55888000D01*
X138842666Y-55935619D01*
X138890285Y-56030857D01*
X138890285Y-56126095D01*
X138842666Y-56268952D01*
X138271238Y-56840380D01*
X138890285Y-56840380D01*
G04 #@! TO.C,R1*
X123926333Y-69126380D02*
X123593000Y-68650190D01*
X123354904Y-69126380D02*
X123354904Y-68126380D01*
X123735857Y-68126380D01*
X123831095Y-68174000D01*
X123878714Y-68221619D01*
X123926333Y-68316857D01*
X123926333Y-68459714D01*
X123878714Y-68554952D01*
X123831095Y-68602571D01*
X123735857Y-68650190D01*
X123354904Y-68650190D01*
X124878714Y-69126380D02*
X124307285Y-69126380D01*
X124593000Y-69126380D02*
X124593000Y-68126380D01*
X124497761Y-68269238D01*
X124402523Y-68364476D01*
X124307285Y-68412095D01*
G04 #@! TO.C,R2*
X123926333Y-74112380D02*
X123593000Y-73636190D01*
X123354904Y-74112380D02*
X123354904Y-73112380D01*
X123735857Y-73112380D01*
X123831095Y-73160000D01*
X123878714Y-73207619D01*
X123926333Y-73302857D01*
X123926333Y-73445714D01*
X123878714Y-73540952D01*
X123831095Y-73588571D01*
X123735857Y-73636190D01*
X123354904Y-73636190D01*
X124307285Y-73207619D02*
X124354904Y-73160000D01*
X124450142Y-73112380D01*
X124688238Y-73112380D01*
X124783476Y-73160000D01*
X124831095Y-73207619D01*
X124878714Y-73302857D01*
X124878714Y-73398095D01*
X124831095Y-73540952D01*
X124259666Y-74112380D01*
X124878714Y-74112380D01*
G04 #@! TO.C,C2*
X120116333Y-73923142D02*
X120068714Y-73970761D01*
X119925857Y-74018380D01*
X119830619Y-74018380D01*
X119687761Y-73970761D01*
X119592523Y-73875523D01*
X119544904Y-73780285D01*
X119497285Y-73589809D01*
X119497285Y-73446952D01*
X119544904Y-73256476D01*
X119592523Y-73161238D01*
X119687761Y-73066000D01*
X119830619Y-73018380D01*
X119925857Y-73018380D01*
X120068714Y-73066000D01*
X120116333Y-73113619D01*
X120497285Y-73113619D02*
X120544904Y-73066000D01*
X120640142Y-73018380D01*
X120878238Y-73018380D01*
X120973476Y-73066000D01*
X121021095Y-73113619D01*
X121068714Y-73208857D01*
X121068714Y-73304095D01*
X121021095Y-73446952D01*
X120449666Y-74018380D01*
X121068714Y-74018380D01*
G04 #@! TO.C,C1*
X120116333Y-68937142D02*
X120068714Y-68984761D01*
X119925857Y-69032380D01*
X119830619Y-69032380D01*
X119687761Y-68984761D01*
X119592523Y-68889523D01*
X119544904Y-68794285D01*
X119497285Y-68603809D01*
X119497285Y-68460952D01*
X119544904Y-68270476D01*
X119592523Y-68175238D01*
X119687761Y-68080000D01*
X119830619Y-68032380D01*
X119925857Y-68032380D01*
X120068714Y-68080000D01*
X120116333Y-68127619D01*
X121068714Y-69032380D02*
X120497285Y-69032380D01*
X120783000Y-69032380D02*
X120783000Y-68032380D01*
X120687761Y-68175238D01*
X120592523Y-68270476D01*
X120497285Y-68318095D01*
G04 #@! TO.C,R9*
X146899333Y-56840380D02*
X146566000Y-56364190D01*
X146327904Y-56840380D02*
X146327904Y-55840380D01*
X146708857Y-55840380D01*
X146804095Y-55888000D01*
X146851714Y-55935619D01*
X146899333Y-56030857D01*
X146899333Y-56173714D01*
X146851714Y-56268952D01*
X146804095Y-56316571D01*
X146708857Y-56364190D01*
X146327904Y-56364190D01*
X147375523Y-56840380D02*
X147566000Y-56840380D01*
X147661238Y-56792761D01*
X147708857Y-56745142D01*
X147804095Y-56602285D01*
X147851714Y-56411809D01*
X147851714Y-56030857D01*
X147804095Y-55935619D01*
X147756476Y-55888000D01*
X147661238Y-55840380D01*
X147470761Y-55840380D01*
X147375523Y-55888000D01*
X147327904Y-55935619D01*
X147280285Y-56030857D01*
X147280285Y-56268952D01*
X147327904Y-56364190D01*
X147375523Y-56411809D01*
X147470761Y-56459428D01*
X147661238Y-56459428D01*
X147756476Y-56411809D01*
X147804095Y-56364190D01*
X147851714Y-56268952D01*
G04 #@! TO.C,J1*
X152320666Y-67270380D02*
X152320666Y-67984666D01*
X152273047Y-68127523D01*
X152177809Y-68222761D01*
X152034952Y-68270380D01*
X151939714Y-68270380D01*
X153320666Y-68270380D02*
X152749238Y-68270380D01*
X153034952Y-68270380D02*
X153034952Y-67270380D01*
X152939714Y-67413238D01*
X152844476Y-67508476D01*
X152749238Y-67556095D01*
G04 #@! TO.C,R7*
X147153333Y-55316380D02*
X146820000Y-54840190D01*
X146581904Y-55316380D02*
X146581904Y-54316380D01*
X146962857Y-54316380D01*
X147058095Y-54364000D01*
X147105714Y-54411619D01*
X147153333Y-54506857D01*
X147153333Y-54649714D01*
X147105714Y-54744952D01*
X147058095Y-54792571D01*
X146962857Y-54840190D01*
X146581904Y-54840190D01*
X147486666Y-54316380D02*
X148153333Y-54316380D01*
X147724761Y-55316380D01*
G04 #@! TO.C,R8*
X146645333Y-60396380D02*
X146312000Y-59920190D01*
X146073904Y-60396380D02*
X146073904Y-59396380D01*
X146454857Y-59396380D01*
X146550095Y-59444000D01*
X146597714Y-59491619D01*
X146645333Y-59586857D01*
X146645333Y-59729714D01*
X146597714Y-59824952D01*
X146550095Y-59872571D01*
X146454857Y-59920190D01*
X146073904Y-59920190D01*
X147216761Y-59824952D02*
X147121523Y-59777333D01*
X147073904Y-59729714D01*
X147026285Y-59634476D01*
X147026285Y-59586857D01*
X147073904Y-59491619D01*
X147121523Y-59444000D01*
X147216761Y-59396380D01*
X147407238Y-59396380D01*
X147502476Y-59444000D01*
X147550095Y-59491619D01*
X147597714Y-59586857D01*
X147597714Y-59634476D01*
X147550095Y-59729714D01*
X147502476Y-59777333D01*
X147407238Y-59824952D01*
X147216761Y-59824952D01*
X147121523Y-59872571D01*
X147073904Y-59920190D01*
X147026285Y-60015428D01*
X147026285Y-60205904D01*
X147073904Y-60301142D01*
X147121523Y-60348761D01*
X147216761Y-60396380D01*
X147407238Y-60396380D01*
X147502476Y-60348761D01*
X147550095Y-60301142D01*
X147597714Y-60205904D01*
X147597714Y-60015428D01*
X147550095Y-59920190D01*
X147502476Y-59872571D01*
X147407238Y-59824952D01*
G04 #@! TO.C,R16*
X145915142Y-62682380D02*
X145581809Y-62206190D01*
X145343714Y-62682380D02*
X145343714Y-61682380D01*
X145724666Y-61682380D01*
X145819904Y-61730000D01*
X145867523Y-61777619D01*
X145915142Y-61872857D01*
X145915142Y-62015714D01*
X145867523Y-62110952D01*
X145819904Y-62158571D01*
X145724666Y-62206190D01*
X145343714Y-62206190D01*
X146867523Y-62682380D02*
X146296095Y-62682380D01*
X146581809Y-62682380D02*
X146581809Y-61682380D01*
X146486571Y-61825238D01*
X146391333Y-61920476D01*
X146296095Y-61968095D01*
X147724666Y-61682380D02*
X147534190Y-61682380D01*
X147438952Y-61730000D01*
X147391333Y-61777619D01*
X147296095Y-61920476D01*
X147248476Y-62110952D01*
X147248476Y-62491904D01*
X147296095Y-62587142D01*
X147343714Y-62634761D01*
X147438952Y-62682380D01*
X147629428Y-62682380D01*
X147724666Y-62634761D01*
X147772285Y-62587142D01*
X147819904Y-62491904D01*
X147819904Y-62253809D01*
X147772285Y-62158571D01*
X147724666Y-62110952D01*
X147629428Y-62063333D01*
X147438952Y-62063333D01*
X147343714Y-62110952D01*
X147296095Y-62158571D01*
X147248476Y-62253809D01*
G04 #@! TO.C,R10*
X145788142Y-58364380D02*
X145454809Y-57888190D01*
X145216714Y-58364380D02*
X145216714Y-57364380D01*
X145597666Y-57364380D01*
X145692904Y-57412000D01*
X145740523Y-57459619D01*
X145788142Y-57554857D01*
X145788142Y-57697714D01*
X145740523Y-57792952D01*
X145692904Y-57840571D01*
X145597666Y-57888190D01*
X145216714Y-57888190D01*
X146740523Y-58364380D02*
X146169095Y-58364380D01*
X146454809Y-58364380D02*
X146454809Y-57364380D01*
X146359571Y-57507238D01*
X146264333Y-57602476D01*
X146169095Y-57650095D01*
X147359571Y-57364380D02*
X147454809Y-57364380D01*
X147550047Y-57412000D01*
X147597666Y-57459619D01*
X147645285Y-57554857D01*
X147692904Y-57745333D01*
X147692904Y-57983428D01*
X147645285Y-58173904D01*
X147597666Y-58269142D01*
X147550047Y-58316761D01*
X147454809Y-58364380D01*
X147359571Y-58364380D01*
X147264333Y-58316761D01*
X147216714Y-58269142D01*
X147169095Y-58173904D01*
X147121476Y-57983428D01*
X147121476Y-57745333D01*
X147169095Y-57554857D01*
X147216714Y-57459619D01*
X147264333Y-57412000D01*
X147359571Y-57364380D01*
G04 #@! TO.C,R13*
X154122380Y-74048857D02*
X153646190Y-74382190D01*
X154122380Y-74620285D02*
X153122380Y-74620285D01*
X153122380Y-74239333D01*
X153170000Y-74144095D01*
X153217619Y-74096476D01*
X153312857Y-74048857D01*
X153455714Y-74048857D01*
X153550952Y-74096476D01*
X153598571Y-74144095D01*
X153646190Y-74239333D01*
X153646190Y-74620285D01*
X154122380Y-73096476D02*
X154122380Y-73667904D01*
X154122380Y-73382190D02*
X153122380Y-73382190D01*
X153265238Y-73477428D01*
X153360476Y-73572666D01*
X153408095Y-73667904D01*
X153122380Y-72763142D02*
X153122380Y-72144095D01*
X153503333Y-72477428D01*
X153503333Y-72334571D01*
X153550952Y-72239333D01*
X153598571Y-72191714D01*
X153693809Y-72144095D01*
X153931904Y-72144095D01*
X154027142Y-72191714D01*
X154074761Y-72239333D01*
X154122380Y-72334571D01*
X154122380Y-72620285D01*
X154074761Y-72715523D01*
X154027142Y-72763142D01*
G04 #@! TO.C,R17*
X148709142Y-50998380D02*
X148375809Y-50522190D01*
X148137714Y-50998380D02*
X148137714Y-49998380D01*
X148518666Y-49998380D01*
X148613904Y-50046000D01*
X148661523Y-50093619D01*
X148709142Y-50188857D01*
X148709142Y-50331714D01*
X148661523Y-50426952D01*
X148613904Y-50474571D01*
X148518666Y-50522190D01*
X148137714Y-50522190D01*
X149661523Y-50998380D02*
X149090095Y-50998380D01*
X149375809Y-50998380D02*
X149375809Y-49998380D01*
X149280571Y-50141238D01*
X149185333Y-50236476D01*
X149090095Y-50284095D01*
X149994857Y-49998380D02*
X150661523Y-49998380D01*
X150232952Y-50998380D01*
G04 #@! TO.C,C8*
X150471142Y-73001166D02*
X150518761Y-73048785D01*
X150566380Y-73191642D01*
X150566380Y-73286880D01*
X150518761Y-73429738D01*
X150423523Y-73524976D01*
X150328285Y-73572595D01*
X150137809Y-73620214D01*
X149994952Y-73620214D01*
X149804476Y-73572595D01*
X149709238Y-73524976D01*
X149614000Y-73429738D01*
X149566380Y-73286880D01*
X149566380Y-73191642D01*
X149614000Y-73048785D01*
X149661619Y-73001166D01*
X149994952Y-72429738D02*
X149947333Y-72524976D01*
X149899714Y-72572595D01*
X149804476Y-72620214D01*
X149756857Y-72620214D01*
X149661619Y-72572595D01*
X149614000Y-72524976D01*
X149566380Y-72429738D01*
X149566380Y-72239261D01*
X149614000Y-72144023D01*
X149661619Y-72096404D01*
X149756857Y-72048785D01*
X149804476Y-72048785D01*
X149899714Y-72096404D01*
X149947333Y-72144023D01*
X149994952Y-72239261D01*
X149994952Y-72429738D01*
X150042571Y-72524976D01*
X150090190Y-72572595D01*
X150185428Y-72620214D01*
X150375904Y-72620214D01*
X150471142Y-72572595D01*
X150518761Y-72524976D01*
X150566380Y-72429738D01*
X150566380Y-72239261D01*
X150518761Y-72144023D01*
X150471142Y-72096404D01*
X150375904Y-72048785D01*
X150185428Y-72048785D01*
X150090190Y-72096404D01*
X150042571Y-72144023D01*
X149994952Y-72239261D01*
G04 #@! TO.C,C10*
X152249142Y-73985357D02*
X152296761Y-74032976D01*
X152344380Y-74175833D01*
X152344380Y-74271071D01*
X152296761Y-74413928D01*
X152201523Y-74509166D01*
X152106285Y-74556785D01*
X151915809Y-74604404D01*
X151772952Y-74604404D01*
X151582476Y-74556785D01*
X151487238Y-74509166D01*
X151392000Y-74413928D01*
X151344380Y-74271071D01*
X151344380Y-74175833D01*
X151392000Y-74032976D01*
X151439619Y-73985357D01*
X152344380Y-73032976D02*
X152344380Y-73604404D01*
X152344380Y-73318690D02*
X151344380Y-73318690D01*
X151487238Y-73413928D01*
X151582476Y-73509166D01*
X151630095Y-73604404D01*
X151344380Y-72413928D02*
X151344380Y-72318690D01*
X151392000Y-72223452D01*
X151439619Y-72175833D01*
X151534857Y-72128214D01*
X151725333Y-72080595D01*
X151963428Y-72080595D01*
X152153904Y-72128214D01*
X152249142Y-72175833D01*
X152296761Y-72223452D01*
X152344380Y-72318690D01*
X152344380Y-72413928D01*
X152296761Y-72509166D01*
X152249142Y-72556785D01*
X152153904Y-72604404D01*
X151963428Y-72652023D01*
X151725333Y-72652023D01*
X151534857Y-72604404D01*
X151439619Y-72556785D01*
X151392000Y-72509166D01*
X151344380Y-72413928D01*
G04 #@! TO.C,U2*
X126594477Y-62828026D02*
X126022057Y-63400446D01*
X125988385Y-63501461D01*
X125988385Y-63568805D01*
X126022057Y-63669820D01*
X126156744Y-63804507D01*
X126257759Y-63838179D01*
X126325103Y-63838179D01*
X126426118Y-63804507D01*
X126998538Y-63232087D01*
X127234240Y-63602477D02*
X127301583Y-63602477D01*
X127402599Y-63636148D01*
X127570957Y-63804507D01*
X127604629Y-63905522D01*
X127604629Y-63972866D01*
X127570957Y-64073881D01*
X127503614Y-64141225D01*
X127368927Y-64208568D01*
X126560805Y-64208568D01*
X126998538Y-64646301D01*
G04 #@! TO.C,Y1*
X129571809Y-37060190D02*
X129571809Y-37536380D01*
X129238476Y-36536380D02*
X129571809Y-37060190D01*
X129905142Y-36536380D01*
X130762285Y-37536380D02*
X130190857Y-37536380D01*
X130476571Y-37536380D02*
X130476571Y-36536380D01*
X130381333Y-36679238D01*
X130286095Y-36774476D01*
X130190857Y-36822095D01*
G04 #@! TO.C,C3*
X127736333Y-68937142D02*
X127688714Y-68984761D01*
X127545857Y-69032380D01*
X127450619Y-69032380D01*
X127307761Y-68984761D01*
X127212523Y-68889523D01*
X127164904Y-68794285D01*
X127117285Y-68603809D01*
X127117285Y-68460952D01*
X127164904Y-68270476D01*
X127212523Y-68175238D01*
X127307761Y-68080000D01*
X127450619Y-68032380D01*
X127545857Y-68032380D01*
X127688714Y-68080000D01*
X127736333Y-68127619D01*
X128069666Y-68032380D02*
X128688714Y-68032380D01*
X128355380Y-68413333D01*
X128498238Y-68413333D01*
X128593476Y-68460952D01*
X128641095Y-68508571D01*
X128688714Y-68603809D01*
X128688714Y-68841904D01*
X128641095Y-68937142D01*
X128593476Y-68984761D01*
X128498238Y-69032380D01*
X128212523Y-69032380D01*
X128117285Y-68984761D01*
X128069666Y-68937142D01*
G04 #@! TO.C,C4*
X127736333Y-73923142D02*
X127688714Y-73970761D01*
X127545857Y-74018380D01*
X127450619Y-74018380D01*
X127307761Y-73970761D01*
X127212523Y-73875523D01*
X127164904Y-73780285D01*
X127117285Y-73589809D01*
X127117285Y-73446952D01*
X127164904Y-73256476D01*
X127212523Y-73161238D01*
X127307761Y-73066000D01*
X127450619Y-73018380D01*
X127545857Y-73018380D01*
X127688714Y-73066000D01*
X127736333Y-73113619D01*
X128593476Y-73351714D02*
X128593476Y-74018380D01*
X128355380Y-72970761D02*
X128117285Y-73685047D01*
X128736333Y-73685047D01*
G04 #@! TO.C,C5*
X148312142Y-47269666D02*
X148359761Y-47317285D01*
X148407380Y-47460142D01*
X148407380Y-47555380D01*
X148359761Y-47698238D01*
X148264523Y-47793476D01*
X148169285Y-47841095D01*
X147978809Y-47888714D01*
X147835952Y-47888714D01*
X147645476Y-47841095D01*
X147550238Y-47793476D01*
X147455000Y-47698238D01*
X147407380Y-47555380D01*
X147407380Y-47460142D01*
X147455000Y-47317285D01*
X147502619Y-47269666D01*
X147407380Y-46364904D02*
X147407380Y-46841095D01*
X147883571Y-46888714D01*
X147835952Y-46841095D01*
X147788333Y-46745857D01*
X147788333Y-46507761D01*
X147835952Y-46412523D01*
X147883571Y-46364904D01*
X147978809Y-46317285D01*
X148216904Y-46317285D01*
X148312142Y-46364904D01*
X148359761Y-46412523D01*
X148407380Y-46507761D01*
X148407380Y-46745857D01*
X148359761Y-46841095D01*
X148312142Y-46888714D01*
G04 #@! TO.C,C6*
X135469333Y-40743142D02*
X135421714Y-40790761D01*
X135278857Y-40838380D01*
X135183619Y-40838380D01*
X135040761Y-40790761D01*
X134945523Y-40695523D01*
X134897904Y-40600285D01*
X134850285Y-40409809D01*
X134850285Y-40266952D01*
X134897904Y-40076476D01*
X134945523Y-39981238D01*
X135040761Y-39886000D01*
X135183619Y-39838380D01*
X135278857Y-39838380D01*
X135421714Y-39886000D01*
X135469333Y-39933619D01*
X136326476Y-39838380D02*
X136136000Y-39838380D01*
X136040761Y-39886000D01*
X135993142Y-39933619D01*
X135897904Y-40076476D01*
X135850285Y-40266952D01*
X135850285Y-40647904D01*
X135897904Y-40743142D01*
X135945523Y-40790761D01*
X136040761Y-40838380D01*
X136231238Y-40838380D01*
X136326476Y-40790761D01*
X136374095Y-40743142D01*
X136421714Y-40647904D01*
X136421714Y-40409809D01*
X136374095Y-40314571D01*
X136326476Y-40266952D01*
X136231238Y-40219333D01*
X136040761Y-40219333D01*
X135945523Y-40266952D01*
X135897904Y-40314571D01*
X135850285Y-40409809D01*
G04 #@! TO.C,C7*
X145121333Y-50649142D02*
X145073714Y-50696761D01*
X144930857Y-50744380D01*
X144835619Y-50744380D01*
X144692761Y-50696761D01*
X144597523Y-50601523D01*
X144549904Y-50506285D01*
X144502285Y-50315809D01*
X144502285Y-50172952D01*
X144549904Y-49982476D01*
X144597523Y-49887238D01*
X144692761Y-49792000D01*
X144835619Y-49744380D01*
X144930857Y-49744380D01*
X145073714Y-49792000D01*
X145121333Y-49839619D01*
X145454666Y-49744380D02*
X146121333Y-49744380D01*
X145692761Y-50744380D01*
G04 #@! TO.C,C9*
X144867333Y-55221142D02*
X144819714Y-55268761D01*
X144676857Y-55316380D01*
X144581619Y-55316380D01*
X144438761Y-55268761D01*
X144343523Y-55173523D01*
X144295904Y-55078285D01*
X144248285Y-54887809D01*
X144248285Y-54744952D01*
X144295904Y-54554476D01*
X144343523Y-54459238D01*
X144438761Y-54364000D01*
X144581619Y-54316380D01*
X144676857Y-54316380D01*
X144819714Y-54364000D01*
X144867333Y-54411619D01*
X145343523Y-55316380D02*
X145534000Y-55316380D01*
X145629238Y-55268761D01*
X145676857Y-55221142D01*
X145772095Y-55078285D01*
X145819714Y-54887809D01*
X145819714Y-54506857D01*
X145772095Y-54411619D01*
X145724476Y-54364000D01*
X145629238Y-54316380D01*
X145438761Y-54316380D01*
X145343523Y-54364000D01*
X145295904Y-54411619D01*
X145248285Y-54506857D01*
X145248285Y-54744952D01*
X145295904Y-54840190D01*
X145343523Y-54887809D01*
X145438761Y-54935428D01*
X145629238Y-54935428D01*
X145724476Y-54887809D01*
X145772095Y-54840190D01*
X145819714Y-54744952D01*
G04 #@! TO.C,C11*
X120701969Y-40331106D02*
X120701969Y-40398450D01*
X120634625Y-40533137D01*
X120567282Y-40600480D01*
X120432595Y-40667824D01*
X120297908Y-40667824D01*
X120196893Y-40634152D01*
X120028534Y-40533137D01*
X119927519Y-40432122D01*
X119826503Y-40263763D01*
X119792832Y-40162748D01*
X119792832Y-40028061D01*
X119860175Y-39893374D01*
X119927519Y-39826030D01*
X120062206Y-39758687D01*
X120129549Y-39758687D01*
X121442748Y-39725015D02*
X121038687Y-40129076D01*
X121240717Y-39927045D02*
X120533610Y-39219938D01*
X120567282Y-39388297D01*
X120567282Y-39522984D01*
X120533610Y-39624000D01*
X122116183Y-39051580D02*
X121712122Y-39455641D01*
X121914152Y-39253610D02*
X121207045Y-38546503D01*
X121240717Y-38714862D01*
X121240717Y-38849549D01*
X121207045Y-38950564D01*
G04 #@! TO.C,C12*
X121971969Y-41601106D02*
X121971969Y-41668450D01*
X121904625Y-41803137D01*
X121837282Y-41870480D01*
X121702595Y-41937824D01*
X121567908Y-41937824D01*
X121466893Y-41904152D01*
X121298534Y-41803137D01*
X121197519Y-41702122D01*
X121096503Y-41533763D01*
X121062832Y-41432748D01*
X121062832Y-41298061D01*
X121130175Y-41163374D01*
X121197519Y-41096030D01*
X121332206Y-41028687D01*
X121399549Y-41028687D01*
X122712748Y-40995015D02*
X122308687Y-41399076D01*
X122510717Y-41197045D02*
X121803610Y-40489938D01*
X121837282Y-40658297D01*
X121837282Y-40792984D01*
X121803610Y-40894000D01*
X122342358Y-40085877D02*
X122342358Y-40018534D01*
X122376030Y-39917519D01*
X122544389Y-39749160D01*
X122645404Y-39715488D01*
X122712748Y-39715488D01*
X122813763Y-39749160D01*
X122881106Y-39816503D01*
X122948450Y-39951190D01*
X122948450Y-40759312D01*
X123386183Y-40321580D01*
G04 #@! TO.C,C14*
X135501142Y-42521142D02*
X135453523Y-42568761D01*
X135310666Y-42616380D01*
X135215428Y-42616380D01*
X135072571Y-42568761D01*
X134977333Y-42473523D01*
X134929714Y-42378285D01*
X134882095Y-42187809D01*
X134882095Y-42044952D01*
X134929714Y-41854476D01*
X134977333Y-41759238D01*
X135072571Y-41664000D01*
X135215428Y-41616380D01*
X135310666Y-41616380D01*
X135453523Y-41664000D01*
X135501142Y-41711619D01*
X136453523Y-42616380D02*
X135882095Y-42616380D01*
X136167809Y-42616380D02*
X136167809Y-41616380D01*
X136072571Y-41759238D01*
X135977333Y-41854476D01*
X135882095Y-41902095D01*
X137310666Y-41949714D02*
X137310666Y-42616380D01*
X137072571Y-41568761D02*
X136834476Y-42283047D01*
X137453523Y-42283047D01*
G04 #@! TO.C,C15*
X121074448Y-64673850D02*
X121007104Y-64673850D01*
X120872417Y-64606506D01*
X120805074Y-64539163D01*
X120737730Y-64404476D01*
X120737730Y-64269789D01*
X120771402Y-64168774D01*
X120872417Y-64000415D01*
X120973432Y-63899400D01*
X121141791Y-63798384D01*
X121242806Y-63764713D01*
X121377493Y-63764713D01*
X121512180Y-63832056D01*
X121579524Y-63899400D01*
X121646867Y-64034087D01*
X121646867Y-64101430D01*
X121680539Y-65414629D02*
X121276478Y-65010568D01*
X121478509Y-65212598D02*
X122185616Y-64505491D01*
X122017257Y-64539163D01*
X121882570Y-64539163D01*
X121781555Y-64505491D01*
X123027409Y-65347285D02*
X122690692Y-65010568D01*
X122320303Y-65313613D01*
X122387646Y-65313613D01*
X122488661Y-65347285D01*
X122657020Y-65515644D01*
X122690692Y-65616659D01*
X122690692Y-65684003D01*
X122657020Y-65785018D01*
X122488661Y-65953377D01*
X122387646Y-65987048D01*
X122320303Y-65987048D01*
X122219287Y-65953377D01*
X122050929Y-65785018D01*
X122017257Y-65684003D01*
X122017257Y-65616659D01*
G04 #@! TO.C,C16*
X119431969Y-39061106D02*
X119431969Y-39128450D01*
X119364625Y-39263137D01*
X119297282Y-39330480D01*
X119162595Y-39397824D01*
X119027908Y-39397824D01*
X118926893Y-39364152D01*
X118758534Y-39263137D01*
X118657519Y-39162122D01*
X118556503Y-38993763D01*
X118522832Y-38892748D01*
X118522832Y-38758061D01*
X118590175Y-38623374D01*
X118657519Y-38556030D01*
X118792206Y-38488687D01*
X118859549Y-38488687D01*
X120172748Y-38455015D02*
X119768687Y-38859076D01*
X119970717Y-38657045D02*
X119263610Y-37949938D01*
X119297282Y-38118297D01*
X119297282Y-38252984D01*
X119263610Y-38354000D01*
X120071732Y-37141816D02*
X119937045Y-37276503D01*
X119903374Y-37377519D01*
X119903374Y-37444862D01*
X119937045Y-37613221D01*
X120038061Y-37781580D01*
X120307435Y-38050954D01*
X120408450Y-38084625D01*
X120475793Y-38084625D01*
X120576809Y-38050954D01*
X120711496Y-37916267D01*
X120745167Y-37815251D01*
X120745167Y-37747908D01*
X120711496Y-37646893D01*
X120543137Y-37478534D01*
X120442122Y-37444862D01*
X120374778Y-37444862D01*
X120273763Y-37478534D01*
X120139076Y-37613221D01*
X120105404Y-37714236D01*
X120105404Y-37781580D01*
X120139076Y-37882595D01*
G04 #@! TO.C,C17*
X124657142Y-40661857D02*
X124704761Y-40709476D01*
X124752380Y-40852333D01*
X124752380Y-40947571D01*
X124704761Y-41090428D01*
X124609523Y-41185666D01*
X124514285Y-41233285D01*
X124323809Y-41280904D01*
X124180952Y-41280904D01*
X123990476Y-41233285D01*
X123895238Y-41185666D01*
X123800000Y-41090428D01*
X123752380Y-40947571D01*
X123752380Y-40852333D01*
X123800000Y-40709476D01*
X123847619Y-40661857D01*
X124752380Y-39709476D02*
X124752380Y-40280904D01*
X124752380Y-39995190D02*
X123752380Y-39995190D01*
X123895238Y-40090428D01*
X123990476Y-40185666D01*
X124038095Y-40280904D01*
X123752380Y-39376142D02*
X123752380Y-38709476D01*
X124752380Y-39138047D01*
G04 #@! TO.C,C18*
X137138142Y-51251142D02*
X137090523Y-51298761D01*
X136947666Y-51346380D01*
X136852428Y-51346380D01*
X136709571Y-51298761D01*
X136614333Y-51203523D01*
X136566714Y-51108285D01*
X136519095Y-50917809D01*
X136519095Y-50774952D01*
X136566714Y-50584476D01*
X136614333Y-50489238D01*
X136709571Y-50394000D01*
X136852428Y-50346380D01*
X136947666Y-50346380D01*
X137090523Y-50394000D01*
X137138142Y-50441619D01*
X138090523Y-51346380D02*
X137519095Y-51346380D01*
X137804809Y-51346380D02*
X137804809Y-50346380D01*
X137709571Y-50489238D01*
X137614333Y-50584476D01*
X137519095Y-50632095D01*
X138661952Y-50774952D02*
X138566714Y-50727333D01*
X138519095Y-50679714D01*
X138471476Y-50584476D01*
X138471476Y-50536857D01*
X138519095Y-50441619D01*
X138566714Y-50394000D01*
X138661952Y-50346380D01*
X138852428Y-50346380D01*
X138947666Y-50394000D01*
X138995285Y-50441619D01*
X139042904Y-50536857D01*
X139042904Y-50584476D01*
X138995285Y-50679714D01*
X138947666Y-50727333D01*
X138852428Y-50774952D01*
X138661952Y-50774952D01*
X138566714Y-50822571D01*
X138519095Y-50870190D01*
X138471476Y-50965428D01*
X138471476Y-51155904D01*
X138519095Y-51251142D01*
X138566714Y-51298761D01*
X138661952Y-51346380D01*
X138852428Y-51346380D01*
X138947666Y-51298761D01*
X138995285Y-51251142D01*
X139042904Y-51155904D01*
X139042904Y-50965428D01*
X138995285Y-50870190D01*
X138947666Y-50822571D01*
X138852428Y-50774952D01*
G04 #@! TO.C,R3*
X131546333Y-69126380D02*
X131213000Y-68650190D01*
X130974904Y-69126380D02*
X130974904Y-68126380D01*
X131355857Y-68126380D01*
X131451095Y-68174000D01*
X131498714Y-68221619D01*
X131546333Y-68316857D01*
X131546333Y-68459714D01*
X131498714Y-68554952D01*
X131451095Y-68602571D01*
X131355857Y-68650190D01*
X130974904Y-68650190D01*
X131879666Y-68126380D02*
X132498714Y-68126380D01*
X132165380Y-68507333D01*
X132308238Y-68507333D01*
X132403476Y-68554952D01*
X132451095Y-68602571D01*
X132498714Y-68697809D01*
X132498714Y-68935904D01*
X132451095Y-69031142D01*
X132403476Y-69078761D01*
X132308238Y-69126380D01*
X132022523Y-69126380D01*
X131927285Y-69078761D01*
X131879666Y-69031142D01*
G04 #@! TO.C,R4*
X131659333Y-74112380D02*
X131326000Y-73636190D01*
X131087904Y-74112380D02*
X131087904Y-73112380D01*
X131468857Y-73112380D01*
X131564095Y-73160000D01*
X131611714Y-73207619D01*
X131659333Y-73302857D01*
X131659333Y-73445714D01*
X131611714Y-73540952D01*
X131564095Y-73588571D01*
X131468857Y-73636190D01*
X131087904Y-73636190D01*
X132516476Y-73445714D02*
X132516476Y-74112380D01*
X132278380Y-73064761D02*
X132040285Y-73779047D01*
X132659333Y-73779047D01*
G04 #@! TO.C,R5*
X145488333Y-43472380D02*
X145155000Y-42996190D01*
X144916904Y-43472380D02*
X144916904Y-42472380D01*
X145297857Y-42472380D01*
X145393095Y-42520000D01*
X145440714Y-42567619D01*
X145488333Y-42662857D01*
X145488333Y-42805714D01*
X145440714Y-42900952D01*
X145393095Y-42948571D01*
X145297857Y-42996190D01*
X144916904Y-42996190D01*
X146393095Y-42472380D02*
X145916904Y-42472380D01*
X145869285Y-42948571D01*
X145916904Y-42900952D01*
X146012142Y-42853333D01*
X146250238Y-42853333D01*
X146345476Y-42900952D01*
X146393095Y-42948571D01*
X146440714Y-43043809D01*
X146440714Y-43281904D01*
X146393095Y-43377142D01*
X146345476Y-43424761D01*
X146250238Y-43472380D01*
X146012142Y-43472380D01*
X145916904Y-43424761D01*
X145869285Y-43377142D01*
G04 #@! TO.C,R6*
X143962380Y-47156666D02*
X143486190Y-47490000D01*
X143962380Y-47728095D02*
X142962380Y-47728095D01*
X142962380Y-47347142D01*
X143010000Y-47251904D01*
X143057619Y-47204285D01*
X143152857Y-47156666D01*
X143295714Y-47156666D01*
X143390952Y-47204285D01*
X143438571Y-47251904D01*
X143486190Y-47347142D01*
X143486190Y-47728095D01*
X142962380Y-46299523D02*
X142962380Y-46490000D01*
X143010000Y-46585238D01*
X143057619Y-46632857D01*
X143200476Y-46728095D01*
X143390952Y-46775714D01*
X143771904Y-46775714D01*
X143867142Y-46728095D01*
X143914761Y-46680476D01*
X143962380Y-46585238D01*
X143962380Y-46394761D01*
X143914761Y-46299523D01*
X143867142Y-46251904D01*
X143771904Y-46204285D01*
X143533809Y-46204285D01*
X143438571Y-46251904D01*
X143390952Y-46299523D01*
X143343333Y-46394761D01*
X143343333Y-46585238D01*
X143390952Y-46680476D01*
X143438571Y-46728095D01*
X143533809Y-46775714D01*
G04 #@! TO.C,R11*
X135501142Y-35758380D02*
X135167809Y-35282190D01*
X134929714Y-35758380D02*
X134929714Y-34758380D01*
X135310666Y-34758380D01*
X135405904Y-34806000D01*
X135453523Y-34853619D01*
X135501142Y-34948857D01*
X135501142Y-35091714D01*
X135453523Y-35186952D01*
X135405904Y-35234571D01*
X135310666Y-35282190D01*
X134929714Y-35282190D01*
X136453523Y-35758380D02*
X135882095Y-35758380D01*
X136167809Y-35758380D02*
X136167809Y-34758380D01*
X136072571Y-34901238D01*
X135977333Y-34996476D01*
X135882095Y-35044095D01*
X137405904Y-35758380D02*
X136834476Y-35758380D01*
X137120190Y-35758380D02*
X137120190Y-34758380D01*
X137024952Y-34901238D01*
X136929714Y-34996476D01*
X136834476Y-35044095D01*
G04 #@! TO.C,R12*
X138755380Y-60205857D02*
X138279190Y-60539190D01*
X138755380Y-60777285D02*
X137755380Y-60777285D01*
X137755380Y-60396333D01*
X137803000Y-60301095D01*
X137850619Y-60253476D01*
X137945857Y-60205857D01*
X138088714Y-60205857D01*
X138183952Y-60253476D01*
X138231571Y-60301095D01*
X138279190Y-60396333D01*
X138279190Y-60777285D01*
X138755380Y-59253476D02*
X138755380Y-59824904D01*
X138755380Y-59539190D02*
X137755380Y-59539190D01*
X137898238Y-59634428D01*
X137993476Y-59729666D01*
X138041095Y-59824904D01*
X137850619Y-58872523D02*
X137803000Y-58824904D01*
X137755380Y-58729666D01*
X137755380Y-58491571D01*
X137803000Y-58396333D01*
X137850619Y-58348714D01*
X137945857Y-58301095D01*
X138041095Y-58301095D01*
X138183952Y-58348714D01*
X138755380Y-58920142D01*
X138755380Y-58301095D01*
G04 #@! TO.C,R14*
X143327380Y-60205857D02*
X142851190Y-60539190D01*
X143327380Y-60777285D02*
X142327380Y-60777285D01*
X142327380Y-60396333D01*
X142375000Y-60301095D01*
X142422619Y-60253476D01*
X142517857Y-60205857D01*
X142660714Y-60205857D01*
X142755952Y-60253476D01*
X142803571Y-60301095D01*
X142851190Y-60396333D01*
X142851190Y-60777285D01*
X143327380Y-59253476D02*
X143327380Y-59824904D01*
X143327380Y-59539190D02*
X142327380Y-59539190D01*
X142470238Y-59634428D01*
X142565476Y-59729666D01*
X142613095Y-59824904D01*
X142660714Y-58396333D02*
X143327380Y-58396333D01*
X142279761Y-58634428D02*
X142994047Y-58872523D01*
X142994047Y-58253476D01*
G04 #@! TO.C,C19*
X137517142Y-38601857D02*
X137564761Y-38649476D01*
X137612380Y-38792333D01*
X137612380Y-38887571D01*
X137564761Y-39030428D01*
X137469523Y-39125666D01*
X137374285Y-39173285D01*
X137183809Y-39220904D01*
X137040952Y-39220904D01*
X136850476Y-39173285D01*
X136755238Y-39125666D01*
X136660000Y-39030428D01*
X136612380Y-38887571D01*
X136612380Y-38792333D01*
X136660000Y-38649476D01*
X136707619Y-38601857D01*
X137612380Y-37649476D02*
X137612380Y-38220904D01*
X137612380Y-37935190D02*
X136612380Y-37935190D01*
X136755238Y-38030428D01*
X136850476Y-38125666D01*
X136898095Y-38220904D01*
X137612380Y-37173285D02*
X137612380Y-36982809D01*
X137564761Y-36887571D01*
X137517142Y-36839952D01*
X137374285Y-36744714D01*
X137183809Y-36697095D01*
X136802857Y-36697095D01*
X136707619Y-36744714D01*
X136660000Y-36792333D01*
X136612380Y-36887571D01*
X136612380Y-37078047D01*
X136660000Y-37173285D01*
X136707619Y-37220904D01*
X136802857Y-37268523D01*
X137040952Y-37268523D01*
X137136190Y-37220904D01*
X137183809Y-37173285D01*
X137231428Y-37078047D01*
X137231428Y-36887571D01*
X137183809Y-36792333D01*
X137136190Y-36744714D01*
X137040952Y-36697095D01*
G04 #@! TD*
M02*
