G04 #@! TF.GenerationSoftware,KiCad,Pcbnew,(5.0.2)-1*
G04 #@! TF.CreationDate,2020-01-13T13:35:34-06:00*
G04 #@! TF.ProjectId,TM4C129-Breakout_Hardware,544d3443-3132-4392-9d42-7265616b6f75,rev?*
G04 #@! TF.SameCoordinates,Original*
G04 #@! TF.FileFunction,Paste,Top*
G04 #@! TF.FilePolarity,Positive*
%FSLAX46Y46*%
G04 Gerber Fmt 4.6, Leading zero omitted, Abs format (unit mm)*
G04 Created by KiCad (PCBNEW (5.0.2)-1) date 1/13/2020 1:35:34 PM*
%MOMM*%
%LPD*%
G01*
G04 APERTURE LIST*
%ADD10R,1.651000X0.762000*%
%ADD11C,0.100000*%
%ADD12C,0.950000*%
%ADD13R,1.905000X1.270000*%
%ADD14C,0.230000*%
%ADD15R,1.400000X1.200000*%
%ADD16R,1.600000X1.400000*%
G04 APERTURE END LIST*
D10*
G04 #@! TO.C,U1*
X28829000Y-33274000D03*
X28829000Y-34544000D03*
X28829000Y-35814000D03*
X28829000Y-37084000D03*
X28829000Y-38354000D03*
X28829000Y-39624000D03*
X28829000Y-40894000D03*
X28829000Y-42164000D03*
X37338000Y-42164000D03*
X37338000Y-40894000D03*
X37338000Y-39624000D03*
X37338000Y-38354000D03*
X37338000Y-37084000D03*
X37338000Y-35814000D03*
X37338000Y-34544000D03*
X37338000Y-33274000D03*
G04 #@! TD*
D11*
G04 #@! TO.C,R15*
G36*
X34826779Y-17052144D02*
X34849834Y-17055563D01*
X34872443Y-17061227D01*
X34894387Y-17069079D01*
X34915457Y-17079044D01*
X34935448Y-17091026D01*
X34954168Y-17104910D01*
X34971438Y-17120562D01*
X34987090Y-17137832D01*
X35000974Y-17156552D01*
X35012956Y-17176543D01*
X35022921Y-17197613D01*
X35030773Y-17219557D01*
X35036437Y-17242166D01*
X35039856Y-17265221D01*
X35041000Y-17288500D01*
X35041000Y-17763500D01*
X35039856Y-17786779D01*
X35036437Y-17809834D01*
X35030773Y-17832443D01*
X35022921Y-17854387D01*
X35012956Y-17875457D01*
X35000974Y-17895448D01*
X34987090Y-17914168D01*
X34971438Y-17931438D01*
X34954168Y-17947090D01*
X34935448Y-17960974D01*
X34915457Y-17972956D01*
X34894387Y-17982921D01*
X34872443Y-17990773D01*
X34849834Y-17996437D01*
X34826779Y-17999856D01*
X34803500Y-18001000D01*
X34228500Y-18001000D01*
X34205221Y-17999856D01*
X34182166Y-17996437D01*
X34159557Y-17990773D01*
X34137613Y-17982921D01*
X34116543Y-17972956D01*
X34096552Y-17960974D01*
X34077832Y-17947090D01*
X34060562Y-17931438D01*
X34044910Y-17914168D01*
X34031026Y-17895448D01*
X34019044Y-17875457D01*
X34009079Y-17854387D01*
X34001227Y-17832443D01*
X33995563Y-17809834D01*
X33992144Y-17786779D01*
X33991000Y-17763500D01*
X33991000Y-17288500D01*
X33992144Y-17265221D01*
X33995563Y-17242166D01*
X34001227Y-17219557D01*
X34009079Y-17197613D01*
X34019044Y-17176543D01*
X34031026Y-17156552D01*
X34044910Y-17137832D01*
X34060562Y-17120562D01*
X34077832Y-17104910D01*
X34096552Y-17091026D01*
X34116543Y-17079044D01*
X34137613Y-17069079D01*
X34159557Y-17061227D01*
X34182166Y-17055563D01*
X34205221Y-17052144D01*
X34228500Y-17051000D01*
X34803500Y-17051000D01*
X34826779Y-17052144D01*
X34826779Y-17052144D01*
G37*
D12*
X34516000Y-17526000D03*
D11*
G36*
X33076779Y-17052144D02*
X33099834Y-17055563D01*
X33122443Y-17061227D01*
X33144387Y-17069079D01*
X33165457Y-17079044D01*
X33185448Y-17091026D01*
X33204168Y-17104910D01*
X33221438Y-17120562D01*
X33237090Y-17137832D01*
X33250974Y-17156552D01*
X33262956Y-17176543D01*
X33272921Y-17197613D01*
X33280773Y-17219557D01*
X33286437Y-17242166D01*
X33289856Y-17265221D01*
X33291000Y-17288500D01*
X33291000Y-17763500D01*
X33289856Y-17786779D01*
X33286437Y-17809834D01*
X33280773Y-17832443D01*
X33272921Y-17854387D01*
X33262956Y-17875457D01*
X33250974Y-17895448D01*
X33237090Y-17914168D01*
X33221438Y-17931438D01*
X33204168Y-17947090D01*
X33185448Y-17960974D01*
X33165457Y-17972956D01*
X33144387Y-17982921D01*
X33122443Y-17990773D01*
X33099834Y-17996437D01*
X33076779Y-17999856D01*
X33053500Y-18001000D01*
X32478500Y-18001000D01*
X32455221Y-17999856D01*
X32432166Y-17996437D01*
X32409557Y-17990773D01*
X32387613Y-17982921D01*
X32366543Y-17972956D01*
X32346552Y-17960974D01*
X32327832Y-17947090D01*
X32310562Y-17931438D01*
X32294910Y-17914168D01*
X32281026Y-17895448D01*
X32269044Y-17875457D01*
X32259079Y-17854387D01*
X32251227Y-17832443D01*
X32245563Y-17809834D01*
X32242144Y-17786779D01*
X32241000Y-17763500D01*
X32241000Y-17288500D01*
X32242144Y-17265221D01*
X32245563Y-17242166D01*
X32251227Y-17219557D01*
X32259079Y-17197613D01*
X32269044Y-17176543D01*
X32281026Y-17156552D01*
X32294910Y-17137832D01*
X32310562Y-17120562D01*
X32327832Y-17104910D01*
X32346552Y-17091026D01*
X32366543Y-17079044D01*
X32387613Y-17069079D01*
X32409557Y-17061227D01*
X32432166Y-17055563D01*
X32455221Y-17052144D01*
X32478500Y-17051000D01*
X33053500Y-17051000D01*
X33076779Y-17052144D01*
X33076779Y-17052144D01*
G37*
D12*
X32766000Y-17526000D03*
G04 #@! TD*
D11*
G04 #@! TO.C,C13*
G36*
X34826779Y-15274144D02*
X34849834Y-15277563D01*
X34872443Y-15283227D01*
X34894387Y-15291079D01*
X34915457Y-15301044D01*
X34935448Y-15313026D01*
X34954168Y-15326910D01*
X34971438Y-15342562D01*
X34987090Y-15359832D01*
X35000974Y-15378552D01*
X35012956Y-15398543D01*
X35022921Y-15419613D01*
X35030773Y-15441557D01*
X35036437Y-15464166D01*
X35039856Y-15487221D01*
X35041000Y-15510500D01*
X35041000Y-15985500D01*
X35039856Y-16008779D01*
X35036437Y-16031834D01*
X35030773Y-16054443D01*
X35022921Y-16076387D01*
X35012956Y-16097457D01*
X35000974Y-16117448D01*
X34987090Y-16136168D01*
X34971438Y-16153438D01*
X34954168Y-16169090D01*
X34935448Y-16182974D01*
X34915457Y-16194956D01*
X34894387Y-16204921D01*
X34872443Y-16212773D01*
X34849834Y-16218437D01*
X34826779Y-16221856D01*
X34803500Y-16223000D01*
X34228500Y-16223000D01*
X34205221Y-16221856D01*
X34182166Y-16218437D01*
X34159557Y-16212773D01*
X34137613Y-16204921D01*
X34116543Y-16194956D01*
X34096552Y-16182974D01*
X34077832Y-16169090D01*
X34060562Y-16153438D01*
X34044910Y-16136168D01*
X34031026Y-16117448D01*
X34019044Y-16097457D01*
X34009079Y-16076387D01*
X34001227Y-16054443D01*
X33995563Y-16031834D01*
X33992144Y-16008779D01*
X33991000Y-15985500D01*
X33991000Y-15510500D01*
X33992144Y-15487221D01*
X33995563Y-15464166D01*
X34001227Y-15441557D01*
X34009079Y-15419613D01*
X34019044Y-15398543D01*
X34031026Y-15378552D01*
X34044910Y-15359832D01*
X34060562Y-15342562D01*
X34077832Y-15326910D01*
X34096552Y-15313026D01*
X34116543Y-15301044D01*
X34137613Y-15291079D01*
X34159557Y-15283227D01*
X34182166Y-15277563D01*
X34205221Y-15274144D01*
X34228500Y-15273000D01*
X34803500Y-15273000D01*
X34826779Y-15274144D01*
X34826779Y-15274144D01*
G37*
D12*
X34516000Y-15748000D03*
D11*
G36*
X33076779Y-15274144D02*
X33099834Y-15277563D01*
X33122443Y-15283227D01*
X33144387Y-15291079D01*
X33165457Y-15301044D01*
X33185448Y-15313026D01*
X33204168Y-15326910D01*
X33221438Y-15342562D01*
X33237090Y-15359832D01*
X33250974Y-15378552D01*
X33262956Y-15398543D01*
X33272921Y-15419613D01*
X33280773Y-15441557D01*
X33286437Y-15464166D01*
X33289856Y-15487221D01*
X33291000Y-15510500D01*
X33291000Y-15985500D01*
X33289856Y-16008779D01*
X33286437Y-16031834D01*
X33280773Y-16054443D01*
X33272921Y-16076387D01*
X33262956Y-16097457D01*
X33250974Y-16117448D01*
X33237090Y-16136168D01*
X33221438Y-16153438D01*
X33204168Y-16169090D01*
X33185448Y-16182974D01*
X33165457Y-16194956D01*
X33144387Y-16204921D01*
X33122443Y-16212773D01*
X33099834Y-16218437D01*
X33076779Y-16221856D01*
X33053500Y-16223000D01*
X32478500Y-16223000D01*
X32455221Y-16221856D01*
X32432166Y-16218437D01*
X32409557Y-16212773D01*
X32387613Y-16204921D01*
X32366543Y-16194956D01*
X32346552Y-16182974D01*
X32327832Y-16169090D01*
X32310562Y-16153438D01*
X32294910Y-16136168D01*
X32281026Y-16117448D01*
X32269044Y-16097457D01*
X32259079Y-16076387D01*
X32251227Y-16054443D01*
X32245563Y-16031834D01*
X32242144Y-16008779D01*
X32241000Y-15985500D01*
X32241000Y-15510500D01*
X32242144Y-15487221D01*
X32245563Y-15464166D01*
X32251227Y-15441557D01*
X32259079Y-15419613D01*
X32269044Y-15398543D01*
X32281026Y-15378552D01*
X32294910Y-15359832D01*
X32310562Y-15342562D01*
X32327832Y-15326910D01*
X32346552Y-15313026D01*
X32366543Y-15301044D01*
X32387613Y-15291079D01*
X32409557Y-15283227D01*
X32432166Y-15277563D01*
X32455221Y-15274144D01*
X32478500Y-15273000D01*
X33053500Y-15273000D01*
X33076779Y-15274144D01*
X33076779Y-15274144D01*
G37*
D12*
X32766000Y-15748000D03*
G04 #@! TD*
D13*
G04 #@! TO.C,Y2*
X36576000Y-19812000D03*
X36576000Y-25400000D03*
X33401000Y-19812000D03*
X33401000Y-25400000D03*
G04 #@! TD*
D11*
G04 #@! TO.C,R1*
G36*
X18598779Y-39150144D02*
X18621834Y-39153563D01*
X18644443Y-39159227D01*
X18666387Y-39167079D01*
X18687457Y-39177044D01*
X18707448Y-39189026D01*
X18726168Y-39202910D01*
X18743438Y-39218562D01*
X18759090Y-39235832D01*
X18772974Y-39254552D01*
X18784956Y-39274543D01*
X18794921Y-39295613D01*
X18802773Y-39317557D01*
X18808437Y-39340166D01*
X18811856Y-39363221D01*
X18813000Y-39386500D01*
X18813000Y-39861500D01*
X18811856Y-39884779D01*
X18808437Y-39907834D01*
X18802773Y-39930443D01*
X18794921Y-39952387D01*
X18784956Y-39973457D01*
X18772974Y-39993448D01*
X18759090Y-40012168D01*
X18743438Y-40029438D01*
X18726168Y-40045090D01*
X18707448Y-40058974D01*
X18687457Y-40070956D01*
X18666387Y-40080921D01*
X18644443Y-40088773D01*
X18621834Y-40094437D01*
X18598779Y-40097856D01*
X18575500Y-40099000D01*
X18000500Y-40099000D01*
X17977221Y-40097856D01*
X17954166Y-40094437D01*
X17931557Y-40088773D01*
X17909613Y-40080921D01*
X17888543Y-40070956D01*
X17868552Y-40058974D01*
X17849832Y-40045090D01*
X17832562Y-40029438D01*
X17816910Y-40012168D01*
X17803026Y-39993448D01*
X17791044Y-39973457D01*
X17781079Y-39952387D01*
X17773227Y-39930443D01*
X17767563Y-39907834D01*
X17764144Y-39884779D01*
X17763000Y-39861500D01*
X17763000Y-39386500D01*
X17764144Y-39363221D01*
X17767563Y-39340166D01*
X17773227Y-39317557D01*
X17781079Y-39295613D01*
X17791044Y-39274543D01*
X17803026Y-39254552D01*
X17816910Y-39235832D01*
X17832562Y-39218562D01*
X17849832Y-39202910D01*
X17868552Y-39189026D01*
X17888543Y-39177044D01*
X17909613Y-39167079D01*
X17931557Y-39159227D01*
X17954166Y-39153563D01*
X17977221Y-39150144D01*
X18000500Y-39149000D01*
X18575500Y-39149000D01*
X18598779Y-39150144D01*
X18598779Y-39150144D01*
G37*
D12*
X18288000Y-39624000D03*
D11*
G36*
X16848779Y-39150144D02*
X16871834Y-39153563D01*
X16894443Y-39159227D01*
X16916387Y-39167079D01*
X16937457Y-39177044D01*
X16957448Y-39189026D01*
X16976168Y-39202910D01*
X16993438Y-39218562D01*
X17009090Y-39235832D01*
X17022974Y-39254552D01*
X17034956Y-39274543D01*
X17044921Y-39295613D01*
X17052773Y-39317557D01*
X17058437Y-39340166D01*
X17061856Y-39363221D01*
X17063000Y-39386500D01*
X17063000Y-39861500D01*
X17061856Y-39884779D01*
X17058437Y-39907834D01*
X17052773Y-39930443D01*
X17044921Y-39952387D01*
X17034956Y-39973457D01*
X17022974Y-39993448D01*
X17009090Y-40012168D01*
X16993438Y-40029438D01*
X16976168Y-40045090D01*
X16957448Y-40058974D01*
X16937457Y-40070956D01*
X16916387Y-40080921D01*
X16894443Y-40088773D01*
X16871834Y-40094437D01*
X16848779Y-40097856D01*
X16825500Y-40099000D01*
X16250500Y-40099000D01*
X16227221Y-40097856D01*
X16204166Y-40094437D01*
X16181557Y-40088773D01*
X16159613Y-40080921D01*
X16138543Y-40070956D01*
X16118552Y-40058974D01*
X16099832Y-40045090D01*
X16082562Y-40029438D01*
X16066910Y-40012168D01*
X16053026Y-39993448D01*
X16041044Y-39973457D01*
X16031079Y-39952387D01*
X16023227Y-39930443D01*
X16017563Y-39907834D01*
X16014144Y-39884779D01*
X16013000Y-39861500D01*
X16013000Y-39386500D01*
X16014144Y-39363221D01*
X16017563Y-39340166D01*
X16023227Y-39317557D01*
X16031079Y-39295613D01*
X16041044Y-39274543D01*
X16053026Y-39254552D01*
X16066910Y-39235832D01*
X16082562Y-39218562D01*
X16099832Y-39202910D01*
X16118552Y-39189026D01*
X16138543Y-39177044D01*
X16159613Y-39167079D01*
X16181557Y-39159227D01*
X16204166Y-39153563D01*
X16227221Y-39150144D01*
X16250500Y-39149000D01*
X16825500Y-39149000D01*
X16848779Y-39150144D01*
X16848779Y-39150144D01*
G37*
D12*
X16538000Y-39624000D03*
G04 #@! TD*
D11*
G04 #@! TO.C,R2*
G36*
X16848779Y-41182144D02*
X16871834Y-41185563D01*
X16894443Y-41191227D01*
X16916387Y-41199079D01*
X16937457Y-41209044D01*
X16957448Y-41221026D01*
X16976168Y-41234910D01*
X16993438Y-41250562D01*
X17009090Y-41267832D01*
X17022974Y-41286552D01*
X17034956Y-41306543D01*
X17044921Y-41327613D01*
X17052773Y-41349557D01*
X17058437Y-41372166D01*
X17061856Y-41395221D01*
X17063000Y-41418500D01*
X17063000Y-41893500D01*
X17061856Y-41916779D01*
X17058437Y-41939834D01*
X17052773Y-41962443D01*
X17044921Y-41984387D01*
X17034956Y-42005457D01*
X17022974Y-42025448D01*
X17009090Y-42044168D01*
X16993438Y-42061438D01*
X16976168Y-42077090D01*
X16957448Y-42090974D01*
X16937457Y-42102956D01*
X16916387Y-42112921D01*
X16894443Y-42120773D01*
X16871834Y-42126437D01*
X16848779Y-42129856D01*
X16825500Y-42131000D01*
X16250500Y-42131000D01*
X16227221Y-42129856D01*
X16204166Y-42126437D01*
X16181557Y-42120773D01*
X16159613Y-42112921D01*
X16138543Y-42102956D01*
X16118552Y-42090974D01*
X16099832Y-42077090D01*
X16082562Y-42061438D01*
X16066910Y-42044168D01*
X16053026Y-42025448D01*
X16041044Y-42005457D01*
X16031079Y-41984387D01*
X16023227Y-41962443D01*
X16017563Y-41939834D01*
X16014144Y-41916779D01*
X16013000Y-41893500D01*
X16013000Y-41418500D01*
X16014144Y-41395221D01*
X16017563Y-41372166D01*
X16023227Y-41349557D01*
X16031079Y-41327613D01*
X16041044Y-41306543D01*
X16053026Y-41286552D01*
X16066910Y-41267832D01*
X16082562Y-41250562D01*
X16099832Y-41234910D01*
X16118552Y-41221026D01*
X16138543Y-41209044D01*
X16159613Y-41199079D01*
X16181557Y-41191227D01*
X16204166Y-41185563D01*
X16227221Y-41182144D01*
X16250500Y-41181000D01*
X16825500Y-41181000D01*
X16848779Y-41182144D01*
X16848779Y-41182144D01*
G37*
D12*
X16538000Y-41656000D03*
D11*
G36*
X18598779Y-41182144D02*
X18621834Y-41185563D01*
X18644443Y-41191227D01*
X18666387Y-41199079D01*
X18687457Y-41209044D01*
X18707448Y-41221026D01*
X18726168Y-41234910D01*
X18743438Y-41250562D01*
X18759090Y-41267832D01*
X18772974Y-41286552D01*
X18784956Y-41306543D01*
X18794921Y-41327613D01*
X18802773Y-41349557D01*
X18808437Y-41372166D01*
X18811856Y-41395221D01*
X18813000Y-41418500D01*
X18813000Y-41893500D01*
X18811856Y-41916779D01*
X18808437Y-41939834D01*
X18802773Y-41962443D01*
X18794921Y-41984387D01*
X18784956Y-42005457D01*
X18772974Y-42025448D01*
X18759090Y-42044168D01*
X18743438Y-42061438D01*
X18726168Y-42077090D01*
X18707448Y-42090974D01*
X18687457Y-42102956D01*
X18666387Y-42112921D01*
X18644443Y-42120773D01*
X18621834Y-42126437D01*
X18598779Y-42129856D01*
X18575500Y-42131000D01*
X18000500Y-42131000D01*
X17977221Y-42129856D01*
X17954166Y-42126437D01*
X17931557Y-42120773D01*
X17909613Y-42112921D01*
X17888543Y-42102956D01*
X17868552Y-42090974D01*
X17849832Y-42077090D01*
X17832562Y-42061438D01*
X17816910Y-42044168D01*
X17803026Y-42025448D01*
X17791044Y-42005457D01*
X17781079Y-41984387D01*
X17773227Y-41962443D01*
X17767563Y-41939834D01*
X17764144Y-41916779D01*
X17763000Y-41893500D01*
X17763000Y-41418500D01*
X17764144Y-41395221D01*
X17767563Y-41372166D01*
X17773227Y-41349557D01*
X17781079Y-41327613D01*
X17791044Y-41306543D01*
X17803026Y-41286552D01*
X17816910Y-41267832D01*
X17832562Y-41250562D01*
X17849832Y-41234910D01*
X17868552Y-41221026D01*
X17888543Y-41209044D01*
X17909613Y-41199079D01*
X17931557Y-41191227D01*
X17954166Y-41185563D01*
X17977221Y-41182144D01*
X18000500Y-41181000D01*
X18575500Y-41181000D01*
X18598779Y-41182144D01*
X18598779Y-41182144D01*
G37*
D12*
X18288000Y-41656000D03*
G04 #@! TD*
D11*
G04 #@! TO.C,C2*
G36*
X14788779Y-41182144D02*
X14811834Y-41185563D01*
X14834443Y-41191227D01*
X14856387Y-41199079D01*
X14877457Y-41209044D01*
X14897448Y-41221026D01*
X14916168Y-41234910D01*
X14933438Y-41250562D01*
X14949090Y-41267832D01*
X14962974Y-41286552D01*
X14974956Y-41306543D01*
X14984921Y-41327613D01*
X14992773Y-41349557D01*
X14998437Y-41372166D01*
X15001856Y-41395221D01*
X15003000Y-41418500D01*
X15003000Y-41893500D01*
X15001856Y-41916779D01*
X14998437Y-41939834D01*
X14992773Y-41962443D01*
X14984921Y-41984387D01*
X14974956Y-42005457D01*
X14962974Y-42025448D01*
X14949090Y-42044168D01*
X14933438Y-42061438D01*
X14916168Y-42077090D01*
X14897448Y-42090974D01*
X14877457Y-42102956D01*
X14856387Y-42112921D01*
X14834443Y-42120773D01*
X14811834Y-42126437D01*
X14788779Y-42129856D01*
X14765500Y-42131000D01*
X14190500Y-42131000D01*
X14167221Y-42129856D01*
X14144166Y-42126437D01*
X14121557Y-42120773D01*
X14099613Y-42112921D01*
X14078543Y-42102956D01*
X14058552Y-42090974D01*
X14039832Y-42077090D01*
X14022562Y-42061438D01*
X14006910Y-42044168D01*
X13993026Y-42025448D01*
X13981044Y-42005457D01*
X13971079Y-41984387D01*
X13963227Y-41962443D01*
X13957563Y-41939834D01*
X13954144Y-41916779D01*
X13953000Y-41893500D01*
X13953000Y-41418500D01*
X13954144Y-41395221D01*
X13957563Y-41372166D01*
X13963227Y-41349557D01*
X13971079Y-41327613D01*
X13981044Y-41306543D01*
X13993026Y-41286552D01*
X14006910Y-41267832D01*
X14022562Y-41250562D01*
X14039832Y-41234910D01*
X14058552Y-41221026D01*
X14078543Y-41209044D01*
X14099613Y-41199079D01*
X14121557Y-41191227D01*
X14144166Y-41185563D01*
X14167221Y-41182144D01*
X14190500Y-41181000D01*
X14765500Y-41181000D01*
X14788779Y-41182144D01*
X14788779Y-41182144D01*
G37*
D12*
X14478000Y-41656000D03*
D11*
G36*
X13038779Y-41182144D02*
X13061834Y-41185563D01*
X13084443Y-41191227D01*
X13106387Y-41199079D01*
X13127457Y-41209044D01*
X13147448Y-41221026D01*
X13166168Y-41234910D01*
X13183438Y-41250562D01*
X13199090Y-41267832D01*
X13212974Y-41286552D01*
X13224956Y-41306543D01*
X13234921Y-41327613D01*
X13242773Y-41349557D01*
X13248437Y-41372166D01*
X13251856Y-41395221D01*
X13253000Y-41418500D01*
X13253000Y-41893500D01*
X13251856Y-41916779D01*
X13248437Y-41939834D01*
X13242773Y-41962443D01*
X13234921Y-41984387D01*
X13224956Y-42005457D01*
X13212974Y-42025448D01*
X13199090Y-42044168D01*
X13183438Y-42061438D01*
X13166168Y-42077090D01*
X13147448Y-42090974D01*
X13127457Y-42102956D01*
X13106387Y-42112921D01*
X13084443Y-42120773D01*
X13061834Y-42126437D01*
X13038779Y-42129856D01*
X13015500Y-42131000D01*
X12440500Y-42131000D01*
X12417221Y-42129856D01*
X12394166Y-42126437D01*
X12371557Y-42120773D01*
X12349613Y-42112921D01*
X12328543Y-42102956D01*
X12308552Y-42090974D01*
X12289832Y-42077090D01*
X12272562Y-42061438D01*
X12256910Y-42044168D01*
X12243026Y-42025448D01*
X12231044Y-42005457D01*
X12221079Y-41984387D01*
X12213227Y-41962443D01*
X12207563Y-41939834D01*
X12204144Y-41916779D01*
X12203000Y-41893500D01*
X12203000Y-41418500D01*
X12204144Y-41395221D01*
X12207563Y-41372166D01*
X12213227Y-41349557D01*
X12221079Y-41327613D01*
X12231044Y-41306543D01*
X12243026Y-41286552D01*
X12256910Y-41267832D01*
X12272562Y-41250562D01*
X12289832Y-41234910D01*
X12308552Y-41221026D01*
X12328543Y-41209044D01*
X12349613Y-41199079D01*
X12371557Y-41191227D01*
X12394166Y-41185563D01*
X12417221Y-41182144D01*
X12440500Y-41181000D01*
X13015500Y-41181000D01*
X13038779Y-41182144D01*
X13038779Y-41182144D01*
G37*
D12*
X12728000Y-41656000D03*
G04 #@! TD*
D11*
G04 #@! TO.C,C1*
G36*
X13038779Y-39150144D02*
X13061834Y-39153563D01*
X13084443Y-39159227D01*
X13106387Y-39167079D01*
X13127457Y-39177044D01*
X13147448Y-39189026D01*
X13166168Y-39202910D01*
X13183438Y-39218562D01*
X13199090Y-39235832D01*
X13212974Y-39254552D01*
X13224956Y-39274543D01*
X13234921Y-39295613D01*
X13242773Y-39317557D01*
X13248437Y-39340166D01*
X13251856Y-39363221D01*
X13253000Y-39386500D01*
X13253000Y-39861500D01*
X13251856Y-39884779D01*
X13248437Y-39907834D01*
X13242773Y-39930443D01*
X13234921Y-39952387D01*
X13224956Y-39973457D01*
X13212974Y-39993448D01*
X13199090Y-40012168D01*
X13183438Y-40029438D01*
X13166168Y-40045090D01*
X13147448Y-40058974D01*
X13127457Y-40070956D01*
X13106387Y-40080921D01*
X13084443Y-40088773D01*
X13061834Y-40094437D01*
X13038779Y-40097856D01*
X13015500Y-40099000D01*
X12440500Y-40099000D01*
X12417221Y-40097856D01*
X12394166Y-40094437D01*
X12371557Y-40088773D01*
X12349613Y-40080921D01*
X12328543Y-40070956D01*
X12308552Y-40058974D01*
X12289832Y-40045090D01*
X12272562Y-40029438D01*
X12256910Y-40012168D01*
X12243026Y-39993448D01*
X12231044Y-39973457D01*
X12221079Y-39952387D01*
X12213227Y-39930443D01*
X12207563Y-39907834D01*
X12204144Y-39884779D01*
X12203000Y-39861500D01*
X12203000Y-39386500D01*
X12204144Y-39363221D01*
X12207563Y-39340166D01*
X12213227Y-39317557D01*
X12221079Y-39295613D01*
X12231044Y-39274543D01*
X12243026Y-39254552D01*
X12256910Y-39235832D01*
X12272562Y-39218562D01*
X12289832Y-39202910D01*
X12308552Y-39189026D01*
X12328543Y-39177044D01*
X12349613Y-39167079D01*
X12371557Y-39159227D01*
X12394166Y-39153563D01*
X12417221Y-39150144D01*
X12440500Y-39149000D01*
X13015500Y-39149000D01*
X13038779Y-39150144D01*
X13038779Y-39150144D01*
G37*
D12*
X12728000Y-39624000D03*
D11*
G36*
X14788779Y-39150144D02*
X14811834Y-39153563D01*
X14834443Y-39159227D01*
X14856387Y-39167079D01*
X14877457Y-39177044D01*
X14897448Y-39189026D01*
X14916168Y-39202910D01*
X14933438Y-39218562D01*
X14949090Y-39235832D01*
X14962974Y-39254552D01*
X14974956Y-39274543D01*
X14984921Y-39295613D01*
X14992773Y-39317557D01*
X14998437Y-39340166D01*
X15001856Y-39363221D01*
X15003000Y-39386500D01*
X15003000Y-39861500D01*
X15001856Y-39884779D01*
X14998437Y-39907834D01*
X14992773Y-39930443D01*
X14984921Y-39952387D01*
X14974956Y-39973457D01*
X14962974Y-39993448D01*
X14949090Y-40012168D01*
X14933438Y-40029438D01*
X14916168Y-40045090D01*
X14897448Y-40058974D01*
X14877457Y-40070956D01*
X14856387Y-40080921D01*
X14834443Y-40088773D01*
X14811834Y-40094437D01*
X14788779Y-40097856D01*
X14765500Y-40099000D01*
X14190500Y-40099000D01*
X14167221Y-40097856D01*
X14144166Y-40094437D01*
X14121557Y-40088773D01*
X14099613Y-40080921D01*
X14078543Y-40070956D01*
X14058552Y-40058974D01*
X14039832Y-40045090D01*
X14022562Y-40029438D01*
X14006910Y-40012168D01*
X13993026Y-39993448D01*
X13981044Y-39973457D01*
X13971079Y-39952387D01*
X13963227Y-39930443D01*
X13957563Y-39907834D01*
X13954144Y-39884779D01*
X13953000Y-39861500D01*
X13953000Y-39386500D01*
X13954144Y-39363221D01*
X13957563Y-39340166D01*
X13963227Y-39317557D01*
X13971079Y-39295613D01*
X13981044Y-39274543D01*
X13993026Y-39254552D01*
X14006910Y-39235832D01*
X14022562Y-39218562D01*
X14039832Y-39202910D01*
X14058552Y-39189026D01*
X14078543Y-39177044D01*
X14099613Y-39167079D01*
X14121557Y-39159227D01*
X14144166Y-39153563D01*
X14167221Y-39150144D01*
X14190500Y-39149000D01*
X14765500Y-39149000D01*
X14788779Y-39150144D01*
X14788779Y-39150144D01*
G37*
D12*
X14478000Y-39624000D03*
G04 #@! TD*
D11*
G04 #@! TO.C,R9*
G36*
X43998779Y-24926144D02*
X44021834Y-24929563D01*
X44044443Y-24935227D01*
X44066387Y-24943079D01*
X44087457Y-24953044D01*
X44107448Y-24965026D01*
X44126168Y-24978910D01*
X44143438Y-24994562D01*
X44159090Y-25011832D01*
X44172974Y-25030552D01*
X44184956Y-25050543D01*
X44194921Y-25071613D01*
X44202773Y-25093557D01*
X44208437Y-25116166D01*
X44211856Y-25139221D01*
X44213000Y-25162500D01*
X44213000Y-25637500D01*
X44211856Y-25660779D01*
X44208437Y-25683834D01*
X44202773Y-25706443D01*
X44194921Y-25728387D01*
X44184956Y-25749457D01*
X44172974Y-25769448D01*
X44159090Y-25788168D01*
X44143438Y-25805438D01*
X44126168Y-25821090D01*
X44107448Y-25834974D01*
X44087457Y-25846956D01*
X44066387Y-25856921D01*
X44044443Y-25864773D01*
X44021834Y-25870437D01*
X43998779Y-25873856D01*
X43975500Y-25875000D01*
X43400500Y-25875000D01*
X43377221Y-25873856D01*
X43354166Y-25870437D01*
X43331557Y-25864773D01*
X43309613Y-25856921D01*
X43288543Y-25846956D01*
X43268552Y-25834974D01*
X43249832Y-25821090D01*
X43232562Y-25805438D01*
X43216910Y-25788168D01*
X43203026Y-25769448D01*
X43191044Y-25749457D01*
X43181079Y-25728387D01*
X43173227Y-25706443D01*
X43167563Y-25683834D01*
X43164144Y-25660779D01*
X43163000Y-25637500D01*
X43163000Y-25162500D01*
X43164144Y-25139221D01*
X43167563Y-25116166D01*
X43173227Y-25093557D01*
X43181079Y-25071613D01*
X43191044Y-25050543D01*
X43203026Y-25030552D01*
X43216910Y-25011832D01*
X43232562Y-24994562D01*
X43249832Y-24978910D01*
X43268552Y-24965026D01*
X43288543Y-24953044D01*
X43309613Y-24943079D01*
X43331557Y-24935227D01*
X43354166Y-24929563D01*
X43377221Y-24926144D01*
X43400500Y-24925000D01*
X43975500Y-24925000D01*
X43998779Y-24926144D01*
X43998779Y-24926144D01*
G37*
D12*
X43688000Y-25400000D03*
D11*
G36*
X42248779Y-24926144D02*
X42271834Y-24929563D01*
X42294443Y-24935227D01*
X42316387Y-24943079D01*
X42337457Y-24953044D01*
X42357448Y-24965026D01*
X42376168Y-24978910D01*
X42393438Y-24994562D01*
X42409090Y-25011832D01*
X42422974Y-25030552D01*
X42434956Y-25050543D01*
X42444921Y-25071613D01*
X42452773Y-25093557D01*
X42458437Y-25116166D01*
X42461856Y-25139221D01*
X42463000Y-25162500D01*
X42463000Y-25637500D01*
X42461856Y-25660779D01*
X42458437Y-25683834D01*
X42452773Y-25706443D01*
X42444921Y-25728387D01*
X42434956Y-25749457D01*
X42422974Y-25769448D01*
X42409090Y-25788168D01*
X42393438Y-25805438D01*
X42376168Y-25821090D01*
X42357448Y-25834974D01*
X42337457Y-25846956D01*
X42316387Y-25856921D01*
X42294443Y-25864773D01*
X42271834Y-25870437D01*
X42248779Y-25873856D01*
X42225500Y-25875000D01*
X41650500Y-25875000D01*
X41627221Y-25873856D01*
X41604166Y-25870437D01*
X41581557Y-25864773D01*
X41559613Y-25856921D01*
X41538543Y-25846956D01*
X41518552Y-25834974D01*
X41499832Y-25821090D01*
X41482562Y-25805438D01*
X41466910Y-25788168D01*
X41453026Y-25769448D01*
X41441044Y-25749457D01*
X41431079Y-25728387D01*
X41423227Y-25706443D01*
X41417563Y-25683834D01*
X41414144Y-25660779D01*
X41413000Y-25637500D01*
X41413000Y-25162500D01*
X41414144Y-25139221D01*
X41417563Y-25116166D01*
X41423227Y-25093557D01*
X41431079Y-25071613D01*
X41441044Y-25050543D01*
X41453026Y-25030552D01*
X41466910Y-25011832D01*
X41482562Y-24994562D01*
X41499832Y-24978910D01*
X41518552Y-24965026D01*
X41538543Y-24953044D01*
X41559613Y-24943079D01*
X41581557Y-24935227D01*
X41604166Y-24929563D01*
X41627221Y-24926144D01*
X41650500Y-24925000D01*
X42225500Y-24925000D01*
X42248779Y-24926144D01*
X42248779Y-24926144D01*
G37*
D12*
X41938000Y-25400000D03*
G04 #@! TD*
D11*
G04 #@! TO.C,R7*
G36*
X43998779Y-22894144D02*
X44021834Y-22897563D01*
X44044443Y-22903227D01*
X44066387Y-22911079D01*
X44087457Y-22921044D01*
X44107448Y-22933026D01*
X44126168Y-22946910D01*
X44143438Y-22962562D01*
X44159090Y-22979832D01*
X44172974Y-22998552D01*
X44184956Y-23018543D01*
X44194921Y-23039613D01*
X44202773Y-23061557D01*
X44208437Y-23084166D01*
X44211856Y-23107221D01*
X44213000Y-23130500D01*
X44213000Y-23605500D01*
X44211856Y-23628779D01*
X44208437Y-23651834D01*
X44202773Y-23674443D01*
X44194921Y-23696387D01*
X44184956Y-23717457D01*
X44172974Y-23737448D01*
X44159090Y-23756168D01*
X44143438Y-23773438D01*
X44126168Y-23789090D01*
X44107448Y-23802974D01*
X44087457Y-23814956D01*
X44066387Y-23824921D01*
X44044443Y-23832773D01*
X44021834Y-23838437D01*
X43998779Y-23841856D01*
X43975500Y-23843000D01*
X43400500Y-23843000D01*
X43377221Y-23841856D01*
X43354166Y-23838437D01*
X43331557Y-23832773D01*
X43309613Y-23824921D01*
X43288543Y-23814956D01*
X43268552Y-23802974D01*
X43249832Y-23789090D01*
X43232562Y-23773438D01*
X43216910Y-23756168D01*
X43203026Y-23737448D01*
X43191044Y-23717457D01*
X43181079Y-23696387D01*
X43173227Y-23674443D01*
X43167563Y-23651834D01*
X43164144Y-23628779D01*
X43163000Y-23605500D01*
X43163000Y-23130500D01*
X43164144Y-23107221D01*
X43167563Y-23084166D01*
X43173227Y-23061557D01*
X43181079Y-23039613D01*
X43191044Y-23018543D01*
X43203026Y-22998552D01*
X43216910Y-22979832D01*
X43232562Y-22962562D01*
X43249832Y-22946910D01*
X43268552Y-22933026D01*
X43288543Y-22921044D01*
X43309613Y-22911079D01*
X43331557Y-22903227D01*
X43354166Y-22897563D01*
X43377221Y-22894144D01*
X43400500Y-22893000D01*
X43975500Y-22893000D01*
X43998779Y-22894144D01*
X43998779Y-22894144D01*
G37*
D12*
X43688000Y-23368000D03*
D11*
G36*
X42248779Y-22894144D02*
X42271834Y-22897563D01*
X42294443Y-22903227D01*
X42316387Y-22911079D01*
X42337457Y-22921044D01*
X42357448Y-22933026D01*
X42376168Y-22946910D01*
X42393438Y-22962562D01*
X42409090Y-22979832D01*
X42422974Y-22998552D01*
X42434956Y-23018543D01*
X42444921Y-23039613D01*
X42452773Y-23061557D01*
X42458437Y-23084166D01*
X42461856Y-23107221D01*
X42463000Y-23130500D01*
X42463000Y-23605500D01*
X42461856Y-23628779D01*
X42458437Y-23651834D01*
X42452773Y-23674443D01*
X42444921Y-23696387D01*
X42434956Y-23717457D01*
X42422974Y-23737448D01*
X42409090Y-23756168D01*
X42393438Y-23773438D01*
X42376168Y-23789090D01*
X42357448Y-23802974D01*
X42337457Y-23814956D01*
X42316387Y-23824921D01*
X42294443Y-23832773D01*
X42271834Y-23838437D01*
X42248779Y-23841856D01*
X42225500Y-23843000D01*
X41650500Y-23843000D01*
X41627221Y-23841856D01*
X41604166Y-23838437D01*
X41581557Y-23832773D01*
X41559613Y-23824921D01*
X41538543Y-23814956D01*
X41518552Y-23802974D01*
X41499832Y-23789090D01*
X41482562Y-23773438D01*
X41466910Y-23756168D01*
X41453026Y-23737448D01*
X41441044Y-23717457D01*
X41431079Y-23696387D01*
X41423227Y-23674443D01*
X41417563Y-23651834D01*
X41414144Y-23628779D01*
X41413000Y-23605500D01*
X41413000Y-23130500D01*
X41414144Y-23107221D01*
X41417563Y-23084166D01*
X41423227Y-23061557D01*
X41431079Y-23039613D01*
X41441044Y-23018543D01*
X41453026Y-22998552D01*
X41466910Y-22979832D01*
X41482562Y-22962562D01*
X41499832Y-22946910D01*
X41518552Y-22933026D01*
X41538543Y-22921044D01*
X41559613Y-22911079D01*
X41581557Y-22903227D01*
X41604166Y-22897563D01*
X41627221Y-22894144D01*
X41650500Y-22893000D01*
X42225500Y-22893000D01*
X42248779Y-22894144D01*
X42248779Y-22894144D01*
G37*
D12*
X41938000Y-23368000D03*
G04 #@! TD*
D11*
G04 #@! TO.C,R8*
G36*
X43998779Y-28990144D02*
X44021834Y-28993563D01*
X44044443Y-28999227D01*
X44066387Y-29007079D01*
X44087457Y-29017044D01*
X44107448Y-29029026D01*
X44126168Y-29042910D01*
X44143438Y-29058562D01*
X44159090Y-29075832D01*
X44172974Y-29094552D01*
X44184956Y-29114543D01*
X44194921Y-29135613D01*
X44202773Y-29157557D01*
X44208437Y-29180166D01*
X44211856Y-29203221D01*
X44213000Y-29226500D01*
X44213000Y-29701500D01*
X44211856Y-29724779D01*
X44208437Y-29747834D01*
X44202773Y-29770443D01*
X44194921Y-29792387D01*
X44184956Y-29813457D01*
X44172974Y-29833448D01*
X44159090Y-29852168D01*
X44143438Y-29869438D01*
X44126168Y-29885090D01*
X44107448Y-29898974D01*
X44087457Y-29910956D01*
X44066387Y-29920921D01*
X44044443Y-29928773D01*
X44021834Y-29934437D01*
X43998779Y-29937856D01*
X43975500Y-29939000D01*
X43400500Y-29939000D01*
X43377221Y-29937856D01*
X43354166Y-29934437D01*
X43331557Y-29928773D01*
X43309613Y-29920921D01*
X43288543Y-29910956D01*
X43268552Y-29898974D01*
X43249832Y-29885090D01*
X43232562Y-29869438D01*
X43216910Y-29852168D01*
X43203026Y-29833448D01*
X43191044Y-29813457D01*
X43181079Y-29792387D01*
X43173227Y-29770443D01*
X43167563Y-29747834D01*
X43164144Y-29724779D01*
X43163000Y-29701500D01*
X43163000Y-29226500D01*
X43164144Y-29203221D01*
X43167563Y-29180166D01*
X43173227Y-29157557D01*
X43181079Y-29135613D01*
X43191044Y-29114543D01*
X43203026Y-29094552D01*
X43216910Y-29075832D01*
X43232562Y-29058562D01*
X43249832Y-29042910D01*
X43268552Y-29029026D01*
X43288543Y-29017044D01*
X43309613Y-29007079D01*
X43331557Y-28999227D01*
X43354166Y-28993563D01*
X43377221Y-28990144D01*
X43400500Y-28989000D01*
X43975500Y-28989000D01*
X43998779Y-28990144D01*
X43998779Y-28990144D01*
G37*
D12*
X43688000Y-29464000D03*
D11*
G36*
X42248779Y-28990144D02*
X42271834Y-28993563D01*
X42294443Y-28999227D01*
X42316387Y-29007079D01*
X42337457Y-29017044D01*
X42357448Y-29029026D01*
X42376168Y-29042910D01*
X42393438Y-29058562D01*
X42409090Y-29075832D01*
X42422974Y-29094552D01*
X42434956Y-29114543D01*
X42444921Y-29135613D01*
X42452773Y-29157557D01*
X42458437Y-29180166D01*
X42461856Y-29203221D01*
X42463000Y-29226500D01*
X42463000Y-29701500D01*
X42461856Y-29724779D01*
X42458437Y-29747834D01*
X42452773Y-29770443D01*
X42444921Y-29792387D01*
X42434956Y-29813457D01*
X42422974Y-29833448D01*
X42409090Y-29852168D01*
X42393438Y-29869438D01*
X42376168Y-29885090D01*
X42357448Y-29898974D01*
X42337457Y-29910956D01*
X42316387Y-29920921D01*
X42294443Y-29928773D01*
X42271834Y-29934437D01*
X42248779Y-29937856D01*
X42225500Y-29939000D01*
X41650500Y-29939000D01*
X41627221Y-29937856D01*
X41604166Y-29934437D01*
X41581557Y-29928773D01*
X41559613Y-29920921D01*
X41538543Y-29910956D01*
X41518552Y-29898974D01*
X41499832Y-29885090D01*
X41482562Y-29869438D01*
X41466910Y-29852168D01*
X41453026Y-29833448D01*
X41441044Y-29813457D01*
X41431079Y-29792387D01*
X41423227Y-29770443D01*
X41417563Y-29747834D01*
X41414144Y-29724779D01*
X41413000Y-29701500D01*
X41413000Y-29226500D01*
X41414144Y-29203221D01*
X41417563Y-29180166D01*
X41423227Y-29157557D01*
X41431079Y-29135613D01*
X41441044Y-29114543D01*
X41453026Y-29094552D01*
X41466910Y-29075832D01*
X41482562Y-29058562D01*
X41499832Y-29042910D01*
X41518552Y-29029026D01*
X41538543Y-29017044D01*
X41559613Y-29007079D01*
X41581557Y-28999227D01*
X41604166Y-28993563D01*
X41627221Y-28990144D01*
X41650500Y-28989000D01*
X42225500Y-28989000D01*
X42248779Y-28990144D01*
X42248779Y-28990144D01*
G37*
D12*
X41938000Y-29464000D03*
G04 #@! TD*
D11*
G04 #@! TO.C,R16*
G36*
X43998779Y-31022144D02*
X44021834Y-31025563D01*
X44044443Y-31031227D01*
X44066387Y-31039079D01*
X44087457Y-31049044D01*
X44107448Y-31061026D01*
X44126168Y-31074910D01*
X44143438Y-31090562D01*
X44159090Y-31107832D01*
X44172974Y-31126552D01*
X44184956Y-31146543D01*
X44194921Y-31167613D01*
X44202773Y-31189557D01*
X44208437Y-31212166D01*
X44211856Y-31235221D01*
X44213000Y-31258500D01*
X44213000Y-31733500D01*
X44211856Y-31756779D01*
X44208437Y-31779834D01*
X44202773Y-31802443D01*
X44194921Y-31824387D01*
X44184956Y-31845457D01*
X44172974Y-31865448D01*
X44159090Y-31884168D01*
X44143438Y-31901438D01*
X44126168Y-31917090D01*
X44107448Y-31930974D01*
X44087457Y-31942956D01*
X44066387Y-31952921D01*
X44044443Y-31960773D01*
X44021834Y-31966437D01*
X43998779Y-31969856D01*
X43975500Y-31971000D01*
X43400500Y-31971000D01*
X43377221Y-31969856D01*
X43354166Y-31966437D01*
X43331557Y-31960773D01*
X43309613Y-31952921D01*
X43288543Y-31942956D01*
X43268552Y-31930974D01*
X43249832Y-31917090D01*
X43232562Y-31901438D01*
X43216910Y-31884168D01*
X43203026Y-31865448D01*
X43191044Y-31845457D01*
X43181079Y-31824387D01*
X43173227Y-31802443D01*
X43167563Y-31779834D01*
X43164144Y-31756779D01*
X43163000Y-31733500D01*
X43163000Y-31258500D01*
X43164144Y-31235221D01*
X43167563Y-31212166D01*
X43173227Y-31189557D01*
X43181079Y-31167613D01*
X43191044Y-31146543D01*
X43203026Y-31126552D01*
X43216910Y-31107832D01*
X43232562Y-31090562D01*
X43249832Y-31074910D01*
X43268552Y-31061026D01*
X43288543Y-31049044D01*
X43309613Y-31039079D01*
X43331557Y-31031227D01*
X43354166Y-31025563D01*
X43377221Y-31022144D01*
X43400500Y-31021000D01*
X43975500Y-31021000D01*
X43998779Y-31022144D01*
X43998779Y-31022144D01*
G37*
D12*
X43688000Y-31496000D03*
D11*
G36*
X42248779Y-31022144D02*
X42271834Y-31025563D01*
X42294443Y-31031227D01*
X42316387Y-31039079D01*
X42337457Y-31049044D01*
X42357448Y-31061026D01*
X42376168Y-31074910D01*
X42393438Y-31090562D01*
X42409090Y-31107832D01*
X42422974Y-31126552D01*
X42434956Y-31146543D01*
X42444921Y-31167613D01*
X42452773Y-31189557D01*
X42458437Y-31212166D01*
X42461856Y-31235221D01*
X42463000Y-31258500D01*
X42463000Y-31733500D01*
X42461856Y-31756779D01*
X42458437Y-31779834D01*
X42452773Y-31802443D01*
X42444921Y-31824387D01*
X42434956Y-31845457D01*
X42422974Y-31865448D01*
X42409090Y-31884168D01*
X42393438Y-31901438D01*
X42376168Y-31917090D01*
X42357448Y-31930974D01*
X42337457Y-31942956D01*
X42316387Y-31952921D01*
X42294443Y-31960773D01*
X42271834Y-31966437D01*
X42248779Y-31969856D01*
X42225500Y-31971000D01*
X41650500Y-31971000D01*
X41627221Y-31969856D01*
X41604166Y-31966437D01*
X41581557Y-31960773D01*
X41559613Y-31952921D01*
X41538543Y-31942956D01*
X41518552Y-31930974D01*
X41499832Y-31917090D01*
X41482562Y-31901438D01*
X41466910Y-31884168D01*
X41453026Y-31865448D01*
X41441044Y-31845457D01*
X41431079Y-31824387D01*
X41423227Y-31802443D01*
X41417563Y-31779834D01*
X41414144Y-31756779D01*
X41413000Y-31733500D01*
X41413000Y-31258500D01*
X41414144Y-31235221D01*
X41417563Y-31212166D01*
X41423227Y-31189557D01*
X41431079Y-31167613D01*
X41441044Y-31146543D01*
X41453026Y-31126552D01*
X41466910Y-31107832D01*
X41482562Y-31090562D01*
X41499832Y-31074910D01*
X41518552Y-31061026D01*
X41538543Y-31049044D01*
X41559613Y-31039079D01*
X41581557Y-31031227D01*
X41604166Y-31025563D01*
X41627221Y-31022144D01*
X41650500Y-31021000D01*
X42225500Y-31021000D01*
X42248779Y-31022144D01*
X42248779Y-31022144D01*
G37*
D12*
X41938000Y-31496000D03*
G04 #@! TD*
D11*
G04 #@! TO.C,R10*
G36*
X42248779Y-26958144D02*
X42271834Y-26961563D01*
X42294443Y-26967227D01*
X42316387Y-26975079D01*
X42337457Y-26985044D01*
X42357448Y-26997026D01*
X42376168Y-27010910D01*
X42393438Y-27026562D01*
X42409090Y-27043832D01*
X42422974Y-27062552D01*
X42434956Y-27082543D01*
X42444921Y-27103613D01*
X42452773Y-27125557D01*
X42458437Y-27148166D01*
X42461856Y-27171221D01*
X42463000Y-27194500D01*
X42463000Y-27669500D01*
X42461856Y-27692779D01*
X42458437Y-27715834D01*
X42452773Y-27738443D01*
X42444921Y-27760387D01*
X42434956Y-27781457D01*
X42422974Y-27801448D01*
X42409090Y-27820168D01*
X42393438Y-27837438D01*
X42376168Y-27853090D01*
X42357448Y-27866974D01*
X42337457Y-27878956D01*
X42316387Y-27888921D01*
X42294443Y-27896773D01*
X42271834Y-27902437D01*
X42248779Y-27905856D01*
X42225500Y-27907000D01*
X41650500Y-27907000D01*
X41627221Y-27905856D01*
X41604166Y-27902437D01*
X41581557Y-27896773D01*
X41559613Y-27888921D01*
X41538543Y-27878956D01*
X41518552Y-27866974D01*
X41499832Y-27853090D01*
X41482562Y-27837438D01*
X41466910Y-27820168D01*
X41453026Y-27801448D01*
X41441044Y-27781457D01*
X41431079Y-27760387D01*
X41423227Y-27738443D01*
X41417563Y-27715834D01*
X41414144Y-27692779D01*
X41413000Y-27669500D01*
X41413000Y-27194500D01*
X41414144Y-27171221D01*
X41417563Y-27148166D01*
X41423227Y-27125557D01*
X41431079Y-27103613D01*
X41441044Y-27082543D01*
X41453026Y-27062552D01*
X41466910Y-27043832D01*
X41482562Y-27026562D01*
X41499832Y-27010910D01*
X41518552Y-26997026D01*
X41538543Y-26985044D01*
X41559613Y-26975079D01*
X41581557Y-26967227D01*
X41604166Y-26961563D01*
X41627221Y-26958144D01*
X41650500Y-26957000D01*
X42225500Y-26957000D01*
X42248779Y-26958144D01*
X42248779Y-26958144D01*
G37*
D12*
X41938000Y-27432000D03*
D11*
G36*
X43998779Y-26958144D02*
X44021834Y-26961563D01*
X44044443Y-26967227D01*
X44066387Y-26975079D01*
X44087457Y-26985044D01*
X44107448Y-26997026D01*
X44126168Y-27010910D01*
X44143438Y-27026562D01*
X44159090Y-27043832D01*
X44172974Y-27062552D01*
X44184956Y-27082543D01*
X44194921Y-27103613D01*
X44202773Y-27125557D01*
X44208437Y-27148166D01*
X44211856Y-27171221D01*
X44213000Y-27194500D01*
X44213000Y-27669500D01*
X44211856Y-27692779D01*
X44208437Y-27715834D01*
X44202773Y-27738443D01*
X44194921Y-27760387D01*
X44184956Y-27781457D01*
X44172974Y-27801448D01*
X44159090Y-27820168D01*
X44143438Y-27837438D01*
X44126168Y-27853090D01*
X44107448Y-27866974D01*
X44087457Y-27878956D01*
X44066387Y-27888921D01*
X44044443Y-27896773D01*
X44021834Y-27902437D01*
X43998779Y-27905856D01*
X43975500Y-27907000D01*
X43400500Y-27907000D01*
X43377221Y-27905856D01*
X43354166Y-27902437D01*
X43331557Y-27896773D01*
X43309613Y-27888921D01*
X43288543Y-27878956D01*
X43268552Y-27866974D01*
X43249832Y-27853090D01*
X43232562Y-27837438D01*
X43216910Y-27820168D01*
X43203026Y-27801448D01*
X43191044Y-27781457D01*
X43181079Y-27760387D01*
X43173227Y-27738443D01*
X43167563Y-27715834D01*
X43164144Y-27692779D01*
X43163000Y-27669500D01*
X43163000Y-27194500D01*
X43164144Y-27171221D01*
X43167563Y-27148166D01*
X43173227Y-27125557D01*
X43181079Y-27103613D01*
X43191044Y-27082543D01*
X43203026Y-27062552D01*
X43216910Y-27043832D01*
X43232562Y-27026562D01*
X43249832Y-27010910D01*
X43268552Y-26997026D01*
X43288543Y-26985044D01*
X43309613Y-26975079D01*
X43331557Y-26967227D01*
X43354166Y-26961563D01*
X43377221Y-26958144D01*
X43400500Y-26957000D01*
X43975500Y-26957000D01*
X43998779Y-26958144D01*
X43998779Y-26958144D01*
G37*
D12*
X43688000Y-27432000D03*
G04 #@! TD*
D11*
G04 #@! TO.C,R13*
G36*
X47250779Y-40088144D02*
X47273834Y-40091563D01*
X47296443Y-40097227D01*
X47318387Y-40105079D01*
X47339457Y-40115044D01*
X47359448Y-40127026D01*
X47378168Y-40140910D01*
X47395438Y-40156562D01*
X47411090Y-40173832D01*
X47424974Y-40192552D01*
X47436956Y-40212543D01*
X47446921Y-40233613D01*
X47454773Y-40255557D01*
X47460437Y-40278166D01*
X47463856Y-40301221D01*
X47465000Y-40324500D01*
X47465000Y-40899500D01*
X47463856Y-40922779D01*
X47460437Y-40945834D01*
X47454773Y-40968443D01*
X47446921Y-40990387D01*
X47436956Y-41011457D01*
X47424974Y-41031448D01*
X47411090Y-41050168D01*
X47395438Y-41067438D01*
X47378168Y-41083090D01*
X47359448Y-41096974D01*
X47339457Y-41108956D01*
X47318387Y-41118921D01*
X47296443Y-41126773D01*
X47273834Y-41132437D01*
X47250779Y-41135856D01*
X47227500Y-41137000D01*
X46752500Y-41137000D01*
X46729221Y-41135856D01*
X46706166Y-41132437D01*
X46683557Y-41126773D01*
X46661613Y-41118921D01*
X46640543Y-41108956D01*
X46620552Y-41096974D01*
X46601832Y-41083090D01*
X46584562Y-41067438D01*
X46568910Y-41050168D01*
X46555026Y-41031448D01*
X46543044Y-41011457D01*
X46533079Y-40990387D01*
X46525227Y-40968443D01*
X46519563Y-40945834D01*
X46516144Y-40922779D01*
X46515000Y-40899500D01*
X46515000Y-40324500D01*
X46516144Y-40301221D01*
X46519563Y-40278166D01*
X46525227Y-40255557D01*
X46533079Y-40233613D01*
X46543044Y-40212543D01*
X46555026Y-40192552D01*
X46568910Y-40173832D01*
X46584562Y-40156562D01*
X46601832Y-40140910D01*
X46620552Y-40127026D01*
X46640543Y-40115044D01*
X46661613Y-40105079D01*
X46683557Y-40097227D01*
X46706166Y-40091563D01*
X46729221Y-40088144D01*
X46752500Y-40087000D01*
X47227500Y-40087000D01*
X47250779Y-40088144D01*
X47250779Y-40088144D01*
G37*
D12*
X46990000Y-40612000D03*
D11*
G36*
X47250779Y-38338144D02*
X47273834Y-38341563D01*
X47296443Y-38347227D01*
X47318387Y-38355079D01*
X47339457Y-38365044D01*
X47359448Y-38377026D01*
X47378168Y-38390910D01*
X47395438Y-38406562D01*
X47411090Y-38423832D01*
X47424974Y-38442552D01*
X47436956Y-38462543D01*
X47446921Y-38483613D01*
X47454773Y-38505557D01*
X47460437Y-38528166D01*
X47463856Y-38551221D01*
X47465000Y-38574500D01*
X47465000Y-39149500D01*
X47463856Y-39172779D01*
X47460437Y-39195834D01*
X47454773Y-39218443D01*
X47446921Y-39240387D01*
X47436956Y-39261457D01*
X47424974Y-39281448D01*
X47411090Y-39300168D01*
X47395438Y-39317438D01*
X47378168Y-39333090D01*
X47359448Y-39346974D01*
X47339457Y-39358956D01*
X47318387Y-39368921D01*
X47296443Y-39376773D01*
X47273834Y-39382437D01*
X47250779Y-39385856D01*
X47227500Y-39387000D01*
X46752500Y-39387000D01*
X46729221Y-39385856D01*
X46706166Y-39382437D01*
X46683557Y-39376773D01*
X46661613Y-39368921D01*
X46640543Y-39358956D01*
X46620552Y-39346974D01*
X46601832Y-39333090D01*
X46584562Y-39317438D01*
X46568910Y-39300168D01*
X46555026Y-39281448D01*
X46543044Y-39261457D01*
X46533079Y-39240387D01*
X46525227Y-39218443D01*
X46519563Y-39195834D01*
X46516144Y-39172779D01*
X46515000Y-39149500D01*
X46515000Y-38574500D01*
X46516144Y-38551221D01*
X46519563Y-38528166D01*
X46525227Y-38505557D01*
X46533079Y-38483613D01*
X46543044Y-38462543D01*
X46555026Y-38442552D01*
X46568910Y-38423832D01*
X46584562Y-38406562D01*
X46601832Y-38390910D01*
X46620552Y-38377026D01*
X46640543Y-38365044D01*
X46661613Y-38355079D01*
X46683557Y-38347227D01*
X46706166Y-38341563D01*
X46729221Y-38338144D01*
X46752500Y-38337000D01*
X47227500Y-38337000D01*
X47250779Y-38338144D01*
X47250779Y-38338144D01*
G37*
D12*
X46990000Y-38862000D03*
G04 #@! TD*
D11*
G04 #@! TO.C,R17*
G36*
X42248779Y-20862144D02*
X42271834Y-20865563D01*
X42294443Y-20871227D01*
X42316387Y-20879079D01*
X42337457Y-20889044D01*
X42357448Y-20901026D01*
X42376168Y-20914910D01*
X42393438Y-20930562D01*
X42409090Y-20947832D01*
X42422974Y-20966552D01*
X42434956Y-20986543D01*
X42444921Y-21007613D01*
X42452773Y-21029557D01*
X42458437Y-21052166D01*
X42461856Y-21075221D01*
X42463000Y-21098500D01*
X42463000Y-21573500D01*
X42461856Y-21596779D01*
X42458437Y-21619834D01*
X42452773Y-21642443D01*
X42444921Y-21664387D01*
X42434956Y-21685457D01*
X42422974Y-21705448D01*
X42409090Y-21724168D01*
X42393438Y-21741438D01*
X42376168Y-21757090D01*
X42357448Y-21770974D01*
X42337457Y-21782956D01*
X42316387Y-21792921D01*
X42294443Y-21800773D01*
X42271834Y-21806437D01*
X42248779Y-21809856D01*
X42225500Y-21811000D01*
X41650500Y-21811000D01*
X41627221Y-21809856D01*
X41604166Y-21806437D01*
X41581557Y-21800773D01*
X41559613Y-21792921D01*
X41538543Y-21782956D01*
X41518552Y-21770974D01*
X41499832Y-21757090D01*
X41482562Y-21741438D01*
X41466910Y-21724168D01*
X41453026Y-21705448D01*
X41441044Y-21685457D01*
X41431079Y-21664387D01*
X41423227Y-21642443D01*
X41417563Y-21619834D01*
X41414144Y-21596779D01*
X41413000Y-21573500D01*
X41413000Y-21098500D01*
X41414144Y-21075221D01*
X41417563Y-21052166D01*
X41423227Y-21029557D01*
X41431079Y-21007613D01*
X41441044Y-20986543D01*
X41453026Y-20966552D01*
X41466910Y-20947832D01*
X41482562Y-20930562D01*
X41499832Y-20914910D01*
X41518552Y-20901026D01*
X41538543Y-20889044D01*
X41559613Y-20879079D01*
X41581557Y-20871227D01*
X41604166Y-20865563D01*
X41627221Y-20862144D01*
X41650500Y-20861000D01*
X42225500Y-20861000D01*
X42248779Y-20862144D01*
X42248779Y-20862144D01*
G37*
D12*
X41938000Y-21336000D03*
D11*
G36*
X43998779Y-20862144D02*
X44021834Y-20865563D01*
X44044443Y-20871227D01*
X44066387Y-20879079D01*
X44087457Y-20889044D01*
X44107448Y-20901026D01*
X44126168Y-20914910D01*
X44143438Y-20930562D01*
X44159090Y-20947832D01*
X44172974Y-20966552D01*
X44184956Y-20986543D01*
X44194921Y-21007613D01*
X44202773Y-21029557D01*
X44208437Y-21052166D01*
X44211856Y-21075221D01*
X44213000Y-21098500D01*
X44213000Y-21573500D01*
X44211856Y-21596779D01*
X44208437Y-21619834D01*
X44202773Y-21642443D01*
X44194921Y-21664387D01*
X44184956Y-21685457D01*
X44172974Y-21705448D01*
X44159090Y-21724168D01*
X44143438Y-21741438D01*
X44126168Y-21757090D01*
X44107448Y-21770974D01*
X44087457Y-21782956D01*
X44066387Y-21792921D01*
X44044443Y-21800773D01*
X44021834Y-21806437D01*
X43998779Y-21809856D01*
X43975500Y-21811000D01*
X43400500Y-21811000D01*
X43377221Y-21809856D01*
X43354166Y-21806437D01*
X43331557Y-21800773D01*
X43309613Y-21792921D01*
X43288543Y-21782956D01*
X43268552Y-21770974D01*
X43249832Y-21757090D01*
X43232562Y-21741438D01*
X43216910Y-21724168D01*
X43203026Y-21705448D01*
X43191044Y-21685457D01*
X43181079Y-21664387D01*
X43173227Y-21642443D01*
X43167563Y-21619834D01*
X43164144Y-21596779D01*
X43163000Y-21573500D01*
X43163000Y-21098500D01*
X43164144Y-21075221D01*
X43167563Y-21052166D01*
X43173227Y-21029557D01*
X43181079Y-21007613D01*
X43191044Y-20986543D01*
X43203026Y-20966552D01*
X43216910Y-20947832D01*
X43232562Y-20930562D01*
X43249832Y-20914910D01*
X43268552Y-20901026D01*
X43288543Y-20889044D01*
X43309613Y-20879079D01*
X43331557Y-20871227D01*
X43354166Y-20865563D01*
X43377221Y-20862144D01*
X43400500Y-20861000D01*
X43975500Y-20861000D01*
X43998779Y-20862144D01*
X43998779Y-20862144D01*
G37*
D12*
X43688000Y-21336000D03*
G04 #@! TD*
D11*
G04 #@! TO.C,C8*
G36*
X43694779Y-38338144D02*
X43717834Y-38341563D01*
X43740443Y-38347227D01*
X43762387Y-38355079D01*
X43783457Y-38365044D01*
X43803448Y-38377026D01*
X43822168Y-38390910D01*
X43839438Y-38406562D01*
X43855090Y-38423832D01*
X43868974Y-38442552D01*
X43880956Y-38462543D01*
X43890921Y-38483613D01*
X43898773Y-38505557D01*
X43904437Y-38528166D01*
X43907856Y-38551221D01*
X43909000Y-38574500D01*
X43909000Y-39149500D01*
X43907856Y-39172779D01*
X43904437Y-39195834D01*
X43898773Y-39218443D01*
X43890921Y-39240387D01*
X43880956Y-39261457D01*
X43868974Y-39281448D01*
X43855090Y-39300168D01*
X43839438Y-39317438D01*
X43822168Y-39333090D01*
X43803448Y-39346974D01*
X43783457Y-39358956D01*
X43762387Y-39368921D01*
X43740443Y-39376773D01*
X43717834Y-39382437D01*
X43694779Y-39385856D01*
X43671500Y-39387000D01*
X43196500Y-39387000D01*
X43173221Y-39385856D01*
X43150166Y-39382437D01*
X43127557Y-39376773D01*
X43105613Y-39368921D01*
X43084543Y-39358956D01*
X43064552Y-39346974D01*
X43045832Y-39333090D01*
X43028562Y-39317438D01*
X43012910Y-39300168D01*
X42999026Y-39281448D01*
X42987044Y-39261457D01*
X42977079Y-39240387D01*
X42969227Y-39218443D01*
X42963563Y-39195834D01*
X42960144Y-39172779D01*
X42959000Y-39149500D01*
X42959000Y-38574500D01*
X42960144Y-38551221D01*
X42963563Y-38528166D01*
X42969227Y-38505557D01*
X42977079Y-38483613D01*
X42987044Y-38462543D01*
X42999026Y-38442552D01*
X43012910Y-38423832D01*
X43028562Y-38406562D01*
X43045832Y-38390910D01*
X43064552Y-38377026D01*
X43084543Y-38365044D01*
X43105613Y-38355079D01*
X43127557Y-38347227D01*
X43150166Y-38341563D01*
X43173221Y-38338144D01*
X43196500Y-38337000D01*
X43671500Y-38337000D01*
X43694779Y-38338144D01*
X43694779Y-38338144D01*
G37*
D12*
X43434000Y-38862000D03*
D11*
G36*
X43694779Y-40088144D02*
X43717834Y-40091563D01*
X43740443Y-40097227D01*
X43762387Y-40105079D01*
X43783457Y-40115044D01*
X43803448Y-40127026D01*
X43822168Y-40140910D01*
X43839438Y-40156562D01*
X43855090Y-40173832D01*
X43868974Y-40192552D01*
X43880956Y-40212543D01*
X43890921Y-40233613D01*
X43898773Y-40255557D01*
X43904437Y-40278166D01*
X43907856Y-40301221D01*
X43909000Y-40324500D01*
X43909000Y-40899500D01*
X43907856Y-40922779D01*
X43904437Y-40945834D01*
X43898773Y-40968443D01*
X43890921Y-40990387D01*
X43880956Y-41011457D01*
X43868974Y-41031448D01*
X43855090Y-41050168D01*
X43839438Y-41067438D01*
X43822168Y-41083090D01*
X43803448Y-41096974D01*
X43783457Y-41108956D01*
X43762387Y-41118921D01*
X43740443Y-41126773D01*
X43717834Y-41132437D01*
X43694779Y-41135856D01*
X43671500Y-41137000D01*
X43196500Y-41137000D01*
X43173221Y-41135856D01*
X43150166Y-41132437D01*
X43127557Y-41126773D01*
X43105613Y-41118921D01*
X43084543Y-41108956D01*
X43064552Y-41096974D01*
X43045832Y-41083090D01*
X43028562Y-41067438D01*
X43012910Y-41050168D01*
X42999026Y-41031448D01*
X42987044Y-41011457D01*
X42977079Y-40990387D01*
X42969227Y-40968443D01*
X42963563Y-40945834D01*
X42960144Y-40922779D01*
X42959000Y-40899500D01*
X42959000Y-40324500D01*
X42960144Y-40301221D01*
X42963563Y-40278166D01*
X42969227Y-40255557D01*
X42977079Y-40233613D01*
X42987044Y-40212543D01*
X42999026Y-40192552D01*
X43012910Y-40173832D01*
X43028562Y-40156562D01*
X43045832Y-40140910D01*
X43064552Y-40127026D01*
X43084543Y-40115044D01*
X43105613Y-40105079D01*
X43127557Y-40097227D01*
X43150166Y-40091563D01*
X43173221Y-40088144D01*
X43196500Y-40087000D01*
X43671500Y-40087000D01*
X43694779Y-40088144D01*
X43694779Y-40088144D01*
G37*
D12*
X43434000Y-40612000D03*
G04 #@! TD*
D11*
G04 #@! TO.C,C10*
G36*
X45472779Y-38338144D02*
X45495834Y-38341563D01*
X45518443Y-38347227D01*
X45540387Y-38355079D01*
X45561457Y-38365044D01*
X45581448Y-38377026D01*
X45600168Y-38390910D01*
X45617438Y-38406562D01*
X45633090Y-38423832D01*
X45646974Y-38442552D01*
X45658956Y-38462543D01*
X45668921Y-38483613D01*
X45676773Y-38505557D01*
X45682437Y-38528166D01*
X45685856Y-38551221D01*
X45687000Y-38574500D01*
X45687000Y-39149500D01*
X45685856Y-39172779D01*
X45682437Y-39195834D01*
X45676773Y-39218443D01*
X45668921Y-39240387D01*
X45658956Y-39261457D01*
X45646974Y-39281448D01*
X45633090Y-39300168D01*
X45617438Y-39317438D01*
X45600168Y-39333090D01*
X45581448Y-39346974D01*
X45561457Y-39358956D01*
X45540387Y-39368921D01*
X45518443Y-39376773D01*
X45495834Y-39382437D01*
X45472779Y-39385856D01*
X45449500Y-39387000D01*
X44974500Y-39387000D01*
X44951221Y-39385856D01*
X44928166Y-39382437D01*
X44905557Y-39376773D01*
X44883613Y-39368921D01*
X44862543Y-39358956D01*
X44842552Y-39346974D01*
X44823832Y-39333090D01*
X44806562Y-39317438D01*
X44790910Y-39300168D01*
X44777026Y-39281448D01*
X44765044Y-39261457D01*
X44755079Y-39240387D01*
X44747227Y-39218443D01*
X44741563Y-39195834D01*
X44738144Y-39172779D01*
X44737000Y-39149500D01*
X44737000Y-38574500D01*
X44738144Y-38551221D01*
X44741563Y-38528166D01*
X44747227Y-38505557D01*
X44755079Y-38483613D01*
X44765044Y-38462543D01*
X44777026Y-38442552D01*
X44790910Y-38423832D01*
X44806562Y-38406562D01*
X44823832Y-38390910D01*
X44842552Y-38377026D01*
X44862543Y-38365044D01*
X44883613Y-38355079D01*
X44905557Y-38347227D01*
X44928166Y-38341563D01*
X44951221Y-38338144D01*
X44974500Y-38337000D01*
X45449500Y-38337000D01*
X45472779Y-38338144D01*
X45472779Y-38338144D01*
G37*
D12*
X45212000Y-38862000D03*
D11*
G36*
X45472779Y-40088144D02*
X45495834Y-40091563D01*
X45518443Y-40097227D01*
X45540387Y-40105079D01*
X45561457Y-40115044D01*
X45581448Y-40127026D01*
X45600168Y-40140910D01*
X45617438Y-40156562D01*
X45633090Y-40173832D01*
X45646974Y-40192552D01*
X45658956Y-40212543D01*
X45668921Y-40233613D01*
X45676773Y-40255557D01*
X45682437Y-40278166D01*
X45685856Y-40301221D01*
X45687000Y-40324500D01*
X45687000Y-40899500D01*
X45685856Y-40922779D01*
X45682437Y-40945834D01*
X45676773Y-40968443D01*
X45668921Y-40990387D01*
X45658956Y-41011457D01*
X45646974Y-41031448D01*
X45633090Y-41050168D01*
X45617438Y-41067438D01*
X45600168Y-41083090D01*
X45581448Y-41096974D01*
X45561457Y-41108956D01*
X45540387Y-41118921D01*
X45518443Y-41126773D01*
X45495834Y-41132437D01*
X45472779Y-41135856D01*
X45449500Y-41137000D01*
X44974500Y-41137000D01*
X44951221Y-41135856D01*
X44928166Y-41132437D01*
X44905557Y-41126773D01*
X44883613Y-41118921D01*
X44862543Y-41108956D01*
X44842552Y-41096974D01*
X44823832Y-41083090D01*
X44806562Y-41067438D01*
X44790910Y-41050168D01*
X44777026Y-41031448D01*
X44765044Y-41011457D01*
X44755079Y-40990387D01*
X44747227Y-40968443D01*
X44741563Y-40945834D01*
X44738144Y-40922779D01*
X44737000Y-40899500D01*
X44737000Y-40324500D01*
X44738144Y-40301221D01*
X44741563Y-40278166D01*
X44747227Y-40255557D01*
X44755079Y-40233613D01*
X44765044Y-40212543D01*
X44777026Y-40192552D01*
X44790910Y-40173832D01*
X44806562Y-40156562D01*
X44823832Y-40140910D01*
X44842552Y-40127026D01*
X44862543Y-40115044D01*
X44883613Y-40105079D01*
X44905557Y-40097227D01*
X44928166Y-40091563D01*
X44951221Y-40088144D01*
X44974500Y-40087000D01*
X45449500Y-40087000D01*
X45472779Y-40088144D01*
X45472779Y-40088144D01*
G37*
D12*
X45212000Y-40612000D03*
G04 #@! TD*
D14*
G04 #@! TO.C,U2*
X9221216Y-23158660D03*
D11*
G36*
X8948980Y-23593531D02*
X8786345Y-23430896D01*
X9493452Y-22723789D01*
X9656087Y-22886424D01*
X8948980Y-23593531D01*
X8948980Y-23593531D01*
G37*
D14*
X9504058Y-23441503D03*
D11*
G36*
X9231822Y-23876374D02*
X9069187Y-23713739D01*
X9776294Y-23006632D01*
X9938929Y-23169267D01*
X9231822Y-23876374D01*
X9231822Y-23876374D01*
G37*
D14*
X9786901Y-23724346D03*
D11*
G36*
X9514665Y-24159217D02*
X9352030Y-23996582D01*
X10059137Y-23289475D01*
X10221772Y-23452110D01*
X9514665Y-24159217D01*
X9514665Y-24159217D01*
G37*
D14*
X10069744Y-24007188D03*
D11*
G36*
X9797508Y-24442059D02*
X9634873Y-24279424D01*
X10341980Y-23572317D01*
X10504615Y-23734952D01*
X9797508Y-24442059D01*
X9797508Y-24442059D01*
G37*
D14*
X10352587Y-24290031D03*
D11*
G36*
X10080351Y-24724902D02*
X9917716Y-24562267D01*
X10624823Y-23855160D01*
X10787458Y-24017795D01*
X10080351Y-24724902D01*
X10080351Y-24724902D01*
G37*
D14*
X10635429Y-24572874D03*
D11*
G36*
X10363193Y-25007745D02*
X10200558Y-24845110D01*
X10907665Y-24138003D01*
X11070300Y-24300638D01*
X10363193Y-25007745D01*
X10363193Y-25007745D01*
G37*
D14*
X10918272Y-24855716D03*
D11*
G36*
X10646036Y-25290587D02*
X10483401Y-25127952D01*
X11190508Y-24420845D01*
X11353143Y-24583480D01*
X10646036Y-25290587D01*
X10646036Y-25290587D01*
G37*
D14*
X11201115Y-25138559D03*
D11*
G36*
X10928879Y-25573430D02*
X10766244Y-25410795D01*
X11473351Y-24703688D01*
X11635986Y-24866323D01*
X10928879Y-25573430D01*
X10928879Y-25573430D01*
G37*
D14*
X11483957Y-25421402D03*
D11*
G36*
X11211721Y-25856273D02*
X11049086Y-25693638D01*
X11756193Y-24986531D01*
X11918828Y-25149166D01*
X11211721Y-25856273D01*
X11211721Y-25856273D01*
G37*
D14*
X11766800Y-25704245D03*
D11*
G36*
X11494564Y-26139116D02*
X11331929Y-25976481D01*
X12039036Y-25269374D01*
X12201671Y-25432009D01*
X11494564Y-26139116D01*
X11494564Y-26139116D01*
G37*
D14*
X12049643Y-25987087D03*
D11*
G36*
X11777407Y-26421958D02*
X11614772Y-26259323D01*
X12321879Y-25552216D01*
X12484514Y-25714851D01*
X11777407Y-26421958D01*
X11777407Y-26421958D01*
G37*
D14*
X12332486Y-26269930D03*
D11*
G36*
X12060250Y-26704801D02*
X11897615Y-26542166D01*
X12604722Y-25835059D01*
X12767357Y-25997694D01*
X12060250Y-26704801D01*
X12060250Y-26704801D01*
G37*
D14*
X12615328Y-26552773D03*
D11*
G36*
X12343092Y-26987644D02*
X12180457Y-26825009D01*
X12887564Y-26117902D01*
X13050199Y-26280537D01*
X12343092Y-26987644D01*
X12343092Y-26987644D01*
G37*
D14*
X12898171Y-26835615D03*
D11*
G36*
X12625935Y-27270486D02*
X12463300Y-27107851D01*
X13170407Y-26400744D01*
X13333042Y-26563379D01*
X12625935Y-27270486D01*
X12625935Y-27270486D01*
G37*
D14*
X13181014Y-27118458D03*
D11*
G36*
X12908778Y-27553329D02*
X12746143Y-27390694D01*
X13453250Y-26683587D01*
X13615885Y-26846222D01*
X12908778Y-27553329D01*
X12908778Y-27553329D01*
G37*
D14*
X13463856Y-27401301D03*
D11*
G36*
X13191620Y-27836172D02*
X13028985Y-27673537D01*
X13736092Y-26966430D01*
X13898727Y-27129065D01*
X13191620Y-27836172D01*
X13191620Y-27836172D01*
G37*
D14*
X13746699Y-27684144D03*
D11*
G36*
X13474463Y-28119015D02*
X13311828Y-27956380D01*
X14018935Y-27249273D01*
X14181570Y-27411908D01*
X13474463Y-28119015D01*
X13474463Y-28119015D01*
G37*
D14*
X14029542Y-27966986D03*
D11*
G36*
X13757306Y-28401857D02*
X13594671Y-28239222D01*
X14301778Y-27532115D01*
X14464413Y-27694750D01*
X13757306Y-28401857D01*
X13757306Y-28401857D01*
G37*
D14*
X14312385Y-28249829D03*
D11*
G36*
X14040149Y-28684700D02*
X13877514Y-28522065D01*
X14584621Y-27814958D01*
X14747256Y-27977593D01*
X14040149Y-28684700D01*
X14040149Y-28684700D01*
G37*
D14*
X14595227Y-28532672D03*
D11*
G36*
X14322991Y-28967543D02*
X14160356Y-28804908D01*
X14867463Y-28097801D01*
X15030098Y-28260436D01*
X14322991Y-28967543D01*
X14322991Y-28967543D01*
G37*
D14*
X14878070Y-28815514D03*
D11*
G36*
X14605834Y-29250385D02*
X14443199Y-29087750D01*
X15150306Y-28380643D01*
X15312941Y-28543278D01*
X14605834Y-29250385D01*
X14605834Y-29250385D01*
G37*
D14*
X15160913Y-29098357D03*
D11*
G36*
X14888677Y-29533228D02*
X14726042Y-29370593D01*
X15433149Y-28663486D01*
X15595784Y-28826121D01*
X14888677Y-29533228D01*
X14888677Y-29533228D01*
G37*
D14*
X15443755Y-29381200D03*
D11*
G36*
X15171519Y-29816071D02*
X15008884Y-29653436D01*
X15715991Y-28946329D01*
X15878626Y-29108964D01*
X15171519Y-29816071D01*
X15171519Y-29816071D01*
G37*
D14*
X15726598Y-29664043D03*
D11*
G36*
X15454362Y-30098914D02*
X15291727Y-29936279D01*
X15998834Y-29229172D01*
X16161469Y-29391807D01*
X15454362Y-30098914D01*
X15454362Y-30098914D01*
G37*
D14*
X16009441Y-29946885D03*
D11*
G36*
X15737205Y-30381756D02*
X15574570Y-30219121D01*
X16281677Y-29512014D01*
X16444312Y-29674649D01*
X15737205Y-30381756D01*
X15737205Y-30381756D01*
G37*
D14*
X16292284Y-30229728D03*
D11*
G36*
X16020048Y-30664599D02*
X15857413Y-30501964D01*
X16564520Y-29794857D01*
X16727155Y-29957492D01*
X16020048Y-30664599D01*
X16020048Y-30664599D01*
G37*
D14*
X16575126Y-30512571D03*
D11*
G36*
X16302890Y-30947442D02*
X16140255Y-30784807D01*
X16847362Y-30077700D01*
X17009997Y-30240335D01*
X16302890Y-30947442D01*
X16302890Y-30947442D01*
G37*
D14*
X16857969Y-30795413D03*
D11*
G36*
X16585733Y-31230284D02*
X16423098Y-31067649D01*
X17130205Y-30360542D01*
X17292840Y-30523177D01*
X16585733Y-31230284D01*
X16585733Y-31230284D01*
G37*
D14*
X17140812Y-31078256D03*
D11*
G36*
X16868576Y-31513127D02*
X16705941Y-31350492D01*
X17413048Y-30643385D01*
X17575683Y-30806020D01*
X16868576Y-31513127D01*
X16868576Y-31513127D01*
G37*
D14*
X17423654Y-31361099D03*
D11*
G36*
X17151418Y-31795970D02*
X16988783Y-31633335D01*
X17695890Y-30926228D01*
X17858525Y-31088863D01*
X17151418Y-31795970D01*
X17151418Y-31795970D01*
G37*
D14*
X17706497Y-31643942D03*
D11*
G36*
X17434261Y-32078813D02*
X17271626Y-31916178D01*
X17978733Y-31209071D01*
X18141368Y-31371706D01*
X17434261Y-32078813D01*
X17434261Y-32078813D01*
G37*
D14*
X17989340Y-31926784D03*
D11*
G36*
X17717104Y-32361655D02*
X17554469Y-32199020D01*
X18261576Y-31491913D01*
X18424211Y-31654548D01*
X17717104Y-32361655D01*
X17717104Y-32361655D01*
G37*
D14*
X20110660Y-31926784D03*
D11*
G36*
X20545531Y-32199020D02*
X20382896Y-32361655D01*
X19675789Y-31654548D01*
X19838424Y-31491913D01*
X20545531Y-32199020D01*
X20545531Y-32199020D01*
G37*
D14*
X20393503Y-31643942D03*
D11*
G36*
X20828374Y-31916178D02*
X20665739Y-32078813D01*
X19958632Y-31371706D01*
X20121267Y-31209071D01*
X20828374Y-31916178D01*
X20828374Y-31916178D01*
G37*
D14*
X20676346Y-31361099D03*
D11*
G36*
X21111217Y-31633335D02*
X20948582Y-31795970D01*
X20241475Y-31088863D01*
X20404110Y-30926228D01*
X21111217Y-31633335D01*
X21111217Y-31633335D01*
G37*
D14*
X20959188Y-31078256D03*
D11*
G36*
X21394059Y-31350492D02*
X21231424Y-31513127D01*
X20524317Y-30806020D01*
X20686952Y-30643385D01*
X21394059Y-31350492D01*
X21394059Y-31350492D01*
G37*
D14*
X21242031Y-30795413D03*
D11*
G36*
X21676902Y-31067649D02*
X21514267Y-31230284D01*
X20807160Y-30523177D01*
X20969795Y-30360542D01*
X21676902Y-31067649D01*
X21676902Y-31067649D01*
G37*
D14*
X21524874Y-30512571D03*
D11*
G36*
X21959745Y-30784807D02*
X21797110Y-30947442D01*
X21090003Y-30240335D01*
X21252638Y-30077700D01*
X21959745Y-30784807D01*
X21959745Y-30784807D01*
G37*
D14*
X21807716Y-30229728D03*
D11*
G36*
X22242587Y-30501964D02*
X22079952Y-30664599D01*
X21372845Y-29957492D01*
X21535480Y-29794857D01*
X22242587Y-30501964D01*
X22242587Y-30501964D01*
G37*
D14*
X22090559Y-29946885D03*
D11*
G36*
X22525430Y-30219121D02*
X22362795Y-30381756D01*
X21655688Y-29674649D01*
X21818323Y-29512014D01*
X22525430Y-30219121D01*
X22525430Y-30219121D01*
G37*
D14*
X22373402Y-29664043D03*
D11*
G36*
X22808273Y-29936279D02*
X22645638Y-30098914D01*
X21938531Y-29391807D01*
X22101166Y-29229172D01*
X22808273Y-29936279D01*
X22808273Y-29936279D01*
G37*
D14*
X22656245Y-29381200D03*
D11*
G36*
X23091116Y-29653436D02*
X22928481Y-29816071D01*
X22221374Y-29108964D01*
X22384009Y-28946329D01*
X23091116Y-29653436D01*
X23091116Y-29653436D01*
G37*
D14*
X22939087Y-29098357D03*
D11*
G36*
X23373958Y-29370593D02*
X23211323Y-29533228D01*
X22504216Y-28826121D01*
X22666851Y-28663486D01*
X23373958Y-29370593D01*
X23373958Y-29370593D01*
G37*
D14*
X23221930Y-28815514D03*
D11*
G36*
X23656801Y-29087750D02*
X23494166Y-29250385D01*
X22787059Y-28543278D01*
X22949694Y-28380643D01*
X23656801Y-29087750D01*
X23656801Y-29087750D01*
G37*
D14*
X23504773Y-28532672D03*
D11*
G36*
X23939644Y-28804908D02*
X23777009Y-28967543D01*
X23069902Y-28260436D01*
X23232537Y-28097801D01*
X23939644Y-28804908D01*
X23939644Y-28804908D01*
G37*
D14*
X23787615Y-28249829D03*
D11*
G36*
X24222486Y-28522065D02*
X24059851Y-28684700D01*
X23352744Y-27977593D01*
X23515379Y-27814958D01*
X24222486Y-28522065D01*
X24222486Y-28522065D01*
G37*
D14*
X24070458Y-27966986D03*
D11*
G36*
X24505329Y-28239222D02*
X24342694Y-28401857D01*
X23635587Y-27694750D01*
X23798222Y-27532115D01*
X24505329Y-28239222D01*
X24505329Y-28239222D01*
G37*
D14*
X24353301Y-27684144D03*
D11*
G36*
X24788172Y-27956380D02*
X24625537Y-28119015D01*
X23918430Y-27411908D01*
X24081065Y-27249273D01*
X24788172Y-27956380D01*
X24788172Y-27956380D01*
G37*
D14*
X24636144Y-27401301D03*
D11*
G36*
X25071015Y-27673537D02*
X24908380Y-27836172D01*
X24201273Y-27129065D01*
X24363908Y-26966430D01*
X25071015Y-27673537D01*
X25071015Y-27673537D01*
G37*
D14*
X24918986Y-27118458D03*
D11*
G36*
X25353857Y-27390694D02*
X25191222Y-27553329D01*
X24484115Y-26846222D01*
X24646750Y-26683587D01*
X25353857Y-27390694D01*
X25353857Y-27390694D01*
G37*
D14*
X25201829Y-26835615D03*
D11*
G36*
X25636700Y-27107851D02*
X25474065Y-27270486D01*
X24766958Y-26563379D01*
X24929593Y-26400744D01*
X25636700Y-27107851D01*
X25636700Y-27107851D01*
G37*
D14*
X25484672Y-26552773D03*
D11*
G36*
X25919543Y-26825009D02*
X25756908Y-26987644D01*
X25049801Y-26280537D01*
X25212436Y-26117902D01*
X25919543Y-26825009D01*
X25919543Y-26825009D01*
G37*
D14*
X25767514Y-26269930D03*
D11*
G36*
X26202385Y-26542166D02*
X26039750Y-26704801D01*
X25332643Y-25997694D01*
X25495278Y-25835059D01*
X26202385Y-26542166D01*
X26202385Y-26542166D01*
G37*
D14*
X26050357Y-25987087D03*
D11*
G36*
X26485228Y-26259323D02*
X26322593Y-26421958D01*
X25615486Y-25714851D01*
X25778121Y-25552216D01*
X26485228Y-26259323D01*
X26485228Y-26259323D01*
G37*
D14*
X26333200Y-25704245D03*
D11*
G36*
X26768071Y-25976481D02*
X26605436Y-26139116D01*
X25898329Y-25432009D01*
X26060964Y-25269374D01*
X26768071Y-25976481D01*
X26768071Y-25976481D01*
G37*
D14*
X26616043Y-25421402D03*
D11*
G36*
X27050914Y-25693638D02*
X26888279Y-25856273D01*
X26181172Y-25149166D01*
X26343807Y-24986531D01*
X27050914Y-25693638D01*
X27050914Y-25693638D01*
G37*
D14*
X26898885Y-25138559D03*
D11*
G36*
X27333756Y-25410795D02*
X27171121Y-25573430D01*
X26464014Y-24866323D01*
X26626649Y-24703688D01*
X27333756Y-25410795D01*
X27333756Y-25410795D01*
G37*
D14*
X27181728Y-24855716D03*
D11*
G36*
X27616599Y-25127952D02*
X27453964Y-25290587D01*
X26746857Y-24583480D01*
X26909492Y-24420845D01*
X27616599Y-25127952D01*
X27616599Y-25127952D01*
G37*
D14*
X27464571Y-24572874D03*
D11*
G36*
X27899442Y-24845110D02*
X27736807Y-25007745D01*
X27029700Y-24300638D01*
X27192335Y-24138003D01*
X27899442Y-24845110D01*
X27899442Y-24845110D01*
G37*
D14*
X27747413Y-24290031D03*
D11*
G36*
X28182284Y-24562267D02*
X28019649Y-24724902D01*
X27312542Y-24017795D01*
X27475177Y-23855160D01*
X28182284Y-24562267D01*
X28182284Y-24562267D01*
G37*
D14*
X28030256Y-24007188D03*
D11*
G36*
X28465127Y-24279424D02*
X28302492Y-24442059D01*
X27595385Y-23734952D01*
X27758020Y-23572317D01*
X28465127Y-24279424D01*
X28465127Y-24279424D01*
G37*
D14*
X28313099Y-23724346D03*
D11*
G36*
X28747970Y-23996582D02*
X28585335Y-24159217D01*
X27878228Y-23452110D01*
X28040863Y-23289475D01*
X28747970Y-23996582D01*
X28747970Y-23996582D01*
G37*
D14*
X28595942Y-23441503D03*
D11*
G36*
X29030813Y-23713739D02*
X28868178Y-23876374D01*
X28161071Y-23169267D01*
X28323706Y-23006632D01*
X29030813Y-23713739D01*
X29030813Y-23713739D01*
G37*
D14*
X28878784Y-23158660D03*
D11*
G36*
X29313655Y-23430896D02*
X29151020Y-23593531D01*
X28443913Y-22886424D01*
X28606548Y-22723789D01*
X29313655Y-23430896D01*
X29313655Y-23430896D01*
G37*
D14*
X28878784Y-21037340D03*
D11*
G36*
X28606548Y-21472211D02*
X28443913Y-21309576D01*
X29151020Y-20602469D01*
X29313655Y-20765104D01*
X28606548Y-21472211D01*
X28606548Y-21472211D01*
G37*
D14*
X28595942Y-20754497D03*
D11*
G36*
X28323706Y-21189368D02*
X28161071Y-21026733D01*
X28868178Y-20319626D01*
X29030813Y-20482261D01*
X28323706Y-21189368D01*
X28323706Y-21189368D01*
G37*
D14*
X28313099Y-20471654D03*
D11*
G36*
X28040863Y-20906525D02*
X27878228Y-20743890D01*
X28585335Y-20036783D01*
X28747970Y-20199418D01*
X28040863Y-20906525D01*
X28040863Y-20906525D01*
G37*
D14*
X28030256Y-20188812D03*
D11*
G36*
X27758020Y-20623683D02*
X27595385Y-20461048D01*
X28302492Y-19753941D01*
X28465127Y-19916576D01*
X27758020Y-20623683D01*
X27758020Y-20623683D01*
G37*
D14*
X27747413Y-19905969D03*
D11*
G36*
X27475177Y-20340840D02*
X27312542Y-20178205D01*
X28019649Y-19471098D01*
X28182284Y-19633733D01*
X27475177Y-20340840D01*
X27475177Y-20340840D01*
G37*
D14*
X27464571Y-19623126D03*
D11*
G36*
X27192335Y-20057997D02*
X27029700Y-19895362D01*
X27736807Y-19188255D01*
X27899442Y-19350890D01*
X27192335Y-20057997D01*
X27192335Y-20057997D01*
G37*
D14*
X27181728Y-19340284D03*
D11*
G36*
X26909492Y-19775155D02*
X26746857Y-19612520D01*
X27453964Y-18905413D01*
X27616599Y-19068048D01*
X26909492Y-19775155D01*
X26909492Y-19775155D01*
G37*
D14*
X26898885Y-19057441D03*
D11*
G36*
X26626649Y-19492312D02*
X26464014Y-19329677D01*
X27171121Y-18622570D01*
X27333756Y-18785205D01*
X26626649Y-19492312D01*
X26626649Y-19492312D01*
G37*
D14*
X26616043Y-18774598D03*
D11*
G36*
X26343807Y-19209469D02*
X26181172Y-19046834D01*
X26888279Y-18339727D01*
X27050914Y-18502362D01*
X26343807Y-19209469D01*
X26343807Y-19209469D01*
G37*
D14*
X26333200Y-18491755D03*
D11*
G36*
X26060964Y-18926626D02*
X25898329Y-18763991D01*
X26605436Y-18056884D01*
X26768071Y-18219519D01*
X26060964Y-18926626D01*
X26060964Y-18926626D01*
G37*
D14*
X26050357Y-18208913D03*
D11*
G36*
X25778121Y-18643784D02*
X25615486Y-18481149D01*
X26322593Y-17774042D01*
X26485228Y-17936677D01*
X25778121Y-18643784D01*
X25778121Y-18643784D01*
G37*
D14*
X25767514Y-17926070D03*
D11*
G36*
X25495278Y-18360941D02*
X25332643Y-18198306D01*
X26039750Y-17491199D01*
X26202385Y-17653834D01*
X25495278Y-18360941D01*
X25495278Y-18360941D01*
G37*
D14*
X25484672Y-17643227D03*
D11*
G36*
X25212436Y-18078098D02*
X25049801Y-17915463D01*
X25756908Y-17208356D01*
X25919543Y-17370991D01*
X25212436Y-18078098D01*
X25212436Y-18078098D01*
G37*
D14*
X25201829Y-17360385D03*
D11*
G36*
X24929593Y-17795256D02*
X24766958Y-17632621D01*
X25474065Y-16925514D01*
X25636700Y-17088149D01*
X24929593Y-17795256D01*
X24929593Y-17795256D01*
G37*
D14*
X24918986Y-17077542D03*
D11*
G36*
X24646750Y-17512413D02*
X24484115Y-17349778D01*
X25191222Y-16642671D01*
X25353857Y-16805306D01*
X24646750Y-17512413D01*
X24646750Y-17512413D01*
G37*
D14*
X24636144Y-16794699D03*
D11*
G36*
X24363908Y-17229570D02*
X24201273Y-17066935D01*
X24908380Y-16359828D01*
X25071015Y-16522463D01*
X24363908Y-17229570D01*
X24363908Y-17229570D01*
G37*
D14*
X24353301Y-16511856D03*
D11*
G36*
X24081065Y-16946727D02*
X23918430Y-16784092D01*
X24625537Y-16076985D01*
X24788172Y-16239620D01*
X24081065Y-16946727D01*
X24081065Y-16946727D01*
G37*
D14*
X24070458Y-16229014D03*
D11*
G36*
X23798222Y-16663885D02*
X23635587Y-16501250D01*
X24342694Y-15794143D01*
X24505329Y-15956778D01*
X23798222Y-16663885D01*
X23798222Y-16663885D01*
G37*
D14*
X23787615Y-15946171D03*
D11*
G36*
X23515379Y-16381042D02*
X23352744Y-16218407D01*
X24059851Y-15511300D01*
X24222486Y-15673935D01*
X23515379Y-16381042D01*
X23515379Y-16381042D01*
G37*
D14*
X23504773Y-15663328D03*
D11*
G36*
X23232537Y-16098199D02*
X23069902Y-15935564D01*
X23777009Y-15228457D01*
X23939644Y-15391092D01*
X23232537Y-16098199D01*
X23232537Y-16098199D01*
G37*
D14*
X23221930Y-15380486D03*
D11*
G36*
X22949694Y-15815357D02*
X22787059Y-15652722D01*
X23494166Y-14945615D01*
X23656801Y-15108250D01*
X22949694Y-15815357D01*
X22949694Y-15815357D01*
G37*
D14*
X22939087Y-15097643D03*
D11*
G36*
X22666851Y-15532514D02*
X22504216Y-15369879D01*
X23211323Y-14662772D01*
X23373958Y-14825407D01*
X22666851Y-15532514D01*
X22666851Y-15532514D01*
G37*
D14*
X22656245Y-14814800D03*
D11*
G36*
X22384009Y-15249671D02*
X22221374Y-15087036D01*
X22928481Y-14379929D01*
X23091116Y-14542564D01*
X22384009Y-15249671D01*
X22384009Y-15249671D01*
G37*
D14*
X22373402Y-14531957D03*
D11*
G36*
X22101166Y-14966828D02*
X21938531Y-14804193D01*
X22645638Y-14097086D01*
X22808273Y-14259721D01*
X22101166Y-14966828D01*
X22101166Y-14966828D01*
G37*
D14*
X22090559Y-14249115D03*
D11*
G36*
X21818323Y-14683986D02*
X21655688Y-14521351D01*
X22362795Y-13814244D01*
X22525430Y-13976879D01*
X21818323Y-14683986D01*
X21818323Y-14683986D01*
G37*
D14*
X21807716Y-13966272D03*
D11*
G36*
X21535480Y-14401143D02*
X21372845Y-14238508D01*
X22079952Y-13531401D01*
X22242587Y-13694036D01*
X21535480Y-14401143D01*
X21535480Y-14401143D01*
G37*
D14*
X21524874Y-13683429D03*
D11*
G36*
X21252638Y-14118300D02*
X21090003Y-13955665D01*
X21797110Y-13248558D01*
X21959745Y-13411193D01*
X21252638Y-14118300D01*
X21252638Y-14118300D01*
G37*
D14*
X21242031Y-13400587D03*
D11*
G36*
X20969795Y-13835458D02*
X20807160Y-13672823D01*
X21514267Y-12965716D01*
X21676902Y-13128351D01*
X20969795Y-13835458D01*
X20969795Y-13835458D01*
G37*
D14*
X20959188Y-13117744D03*
D11*
G36*
X20686952Y-13552615D02*
X20524317Y-13389980D01*
X21231424Y-12682873D01*
X21394059Y-12845508D01*
X20686952Y-13552615D01*
X20686952Y-13552615D01*
G37*
D14*
X20676346Y-12834901D03*
D11*
G36*
X20404110Y-13269772D02*
X20241475Y-13107137D01*
X20948582Y-12400030D01*
X21111217Y-12562665D01*
X20404110Y-13269772D01*
X20404110Y-13269772D01*
G37*
D14*
X20393503Y-12552058D03*
D11*
G36*
X20121267Y-12986929D02*
X19958632Y-12824294D01*
X20665739Y-12117187D01*
X20828374Y-12279822D01*
X20121267Y-12986929D01*
X20121267Y-12986929D01*
G37*
D14*
X20110660Y-12269216D03*
D11*
G36*
X19838424Y-12704087D02*
X19675789Y-12541452D01*
X20382896Y-11834345D01*
X20545531Y-11996980D01*
X19838424Y-12704087D01*
X19838424Y-12704087D01*
G37*
D14*
X17989340Y-12269216D03*
D11*
G36*
X18424211Y-12541452D02*
X18261576Y-12704087D01*
X17554469Y-11996980D01*
X17717104Y-11834345D01*
X18424211Y-12541452D01*
X18424211Y-12541452D01*
G37*
D14*
X17706497Y-12552058D03*
D11*
G36*
X18141368Y-12824294D02*
X17978733Y-12986929D01*
X17271626Y-12279822D01*
X17434261Y-12117187D01*
X18141368Y-12824294D01*
X18141368Y-12824294D01*
G37*
D14*
X17423654Y-12834901D03*
D11*
G36*
X17858525Y-13107137D02*
X17695890Y-13269772D01*
X16988783Y-12562665D01*
X17151418Y-12400030D01*
X17858525Y-13107137D01*
X17858525Y-13107137D01*
G37*
D14*
X17140812Y-13117744D03*
D11*
G36*
X17575683Y-13389980D02*
X17413048Y-13552615D01*
X16705941Y-12845508D01*
X16868576Y-12682873D01*
X17575683Y-13389980D01*
X17575683Y-13389980D01*
G37*
D14*
X16857969Y-13400587D03*
D11*
G36*
X17292840Y-13672823D02*
X17130205Y-13835458D01*
X16423098Y-13128351D01*
X16585733Y-12965716D01*
X17292840Y-13672823D01*
X17292840Y-13672823D01*
G37*
D14*
X16575126Y-13683429D03*
D11*
G36*
X17009997Y-13955665D02*
X16847362Y-14118300D01*
X16140255Y-13411193D01*
X16302890Y-13248558D01*
X17009997Y-13955665D01*
X17009997Y-13955665D01*
G37*
D14*
X16292284Y-13966272D03*
D11*
G36*
X16727155Y-14238508D02*
X16564520Y-14401143D01*
X15857413Y-13694036D01*
X16020048Y-13531401D01*
X16727155Y-14238508D01*
X16727155Y-14238508D01*
G37*
D14*
X16009441Y-14249115D03*
D11*
G36*
X16444312Y-14521351D02*
X16281677Y-14683986D01*
X15574570Y-13976879D01*
X15737205Y-13814244D01*
X16444312Y-14521351D01*
X16444312Y-14521351D01*
G37*
D14*
X15726598Y-14531957D03*
D11*
G36*
X16161469Y-14804193D02*
X15998834Y-14966828D01*
X15291727Y-14259721D01*
X15454362Y-14097086D01*
X16161469Y-14804193D01*
X16161469Y-14804193D01*
G37*
D14*
X15443755Y-14814800D03*
D11*
G36*
X15878626Y-15087036D02*
X15715991Y-15249671D01*
X15008884Y-14542564D01*
X15171519Y-14379929D01*
X15878626Y-15087036D01*
X15878626Y-15087036D01*
G37*
D14*
X15160913Y-15097643D03*
D11*
G36*
X15595784Y-15369879D02*
X15433149Y-15532514D01*
X14726042Y-14825407D01*
X14888677Y-14662772D01*
X15595784Y-15369879D01*
X15595784Y-15369879D01*
G37*
D14*
X14878070Y-15380486D03*
D11*
G36*
X15312941Y-15652722D02*
X15150306Y-15815357D01*
X14443199Y-15108250D01*
X14605834Y-14945615D01*
X15312941Y-15652722D01*
X15312941Y-15652722D01*
G37*
D14*
X14595227Y-15663328D03*
D11*
G36*
X15030098Y-15935564D02*
X14867463Y-16098199D01*
X14160356Y-15391092D01*
X14322991Y-15228457D01*
X15030098Y-15935564D01*
X15030098Y-15935564D01*
G37*
D14*
X14312385Y-15946171D03*
D11*
G36*
X14747256Y-16218407D02*
X14584621Y-16381042D01*
X13877514Y-15673935D01*
X14040149Y-15511300D01*
X14747256Y-16218407D01*
X14747256Y-16218407D01*
G37*
D14*
X14029542Y-16229014D03*
D11*
G36*
X14464413Y-16501250D02*
X14301778Y-16663885D01*
X13594671Y-15956778D01*
X13757306Y-15794143D01*
X14464413Y-16501250D01*
X14464413Y-16501250D01*
G37*
D14*
X13746699Y-16511856D03*
D11*
G36*
X14181570Y-16784092D02*
X14018935Y-16946727D01*
X13311828Y-16239620D01*
X13474463Y-16076985D01*
X14181570Y-16784092D01*
X14181570Y-16784092D01*
G37*
D14*
X13463856Y-16794699D03*
D11*
G36*
X13898727Y-17066935D02*
X13736092Y-17229570D01*
X13028985Y-16522463D01*
X13191620Y-16359828D01*
X13898727Y-17066935D01*
X13898727Y-17066935D01*
G37*
D14*
X13181014Y-17077542D03*
D11*
G36*
X13615885Y-17349778D02*
X13453250Y-17512413D01*
X12746143Y-16805306D01*
X12908778Y-16642671D01*
X13615885Y-17349778D01*
X13615885Y-17349778D01*
G37*
D14*
X12898171Y-17360385D03*
D11*
G36*
X13333042Y-17632621D02*
X13170407Y-17795256D01*
X12463300Y-17088149D01*
X12625935Y-16925514D01*
X13333042Y-17632621D01*
X13333042Y-17632621D01*
G37*
D14*
X12615328Y-17643227D03*
D11*
G36*
X13050199Y-17915463D02*
X12887564Y-18078098D01*
X12180457Y-17370991D01*
X12343092Y-17208356D01*
X13050199Y-17915463D01*
X13050199Y-17915463D01*
G37*
D14*
X12332486Y-17926070D03*
D11*
G36*
X12767357Y-18198306D02*
X12604722Y-18360941D01*
X11897615Y-17653834D01*
X12060250Y-17491199D01*
X12767357Y-18198306D01*
X12767357Y-18198306D01*
G37*
D14*
X12049643Y-18208913D03*
D11*
G36*
X12484514Y-18481149D02*
X12321879Y-18643784D01*
X11614772Y-17936677D01*
X11777407Y-17774042D01*
X12484514Y-18481149D01*
X12484514Y-18481149D01*
G37*
D14*
X11766800Y-18491755D03*
D11*
G36*
X12201671Y-18763991D02*
X12039036Y-18926626D01*
X11331929Y-18219519D01*
X11494564Y-18056884D01*
X12201671Y-18763991D01*
X12201671Y-18763991D01*
G37*
D14*
X11483957Y-18774598D03*
D11*
G36*
X11918828Y-19046834D02*
X11756193Y-19209469D01*
X11049086Y-18502362D01*
X11211721Y-18339727D01*
X11918828Y-19046834D01*
X11918828Y-19046834D01*
G37*
D14*
X11201115Y-19057441D03*
D11*
G36*
X11635986Y-19329677D02*
X11473351Y-19492312D01*
X10766244Y-18785205D01*
X10928879Y-18622570D01*
X11635986Y-19329677D01*
X11635986Y-19329677D01*
G37*
D14*
X10918272Y-19340284D03*
D11*
G36*
X11353143Y-19612520D02*
X11190508Y-19775155D01*
X10483401Y-19068048D01*
X10646036Y-18905413D01*
X11353143Y-19612520D01*
X11353143Y-19612520D01*
G37*
D14*
X10635429Y-19623126D03*
D11*
G36*
X11070300Y-19895362D02*
X10907665Y-20057997D01*
X10200558Y-19350890D01*
X10363193Y-19188255D01*
X11070300Y-19895362D01*
X11070300Y-19895362D01*
G37*
D14*
X10352587Y-19905969D03*
D11*
G36*
X10787458Y-20178205D02*
X10624823Y-20340840D01*
X9917716Y-19633733D01*
X10080351Y-19471098D01*
X10787458Y-20178205D01*
X10787458Y-20178205D01*
G37*
D14*
X10069744Y-20188812D03*
D11*
G36*
X10504615Y-20461048D02*
X10341980Y-20623683D01*
X9634873Y-19916576D01*
X9797508Y-19753941D01*
X10504615Y-20461048D01*
X10504615Y-20461048D01*
G37*
D14*
X9786901Y-20471654D03*
D11*
G36*
X10221772Y-20743890D02*
X10059137Y-20906525D01*
X9352030Y-20199418D01*
X9514665Y-20036783D01*
X10221772Y-20743890D01*
X10221772Y-20743890D01*
G37*
D14*
X9504058Y-20754497D03*
D11*
G36*
X9938929Y-21026733D02*
X9776294Y-21189368D01*
X9069187Y-20482261D01*
X9231822Y-20319626D01*
X9938929Y-21026733D01*
X9938929Y-21026733D01*
G37*
D14*
X9221216Y-21037340D03*
D11*
G36*
X9656087Y-21309576D02*
X9493452Y-21472211D01*
X8786345Y-20765104D01*
X8948980Y-20602469D01*
X9656087Y-21309576D01*
X9656087Y-21309576D01*
G37*
G04 #@! TD*
D15*
G04 #@! TO.C,Y1*
X27254200Y-8204000D03*
X25054200Y-8204000D03*
X25054200Y-6604000D03*
X27254200Y-6604000D03*
G04 #@! TD*
D11*
G04 #@! TO.C,C3*
G36*
X20658779Y-39150144D02*
X20681834Y-39153563D01*
X20704443Y-39159227D01*
X20726387Y-39167079D01*
X20747457Y-39177044D01*
X20767448Y-39189026D01*
X20786168Y-39202910D01*
X20803438Y-39218562D01*
X20819090Y-39235832D01*
X20832974Y-39254552D01*
X20844956Y-39274543D01*
X20854921Y-39295613D01*
X20862773Y-39317557D01*
X20868437Y-39340166D01*
X20871856Y-39363221D01*
X20873000Y-39386500D01*
X20873000Y-39861500D01*
X20871856Y-39884779D01*
X20868437Y-39907834D01*
X20862773Y-39930443D01*
X20854921Y-39952387D01*
X20844956Y-39973457D01*
X20832974Y-39993448D01*
X20819090Y-40012168D01*
X20803438Y-40029438D01*
X20786168Y-40045090D01*
X20767448Y-40058974D01*
X20747457Y-40070956D01*
X20726387Y-40080921D01*
X20704443Y-40088773D01*
X20681834Y-40094437D01*
X20658779Y-40097856D01*
X20635500Y-40099000D01*
X20060500Y-40099000D01*
X20037221Y-40097856D01*
X20014166Y-40094437D01*
X19991557Y-40088773D01*
X19969613Y-40080921D01*
X19948543Y-40070956D01*
X19928552Y-40058974D01*
X19909832Y-40045090D01*
X19892562Y-40029438D01*
X19876910Y-40012168D01*
X19863026Y-39993448D01*
X19851044Y-39973457D01*
X19841079Y-39952387D01*
X19833227Y-39930443D01*
X19827563Y-39907834D01*
X19824144Y-39884779D01*
X19823000Y-39861500D01*
X19823000Y-39386500D01*
X19824144Y-39363221D01*
X19827563Y-39340166D01*
X19833227Y-39317557D01*
X19841079Y-39295613D01*
X19851044Y-39274543D01*
X19863026Y-39254552D01*
X19876910Y-39235832D01*
X19892562Y-39218562D01*
X19909832Y-39202910D01*
X19928552Y-39189026D01*
X19948543Y-39177044D01*
X19969613Y-39167079D01*
X19991557Y-39159227D01*
X20014166Y-39153563D01*
X20037221Y-39150144D01*
X20060500Y-39149000D01*
X20635500Y-39149000D01*
X20658779Y-39150144D01*
X20658779Y-39150144D01*
G37*
D12*
X20348000Y-39624000D03*
D11*
G36*
X22408779Y-39150144D02*
X22431834Y-39153563D01*
X22454443Y-39159227D01*
X22476387Y-39167079D01*
X22497457Y-39177044D01*
X22517448Y-39189026D01*
X22536168Y-39202910D01*
X22553438Y-39218562D01*
X22569090Y-39235832D01*
X22582974Y-39254552D01*
X22594956Y-39274543D01*
X22604921Y-39295613D01*
X22612773Y-39317557D01*
X22618437Y-39340166D01*
X22621856Y-39363221D01*
X22623000Y-39386500D01*
X22623000Y-39861500D01*
X22621856Y-39884779D01*
X22618437Y-39907834D01*
X22612773Y-39930443D01*
X22604921Y-39952387D01*
X22594956Y-39973457D01*
X22582974Y-39993448D01*
X22569090Y-40012168D01*
X22553438Y-40029438D01*
X22536168Y-40045090D01*
X22517448Y-40058974D01*
X22497457Y-40070956D01*
X22476387Y-40080921D01*
X22454443Y-40088773D01*
X22431834Y-40094437D01*
X22408779Y-40097856D01*
X22385500Y-40099000D01*
X21810500Y-40099000D01*
X21787221Y-40097856D01*
X21764166Y-40094437D01*
X21741557Y-40088773D01*
X21719613Y-40080921D01*
X21698543Y-40070956D01*
X21678552Y-40058974D01*
X21659832Y-40045090D01*
X21642562Y-40029438D01*
X21626910Y-40012168D01*
X21613026Y-39993448D01*
X21601044Y-39973457D01*
X21591079Y-39952387D01*
X21583227Y-39930443D01*
X21577563Y-39907834D01*
X21574144Y-39884779D01*
X21573000Y-39861500D01*
X21573000Y-39386500D01*
X21574144Y-39363221D01*
X21577563Y-39340166D01*
X21583227Y-39317557D01*
X21591079Y-39295613D01*
X21601044Y-39274543D01*
X21613026Y-39254552D01*
X21626910Y-39235832D01*
X21642562Y-39218562D01*
X21659832Y-39202910D01*
X21678552Y-39189026D01*
X21698543Y-39177044D01*
X21719613Y-39167079D01*
X21741557Y-39159227D01*
X21764166Y-39153563D01*
X21787221Y-39150144D01*
X21810500Y-39149000D01*
X22385500Y-39149000D01*
X22408779Y-39150144D01*
X22408779Y-39150144D01*
G37*
D12*
X22098000Y-39624000D03*
G04 #@! TD*
D11*
G04 #@! TO.C,C4*
G36*
X22408779Y-41182144D02*
X22431834Y-41185563D01*
X22454443Y-41191227D01*
X22476387Y-41199079D01*
X22497457Y-41209044D01*
X22517448Y-41221026D01*
X22536168Y-41234910D01*
X22553438Y-41250562D01*
X22569090Y-41267832D01*
X22582974Y-41286552D01*
X22594956Y-41306543D01*
X22604921Y-41327613D01*
X22612773Y-41349557D01*
X22618437Y-41372166D01*
X22621856Y-41395221D01*
X22623000Y-41418500D01*
X22623000Y-41893500D01*
X22621856Y-41916779D01*
X22618437Y-41939834D01*
X22612773Y-41962443D01*
X22604921Y-41984387D01*
X22594956Y-42005457D01*
X22582974Y-42025448D01*
X22569090Y-42044168D01*
X22553438Y-42061438D01*
X22536168Y-42077090D01*
X22517448Y-42090974D01*
X22497457Y-42102956D01*
X22476387Y-42112921D01*
X22454443Y-42120773D01*
X22431834Y-42126437D01*
X22408779Y-42129856D01*
X22385500Y-42131000D01*
X21810500Y-42131000D01*
X21787221Y-42129856D01*
X21764166Y-42126437D01*
X21741557Y-42120773D01*
X21719613Y-42112921D01*
X21698543Y-42102956D01*
X21678552Y-42090974D01*
X21659832Y-42077090D01*
X21642562Y-42061438D01*
X21626910Y-42044168D01*
X21613026Y-42025448D01*
X21601044Y-42005457D01*
X21591079Y-41984387D01*
X21583227Y-41962443D01*
X21577563Y-41939834D01*
X21574144Y-41916779D01*
X21573000Y-41893500D01*
X21573000Y-41418500D01*
X21574144Y-41395221D01*
X21577563Y-41372166D01*
X21583227Y-41349557D01*
X21591079Y-41327613D01*
X21601044Y-41306543D01*
X21613026Y-41286552D01*
X21626910Y-41267832D01*
X21642562Y-41250562D01*
X21659832Y-41234910D01*
X21678552Y-41221026D01*
X21698543Y-41209044D01*
X21719613Y-41199079D01*
X21741557Y-41191227D01*
X21764166Y-41185563D01*
X21787221Y-41182144D01*
X21810500Y-41181000D01*
X22385500Y-41181000D01*
X22408779Y-41182144D01*
X22408779Y-41182144D01*
G37*
D12*
X22098000Y-41656000D03*
D11*
G36*
X20658779Y-41182144D02*
X20681834Y-41185563D01*
X20704443Y-41191227D01*
X20726387Y-41199079D01*
X20747457Y-41209044D01*
X20767448Y-41221026D01*
X20786168Y-41234910D01*
X20803438Y-41250562D01*
X20819090Y-41267832D01*
X20832974Y-41286552D01*
X20844956Y-41306543D01*
X20854921Y-41327613D01*
X20862773Y-41349557D01*
X20868437Y-41372166D01*
X20871856Y-41395221D01*
X20873000Y-41418500D01*
X20873000Y-41893500D01*
X20871856Y-41916779D01*
X20868437Y-41939834D01*
X20862773Y-41962443D01*
X20854921Y-41984387D01*
X20844956Y-42005457D01*
X20832974Y-42025448D01*
X20819090Y-42044168D01*
X20803438Y-42061438D01*
X20786168Y-42077090D01*
X20767448Y-42090974D01*
X20747457Y-42102956D01*
X20726387Y-42112921D01*
X20704443Y-42120773D01*
X20681834Y-42126437D01*
X20658779Y-42129856D01*
X20635500Y-42131000D01*
X20060500Y-42131000D01*
X20037221Y-42129856D01*
X20014166Y-42126437D01*
X19991557Y-42120773D01*
X19969613Y-42112921D01*
X19948543Y-42102956D01*
X19928552Y-42090974D01*
X19909832Y-42077090D01*
X19892562Y-42061438D01*
X19876910Y-42044168D01*
X19863026Y-42025448D01*
X19851044Y-42005457D01*
X19841079Y-41984387D01*
X19833227Y-41962443D01*
X19827563Y-41939834D01*
X19824144Y-41916779D01*
X19823000Y-41893500D01*
X19823000Y-41418500D01*
X19824144Y-41395221D01*
X19827563Y-41372166D01*
X19833227Y-41349557D01*
X19841079Y-41327613D01*
X19851044Y-41306543D01*
X19863026Y-41286552D01*
X19876910Y-41267832D01*
X19892562Y-41250562D01*
X19909832Y-41234910D01*
X19928552Y-41221026D01*
X19948543Y-41209044D01*
X19969613Y-41199079D01*
X19991557Y-41191227D01*
X20014166Y-41185563D01*
X20037221Y-41182144D01*
X20060500Y-41181000D01*
X20635500Y-41181000D01*
X20658779Y-41182144D01*
X20658779Y-41182144D01*
G37*
D12*
X20348000Y-41656000D03*
G04 #@! TD*
D11*
G04 #@! TO.C,C5*
G36*
X40138779Y-16974144D02*
X40161834Y-16977563D01*
X40184443Y-16983227D01*
X40206387Y-16991079D01*
X40227457Y-17001044D01*
X40247448Y-17013026D01*
X40266168Y-17026910D01*
X40283438Y-17042562D01*
X40299090Y-17059832D01*
X40312974Y-17078552D01*
X40324956Y-17098543D01*
X40334921Y-17119613D01*
X40342773Y-17141557D01*
X40348437Y-17164166D01*
X40351856Y-17187221D01*
X40353000Y-17210500D01*
X40353000Y-17785500D01*
X40351856Y-17808779D01*
X40348437Y-17831834D01*
X40342773Y-17854443D01*
X40334921Y-17876387D01*
X40324956Y-17897457D01*
X40312974Y-17917448D01*
X40299090Y-17936168D01*
X40283438Y-17953438D01*
X40266168Y-17969090D01*
X40247448Y-17982974D01*
X40227457Y-17994956D01*
X40206387Y-18004921D01*
X40184443Y-18012773D01*
X40161834Y-18018437D01*
X40138779Y-18021856D01*
X40115500Y-18023000D01*
X39640500Y-18023000D01*
X39617221Y-18021856D01*
X39594166Y-18018437D01*
X39571557Y-18012773D01*
X39549613Y-18004921D01*
X39528543Y-17994956D01*
X39508552Y-17982974D01*
X39489832Y-17969090D01*
X39472562Y-17953438D01*
X39456910Y-17936168D01*
X39443026Y-17917448D01*
X39431044Y-17897457D01*
X39421079Y-17876387D01*
X39413227Y-17854443D01*
X39407563Y-17831834D01*
X39404144Y-17808779D01*
X39403000Y-17785500D01*
X39403000Y-17210500D01*
X39404144Y-17187221D01*
X39407563Y-17164166D01*
X39413227Y-17141557D01*
X39421079Y-17119613D01*
X39431044Y-17098543D01*
X39443026Y-17078552D01*
X39456910Y-17059832D01*
X39472562Y-17042562D01*
X39489832Y-17026910D01*
X39508552Y-17013026D01*
X39528543Y-17001044D01*
X39549613Y-16991079D01*
X39571557Y-16983227D01*
X39594166Y-16977563D01*
X39617221Y-16974144D01*
X39640500Y-16973000D01*
X40115500Y-16973000D01*
X40138779Y-16974144D01*
X40138779Y-16974144D01*
G37*
D12*
X39878000Y-17498000D03*
D11*
G36*
X40138779Y-15224144D02*
X40161834Y-15227563D01*
X40184443Y-15233227D01*
X40206387Y-15241079D01*
X40227457Y-15251044D01*
X40247448Y-15263026D01*
X40266168Y-15276910D01*
X40283438Y-15292562D01*
X40299090Y-15309832D01*
X40312974Y-15328552D01*
X40324956Y-15348543D01*
X40334921Y-15369613D01*
X40342773Y-15391557D01*
X40348437Y-15414166D01*
X40351856Y-15437221D01*
X40353000Y-15460500D01*
X40353000Y-16035500D01*
X40351856Y-16058779D01*
X40348437Y-16081834D01*
X40342773Y-16104443D01*
X40334921Y-16126387D01*
X40324956Y-16147457D01*
X40312974Y-16167448D01*
X40299090Y-16186168D01*
X40283438Y-16203438D01*
X40266168Y-16219090D01*
X40247448Y-16232974D01*
X40227457Y-16244956D01*
X40206387Y-16254921D01*
X40184443Y-16262773D01*
X40161834Y-16268437D01*
X40138779Y-16271856D01*
X40115500Y-16273000D01*
X39640500Y-16273000D01*
X39617221Y-16271856D01*
X39594166Y-16268437D01*
X39571557Y-16262773D01*
X39549613Y-16254921D01*
X39528543Y-16244956D01*
X39508552Y-16232974D01*
X39489832Y-16219090D01*
X39472562Y-16203438D01*
X39456910Y-16186168D01*
X39443026Y-16167448D01*
X39431044Y-16147457D01*
X39421079Y-16126387D01*
X39413227Y-16104443D01*
X39407563Y-16081834D01*
X39404144Y-16058779D01*
X39403000Y-16035500D01*
X39403000Y-15460500D01*
X39404144Y-15437221D01*
X39407563Y-15414166D01*
X39413227Y-15391557D01*
X39421079Y-15369613D01*
X39431044Y-15348543D01*
X39443026Y-15328552D01*
X39456910Y-15309832D01*
X39472562Y-15292562D01*
X39489832Y-15276910D01*
X39508552Y-15263026D01*
X39528543Y-15251044D01*
X39549613Y-15241079D01*
X39571557Y-15233227D01*
X39594166Y-15227563D01*
X39617221Y-15224144D01*
X39640500Y-15223000D01*
X40115500Y-15223000D01*
X40138779Y-15224144D01*
X40138779Y-15224144D01*
G37*
D12*
X39878000Y-15748000D03*
G04 #@! TD*
D11*
G04 #@! TO.C,C6*
G36*
X25597779Y-9432144D02*
X25620834Y-9435563D01*
X25643443Y-9441227D01*
X25665387Y-9449079D01*
X25686457Y-9459044D01*
X25706448Y-9471026D01*
X25725168Y-9484910D01*
X25742438Y-9500562D01*
X25758090Y-9517832D01*
X25771974Y-9536552D01*
X25783956Y-9556543D01*
X25793921Y-9577613D01*
X25801773Y-9599557D01*
X25807437Y-9622166D01*
X25810856Y-9645221D01*
X25812000Y-9668500D01*
X25812000Y-10143500D01*
X25810856Y-10166779D01*
X25807437Y-10189834D01*
X25801773Y-10212443D01*
X25793921Y-10234387D01*
X25783956Y-10255457D01*
X25771974Y-10275448D01*
X25758090Y-10294168D01*
X25742438Y-10311438D01*
X25725168Y-10327090D01*
X25706448Y-10340974D01*
X25686457Y-10352956D01*
X25665387Y-10362921D01*
X25643443Y-10370773D01*
X25620834Y-10376437D01*
X25597779Y-10379856D01*
X25574500Y-10381000D01*
X24999500Y-10381000D01*
X24976221Y-10379856D01*
X24953166Y-10376437D01*
X24930557Y-10370773D01*
X24908613Y-10362921D01*
X24887543Y-10352956D01*
X24867552Y-10340974D01*
X24848832Y-10327090D01*
X24831562Y-10311438D01*
X24815910Y-10294168D01*
X24802026Y-10275448D01*
X24790044Y-10255457D01*
X24780079Y-10234387D01*
X24772227Y-10212443D01*
X24766563Y-10189834D01*
X24763144Y-10166779D01*
X24762000Y-10143500D01*
X24762000Y-9668500D01*
X24763144Y-9645221D01*
X24766563Y-9622166D01*
X24772227Y-9599557D01*
X24780079Y-9577613D01*
X24790044Y-9556543D01*
X24802026Y-9536552D01*
X24815910Y-9517832D01*
X24831562Y-9500562D01*
X24848832Y-9484910D01*
X24867552Y-9471026D01*
X24887543Y-9459044D01*
X24908613Y-9449079D01*
X24930557Y-9441227D01*
X24953166Y-9435563D01*
X24976221Y-9432144D01*
X24999500Y-9431000D01*
X25574500Y-9431000D01*
X25597779Y-9432144D01*
X25597779Y-9432144D01*
G37*
D12*
X25287000Y-9906000D03*
D11*
G36*
X27347779Y-9432144D02*
X27370834Y-9435563D01*
X27393443Y-9441227D01*
X27415387Y-9449079D01*
X27436457Y-9459044D01*
X27456448Y-9471026D01*
X27475168Y-9484910D01*
X27492438Y-9500562D01*
X27508090Y-9517832D01*
X27521974Y-9536552D01*
X27533956Y-9556543D01*
X27543921Y-9577613D01*
X27551773Y-9599557D01*
X27557437Y-9622166D01*
X27560856Y-9645221D01*
X27562000Y-9668500D01*
X27562000Y-10143500D01*
X27560856Y-10166779D01*
X27557437Y-10189834D01*
X27551773Y-10212443D01*
X27543921Y-10234387D01*
X27533956Y-10255457D01*
X27521974Y-10275448D01*
X27508090Y-10294168D01*
X27492438Y-10311438D01*
X27475168Y-10327090D01*
X27456448Y-10340974D01*
X27436457Y-10352956D01*
X27415387Y-10362921D01*
X27393443Y-10370773D01*
X27370834Y-10376437D01*
X27347779Y-10379856D01*
X27324500Y-10381000D01*
X26749500Y-10381000D01*
X26726221Y-10379856D01*
X26703166Y-10376437D01*
X26680557Y-10370773D01*
X26658613Y-10362921D01*
X26637543Y-10352956D01*
X26617552Y-10340974D01*
X26598832Y-10327090D01*
X26581562Y-10311438D01*
X26565910Y-10294168D01*
X26552026Y-10275448D01*
X26540044Y-10255457D01*
X26530079Y-10234387D01*
X26522227Y-10212443D01*
X26516563Y-10189834D01*
X26513144Y-10166779D01*
X26512000Y-10143500D01*
X26512000Y-9668500D01*
X26513144Y-9645221D01*
X26516563Y-9622166D01*
X26522227Y-9599557D01*
X26530079Y-9577613D01*
X26540044Y-9556543D01*
X26552026Y-9536552D01*
X26565910Y-9517832D01*
X26581562Y-9500562D01*
X26598832Y-9484910D01*
X26617552Y-9471026D01*
X26637543Y-9459044D01*
X26658613Y-9449079D01*
X26680557Y-9441227D01*
X26703166Y-9435563D01*
X26726221Y-9432144D01*
X26749500Y-9431000D01*
X27324500Y-9431000D01*
X27347779Y-9432144D01*
X27347779Y-9432144D01*
G37*
D12*
X27037000Y-9906000D03*
G04 #@! TD*
D11*
G04 #@! TO.C,C7*
G36*
X40160779Y-20862144D02*
X40183834Y-20865563D01*
X40206443Y-20871227D01*
X40228387Y-20879079D01*
X40249457Y-20889044D01*
X40269448Y-20901026D01*
X40288168Y-20914910D01*
X40305438Y-20930562D01*
X40321090Y-20947832D01*
X40334974Y-20966552D01*
X40346956Y-20986543D01*
X40356921Y-21007613D01*
X40364773Y-21029557D01*
X40370437Y-21052166D01*
X40373856Y-21075221D01*
X40375000Y-21098500D01*
X40375000Y-21573500D01*
X40373856Y-21596779D01*
X40370437Y-21619834D01*
X40364773Y-21642443D01*
X40356921Y-21664387D01*
X40346956Y-21685457D01*
X40334974Y-21705448D01*
X40321090Y-21724168D01*
X40305438Y-21741438D01*
X40288168Y-21757090D01*
X40269448Y-21770974D01*
X40249457Y-21782956D01*
X40228387Y-21792921D01*
X40206443Y-21800773D01*
X40183834Y-21806437D01*
X40160779Y-21809856D01*
X40137500Y-21811000D01*
X39562500Y-21811000D01*
X39539221Y-21809856D01*
X39516166Y-21806437D01*
X39493557Y-21800773D01*
X39471613Y-21792921D01*
X39450543Y-21782956D01*
X39430552Y-21770974D01*
X39411832Y-21757090D01*
X39394562Y-21741438D01*
X39378910Y-21724168D01*
X39365026Y-21705448D01*
X39353044Y-21685457D01*
X39343079Y-21664387D01*
X39335227Y-21642443D01*
X39329563Y-21619834D01*
X39326144Y-21596779D01*
X39325000Y-21573500D01*
X39325000Y-21098500D01*
X39326144Y-21075221D01*
X39329563Y-21052166D01*
X39335227Y-21029557D01*
X39343079Y-21007613D01*
X39353044Y-20986543D01*
X39365026Y-20966552D01*
X39378910Y-20947832D01*
X39394562Y-20930562D01*
X39411832Y-20914910D01*
X39430552Y-20901026D01*
X39450543Y-20889044D01*
X39471613Y-20879079D01*
X39493557Y-20871227D01*
X39516166Y-20865563D01*
X39539221Y-20862144D01*
X39562500Y-20861000D01*
X40137500Y-20861000D01*
X40160779Y-20862144D01*
X40160779Y-20862144D01*
G37*
D12*
X39850000Y-21336000D03*
D11*
G36*
X38410779Y-20862144D02*
X38433834Y-20865563D01*
X38456443Y-20871227D01*
X38478387Y-20879079D01*
X38499457Y-20889044D01*
X38519448Y-20901026D01*
X38538168Y-20914910D01*
X38555438Y-20930562D01*
X38571090Y-20947832D01*
X38584974Y-20966552D01*
X38596956Y-20986543D01*
X38606921Y-21007613D01*
X38614773Y-21029557D01*
X38620437Y-21052166D01*
X38623856Y-21075221D01*
X38625000Y-21098500D01*
X38625000Y-21573500D01*
X38623856Y-21596779D01*
X38620437Y-21619834D01*
X38614773Y-21642443D01*
X38606921Y-21664387D01*
X38596956Y-21685457D01*
X38584974Y-21705448D01*
X38571090Y-21724168D01*
X38555438Y-21741438D01*
X38538168Y-21757090D01*
X38519448Y-21770974D01*
X38499457Y-21782956D01*
X38478387Y-21792921D01*
X38456443Y-21800773D01*
X38433834Y-21806437D01*
X38410779Y-21809856D01*
X38387500Y-21811000D01*
X37812500Y-21811000D01*
X37789221Y-21809856D01*
X37766166Y-21806437D01*
X37743557Y-21800773D01*
X37721613Y-21792921D01*
X37700543Y-21782956D01*
X37680552Y-21770974D01*
X37661832Y-21757090D01*
X37644562Y-21741438D01*
X37628910Y-21724168D01*
X37615026Y-21705448D01*
X37603044Y-21685457D01*
X37593079Y-21664387D01*
X37585227Y-21642443D01*
X37579563Y-21619834D01*
X37576144Y-21596779D01*
X37575000Y-21573500D01*
X37575000Y-21098500D01*
X37576144Y-21075221D01*
X37579563Y-21052166D01*
X37585227Y-21029557D01*
X37593079Y-21007613D01*
X37603044Y-20986543D01*
X37615026Y-20966552D01*
X37628910Y-20947832D01*
X37644562Y-20930562D01*
X37661832Y-20914910D01*
X37680552Y-20901026D01*
X37700543Y-20889044D01*
X37721613Y-20879079D01*
X37743557Y-20871227D01*
X37766166Y-20865563D01*
X37789221Y-20862144D01*
X37812500Y-20861000D01*
X38387500Y-20861000D01*
X38410779Y-20862144D01*
X38410779Y-20862144D01*
G37*
D12*
X38100000Y-21336000D03*
G04 #@! TD*
D11*
G04 #@! TO.C,C9*
G36*
X38438779Y-22640144D02*
X38461834Y-22643563D01*
X38484443Y-22649227D01*
X38506387Y-22657079D01*
X38527457Y-22667044D01*
X38547448Y-22679026D01*
X38566168Y-22692910D01*
X38583438Y-22708562D01*
X38599090Y-22725832D01*
X38612974Y-22744552D01*
X38624956Y-22764543D01*
X38634921Y-22785613D01*
X38642773Y-22807557D01*
X38648437Y-22830166D01*
X38651856Y-22853221D01*
X38653000Y-22876500D01*
X38653000Y-23351500D01*
X38651856Y-23374779D01*
X38648437Y-23397834D01*
X38642773Y-23420443D01*
X38634921Y-23442387D01*
X38624956Y-23463457D01*
X38612974Y-23483448D01*
X38599090Y-23502168D01*
X38583438Y-23519438D01*
X38566168Y-23535090D01*
X38547448Y-23548974D01*
X38527457Y-23560956D01*
X38506387Y-23570921D01*
X38484443Y-23578773D01*
X38461834Y-23584437D01*
X38438779Y-23587856D01*
X38415500Y-23589000D01*
X37840500Y-23589000D01*
X37817221Y-23587856D01*
X37794166Y-23584437D01*
X37771557Y-23578773D01*
X37749613Y-23570921D01*
X37728543Y-23560956D01*
X37708552Y-23548974D01*
X37689832Y-23535090D01*
X37672562Y-23519438D01*
X37656910Y-23502168D01*
X37643026Y-23483448D01*
X37631044Y-23463457D01*
X37621079Y-23442387D01*
X37613227Y-23420443D01*
X37607563Y-23397834D01*
X37604144Y-23374779D01*
X37603000Y-23351500D01*
X37603000Y-22876500D01*
X37604144Y-22853221D01*
X37607563Y-22830166D01*
X37613227Y-22807557D01*
X37621079Y-22785613D01*
X37631044Y-22764543D01*
X37643026Y-22744552D01*
X37656910Y-22725832D01*
X37672562Y-22708562D01*
X37689832Y-22692910D01*
X37708552Y-22679026D01*
X37728543Y-22667044D01*
X37749613Y-22657079D01*
X37771557Y-22649227D01*
X37794166Y-22643563D01*
X37817221Y-22640144D01*
X37840500Y-22639000D01*
X38415500Y-22639000D01*
X38438779Y-22640144D01*
X38438779Y-22640144D01*
G37*
D12*
X38128000Y-23114000D03*
D11*
G36*
X40188779Y-22640144D02*
X40211834Y-22643563D01*
X40234443Y-22649227D01*
X40256387Y-22657079D01*
X40277457Y-22667044D01*
X40297448Y-22679026D01*
X40316168Y-22692910D01*
X40333438Y-22708562D01*
X40349090Y-22725832D01*
X40362974Y-22744552D01*
X40374956Y-22764543D01*
X40384921Y-22785613D01*
X40392773Y-22807557D01*
X40398437Y-22830166D01*
X40401856Y-22853221D01*
X40403000Y-22876500D01*
X40403000Y-23351500D01*
X40401856Y-23374779D01*
X40398437Y-23397834D01*
X40392773Y-23420443D01*
X40384921Y-23442387D01*
X40374956Y-23463457D01*
X40362974Y-23483448D01*
X40349090Y-23502168D01*
X40333438Y-23519438D01*
X40316168Y-23535090D01*
X40297448Y-23548974D01*
X40277457Y-23560956D01*
X40256387Y-23570921D01*
X40234443Y-23578773D01*
X40211834Y-23584437D01*
X40188779Y-23587856D01*
X40165500Y-23589000D01*
X39590500Y-23589000D01*
X39567221Y-23587856D01*
X39544166Y-23584437D01*
X39521557Y-23578773D01*
X39499613Y-23570921D01*
X39478543Y-23560956D01*
X39458552Y-23548974D01*
X39439832Y-23535090D01*
X39422562Y-23519438D01*
X39406910Y-23502168D01*
X39393026Y-23483448D01*
X39381044Y-23463457D01*
X39371079Y-23442387D01*
X39363227Y-23420443D01*
X39357563Y-23397834D01*
X39354144Y-23374779D01*
X39353000Y-23351500D01*
X39353000Y-22876500D01*
X39354144Y-22853221D01*
X39357563Y-22830166D01*
X39363227Y-22807557D01*
X39371079Y-22785613D01*
X39381044Y-22764543D01*
X39393026Y-22744552D01*
X39406910Y-22725832D01*
X39422562Y-22708562D01*
X39439832Y-22692910D01*
X39458552Y-22679026D01*
X39478543Y-22667044D01*
X39499613Y-22657079D01*
X39521557Y-22649227D01*
X39544166Y-22643563D01*
X39567221Y-22640144D01*
X39590500Y-22639000D01*
X40165500Y-22639000D01*
X40188779Y-22640144D01*
X40188779Y-22640144D01*
G37*
D12*
X39878000Y-23114000D03*
G04 #@! TD*
D11*
G04 #@! TO.C,C11*
G36*
X12726070Y-10092977D02*
X12749125Y-10096396D01*
X12771734Y-10102060D01*
X12793678Y-10109912D01*
X12814748Y-10119877D01*
X12834739Y-10131859D01*
X12853459Y-10145743D01*
X12870729Y-10161395D01*
X13206605Y-10497271D01*
X13222257Y-10514541D01*
X13236141Y-10533261D01*
X13248123Y-10553252D01*
X13258088Y-10574322D01*
X13265940Y-10596266D01*
X13271604Y-10618875D01*
X13275023Y-10641930D01*
X13276167Y-10665209D01*
X13275023Y-10688488D01*
X13271604Y-10711543D01*
X13265940Y-10734152D01*
X13258088Y-10756096D01*
X13248123Y-10777166D01*
X13236141Y-10797157D01*
X13222257Y-10815877D01*
X13206605Y-10833147D01*
X12800019Y-11239733D01*
X12782749Y-11255385D01*
X12764029Y-11269269D01*
X12744038Y-11281251D01*
X12722968Y-11291216D01*
X12701024Y-11299068D01*
X12678415Y-11304732D01*
X12655360Y-11308151D01*
X12632081Y-11309295D01*
X12608802Y-11308151D01*
X12585747Y-11304732D01*
X12563138Y-11299068D01*
X12541194Y-11291216D01*
X12520124Y-11281251D01*
X12500133Y-11269269D01*
X12481413Y-11255385D01*
X12464143Y-11239733D01*
X12128267Y-10903857D01*
X12112615Y-10886587D01*
X12098731Y-10867867D01*
X12086749Y-10847876D01*
X12076784Y-10826806D01*
X12068932Y-10804862D01*
X12063268Y-10782253D01*
X12059849Y-10759198D01*
X12058705Y-10735919D01*
X12059849Y-10712640D01*
X12063268Y-10689585D01*
X12068932Y-10666976D01*
X12076784Y-10645032D01*
X12086749Y-10623962D01*
X12098731Y-10603971D01*
X12112615Y-10585251D01*
X12128267Y-10567981D01*
X12534853Y-10161395D01*
X12552123Y-10145743D01*
X12570843Y-10131859D01*
X12590834Y-10119877D01*
X12611904Y-10109912D01*
X12633848Y-10102060D01*
X12656457Y-10096396D01*
X12679512Y-10092977D01*
X12702791Y-10091833D01*
X12726070Y-10092977D01*
X12726070Y-10092977D01*
G37*
D12*
X12667436Y-10700564D03*
D11*
G36*
X11488634Y-11330413D02*
X11511689Y-11333832D01*
X11534298Y-11339496D01*
X11556242Y-11347348D01*
X11577312Y-11357313D01*
X11597303Y-11369295D01*
X11616023Y-11383179D01*
X11633293Y-11398831D01*
X11969169Y-11734707D01*
X11984821Y-11751977D01*
X11998705Y-11770697D01*
X12010687Y-11790688D01*
X12020652Y-11811758D01*
X12028504Y-11833702D01*
X12034168Y-11856311D01*
X12037587Y-11879366D01*
X12038731Y-11902645D01*
X12037587Y-11925924D01*
X12034168Y-11948979D01*
X12028504Y-11971588D01*
X12020652Y-11993532D01*
X12010687Y-12014602D01*
X11998705Y-12034593D01*
X11984821Y-12053313D01*
X11969169Y-12070583D01*
X11562583Y-12477169D01*
X11545313Y-12492821D01*
X11526593Y-12506705D01*
X11506602Y-12518687D01*
X11485532Y-12528652D01*
X11463588Y-12536504D01*
X11440979Y-12542168D01*
X11417924Y-12545587D01*
X11394645Y-12546731D01*
X11371366Y-12545587D01*
X11348311Y-12542168D01*
X11325702Y-12536504D01*
X11303758Y-12528652D01*
X11282688Y-12518687D01*
X11262697Y-12506705D01*
X11243977Y-12492821D01*
X11226707Y-12477169D01*
X10890831Y-12141293D01*
X10875179Y-12124023D01*
X10861295Y-12105303D01*
X10849313Y-12085312D01*
X10839348Y-12064242D01*
X10831496Y-12042298D01*
X10825832Y-12019689D01*
X10822413Y-11996634D01*
X10821269Y-11973355D01*
X10822413Y-11950076D01*
X10825832Y-11927021D01*
X10831496Y-11904412D01*
X10839348Y-11882468D01*
X10849313Y-11861398D01*
X10861295Y-11841407D01*
X10875179Y-11822687D01*
X10890831Y-11805417D01*
X11297417Y-11398831D01*
X11314687Y-11383179D01*
X11333407Y-11369295D01*
X11353398Y-11357313D01*
X11374468Y-11347348D01*
X11396412Y-11339496D01*
X11419021Y-11333832D01*
X11442076Y-11330413D01*
X11465355Y-11329269D01*
X11488634Y-11330413D01*
X11488634Y-11330413D01*
G37*
D12*
X11430000Y-11938000D03*
G04 #@! TD*
D11*
G04 #@! TO.C,C12*
G36*
X12758634Y-12600413D02*
X12781689Y-12603832D01*
X12804298Y-12609496D01*
X12826242Y-12617348D01*
X12847312Y-12627313D01*
X12867303Y-12639295D01*
X12886023Y-12653179D01*
X12903293Y-12668831D01*
X13239169Y-13004707D01*
X13254821Y-13021977D01*
X13268705Y-13040697D01*
X13280687Y-13060688D01*
X13290652Y-13081758D01*
X13298504Y-13103702D01*
X13304168Y-13126311D01*
X13307587Y-13149366D01*
X13308731Y-13172645D01*
X13307587Y-13195924D01*
X13304168Y-13218979D01*
X13298504Y-13241588D01*
X13290652Y-13263532D01*
X13280687Y-13284602D01*
X13268705Y-13304593D01*
X13254821Y-13323313D01*
X13239169Y-13340583D01*
X12832583Y-13747169D01*
X12815313Y-13762821D01*
X12796593Y-13776705D01*
X12776602Y-13788687D01*
X12755532Y-13798652D01*
X12733588Y-13806504D01*
X12710979Y-13812168D01*
X12687924Y-13815587D01*
X12664645Y-13816731D01*
X12641366Y-13815587D01*
X12618311Y-13812168D01*
X12595702Y-13806504D01*
X12573758Y-13798652D01*
X12552688Y-13788687D01*
X12532697Y-13776705D01*
X12513977Y-13762821D01*
X12496707Y-13747169D01*
X12160831Y-13411293D01*
X12145179Y-13394023D01*
X12131295Y-13375303D01*
X12119313Y-13355312D01*
X12109348Y-13334242D01*
X12101496Y-13312298D01*
X12095832Y-13289689D01*
X12092413Y-13266634D01*
X12091269Y-13243355D01*
X12092413Y-13220076D01*
X12095832Y-13197021D01*
X12101496Y-13174412D01*
X12109348Y-13152468D01*
X12119313Y-13131398D01*
X12131295Y-13111407D01*
X12145179Y-13092687D01*
X12160831Y-13075417D01*
X12567417Y-12668831D01*
X12584687Y-12653179D01*
X12603407Y-12639295D01*
X12623398Y-12627313D01*
X12644468Y-12617348D01*
X12666412Y-12609496D01*
X12689021Y-12603832D01*
X12712076Y-12600413D01*
X12735355Y-12599269D01*
X12758634Y-12600413D01*
X12758634Y-12600413D01*
G37*
D12*
X12700000Y-13208000D03*
D11*
G36*
X13996070Y-11362977D02*
X14019125Y-11366396D01*
X14041734Y-11372060D01*
X14063678Y-11379912D01*
X14084748Y-11389877D01*
X14104739Y-11401859D01*
X14123459Y-11415743D01*
X14140729Y-11431395D01*
X14476605Y-11767271D01*
X14492257Y-11784541D01*
X14506141Y-11803261D01*
X14518123Y-11823252D01*
X14528088Y-11844322D01*
X14535940Y-11866266D01*
X14541604Y-11888875D01*
X14545023Y-11911930D01*
X14546167Y-11935209D01*
X14545023Y-11958488D01*
X14541604Y-11981543D01*
X14535940Y-12004152D01*
X14528088Y-12026096D01*
X14518123Y-12047166D01*
X14506141Y-12067157D01*
X14492257Y-12085877D01*
X14476605Y-12103147D01*
X14070019Y-12509733D01*
X14052749Y-12525385D01*
X14034029Y-12539269D01*
X14014038Y-12551251D01*
X13992968Y-12561216D01*
X13971024Y-12569068D01*
X13948415Y-12574732D01*
X13925360Y-12578151D01*
X13902081Y-12579295D01*
X13878802Y-12578151D01*
X13855747Y-12574732D01*
X13833138Y-12569068D01*
X13811194Y-12561216D01*
X13790124Y-12551251D01*
X13770133Y-12539269D01*
X13751413Y-12525385D01*
X13734143Y-12509733D01*
X13398267Y-12173857D01*
X13382615Y-12156587D01*
X13368731Y-12137867D01*
X13356749Y-12117876D01*
X13346784Y-12096806D01*
X13338932Y-12074862D01*
X13333268Y-12052253D01*
X13329849Y-12029198D01*
X13328705Y-12005919D01*
X13329849Y-11982640D01*
X13333268Y-11959585D01*
X13338932Y-11936976D01*
X13346784Y-11915032D01*
X13356749Y-11893962D01*
X13368731Y-11873971D01*
X13382615Y-11855251D01*
X13398267Y-11837981D01*
X13804853Y-11431395D01*
X13822123Y-11415743D01*
X13840843Y-11401859D01*
X13860834Y-11389877D01*
X13881904Y-11379912D01*
X13903848Y-11372060D01*
X13926457Y-11366396D01*
X13949512Y-11362977D01*
X13972791Y-11361833D01*
X13996070Y-11362977D01*
X13996070Y-11362977D01*
G37*
D12*
X13937436Y-11970564D03*
G04 #@! TD*
D11*
G04 #@! TO.C,C14*
G36*
X25597780Y-11210144D02*
X25620835Y-11213563D01*
X25643444Y-11219227D01*
X25665388Y-11227079D01*
X25686458Y-11237044D01*
X25706449Y-11249026D01*
X25725169Y-11262910D01*
X25742439Y-11278562D01*
X25758091Y-11295832D01*
X25771975Y-11314552D01*
X25783957Y-11334543D01*
X25793922Y-11355613D01*
X25801774Y-11377557D01*
X25807438Y-11400166D01*
X25810857Y-11423221D01*
X25812001Y-11446500D01*
X25812001Y-11921500D01*
X25810857Y-11944779D01*
X25807438Y-11967834D01*
X25801774Y-11990443D01*
X25793922Y-12012387D01*
X25783957Y-12033457D01*
X25771975Y-12053448D01*
X25758091Y-12072168D01*
X25742439Y-12089438D01*
X25725169Y-12105090D01*
X25706449Y-12118974D01*
X25686458Y-12130956D01*
X25665388Y-12140921D01*
X25643444Y-12148773D01*
X25620835Y-12154437D01*
X25597780Y-12157856D01*
X25574501Y-12159000D01*
X24999501Y-12159000D01*
X24976222Y-12157856D01*
X24953167Y-12154437D01*
X24930558Y-12148773D01*
X24908614Y-12140921D01*
X24887544Y-12130956D01*
X24867553Y-12118974D01*
X24848833Y-12105090D01*
X24831563Y-12089438D01*
X24815911Y-12072168D01*
X24802027Y-12053448D01*
X24790045Y-12033457D01*
X24780080Y-12012387D01*
X24772228Y-11990443D01*
X24766564Y-11967834D01*
X24763145Y-11944779D01*
X24762001Y-11921500D01*
X24762001Y-11446500D01*
X24763145Y-11423221D01*
X24766564Y-11400166D01*
X24772228Y-11377557D01*
X24780080Y-11355613D01*
X24790045Y-11334543D01*
X24802027Y-11314552D01*
X24815911Y-11295832D01*
X24831563Y-11278562D01*
X24848833Y-11262910D01*
X24867553Y-11249026D01*
X24887544Y-11237044D01*
X24908614Y-11227079D01*
X24930558Y-11219227D01*
X24953167Y-11213563D01*
X24976222Y-11210144D01*
X24999501Y-11209000D01*
X25574501Y-11209000D01*
X25597780Y-11210144D01*
X25597780Y-11210144D01*
G37*
D12*
X25287001Y-11684000D03*
D11*
G36*
X27347778Y-11210144D02*
X27370833Y-11213563D01*
X27393442Y-11219227D01*
X27415386Y-11227079D01*
X27436456Y-11237044D01*
X27456447Y-11249026D01*
X27475167Y-11262910D01*
X27492437Y-11278562D01*
X27508089Y-11295832D01*
X27521973Y-11314552D01*
X27533955Y-11334543D01*
X27543920Y-11355613D01*
X27551772Y-11377557D01*
X27557436Y-11400166D01*
X27560855Y-11423221D01*
X27561999Y-11446500D01*
X27561999Y-11921500D01*
X27560855Y-11944779D01*
X27557436Y-11967834D01*
X27551772Y-11990443D01*
X27543920Y-12012387D01*
X27533955Y-12033457D01*
X27521973Y-12053448D01*
X27508089Y-12072168D01*
X27492437Y-12089438D01*
X27475167Y-12105090D01*
X27456447Y-12118974D01*
X27436456Y-12130956D01*
X27415386Y-12140921D01*
X27393442Y-12148773D01*
X27370833Y-12154437D01*
X27347778Y-12157856D01*
X27324499Y-12159000D01*
X26749499Y-12159000D01*
X26726220Y-12157856D01*
X26703165Y-12154437D01*
X26680556Y-12148773D01*
X26658612Y-12140921D01*
X26637542Y-12130956D01*
X26617551Y-12118974D01*
X26598831Y-12105090D01*
X26581561Y-12089438D01*
X26565909Y-12072168D01*
X26552025Y-12053448D01*
X26540043Y-12033457D01*
X26530078Y-12012387D01*
X26522226Y-11990443D01*
X26516562Y-11967834D01*
X26513143Y-11944779D01*
X26511999Y-11921500D01*
X26511999Y-11446500D01*
X26513143Y-11423221D01*
X26516562Y-11400166D01*
X26522226Y-11377557D01*
X26530078Y-11355613D01*
X26540043Y-11334543D01*
X26552025Y-11314552D01*
X26565909Y-11295832D01*
X26581561Y-11278562D01*
X26598831Y-11262910D01*
X26617551Y-11249026D01*
X26637542Y-11237044D01*
X26658612Y-11227079D01*
X26680556Y-11219227D01*
X26703165Y-11213563D01*
X26726220Y-11210144D01*
X26749499Y-11209000D01*
X27324499Y-11209000D01*
X27347778Y-11210144D01*
X27347778Y-11210144D01*
G37*
D12*
X27036999Y-11684000D03*
G04 #@! TD*
D11*
G04 #@! TO.C,C15*
G36*
X15481924Y-32158413D02*
X15504979Y-32161832D01*
X15527588Y-32167496D01*
X15549532Y-32175348D01*
X15570602Y-32185313D01*
X15590593Y-32197295D01*
X15609313Y-32211179D01*
X15626583Y-32226831D01*
X16033169Y-32633417D01*
X16048821Y-32650687D01*
X16062705Y-32669407D01*
X16074687Y-32689398D01*
X16084652Y-32710468D01*
X16092504Y-32732412D01*
X16098168Y-32755021D01*
X16101587Y-32778076D01*
X16102731Y-32801355D01*
X16101587Y-32824634D01*
X16098168Y-32847689D01*
X16092504Y-32870298D01*
X16084652Y-32892242D01*
X16074687Y-32913312D01*
X16062705Y-32933303D01*
X16048821Y-32952023D01*
X16033169Y-32969293D01*
X15697293Y-33305169D01*
X15680023Y-33320821D01*
X15661303Y-33334705D01*
X15641312Y-33346687D01*
X15620242Y-33356652D01*
X15598298Y-33364504D01*
X15575689Y-33370168D01*
X15552634Y-33373587D01*
X15529355Y-33374731D01*
X15506076Y-33373587D01*
X15483021Y-33370168D01*
X15460412Y-33364504D01*
X15438468Y-33356652D01*
X15417398Y-33346687D01*
X15397407Y-33334705D01*
X15378687Y-33320821D01*
X15361417Y-33305169D01*
X14954831Y-32898583D01*
X14939179Y-32881313D01*
X14925295Y-32862593D01*
X14913313Y-32842602D01*
X14903348Y-32821532D01*
X14895496Y-32799588D01*
X14889832Y-32776979D01*
X14886413Y-32753924D01*
X14885269Y-32730645D01*
X14886413Y-32707366D01*
X14889832Y-32684311D01*
X14895496Y-32661702D01*
X14903348Y-32639758D01*
X14913313Y-32618688D01*
X14925295Y-32598697D01*
X14939179Y-32579977D01*
X14954831Y-32562707D01*
X15290707Y-32226831D01*
X15307977Y-32211179D01*
X15326697Y-32197295D01*
X15346688Y-32185313D01*
X15367758Y-32175348D01*
X15389702Y-32167496D01*
X15412311Y-32161832D01*
X15435366Y-32158413D01*
X15458645Y-32157269D01*
X15481924Y-32158413D01*
X15481924Y-32158413D01*
G37*
D12*
X15494000Y-32766000D03*
D11*
G36*
X16719360Y-33395849D02*
X16742415Y-33399268D01*
X16765024Y-33404932D01*
X16786968Y-33412784D01*
X16808038Y-33422749D01*
X16828029Y-33434731D01*
X16846749Y-33448615D01*
X16864019Y-33464267D01*
X17270605Y-33870853D01*
X17286257Y-33888123D01*
X17300141Y-33906843D01*
X17312123Y-33926834D01*
X17322088Y-33947904D01*
X17329940Y-33969848D01*
X17335604Y-33992457D01*
X17339023Y-34015512D01*
X17340167Y-34038791D01*
X17339023Y-34062070D01*
X17335604Y-34085125D01*
X17329940Y-34107734D01*
X17322088Y-34129678D01*
X17312123Y-34150748D01*
X17300141Y-34170739D01*
X17286257Y-34189459D01*
X17270605Y-34206729D01*
X16934729Y-34542605D01*
X16917459Y-34558257D01*
X16898739Y-34572141D01*
X16878748Y-34584123D01*
X16857678Y-34594088D01*
X16835734Y-34601940D01*
X16813125Y-34607604D01*
X16790070Y-34611023D01*
X16766791Y-34612167D01*
X16743512Y-34611023D01*
X16720457Y-34607604D01*
X16697848Y-34601940D01*
X16675904Y-34594088D01*
X16654834Y-34584123D01*
X16634843Y-34572141D01*
X16616123Y-34558257D01*
X16598853Y-34542605D01*
X16192267Y-34136019D01*
X16176615Y-34118749D01*
X16162731Y-34100029D01*
X16150749Y-34080038D01*
X16140784Y-34058968D01*
X16132932Y-34037024D01*
X16127268Y-34014415D01*
X16123849Y-33991360D01*
X16122705Y-33968081D01*
X16123849Y-33944802D01*
X16127268Y-33921747D01*
X16132932Y-33899138D01*
X16140784Y-33877194D01*
X16150749Y-33856124D01*
X16162731Y-33836133D01*
X16176615Y-33817413D01*
X16192267Y-33800143D01*
X16528143Y-33464267D01*
X16545413Y-33448615D01*
X16564133Y-33434731D01*
X16584124Y-33422749D01*
X16605194Y-33412784D01*
X16627138Y-33404932D01*
X16649747Y-33399268D01*
X16672802Y-33395849D01*
X16696081Y-33394705D01*
X16719360Y-33395849D01*
X16719360Y-33395849D01*
G37*
D12*
X16731436Y-34003436D03*
G04 #@! TD*
D11*
G04 #@! TO.C,C16*
G36*
X11456070Y-8822977D02*
X11479125Y-8826396D01*
X11501734Y-8832060D01*
X11523678Y-8839912D01*
X11544748Y-8849877D01*
X11564739Y-8861859D01*
X11583459Y-8875743D01*
X11600729Y-8891395D01*
X11936605Y-9227271D01*
X11952257Y-9244541D01*
X11966141Y-9263261D01*
X11978123Y-9283252D01*
X11988088Y-9304322D01*
X11995940Y-9326266D01*
X12001604Y-9348875D01*
X12005023Y-9371930D01*
X12006167Y-9395209D01*
X12005023Y-9418488D01*
X12001604Y-9441543D01*
X11995940Y-9464152D01*
X11988088Y-9486096D01*
X11978123Y-9507166D01*
X11966141Y-9527157D01*
X11952257Y-9545877D01*
X11936605Y-9563147D01*
X11530019Y-9969733D01*
X11512749Y-9985385D01*
X11494029Y-9999269D01*
X11474038Y-10011251D01*
X11452968Y-10021216D01*
X11431024Y-10029068D01*
X11408415Y-10034732D01*
X11385360Y-10038151D01*
X11362081Y-10039295D01*
X11338802Y-10038151D01*
X11315747Y-10034732D01*
X11293138Y-10029068D01*
X11271194Y-10021216D01*
X11250124Y-10011251D01*
X11230133Y-9999269D01*
X11211413Y-9985385D01*
X11194143Y-9969733D01*
X10858267Y-9633857D01*
X10842615Y-9616587D01*
X10828731Y-9597867D01*
X10816749Y-9577876D01*
X10806784Y-9556806D01*
X10798932Y-9534862D01*
X10793268Y-9512253D01*
X10789849Y-9489198D01*
X10788705Y-9465919D01*
X10789849Y-9442640D01*
X10793268Y-9419585D01*
X10798932Y-9396976D01*
X10806784Y-9375032D01*
X10816749Y-9353962D01*
X10828731Y-9333971D01*
X10842615Y-9315251D01*
X10858267Y-9297981D01*
X11264853Y-8891395D01*
X11282123Y-8875743D01*
X11300843Y-8861859D01*
X11320834Y-8849877D01*
X11341904Y-8839912D01*
X11363848Y-8832060D01*
X11386457Y-8826396D01*
X11409512Y-8822977D01*
X11432791Y-8821833D01*
X11456070Y-8822977D01*
X11456070Y-8822977D01*
G37*
D12*
X11397436Y-9430564D03*
D11*
G36*
X10218634Y-10060413D02*
X10241689Y-10063832D01*
X10264298Y-10069496D01*
X10286242Y-10077348D01*
X10307312Y-10087313D01*
X10327303Y-10099295D01*
X10346023Y-10113179D01*
X10363293Y-10128831D01*
X10699169Y-10464707D01*
X10714821Y-10481977D01*
X10728705Y-10500697D01*
X10740687Y-10520688D01*
X10750652Y-10541758D01*
X10758504Y-10563702D01*
X10764168Y-10586311D01*
X10767587Y-10609366D01*
X10768731Y-10632645D01*
X10767587Y-10655924D01*
X10764168Y-10678979D01*
X10758504Y-10701588D01*
X10750652Y-10723532D01*
X10740687Y-10744602D01*
X10728705Y-10764593D01*
X10714821Y-10783313D01*
X10699169Y-10800583D01*
X10292583Y-11207169D01*
X10275313Y-11222821D01*
X10256593Y-11236705D01*
X10236602Y-11248687D01*
X10215532Y-11258652D01*
X10193588Y-11266504D01*
X10170979Y-11272168D01*
X10147924Y-11275587D01*
X10124645Y-11276731D01*
X10101366Y-11275587D01*
X10078311Y-11272168D01*
X10055702Y-11266504D01*
X10033758Y-11258652D01*
X10012688Y-11248687D01*
X9992697Y-11236705D01*
X9973977Y-11222821D01*
X9956707Y-11207169D01*
X9620831Y-10871293D01*
X9605179Y-10854023D01*
X9591295Y-10835303D01*
X9579313Y-10815312D01*
X9569348Y-10794242D01*
X9561496Y-10772298D01*
X9555832Y-10749689D01*
X9552413Y-10726634D01*
X9551269Y-10703355D01*
X9552413Y-10680076D01*
X9555832Y-10657021D01*
X9561496Y-10634412D01*
X9569348Y-10612468D01*
X9579313Y-10591398D01*
X9591295Y-10571407D01*
X9605179Y-10552687D01*
X9620831Y-10535417D01*
X10027417Y-10128831D01*
X10044687Y-10113179D01*
X10063407Y-10099295D01*
X10083398Y-10087313D01*
X10104468Y-10077348D01*
X10126412Y-10069496D01*
X10149021Y-10063832D01*
X10172076Y-10060413D01*
X10195355Y-10059269D01*
X10218634Y-10060413D01*
X10218634Y-10060413D01*
G37*
D12*
X10160000Y-10668000D03*
G04 #@! TD*
D11*
G04 #@! TO.C,C17*
G36*
X19310779Y-9890144D02*
X19333834Y-9893563D01*
X19356443Y-9899227D01*
X19378387Y-9907079D01*
X19399457Y-9917044D01*
X19419448Y-9929026D01*
X19438168Y-9942910D01*
X19455438Y-9958562D01*
X19471090Y-9975832D01*
X19484974Y-9994552D01*
X19496956Y-10014543D01*
X19506921Y-10035613D01*
X19514773Y-10057557D01*
X19520437Y-10080166D01*
X19523856Y-10103221D01*
X19525000Y-10126500D01*
X19525000Y-10701500D01*
X19523856Y-10724779D01*
X19520437Y-10747834D01*
X19514773Y-10770443D01*
X19506921Y-10792387D01*
X19496956Y-10813457D01*
X19484974Y-10833448D01*
X19471090Y-10852168D01*
X19455438Y-10869438D01*
X19438168Y-10885090D01*
X19419448Y-10898974D01*
X19399457Y-10910956D01*
X19378387Y-10920921D01*
X19356443Y-10928773D01*
X19333834Y-10934437D01*
X19310779Y-10937856D01*
X19287500Y-10939000D01*
X18812500Y-10939000D01*
X18789221Y-10937856D01*
X18766166Y-10934437D01*
X18743557Y-10928773D01*
X18721613Y-10920921D01*
X18700543Y-10910956D01*
X18680552Y-10898974D01*
X18661832Y-10885090D01*
X18644562Y-10869438D01*
X18628910Y-10852168D01*
X18615026Y-10833448D01*
X18603044Y-10813457D01*
X18593079Y-10792387D01*
X18585227Y-10770443D01*
X18579563Y-10747834D01*
X18576144Y-10724779D01*
X18575000Y-10701500D01*
X18575000Y-10126500D01*
X18576144Y-10103221D01*
X18579563Y-10080166D01*
X18585227Y-10057557D01*
X18593079Y-10035613D01*
X18603044Y-10014543D01*
X18615026Y-9994552D01*
X18628910Y-9975832D01*
X18644562Y-9958562D01*
X18661832Y-9942910D01*
X18680552Y-9929026D01*
X18700543Y-9917044D01*
X18721613Y-9907079D01*
X18743557Y-9899227D01*
X18766166Y-9893563D01*
X18789221Y-9890144D01*
X18812500Y-9889000D01*
X19287500Y-9889000D01*
X19310779Y-9890144D01*
X19310779Y-9890144D01*
G37*
D12*
X19050000Y-10414000D03*
D11*
G36*
X19310779Y-8140144D02*
X19333834Y-8143563D01*
X19356443Y-8149227D01*
X19378387Y-8157079D01*
X19399457Y-8167044D01*
X19419448Y-8179026D01*
X19438168Y-8192910D01*
X19455438Y-8208562D01*
X19471090Y-8225832D01*
X19484974Y-8244552D01*
X19496956Y-8264543D01*
X19506921Y-8285613D01*
X19514773Y-8307557D01*
X19520437Y-8330166D01*
X19523856Y-8353221D01*
X19525000Y-8376500D01*
X19525000Y-8951500D01*
X19523856Y-8974779D01*
X19520437Y-8997834D01*
X19514773Y-9020443D01*
X19506921Y-9042387D01*
X19496956Y-9063457D01*
X19484974Y-9083448D01*
X19471090Y-9102168D01*
X19455438Y-9119438D01*
X19438168Y-9135090D01*
X19419448Y-9148974D01*
X19399457Y-9160956D01*
X19378387Y-9170921D01*
X19356443Y-9178773D01*
X19333834Y-9184437D01*
X19310779Y-9187856D01*
X19287500Y-9189000D01*
X18812500Y-9189000D01*
X18789221Y-9187856D01*
X18766166Y-9184437D01*
X18743557Y-9178773D01*
X18721613Y-9170921D01*
X18700543Y-9160956D01*
X18680552Y-9148974D01*
X18661832Y-9135090D01*
X18644562Y-9119438D01*
X18628910Y-9102168D01*
X18615026Y-9083448D01*
X18603044Y-9063457D01*
X18593079Y-9042387D01*
X18585227Y-9020443D01*
X18579563Y-8997834D01*
X18576144Y-8974779D01*
X18575000Y-8951500D01*
X18575000Y-8376500D01*
X18576144Y-8353221D01*
X18579563Y-8330166D01*
X18585227Y-8307557D01*
X18593079Y-8285613D01*
X18603044Y-8264543D01*
X18615026Y-8244552D01*
X18628910Y-8225832D01*
X18644562Y-8208562D01*
X18661832Y-8192910D01*
X18680552Y-8179026D01*
X18700543Y-8167044D01*
X18721613Y-8157079D01*
X18743557Y-8149227D01*
X18766166Y-8143563D01*
X18789221Y-8140144D01*
X18812500Y-8139000D01*
X19287500Y-8139000D01*
X19310779Y-8140144D01*
X19310779Y-8140144D01*
G37*
D12*
X19050000Y-8664000D03*
G04 #@! TD*
D11*
G04 #@! TO.C,C18*
G36*
X30536779Y-21370144D02*
X30559834Y-21373563D01*
X30582443Y-21379227D01*
X30604387Y-21387079D01*
X30625457Y-21397044D01*
X30645448Y-21409026D01*
X30664168Y-21422910D01*
X30681438Y-21438562D01*
X30697090Y-21455832D01*
X30710974Y-21474552D01*
X30722956Y-21494543D01*
X30732921Y-21515613D01*
X30740773Y-21537557D01*
X30746437Y-21560166D01*
X30749856Y-21583221D01*
X30751000Y-21606500D01*
X30751000Y-22081500D01*
X30749856Y-22104779D01*
X30746437Y-22127834D01*
X30740773Y-22150443D01*
X30732921Y-22172387D01*
X30722956Y-22193457D01*
X30710974Y-22213448D01*
X30697090Y-22232168D01*
X30681438Y-22249438D01*
X30664168Y-22265090D01*
X30645448Y-22278974D01*
X30625457Y-22290956D01*
X30604387Y-22300921D01*
X30582443Y-22308773D01*
X30559834Y-22314437D01*
X30536779Y-22317856D01*
X30513500Y-22319000D01*
X29938500Y-22319000D01*
X29915221Y-22317856D01*
X29892166Y-22314437D01*
X29869557Y-22308773D01*
X29847613Y-22300921D01*
X29826543Y-22290956D01*
X29806552Y-22278974D01*
X29787832Y-22265090D01*
X29770562Y-22249438D01*
X29754910Y-22232168D01*
X29741026Y-22213448D01*
X29729044Y-22193457D01*
X29719079Y-22172387D01*
X29711227Y-22150443D01*
X29705563Y-22127834D01*
X29702144Y-22104779D01*
X29701000Y-22081500D01*
X29701000Y-21606500D01*
X29702144Y-21583221D01*
X29705563Y-21560166D01*
X29711227Y-21537557D01*
X29719079Y-21515613D01*
X29729044Y-21494543D01*
X29741026Y-21474552D01*
X29754910Y-21455832D01*
X29770562Y-21438562D01*
X29787832Y-21422910D01*
X29806552Y-21409026D01*
X29826543Y-21397044D01*
X29847613Y-21387079D01*
X29869557Y-21379227D01*
X29892166Y-21373563D01*
X29915221Y-21370144D01*
X29938500Y-21369000D01*
X30513500Y-21369000D01*
X30536779Y-21370144D01*
X30536779Y-21370144D01*
G37*
D12*
X30226000Y-21844000D03*
D11*
G36*
X32286779Y-21370144D02*
X32309834Y-21373563D01*
X32332443Y-21379227D01*
X32354387Y-21387079D01*
X32375457Y-21397044D01*
X32395448Y-21409026D01*
X32414168Y-21422910D01*
X32431438Y-21438562D01*
X32447090Y-21455832D01*
X32460974Y-21474552D01*
X32472956Y-21494543D01*
X32482921Y-21515613D01*
X32490773Y-21537557D01*
X32496437Y-21560166D01*
X32499856Y-21583221D01*
X32501000Y-21606500D01*
X32501000Y-22081500D01*
X32499856Y-22104779D01*
X32496437Y-22127834D01*
X32490773Y-22150443D01*
X32482921Y-22172387D01*
X32472956Y-22193457D01*
X32460974Y-22213448D01*
X32447090Y-22232168D01*
X32431438Y-22249438D01*
X32414168Y-22265090D01*
X32395448Y-22278974D01*
X32375457Y-22290956D01*
X32354387Y-22300921D01*
X32332443Y-22308773D01*
X32309834Y-22314437D01*
X32286779Y-22317856D01*
X32263500Y-22319000D01*
X31688500Y-22319000D01*
X31665221Y-22317856D01*
X31642166Y-22314437D01*
X31619557Y-22308773D01*
X31597613Y-22300921D01*
X31576543Y-22290956D01*
X31556552Y-22278974D01*
X31537832Y-22265090D01*
X31520562Y-22249438D01*
X31504910Y-22232168D01*
X31491026Y-22213448D01*
X31479044Y-22193457D01*
X31469079Y-22172387D01*
X31461227Y-22150443D01*
X31455563Y-22127834D01*
X31452144Y-22104779D01*
X31451000Y-22081500D01*
X31451000Y-21606500D01*
X31452144Y-21583221D01*
X31455563Y-21560166D01*
X31461227Y-21537557D01*
X31469079Y-21515613D01*
X31479044Y-21494543D01*
X31491026Y-21474552D01*
X31504910Y-21455832D01*
X31520562Y-21438562D01*
X31537832Y-21422910D01*
X31556552Y-21409026D01*
X31576543Y-21397044D01*
X31597613Y-21387079D01*
X31619557Y-21379227D01*
X31642166Y-21373563D01*
X31665221Y-21370144D01*
X31688500Y-21369000D01*
X32263500Y-21369000D01*
X32286779Y-21370144D01*
X32286779Y-21370144D01*
G37*
D12*
X31976000Y-21844000D03*
G04 #@! TD*
D11*
G04 #@! TO.C,R3*
G36*
X26218779Y-39150144D02*
X26241834Y-39153563D01*
X26264443Y-39159227D01*
X26286387Y-39167079D01*
X26307457Y-39177044D01*
X26327448Y-39189026D01*
X26346168Y-39202910D01*
X26363438Y-39218562D01*
X26379090Y-39235832D01*
X26392974Y-39254552D01*
X26404956Y-39274543D01*
X26414921Y-39295613D01*
X26422773Y-39317557D01*
X26428437Y-39340166D01*
X26431856Y-39363221D01*
X26433000Y-39386500D01*
X26433000Y-39861500D01*
X26431856Y-39884779D01*
X26428437Y-39907834D01*
X26422773Y-39930443D01*
X26414921Y-39952387D01*
X26404956Y-39973457D01*
X26392974Y-39993448D01*
X26379090Y-40012168D01*
X26363438Y-40029438D01*
X26346168Y-40045090D01*
X26327448Y-40058974D01*
X26307457Y-40070956D01*
X26286387Y-40080921D01*
X26264443Y-40088773D01*
X26241834Y-40094437D01*
X26218779Y-40097856D01*
X26195500Y-40099000D01*
X25620500Y-40099000D01*
X25597221Y-40097856D01*
X25574166Y-40094437D01*
X25551557Y-40088773D01*
X25529613Y-40080921D01*
X25508543Y-40070956D01*
X25488552Y-40058974D01*
X25469832Y-40045090D01*
X25452562Y-40029438D01*
X25436910Y-40012168D01*
X25423026Y-39993448D01*
X25411044Y-39973457D01*
X25401079Y-39952387D01*
X25393227Y-39930443D01*
X25387563Y-39907834D01*
X25384144Y-39884779D01*
X25383000Y-39861500D01*
X25383000Y-39386500D01*
X25384144Y-39363221D01*
X25387563Y-39340166D01*
X25393227Y-39317557D01*
X25401079Y-39295613D01*
X25411044Y-39274543D01*
X25423026Y-39254552D01*
X25436910Y-39235832D01*
X25452562Y-39218562D01*
X25469832Y-39202910D01*
X25488552Y-39189026D01*
X25508543Y-39177044D01*
X25529613Y-39167079D01*
X25551557Y-39159227D01*
X25574166Y-39153563D01*
X25597221Y-39150144D01*
X25620500Y-39149000D01*
X26195500Y-39149000D01*
X26218779Y-39150144D01*
X26218779Y-39150144D01*
G37*
D12*
X25908000Y-39624000D03*
D11*
G36*
X24468779Y-39150144D02*
X24491834Y-39153563D01*
X24514443Y-39159227D01*
X24536387Y-39167079D01*
X24557457Y-39177044D01*
X24577448Y-39189026D01*
X24596168Y-39202910D01*
X24613438Y-39218562D01*
X24629090Y-39235832D01*
X24642974Y-39254552D01*
X24654956Y-39274543D01*
X24664921Y-39295613D01*
X24672773Y-39317557D01*
X24678437Y-39340166D01*
X24681856Y-39363221D01*
X24683000Y-39386500D01*
X24683000Y-39861500D01*
X24681856Y-39884779D01*
X24678437Y-39907834D01*
X24672773Y-39930443D01*
X24664921Y-39952387D01*
X24654956Y-39973457D01*
X24642974Y-39993448D01*
X24629090Y-40012168D01*
X24613438Y-40029438D01*
X24596168Y-40045090D01*
X24577448Y-40058974D01*
X24557457Y-40070956D01*
X24536387Y-40080921D01*
X24514443Y-40088773D01*
X24491834Y-40094437D01*
X24468779Y-40097856D01*
X24445500Y-40099000D01*
X23870500Y-40099000D01*
X23847221Y-40097856D01*
X23824166Y-40094437D01*
X23801557Y-40088773D01*
X23779613Y-40080921D01*
X23758543Y-40070956D01*
X23738552Y-40058974D01*
X23719832Y-40045090D01*
X23702562Y-40029438D01*
X23686910Y-40012168D01*
X23673026Y-39993448D01*
X23661044Y-39973457D01*
X23651079Y-39952387D01*
X23643227Y-39930443D01*
X23637563Y-39907834D01*
X23634144Y-39884779D01*
X23633000Y-39861500D01*
X23633000Y-39386500D01*
X23634144Y-39363221D01*
X23637563Y-39340166D01*
X23643227Y-39317557D01*
X23651079Y-39295613D01*
X23661044Y-39274543D01*
X23673026Y-39254552D01*
X23686910Y-39235832D01*
X23702562Y-39218562D01*
X23719832Y-39202910D01*
X23738552Y-39189026D01*
X23758543Y-39177044D01*
X23779613Y-39167079D01*
X23801557Y-39159227D01*
X23824166Y-39153563D01*
X23847221Y-39150144D01*
X23870500Y-39149000D01*
X24445500Y-39149000D01*
X24468779Y-39150144D01*
X24468779Y-39150144D01*
G37*
D12*
X24158000Y-39624000D03*
G04 #@! TD*
D11*
G04 #@! TO.C,R4*
G36*
X24468779Y-41182144D02*
X24491834Y-41185563D01*
X24514443Y-41191227D01*
X24536387Y-41199079D01*
X24557457Y-41209044D01*
X24577448Y-41221026D01*
X24596168Y-41234910D01*
X24613438Y-41250562D01*
X24629090Y-41267832D01*
X24642974Y-41286552D01*
X24654956Y-41306543D01*
X24664921Y-41327613D01*
X24672773Y-41349557D01*
X24678437Y-41372166D01*
X24681856Y-41395221D01*
X24683000Y-41418500D01*
X24683000Y-41893500D01*
X24681856Y-41916779D01*
X24678437Y-41939834D01*
X24672773Y-41962443D01*
X24664921Y-41984387D01*
X24654956Y-42005457D01*
X24642974Y-42025448D01*
X24629090Y-42044168D01*
X24613438Y-42061438D01*
X24596168Y-42077090D01*
X24577448Y-42090974D01*
X24557457Y-42102956D01*
X24536387Y-42112921D01*
X24514443Y-42120773D01*
X24491834Y-42126437D01*
X24468779Y-42129856D01*
X24445500Y-42131000D01*
X23870500Y-42131000D01*
X23847221Y-42129856D01*
X23824166Y-42126437D01*
X23801557Y-42120773D01*
X23779613Y-42112921D01*
X23758543Y-42102956D01*
X23738552Y-42090974D01*
X23719832Y-42077090D01*
X23702562Y-42061438D01*
X23686910Y-42044168D01*
X23673026Y-42025448D01*
X23661044Y-42005457D01*
X23651079Y-41984387D01*
X23643227Y-41962443D01*
X23637563Y-41939834D01*
X23634144Y-41916779D01*
X23633000Y-41893500D01*
X23633000Y-41418500D01*
X23634144Y-41395221D01*
X23637563Y-41372166D01*
X23643227Y-41349557D01*
X23651079Y-41327613D01*
X23661044Y-41306543D01*
X23673026Y-41286552D01*
X23686910Y-41267832D01*
X23702562Y-41250562D01*
X23719832Y-41234910D01*
X23738552Y-41221026D01*
X23758543Y-41209044D01*
X23779613Y-41199079D01*
X23801557Y-41191227D01*
X23824166Y-41185563D01*
X23847221Y-41182144D01*
X23870500Y-41181000D01*
X24445500Y-41181000D01*
X24468779Y-41182144D01*
X24468779Y-41182144D01*
G37*
D12*
X24158000Y-41656000D03*
D11*
G36*
X26218779Y-41182144D02*
X26241834Y-41185563D01*
X26264443Y-41191227D01*
X26286387Y-41199079D01*
X26307457Y-41209044D01*
X26327448Y-41221026D01*
X26346168Y-41234910D01*
X26363438Y-41250562D01*
X26379090Y-41267832D01*
X26392974Y-41286552D01*
X26404956Y-41306543D01*
X26414921Y-41327613D01*
X26422773Y-41349557D01*
X26428437Y-41372166D01*
X26431856Y-41395221D01*
X26433000Y-41418500D01*
X26433000Y-41893500D01*
X26431856Y-41916779D01*
X26428437Y-41939834D01*
X26422773Y-41962443D01*
X26414921Y-41984387D01*
X26404956Y-42005457D01*
X26392974Y-42025448D01*
X26379090Y-42044168D01*
X26363438Y-42061438D01*
X26346168Y-42077090D01*
X26327448Y-42090974D01*
X26307457Y-42102956D01*
X26286387Y-42112921D01*
X26264443Y-42120773D01*
X26241834Y-42126437D01*
X26218779Y-42129856D01*
X26195500Y-42131000D01*
X25620500Y-42131000D01*
X25597221Y-42129856D01*
X25574166Y-42126437D01*
X25551557Y-42120773D01*
X25529613Y-42112921D01*
X25508543Y-42102956D01*
X25488552Y-42090974D01*
X25469832Y-42077090D01*
X25452562Y-42061438D01*
X25436910Y-42044168D01*
X25423026Y-42025448D01*
X25411044Y-42005457D01*
X25401079Y-41984387D01*
X25393227Y-41962443D01*
X25387563Y-41939834D01*
X25384144Y-41916779D01*
X25383000Y-41893500D01*
X25383000Y-41418500D01*
X25384144Y-41395221D01*
X25387563Y-41372166D01*
X25393227Y-41349557D01*
X25401079Y-41327613D01*
X25411044Y-41306543D01*
X25423026Y-41286552D01*
X25436910Y-41267832D01*
X25452562Y-41250562D01*
X25469832Y-41234910D01*
X25488552Y-41221026D01*
X25508543Y-41209044D01*
X25529613Y-41199079D01*
X25551557Y-41191227D01*
X25574166Y-41185563D01*
X25597221Y-41182144D01*
X25620500Y-41181000D01*
X26195500Y-41181000D01*
X26218779Y-41182144D01*
X26218779Y-41182144D01*
G37*
D12*
X25908000Y-41656000D03*
G04 #@! TD*
D11*
G04 #@! TO.C,R5*
G36*
X38410779Y-13496144D02*
X38433834Y-13499563D01*
X38456443Y-13505227D01*
X38478387Y-13513079D01*
X38499457Y-13523044D01*
X38519448Y-13535026D01*
X38538168Y-13548910D01*
X38555438Y-13564562D01*
X38571090Y-13581832D01*
X38584974Y-13600552D01*
X38596956Y-13620543D01*
X38606921Y-13641613D01*
X38614773Y-13663557D01*
X38620437Y-13686166D01*
X38623856Y-13709221D01*
X38625000Y-13732500D01*
X38625000Y-14207500D01*
X38623856Y-14230779D01*
X38620437Y-14253834D01*
X38614773Y-14276443D01*
X38606921Y-14298387D01*
X38596956Y-14319457D01*
X38584974Y-14339448D01*
X38571090Y-14358168D01*
X38555438Y-14375438D01*
X38538168Y-14391090D01*
X38519448Y-14404974D01*
X38499457Y-14416956D01*
X38478387Y-14426921D01*
X38456443Y-14434773D01*
X38433834Y-14440437D01*
X38410779Y-14443856D01*
X38387500Y-14445000D01*
X37812500Y-14445000D01*
X37789221Y-14443856D01*
X37766166Y-14440437D01*
X37743557Y-14434773D01*
X37721613Y-14426921D01*
X37700543Y-14416956D01*
X37680552Y-14404974D01*
X37661832Y-14391090D01*
X37644562Y-14375438D01*
X37628910Y-14358168D01*
X37615026Y-14339448D01*
X37603044Y-14319457D01*
X37593079Y-14298387D01*
X37585227Y-14276443D01*
X37579563Y-14253834D01*
X37576144Y-14230779D01*
X37575000Y-14207500D01*
X37575000Y-13732500D01*
X37576144Y-13709221D01*
X37579563Y-13686166D01*
X37585227Y-13663557D01*
X37593079Y-13641613D01*
X37603044Y-13620543D01*
X37615026Y-13600552D01*
X37628910Y-13581832D01*
X37644562Y-13564562D01*
X37661832Y-13548910D01*
X37680552Y-13535026D01*
X37700543Y-13523044D01*
X37721613Y-13513079D01*
X37743557Y-13505227D01*
X37766166Y-13499563D01*
X37789221Y-13496144D01*
X37812500Y-13495000D01*
X38387500Y-13495000D01*
X38410779Y-13496144D01*
X38410779Y-13496144D01*
G37*
D12*
X38100000Y-13970000D03*
D11*
G36*
X40160779Y-13496144D02*
X40183834Y-13499563D01*
X40206443Y-13505227D01*
X40228387Y-13513079D01*
X40249457Y-13523044D01*
X40269448Y-13535026D01*
X40288168Y-13548910D01*
X40305438Y-13564562D01*
X40321090Y-13581832D01*
X40334974Y-13600552D01*
X40346956Y-13620543D01*
X40356921Y-13641613D01*
X40364773Y-13663557D01*
X40370437Y-13686166D01*
X40373856Y-13709221D01*
X40375000Y-13732500D01*
X40375000Y-14207500D01*
X40373856Y-14230779D01*
X40370437Y-14253834D01*
X40364773Y-14276443D01*
X40356921Y-14298387D01*
X40346956Y-14319457D01*
X40334974Y-14339448D01*
X40321090Y-14358168D01*
X40305438Y-14375438D01*
X40288168Y-14391090D01*
X40269448Y-14404974D01*
X40249457Y-14416956D01*
X40228387Y-14426921D01*
X40206443Y-14434773D01*
X40183834Y-14440437D01*
X40160779Y-14443856D01*
X40137500Y-14445000D01*
X39562500Y-14445000D01*
X39539221Y-14443856D01*
X39516166Y-14440437D01*
X39493557Y-14434773D01*
X39471613Y-14426921D01*
X39450543Y-14416956D01*
X39430552Y-14404974D01*
X39411832Y-14391090D01*
X39394562Y-14375438D01*
X39378910Y-14358168D01*
X39365026Y-14339448D01*
X39353044Y-14319457D01*
X39343079Y-14298387D01*
X39335227Y-14276443D01*
X39329563Y-14253834D01*
X39326144Y-14230779D01*
X39325000Y-14207500D01*
X39325000Y-13732500D01*
X39326144Y-13709221D01*
X39329563Y-13686166D01*
X39335227Y-13663557D01*
X39343079Y-13641613D01*
X39353044Y-13620543D01*
X39365026Y-13600552D01*
X39378910Y-13581832D01*
X39394562Y-13564562D01*
X39411832Y-13548910D01*
X39430552Y-13535026D01*
X39450543Y-13523044D01*
X39471613Y-13513079D01*
X39493557Y-13505227D01*
X39516166Y-13499563D01*
X39539221Y-13496144D01*
X39562500Y-13495000D01*
X40137500Y-13495000D01*
X40160779Y-13496144D01*
X40160779Y-13496144D01*
G37*
D12*
X39850000Y-13970000D03*
G04 #@! TD*
D11*
G04 #@! TO.C,R6*
G36*
X38360779Y-15224144D02*
X38383834Y-15227563D01*
X38406443Y-15233227D01*
X38428387Y-15241079D01*
X38449457Y-15251044D01*
X38469448Y-15263026D01*
X38488168Y-15276910D01*
X38505438Y-15292562D01*
X38521090Y-15309832D01*
X38534974Y-15328552D01*
X38546956Y-15348543D01*
X38556921Y-15369613D01*
X38564773Y-15391557D01*
X38570437Y-15414166D01*
X38573856Y-15437221D01*
X38575000Y-15460500D01*
X38575000Y-16035500D01*
X38573856Y-16058779D01*
X38570437Y-16081834D01*
X38564773Y-16104443D01*
X38556921Y-16126387D01*
X38546956Y-16147457D01*
X38534974Y-16167448D01*
X38521090Y-16186168D01*
X38505438Y-16203438D01*
X38488168Y-16219090D01*
X38469448Y-16232974D01*
X38449457Y-16244956D01*
X38428387Y-16254921D01*
X38406443Y-16262773D01*
X38383834Y-16268437D01*
X38360779Y-16271856D01*
X38337500Y-16273000D01*
X37862500Y-16273000D01*
X37839221Y-16271856D01*
X37816166Y-16268437D01*
X37793557Y-16262773D01*
X37771613Y-16254921D01*
X37750543Y-16244956D01*
X37730552Y-16232974D01*
X37711832Y-16219090D01*
X37694562Y-16203438D01*
X37678910Y-16186168D01*
X37665026Y-16167448D01*
X37653044Y-16147457D01*
X37643079Y-16126387D01*
X37635227Y-16104443D01*
X37629563Y-16081834D01*
X37626144Y-16058779D01*
X37625000Y-16035500D01*
X37625000Y-15460500D01*
X37626144Y-15437221D01*
X37629563Y-15414166D01*
X37635227Y-15391557D01*
X37643079Y-15369613D01*
X37653044Y-15348543D01*
X37665026Y-15328552D01*
X37678910Y-15309832D01*
X37694562Y-15292562D01*
X37711832Y-15276910D01*
X37730552Y-15263026D01*
X37750543Y-15251044D01*
X37771613Y-15241079D01*
X37793557Y-15233227D01*
X37816166Y-15227563D01*
X37839221Y-15224144D01*
X37862500Y-15223000D01*
X38337500Y-15223000D01*
X38360779Y-15224144D01*
X38360779Y-15224144D01*
G37*
D12*
X38100000Y-15748000D03*
D11*
G36*
X38360779Y-16974144D02*
X38383834Y-16977563D01*
X38406443Y-16983227D01*
X38428387Y-16991079D01*
X38449457Y-17001044D01*
X38469448Y-17013026D01*
X38488168Y-17026910D01*
X38505438Y-17042562D01*
X38521090Y-17059832D01*
X38534974Y-17078552D01*
X38546956Y-17098543D01*
X38556921Y-17119613D01*
X38564773Y-17141557D01*
X38570437Y-17164166D01*
X38573856Y-17187221D01*
X38575000Y-17210500D01*
X38575000Y-17785500D01*
X38573856Y-17808779D01*
X38570437Y-17831834D01*
X38564773Y-17854443D01*
X38556921Y-17876387D01*
X38546956Y-17897457D01*
X38534974Y-17917448D01*
X38521090Y-17936168D01*
X38505438Y-17953438D01*
X38488168Y-17969090D01*
X38469448Y-17982974D01*
X38449457Y-17994956D01*
X38428387Y-18004921D01*
X38406443Y-18012773D01*
X38383834Y-18018437D01*
X38360779Y-18021856D01*
X38337500Y-18023000D01*
X37862500Y-18023000D01*
X37839221Y-18021856D01*
X37816166Y-18018437D01*
X37793557Y-18012773D01*
X37771613Y-18004921D01*
X37750543Y-17994956D01*
X37730552Y-17982974D01*
X37711832Y-17969090D01*
X37694562Y-17953438D01*
X37678910Y-17936168D01*
X37665026Y-17917448D01*
X37653044Y-17897457D01*
X37643079Y-17876387D01*
X37635227Y-17854443D01*
X37629563Y-17831834D01*
X37626144Y-17808779D01*
X37625000Y-17785500D01*
X37625000Y-17210500D01*
X37626144Y-17187221D01*
X37629563Y-17164166D01*
X37635227Y-17141557D01*
X37643079Y-17119613D01*
X37653044Y-17098543D01*
X37665026Y-17078552D01*
X37678910Y-17059832D01*
X37694562Y-17042562D01*
X37711832Y-17026910D01*
X37730552Y-17013026D01*
X37750543Y-17001044D01*
X37771613Y-16991079D01*
X37793557Y-16983227D01*
X37816166Y-16977563D01*
X37839221Y-16974144D01*
X37862500Y-16973000D01*
X38337500Y-16973000D01*
X38360779Y-16974144D01*
X38360779Y-16974144D01*
G37*
D12*
X38100000Y-17498000D03*
G04 #@! TD*
D11*
G04 #@! TO.C,R11*
G36*
X27347779Y-4352144D02*
X27370834Y-4355563D01*
X27393443Y-4361227D01*
X27415387Y-4369079D01*
X27436457Y-4379044D01*
X27456448Y-4391026D01*
X27475168Y-4404910D01*
X27492438Y-4420562D01*
X27508090Y-4437832D01*
X27521974Y-4456552D01*
X27533956Y-4476543D01*
X27543921Y-4497613D01*
X27551773Y-4519557D01*
X27557437Y-4542166D01*
X27560856Y-4565221D01*
X27562000Y-4588500D01*
X27562000Y-5063500D01*
X27560856Y-5086779D01*
X27557437Y-5109834D01*
X27551773Y-5132443D01*
X27543921Y-5154387D01*
X27533956Y-5175457D01*
X27521974Y-5195448D01*
X27508090Y-5214168D01*
X27492438Y-5231438D01*
X27475168Y-5247090D01*
X27456448Y-5260974D01*
X27436457Y-5272956D01*
X27415387Y-5282921D01*
X27393443Y-5290773D01*
X27370834Y-5296437D01*
X27347779Y-5299856D01*
X27324500Y-5301000D01*
X26749500Y-5301000D01*
X26726221Y-5299856D01*
X26703166Y-5296437D01*
X26680557Y-5290773D01*
X26658613Y-5282921D01*
X26637543Y-5272956D01*
X26617552Y-5260974D01*
X26598832Y-5247090D01*
X26581562Y-5231438D01*
X26565910Y-5214168D01*
X26552026Y-5195448D01*
X26540044Y-5175457D01*
X26530079Y-5154387D01*
X26522227Y-5132443D01*
X26516563Y-5109834D01*
X26513144Y-5086779D01*
X26512000Y-5063500D01*
X26512000Y-4588500D01*
X26513144Y-4565221D01*
X26516563Y-4542166D01*
X26522227Y-4519557D01*
X26530079Y-4497613D01*
X26540044Y-4476543D01*
X26552026Y-4456552D01*
X26565910Y-4437832D01*
X26581562Y-4420562D01*
X26598832Y-4404910D01*
X26617552Y-4391026D01*
X26637543Y-4379044D01*
X26658613Y-4369079D01*
X26680557Y-4361227D01*
X26703166Y-4355563D01*
X26726221Y-4352144D01*
X26749500Y-4351000D01*
X27324500Y-4351000D01*
X27347779Y-4352144D01*
X27347779Y-4352144D01*
G37*
D12*
X27037000Y-4826000D03*
D11*
G36*
X25597779Y-4352144D02*
X25620834Y-4355563D01*
X25643443Y-4361227D01*
X25665387Y-4369079D01*
X25686457Y-4379044D01*
X25706448Y-4391026D01*
X25725168Y-4404910D01*
X25742438Y-4420562D01*
X25758090Y-4437832D01*
X25771974Y-4456552D01*
X25783956Y-4476543D01*
X25793921Y-4497613D01*
X25801773Y-4519557D01*
X25807437Y-4542166D01*
X25810856Y-4565221D01*
X25812000Y-4588500D01*
X25812000Y-5063500D01*
X25810856Y-5086779D01*
X25807437Y-5109834D01*
X25801773Y-5132443D01*
X25793921Y-5154387D01*
X25783956Y-5175457D01*
X25771974Y-5195448D01*
X25758090Y-5214168D01*
X25742438Y-5231438D01*
X25725168Y-5247090D01*
X25706448Y-5260974D01*
X25686457Y-5272956D01*
X25665387Y-5282921D01*
X25643443Y-5290773D01*
X25620834Y-5296437D01*
X25597779Y-5299856D01*
X25574500Y-5301000D01*
X24999500Y-5301000D01*
X24976221Y-5299856D01*
X24953166Y-5296437D01*
X24930557Y-5290773D01*
X24908613Y-5282921D01*
X24887543Y-5272956D01*
X24867552Y-5260974D01*
X24848832Y-5247090D01*
X24831562Y-5231438D01*
X24815910Y-5214168D01*
X24802026Y-5195448D01*
X24790044Y-5175457D01*
X24780079Y-5154387D01*
X24772227Y-5132443D01*
X24766563Y-5109834D01*
X24763144Y-5086779D01*
X24762000Y-5063500D01*
X24762000Y-4588500D01*
X24763144Y-4565221D01*
X24766563Y-4542166D01*
X24772227Y-4519557D01*
X24780079Y-4497613D01*
X24790044Y-4476543D01*
X24802026Y-4456552D01*
X24815910Y-4437832D01*
X24831562Y-4420562D01*
X24848832Y-4404910D01*
X24867552Y-4391026D01*
X24887543Y-4379044D01*
X24908613Y-4369079D01*
X24930557Y-4361227D01*
X24953166Y-4355563D01*
X24976221Y-4352144D01*
X24999500Y-4351000D01*
X25574500Y-4351000D01*
X25597779Y-4352144D01*
X25597779Y-4352144D01*
G37*
D12*
X25287000Y-4826000D03*
G04 #@! TD*
D11*
G04 #@! TO.C,R12*
G36*
X33280779Y-27416144D02*
X33303834Y-27419563D01*
X33326443Y-27425227D01*
X33348387Y-27433079D01*
X33369457Y-27443044D01*
X33389448Y-27455026D01*
X33408168Y-27468910D01*
X33425438Y-27484562D01*
X33441090Y-27501832D01*
X33454974Y-27520552D01*
X33466956Y-27540543D01*
X33476921Y-27561613D01*
X33484773Y-27583557D01*
X33490437Y-27606166D01*
X33493856Y-27629221D01*
X33495000Y-27652500D01*
X33495000Y-28227500D01*
X33493856Y-28250779D01*
X33490437Y-28273834D01*
X33484773Y-28296443D01*
X33476921Y-28318387D01*
X33466956Y-28339457D01*
X33454974Y-28359448D01*
X33441090Y-28378168D01*
X33425438Y-28395438D01*
X33408168Y-28411090D01*
X33389448Y-28424974D01*
X33369457Y-28436956D01*
X33348387Y-28446921D01*
X33326443Y-28454773D01*
X33303834Y-28460437D01*
X33280779Y-28463856D01*
X33257500Y-28465000D01*
X32782500Y-28465000D01*
X32759221Y-28463856D01*
X32736166Y-28460437D01*
X32713557Y-28454773D01*
X32691613Y-28446921D01*
X32670543Y-28436956D01*
X32650552Y-28424974D01*
X32631832Y-28411090D01*
X32614562Y-28395438D01*
X32598910Y-28378168D01*
X32585026Y-28359448D01*
X32573044Y-28339457D01*
X32563079Y-28318387D01*
X32555227Y-28296443D01*
X32549563Y-28273834D01*
X32546144Y-28250779D01*
X32545000Y-28227500D01*
X32545000Y-27652500D01*
X32546144Y-27629221D01*
X32549563Y-27606166D01*
X32555227Y-27583557D01*
X32563079Y-27561613D01*
X32573044Y-27540543D01*
X32585026Y-27520552D01*
X32598910Y-27501832D01*
X32614562Y-27484562D01*
X32631832Y-27468910D01*
X32650552Y-27455026D01*
X32670543Y-27443044D01*
X32691613Y-27433079D01*
X32713557Y-27425227D01*
X32736166Y-27419563D01*
X32759221Y-27416144D01*
X32782500Y-27415000D01*
X33257500Y-27415000D01*
X33280779Y-27416144D01*
X33280779Y-27416144D01*
G37*
D12*
X33020000Y-27940000D03*
D11*
G36*
X33280779Y-29166144D02*
X33303834Y-29169563D01*
X33326443Y-29175227D01*
X33348387Y-29183079D01*
X33369457Y-29193044D01*
X33389448Y-29205026D01*
X33408168Y-29218910D01*
X33425438Y-29234562D01*
X33441090Y-29251832D01*
X33454974Y-29270552D01*
X33466956Y-29290543D01*
X33476921Y-29311613D01*
X33484773Y-29333557D01*
X33490437Y-29356166D01*
X33493856Y-29379221D01*
X33495000Y-29402500D01*
X33495000Y-29977500D01*
X33493856Y-30000779D01*
X33490437Y-30023834D01*
X33484773Y-30046443D01*
X33476921Y-30068387D01*
X33466956Y-30089457D01*
X33454974Y-30109448D01*
X33441090Y-30128168D01*
X33425438Y-30145438D01*
X33408168Y-30161090D01*
X33389448Y-30174974D01*
X33369457Y-30186956D01*
X33348387Y-30196921D01*
X33326443Y-30204773D01*
X33303834Y-30210437D01*
X33280779Y-30213856D01*
X33257500Y-30215000D01*
X32782500Y-30215000D01*
X32759221Y-30213856D01*
X32736166Y-30210437D01*
X32713557Y-30204773D01*
X32691613Y-30196921D01*
X32670543Y-30186956D01*
X32650552Y-30174974D01*
X32631832Y-30161090D01*
X32614562Y-30145438D01*
X32598910Y-30128168D01*
X32585026Y-30109448D01*
X32573044Y-30089457D01*
X32563079Y-30068387D01*
X32555227Y-30046443D01*
X32549563Y-30023834D01*
X32546144Y-30000779D01*
X32545000Y-29977500D01*
X32545000Y-29402500D01*
X32546144Y-29379221D01*
X32549563Y-29356166D01*
X32555227Y-29333557D01*
X32563079Y-29311613D01*
X32573044Y-29290543D01*
X32585026Y-29270552D01*
X32598910Y-29251832D01*
X32614562Y-29234562D01*
X32631832Y-29218910D01*
X32650552Y-29205026D01*
X32670543Y-29193044D01*
X32691613Y-29183079D01*
X32713557Y-29175227D01*
X32736166Y-29169563D01*
X32759221Y-29166144D01*
X32782500Y-29165000D01*
X33257500Y-29165000D01*
X33280779Y-29166144D01*
X33280779Y-29166144D01*
G37*
D12*
X33020000Y-29690000D03*
G04 #@! TD*
D11*
G04 #@! TO.C,R14*
G36*
X35058779Y-29166144D02*
X35081834Y-29169563D01*
X35104443Y-29175227D01*
X35126387Y-29183079D01*
X35147457Y-29193044D01*
X35167448Y-29205026D01*
X35186168Y-29218910D01*
X35203438Y-29234562D01*
X35219090Y-29251832D01*
X35232974Y-29270552D01*
X35244956Y-29290543D01*
X35254921Y-29311613D01*
X35262773Y-29333557D01*
X35268437Y-29356166D01*
X35271856Y-29379221D01*
X35273000Y-29402500D01*
X35273000Y-29977500D01*
X35271856Y-30000779D01*
X35268437Y-30023834D01*
X35262773Y-30046443D01*
X35254921Y-30068387D01*
X35244956Y-30089457D01*
X35232974Y-30109448D01*
X35219090Y-30128168D01*
X35203438Y-30145438D01*
X35186168Y-30161090D01*
X35167448Y-30174974D01*
X35147457Y-30186956D01*
X35126387Y-30196921D01*
X35104443Y-30204773D01*
X35081834Y-30210437D01*
X35058779Y-30213856D01*
X35035500Y-30215000D01*
X34560500Y-30215000D01*
X34537221Y-30213856D01*
X34514166Y-30210437D01*
X34491557Y-30204773D01*
X34469613Y-30196921D01*
X34448543Y-30186956D01*
X34428552Y-30174974D01*
X34409832Y-30161090D01*
X34392562Y-30145438D01*
X34376910Y-30128168D01*
X34363026Y-30109448D01*
X34351044Y-30089457D01*
X34341079Y-30068387D01*
X34333227Y-30046443D01*
X34327563Y-30023834D01*
X34324144Y-30000779D01*
X34323000Y-29977500D01*
X34323000Y-29402500D01*
X34324144Y-29379221D01*
X34327563Y-29356166D01*
X34333227Y-29333557D01*
X34341079Y-29311613D01*
X34351044Y-29290543D01*
X34363026Y-29270552D01*
X34376910Y-29251832D01*
X34392562Y-29234562D01*
X34409832Y-29218910D01*
X34428552Y-29205026D01*
X34448543Y-29193044D01*
X34469613Y-29183079D01*
X34491557Y-29175227D01*
X34514166Y-29169563D01*
X34537221Y-29166144D01*
X34560500Y-29165000D01*
X35035500Y-29165000D01*
X35058779Y-29166144D01*
X35058779Y-29166144D01*
G37*
D12*
X34798000Y-29690000D03*
D11*
G36*
X35058779Y-27416144D02*
X35081834Y-27419563D01*
X35104443Y-27425227D01*
X35126387Y-27433079D01*
X35147457Y-27443044D01*
X35167448Y-27455026D01*
X35186168Y-27468910D01*
X35203438Y-27484562D01*
X35219090Y-27501832D01*
X35232974Y-27520552D01*
X35244956Y-27540543D01*
X35254921Y-27561613D01*
X35262773Y-27583557D01*
X35268437Y-27606166D01*
X35271856Y-27629221D01*
X35273000Y-27652500D01*
X35273000Y-28227500D01*
X35271856Y-28250779D01*
X35268437Y-28273834D01*
X35262773Y-28296443D01*
X35254921Y-28318387D01*
X35244956Y-28339457D01*
X35232974Y-28359448D01*
X35219090Y-28378168D01*
X35203438Y-28395438D01*
X35186168Y-28411090D01*
X35167448Y-28424974D01*
X35147457Y-28436956D01*
X35126387Y-28446921D01*
X35104443Y-28454773D01*
X35081834Y-28460437D01*
X35058779Y-28463856D01*
X35035500Y-28465000D01*
X34560500Y-28465000D01*
X34537221Y-28463856D01*
X34514166Y-28460437D01*
X34491557Y-28454773D01*
X34469613Y-28446921D01*
X34448543Y-28436956D01*
X34428552Y-28424974D01*
X34409832Y-28411090D01*
X34392562Y-28395438D01*
X34376910Y-28378168D01*
X34363026Y-28359448D01*
X34351044Y-28339457D01*
X34341079Y-28318387D01*
X34333227Y-28296443D01*
X34327563Y-28273834D01*
X34324144Y-28250779D01*
X34323000Y-28227500D01*
X34323000Y-27652500D01*
X34324144Y-27629221D01*
X34327563Y-27606166D01*
X34333227Y-27583557D01*
X34341079Y-27561613D01*
X34351044Y-27540543D01*
X34363026Y-27520552D01*
X34376910Y-27501832D01*
X34392562Y-27484562D01*
X34409832Y-27468910D01*
X34428552Y-27455026D01*
X34448543Y-27443044D01*
X34469613Y-27433079D01*
X34491557Y-27425227D01*
X34514166Y-27419563D01*
X34537221Y-27416144D01*
X34560500Y-27415000D01*
X35035500Y-27415000D01*
X35058779Y-27416144D01*
X35058779Y-27416144D01*
G37*
D12*
X34798000Y-27940000D03*
G04 #@! TD*
D16*
G04 #@! TO.C,SW1*
X50126000Y-13970000D03*
X42926000Y-13970000D03*
X50126000Y-16970000D03*
X42926000Y-16970000D03*
G04 #@! TD*
D11*
G04 #@! TO.C,C19*
G36*
X29216779Y-7830144D02*
X29239834Y-7833563D01*
X29262443Y-7839227D01*
X29284387Y-7847079D01*
X29305457Y-7857044D01*
X29325448Y-7869026D01*
X29344168Y-7882910D01*
X29361438Y-7898562D01*
X29377090Y-7915832D01*
X29390974Y-7934552D01*
X29402956Y-7954543D01*
X29412921Y-7975613D01*
X29420773Y-7997557D01*
X29426437Y-8020166D01*
X29429856Y-8043221D01*
X29431000Y-8066500D01*
X29431000Y-8641500D01*
X29429856Y-8664779D01*
X29426437Y-8687834D01*
X29420773Y-8710443D01*
X29412921Y-8732387D01*
X29402956Y-8753457D01*
X29390974Y-8773448D01*
X29377090Y-8792168D01*
X29361438Y-8809438D01*
X29344168Y-8825090D01*
X29325448Y-8838974D01*
X29305457Y-8850956D01*
X29284387Y-8860921D01*
X29262443Y-8868773D01*
X29239834Y-8874437D01*
X29216779Y-8877856D01*
X29193500Y-8879000D01*
X28718500Y-8879000D01*
X28695221Y-8877856D01*
X28672166Y-8874437D01*
X28649557Y-8868773D01*
X28627613Y-8860921D01*
X28606543Y-8850956D01*
X28586552Y-8838974D01*
X28567832Y-8825090D01*
X28550562Y-8809438D01*
X28534910Y-8792168D01*
X28521026Y-8773448D01*
X28509044Y-8753457D01*
X28499079Y-8732387D01*
X28491227Y-8710443D01*
X28485563Y-8687834D01*
X28482144Y-8664779D01*
X28481000Y-8641500D01*
X28481000Y-8066500D01*
X28482144Y-8043221D01*
X28485563Y-8020166D01*
X28491227Y-7997557D01*
X28499079Y-7975613D01*
X28509044Y-7954543D01*
X28521026Y-7934552D01*
X28534910Y-7915832D01*
X28550562Y-7898562D01*
X28567832Y-7882910D01*
X28586552Y-7869026D01*
X28606543Y-7857044D01*
X28627613Y-7847079D01*
X28649557Y-7839227D01*
X28672166Y-7833563D01*
X28695221Y-7830144D01*
X28718500Y-7829000D01*
X29193500Y-7829000D01*
X29216779Y-7830144D01*
X29216779Y-7830144D01*
G37*
D12*
X28956000Y-8354000D03*
D11*
G36*
X29216779Y-6080144D02*
X29239834Y-6083563D01*
X29262443Y-6089227D01*
X29284387Y-6097079D01*
X29305457Y-6107044D01*
X29325448Y-6119026D01*
X29344168Y-6132910D01*
X29361438Y-6148562D01*
X29377090Y-6165832D01*
X29390974Y-6184552D01*
X29402956Y-6204543D01*
X29412921Y-6225613D01*
X29420773Y-6247557D01*
X29426437Y-6270166D01*
X29429856Y-6293221D01*
X29431000Y-6316500D01*
X29431000Y-6891500D01*
X29429856Y-6914779D01*
X29426437Y-6937834D01*
X29420773Y-6960443D01*
X29412921Y-6982387D01*
X29402956Y-7003457D01*
X29390974Y-7023448D01*
X29377090Y-7042168D01*
X29361438Y-7059438D01*
X29344168Y-7075090D01*
X29325448Y-7088974D01*
X29305457Y-7100956D01*
X29284387Y-7110921D01*
X29262443Y-7118773D01*
X29239834Y-7124437D01*
X29216779Y-7127856D01*
X29193500Y-7129000D01*
X28718500Y-7129000D01*
X28695221Y-7127856D01*
X28672166Y-7124437D01*
X28649557Y-7118773D01*
X28627613Y-7110921D01*
X28606543Y-7100956D01*
X28586552Y-7088974D01*
X28567832Y-7075090D01*
X28550562Y-7059438D01*
X28534910Y-7042168D01*
X28521026Y-7023448D01*
X28509044Y-7003457D01*
X28499079Y-6982387D01*
X28491227Y-6960443D01*
X28485563Y-6937834D01*
X28482144Y-6914779D01*
X28481000Y-6891500D01*
X28481000Y-6316500D01*
X28482144Y-6293221D01*
X28485563Y-6270166D01*
X28491227Y-6247557D01*
X28499079Y-6225613D01*
X28509044Y-6204543D01*
X28521026Y-6184552D01*
X28534910Y-6165832D01*
X28550562Y-6148562D01*
X28567832Y-6132910D01*
X28586552Y-6119026D01*
X28606543Y-6107044D01*
X28627613Y-6097079D01*
X28649557Y-6089227D01*
X28672166Y-6083563D01*
X28695221Y-6080144D01*
X28718500Y-6079000D01*
X29193500Y-6079000D01*
X29216779Y-6080144D01*
X29216779Y-6080144D01*
G37*
D12*
X28956000Y-6604000D03*
G04 #@! TD*
D11*
G04 #@! TO.C,D1*
G36*
X31834779Y-4606144D02*
X31857834Y-4609563D01*
X31880443Y-4615227D01*
X31902387Y-4623079D01*
X31923457Y-4633044D01*
X31943448Y-4645026D01*
X31962168Y-4658910D01*
X31979438Y-4674562D01*
X31995090Y-4691832D01*
X32008974Y-4710552D01*
X32020956Y-4730543D01*
X32030921Y-4751613D01*
X32038773Y-4773557D01*
X32044437Y-4796166D01*
X32047856Y-4819221D01*
X32049000Y-4842500D01*
X32049000Y-5317500D01*
X32047856Y-5340779D01*
X32044437Y-5363834D01*
X32038773Y-5386443D01*
X32030921Y-5408387D01*
X32020956Y-5429457D01*
X32008974Y-5449448D01*
X31995090Y-5468168D01*
X31979438Y-5485438D01*
X31962168Y-5501090D01*
X31943448Y-5514974D01*
X31923457Y-5526956D01*
X31902387Y-5536921D01*
X31880443Y-5544773D01*
X31857834Y-5550437D01*
X31834779Y-5553856D01*
X31811500Y-5555000D01*
X31236500Y-5555000D01*
X31213221Y-5553856D01*
X31190166Y-5550437D01*
X31167557Y-5544773D01*
X31145613Y-5536921D01*
X31124543Y-5526956D01*
X31104552Y-5514974D01*
X31085832Y-5501090D01*
X31068562Y-5485438D01*
X31052910Y-5468168D01*
X31039026Y-5449448D01*
X31027044Y-5429457D01*
X31017079Y-5408387D01*
X31009227Y-5386443D01*
X31003563Y-5363834D01*
X31000144Y-5340779D01*
X30999000Y-5317500D01*
X30999000Y-4842500D01*
X31000144Y-4819221D01*
X31003563Y-4796166D01*
X31009227Y-4773557D01*
X31017079Y-4751613D01*
X31027044Y-4730543D01*
X31039026Y-4710552D01*
X31052910Y-4691832D01*
X31068562Y-4674562D01*
X31085832Y-4658910D01*
X31104552Y-4645026D01*
X31124543Y-4633044D01*
X31145613Y-4623079D01*
X31167557Y-4615227D01*
X31190166Y-4609563D01*
X31213221Y-4606144D01*
X31236500Y-4605000D01*
X31811500Y-4605000D01*
X31834779Y-4606144D01*
X31834779Y-4606144D01*
G37*
D12*
X31524000Y-5080000D03*
D11*
G36*
X33584779Y-4606144D02*
X33607834Y-4609563D01*
X33630443Y-4615227D01*
X33652387Y-4623079D01*
X33673457Y-4633044D01*
X33693448Y-4645026D01*
X33712168Y-4658910D01*
X33729438Y-4674562D01*
X33745090Y-4691832D01*
X33758974Y-4710552D01*
X33770956Y-4730543D01*
X33780921Y-4751613D01*
X33788773Y-4773557D01*
X33794437Y-4796166D01*
X33797856Y-4819221D01*
X33799000Y-4842500D01*
X33799000Y-5317500D01*
X33797856Y-5340779D01*
X33794437Y-5363834D01*
X33788773Y-5386443D01*
X33780921Y-5408387D01*
X33770956Y-5429457D01*
X33758974Y-5449448D01*
X33745090Y-5468168D01*
X33729438Y-5485438D01*
X33712168Y-5501090D01*
X33693448Y-5514974D01*
X33673457Y-5526956D01*
X33652387Y-5536921D01*
X33630443Y-5544773D01*
X33607834Y-5550437D01*
X33584779Y-5553856D01*
X33561500Y-5555000D01*
X32986500Y-5555000D01*
X32963221Y-5553856D01*
X32940166Y-5550437D01*
X32917557Y-5544773D01*
X32895613Y-5536921D01*
X32874543Y-5526956D01*
X32854552Y-5514974D01*
X32835832Y-5501090D01*
X32818562Y-5485438D01*
X32802910Y-5468168D01*
X32789026Y-5449448D01*
X32777044Y-5429457D01*
X32767079Y-5408387D01*
X32759227Y-5386443D01*
X32753563Y-5363834D01*
X32750144Y-5340779D01*
X32749000Y-5317500D01*
X32749000Y-4842500D01*
X32750144Y-4819221D01*
X32753563Y-4796166D01*
X32759227Y-4773557D01*
X32767079Y-4751613D01*
X32777044Y-4730543D01*
X32789026Y-4710552D01*
X32802910Y-4691832D01*
X32818562Y-4674562D01*
X32835832Y-4658910D01*
X32854552Y-4645026D01*
X32874543Y-4633044D01*
X32895613Y-4623079D01*
X32917557Y-4615227D01*
X32940166Y-4609563D01*
X32963221Y-4606144D01*
X32986500Y-4605000D01*
X33561500Y-4605000D01*
X33584779Y-4606144D01*
X33584779Y-4606144D01*
G37*
D12*
X33274000Y-5080000D03*
G04 #@! TD*
D11*
G04 #@! TO.C,R18*
G36*
X37366779Y-4606144D02*
X37389834Y-4609563D01*
X37412443Y-4615227D01*
X37434387Y-4623079D01*
X37455457Y-4633044D01*
X37475448Y-4645026D01*
X37494168Y-4658910D01*
X37511438Y-4674562D01*
X37527090Y-4691832D01*
X37540974Y-4710552D01*
X37552956Y-4730543D01*
X37562921Y-4751613D01*
X37570773Y-4773557D01*
X37576437Y-4796166D01*
X37579856Y-4819221D01*
X37581000Y-4842500D01*
X37581000Y-5317500D01*
X37579856Y-5340779D01*
X37576437Y-5363834D01*
X37570773Y-5386443D01*
X37562921Y-5408387D01*
X37552956Y-5429457D01*
X37540974Y-5449448D01*
X37527090Y-5468168D01*
X37511438Y-5485438D01*
X37494168Y-5501090D01*
X37475448Y-5514974D01*
X37455457Y-5526956D01*
X37434387Y-5536921D01*
X37412443Y-5544773D01*
X37389834Y-5550437D01*
X37366779Y-5553856D01*
X37343500Y-5555000D01*
X36768500Y-5555000D01*
X36745221Y-5553856D01*
X36722166Y-5550437D01*
X36699557Y-5544773D01*
X36677613Y-5536921D01*
X36656543Y-5526956D01*
X36636552Y-5514974D01*
X36617832Y-5501090D01*
X36600562Y-5485438D01*
X36584910Y-5468168D01*
X36571026Y-5449448D01*
X36559044Y-5429457D01*
X36549079Y-5408387D01*
X36541227Y-5386443D01*
X36535563Y-5363834D01*
X36532144Y-5340779D01*
X36531000Y-5317500D01*
X36531000Y-4842500D01*
X36532144Y-4819221D01*
X36535563Y-4796166D01*
X36541227Y-4773557D01*
X36549079Y-4751613D01*
X36559044Y-4730543D01*
X36571026Y-4710552D01*
X36584910Y-4691832D01*
X36600562Y-4674562D01*
X36617832Y-4658910D01*
X36636552Y-4645026D01*
X36656543Y-4633044D01*
X36677613Y-4623079D01*
X36699557Y-4615227D01*
X36722166Y-4609563D01*
X36745221Y-4606144D01*
X36768500Y-4605000D01*
X37343500Y-4605000D01*
X37366779Y-4606144D01*
X37366779Y-4606144D01*
G37*
D12*
X37056000Y-5080000D03*
D11*
G36*
X35616779Y-4606144D02*
X35639834Y-4609563D01*
X35662443Y-4615227D01*
X35684387Y-4623079D01*
X35705457Y-4633044D01*
X35725448Y-4645026D01*
X35744168Y-4658910D01*
X35761438Y-4674562D01*
X35777090Y-4691832D01*
X35790974Y-4710552D01*
X35802956Y-4730543D01*
X35812921Y-4751613D01*
X35820773Y-4773557D01*
X35826437Y-4796166D01*
X35829856Y-4819221D01*
X35831000Y-4842500D01*
X35831000Y-5317500D01*
X35829856Y-5340779D01*
X35826437Y-5363834D01*
X35820773Y-5386443D01*
X35812921Y-5408387D01*
X35802956Y-5429457D01*
X35790974Y-5449448D01*
X35777090Y-5468168D01*
X35761438Y-5485438D01*
X35744168Y-5501090D01*
X35725448Y-5514974D01*
X35705457Y-5526956D01*
X35684387Y-5536921D01*
X35662443Y-5544773D01*
X35639834Y-5550437D01*
X35616779Y-5553856D01*
X35593500Y-5555000D01*
X35018500Y-5555000D01*
X34995221Y-5553856D01*
X34972166Y-5550437D01*
X34949557Y-5544773D01*
X34927613Y-5536921D01*
X34906543Y-5526956D01*
X34886552Y-5514974D01*
X34867832Y-5501090D01*
X34850562Y-5485438D01*
X34834910Y-5468168D01*
X34821026Y-5449448D01*
X34809044Y-5429457D01*
X34799079Y-5408387D01*
X34791227Y-5386443D01*
X34785563Y-5363834D01*
X34782144Y-5340779D01*
X34781000Y-5317500D01*
X34781000Y-4842500D01*
X34782144Y-4819221D01*
X34785563Y-4796166D01*
X34791227Y-4773557D01*
X34799079Y-4751613D01*
X34809044Y-4730543D01*
X34821026Y-4710552D01*
X34834910Y-4691832D01*
X34850562Y-4674562D01*
X34867832Y-4658910D01*
X34886552Y-4645026D01*
X34906543Y-4633044D01*
X34927613Y-4623079D01*
X34949557Y-4615227D01*
X34972166Y-4609563D01*
X34995221Y-4606144D01*
X35018500Y-4605000D01*
X35593500Y-4605000D01*
X35616779Y-4606144D01*
X35616779Y-4606144D01*
G37*
D12*
X35306000Y-5080000D03*
G04 #@! TD*
M02*
